<?xml version='1.0' encoding='utf-8'?>
<COLLADA xmlns="http://www.collada.org/2005/11/COLLADASchema" version="1.4.1">
  <asset>
    <created>2026-09-15T00:00:00Z</created>
    <modified>2026-09-15T00:00:00Z</modified>
    <unit name="meter" meter="1" />
    <up_axis>Z_UP</up_axis>
  </asset>
  <library_images />
  <library_effects>
    <effect id="e0">
      <profile_COMMON>
        <technique sid="common">
          <phong>
            <ambient>
              <color>0.01575 0.072 0.06525 1</color>
            </ambient>
            <diffuse>
              <color>0.035 0.16 0.145 1</color>
            </diffuse>
            <specular>
              <color>0.02 0.02 0.02 1</color>
            </specular>
            <shininess>
              <float>8</float>
            </shininess>
          </phong>
        </technique>
      </profile_COMMON>
    </effect>
  </library_effects>
  <library_materials>
    <material id="m0" name="m0">
      <instance_effect url="#e0" />
    </material>
  </library_materials>
  <library_geometries>
    <geometry id="geometry" name="0820_winding_river_water">
      <mesh>
        <source id="positions">
          <float_array id="positions-array" count="294">10.08614 -8.54562 -2.414638 10.42553 -7.913379 -2.396601 10.84362 -7.13604 -2.378564 11.32767 -6.247525 -2.360527 16.44526 -8.05102 -2.342489 11.86888 -5.276273 -2.342489 17.05782 -7.115207 -2.324452 12.46018 -4.24828 -2.324452 17.69388 -6.169551 -2.306415 13.09562 -3.188046 -2.306415 18.34397 -5.240336 -2.288378 13.77039 -2.118869 -2.288378 18.99714 -4.35512 -2.27034 14.48117 -1.062826 -2.27034 19.64001 -3.542946 -2.252303 15.22705 -0.04046126 -2.252303 20.25498 -2.834835 -2.234266 16.01134 0.9296462 -2.234266 20.83814 -2.242896 -2.216228 16.82369 1.810001 -2.216228 21.43745 -1.705104 -2.198191 17.64243 2.586798 -2.198191 22.08002 -1.174727 -2.180154 18.47279 3.298114 -2.180154 22.74929 -0.6647042 -2.162117 19.32604 3.962143 -2.162117 23.44422 -0.1727799 -2.144079 20.19798 4.581891 -2.144079 24.16349 0.3031063 -2.126042 21.08465 5.160558 -2.126042 24.90549 0.7648766 -2.108005 21.98241 5.701488 -2.108005 25.6684 1.214376 -2.089968 22.88783 6.208085 -2.089968 26.45015 1.65344 -2.07193 23.7977 6.683791 -2.07193 27.24852 2.083897 -2.053893 24.70898 7.132022 -2.053893 28.06116 2.507638 -2.035855 25.61878 7.556159 -2.035855 28.88561 2.92659 -2.017818 26.52428 7.959529 -2.017818 29.70265 3.335159 -1.999781 27.43944 8.352996 -1.999781 30.49506 3.716039 -1.981744 28.38211 8.733942 -1.981744 31.28194 4.068085 -1.963706 29.33934 9.085097 -1.963706 32.08244 4.401893 -1.945669 30.29497 9.403386 -1.945669 32.89902 4.720448 -1.927632 31.24955 9.693342 -1.927632 33.73382 5.026644 -1.909595 32.20395 9.959574 -1.909595 34.58866 5.323357 -1.891557 33.15935 10.20674 -1.891557 35.46507 5.613457 -1.87352 34.11724 10.43947 -1.87352 36.36434 5.899873 -1.855483 35.0793 10.66235 -1.855483 37.2876 6.185596 -1.837446 36.04745 10.87992 -1.837446 38.2358 6.473696 -1.819408 37.02373 11.09661 -1.819408 39.20981 6.767325 -1.801371 38.01028 11.3168 -1.801371 40.18804 7.063806 -1.783334 39.03168 11.55066 -1.783334 41.1503 7.33995 -1.765297 40.10324 11.78369 -1.765297 42.12127 7.587251 -1.747259 41.19391 11.99222 -1.747259 43.12471 7.818126 -1.729222 42.28067 12.17958 -1.729222 44.16019 8.039135 -1.711185 43.36469 12.35501 -1.711185 45.22707 8.25725 -1.693148 44.44737 12.52733 -1.693148 46.32467 8.479842 -1.67511 45.53016 12.70494 -1.67511 47.45226 8.714618 -1.657073 46.61451 12.89592 -1.657073 48.60918 8.969563 -1.639036 47.70186 13.10806 -1.639036 49.79467 9.252892 -1.620998 48.79369 13.34894 -1.620998 51.00804 9.572966 -1.602961 49.89148 13.62598 -1.602961 50.99679 13.94649 -1.584924 9.964339 -8.766116 -2.42269 10.43919 -8.766116 -2.414638 11.84497 -8.766116 -2.396601 13.59043 -8.766116 -2.378564 15.55285 -8.766116 -2.360527 15.98428 -8.766116 -2.356807 51.23332 9.639308 -1.599685 51.23332 13.18904 -1.584924 51.23332 14.02531 -1.581098</float_array>
          <technique_common>
            <accessor source="#positions-array" count="98" stride="3">
              <param name="X" type="float" />
              <param name="Y" type="float" />
              <param name="Z" type="float" />
            </accessor>
          </technique_common>
        </source>
        <source id="normals">
          <float_array id="normals-array" count="288">-0.0169466 -0.02713381 0.9994882 -0.01282665 -0.02135075 0.9996898 -0.0133398 -0.02135883 0.9996829 -0.01033178 -0.01740984 0.9997951 -0.01053355 -0.01753375 0.9997908 -0.009189793 -0.01541677 0.9998389 -0.00910242 -0.01533828 0.9998409 -0.008620589 -0.01446187 0.9998583 -0.008726955 -0.01439331 0.9998583 -0.008330978 -0.0139264 0.9998683 -0.008533932 -0.01368571 0.9998699 -0.007886754 -0.01300757 0.9998843 -0.008610688 -0.01327993 0.9998747 -0.007721603 -0.012383 0.9998935 -0.008965537 -0.01313633 0.9998735 -0.007761423 -0.01197014 0.9998982 -0.009657827 -0.01324743 0.9998656 -0.007987077 -0.01170269 0.9998996 -0.01082403 -0.01363775 0.9998484 -0.00839555 -0.01151599 0.9998984 -0.01276089 -0.01438515 0.9998151 -0.008988082 -0.01132455 0.9998955 -0.01541973 -0.01527348 0.9997644 -0.009993244 -0.01126523 0.9998866 -0.01677705 -0.01483475 0.9997492 -0.01135573 -0.01124803 0.9998723 -0.01684857 -0.01358792 0.9997657 -0.0123583 -0.01092756 0.9998639 -0.01722988 -0.01274779 0.9997703 -0.01298606 -0.01047291 0.9998608 -0.01749468 -0.01194446 0.9997756 -0.01355533 -0.01002911 0.9998578 -0.01766382 -0.01119599 0.9997813 -0.01407002 -0.009606277 0.9998549 -0.01775955 -0.01051584 0.999787 -0.0145369 -0.009214031 0.9998519 -0.01779863 -0.009910539 0.9997925 -0.01496158 -0.008859099 0.9998488 -0.01779767 -0.009384528 0.9997976 -0.0153519 -0.00854816 0.9998456 -0.01776855 -0.00893874 0.9998022 -0.01571437 -0.008286025 0.9998422 -0.01772138 -0.008573268 0.9998062 -0.01605688 -0.008077656 0.9998385 -0.0176626 -0.008286863 0.9998097 -0.01638518 -0.00792684 0.9998343 -0.01800993 -0.008123074 0.9998048 -0.01639822 -0.007693647 0.9998359 -0.01892685 -0.007969766 0.9997891 -0.01618171 -0.007298483 0.9998424 -0.01953385 -0.007563542 0.9997806 -0.01631946 -0.006871836 0.9998432 -0.01960545 -0.007006753 0.9997832 -0.01671581 -0.00647239 0.9998393 -0.01955417 -0.006485937 0.9997878 -0.01704237 -0.006090739 0.9998362 -0.01939583 -0.006015288 0.9997938 -0.01729561 -0.005736794 0.999834 -0.01915059 -0.005605136 0.9998009 -0.01747425 -0.005419343 0.9998326 -0.01883564 -0.005260483 0.9998088 -0.01757712 -0.005144601 0.9998323 -0.01846681 -0.004982813 0.9998171 -0.01760616 -0.004917111 0.9998329 -0.01805691 -0.004770288 0.9998256 -0.01756276 -0.004738877 0.9998345 -0.01761616 -0.004618722 0.9998342 -0.0174493 -0.004609768 0.9998371 -0.0171523 -0.004522434 0.9998427 -0.01726973 -0.004527894 0.9998406 -0.01710013 -0.004407097 0.9998441 -0.01665163 -0.004390424 0.9998517 -0.01755459 -0.004136311 0.9998374 -0.01593709 -0.004107353 0.9998646 -0.01762834 -0.003711195 0.9998377 -0.01582273 -0.003728239 0.9998679 -0.01720655 -0.003329888 0.9998464 -0.01601409 -0.003371355 0.9998661 -0.01675738 -0.003088719 0.9998548 -0.0161316 -0.00312186 0.999865 -0.01629587 -0.002975565 0.9998628 -0.01618278 -0.002982808 0.9998646 -0.01582785 -0.002976356 0.9998703 -0.01617174 -0.0029529 0.9998649 -0.0153537 -0.003076231 0.9998774 -0.0160987 -0.003027287 0.9998658 -0.01487059 -0.003260179 0.9998841 -0.01596199 -0.003198106 0.9998675 -0.01437386 -0.003512649 0.9998905 -0.01575614 -0.003454324 0.9998699 -0.01385695 -0.003817411 0.9998967 -0.01547406 -0.003781514 0.9998731 -0.01464629 -0.00457369 0.9998823 -0.01344947 -0.003705155 0.9999027 -0.01331512 -0.004157998 0.9999027 -0.01508302 -0.004254997 0.9998772</float_array>
          <technique_common>
            <accessor source="#normals-array" count="96" stride="3">
              <param name="X" type="float" />
              <param name="Y" type="float" />
              <param name="Z" type="float" />
            </accessor>
          </technique_common>
        </source>
        <source id="uv">
          <float_array id="uv-array" count="576">4.175676 -3.506446 4.034458 -3.418248 3.985736 -3.506446 4.175676 -3.506446 4.737986 -3.506446 4.170213 -3.165352 4.175676 -3.506446 4.170213 -3.165352 4.034458 -3.418248 4.737986 -3.506446 5.436171 -3.506446 4.337449 -2.854416 4.737986 -3.506446 4.337449 -2.854416 4.170213 -3.165352 5.436171 -3.506446 6.221142 -3.506446 4.531069 -2.49901 5.436171 -3.506446 4.531069 -2.49901 4.337449 -2.854416 4.531069 -2.49901 6.221142 -3.506446 6.393713 -3.506446 6.393713 -3.506446 6.578102 -3.220408 4.747553 -2.110509 6.393713 -3.506446 4.747553 -2.110509 4.531069 -2.49901 6.578102 -3.220408 6.823128 -2.846083 4.984072 -1.699312 6.578102 -3.220408 4.984072 -1.699312 4.747553 -2.110509 6.823128 -2.846083 7.077552 -2.46782 5.238249 -1.275219 6.823128 -2.846083 5.238249 -1.275219 4.984072 -1.699312 7.077552 -2.46782 7.33759 -2.096134 5.508156 -0.8475475 7.077552 -2.46782 5.508156 -0.8475475 5.238249 -1.275219 7.33759 -2.096134 7.598856 -1.742048 5.792469 -0.4251304 7.33759 -2.096134 5.792469 -0.4251304 5.508156 -0.8475475 7.598856 -1.742048 7.856004 -1.417178 6.090819 -0.0161845 7.598856 -1.742048 6.090819 -0.0161845 5.792469 -0.4251304 7.856004 -1.417178 8.101993 -1.133934 6.404536 0.3718585 7.856004 -1.417178 6.404536 0.3718585 6.090819 -0.0161845 8.101993 -1.133934 8.335258 -0.8971584 6.729475 0.7240002 8.101993 -1.133934 6.729475 0.7240002 6.404536 0.3718585 8.335258 -0.8971584 8.574982 -0.6820414 7.056973 1.034719 8.335258 -0.8971584 7.056973 1.034719 6.729475 0.7240002 8.574982 -0.6820414 8.832007 -0.4698909 7.389116 1.319246 8.574982 -0.6820414 7.389116 1.319246 7.056973 1.034719 8.832007 -0.4698909 9.099714 -0.2658817 7.730417 1.584857 8.832007 -0.4698909 7.730417 1.584857 7.389116 1.319246 9.099714 -0.2658817 9.377687 -0.06911198 8.07919 1.832756 9.099714 -0.2658817 8.07919 1.832756 7.730417 1.584857 9.377687 -0.06911198 9.665394 0.1212425 8.433861 2.064223 9.377687 -0.06911198 8.433861 2.064223 8.07919 1.832756 9.665394 0.1212425 9.962196 0.3059507 8.792963 2.280595 9.665394 0.1212425 8.792963 2.280595 8.433861 2.064223 9.962196 0.3059507 10.26736 0.4857503 9.155131 2.483234 9.962196 0.3059507 9.155131 2.483234 8.792963 2.280595 10.26736 0.4857503 10.58006 0.6613759 9.519078 2.673516 10.26736 0.4857503 9.519078 2.673516 9.155131 2.483234 10.58006 0.6613759 10.89941 0.8335588 9.883593 2.852809 10.58006 0.6613759 9.883593 2.852809 9.519078 2.673516 10.89941 0.8335588 11.22446 1.003055 10.24751 3.022464 10.89941 0.8335588 10.24751 3.022464 9.883593 2.852809 11.22446 1.003055 11.55424 1.170636 10.60971 3.183812 11.22446 1.003055 10.60971 3.183812 10.24751 3.022464 11.55424 1.170636 11.88106 1.334064 10.97578 3.341198 11.55424 1.170636 10.97578 3.341198 10.60971 3.183812 11.88106 1.334064 12.19803 1.486416 11.35285 3.493577 11.88106 1.334064 11.35285 3.493577 10.97578 3.341198 12.19803 1.486416 12.51278 1.627234 11.73574 3.634039 12.19803 1.486416 11.73574 3.634039 11.35285 3.493577 12.51278 1.627234 12.83298 1.760757 12.11799 3.761354 12.51278 1.627234 12.11799 3.761354 11.73574 3.634039 12.83298 1.760757 13.15961 1.888179 12.49982 3.877337 12.83298 1.760757 12.49982 3.877337 12.11799 3.761354 13.15961 1.888179 13.49353 2.010658 12.88158 3.983829 13.15961 1.888179 12.88158 3.983829 12.49982 3.877337 13.49353 2.010658 13.83546 2.129343 13.26374 4.082695 13.49353 2.010658 13.26374 4.082695 12.88158 3.983829 13.83546 2.129343 14.18603 2.245383 13.6469 4.175787 13.83546 2.129343 13.6469 4.175787 13.26374 4.082695 14.18603 2.245383 14.54574 2.359949 14.03172 4.264941 14.18603 2.245383 14.03172 4.264941 13.6469 4.175787 14.54574 2.359949 14.91504 2.474239 14.41898 4.351968 14.54574 2.359949 14.41898 4.351968 14.03172 4.264941 14.91504 2.474239 15.29432 2.589479 14.80949 4.438644 14.91504 2.474239 14.80949 4.438644 14.41898 4.351968 15.29432 2.589479 15.68392 2.70693 15.20411 4.52672 15.29432 2.589479 15.20411 4.52672 14.80949 4.438644 15.68392 2.70693 16.07522 2.825522 15.61267 4.620265 15.68392 2.70693 15.61267 4.620265 15.20411 4.52672 16.07522 2.825522 16.46012 2.93598 16.0413 4.713477 16.07522 2.825522 16.0413 4.713477 15.61267 4.620265 16.46012 2.93598 16.84851 3.0349 16.47757 4.796886 16.46012 2.93598 16.47757 4.796886 16.0413 4.713477 16.84851 3.0349 17.24989 3.12725 16.91227 4.871831 16.84851 3.0349 16.91227 4.871831 16.47757 4.796886 17.24989 3.12725 17.66408 3.215654 17.34588 4.942005 17.24989 3.12725 17.34588 4.942005 16.91227 4.871831 17.66408 3.215654 18.09083 3.3029 17.77895 5.010931 17.66408 3.215654 17.77895 5.010931 17.34588 4.942005 18.09083 3.3029 18.52987 3.391937 18.21206 5.081975 18.09083 3.3029 18.21206 5.081975 17.77895 5.010931 18.52987 3.391937 18.98091 3.485847 18.6458 5.158368 18.52987 3.391937 18.6458 5.158368 18.21206 5.081975 18.98091 3.485847 19.44367 3.587825 19.08075 5.243225 18.98091 3.485847 19.08075 5.243225 18.6458 5.158368 19.44367 3.587825 19.91787 3.701157 19.51748 5.339577 19.44367 3.587825 19.51748 5.339577 19.08075 5.243225 19.91787 3.701157 20.40321 3.829186 19.95659 5.450391 19.91787 3.701157 19.95659 5.450391 19.51748 5.339577 20.49333 5.275616 20.49333 5.610123 20.39871 5.578597 19.95659 5.450391 20.40321 3.829186 20.49333 3.855723 20.49333 3.855723 20.49333 5.275616 20.39871 5.578597 20.49333 3.855723 20.39871 5.578597 19.95659 5.450391</float_array>
          <technique_common>
            <accessor source="#uv-array" count="288" stride="2">
              <param name="S" type="float" />
              <param name="T" type="float" />
            </accessor>
          </technique_common>
        </source>
        <vertices id="vertices">
          <input semantic="POSITION" source="#positions" />
        </vertices>
        <triangles count="96" material="m0">
          <input semantic="VERTEX" source="#vertices" offset="0" />
          <input semantic="NORMAL" source="#normals" offset="1" />
          <input semantic="TEXCOORD" source="#uv" offset="2" set="0" />
          <p>90 0 0 0 0 1 89 0 2 90 1 3 91 1 4 1 1 5 90 2 6 1 2 7 0 2 8 91 3 9 92 3 10 2 3 11 91 4 12 2 4 13 1 4 14 92 5 15 93 5 16 3 5 17 92 6 18 3 6 19 2 6 20 3 7 21 93 7 22 94 7 23 94 8 24 4 8 25 5 8 26 94 9 27 5 9 28 3 9 29 4 10 30 6 10 31 7 10 32 4 11 33 7 11 34 5 11 35 6 12 36 8 12 37 9 12 38 6 13 39 9 13 40 7 13 41 8 14 42 10 14 43 11 14 44 8 15 45 11 15 46 9 15 47 10 16 48 12 16 49 13 16 50 10 17 51 13 17 52 11 17 53 12 18 54 14 18 55 15 18 56 12 19 57 15 19 58 13 19 59 14 20 60 16 20 61 17 20 62 14 21 63 17 21 64 15 21 65 16 22 66 18 22 67 19 22 68 16 23 69 19 23 70 17 23 71 18 24 72 20 24 73 21 24 74 18 25 75 21 25 76 19 25 77 20 26 78 22 26 79 23 26 80 20 27 81 23 27 82 21 27 83 22 28 84 24 28 85 25 28 86 22 29 87 25 29 88 23 29 89 24 30 90 26 30 91 27 30 92 24 31 93 27 31 94 25 31 95 26 32 96 28 32 97 29 32 98 26 33 99 29 33 100 27 33 101 28 34 102 30 34 103 31 34 104 28 35 105 31 35 106 29 35 107 30 36 108 32 36 109 33 36 110 30 37 111 33 37 112 31 37 113 32 38 114 34 38 115 35 38 116 32 39 117 35 39 118 33 39 119 34 40 120 36 40 121 37 40 122 34 41 123 37 41 124 35 41 125 36 42 126 38 42 127 39 42 128 36 43 129 39 43 130 37 43 131 38 44 132 40 44 133 41 44 134 38 45 135 41 45 136 39 45 137 40 46 138 42 46 139 43 46 140 40 47 141 43 47 142 41 47 143 42 48 144 44 48 145 45 48 146 42 49 147 45 49 148 43 49 149 44 50 150 46 50 151 47 50 152 44 51 153 47 51 154 45 51 155 46 52 156 48 52 157 49 52 158 46 53 159 49 53 160 47 53 161 48 54 162 50 54 163 51 54 164 48 55 165 51 55 166 49 55 167 50 56 168 52 56 169 53 56 170 50 57 171 53 57 172 51 57 173 52 58 174 54 58 175 55 58 176 52 59 177 55 59 178 53 59 179 54 60 180 56 60 181 57 60 182 54 61 183 57 61 184 55 61 185 56 62 186 58 62 187 59 62 188 56 63 189 59 63 190 57 63 191 58 64 192 60 64 193 61 64 194 58 65 195 61 65 196 59 65 197 60 66 198 62 66 199 63 66 200 60 67 201 63 67 202 61 67 203 62 68 204 64 68 205 65 68 206 62 69 207 65 69 208 63 69 209 64 70 210 66 70 211 67 70 212 64 71 213 67 71 214 65 71 215 66 72 216 68 72 217 69 72 218 66 73 219 69 73 220 67 73 221 68 74 222 70 74 223 71 74 224 68 75 225 71 75 226 69 75 227 70 76 228 72 76 229 73 76 230 70 77 231 73 77 232 71 77 233 72 78 234 74 78 235 75 78 236 72 79 237 75 79 238 73 79 239 74 80 240 76 80 241 77 80 242 74 81 243 77 81 244 75 81 245 76 82 246 78 82 247 79 82 248 76 83 249 79 83 250 77 83 251 78 84 252 80 84 253 81 84 254 78 85 255 81 85 256 79 85 257 80 86 258 82 86 259 83 86 260 80 87 261 83 87 262 81 87 263 82 88 264 84 88 265 85 88 266 82 89 267 85 89 268 83 89 269 84 90 270 86 90 271 87 90 272 84 91 273 87 91 274 85 91 275 96 92 276 97 92 277 88 92 278 87 93 279 86 93 280 95 93 281 95 94 282 96 94 283 88 94 284 95 95 285 88 95 286 87 95 287</p>
        </triangles>
      </mesh>
    </geometry>
  </library_geometries>
  <library_visual_scenes>
    <visual_scene id="Scene">
      <node id="Node" type="NODE">
        <instance_geometry url="#geometry">
          <bind_material>
            <technique_common>
              <instance_material symbol="m0" target="#m0">
                <bind_vertex_input semantic="UVSET0" input_semantic="TEXCOORD" input_set="0" />
              </instance_material>
            </technique_common>
          </bind_material>
        </instance_geometry>
      </node>
    </visual_scene>
  </library_visual_scenes>
  <scene>
    <instance_visual_scene url="#Scene" />
  </scene>
</COLLADA>