<?xml version='1.0' encoding='utf-8'?>
<COLLADA xmlns="http://www.collada.org/2005/11/COLLADASchema" version="1.4.1">
  <asset>
    <created>2026-09-15T00:00:00Z</created>
    <modified>2026-09-15T00:00:00Z</modified>
    <unit name="meter" meter="1" />
    <up_axis>Z_UP</up_axis>
  </asset>
  <library_images />
  <library_effects>
    <effect id="e0">
      <profile_COMMON>
        <technique sid="common">
          <phong>
            <ambient>
              <color>0.117 0.10125 0.0675 1</color>
            </ambient>
            <diffuse>
              <color>0.26 0.225 0.15 1</color>
            </diffuse>
            <specular>
              <color>0.02 0.02 0.02 1</color>
            </specular>
            <shininess>
              <float>8</float>
            </shininess>
          </phong>
        </technique>
      </profile_COMMON>
    </effect>
  </library_effects>
  <library_materials>
    <material id="m0" name="m0">
      <instance_effect url="#e0" />
    </material>
  </library_materials>
  <library_geometries>
    <geometry id="geometry" name="0822_right_gravel_bank">
      <mesh>
        <source id="positions">
          <float_array id="positions-array" count="297">9.185851 -8.634658 -2.182982 10.08614 -8.54562 -2.414638 9.442887 -8.143863 -2.176865 10.42553 -7.913379 -2.396601 9.765512 -7.516871 -2.15835 10.84362 -7.13604 -2.378564 10.17174 -6.737312 -2.127853 11.32767 -6.247525 -2.360527 10.64715 -5.841864 -2.111168 11.86888 -5.276273 -2.342489 11.18243 -4.86006 -2.068629 12.46018 -4.24828 -2.324452 11.77054 -3.818239 -2.058549 13.09562 -3.188046 -2.306415 12.40588 -2.740823 -2.02097 13.77039 -2.118869 -2.288378 13.08435 -1.65065 -2.003466 14.48117 -1.062826 -2.27034 13.80378 -0.568983 -1.958456 15.22705 -0.04046126 -2.252303 14.5651 0.4849113 -1.890196 16.01134 0.9296462 -2.234266 15.37479 1.494318 -1.844512 16.82369 1.810001 -2.216228 16.22152 2.417933 -1.82971 17.64243 2.586798 -2.198191 17.07318 3.230583 -1.788148 18.47279 3.298114 -2.180154 17.93171 3.969039 -1.777223 19.32604 3.962143 -2.162117 18.81256 4.656171 -1.698585 20.19798 4.581891 -2.144079 19.71104 5.295093 -1.705554 21.08465 5.160558 -2.126042 20.62282 5.889177 -1.714213 21.98241 5.701488 -2.108005 21.54394 6.44198 -1.708744 22.88783 6.208085 -2.089968 22.47074 6.957142 -1.658767 23.7977 6.683791 -2.07193 23.39983 7.438346 -1.64376 24.70898 7.132022 -2.053893 24.32805 7.88924 -1.606908 25.61878 7.556159 -2.035855 25.25242 8.313436 -1.558886 26.52428 7.959529 -2.017818 26.17008 8.714472 -1.513408 27.43944 8.352996 -1.999781 27.09996 9.105673 -1.451429 28.38211 8.733942 -1.981744 28.06517 9.486629 -1.338905 29.33934 9.085097 -1.963706 29.04795 9.83765 -1.417814 30.29497 9.403386 -1.945669 30.02685 10.15361 -1.341845 31.24955 9.693342 -1.927632 31.00213 10.43928 -1.366674 32.20395 9.959574 -1.909595 31.97447 10.69951 -1.357598 33.15935 10.20674 -1.891557 32.94496 10.93924 -1.376787 34.11724 10.43947 -1.87352 33.91506 11.16337 -1.342736 35.0793 10.66235 -1.855483 34.88655 11.37672 -1.3689 36.04745 10.87992 -1.837446 35.86143 11.58407 -1.338614 37.02373 11.09661 -1.819408 36.84192 11.79005 -1.349427 38.01028 11.3168 -1.801371 37.83034 11.99922 -1.381603 39.03168 11.55066 -1.783334 38.85822 12.22369 -1.418322 40.10324 11.78369 -1.765297 39.94618 12.45026 -1.410376 41.19391 11.99222 -1.747259 41.05482 12.65296 -1.405303 42.28067 12.17958 -1.729222 42.15406 12.8338 -1.419062 43.36469 12.35501 -1.711185 43.24536 13.00239 -1.416281 44.44737 12.52733 -1.693148 44.33042 13.16784 -1.406029 45.53016 12.70494 -1.67511 45.41098 13.3387 -1.211254 46.61451 12.89592 -1.657073 46.48884 13.52311 -1.274409 47.70186 13.10806 -1.639036 47.56577 13.72884 -1.420581 48.79369 13.34894 -1.620998 48.64354 13.96335 -1.306644 49.89148 13.62598 -1.602961 49.724 14.23393 -1.431117 50.99679 13.94649 -1.584924 50.80904 14.54773 -1.443529 9.964339 -8.766116 -2.42269 9.389521 -8.766116 -2.264038 51.23332 14.02531 -1.581098 51.23332 14.68929 -1.435578</float_array>
          <technique_common>
            <accessor source="#positions-array" count="99" stride="3">
              <param name="X" type="float" />
              <param name="Y" type="float" />
              <param name="Z" type="float" />
            </accessor>
          </technique_common>
        </source>
        <source id="normals">
          <float_array id="normals-array" count="291">0.2617472 -0.1792185 0.9483508 0.2460302 -0.1707486 0.9541038 0.2673513 -0.1518746 0.9515553 0.2483622 -0.1605738 0.9552655 0.2536084 -0.1586743 0.954204 0.2593895 -0.161606 0.9521558 0.2454999 -0.1652988 0.9551995 0.25512 -0.1583496 0.9538549 0.2621705 -0.1569323 0.9521759 0.2742614 -0.1704024 0.9464374 0.2451194 -0.174955 0.953576 0.2620572 -0.1674109 0.9504208 0.2771645 -0.1656168 0.9464412 0.2740325 -0.18031 0.9446663 0.2527612 -0.1821941 0.9502195 0.2669547 -0.1844352 0.9458958 0.271531 -0.1841556 0.9446468 0.2816485 -0.2055748 0.937237 0.2516046 -0.2066871 0.9455028 0.3102829 -0.2425865 0.9191715 0.2533811 -0.2436766 0.9361729 0.315443 -0.2719268 0.9091488 0.2868824 -0.2716963 0.9186292 0.293081 -0.2891122 0.9113274 0.2998315 -0.2894396 0.9090246 0.2857677 -0.3221566 0.9025253 0.2611641 -0.3202731 0.9106143 0.263992 -0.3311435 0.9058986 0.2742921 -0.3322425 0.9024294 0.2787894 -0.3821656 0.8810368 0.2103425 -0.3730598 0.9036495 0.2499316 -0.3775821 0.8916086 0.2786625 -0.3822592 0.8810364 0.2224829 -0.3690321 0.902395 0.253088 -0.3754367 0.8916242 0.2037604 -0.3684176 0.9070558 0.2178542 -0.3719315 0.9023339 0.2058026 -0.3996272 0.8932768 0.1674984 -0.3892084 0.9057931 0.1939327 -0.4048121 0.8935979 0.1954693 -0.4052569 0.8930614 0.1918094 -0.4255511 0.8843729 0.1676883 -0.4181724 0.8927556 0.1942997 -0.4537672 0.8696798 0.1570702 -0.4422385 0.8830368 0.1964829 -0.4793206 0.8553632 0.161793 -0.4686973 0.8684157 0.2047334 -0.5143647 0.8327744 0.1528218 -0.4984537 0.8533402 0.2188572 -0.5787696 0.7855745 0.1200793 -0.5486292 0.8273977 0.1792775 -0.5312342 0.8280398 0.2631197 -0.5600955 0.7855323 0.1774101 -0.5777988 0.7966644 0.1147491 -0.5538004 0.8247046 0.1548661 -0.5604568 0.8135753 0.1884224 -0.5740243 0.7968645 0.1417477 -0.5632918 0.8140085 0.1433607 -0.5640114 0.8132274 0.125497 -0.5455762 0.8286116 0.1543303 -0.5595881 0.8142747 0.1217952 -0.5645595 0.8163568 0.09863971 -0.5526805 0.8275352 0.1092784 -0.5392688 0.8350134 0.1446542 -0.5584973 0.8167961 0.1094039 -0.5551872 0.8244986 0.08978681 -0.544014 0.8342584 0.1042188 -0.5391152 0.8357591 0.1249237 -0.5513492 0.8248685 0.09653781 -0.5028947 0.8589397 0.1394349 -0.5302476 0.8362986 0.0890137 -0.4570254 0.8849883 0.138194 -0.4922153 0.8594338 0.08355748 -0.4529362 0.8876187 0.08872507 -0.4570958 0.8849809 0.0706549 -0.4467053 0.8918869 0.07894337 -0.4539677 0.8875141 0.05713233 -0.4186386 0.906354 0.08420095 -0.4439556 0.8920839 0.05057096 -0.4062825 0.9123471 0.0622217 -0.4177001 0.9064519 0.04860776 -0.4011594 0.9147177 0.05325604 -0.4058131 0.9124032 0.08139611 -0.5786421 0.8115097 -0.09584902 -0.4216846 0.9016624 0.07525921 -0.5083238 0.8578712 0.1444712 -0.566584 0.8112402 0.04720886 -0.3223564 0.9454405 0.2072702 -0.4789236 0.8530365 0.08184897 -0.4380294 0.8952268 -0.02618057 -0.3369399 0.9411621 0.04951488 -0.2590143 0.9646035 0.2042643 -0.4058577 0.8908174 0.04640484 -0.2149267 0.9755271 0.0832653 -0.2497506 0.9647236 0.05545088 -0.2137535 0.9753126 0.0527696 -0.2129643 0.9756339</float_array>
          <technique_common>
            <accessor source="#normals-array" count="97" stride="3">
              <param name="X" type="float" />
              <param name="Y" type="float" />
              <param name="Z" type="float" />
            </accessor>
          </technique_common>
        </source>
        <source id="uv">
          <float_array id="uv-array" count="582">3.674341 -3.453863 3.755809 -3.506446 3.985736 -3.506446 3.985736 -3.506446 4.034458 -3.418248 3.777155 -3.257545 3.985736 -3.506446 3.777155 -3.257545 3.674341 -3.453863 4.034458 -3.418248 4.170213 -3.165352 3.906205 -3.006748 4.034458 -3.418248 3.906205 -3.006748 3.777155 -3.257545 4.170213 -3.165352 4.337449 -2.854416 4.068697 -2.694925 4.170213 -3.165352 4.068697 -2.694925 3.906205 -3.006748 4.337449 -2.854416 4.531069 -2.49901 4.258859 -2.336746 4.337449 -2.854416 4.258859 -2.336746 4.068697 -2.694925 4.531069 -2.49901 4.747553 -2.110509 4.47297 -1.944024 4.531069 -2.49901 4.47297 -1.944024 4.258859 -2.336746 4.747553 -2.110509 4.984072 -1.699312 4.708214 -1.527296 4.747553 -2.110509 4.708214 -1.527296 4.47297 -1.944024 4.984072 -1.699312 5.238249 -1.275219 4.962353 -1.096329 4.984072 -1.699312 4.962353 -1.096329 4.708214 -1.527296 5.238249 -1.275219 5.508156 -0.8475475 5.233742 -0.6602599 5.238249 -1.275219 5.233742 -0.6602599 4.962353 -1.096329 5.508156 -0.8475475 5.792469 -0.4251304 5.521511 -0.2275932 5.508156 -0.8475475 5.521511 -0.2275932 5.233742 -0.6602599 5.792469 -0.4251304 6.090819 -0.0161845 5.826041 0.1939645 5.792469 -0.4251304 5.826041 0.1939645 5.521511 -0.2275932 6.090819 -0.0161845 6.404536 0.3718585 6.149917 0.5977272 6.090819 -0.0161845 6.149917 0.5977272 5.826041 0.1939645 6.404536 0.3718585 6.729475 0.7240002 6.488607 0.9671732 6.404536 0.3718585 6.488607 0.9671732 6.149917 0.5977272 6.729475 0.7240002 7.056973 1.034719 6.829272 1.292233 6.729475 0.7240002 6.829272 1.292233 6.488607 0.9671732 7.056973 1.034719 7.389116 1.319246 7.172682 1.587616 7.056973 1.034719 7.172682 1.587616 6.829272 1.292233 7.389116 1.319246 7.730417 1.584857 7.525022 1.862468 7.389116 1.319246 7.525022 1.862468 7.172682 1.587616 7.730417 1.584857 8.07919 1.832756 7.884415 2.118037 7.730417 1.584857 7.884415 2.118037 7.525022 1.862468 8.07919 1.832756 8.433861 2.064223 8.24913 2.355671 8.07919 1.832756 8.24913 2.355671 7.884415 2.118037 8.433861 2.064223 8.792963 2.280595 8.617578 2.576792 8.433861 2.064223 8.617578 2.576792 8.24913 2.355671 8.792963 2.280595 9.155131 2.483234 8.988296 2.782857 8.792963 2.280595 8.988296 2.782857 8.617578 2.576792 9.155131 2.483234 9.519078 2.673516 9.359932 2.975338 9.155131 2.483234 9.359932 2.975338 8.988296 2.782857 9.519078 2.673516 9.883593 2.852809 9.731221 3.155696 9.519078 2.673516 9.731221 3.155696 9.359932 2.975338 9.883593 2.852809 10.24751 3.022464 10.10097 3.325374 9.883593 2.852809 10.10097 3.325374 9.731221 3.155696 10.24751 3.022464 10.60971 3.183812 10.46803 3.485789 10.24751 3.022464 10.46803 3.485789 10.10097 3.325374 10.60971 3.183812 10.97578 3.341198 10.83998 3.642269 10.60971 3.183812 10.83998 3.642269 10.46803 3.485789 10.97578 3.341198 11.35285 3.493577 11.22607 3.794652 10.97578 3.341198 11.22607 3.794652 10.83998 3.642269 11.35285 3.493577 11.73574 3.634039 11.61918 3.93506 11.35285 3.493577 11.61918 3.93506 11.22607 3.794652 11.73574 3.634039 12.11799 3.761354 12.01074 4.061444 11.73574 3.634039 12.01074 4.061444 11.61918 3.93506 12.11799 3.761354 12.49982 3.877337 12.40085 4.175711 12.11799 3.761354 12.40085 4.175711 12.01074 4.061444 12.49982 3.877337 12.88158 3.983829 12.78979 4.279805 12.49982 3.877337 12.78979 4.279805 12.40085 4.175711 12.88158 3.983829 13.26374 4.082695 13.17798 4.375698 12.88158 3.983829 13.17798 4.375698 12.78979 4.279805 13.26374 4.082695 13.6469 4.175787 13.56602 4.465347 13.26374 4.082695 13.56602 4.465347 13.17798 4.375698 13.6469 4.175787 14.03172 4.264941 13.95462 4.55069 13.6469 4.175787 13.95462 4.55069 13.56602 4.465347 14.03172 4.264941 14.41898 4.351968 14.34457 4.633627 14.03172 4.264941 14.34457 4.633627 13.95462 4.55069 14.41898 4.351968 14.80949 4.438644 14.73677 4.716019 14.41898 4.351968 14.73677 4.716019 14.34457 4.633627 14.80949 4.438644 15.20411 4.52672 15.13214 4.799688 14.80949 4.438644 15.13214 4.799688 14.73677 4.716019 15.20411 4.52672 15.61267 4.620265 15.54329 4.889476 15.20411 4.52672 15.54329 4.889476 15.13214 4.799688 15.61267 4.620265 16.0413 4.713477 15.97847 4.980102 15.61267 4.620265 15.97847 4.980102 15.54329 4.889476 16.0413 4.713477 16.47757 4.796886 16.42193 5.061184 16.0413 4.713477 16.42193 5.061184 15.97847 4.980102 16.47757 4.796886 16.91227 4.871831 16.86162 5.133518 16.47757 4.796886 16.86162 5.133518 16.42193 5.061184 16.91227 4.871831 17.34588 4.942005 17.29815 5.200958 16.91227 4.871831 17.29815 5.200958 16.86162 5.133518 17.34588 4.942005 17.77895 5.010931 17.73217 5.267136 17.34588 4.942005 17.73217 5.267136 17.29815 5.200958 17.77895 5.010931 18.21206 5.081975 18.16439 5.335481 17.77895 5.010931 18.16439 5.335481 17.73217 5.267136 18.21206 5.081975 18.6458 5.158368 18.59554 5.409246 18.21206 5.081975 18.59554 5.409246 18.16439 5.335481 18.6458 5.158368 19.08075 5.243225 19.02631 5.491535 18.6458 5.158368 19.02631 5.491535 18.59554 5.409246 19.08075 5.243225 19.51748 5.339577 19.45742 5.585341 19.08075 5.243225 19.45742 5.585341 19.02631 5.491535 19.51748 5.339577 19.95659 5.450391 19.8896 5.693572 19.51748 5.339577 19.8896 5.693572 19.45742 5.585341 19.95659 5.450391 20.39871 5.578597 20.32362 5.819093 19.95659 5.450391 20.32362 5.819093 19.8896 5.693572 20.39871 5.578597 20.49333 5.610123 20.49333 5.875715 20.39871 5.578597 20.49333 5.875715 20.32362 5.819093</float_array>
          <technique_common>
            <accessor source="#uv-array" count="291" stride="2">
              <param name="S" type="float" />
              <param name="T" type="float" />
            </accessor>
          </technique_common>
        </source>
        <vertices id="vertices">
          <input semantic="POSITION" source="#positions" />
        </vertices>
        <triangles count="97" material="m0">
          <input semantic="VERTEX" source="#vertices" offset="0" />
          <input semantic="NORMAL" source="#normals" offset="1" />
          <input semantic="TEXCOORD" source="#uv" offset="2" set="0" />
          <p>0 0 0 96 0 1 95 0 2 95 1 3 1 1 4 2 1 5 95 2 6 2 2 7 0 2 8 1 3 9 3 3 10 4 3 11 1 4 12 4 4 13 2 4 14 3 5 15 5 5 16 6 5 17 3 6 18 6 6 19 4 6 20 5 7 21 7 7 22 8 7 23 5 8 24 8 8 25 6 8 26 7 9 27 9 9 28 10 9 29 7 10 30 10 10 31 8 10 32 9 11 33 11 11 34 12 11 35 9 12 36 12 12 37 10 12 38 11 13 39 13 13 40 14 13 41 11 14 42 14 14 43 12 14 44 13 15 45 15 15 46 16 15 47 13 16 48 16 16 49 14 16 50 15 17 51 17 17 52 18 17 53 15 18 54 18 18 55 16 18 56 17 19 57 19 19 58 20 19 59 17 20 60 20 20 61 18 20 62 19 21 63 21 21 64 22 21 65 19 22 66 22 22 67 20 22 68 21 23 69 23 23 70 24 23 71 21 24 72 24 24 73 22 24 74 23 25 75 25 25 76 26 25 77 23 26 78 26 26 79 24 26 80 25 27 81 27 27 82 28 27 83 25 28 84 28 28 85 26 28 86 27 29 87 29 29 88 30 29 89 27 30 90 30 30 91 28 30 92 29 31 93 31 31 94 32 31 95 29 32 96 32 32 97 30 32 98 31 33 99 33 33 100 34 33 101 31 34 102 34 34 103 32 34 104 33 35 105 35 35 106 36 35 107 33 36 108 36 36 109 34 36 110 35 37 111 37 37 112 38 37 113 35 38 114 38 38 115 36 38 116 37 39 117 39 39 118 40 39 119 37 40 120 40 40 121 38 40 122 39 41 123 41 41 124 42 41 125 39 42 126 42 42 127 40 42 128 41 43 129 43 43 130 44 43 131 41 44 132 44 44 133 42 44 134 43 45 135 45 45 136 46 45 137 43 46 138 46 46 139 44 46 140 45 47 141 47 47 142 48 47 143 45 48 144 48 48 145 46 48 146 47 49 147 49 49 148 50 49 149 47 50 150 50 50 151 48 50 152 49 51 153 51 51 154 52 51 155 49 52 156 52 52 157 50 52 158 51 53 159 53 53 160 54 53 161 51 54 162 54 54 163 52 54 164 53 55 165 55 55 166 56 55 167 53 56 168 56 56 169 54 56 170 55 57 171 57 57 172 58 57 173 55 58 174 58 58 175 56 58 176 57 59 177 59 59 178 60 59 179 57 60 180 60 60 181 58 60 182 59 61 183 61 61 184 62 61 185 59 62 186 62 62 187 60 62 188 61 63 189 63 63 190 64 63 191 61 64 192 64 64 193 62 64 194 63 65 195 65 65 196 66 65 197 63 66 198 66 66 199 64 66 200 65 67 201 67 67 202 68 67 203 65 68 204 68 68 205 66 68 206 67 69 207 69 69 208 70 69 209 67 70 210 70 70 211 68 70 212 69 71 213 71 71 214 72 71 215 69 72 216 72 72 217 70 72 218 71 73 219 73 73 220 74 73 221 71 74 222 74 74 223 72 74 224 73 75 225 75 75 226 76 75 227 73 76 228 76 76 229 74 76 230 75 77 231 77 77 232 78 77 233 75 78 234 78 78 235 76 78 236 77 79 237 79 79 238 80 79 239 77 80 240 80 80 241 78 80 242 79 81 243 81 81 244 82 81 245 79 82 246 82 82 247 80 82 248 81 83 249 83 83 250 84 83 251 81 84 252 84 84 253 82 84 254 83 85 255 85 85 256 86 85 257 83 86 258 86 86 259 84 86 260 85 87 261 87 87 262 88 87 263 85 88 264 88 88 265 86 88 266 87 89 267 89 89 268 90 89 269 87 90 270 90 90 271 88 90 272 89 91 273 91 91 274 92 91 275 89 92 276 92 92 277 90 92 278 91 93 279 93 93 280 94 93 281 91 94 282 94 94 283 92 94 284 93 95 285 97 95 286 98 95 287 93 96 288 98 96 289 94 96 290</p>
        </triangles>
      </mesh>
    </geometry>
  </library_geometries>
  <library_visual_scenes>
    <visual_scene id="Scene">
      <node id="Node" type="NODE">
        <instance_geometry url="#geometry">
          <bind_material>
            <technique_common>
              <instance_material symbol="m0" target="#m0">
                <bind_vertex_input semantic="UVSET0" input_semantic="TEXCOORD" input_set="0" />
              </instance_material>
            </technique_common>
          </bind_material>
        </instance_geometry>
      </node>
    </visual_scene>
  </library_visual_scenes>
  <scene>
    <instance_visual_scene url="#Scene" />
  </scene>
</COLLADA>