<?xml version='1.0' encoding='utf-8'?>
<COLLADA xmlns="http://www.collada.org/2005/11/COLLADASchema" version="1.4.1">
  <asset>
    <created>2026-09-08T00:00:00Z</created>
    <modified>2026-09-08T00:00:00Z</modified>
    <unit name="meter" meter="1" />
    <up_axis>Z_UP</up_axis>
  </asset>
  <library_images>
    <image id="img0">
      <init_from>../materials/textures/sandstone.png</init_from>
    </image>
  </library_images>
  <library_effects>
    <effect id="e0">
      <profile_COMMON>
        <newparam sid="surf0">
          <surface type="2D">
            <init_from>img0</init_from>
          </surface>
        </newparam>
        <newparam sid="samp0">
          <sampler2D>
            <source>surf0</source>
            <wrap_s>WRAP</wrap_s>
            <wrap_t>WRAP</wrap_t>
          </sampler2D>
        </newparam>
        <technique sid="common">
          <phong>
            <ambient>
              <color>0.2205 0.1665 0.108 1</color>
            </ambient>
            <diffuse>
              <texture texture="samp0" texcoord="UVSET0" />
            </diffuse>
            <specular>
              <color>0.02 0.02 0.02 1</color>
            </specular>
            <shininess>
              <float>8</float>
            </shininess>
          </phong>
        </technique>
      </profile_COMMON>
    </effect>
  </library_effects>
  <library_materials>
    <material id="m0" name="m0">
      <instance_effect url="#e0" />
    </material>
  </library_materials>
  <library_geometries>
    <geometry id="geometry" name="1949_low_sandstone_hill_western_side">
      <mesh>
        <source id="positions">
          <float_array id="positions-array" count="1080">-4.978289 43.28947 1.538158 -4.042409 45.09613 1.657204 -4.866031 46.78734 1.744352 -6.604489 48.06321 1.77625 -8.107149 49.25414 1.744352 -9.666742 50.3262 1.657204 -11.54771 51.00151 1.538158 -13.29876 51.80902 1.419112 -15.07012 53.12061 1.331964 -17.31579 53.86075 1.300066 -19.56145 53.12061 1.331964 -21.33281 51.80902 1.419112 -23.08386 51.00151 1.538158 -24.96483 50.3262 1.657204 -26.52442 49.25414 1.744352 -28.02708 48.06321 1.77625 -29.76554 46.78734 1.744352 -30.58916 45.09613 1.657204 -29.65328 43.28947 1.538158 -28.34253 41.78859 1.419112 -28.05294 40.27276 1.331964 -27.97366 38.53953 1.300066 -27.00929 37.01073 1.331964 -25.52752 35.73508 1.419112 -23.88521 34.50601 1.538158 -21.7381 33.91035 1.657204 -19.35489 34.36262 1.744352 -17.31579 34.81339 1.77625 -15.27668 34.36262 1.744352 -12.89347 33.91035 1.657204 -10.74637 34.50601 1.538158 -9.10405 35.73508 1.419112 -7.622281 37.01073 1.331964 -6.657912 38.53953 1.300066 -6.57863 40.27276 1.331964 -6.289037 41.78859 1.419112 -5.935641 43.28947 3.486184 -5.267561 44.92937 3.60523 -6.130302 46.43213 3.692378 -7.541642 47.64555 3.724276 -8.818704 48.79325 3.692378 -10.37509 49.67456 3.60523 -12.14335 50.20513 3.486184 -13.64968 51.06476 3.367138 -15.24566 52.35214 3.27999 -17.31579 52.88539 3.248092 -19.33277 52.11948 3.27999 -20.98189 51.06476 3.367138 -22.64125 50.40972 3.486184 -24.25648 49.67456 3.60523 -25.57843 48.64139 3.692378 -27.08993 47.64555 3.724276 -28.78885 46.51293 3.692378 -29.36401 44.92937 3.60523 -28.38989 43.28947 3.486184 -27.38068 41.91951 3.367138 -27.23039 40.50386 3.27999 -26.98759 38.979 3.248092 -26.01966 37.65174 3.27999 -24.80841 36.39663 3.367138 -23.37047 35.19422 3.486184 -21.32948 34.77697 3.60523 -19.14479 35.28236 3.692378 -17.31579 35.55229 3.724276 -15.43363 35.04971 3.692378 -13.30209 34.77697 3.60523 -11.41412 35.39881 3.486184 -9.823167 36.39663 3.367138 -8.377475 37.49989 3.27999 -7.643983 38.979 3.248092 -7.688768 40.58466 3.27999 -7.250896 41.91951 3.367138 -7.197977 43.28947 5.217762 -6.800266 44.72075 5.336808 -7.588848 46.02234 5.423956 -8.656012 47.1489 5.455854 -9.759043 48.18416 5.423956 -11.2639 48.8569 5.336808 -12.82523 49.29344 5.217762 -14.06633 50.18111 5.098717 -15.47622 51.34277 5.011568 -17.31579 51.66562 4.979671 -19.06929 50.966 5.011568 -20.56524 50.18111 5.098717 -22.05415 49.62476 5.217762 -23.36767 48.8569 5.336808 -24.49286 47.93824 5.423956 -25.97556 47.1489 5.455854 -27.50845 46.15319 5.423956 -27.83131 44.72075 5.336808 -26.93797 43.28947 5.217762 -26.24037 42.07472 5.098717 -26.13838 40.81067 5.011568 -25.75135 39.52995 4.979671 -24.88076 38.38944 5.011568 -23.95252 37.184 5.098717 -22.69523 36.09703 5.217762 -20.81781 35.86217 5.336808 -18.90404 36.33638 5.423956 -17.31579 36.42773 5.455854 -15.64147 35.9596 5.423956 -13.81377 35.86217 5.336808 -12.18416 36.42836 5.217762 -10.67905 37.184 5.098717 -9.371148 38.14352 5.011568 -8.880223 39.52995 4.979671 -8.958926 40.94153 5.011568 -8.391206 42.07472 5.098717 -7.633415 43.28947 5.650657 -7.4341 44.63448 5.769703 -8.1414 45.8671 5.856851 -8.993975 46.99828 5.888749 -10.08291 47.97439 5.856851 -11.63702 48.51364 5.769703 -13.08498 48.94614 5.650657 -14.19127 49.91612 5.531611 -15.55597 50.99367 5.444463 -17.31579 51.16211 5.412565 -18.96938 50.52861 5.444463 -20.4403 49.91612 5.531611 -21.85246 49.3551 5.650657 -22.99455 48.51364 5.769703 -24.08004 47.67085 5.856851 -25.6376 46.99828 5.888749 -27.06503 46.02861 5.856851 -27.19747 44.63448 5.769703 -26.38641 43.28947 5.650657 -25.90219 42.12075 5.531611 -25.76345 40.91601 5.444463 -25.23455 39.76028 5.412565 -24.44854 38.6694 5.444463 -23.69122 37.42439 5.531611 -22.46148 36.40956 5.650657 -20.60518 36.31313 5.769703 -18.81239 36.73759 5.856851 -17.31579 36.68611 5.888749 -15.71295 36.27254 5.856851 -14.0264 36.31313 5.769703 -12.47596 36.81852 5.650657 -10.94036 37.42439 5.531611 -9.714408 38.36585 5.444463 -9.397026 39.76028 5.412565 -9.442975 41.07752 5.444463 -8.729376 42.12075 5.531611 -7.48356 43.28947 6.732894 -7.432292 44.63473 6.85194 -8.041785 45.89508 6.939088 -8.77173 47.09733 6.970985 -9.970538 48.04717 6.939088 -11.64599 48.5054 6.85194 -13.04055 49.00556 6.732894 -14.10563 50.09775 6.613848 -15.52891 51.11211 6.5267 -17.31579 51.1652 6.494802 -18.98724 50.60679 6.5267 -20.52594 50.09775 6.613848 -21.92338 49.44992 6.732894 -22.98559 48.5054 6.85194 -24.15184 47.71735 6.939088 -25.85984 47.09733 6.970985 -27.21441 46.07058 6.939088 -27.19928 44.63473 6.85194 -26.48331 43.28947 6.732894 -26.14339 42.08792 6.613848 -25.8957 40.87885 6.5267 -25.22599 39.76409 6.494802 -24.52519 38.61975 6.5267 -23.85879 37.27023 6.613848 -22.54042 36.30402 6.732894 -20.60393 36.31577 6.85194 -18.82818 36.66845 6.939088 -17.31579 36.49873 6.970985 -15.68797 36.16314 6.939088 -14.02764 36.31577 6.85194 -12.42351 36.74838 6.732894 -10.77278 37.27023 6.613848 -9.597189 38.28993 6.5267 -9.40558 39.76409 6.494802 -9.360487 41.05435 6.5267 -8.488184 42.08792 6.613848 -8.659288 43.28947 6.949341 -8.699398 44.46226 7.068387 -9.100849 45.59753 7.155535 -9.671988 46.69611 7.187433 -10.84938 47.47793 7.155535 -12.38172 47.82856 7.068387 -13.52699 48.35516 6.949341 -14.44199 49.38439 6.830295 -15.74237 50.17762 6.743147 -17.31579 50.15695 6.711249 -18.79648 49.77167 6.743147 -20.18959 49.38439 6.830295 -21.37158 48.71215 6.949341 -22.24985 47.82856 7.068387 -23.37313 47.21296 7.155535 -24.95958 46.69611 7.187433 -26.03252 45.73851 7.155535 -25.93217 44.46226 7.068387 -25.43828 43.28947 6.949341 -25.22349 42.21313 6.830295 -24.86795 41.16761 6.743147 -24.20303 40.22 6.711249 -23.70284 39.15241 6.743147 -23.16705 37.90659 6.830295 -21.91649 37.13822 6.949341 -20.18074 37.2133 7.068387 -18.65601 37.42218 7.155535 -17.31579 37.20474 7.187433 -15.88283 37.01624 7.155535 -14.45083 37.2133 7.068387 -12.98208 37.49521 6.949341 -11.46452 37.90659 6.830295 -10.51967 38.88744 6.743147 -10.42855 40.22 6.711249 -10.26542 41.3086 6.743147 -9.408087 42.21313 6.830295 -9.485699 43.28947 8.248025 -9.544367 44.34725 8.367071 -9.76687 45.41041 8.454219 -10.27196 46.42872 8.486117 -11.4679 47.07729 8.454219 -12.87237 47.37719 8.367071 -13.83 47.95004 8.248025 -14.66614 48.90899 8.128979 -15.89207 49.52225 8.041831 -17.31579 49.48461 8.009933 -18.6767 49.2473 8.041831 -19.96543 48.90899 8.128979 -20.98241 48.19182 8.248025 -21.7592 47.37719 8.367071 -22.88661 46.89783 8.454219 -24.35961 46.42872 8.486117 -25.20457 45.50589 8.454219 -25.0872 44.34725 8.367071 -24.7842 43.28947 8.248025 -24.61045 42.29657 8.128979 -24.14275 41.37136 8.041831 -23.52084 40.52403 8.009933 -23.18723 39.48638 8.041831 -22.70605 38.33069 8.128979 -21.47925 37.72283 8.248025 -19.89854 37.81182 8.367071 -18.54863 37.8923 8.454219 -17.31579 37.67524 8.486117 -16.02014 37.61735 8.454219 -14.73304 37.81182 8.367071 -13.33316 37.96461 8.248025 -11.92552 38.33069 8.128979 -11.16728 39.30692 8.041831 -11.11073 40.52403 8.009933 -10.82868 41.46685 8.041831 -10.02113 42.29657 8.128979 -10.32578 43.28947 8.68092 -10.34522 44.23824 8.799965 -10.42004 45.22689 8.887114 -10.91072 46.14403 8.919011 -12.09689 46.66988 8.887114 -13.33421 46.95231 8.799965 -14.12617 47.55406 8.68092 -14.90562 48.40109 8.561874 -16.04415 48.85649 8.474726 -17.31579 48.84684 8.442828 -18.55929 48.73333 8.474726 -19.72596 48.40109 8.561874 -20.58641 47.66236 8.68092 -21.29736 46.95231 8.799965 -22.41057 46.58949 8.887114 -23.72085 46.14403 8.919011 -24.36377 45.26966 8.887114 -24.28635 44.23824 8.799965 -24.14378 43.28947 8.68092 -23.95329 42.38602 8.561874 -23.40471 41.57872 8.474726 -22.87746 40.81077 8.442828 -22.6821 39.81357 8.474726 -22.21625 38.78128 8.561874 -21.03517 38.31658 8.68092 -19.63165 38.37784 8.799965 -18.44362 38.35201 8.887114 -17.31579 38.18032 8.919011 -16.15982 38.22885 8.887114 -14.99992 38.37784 8.799965 -13.67741 38.42488 8.68092 -12.41532 38.78128 8.561874 -11.82537 39.73318 8.474726 -11.75411 40.81077 8.442828 -11.3791 41.6215 8.474726 -10.67828 42.38602 8.561874 -12.0215 43.28947 9.763156 -11.97364 44.0166 9.882202 -11.95221 44.79641 9.96935 -12.3886 45.48539 10.00125 -13.36437 45.8489 9.96935 -14.2652 46.09585 9.882202 -14.83009 46.61289 9.763156 -15.46156 47.22202 9.64411 -16.35203 47.50862 9.556962 -17.31579 47.5487 9.525064 -18.28331 47.5251 9.556962 -19.17001 47.22202 9.64411 -19.79064 46.5984 9.763156 -20.36637 46.09585 9.882202 -21.2838 45.85965 9.96935 -22.24297 45.48539 10.00125 -22.659 44.79069 9.96935 -22.65793 44.0166 9.882202 -22.63175 43.28947 9.763156 -22.42269 42.59435 9.64411 -21.92258 41.99514 9.556962 -21.57734 41.3902 9.525064 -21.4923 40.58423 9.556962 -21.08533 39.82167 9.64411 -20.13522 39.51982 9.763156 -19.09048 39.52559 9.882202 -18.19448 39.44268 9.96935 -17.31579 39.35833 10.00125 -16.44085 39.45916 9.96935 -15.54109 39.52559 9.882202 -14.48552 39.50533 9.763156 -13.54624 39.82167 9.64411 -13.15588 40.59499 9.556962 -13.05423 41.3902 9.525064 -12.68862 41.98942 9.556962 -12.20888 42.59435 9.64411 -14.40065 43.28947 10.19605 -14.32376 43.69672 10.3151 -14.28475 44.14106 10.40224 -14.57484 44.51103 10.43414 -15.14084 44.69823 10.40224 -15.60637 44.86204 10.3151 -15.90852 45.17101 10.19605 -16.28447 45.47675 10.077 -16.78479 45.61408 9.989857 -17.31579 45.67484 9.957959 -17.86271 45.6838 9.989857 -18.3471 45.47675 10.077 -18.6772 45.1097 10.19605 -19.0252 44.86204 10.3151 -19.56099 44.74374 10.40224 -20.05673 44.51103 10.43414 -20.26063 44.11685 10.40224 -20.30781 43.69672 10.3151 -20.32265 43.28947 10.19605 -20.15579 42.90291 10.077 -19.84961 42.57756 9.989857 -19.70344 42.22535 9.957959 -19.67736 41.75981 9.989857 -19.41296 41.36017 10.077 -18.86952 41.21209 10.19605 -18.30991 41.18107 10.3151 -17.81313 41.11216 10.40224 -17.31579 41.10347 10.43414 -16.83436 41.18189 10.40224 -16.32166 41.18107 10.3151 -15.71619 41.15078 10.19605 -15.21862 41.36017 10.077 -15.02447 41.80532 9.989857 -14.92813 42.22535 9.957959 -14.69577 42.55335 9.989857 -14.47578 42.90291 10.077</float_array>
          <technique_common>
            <accessor source="#positions-array" count="360" stride="3">
              <param name="X" type="float" />
              <param name="Y" type="float" />
              <param name="Z" type="float" />
            </accessor>
          </technique_common>
        </source>
        <source id="normals">
          <float_array id="normals-array" count="2046">0.779114 -0.4334351 0.4528967 0.8339629 -0.3694992 0.409849 0.7589341 0.3410166 0.5547312 0.7577843 0.4053967 0.511289 0.5426399 0.7289497 0.4173419 0.5739783 0.654672 0.4918876 0.5694551 0.7287026 0.3804123 0.5968216 0.6761018 0.4320768 0.4943464 0.7542759 0.4320759 0.4450798 0.8213 0.3568898 0.2796684 0.8557225 0.4353442 0.2412527 0.8905534 0.3856316 0.3638713 0.8463716 0.3889123 0.4154845 0.7903949 0.450165 0.5463813 0.7611314 0.3494945 0.5677757 0.7296746 0.3810588 0.2770602 0.8591748 0.4301817 0.2258214 0.8990867 0.3750304 -0.2711641 0.842784 0.4649572 -0.3154869 0.8485138 0.4248439 -0.5372491 0.7510731 0.3837352 -0.4650127 0.7640288 0.4472396 -0.3733491 0.8606391 0.3462813 -0.314266 0.8665637 0.3876908 -0.2879103 0.8717999 0.3963239 -0.3674742 0.8633669 0.345775 -0.482895 0.7404917 0.4674233 -0.5359528 0.7225867 0.436604 -0.5577125 0.7149895 0.4216003 -0.4796977 0.7430393 0.466672 -0.5515591 0.7420085 0.381059 -0.5116646 0.7560018 0.4082409 -0.7783529 0.3522806 0.519678 -0.841697 0.280311 0.4614888 -0.7591763 -0.4257078 0.4923659 -0.7593677 -0.4827428 0.4362569 -0.6819835 -0.6256368 0.3787836 -0.6985119 -0.5539426 0.4530218 -0.8952593 -0.1940919 0.4010476 -0.8867326 -0.1215909 0.4460055 -0.886635 -0.0490201 0.4598645 -0.9038924 -0.1522878 0.3997335 -0.7284477 -0.4487037 0.517715 -0.715431 -0.5102757 0.4772602 -0.5986423 -0.6648466 0.4467733 -0.6352864 -0.5774821 0.5127628 -0.5667892 -0.7182745 0.4035241 -0.5954261 -0.6678422 0.4466034 -0.2628143 -0.8598731 0.4376606 -0.206647 -0.9041076 0.374014 0.1558051 -0.8996155 0.4079421 0.1961218 -0.9105424 0.3639351 0.1971943 -0.9166388 0.347689 0.1259622 -0.9022505 0.4124047 -0.2004648 -0.9288701 0.3114709 -0.2367308 -0.908421 0.3445719 -0.1597988 -0.91394 0.3730657 -0.1071087 -0.9403091 0.3230271 0.2596473 -0.8410962 0.4744897 0.3058558 -0.8444057 0.4398081 0.5572779 -0.7016448 0.4439999 0.4876124 -0.7182534 0.4963327 0.6095496 -0.6802265 0.4071133 0.5602826 -0.6990937 0.4442426 0.7458291 -0.4604256 0.4814014 0.8179516 -0.3966372 0.4166942 0.864412 -0.04874987 0.5004153 0.8935434 0.01600873 0.4486912 0.8746515 -0.1926713 0.4448174 0.8079662 -0.298216 0.5081908 0.6944076 -0.6335112 0.3412648 0.6546758 -0.6604838 0.3676421 0.7244195 -0.338706 0.600412 0.7794352 -0.2638416 0.568215 0.6742623 0.3493659 0.6506258 0.6745972 0.3657816 0.6411883 0.5560035 0.6325205 0.5392382 0.5808712 0.5328225 0.615377 0.5600932 0.6379147 0.5285456 0.5665052 0.6203017 0.5424921 0.3883994 0.7401875 0.5488792 0.33738 0.8155879 0.4700969 0.2132729 0.8273636 0.5196 0.1976896 0.843339 0.499698 0.4021612 0.7727167 0.491096 0.4510438 0.7041672 0.5483685 0.5357579 0.6964992 0.4773388 0.5391641 0.6905463 0.4821285 0.1977344 0.8013862 0.5645185 0.1398067 0.8472383 0.5124855 -0.2861033 0.776804 0.5609995 -0.3010585 0.7795992 0.5491711 -0.4513637 0.7461703 0.489388 -0.3611059 0.7498077 0.5544285 -0.2933067 0.8294161 0.4754368 -0.2708839 0.8294691 0.48847 -0.3175719 0.7840852 0.5332527 -0.4071085 0.7720709 0.4880259 -0.4815275 0.66434 0.5716499 -0.4948551 0.6597575 0.5655427 -0.4664277 0.7242181 0.5078911 -0.3851197 0.7453941 0.5441236 -0.484813 0.7129541 0.5066091 -0.4755803 0.7157755 0.5113598 -0.7162716 0.223778 0.6609678 -0.7821544 0.1393385 0.607305 -0.6848774 -0.448513 0.5742639 -0.6867483 -0.4744368 0.5507146 -0.6782995 -0.5427294 0.4953328 -0.6845462 -0.4493733 0.5739861 -0.8297011 -0.1216182 0.5447982 -0.8262277 -0.1048256 0.5534975 -0.7848952 -0.1376162 0.6041533 -0.797012 -0.2544942 0.5477267 -0.6431331 -0.4542041 0.6165051 -0.6398828 -0.4714693 0.6068498 -0.6163631 -0.556112 0.5575266 -0.6447157 -0.4518835 0.6165574 -0.5643521 -0.6210507 0.5438775 -0.5728292 -0.6016219 0.5567026 -0.1970279 -0.8034852 0.5617754 -0.1386467 -0.8549573 0.4998251 0.1772726 -0.8514228 0.4936129 0.1902753 -0.8561854 0.480356 0.1228977 -0.8856645 0.4477662 0.03887532 -0.8559428 0.515607 -0.2258625 -0.8732529 0.4317587 -0.234218 -0.867606 0.4386363 -0.08862292 -0.8555859 0.5100184 -0.02518075 -0.886187 0.4626429 0.2874869 -0.7616621 0.5807082 0.3066885 -0.7631033 0.5688721 0.4735737 -0.6897399 0.5477105 0.3982132 -0.6997333 0.593127 0.5290612 -0.6502004 0.5452831 0.5165892 -0.6539555 0.5527005 0.7111486 -0.3393816 0.6157011 0.7897 -0.2669167 0.5523851 0.8073437 0.01079754 0.5899827 0.8183183 0.0326592 0.5738366 0.7861267 -0.2933894 0.5439921 0.6995037 -0.396184 0.5947544 0.622712 -0.6372973 0.4539624 0.6105434 -0.6447972 0.4598623 0.5702591 -0.2241881 0.7902811 0.6953748 -0.1649542 0.6994598 0.5434495 0.276179 0.7927092 0.5242804 0.2431435 0.8160952 0.5727716 0.5247432 0.6297438 0.5096815 0.3621409 0.7804349 0.5084133 0.5618 0.6526076 0.5177757 0.5976279 0.6121676 0.2463386 0.6447743 0.7235906 0.242327 0.7895032 0.5638815 0.151365 0.7247027 0.6722311 0.1538117 0.7054048 0.6919148 0.4469914 0.6997029 0.557328 0.4211527 0.5671995 0.7077536 0.4856768 0.6345627 0.6012056 0.4942085 0.6706438 0.553168 0.1007525 0.6486145 0.7544191 0.06234049 0.7712598 0.6334603 -0.2472979 0.6524768 0.7163224 -0.2288883 0.6346248 0.7381474 -0.3589397 0.7463497 0.5604681 -0.2311609 0.6572118 0.7173822 -0.2403184 0.7697028 0.5914429 -0.2653553 0.7863235 0.5579265 -0.2908797 0.6116477 0.7357147 -0.4262376 0.665249 0.6129969 -0.3999267 0.5587595 0.7265304 -0.366164 0.5492745 0.7511467 -0.3815546 0.7391393 0.5550579 -0.2779009 0.6759451 0.6825462 -0.4326248 0.6458758 0.6290311 -0.4623019 0.6611044 0.5909466 -0.5554462 0.07480389 0.828181 -0.695352 0.02115348 0.7183579 -0.5628585 -0.4109547 0.7171517 -0.5536334 -0.3985638 0.7311887 -0.680892 -0.4478173 0.5795221 -0.5852623 -0.3184402 0.7456969 -0.7388389 -0.1055014 0.6655724 -0.7739932 -0.1339052 0.6188732 -0.5775659 -0.1942848 0.7928878 -0.6736804 -0.3265969 0.6629398 -0.5220142 -0.377072 0.7650607 -0.5084804 -0.3432822 0.7896867 -0.6362016 -0.4443014 0.6307486 -0.5736956 -0.2954989 0.7639069 -0.5228274 -0.5317901 0.6662213 -0.5282433 -0.5658411 0.6330742 -0.1291041 -0.6543621 0.7450788 -0.08010639 -0.787156 0.6115295 0.1537615 -0.7407306 0.6539691 0.1370654 -0.7188492 0.6815195 0.03906439 -0.8580172 0.5121333 -0.03963593 -0.728661 0.6837266 -0.2154426 -0.807937 0.5484727 -0.2067928 -0.8401122 0.5014461 -0.002580858 -0.6931423 0.7207961 0.04989989 -0.8054837 0.5905133 0.2687913 -0.6183617 0.7384985 0.2549578 -0.6043641 0.7548116 0.3918172 -0.6833898 0.6160013 0.2951243 -0.6022641 0.741741 0.4684747 -0.5778744 0.6682759 0.5001636 -0.5928748 0.6311385 0.5803812 -0.1872742 0.7925188 0.7349037 -0.1521519 0.660883 0.6696853 0.0205638 0.7423603 0.643144 0.003892002 0.7657354 0.7022348 -0.3972491 0.5908126 0.5336417 -0.4260551 0.7305502 0.5607673 -0.6061143 0.5640616 0.5922668 -0.6091231 0.5274363 0.9892173 -0.1464462 -0.001619526 0.9902243 -0.02560406 -0.1371138 0.860828 0.5004781 -0.09217809 0.9002145 0.4354438 -0.001603113 0.7772118 0.5918142 -0.2137703 0.8501051 0.5185748 -0.09165909 0.6646897 0.7376419 -0.1186256 0.6121914 0.7660757 -0.195831 0.3273009 0.9448682 0.009910982 0.2671423 0.9592314 -0.09225054 0.2904575 0.9547221 -0.06434482 0.3368244 0.9415148 0.009964306 0.6596785 0.7309203 -0.1748709 0.7179685 0.6927932 -0.06751804 0.6205052 0.7777195 -0.1006267 0.5782279 0.7959218 -0.1793346 0.09533172 0.9954415 -0.002841905 0.03147415 0.9934867 -0.1095147 -0.3580208 0.9308436 -0.07315292 -0.316914 0.9484504 -0.00270775 -0.38715 0.9038107 -0.1823211 -0.3169873 0.9455744 -0.07354 -0.3748091 0.9211063 -0.1052676 -0.4262759 0.886007 -0.1824292 -0.5923772 0.8055851 0.0110451 -0.667341 0.7368369 -0.108293 -0.6152947 0.7847644 -0.07454767 -0.5592783 0.8289077 0.01094868 -0.393906 0.9044612 -0.1636704 -0.3415869 0.9377389 -0.06296146 -0.5569204 0.8234086 -0.1088025 -0.5898359 0.7841461 -0.1928948 -0.9955064 0.09467893 -0.001686374 -0.9906171 -0.002142126 -0.1366498 -0.8568177 -0.5098809 -0.07671301 -0.8828104 -0.4697275 -0.001369584 -0.910029 -0.3552821 -0.2135926 -0.9608688 -0.2633062 -0.08602896 -0.9867259 -0.1046541 -0.1241758 -0.9588224 -0.1806229 -0.2191688 -0.9091806 -0.4163121 0.008652985 -0.8523709 -0.5085969 -0.1216265 -0.8073003 -0.5841356 -0.08397475 -0.8528647 -0.5220615 0.008580443 -0.8302918 -0.5192308 -0.2025212 -0.8913481 -0.4455498 -0.08356975 -0.6248526 -0.7713418 -0.1207935 -0.5670888 -0.7986127 -0.2015638 -0.0520346 -0.9986422 0.00249964 0.01195439 -0.9952916 -0.09618557 0.2326915 -0.9707822 -0.05862238 0.1947001 -0.9808604 0.002171576 -0.03024217 -0.9848885 -0.1705288 -0.1099328 -0.9918136 -0.06496605 -0.2505025 -0.963769 -0.09163923 -0.2022136 -0.9649835 -0.1670824 0.02418902 -0.9997044 0.002470113 0.08574743 -0.9910652 -0.1021624 0.303715 -0.9497057 -0.07626454 0.2605649 -0.9654527 0.002659114 0.3482592 -0.918996 -0.1848293 0.2955651 -0.9522918 -0.07603712 0.5992402 -0.7914591 -0.1204309 0.6327242 -0.7469238 -0.2043648 0.9750691 -0.2217391 0.008488241 0.9846631 -0.1304905 -0.1158051 0.9964995 0.03658099 -0.07517054 0.9993507 -0.03512512 0.008022676 0.816609 -0.5420088 -0.1984341 0.7652101 -0.639739 -0.07202434 0.7308242 -0.6750226 -0.1011953 0.7625085 -0.6188458 -0.1887079 0.1799973 -0.09351283 0.9792121 0.1802653 -0.09322871 0.9791899 0.1932523 0.02563543 0.9808141 0.1703947 -0.01537794 0.9852559 0.1939085 0.09181792 0.9767134 0.1819384 0.06610156 0.9810856 0.1204961 0.1848335 0.975355 0.1282169 0.2324257 0.9641259 0.02623204 0.2785079 0.9600756 0.02103883 0.3267881 0.9448634 0.02557245 0.2983928 0.9541005 0.02759802 0.2771376 0.9604338 0.1295778 0.2314551 0.9641774 0.1281024 0.2255891 0.9657636 0.08704619 0.2058781 0.9746985 0.08839326 0.2508172 0.9639903 -0.01121621 0.2098815 0.9776625 -0.02274959 0.2305187 0.9728019 -0.06080585 0.2373888 0.9695098 -0.03353366 0.2097766 0.9771741 -0.03636149 0.2744197 0.9609223 -0.008646107 0.2490303 0.9684571 -0.03644861 0.2561297 0.965955 -0.05452478 0.2662887 0.9623499 -0.08516756 0.2183075 0.9721565 -0.08850268 0.2188902 0.9717275 -0.1012675 0.256179 0.9613101 -0.05923098 0.2450737 0.9676934 -0.09257876 0.303811 0.9482236 -0.07593242 0.2919101 0.9534268 -0.1370516 0.1503914 0.9790808 -0.1658542 0.1533817 0.9741491 -0.1761883 -0.06148448 0.9824344 -0.2019105 -0.08251509 0.9759218 -0.1990832 -0.1910139 0.9611865 -0.1891525 -0.1776846 0.9657378 -0.2063769 -0.1541185 0.9662588 -0.2006095 -0.1471601 0.9685555 -0.1761348 -0.1066168 0.9785752 -0.2069024 -0.1509325 0.9666492 -0.1538189 -0.1204719 0.9807274 -0.1638772 -0.1478213 0.9753426 -0.1965575 -0.09316648 0.9760559 -0.1826261 -0.05623607 0.9815728 -0.2475704 -0.05980415 0.9670224 -0.2344399 -0.03286059 0.9715751 -0.1769431 -0.1210906 0.9767437 -0.1776918 -0.1382478 0.974327 -0.05876391 -0.2077644 0.9764122 -0.05785658 -0.2099653 0.9759955 0.008006796 -0.2776923 0.9606367 -0.02512482 -0.2231545 0.9744592 -0.05298335 -0.2926991 0.9547356 -0.06536141 -0.2616005 0.9629606 -0.03319198 -0.252908 0.9669208 -0.01727382 -0.2930671 0.9559358 0.06989442 -0.2026011 0.9767638 0.0900736 -0.2255476 0.9700593 0.1235009 -0.1899197 0.974001 0.1140519 -0.1817665 0.9767052 0.1301172 -0.1895806 0.9732054 0.1271571 -0.1872013 0.9740568 0.1628902 -0.1039396 0.9811541 0.2035593 -0.1096453 0.9729037 0.2046867 -0.005425428 0.9788125 0.2329364 0.007349837 0.9724642 0.2240175 -0.03191008 0.9740626 0.18267 -0.05613575 0.9815704 0.1910061 -0.2414253 0.951436 0.1602148 -0.2440033 0.9564484 0.1756966 -0.241459 0.9543732 0.1915418 -0.2385545 0.9520522 0.8389768 -0.02647764 0.5435226 0.8435903 -0.01362645 0.5368144 0.8428841 0.261978 0.4700148 0.8261 0.1279033 0.5488164 0.7972166 0.4013712 0.4509399 0.7989433 0.3817225 0.4647338 0.4825554 0.7454705 0.4597978 0.4352329 0.8207498 0.3700569 0.1851045 0.9044673 0.3842853 0.1727642 0.9150142 0.3645568 0.3602423 0.8633399 0.3533691 0.4215707 0.7952781 0.4356729 0.6786318 0.64413 0.3529241 0.6812572 0.6384668 0.3581183 0.4447855 0.7779253 0.4438447 0.3932403 0.8394177 0.3751533 -0.0209813 0.8878512 0.459652 -0.03365208 0.8938129 0.4471757 -0.2249327 0.8961263 0.3825741 -0.1426007 0.8789711 0.4550547 -0.2274189 0.9011268 0.369122 -0.2102936 0.8996443 0.3826444 -0.4092952 0.7979899 0.4423681 -0.5054084 0.7784765 0.3722052 -0.6000358 0.6577655 0.4553038 -0.6146918 0.651184 0.4450993 -0.4264881 0.829325 0.3610096 -0.3278403 0.8470952 0.4182709 -0.2877935 0.903043 0.318886 -0.2806699 0.9033415 0.3243433 -0.5884099 0.6429503 0.4902945 -0.6718888 0.6001916 0.4339764 -0.8379113 -0.1024865 0.5360981 -0.8466089 -0.1246726 0.5174072 -0.8229173 -0.3886194 0.414466 -0.8137591 -0.2898047 0.503795 -0.8761231 -0.2221652 0.4278446 -0.8740137 -0.2057262 0.4402009 -0.8064303 -0.3158984 0.4998784 -0.7996658 -0.4424632 0.4059076 -0.7055542 -0.5115835 0.4903831 -0.7008474 -0.5322728 0.4748669 -0.8250352 -0.3738842 0.423707 -0.8311869 -0.2519986 0.4956057 -0.8477122 -0.3358505 0.4105952 -0.8487298 -0.3217271 0.4197015 -0.4898178 -0.7213466 0.4896302 -0.4358944 -0.7983713 0.4154508 0.01074604 -0.9090249 0.4166032 0.02100813 -0.9142962 0.404501 0.1095564 -0.9374946 0.3303047 0.02756638 -0.9101102 0.4134483 -0.1586136 -0.9282978 0.3363107 -0.1712883 -0.9217754 0.3478368 -0.1101536 -0.9063678 0.4078769 -0.03360441 -0.939669 0.3404304 0.1486454 -0.8854286 0.4403643 0.1632812 -0.8886292 0.4285761 0.2039683 -0.9017617 0.3810811 0.1342909 -0.8885507 0.438684 0.2695189 -0.8830957 0.3840593 0.2625164 -0.8826077 0.3899856 0.6431179 -0.5745282 0.5062773 0.7305352 -0.5288414 0.4320244 0.8794891 -0.04880741 0.4734098 0.8906761 -0.0294961 0.4536807 0.9008022 -0.1469626 0.4086042 0.8270002 -0.2641898 0.4962605 0.6613187 -0.6609741 0.3546418 0.6484569 -0.669238 0.3628005 0.7085596 -0.5428104 0.4508883 0.7853534 -0.4715927 0.4010241 0.4818203 -0.07156517 0.8733428 0.4556896 -0.1016227 0.8843188 0.5430826 0.04492823 0.8384765 0.4794309 -0.04098802 0.8766219 0.481638 0.2122607 0.8502766 0.4907797 0.2333752 0.839447 0.2483731 0.4988265 0.8303511 0.2464426 0.601988 0.7595239 0.09425166 0.6583922 0.7467505 0.09575649 0.6516622 0.7524407 0.2723258 0.6099046 0.7442144 0.2756746 0.5224469 0.8068784 0.4219813 0.4645853 0.7785192 0.4292874 0.5006778 0.7516875 0.1921217 0.5037451 0.8422174 0.1753954 0.5894119 0.788562 -0.03336856 0.5613016 0.8269384 -0.02512074 0.5489756 0.8354608 -0.09161659 0.629165 0.7718535 -0.03003 0.5613611 0.827026 -0.1085382 0.6147059 0.7812529 -0.1198124 0.6234067 0.7726637 -0.250556 0.4935477 0.832846 -0.3334174 0.5155549 0.7893263 -0.350406 0.4538557 0.8192867 -0.3107952 0.4514261 0.8364334 -0.2249902 0.6595466 0.7172013 -0.143746 0.6252755 0.7670513 -0.1952128 0.6621515 0.7234966 -0.2109973 0.6715009 0.7103285 -0.3666738 0.305356 0.8788106 -0.4426644 0.2945931 0.8469139 -0.4843975 -0.1143042 0.8673486 -0.4791546 -0.1095468 0.8708676 -0.5428257 -0.245873 0.8030484 -0.4866062 -0.1803773 0.8547973 -0.5217211 -0.1909888 0.8314628 -0.5460942 -0.2215961 0.8078838 -0.4209177 -0.2936155 0.8582646 -0.4651636 -0.4012672 0.7890548 -0.4170959 -0.3378949 0.8437168 -0.4115886 -0.3180598 0.8540684 -0.5796309 -0.1618055 0.7986532 -0.5325978 -0.07738357 0.8428234 -0.5590636 -0.171602 0.8111724 -0.566202 -0.1877567 0.8025975 -0.2887212 -0.413601 0.8634665 -0.2768019 -0.4920711 0.8253767 -0.02650955 -0.5993678 0.8000347 -0.04508491 -0.5662964 0.8229676 -0.006220571 -0.684782 0.7287215 -0.07199865 -0.5842802 0.8083519 -0.1330267 -0.6449827 0.7525299 -0.1221361 -0.6654868 0.7363492 -0.005777154 -0.578661 0.8155477 0.04821899 -0.6500095 0.7583948 0.1398075 -0.5590972 0.8172296 0.1327773 -0.5522932 0.8230082 0.1335887 -0.624123 0.7698211 0.09356949 -0.576621 0.811636 0.2110031 -0.5481654 0.809316 0.2346148 -0.5670979 0.7895289 0.4167127 -0.2455278 0.8752523 0.5094524 -0.240089 0.8263265 0.5569747 -0.00411432 0.8305193 0.5444673 -0.0111783 0.8387076 0.5710485 -0.1977866 0.7967334 0.4625474 -0.2474547 0.8513613 0.4291917 -0.4969425 0.7542166 0.4470791 -0.4947684 0.745201 0.4318585 -0.3333678 0.8380717 0.4957463 -0.3007825 0.814718 0.559806 -0.09186075 0.8235161 0.5300756 -0.1708682 0.8305564 0.5818796 -0.02760898 0.8128062 0.5603934 -0.1071831 0.8212619 0.5018433 0.2395841 0.8311154 0.5004768 0.2790576 0.8195425 0.2493942 0.608282 0.7535221 0.2246507 0.6654917 0.7117955 0.1182071 0.7266599 0.6767514 0.1283795 0.7119275 0.6904187 0.3381536 0.5900826 0.733113 0.3548985 0.5601024 0.7485535 0.4233835 0.4961351 0.7580214 0.3933874 0.5515651 0.7355422 0.1763509 0.5914655 0.7868094 0.1304062 0.636359 0.7602904 -0.02411683 0.6401558 0.7678665 0.0002283991 0.6260524 0.7797809 -0.04116638 0.6614023 0.7489007 0.009701019 0.6403119 0.7680538 -0.1250192 0.6382638 0.7595983 -0.1452413 0.6415133 0.7532368 -0.3467354 0.5287178 0.7747465 -0.3786174 0.5226218 0.7638818 -0.3960562 0.5230864 0.7546655 -0.3186378 0.5482181 0.7732573 -0.1812107 0.7175243 0.6725486 -0.1220883 0.7244975 0.6783788 -0.2132747 0.6777255 0.7037059 -0.2387196 0.6715693 0.7014326 -0.4497584 0.3000158 0.8412538 -0.4935911 0.2574458 0.8307162 -0.5605318 -0.1114079 0.8206049 -0.5522711 -0.09401466 0.8283464 -0.5718504 -0.1861801 0.7989519 -0.5613503 -0.1533586 0.8132447 -0.5427751 -0.2212047 0.8102245 -0.555246 -0.2998479 0.7757533 -0.4641991 -0.4007039 0.7899086 -0.4578231 -0.4899995 0.7418211 -0.4913492 -0.3700944 0.78842 -0.496197 -0.3256149 0.8048376 -0.6334736 -0.09956123 0.7673322 -0.6298953 -0.03575992 0.7758564 -0.5789313 -0.1944075 0.7918613 -0.5760044 -0.2173425 0.7880236 -0.2841235 -0.5149321 0.8087761 -0.2706909 -0.5369217 0.7990253 -0.03275809 -0.6774491 0.7348399 -0.08441982 -0.6306996 0.7714217 -0.06762217 -0.6949191 0.7159013 -0.1328878 -0.6460649 0.7516256 -0.1228815 -0.6714085 0.7308288 -0.09233573 -0.690641 0.7172789 0.04828191 -0.6534675 0.7554132 0.1042419 -0.6728499 0.7323978 0.1392286 -0.6438138 0.7524089 0.1207493 -0.6399528 0.7588676 0.09014456 -0.670347 0.736552 0.07091498 -0.6664062 0.7422088 0.2345288 -0.5666861 0.78985 0.2875368 -0.561869 0.7756454 0.5128343 -0.2424398 0.8235435 0.5746589 -0.2006639 0.7934111 0.634609 -0.01909616 0.7725974 0.6120036 -0.04656379 0.789483 0.5600812 -0.2896119 0.7761662 0.502822 -0.3488916 0.7908506 0.453616 -0.4999146 0.737779 0.4737651 -0.4819082 0.7370964 0.5122455 -0.3056259 0.8026191 0.5286015 -0.2797516 0.8014484 0.2009625 -0.1711407 0.9645335 0.1704288 -0.305977 0.9366601 0.2122282 -0.1142927 0.9705135 0.2042833 -0.2056401 0.9570687 0.1677735 0.06071246 0.9839543 0.1692553 0.04783755 0.9844106 0.06570865 0.2608959 0.9631281 0.04935414 0.3109542 0.9491426 -0.0004038525 0.3314641 0.9434677 -0.03260315 0.3956341 0.9178294 0.03666818 0.2620999 0.9643439 -0.01564498 0.3461324 0.9380552 0.03395913 0.2254913 0.9736531 -0.04271961 0.3164624 0.9476426 -0.02205985 0.2274867 0.9735313 -0.08980405 0.2794553 0.9559498 -0.02288073 0.2250298 0.9740832 -0.03216107 0.2296156 0.9727499 0.02631754 0.2344771 0.9717654 0.06040585 0.2246777 0.972559 0.01127122 0.2457312 0.9692725 0.06999057 0.2434246 0.9673912 -0.05553625 0.240269 0.9691164 0.05359687 0.2641312 0.9629964 -0.04889897 0.2829323 0.9578926 0.08278715 0.3348586 0.9386245 -0.003264435 0.3572825 0.9339907 0.06308532 0.3907768 0.9183211 -0.07181166 0.2659672 0.9613036 -0.06556264 0.2712937 0.960261 -0.1630958 0.05243332 0.985216 -0.1868422 0.0171644 0.98224 -0.1945156 -0.1100011 0.974712 -0.2220673 -0.174065 0.9593683 -0.1817297 -0.1652484 0.9693644 -0.2096303 -0.2672985 0.9405353 -0.1553965 -0.211976 0.964841 -0.1721185 -0.3570341 0.9180969 -0.1305868 -0.2485781 0.9597687 -0.1262864 -0.3658384 0.9220705 -0.161524 -0.1436627 0.976356 -0.1601114 -0.154736 0.9748954 -0.240005 0.01309142 0.9706834 -0.2469143 0.05246605 0.967616 -0.2371348 -0.01554394 0.9713524 -0.2567054 0.04073499 0.9656309 -0.1632712 -0.1281219 0.9782266 -0.2223189 -0.03251551 0.9744317 -0.1097604 -0.2026983 0.9730704 -0.2120153 -0.0903484 0.973081 -0.1149047 -0.2246614 0.9676385 -0.1923044 -0.1624012 0.9678041 -0.05824603 -0.2403525 0.9689366 -0.06630332 -0.2362284 0.9694328 0.06190499 -0.2299173 0.9712393 0.1029753 -0.2394813 0.9654247 0.1092331 -0.2029488 0.9730775 0.1636925 -0.2050883 0.9649578 0.1069272 -0.1774068 0.9783115 0.1821262 -0.1674883 0.9689054 0.1591997 -0.1032105 0.9818366 0.2567364 -0.06172847 0.9645082 0.223772 -0.003120135 0.9746365 0.298465 0.0563556 0.9527553 0.229195 0.009744662 0.9733318 0.2374859 0.01928158 0.9711996 0.1668798 -0.1536648 0.9739293 0.1385639 -0.1926317 0.9714387 0.1477948 -0.2548767 0.9556121 0.1168088 -0.3088388 0.9439143 0.1749519 -0.2118328 0.9615189 0.136349 -0.3156849 0.9390165 -0.9389687 0.0794339 0.334706 -0.1230156 -0.1805878 0.9758356 -0.1139622 -0.1780257 0.9774045 0.1094025 -0.3047312 0.9461342 0.5008468 -0.04925793 0.8641332 0.407918 -0.3701391 0.8346256 -0.2781719 -0.3061678 0.9104294 -0.01520495 0.3465116 0.9379225 0.01750676 0.5804126 0.8141344 0.06047118 0.2637206 0.9627018 0.06194263 0.2570818 0.9644024 -0.0493851 0.3129033 0.9485002 -0.1562036 -0.1719243 0.9726471 0.2061884 0.06511414 0.9763434 0.1959246 0.07298601 0.9778991 -0.2912276 -0.2015809 0.9351747 -0.05147824 0.4905041 0.8699171 0.2264155 -0.3581794 0.9057834 0.2905011 -0.2255164 0.9299201 0.03205905 -0.2815056 0.9590239 -0.04085282 -0.2942214 0.9548638 0.1779354 -0.1958432 0.964357 0.1543939 0.1068679 0.9822127 0.1666836 0.1125753 0.9795629 -0.0417012 0.5853654 0.8096964 -0.206479 0.02851201 0.9780355 -0.04563131 0.6405329 0.7665738 0.1625854 0.119981 0.9793725 0.1850227 -0.2036438 0.961403 -0.2394121 0.05301338 0.9694697 -0.06616366 -0.1171974 0.9909022 -0.05894859 -0.01145494 0.9981953 -0.2000538 0.06732868 0.9774688 -0.2868693 -0.05574468 0.9563464</float_array>
          <technique_common>
            <accessor source="#normals-array" count="682" stride="3">
              <param name="X" type="float" />
              <param name="Y" type="float" />
              <param name="Z" type="float" />
            </accessor>
          </technique_common>
        </source>
        <source id="uv">
          <float_array id="uv-array" count="4092">17.31579 0.6152632 18.03845 0.6628815 17.97175 1.442092 17.31579 0.6152632 17.97175 1.442092 17.31579 1.394474 18.03845 0.6628815 18.71494 0.6977406 18.57285 1.476951 18.03845 0.6628815 18.57285 1.476951 17.97175 1.442092 -1.946412 0.6977406 -2.641796 0.7105 -3.016657 1.48971 -1.946412 0.6977406 -3.016657 1.48971 -2.452121 1.476951 -2.641796 0.7105 -3.24286 0.6977406 -3.527482 1.476951 -2.641796 0.7105 -3.527482 1.476951 -3.016657 1.48971 -3.24286 0.6977406 -3.866697 0.6628815 -4.150038 1.442092 -3.24286 0.6977406 -4.150038 1.442092 -3.527482 1.476951 -3.866697 0.6628815 -4.619084 0.6152632 -4.857339 1.394474 -3.866697 0.6628815 -4.857339 1.394474 -4.150038 1.442092 -4.619084 0.6152632 -5.319503 0.5676448 -5.459872 1.346855 -4.619084 0.6152632 -5.459872 1.346855 -4.857339 1.394474 -5.319503 0.5676448 -6.028047 0.5327857 -6.098263 1.311996 -5.319503 0.5676448 -6.098263 1.311996 -5.459872 1.346855 -6.028047 0.5327857 -6.926314 0.5200263 -6.926314 1.299237 -6.028047 0.5327857 -6.926314 1.299237 -6.098263 1.311996 -6.926314 0.5200263 -7.824581 0.5327857 -7.733108 1.311996 -6.926314 0.5200263 -7.733108 1.311996 -6.926314 1.299237 -7.824581 0.5327857 -8.533125 0.5676448 -8.392757 1.346855 -7.824581 0.5327857 -8.392757 1.346855 -7.733108 1.311996 -8.533125 0.5676448 -9.233545 0.6152632 -9.056499 1.394474 -8.533125 0.5676448 -9.056499 1.394474 -8.392757 1.346855 -9.233545 0.6152632 -9.985932 0.6628815 -9.702591 1.442092 -9.233545 0.6152632 -9.702591 1.442092 -9.056499 1.394474 -9.985932 0.6628815 -10.60977 0.6977406 -10.23137 1.476951 -9.985932 0.6628815 -10.23137 1.476951 -9.702591 1.442092 -10.60977 0.6977406 -11.21083 0.7105 -10.83597 1.48971 -10.60977 0.6977406 -10.83597 1.48971 -10.23137 1.476951 -11.21083 0.7105 -11.90622 0.6977406 -11.51554 1.476951 -11.21083 0.7105 -11.51554 1.476951 -10.83597 1.48971 18.71494 0.6977406 18.03845 0.6628815 17.97175 1.442092 18.71494 0.6977406 17.97175 1.442092 18.60517 1.476951 18.03845 0.6628815 17.31579 0.6152632 17.31579 1.394474 18.03845 0.6628815 17.31579 1.394474 17.97175 1.442092 17.31579 0.6152632 16.71544 0.5676448 16.7678 1.346855 17.31579 0.6152632 16.7678 1.346855 17.31579 1.394474 16.71544 0.5676448 16.1091 0.5327857 16.20155 1.311996 16.71544 0.5676448 16.20155 1.311996 16.7678 1.346855 16.1091 0.5327857 15.41581 0.5200263 15.5916 1.299237 16.1091 0.5327857 15.5916 1.299237 16.20155 1.311996 15.41581 0.5200263 14.80429 0.5327857 15.0607 1.311996 15.41581 0.5200263 15.0607 1.311996 15.5916 1.299237 -10.80372 0.5327857 -10.21101 0.5676448 -9.923362 1.346855 14.80429 0.5327857 14.55865 1.346855 15.0607 1.311996 -10.21101 0.5676448 -9.554083 0.6152632 -9.348187 1.394474 -10.21101 0.5676448 -9.348187 1.394474 -9.923362 1.346855 -9.554083 0.6152632 -8.695242 0.6628815 -8.531794 1.442092 -9.554083 0.6152632 -8.531794 1.442092 -9.348187 1.394474 -8.695242 0.6628815 -7.741955 0.6977406 -7.657918 1.476951 -8.695242 0.6628815 -7.657918 1.476951 -8.531794 1.442092 -7.741955 0.6977406 -6.926314 0.7105 -6.926314 1.48971 -7.741955 0.6977406 -6.926314 1.48971 -7.657918 1.476951 -6.926314 0.7105 -6.110674 0.6977406 -6.173453 1.476951 -6.926314 0.7105 -6.173453 1.476951 -6.926314 1.48971 -6.110674 0.6977406 -5.157387 0.6628815 -5.320835 1.442092 -6.110674 0.6977406 -5.320835 1.442092 -6.173453 1.476951 -5.157387 0.6628815 -4.298546 0.6152632 -4.565649 1.394474 -5.157387 0.6628815 -4.565649 1.394474 -5.320835 1.442092 -4.298546 0.6152632 -3.64162 0.5676448 -3.929267 1.346855 -4.298546 0.6152632 -3.929267 1.346855 -4.565649 1.394474 -3.64162 0.5676448 -3.048912 0.5327857 -3.35099 1.311996 -3.64162 0.5676448 -3.35099 1.311996 -3.929267 1.346855 14.80429 0.5327857 15.41581 0.5200263 15.5916 1.299237 14.80429 0.5327857 15.5916 1.299237 14.99996 1.311996 15.41581 0.5200263 16.1091 0.5327857 16.23387 1.311996 15.41581 0.5200263 16.23387 1.311996 15.5916 1.299237 16.1091 0.5327857 16.71544 0.5676448 16.7678 1.346855 16.1091 0.5327857 16.7678 1.346855 16.23387 1.311996 16.71544 0.5676448 17.31579 0.6152632 17.31579 1.394474 -2.515615 0.5676448 -2.374256 1.394474 -2.900359 1.346855 17.31579 1.394474 17.97175 1.442092 17.8883 2.134723 17.31579 1.394474 17.8883 2.134723 17.31579 2.087105 17.97175 1.442092 18.57285 1.476951 18.40894 2.169583 17.97175 1.442092 18.40894 2.169583 17.8883 2.134723 -2.452121 1.476951 -3.016657 1.48971 -3.462405 2.182342 -2.452121 18.57285 -3.462405 18.85956 -3.035539 18.40894 -3.016657 1.48971 -3.527482 1.476951 -3.903617 2.169583 -3.016657 1.48971 -3.903617 2.169583 -3.462405 2.182342 -3.527482 1.476951 -4.150038 1.442092 -4.505559 2.134723 -3.527482 1.476951 -4.505559 2.134723 -3.903617 2.169583 -4.150038 1.442092 -4.857339 1.394474 -5.130092 2.087105 -4.150038 1.442092 -5.130092 2.087105 -4.505559 2.134723 -4.857339 1.394474 -5.459872 1.346855 -5.626531 2.039487 -4.857339 1.394474 -5.626531 2.039487 -5.130092 2.087105 -5.459872 1.346855 -6.098263 1.311996 -6.190489 2.004627 -5.459872 1.346855 -6.190489 2.004627 -5.626531 2.039487 -6.098263 1.311996 -6.926314 1.299237 -6.926314 1.991868 -6.098263 1.311996 -6.926314 1.991868 -6.190489 2.004627 -6.926314 1.299237 -7.733108 1.311996 -7.627715 2.004627 -6.926314 1.299237 -7.627715 2.004627 -6.926314 1.991868 -7.733108 1.311996 -8.392757 1.346855 -8.226098 2.039487 -7.733108 1.311996 -8.226098 2.039487 -7.627715 2.004627 -8.392757 1.346855 -9.056499 1.394474 -8.821661 2.087105 -8.392757 1.346855 -8.821661 2.087105 -8.226098 2.039487 -9.056499 1.394474 -9.702591 1.442092 -9.34707 2.134723 -9.056499 1.394474 -9.34707 2.134723 -8.821661 2.087105 -9.702591 1.442092 -10.23137 1.476951 -9.797145 2.169583 -9.702591 1.442092 -9.797145 2.169583 -9.34707 2.134723 -10.23137 1.476951 -10.83597 1.48971 -10.39022 2.182342 -10.23137 1.476951 -10.39022 2.182342 -9.797145 2.169583 -10.83597 1.48971 -11.51554 1.476951 -11.00338 2.169583 -10.83597 1.48971 -11.00338 2.169583 -10.39022 2.182342 18.60517 1.476951 17.97175 1.442092 17.8883 2.134723 18.60517 1.476951 17.8883 2.134723 18.46128 2.169583 17.97175 1.442092 17.31579 1.394474 17.31579 2.087105 17.97175 1.442092 17.31579 2.087105 17.8883 2.134723 17.31579 1.394474 16.7678 1.346855 16.82989 2.039487 17.31579 1.394474 16.82989 2.039487 17.31579 2.087105 16.7678 1.346855 16.20155 1.311996 16.32427 2.004627 16.7678 1.346855 16.32427 2.004627 16.82989 2.039487 16.20155 1.311996 15.5916 1.299237 15.81198 1.991868 16.20155 1.311996 15.81198 1.991868 16.32427 2.004627 15.5916 1.299237 15.0607 1.311996 15.35577 2.004627 15.5916 1.299237 15.35577 2.004627 15.81198 1.991868 15.0607 1.311996 14.55865 1.346855 14.8736 2.039487 15.0607 1.311996 14.8736 2.039487 15.35577 2.004627 -9.923362 1.346855 -9.348187 1.394474 -9.078091 2.087105 -9.923362 1.346855 -9.078091 2.087105 -9.581008 2.039487 -9.348187 1.394474 -8.531794 1.442092 -8.327123 2.134723 -9.348187 1.394474 -8.327123 2.134723 -9.078091 2.087105 -8.531794 1.442092 -7.657918 1.476951 -7.561615 2.169583 -8.531794 1.442092 -7.561615 2.169583 -8.327123 2.134723 -7.657918 1.476951 -6.926314 1.48971 -6.926314 2.182342 -7.657918 1.476951 -6.926314 2.182342 -7.561615 2.169583 -6.926314 1.48971 -6.173453 1.476951 -6.256589 2.169583 -6.926314 1.48971 -6.256589 2.169583 -6.926314 2.182342 -6.173453 1.476951 -5.320835 1.442092 -5.525506 2.134723 -6.173453 1.476951 -5.525506 2.134723 -6.256589 2.169583 -5.320835 1.442092 -4.565649 1.394474 -4.873662 2.087105 -5.320835 1.442092 -4.873662 2.087105 -5.525506 2.134723 -4.565649 1.394474 -3.929267 1.346855 -4.27162 2.039487 -4.565649 1.394474 -4.27162 2.039487 -4.873662 2.087105 -3.929267 1.346855 -3.35099 1.311996 -3.748459 2.004627 -3.929267 1.346855 -3.748459 2.004627 -4.27162 2.039487 14.99996 1.311996 15.5916 1.299237 15.81198 1.991868 14.99996 1.311996 15.81198 1.991868 15.25741 2.004627 15.5916 1.299237 16.23387 1.311996 16.37661 2.004627 15.5916 1.299237 16.37661 2.004627 15.81198 1.991868 16.23387 1.311996 16.7678 1.346855 16.82989 2.039487 16.23387 1.311996 16.82989 2.039487 16.37661 2.004627 -2.900359 1.346855 -2.374256 1.394474 -2.879191 2.087105 -2.900359 1.346855 -2.879191 2.087105 -3.356483 2.039487 -2.879191 17.31579 -2.720106 17.8883 -2.97364 17.85379 -2.879191 17.31579 -2.97364 17.85379 -3.053366 17.31579 -2.720106 17.8883 -3.035539 18.40894 -3.25656 18.34684 -2.720106 17.8883 -3.25656 18.34684 -2.97364 17.85379 -3.035539 18.40894 -3.462405 18.85956 -3.59759 18.79931 -3.035539 18.40894 -3.59759 18.79931 -3.25656 18.34684 -3.462405 18.85956 -3.903617 19.27367 -4.033163 19.18975 -3.462405 18.85956 -4.033163 19.18975 -3.59759 18.79931 -3.903617 19.27367 -4.505559 19.54276 -4.654809 19.40546 -3.903617 2.169583 -4.654809 2.307881 -4.033163 2.34274 -4.505559 2.134723 -5.130092 2.087105 -5.233993 2.260263 -4.505559 2.134723 -5.233993 2.260263 -4.654809 2.307881 -5.130092 2.087105 -5.626531 2.039487 -5.676509 2.212644 -5.130092 19.71737 -5.676509 19.96645 -5.233993 19.57846 -5.626531 2.039487 -6.190489 2.004627 -6.222386 2.177785 -5.626531 2.039487 -6.222386 2.177785 -5.676509 2.212644 -6.190489 20.53711 -6.926314 20.66625 -6.926314 20.46484 -6.190489 2.004627 -6.926314 2.165026 -6.222386 2.177785 -6.926314 20.66625 -7.627715 20.3864 -7.587751 20.21144 -6.926314 20.66625 -7.587751 20.21144 -6.926314 20.46484 -7.627715 2.004627 -8.226098 2.039487 -8.176119 2.212644 -7.627715 20.3864 -8.176119 19.96645 -7.587751 20.21144 -8.226098 2.039487 -8.821661 2.087105 -8.740984 2.260263 -8.226098 2.039487 -8.740984 2.260263 -8.176119 2.212644 -8.821661 19.84991 -9.34707 19.54276 -9.19782 19.40546 -8.821661 2.087105 -9.19782 2.307881 -8.740984 2.260263 -9.34707 19.54276 -9.797145 19.1753 -9.632014 19.06834 -9.34707 19.54276 -9.632014 19.06834 -9.19782 19.40546 -9.797145 2.169583 -10.39022 2.182342 -10.25504 2.3555 -9.797145 19.1753 -10.25504 18.79931 -9.632014 19.06834 -10.39022 2.182342 -11.00338 2.169583 -10.82601 2.34274 -10.39022 2.182342 -10.82601 2.34274 -10.25504 2.3555 -11.00338 18.46128 -11.13252 17.8883 -10.87899 17.85379 -11.00338 18.46128 -10.87899 17.85379 -10.82601 18.41144 -11.13252 17.8883 -10.77519 17.31579 -10.55456 17.31579 -11.13252 17.8883 -10.55456 17.31579 -10.87899 17.85379 17.31579 2.087105 16.82989 2.039487 16.8483 2.212644 -10.77519 17.31579 -10.36088 16.8483 -10.55456 17.31579 16.82989 2.039487 16.32427 2.004627 16.36641 2.177785 16.82989 2.039487 16.36641 2.177785 16.8483 2.212644 -10.45535 16.32427 -10.30054 15.81198 -10.09382 15.90411 16.32427 2.004627 15.90411 2.165026 16.36641 2.177785 -10.30054 15.81198 -9.952303 15.35577 -9.779415 15.46776 -10.30054 15.81198 -9.779415 15.46776 -10.09382 15.90411 15.35577 2.004627 14.8736 2.039487 14.96976 2.212644 -9.952303 15.35577 -9.476486 14.96976 -9.779415 15.46776 -9.581008 14.8736 -9.078091 14.43881 -8.984593 14.56382 -9.581008 14.8736 -8.984593 14.56382 -9.476486 14.96976 -9.078091 14.43881 -8.327123 14.34487 -8.242071 14.52525 -9.078091 2.087105 -8.242071 2.307881 -8.984593 2.260263 -8.327123 2.134723 -7.561615 2.169583 -7.524956 2.34274 -8.327123 2.134723 -7.524956 2.34274 -8.242071 2.307881 -7.561615 2.169583 -6.926314 2.182342 -6.926314 2.3555 -7.561615 2.169583 -6.926314 2.3555 -7.524956 2.34274 -6.926314 2.182342 -6.256589 2.169583 -6.285182 2.34274 -6.926314 2.182342 -6.285182 2.34274 -6.926314 2.3555 -6.256589 14.38384 -5.525506 14.34487 -5.610558 14.52525 -6.256589 2.169583 -5.610558 2.307881 -6.285182 2.34274 -5.525506 14.34487 -4.873662 14.57135 -4.990386 14.72741 -5.525506 14.34487 -4.990386 14.72741 -5.610558 14.52525 -4.873662 2.087105 -4.27162 2.039487 -4.376142 2.212644 -4.873662 14.57135 -4.376142 14.96976 -4.990386 14.72741 -4.27162 14.8736 -3.748459 15.25741 -3.885763 15.34634 -4.27162 14.8736 -3.885763 15.34634 -4.376142 14.96976 -3.748459 15.25741 -3.552089 15.81198 -3.75881 15.90411 15.25741 2.004627 15.90411 2.165026 15.34634 2.177785 -3.552089 15.81198 -3.583571 16.37661 -3.77719 16.43101 -3.552089 15.81198 -3.77719 16.43101 -3.75881 15.90411 16.37661 2.004627 16.82989 2.039487 16.8483 2.212644 -3.583571 16.37661 -3.49175 16.8483 -3.77719 16.43101 -3.356483 2.039487 -2.879191 2.087105 -3.053366 2.260263 -3.356483 2.039487 -3.053366 2.260263 -3.49175 2.212644 17.31579 2.260263 17.85379 2.307881 17.85389 2.740776 17.31579 2.260263 17.85389 2.740776 17.31579 2.693157 17.85379 2.307881 18.34684 2.34274 18.35803 2.775635 17.85379 2.307881 18.35803 2.775635 17.85389 2.740776 18.34684 2.34274 18.79931 2.3555 18.83893 2.788394 18.34684 2.34274 18.83893 2.788394 18.35803 2.775635 -3.59759 2.3555 -4.033163 2.34274 -3.988215 2.775635 -3.59759 2.3555 -3.988215 2.775635 -3.508692 2.788394 -4.033163 2.34274 -4.654809 2.307881 -4.658395 2.740776 -4.033163 2.34274 -4.658395 2.740776 -3.988215 2.775635 -4.654809 2.307881 -5.233993 2.260263 -5.216218 2.693157 -4.654809 2.307881 -5.216218 2.693157 -4.658395 2.740776 -5.233993 2.260263 -5.676509 2.212644 -5.642254 2.645539 19.57846 2.260263 20.0391 2.645539 19.60222 2.693157 -5.676509 2.212644 -6.222386 2.177785 -6.211564 2.61068 -5.676509 2.212644 -6.211564 2.61068 -5.642254 2.645539 -6.222386 2.177785 -6.926314 2.165026 -6.926314 2.597921 -6.222386 2.177785 -6.926314 2.597921 -6.211564 2.61068 -6.926314 2.165026 -7.587751 2.177785 -7.594894 2.61068 -6.926314 2.165026 -7.594894 2.61068 -6.926314 2.597921 -7.587751 2.177785 -8.176119 2.212644 -8.210375 2.645539 -7.587751 2.177785 -8.210375 2.645539 -7.594894 2.61068 -8.176119 2.212644 -8.740984 2.260263 -8.769353 2.693157 -8.176119 2.212644 -8.769353 2.693157 -8.210375 2.645539 -8.740984 2.260263 -9.19782 2.307881 -9.194234 2.740776 -8.740984 2.260263 -9.194234 2.740776 -8.769353 2.693157 -9.19782 2.307881 -9.632014 2.34274 -9.660736 2.775635 -9.19782 2.307881 -9.660736 2.775635 -9.194234 2.740776 -9.632014 2.34274 -10.25504 2.3555 -10.34394 2.788394 -9.632014 2.34274 -10.34394 2.788394 -9.660736 2.775635 -10.25504 2.3555 -10.82601 2.34274 -10.88576 2.775635 -10.25504 2.3555 -10.88576 2.775635 -10.34394 2.788394 18.41144 2.34274 17.85379 2.307881 17.85389 2.740776 18.41144 2.34274 17.85389 2.740776 18.42823 2.775635 17.85379 2.307881 17.31579 2.260263 17.31579 2.693157 17.85379 2.307881 17.31579 2.693157 17.85389 2.740776 17.31579 2.260263 16.8483 2.212644 16.83517 2.645539 17.31579 2.260263 16.83517 2.645539 17.31579 2.693157 16.8483 2.212644 16.36641 2.177785 16.35154 2.61068 16.8483 2.212644 16.35154 2.61068 16.83517 2.645539 16.36641 2.177785 15.90411 2.165026 15.90564 2.597921 16.36641 2.177785 15.90564 2.597921 16.35154 2.61068 15.90411 2.165026 15.46776 2.177785 15.4479 2.61068 15.90411 2.165026 15.4479 2.61068 15.90564 2.597921 15.46776 2.177785 14.96976 2.212644 14.90809 2.645539 15.46776 2.177785 14.90809 2.645539 15.4479 2.61068 -9.476486 2.212644 -8.984593 2.260263 -9.016167 2.693157 -9.476486 2.212644 -9.016167 2.693157 -9.543514 2.645539 -8.984593 2.260263 -8.242071 2.307881 -8.241571 2.740776 -8.984593 2.260263 -8.241571 2.740776 -9.016167 2.693157 -8.242071 2.307881 -7.524956 2.34274 -7.531273 2.775635 -8.242071 2.307881 -7.531273 2.775635 -8.241571 2.740776 -7.524956 2.34274 -6.926314 2.3555 -6.926314 2.788394 -7.524956 2.34274 -6.926314 2.788394 -7.531273 2.775635 -6.926314 2.3555 -6.285182 2.34274 -6.275186 2.775635 -6.926314 2.3555 -6.275186 2.775635 -6.926314 2.788394 -6.285182 2.34274 -5.610558 2.307881 -5.611057 2.740776 -6.285182 2.34274 -5.611057 2.740776 -6.275186 2.775635 -5.610558 2.307881 -4.990386 2.260263 -4.969404 2.693157 -5.610558 2.307881 -4.969404 2.693157 -5.611057 2.740776 -4.990386 2.260263 -4.376142 2.212644 -4.309114 2.645539 -4.990386 2.260263 -4.309114 2.645539 -4.969404 2.693157 -4.376142 2.212644 -3.885763 2.177785 -3.838876 2.61068 -4.376142 2.212644 -3.838876 2.61068 -4.309114 2.645539 15.34634 2.177785 15.90411 2.165026 15.90564 2.597921 15.34634 2.177785 15.90564 2.597921 15.31597 2.61068 15.90411 2.165026 16.43101 2.177785 16.42174 2.61068 15.90411 2.165026 16.42174 2.61068 15.90564 2.597921 16.43101 2.177785 16.8483 2.212644 16.83517 2.645539 16.43101 2.177785 16.83517 2.645539 16.42174 2.61068 16.8483 2.212644 17.31579 2.260263 17.31579 2.693157 16.8483 2.212644 17.31579 2.693157 16.83517 2.645539 -2.993424 17.31579 -2.972917 17.85389 -3.479759 17.7849 -2.993424 17.31579 -3.479759 17.7849 -3.463715 17.31579 -2.972917 17.85389 -3.216714 18.35803 -3.64034 18.23901 -2.972917 17.85389 -3.64034 18.23901 -3.479759 17.7849 -3.216714 18.35803 -3.508692 18.83893 -3.868795 18.67844 -3.216714 18.35803 -3.868795 18.67844 -3.64034 18.23901 -3.508692 18.83893 -3.988215 19.21887 -4.339752 18.99117 -3.508692 18.83893 -4.339752 18.99117 -3.868795 18.67844 -3.988215 19.21887 -4.658395 19.40216 -4.95269 19.13142 -3.988215 19.21887 -4.95269 19.13142 -4.339752 18.99117 -4.658395 19.40216 -5.216218 19.60222 -5.410797 19.34207 -4.658395 19.40216 -5.410797 19.34207 -4.95269 19.13142 -5.216218 19.60222 -5.642254 20.0391 -5.776795 19.75376 -5.216218 19.60222 -5.776795 19.75376 -5.410797 19.34207 -5.642254 20.0391 -6.211564 20.44484 -6.296947 20.07105 -5.642254 20.0391 -6.296947 20.07105 -5.776795 19.75376 -6.211564 20.44484 -6.926314 20.46608 -6.926314 20.06278 -6.211564 20.44484 -6.926314 20.06278 -6.296947 20.07105 -6.926314 20.46608 -7.594894 20.24272 -7.518591 19.90867 -6.926314 20.46608 -7.518591 19.90867 -6.926314 20.06278 -7.594894 20.24272 -8.210375 20.0391 -8.075834 19.75376 -7.594894 20.24272 -8.075834 19.75376 -7.518591 19.90867 -8.210375 20.0391 -8.769353 19.77997 -8.548631 19.48486 -8.210375 20.0391 -8.548631 19.48486 -8.075834 19.75376 -8.769353 19.77997 -9.194234 19.40216 -8.899939 19.13142 -8.769353 19.77997 -8.899939 19.13142 -8.548631 19.48486 -9.194234 19.40216 -9.660736 19.08694 -9.349251 18.88519 -9.194234 19.40216 -9.349251 18.88519 -8.899939 19.13142 -9.660736 19.08694 -10.34394 18.83893 -9.983834 18.67844 -9.660736 19.08694 -9.983834 18.67844 -9.349251 18.88519 -10.34394 18.83893 -10.88576 18.42823 -10.41301 18.29541 -10.34394 18.83893 -10.41301 18.29541 -9.983834 18.67844 -10.88576 18.42823 -10.87971 17.85389 -10.37287 17.7849 -10.88576 18.42823 -10.37287 17.7849 -10.41301 18.29541 -10.87971 17.85389 -10.59332 17.31579 -10.17531 17.31579 -10.87971 17.85389 -10.17531 17.31579 -10.37287 17.7849 -10.59332 17.31579 -10.45736 16.83517 -10.08939 16.88525 -10.59332 17.31579 -10.08939 16.88525 -10.17531 17.31579 -10.45736 16.83517 -10.35828 16.35154 -9.94718 16.46705 -10.45736 16.83517 -9.94718 16.46705 -10.08939 16.88525 -10.35828 16.35154 -10.0904 15.90564 -9.68121 16.088 -10.35828 16.35154 -9.68121 16.088 -9.94718 16.46705 -10.0904 15.90564 -9.810075 15.4479 -9.481135 15.66096 -10.0904 15.90564 -9.481135 15.66096 -9.68121 16.088 -9.810075 15.4479 -9.543514 14.90809 -9.266822 15.16264 -9.810075 15.4479 -9.266822 15.16264 -9.481135 15.66096 -9.543514 14.90809 -9.016167 14.52161 -8.766596 14.85529 -9.543514 14.90809 -8.766596 14.85529 -9.266822 15.16264 -9.016167 14.52161 -8.241571 14.52631 -8.072296 14.88532 -9.016167 14.52161 -8.072296 14.88532 -8.766596 14.85529 -8.241571 14.52631 -7.531273 14.66738 -7.462405 14.96887 -8.241571 14.52631 -7.462405 14.96887 -8.072296 14.88532 -7.531273 14.66738 -6.926314 14.59949 -6.926314 14.8819 -7.531273 14.66738 -6.926314 14.8819 -7.462405 14.96887 -6.926314 14.59949 -6.275186 14.46526 -6.353133 14.8065 -6.926314 14.59949 -6.353133 14.8065 -6.926314 14.8819 -6.275186 14.46526 -5.611057 14.52631 -5.780333 14.88532 -6.275186 14.46526 -5.780333 14.88532 -6.353133 14.8065 -5.611057 14.52631 -4.969404 14.69935 -5.192832 14.99808 -5.611057 14.52631 -5.192832 14.99808 -5.780333 14.88532 -4.969404 14.69935 -4.309114 14.90809 -4.585807 15.16264 -4.969404 14.69935 -4.585807 15.16264 -5.192832 14.99808 -4.309114 14.90809 -3.838876 15.31597 -4.207867 15.55498 -4.309114 14.90809 -4.207867 15.55498 -4.585807 15.16264 -3.838876 15.31597 -3.762232 15.90564 -4.171419 16.088 -3.838876 15.31597 -4.171419 16.088 -4.207867 15.55498 -3.762232 15.90564 -3.744195 16.42174 -4.106167 16.52344 -3.762232 15.90564 -4.106167 16.52344 -4.171419 16.088 -3.744195 16.42174 -3.395274 16.83517 -3.763235 16.88525 -3.744195 16.42174 -3.763235 16.88525 -4.106167 16.52344 -3.395274 16.83517 -2.993424 17.31579 -3.463715 17.31579 -3.395274 16.83517 -3.463715 17.31579 -3.763235 16.88525 17.31579 2.779736 17.7849 2.827355 17.7389 3.346828 17.31579 2.779736 17.7389 3.346828 17.31579 3.29921 17.7849 2.827355 18.23901 2.862214 18.16416 3.381688 17.7849 2.827355 18.16416 3.381688 17.7389 3.346828 18.23901 2.862214 18.67844 2.874973 18.57149 3.394447 18.23901 2.862214 18.57149 3.394447 18.16416 3.381688 -3.868795 2.874973 -4.339752 2.862214 -4.587161 3.381688 -3.868795 2.874973 -4.587161 3.381688 -4.108783 3.394447 -4.339752 2.862214 -4.95269 2.827355 -5.148947 3.346828 -4.339752 2.862214 -5.148947 3.346828 -4.587161 3.381688 -4.95269 2.827355 -5.410797 2.779736 -5.531999 3.29921 -4.95269 2.827355 -5.531999 3.29921 -5.148947 3.346828 19.34207 2.779736 19.75376 2.732118 19.5636 3.251592 19.34207 2.779736 19.5636 3.251592 19.18002 3.29921 -5.776795 2.732118 -6.296947 2.697259 -6.356828 3.216732 -5.776795 2.732118 -6.356828 3.216732 -5.866456 3.251592 -6.296947 2.697259 -6.926314 2.6845 -6.926314 3.203973 -6.296947 2.697259 -6.926314 3.203973 -6.356828 3.216732 -6.926314 2.6845 -7.518591 2.697259 -7.470679 3.216732 -6.926314 2.6845 -7.470679 3.216732 -6.926314 3.203973 -7.518591 2.697259 -8.075834 2.732118 -7.986173 3.251592 -7.518591 2.697259 -7.986173 3.251592 -7.470679 3.216732 -8.075834 2.732118 -8.548631 2.779736 -8.392964 3.29921 -8.075834 2.732118 -8.392964 3.29921 -7.986173 3.251592 -8.548631 2.779736 -8.899939 2.827355 -8.703682 3.346828 -8.548631 2.779736 -8.703682 3.346828 -8.392964 3.29921 -8.899939 2.827355 -9.349251 2.862214 -9.154645 3.381688 -8.899939 2.827355 -9.154645 3.381688 -8.703682 3.346828 -9.349251 2.862214 -9.983834 2.874973 -9.743846 3.394447 -9.349251 2.862214 -9.743846 3.394447 -9.154645 3.381688 -9.983834 2.874973 -10.41301 2.862214 -10.08183 3.381688 18.67844 2.874973 18.20236 3.381688 18.57149 3.394447 18.29541 2.862214 17.7849 2.827355 17.7389 3.346828 18.29541 2.862214 17.7389 3.346828 18.20236 3.381688 17.7849 2.827355 17.31579 2.779736 17.31579 3.29921 17.7849 2.827355 17.31579 3.29921 17.7389 3.346828 17.31579 2.779736 16.88525 2.732118 16.91863 3.251592 17.31579 2.779736 16.91863 3.251592 17.31579 3.29921 16.88525 2.732118 16.46705 2.697259 16.54855 3.216732 16.88525 2.732118 16.54855 3.216732 16.91863 3.251592 16.46705 2.697259 16.088 2.6845 16.20961 3.203973 16.46705 2.697259 16.20961 3.203973 16.54855 3.216732 16.088 2.6845 15.66096 2.697259 15.79455 3.216732 16.088 2.6845 15.79455 3.216732 16.20961 3.203973 15.66096 2.697259 15.16264 2.732118 15.33228 3.251592 15.66096 2.697259 15.33228 3.251592 15.79455 3.216732 -9.266822 2.732118 -8.766596 2.779736 -8.591698 3.29921 -9.266822 2.732118 -8.591698 3.29921 -9.08242 3.251592 -8.766596 2.779736 -8.072296 2.827355 -7.959414 3.346828 -8.766596 2.779736 -7.959414 3.346828 -8.591698 3.29921 -8.072296 2.827355 -7.462405 2.862214 -7.419451 3.381688 -8.072296 2.827355 -7.419451 3.381688 -7.959414 3.346828 -7.462405 2.862214 -6.926314 2.874973 -6.926314 3.394447 -7.462405 2.862214 -6.926314 3.394447 -7.419451 3.381688 -6.926314 2.874973 -6.353133 2.862214 -6.408056 3.381688 -6.926314 2.874973 -6.408056 3.381688 -6.926314 3.394447 -6.353133 2.862214 -5.780333 2.827355 -5.893214 3.346828 -6.353133 2.862214 -5.893214 3.346828 -6.408056 3.381688 -5.780333 2.827355 -5.192832 2.779736 -5.333265 3.29921 -5.780333 2.827355 -5.333265 3.29921 -5.893214 3.346828 -5.192832 2.779736 -4.585807 2.732118 -4.770209 3.251592 -5.192832 2.779736 -4.770209 3.251592 -5.333265 3.29921 15.16264 2.732118 15.55498 2.697259 15.72277 3.216732 15.16264 2.732118 15.72277 3.216732 15.33228 3.251592 15.55498 2.697259 16.088 2.6845 16.20961 3.203973 15.55498 2.697259 16.20961 3.203973 15.72277 3.216732 16.088 2.6845 16.52344 2.697259 16.58674 3.216732 16.088 2.6845 16.58674 3.216732 16.20961 3.203973 16.52344 2.697259 16.88525 2.732118 16.91863 3.251592 -4.106167 2.697259 -4.008451 3.251592 -4.331472 3.216732 16.88525 2.732118 17.31579 2.779736 17.31579 3.29921 16.88525 2.732118 17.31579 3.29921 16.91863 3.251592 -3.79428 17.31579 -3.817747 17.7389 -4.138087 17.6953 -3.79428 17.31579 -4.138087 17.6953 -4.130313 17.31579 -3.817747 17.7389 -3.906748 18.16416 -4.168017 18.09076 -3.817747 17.7389 -4.168017 18.09076 -4.138087 17.6953 -3.906748 18.16416 -4.108783 18.57149 -4.364289 18.45761 -3.906748 18.16416 -4.364289 18.45761 -4.168017 18.09076 -4.108783 18.57149 -4.587161 18.83092 -4.838758 18.66795 -4.108783 18.57149 -4.838758 18.66795 -4.364289 18.45761 -4.587161 18.83092 -5.148947 18.95088 -5.333684 18.78093 -4.587161 18.83092 -5.333684 18.78093 -4.838758 18.66795 -5.148947 18.95088 -5.531999 19.18002 -5.650467 19.02162 -5.148947 18.95088 -5.650467 19.02162 -5.333684 18.78093 -5.531999 19.18002 -5.866456 19.5636 -5.962247 19.36044 -5.531999 19.18002 -5.962247 19.36044 -5.650467 19.02162 -5.866456 19.5636 -6.356828 19.8089 -6.417659 19.5426 -5.866456 19.5636 -6.417659 19.5426 -5.962247 19.36044 -6.356828 19.8089 -6.926314 19.79384 -6.926314 19.53874 -6.356828 19.8089 -6.926314 19.53874 -6.417659 19.5426 -6.926314 19.79384 -7.470679 19.69892 -7.423717 19.49333 -6.926314 19.79384 -7.423717 19.49333 -6.926314 19.53874 -7.470679 19.69892 -7.986173 19.5636 -7.890382 19.36044 -7.470679 19.69892 -7.890382 19.36044 -7.423717 19.49333 -7.986173 19.5636 -8.392964 19.27673 -8.234564 19.06495 -7.986173 19.5636 -8.234564 19.06495 -7.890382 19.36044 -8.392964 19.27673 -8.703682 18.95088 -8.518945 18.78093 -8.392964 19.27673 -8.518945 18.78093 -8.234564 19.06495 -8.703682 18.95088 -9.154645 18.75913 -8.964227 18.6358 -8.703682 18.95088 -8.964227 18.6358 -8.518945 18.78093 -9.154645 18.75913 -9.743846 18.57149 -9.488339 18.45761 -9.154645 18.75913 -9.488339 18.45761 -8.964227 18.6358 -9.743846 18.57149 -10.08183 18.20236 -9.745508 18.10787 -9.743846 18.57149 -9.745508 18.10787 -9.488339 18.45761 -10.08183 18.20236 -10.03488 17.7389 -9.714541 17.6953 -10.08183 18.20236 -9.714541 17.6953 -9.745508 18.10787 -10.03488 17.7389 -9.913679 17.31579 -9.657511 17.31579 -10.03488 17.7389 -9.657511 17.31579 -9.714541 17.6953 -9.913679 17.31579 -9.844179 16.91863 -9.581316 16.95441 -9.913679 17.31579 -9.581316 16.95441 -9.657511 17.31579 -9.844179 16.91863 -9.657102 16.54855 -9.361886 16.63149 -9.844179 16.91863 -9.361886 16.63149 -9.581316 16.95441 -9.657102 16.54855 -9.408338 16.20961 -9.150984 16.32431 -9.657102 16.54855 -9.150984 16.32431 -9.361886 16.63149 -9.408338 16.20961 -9.274892 15.79455 -9.072838 15.92543 -9.408338 16.20961 -9.072838 15.92543 -9.150984 16.32431 -9.274892 15.79455 -9.08242 15.33228 -8.8865 15.51251 -9.274892 15.79455 -8.8865 15.51251 -9.072838 15.92543 -9.08242 15.33228 -8.591698 15.08913 -8.414066 15.32663 -9.08242 15.33228 -8.414066 15.32663 -8.8865 15.51251 -8.591698 15.08913 -7.959414 15.12473 -7.85266 15.35114 -8.591698 15.08913 -7.85266 15.35114 -8.414066 15.32663 -7.959414 15.12473 -7.419451 15.15692 -7.377447 15.34081 -7.959414 15.12473 -7.377447 15.34081 -7.85266 15.35114 -7.419451 15.15692 -6.926314 15.0701 -6.926314 15.27213 -7.419451 15.15692 -6.926314 15.27213 -7.377447 15.34081 -6.926314 15.0701 -6.408056 15.04694 -6.463929 15.29154 -6.926314 15.0701 -6.463929 15.29154 -6.926314 15.27213 -6.408056 15.04694 -5.893214 15.12473 -5.999969 15.35114 -6.408056 15.04694 -5.999969 15.35114 -6.463929 15.29154 -5.893214 15.12473 -5.333265 15.18585 -5.470965 15.36995 -5.893214 15.12473 -5.470965 15.36995 -5.999969 15.35114 -5.333265 15.18585 -4.770209 15.33228 -4.966129 15.51251 -5.333265 15.18585 -4.966129 15.51251 -5.470965 15.36995 -4.770209 15.33228 -4.466913 15.72277 -4.730148 15.89327 -4.770209 15.33228 -4.730148 15.89327 -4.966129 15.51251 -4.466913 15.72277 -4.444292 16.20961 -4.701644 16.32431 -4.466913 15.72277 -4.701644 16.32431 -4.730148 15.89327 -4.444292 16.20961 -4.331472 16.58674 -4.551639 16.6486 -4.444292 16.20961 -4.551639 16.6486 -4.701644 16.32431 -4.331472 16.58674 -4.008451 16.91863 -4.271313 16.95441 -4.331472 16.58674 -4.271313 16.95441 -4.551639 16.6486 -4.008451 16.91863 -3.79428 17.31579 -4.130313 17.31579 -4.008451 16.91863 -4.130313 17.31579 -4.271313 16.95441 -4.130313 17.31579 -4.138087 17.6953 -4.789456 17.60664 -4.130313 17.31579 -4.789456 17.60664 -4.8086 17.31579 -4.138087 17.6953 -4.168017 18.09076 -4.780882 17.91857 -4.138087 17.6953 -4.780882 17.91857 -4.789456 17.60664 -4.168017 18.09076 -4.364289 18.45761 -4.955439 18.19415 -4.168017 18.09076 -4.955439 18.19415 -4.780882 17.91857 -4.364289 18.45761 -4.838758 18.66795 -5.34575 18.33956 -4.364289 18.45761 -5.34575 18.33956 -4.955439 18.19415 -4.838758 3.554845 -5.333684 3.519986 -5.706079 3.952881 -4.838758 3.554845 -5.706079 3.952881 -5.34575 3.98774 -5.333684 18.78093 -5.650467 19.02162 -5.932037 18.64516 -5.333684 18.78093 -5.932037 18.64516 -5.706079 18.43834 -5.650467 19.02162 -5.962247 19.36044 -6.184624 18.88881 -5.650467 19.02162 -6.184624 18.88881 -5.932037 18.64516 -5.962247 19.36044 -6.417659 19.5426 -6.540813 19.00345 -5.962247 19.36044 -6.540813 19.00345 -6.184624 18.88881 -6.417659 19.5426 -6.926314 19.53874 -6.926314 19.01948 -6.417659 19.5426 -6.926314 19.01948 -6.540813 19.00345 -6.926314 19.53874 -7.423717 19.49333 -7.313322 19.01004 -6.926314 19.53874 -7.313322 19.01004 -6.926314 19.01948 -7.423717 19.49333 -7.890382 19.36044 -7.668005 18.88881 -7.423717 19.49333 -7.668005 18.88881 -7.313322 19.01004 -7.890382 19.36044 -8.234564 19.06495 -7.916256 18.63936 -7.890382 19.36044 -7.916256 18.63936 -7.668005 18.88881 -8.234564 19.06495 -8.518945 18.78093 -8.146549 18.43834 -8.234564 19.06495 -8.146549 18.43834 -7.916256 18.63936 -8.518945 3.519986 -8.964227 3.554845 -8.513522 3.98774 -8.518945 3.519986 -8.513522 3.98774 -8.146549 3.952881 -8.964227 18.6358 -9.488339 18.45761 -8.89719 18.19415 -8.964227 18.6358 -8.89719 18.19415 -8.513522 18.34386 -9.488339 18.45761 -9.745508 18.10787 -9.063598 17.91628 -9.488339 18.45761 -9.063598 17.91628 -8.89719 18.19415 -9.745508 18.10787 -9.714541 17.6953 -9.063173 17.60664 -9.745508 18.10787 -9.063173 17.60664 -9.063598 17.91628 -9.714541 17.6953 -9.657511 17.31579 -9.052699 17.31579 -9.714541 17.6953 -9.052699 17.31579 -9.063173 17.60664 -9.657511 17.31579 -9.581316 16.95441 -8.969077 17.03774 -9.657511 17.31579 -8.969077 17.03774 -9.052699 17.31579 -9.581316 16.95441 -9.361886 16.63149 -8.769031 16.79806 -9.581316 16.95441 -8.769031 16.79806 -8.969077 17.03774 -9.361886 16.63149 -9.150984 16.32431 -8.630936 16.55608 -9.361886 16.63149 -8.630936 16.55608 -8.769031 16.79806 -9.150984 16.32431 -9.072838 15.92543 -8.596918 16.23369 -9.150984 16.32431 -8.596918 16.23369 -8.630936 16.55608 -9.072838 15.92543 -8.8865 15.51251 -8.434133 15.92867 -9.072838 15.92543 -8.434133 15.92867 -8.596918 16.23369 -8.8865 15.51251 -8.414066 15.32663 -8.054086 15.80793 -8.8865 15.51251 -8.054086 15.80793 -8.434133 15.92867 -8.414066 15.32663 -7.85266 15.35114 -7.636191 15.81024 -8.414066 15.32663 -7.636191 15.81024 -8.054086 15.80793 -7.85266 15.35114 -7.377447 15.34081 -7.277793 15.77707 -7.85266 15.35114 -7.277793 15.77707 -7.636191 15.81024 -7.377447 15.34081 -6.926314 15.27213 -6.926314 15.74333 -7.377447 15.34081 -6.926314 15.74333 -7.277793 15.77707 -6.926314 15.27213 -6.463929 15.29154 -6.576342 15.78366 -6.926314 15.27213 -6.576342 15.78366 -6.926314 15.74333 -6.463929 15.29154 -5.999969 15.35114 -6.216437 15.81024 -6.463929 15.29154 -6.216437 15.81024 -6.576342 15.78366 -5.999969 15.35114 -5.470965 15.36995 -5.794207 15.80213 -5.999969 15.35114 -5.794207 15.80213 -6.216437 15.81024 -5.470965 15.36995 -4.966129 15.51251 -5.418495 15.92867 -5.470965 15.36995 -5.418495 15.92867 -5.794207 15.80213 -4.966129 15.51251 -4.730148 15.89327 -5.262353 16.23799 -4.966129 15.51251 -5.262353 16.23799 -5.418495 15.92867 -4.730148 15.89327 -4.701644 16.32431 -5.221693 16.55608 -4.730148 15.89327 -5.221693 16.55608 -5.262353 16.23799 -4.701644 16.32431 -4.551639 16.6486 -5.075449 16.79577 -4.701644 16.32431 -5.075449 16.79577 -5.221693 16.55608 -4.551639 16.6486 -4.271313 16.95441 -4.883552 17.03774 -4.551639 16.6486 -4.883552 17.03774 -5.075449 16.79577 -4.271313 16.95441 -4.130313 17.31579 -4.8086 17.31579 -4.271313 16.95441 -4.8086 17.31579 -4.883552 17.03774 -4.8086 17.31579 -4.789456 17.60664 -5.729504 17.47869 -4.8086 17.31579 -5.729504 17.47869 -5.760259 17.31579 -4.789456 17.60664 -4.780882 17.91857 -5.7139 17.65643 -4.789456 17.60664 -5.7139 17.65643 -5.729504 17.47869 -4.780882 17.91857 -4.955439 18.19415 -5.829936 17.80441 -4.780882 17.91857 -5.829936 17.80441 -5.7139 17.65643 -4.955439 18.19415 -5.34575 18.33956 -6.056337 17.87929 -4.955439 18.19415 -6.056337 17.87929 -5.829936 17.80441 -5.34575 18.33956 -5.706079 18.43834 -6.242547 17.94482 -5.34575 18.33956 -6.242547 17.94482 -6.056337 17.87929 -5.706079 18.43834 -5.932037 18.64516 -6.363407 18.06841 -5.706079 18.43834 -6.363407 18.06841 -6.242547 17.94482 -5.932037 18.64516 -6.184624 18.88881 -6.513787 18.1907 -5.932037 18.64516 -6.513787 18.1907 -6.363407 18.06841 -6.184624 18.88881 -6.540813 19.00345 -6.713916 18.24563 -6.184624 18.88881 -6.713916 18.24563 -6.513787 18.1907 -6.540813 19.00345 -6.926314 19.01948 -6.926314 18.26993 -6.540813 19.00345 -6.926314 18.26993 -6.713916 18.24563 -6.926314 19.01948 -7.313322 19.01004 -7.145084 18.27352 -6.926314 19.01948 -7.145084 18.27352 -6.926314 18.26993 -7.313322 19.01004 -7.668005 18.88881 -7.338842 18.1907 -7.313322 19.01004 -7.338842 18.1907 -7.145084 18.27352 -7.668005 18.88881 -7.916256 18.63936 -7.470878 18.04388 -7.668005 18.88881 -7.470878 18.04388 -7.338842 18.1907 -7.916256 18.63936 -8.146549 18.43834 -7.610081 17.94482 -7.916256 18.63936 -7.610081 17.94482 -7.470878 18.04388 -8.146549 18.43834 -8.513522 18.34386 -7.824396 17.8975 -8.146549 18.43834 -7.824396 17.8975 -7.610081 17.94482 -8.513522 18.34386 -8.89719 18.19415 -8.022693 17.80441 -8.513522 18.34386 -8.022693 17.80441 -7.824396 17.8975 -8.89719 18.19415 -9.063598 17.91628 -8.104253 17.64674 -8.89719 18.19415 -8.104253 17.64674 -8.022693 17.80441 -9.063598 17.91628 -9.063173 17.60664 -8.123125 17.47869 -9.063598 17.91628 -8.123125 17.47869 -8.104253 17.64674 -9.063173 17.60664 -9.052699 17.31579 -8.129058 17.31579 -9.063173 17.60664 -8.129058 17.31579 -8.123125 17.47869 -9.052699 17.31579 -8.969077 17.03774 -8.062315 17.16116 -9.052699 17.31579 -8.062315 17.16116 -8.129058 17.31579 -8.969077 17.03774 -8.769031 16.79806 -7.939844 17.03103 -8.969077 17.03774 -7.939844 17.03103 -8.062315 17.16116 -8.769031 16.79806 -8.630936 16.55608 -7.881376 16.89014 -8.769031 16.79806 -7.881376 16.89014 -7.939844 17.03103 -8.630936 16.55608 -8.596918 16.23369 -7.870944 16.70393 -8.630936 16.55608 -7.870944 16.70393 -7.881376 16.89014 -8.596918 16.23369 -8.434133 15.92867 -7.765183 16.54407 -8.596918 16.23369 -7.765183 16.54407 -7.870944 16.70393 -8.434133 15.92867 -8.054086 15.80793 -7.547806 16.48484 -8.434133 15.92867 -7.547806 16.48484 -7.765183 16.54407 -8.054086 15.80793 -7.636191 15.81024 -7.323965 16.47243 -8.054086 15.80793 -7.323965 16.47243 -7.547806 16.48484 -7.636191 15.81024 -7.277793 15.77707 -7.125253 16.44486 -7.636191 15.81024 -7.125253 16.44486 -7.323965 16.47243 -7.277793 15.77707 -6.926314 15.74333 -6.926314 16.44139 -7.277793 15.77707 -6.926314 16.44139 -7.125253 16.44486 -6.926314 15.74333 -6.576342 15.78366 -6.733746 16.47275 -6.926314 15.74333 -6.733746 16.47275 -6.926314 16.44139 -6.576342 15.78366 -6.216437 15.81024 -6.528664 16.47243 -6.576342 15.78366 -6.528664 16.47243 -6.733746 16.47275 -6.216437 15.81024 -5.794207 15.80213 -6.286478 16.46031 -6.216437 15.81024 -6.286478 16.46031 -6.528664 16.47243 -5.794207 15.80213 -5.418495 15.92867 -6.087446 16.54407 -5.794207 15.80213 -6.087446 16.54407 -6.286478 16.46031 -5.418495 15.92867 -5.262353 16.23799 -6.00979 16.72213 -5.418495 15.92867 -6.00979 16.72213 -6.087446 16.54407 -5.262353 16.23799 -5.221693 16.55608 -5.971252 16.89014 -5.262353 16.23799 -5.971252 16.89014 -6.00979 16.72213 -5.221693 16.55608 -5.075449 16.79577 -5.87831 17.02134 -5.221693 16.55608 -5.87831 17.02134 -5.971252 16.89014 -5.075449 16.79577 -4.883552 17.03774 -5.790313 17.16116 -5.075449 16.79577 -5.790313 17.16116 -5.87831 17.02134 -4.883552 17.03774 -4.8086 17.31579 -5.760259 17.31579 -4.883552 17.03774 -5.760259 17.31579 -5.790313 17.16116 17.16116 4.030802 17.31579 4.07842 17.47869 4.126039 -5.729504 17.47869 -5.7139 17.65643 -5.829936 17.80441 -5.729504 17.47869 -5.829936 17.80441 -6.056337 17.87929 -5.87831 17.02134 -5.790313 17.16116 -5.729504 17.47869 -6.087446 16.54407 -6.00979 16.72213 -5.971252 16.89014 -5.971252 16.89014 -5.87831 17.02134 -5.729504 17.47869 -5.729504 17.47869 -6.056337 17.87929 -6.242547 17.94482 -6.242547 17.94482 -6.363407 18.06841 -6.513787 18.1907 -6.513787 18.1907 -6.713916 18.24563 -6.926314 18.26993 -6.926314 18.26993 -7.145084 18.27352 -7.338842 18.1907 -6.926314 18.26993 -7.338842 18.1907 -7.470878 18.04388 -6.242547 17.94482 -6.513787 18.1907 -6.926314 18.26993 -5.971252 16.89014 -5.729504 17.47869 -6.242547 17.94482 -6.286478 16.46031 -6.087446 16.54407 -5.971252 16.89014 -6.528664 16.47243 -6.286478 16.46031 -5.971252 16.89014 -5.971252 16.89014 -6.242547 17.94482 -6.926314 18.26993 -6.926314 18.26993 -7.470878 18.04388 -7.610081 17.94482 -7.610081 17.94482 -7.824396 17.8975 -8.022693 17.80441 -8.022693 17.80441 -8.104253 17.64674 -8.123125 17.47869 -8.123125 17.47869 -8.129058 17.31579 -8.062315 17.16116 -8.123125 17.47869 -8.062315 17.16116 -7.939844 17.03103 -7.610081 17.94482 -8.022693 17.80441 -8.123125 17.47869 -5.971252 16.89014 -6.926314 18.26993 -7.610081 17.94482 -6.733746 16.47275 -6.528664 16.47243 -5.971252 16.89014 -7.125253 16.44486 -6.926314 16.44139 -6.733746 16.47275 -7.765183 16.54407 -7.547806 16.48484 -7.323965 16.47243 -7.323965 16.47243 -7.125253 16.44486 -6.733746 16.47275 -6.733746 16.47275 -5.971252 16.89014 -7.610081 17.94482 -7.610081 17.94482 -8.123125 17.47869 -7.939844 17.03103 -7.881376 16.89014 -7.870944 16.70393 -7.765183 16.54407 -7.610081 17.94482 -7.939844 17.03103 -7.881376 16.89014 -7.323965 16.47243 -6.733746 16.47275 -7.610081 17.94482 -7.881376 16.89014 -7.765183 16.54407 -7.323965 16.47243 -7.610081 17.94482 -7.881376 16.89014 -7.323965 16.47243</float_array>
          <technique_common>
            <accessor source="#uv-array" count="2046" stride="2">
              <param name="S" type="float" />
              <param name="T" type="float" />
            </accessor>
          </technique_common>
        </source>
        <vertices id="vertices">
          <input semantic="POSITION" source="#positions" />
        </vertices>
        <triangles count="682" material="m0">
          <input semantic="VERTEX" source="#vertices" offset="0" />
          <input semantic="NORMAL" source="#normals" offset="1" />
          <input semantic="TEXCOORD" source="#uv" offset="2" set="0" />
          <p>0 0 0 1 0 1 37 0 2 0 1 3 37 1 4 36 1 5 1 2 6 2 2 7 38 2 8 1 3 9 38 3 10 37 3 11 2 4 12 3 4 13 39 4 14 2 5 15 39 5 16 38 5 17 3 6 18 4 6 19 40 6 20 3 7 21 40 7 22 39 7 23 4 8 24 5 8 25 41 8 26 4 9 27 41 9 28 40 9 29 5 10 30 6 10 31 42 10 32 5 11 33 42 11 34 41 11 35 6 12 36 7 12 37 43 12 38 6 13 39 43 13 40 42 13 41 7 14 42 8 14 43 44 14 44 7 15 45 44 15 46 43 15 47 8 16 48 9 16 49 45 16 50 8 17 51 45 17 52 44 17 53 9 18 54 10 18 55 46 18 56 9 19 57 46 19 58 45 19 59 10 20 60 11 20 61 47 20 62 10 21 63 47 21 64 46 21 65 11 22 66 12 22 67 48 22 68 11 23 69 48 23 70 47 23 71 12 24 72 13 24 73 49 24 74 12 25 75 49 25 76 48 25 77 13 26 78 14 26 79 50 26 80 13 27 81 50 27 82 49 27 83 14 28 84 15 28 85 51 28 86 14 29 87 51 29 88 50 29 89 15 30 90 16 30 91 52 30 92 15 31 93 52 31 94 51 31 95 16 32 96 17 32 97 53 32 98 16 33 99 53 33 100 52 33 101 17 34 102 18 34 103 54 34 104 17 35 105 54 35 106 53 35 107 18 36 108 19 36 109 55 36 110 18 37 111 55 37 112 54 37 113 19 38 114 20 38 115 56 38 116 19 39 117 56 39 118 55 39 119 20 40 120 21 40 121 57 40 122 20 41 123 57 41 124 56 41 125 21 42 126 22 42 127 58 42 128 21 43 129 58 43 130 57 43 131 22 44 132 23 44 133 59 44 134 22 45 135 59 45 136 58 45 137 23 46 138 24 46 139 60 46 140 23 47 141 60 47 142 59 47 143 24 48 144 25 48 145 61 48 146 24 49 147 61 49 148 60 49 149 25 50 150 26 50 151 62 50 152 25 51 153 62 51 154 61 51 155 26 52 156 27 52 157 63 52 158 26 53 159 63 53 160 62 53 161 27 54 162 28 54 163 64 54 164 27 55 165 64 55 166 63 55 167 28 56 168 29 56 169 65 56 170 28 57 171 65 57 172 64 57 173 29 58 174 30 58 175 66 58 176 29 59 177 66 59 178 65 59 179 30 60 180 31 60 181 67 60 182 30 61 183 67 61 184 66 61 185 31 62 186 32 62 187 68 62 188 31 63 189 68 63 190 67 63 191 32 64 192 33 64 193 69 64 194 32 65 195 69 65 196 68 65 197 33 66 198 34 66 199 70 66 200 33 67 201 70 67 202 69 67 203 34 68 204 35 68 205 71 68 206 34 69 207 71 69 208 70 69 209 35 70 210 0 70 211 36 70 212 35 71 213 36 71 214 71 71 215 36 72 216 37 72 217 73 72 218 36 73 219 73 73 220 72 73 221 37 74 222 38 74 223 74 74 224 37 75 225 74 75 226 73 75 227 38 76 228 39 76 229 75 76 230 38 77 231 75 77 232 74 77 233 39 78 234 40 78 235 76 78 236 39 79 237 76 79 238 75 79 239 40 80 240 41 80 241 77 80 242 40 81 243 77 81 244 76 81 245 41 82 246 42 82 247 78 82 248 41 83 249 78 83 250 77 83 251 42 84 252 43 84 253 79 84 254 42 85 255 79 85 256 78 85 257 43 86 258 44 86 259 80 86 260 43 87 261 80 87 262 79 87 263 44 88 264 45 88 265 81 88 266 44 89 267 81 89 268 80 89 269 45 90 270 46 90 271 82 90 272 45 91 273 82 91 274 81 91 275 46 92 276 47 92 277 83 92 278 46 93 279 83 93 280 82 93 281 47 94 282 48 94 283 84 94 284 47 95 285 84 95 286 83 95 287 48 96 288 49 96 289 85 96 290 48 97 291 85 97 292 84 97 293 49 98 294 50 98 295 86 98 296 49 99 297 86 99 298 85 99 299 50 100 300 51 100 301 87 100 302 50 101 303 87 101 304 86 101 305 51 102 306 52 102 307 88 102 308 51 103 309 88 103 310 87 103 311 52 104 312 53 104 313 89 104 314 52 105 315 89 105 316 88 105 317 53 106 318 54 106 319 90 106 320 53 107 321 90 107 322 89 107 323 54 108 324 55 108 325 91 108 326 54 109 327 91 109 328 90 109 329 55 110 330 56 110 331 92 110 332 55 111 333 92 111 334 91 111 335 56 112 336 57 112 337 93 112 338 56 113 339 93 113 340 92 113 341 57 114 342 58 114 343 94 114 344 57 115 345 94 115 346 93 115 347 58 116 348 59 116 349 95 116 350 58 117 351 95 117 352 94 117 353 59 118 354 60 118 355 96 118 356 59 119 357 96 119 358 95 119 359 60 120 360 61 120 361 97 120 362 60 121 363 97 121 364 96 121 365 61 122 366 62 122 367 98 122 368 61 123 369 98 123 370 97 123 371 62 124 372 63 124 373 99 124 374 62 125 375 99 125 376 98 125 377 63 126 378 64 126 379 100 126 380 63 127 381 100 127 382 99 127 383 64 128 384 65 128 385 101 128 386 64 129 387 101 129 388 100 129 389 65 130 390 66 130 391 102 130 392 65 131 393 102 131 394 101 131 395 66 132 396 67 132 397 103 132 398 66 133 399 103 133 400 102 133 401 67 134 402 68 134 403 104 134 404 67 135 405 104 135 406 103 135 407 68 136 408 69 136 409 105 136 410 68 137 411 105 137 412 104 137 413 69 138 414 70 138 415 106 138 416 69 139 417 106 139 418 105 139 419 70 140 420 71 140 421 107 140 422 70 141 423 107 141 424 106 141 425 71 142 426 36 142 427 72 142 428 71 143 429 72 143 430 107 143 431 72 144 432 73 144 433 109 144 434 72 145 435 109 145 436 108 145 437 73 146 438 74 146 439 110 146 440 73 147 441 110 147 442 109 147 443 74 148 444 75 148 445 111 148 446 74 149 447 111 149 448 110 149 449 75 150 450 76 150 451 112 150 452 75 151 453 112 151 454 111 151 455 76 152 456 77 152 457 113 152 458 76 153 459 113 153 460 112 153 461 77 154 462 78 154 463 114 154 464 77 155 465 114 155 466 113 155 467 78 156 468 79 156 469 115 156 470 78 157 471 115 157 472 114 157 473 79 158 474 80 158 475 116 158 476 79 159 477 116 159 478 115 159 479 80 160 480 81 160 481 117 160 482 80 161 483 117 161 484 116 161 485 81 162 486 82 162 487 118 162 488 81 163 489 118 163 490 117 163 491 82 164 492 83 164 493 119 164 494 82 165 495 119 165 496 118 165 497 83 166 498 84 166 499 120 166 500 83 167 501 120 167 502 119 167 503 84 168 504 85 168 505 121 168 506 84 169 507 121 169 508 120 169 509 85 170 510 86 170 511 122 170 512 85 171 513 122 171 514 121 171 515 86 172 516 87 172 517 123 172 518 86 173 519 123 173 520 122 173 521 87 174 522 88 174 523 124 174 524 87 175 525 124 175 526 123 175 527 88 176 528 89 176 529 125 176 530 88 177 531 125 177 532 124 177 533 89 178 534 90 178 535 126 178 536 89 179 537 126 179 538 125 179 539 90 180 540 91 180 541 127 180 542 90 181 543 127 181 544 126 181 545 91 182 546 92 182 547 128 182 548 91 183 549 128 183 550 127 183 551 92 184 552 93 184 553 129 184 554 92 185 555 129 185 556 128 185 557 93 186 558 94 186 559 130 186 560 93 187 561 130 187 562 129 187 563 94 188 564 95 188 565 131 188 566 94 189 567 131 189 568 130 189 569 95 190 570 96 190 571 132 190 572 95 191 573 132 191 574 131 191 575 96 192 576 97 192 577 133 192 578 96 193 579 133 193 580 132 193 581 97 194 582 98 194 583 134 194 584 97 195 585 134 195 586 133 195 587 98 196 588 99 196 589 135 196 590 98 197 591 135 197 592 134 197 593 99 198 594 100 198 595 136 198 596 99 199 597 136 199 598 135 199 599 100 200 600 101 200 601 137 200 602 100 201 603 137 201 604 136 201 605 101 202 606 102 202 607 138 202 608 101 203 609 138 203 610 137 203 611 102 204 612 103 204 613 139 204 614 102 205 615 139 205 616 138 205 617 103 206 618 104 206 619 140 206 620 103 207 621 140 207 622 139 207 623 104 208 624 105 208 625 141 208 626 104 209 627 141 209 628 140 209 629 105 210 630 106 210 631 142 210 632 105 211 633 142 211 634 141 211 635 106 212 636 107 212 637 143 212 638 106 213 639 143 213 640 142 213 641 107 214 642 72 214 643 108 214 644 107 215 645 108 215 646 143 215 647 108 216 648 109 216 649 145 216 650 108 217 651 145 217 652 144 217 653 109 218 654 110 218 655 146 218 656 109 219 657 146 219 658 145 219 659 110 220 660 111 220 661 147 220 662 110 221 663 147 221 664 146 221 665 111 222 666 112 222 667 148 222 668 111 223 669 148 223 670 147 223 671 112 224 672 113 224 673 149 224 674 112 225 675 149 225 676 148 225 677 113 226 678 114 226 679 150 226 680 113 227 681 150 227 682 149 227 683 114 228 684 115 228 685 151 228 686 114 229 687 151 229 688 150 229 689 115 230 690 116 230 691 152 230 692 115 231 693 152 231 694 151 231 695 116 232 696 117 232 697 153 232 698 116 233 699 153 233 700 152 233 701 117 234 702 118 234 703 154 234 704 117 235 705 154 235 706 153 235 707 118 236 708 119 236 709 155 236 710 118 237 711 155 237 712 154 237 713 119 238 714 120 238 715 156 238 716 119 239 717 156 239 718 155 239 719 120 240 720 121 240 721 157 240 722 120 241 723 157 241 724 156 241 725 121 242 726 122 242 727 158 242 728 121 243 729 158 243 730 157 243 731 122 244 732 123 244 733 159 244 734 122 245 735 159 245 736 158 245 737 123 246 738 124 246 739 160 246 740 123 247 741 160 247 742 159 247 743 124 248 744 125 248 745 161 248 746 124 249 747 161 249 748 160 249 749 125 250 750 126 250 751 162 250 752 125 251 753 162 251 754 161 251 755 126 252 756 127 252 757 163 252 758 126 253 759 163 253 760 162 253 761 127 254 762 128 254 763 164 254 764 127 255 765 164 255 766 163 255 767 128 256 768 129 256 769 165 256 770 128 257 771 165 257 772 164 257 773 129 258 774 130 258 775 166 258 776 129 259 777 166 259 778 165 259 779 130 260 780 131 260 781 167 260 782 130 261 783 167 261 784 166 261 785 131 262 786 132 262 787 168 262 788 131 263 789 168 263 790 167 263 791 132 264 792 133 264 793 169 264 794 132 265 795 169 265 796 168 265 797 133 266 798 134 266 799 170 266 800 133 267 801 170 267 802 169 267 803 134 268 804 135 268 805 171 268 806 134 269 807 171 269 808 170 269 809 135 270 810 136 270 811 172 270 812 135 271 813 172 271 814 171 271 815 136 272 816 137 272 817 173 272 818 136 273 819 173 273 820 172 273 821 137 274 822 138 274 823 174 274 824 137 275 825 174 275 826 173 275 827 138 276 828 139 276 829 175 276 830 138 277 831 175 277 832 174 277 833 139 278 834 140 278 835 176 278 836 139 279 837 176 279 838 175 279 839 140 280 840 141 280 841 177 280 842 140 281 843 177 281 844 176 281 845 141 282 846 142 282 847 178 282 848 141 283 849 178 283 850 177 283 851 142 284 852 143 284 853 179 284 854 142 285 855 179 285 856 178 285 857 143 286 858 108 286 859 144 286 860 143 287 861 144 287 862 179 287 863 144 288 864 145 288 865 181 288 866 144 289 867 181 289 868 180 289 869 145 290 870 146 290 871 182 290 872 145 291 873 182 291 874 181 291 875 146 292 876 147 292 877 183 292 878 146 293 879 183 293 880 182 293 881 147 294 882 148 294 883 184 294 884 147 295 885 184 295 886 183 295 887 148 296 888 149 296 889 185 296 890 148 297 891 185 297 892 184 297 893 149 298 894 150 298 895 186 298 896 149 299 897 186 299 898 185 299 899 150 300 900 151 300 901 187 300 902 150 301 903 187 301 904 186 301 905 151 302 906 152 302 907 188 302 908 151 303 909 188 303 910 187 303 911 152 304 912 153 304 913 189 304 914 152 305 915 189 305 916 188 305 917 153 306 918 154 306 919 190 306 920 153 307 921 190 307 922 189 307 923 154 308 924 155 308 925 191 308 926 154 309 927 191 309 928 190 309 929 155 310 930 156 310 931 192 310 932 155 311 933 192 311 934 191 311 935 156 312 936 157 312 937 193 312 938 156 313 939 193 313 940 192 313 941 157 314 942 158 314 943 194 314 944 157 315 945 194 315 946 193 315 947 158 316 948 159 316 949 195 316 950 158 317 951 195 317 952 194 317 953 159 318 954 160 318 955 196 318 956 159 319 957 196 319 958 195 319 959 160 320 960 161 320 961 197 320 962 160 321 963 197 321 964 196 321 965 161 322 966 162 322 967 198 322 968 161 323 969 198 323 970 197 323 971 162 324 972 163 324 973 199 324 974 162 325 975 199 325 976 198 325 977 163 326 978 164 326 979 200 326 980 163 327 981 200 327 982 199 327 983 164 328 984 165 328 985 201 328 986 164 329 987 201 329 988 200 329 989 165 330 990 166 330 991 202 330 992 165 331 993 202 331 994 201 331 995 166 332 996 167 332 997 203 332 998 166 333 999 203 333 1000 202 333 1001 167 334 1002 168 334 1003 204 334 1004 167 335 1005 204 335 1006 203 335 1007 168 336 1008 169 336 1009 205 336 1010 168 337 1011 205 337 1012 204 337 1013 169 338 1014 170 338 1015 206 338 1016 169 339 1017 206 339 1018 205 339 1019 170 340 1020 171 340 1021 207 340 1022 170 341 1023 207 341 1024 206 341 1025 171 342 1026 172 342 1027 208 342 1028 171 343 1029 208 343 1030 207 343 1031 172 344 1032 173 344 1033 209 344 1034 172 345 1035 209 345 1036 208 345 1037 173 346 1038 174 346 1039 210 346 1040 173 347 1041 210 347 1042 209 347 1043 174 348 1044 175 348 1045 211 348 1046 174 349 1047 211 349 1048 210 349 1049 175 350 1050 176 350 1051 212 350 1052 175 351 1053 212 351 1054 211 351 1055 176 352 1056 177 352 1057 213 352 1058 176 353 1059 213 353 1060 212 353 1061 177 354 1062 178 354 1063 214 354 1064 177 355 1065 214 355 1066 213 355 1067 178 356 1068 179 356 1069 215 356 1070 178 357 1071 215 357 1072 214 357 1073 179 358 1074 144 358 1075 180 358 1076 179 359 1077 180 359 1078 215 359 1079 180 360 1080 181 360 1081 217 360 1082 180 361 1083 217 361 1084 216 361 1085 181 362 1086 182 362 1087 218 362 1088 181 363 1089 218 363 1090 217 363 1091 182 364 1092 183 364 1093 219 364 1094 182 365 1095 219 365 1096 218 365 1097 183 366 1098 184 366 1099 220 366 1100 183 367 1101 220 367 1102 219 367 1103 184 368 1104 185 368 1105 221 368 1106 184 369 1107 221 369 1108 220 369 1109 185 370 1110 186 370 1111 222 370 1112 185 371 1113 222 371 1114 221 371 1115 186 372 1116 187 372 1117 223 372 1118 186 373 1119 223 373 1120 222 373 1121 187 374 1122 188 374 1123 224 374 1124 187 375 1125 224 375 1126 223 375 1127 188 376 1128 189 376 1129 225 376 1130 188 377 1131 225 377 1132 224 377 1133 189 378 1134 190 378 1135 226 378 1136 189 379 1137 226 379 1138 225 379 1139 190 380 1140 191 380 1141 227 380 1142 190 381 1143 227 381 1144 226 381 1145 191 382 1146 192 382 1147 228 382 1148 191 383 1149 228 383 1150 227 383 1151 192 384 1152 193 384 1153 229 384 1154 192 385 1155 229 385 1156 228 385 1157 193 386 1158 194 386 1159 230 386 1160 193 387 1161 230 387 1162 229 387 1163 194 388 1164 195 388 1165 231 388 1166 194 389 1167 231 389 1168 230 389 1169 195 390 1170 196 390 1171 232 390 1172 195 391 1173 232 391 1174 231 391 1175 196 392 1176 197 392 1177 233 392 1178 196 393 1179 233 393 1180 232 393 1181 197 394 1182 198 394 1183 234 394 1184 197 395 1185 234 395 1186 233 395 1187 198 396 1188 199 396 1189 235 396 1190 198 397 1191 235 397 1192 234 397 1193 199 398 1194 200 398 1195 236 398 1196 199 399 1197 236 399 1198 235 399 1199 200 400 1200 201 400 1201 237 400 1202 200 401 1203 237 401 1204 236 401 1205 201 402 1206 202 402 1207 238 402 1208 201 403 1209 238 403 1210 237 403 1211 202 404 1212 203 404 1213 239 404 1214 202 405 1215 239 405 1216 238 405 1217 203 406 1218 204 406 1219 240 406 1220 203 407 1221 240 407 1222 239 407 1223 204 408 1224 205 408 1225 241 408 1226 204 409 1227 241 409 1228 240 409 1229 205 410 1230 206 410 1231 242 410 1232 205 411 1233 242 411 1234 241 411 1235 206 412 1236 207 412 1237 243 412 1238 206 413 1239 243 413 1240 242 413 1241 207 414 1242 208 414 1243 244 414 1244 207 415 1245 244 415 1246 243 415 1247 208 416 1248 209 416 1249 245 416 1250 208 417 1251 245 417 1252 244 417 1253 209 418 1254 210 418 1255 246 418 1256 209 419 1257 246 419 1258 245 419 1259 210 420 1260 211 420 1261 247 420 1262 210 421 1263 247 421 1264 246 421 1265 211 422 1266 212 422 1267 248 422 1268 211 423 1269 248 423 1270 247 423 1271 212 424 1272 213 424 1273 249 424 1274 212 425 1275 249 425 1276 248 425 1277 213 426 1278 214 426 1279 250 426 1280 213 427 1281 250 427 1282 249 427 1283 214 428 1284 215 428 1285 251 428 1286 214 429 1287 251 429 1288 250 429 1289 215 430 1290 180 430 1291 216 430 1292 215 431 1293 216 431 1294 251 431 1295 216 432 1296 217 432 1297 253 432 1298 216 433 1299 253 433 1300 252 433 1301 217 434 1302 218 434 1303 254 434 1304 217 435 1305 254 435 1306 253 435 1307 218 436 1308 219 436 1309 255 436 1310 218 437 1311 255 437 1312 254 437 1313 219 438 1314 220 438 1315 256 438 1316 219 439 1317 256 439 1318 255 439 1319 220 440 1320 221 440 1321 257 440 1322 220 441 1323 257 441 1324 256 441 1325 221 442 1326 222 442 1327 258 442 1328 221 443 1329 258 443 1330 257 443 1331 222 444 1332 223 444 1333 259 444 1334 222 445 1335 259 445 1336 258 445 1337 223 446 1338 224 446 1339 260 446 1340 223 447 1341 260 447 1342 259 447 1343 224 448 1344 225 448 1345 261 448 1346 224 449 1347 261 449 1348 260 449 1349 225 450 1350 226 450 1351 262 450 1352 225 451 1353 262 451 1354 261 451 1355 226 452 1356 227 452 1357 263 452 1358 226 453 1359 263 453 1360 262 453 1361 227 454 1362 228 454 1363 264 454 1364 227 455 1365 264 455 1366 263 455 1367 228 456 1368 229 456 1369 265 456 1370 228 457 1371 265 457 1372 264 457 1373 229 458 1374 230 458 1375 266 458 1376 229 459 1377 266 459 1378 265 459 1379 230 460 1380 231 460 1381 267 460 1382 230 461 1383 267 461 1384 266 461 1385 231 462 1386 232 462 1387 268 462 1388 231 463 1389 268 463 1390 267 463 1391 232 464 1392 233 464 1393 269 464 1394 232 465 1395 269 465 1396 268 465 1397 233 466 1398 234 466 1399 270 466 1400 233 467 1401 270 467 1402 269 467 1403 234 468 1404 235 468 1405 271 468 1406 234 469 1407 271 469 1408 270 469 1409 235 470 1410 236 470 1411 272 470 1412 235 471 1413 272 471 1414 271 471 1415 236 472 1416 237 472 1417 273 472 1418 236 473 1419 273 473 1420 272 473 1421 237 474 1422 238 474 1423 274 474 1424 237 475 1425 274 475 1426 273 475 1427 238 476 1428 239 476 1429 275 476 1430 238 477 1431 275 477 1432 274 477 1433 239 478 1434 240 478 1435 276 478 1436 239 479 1437 276 479 1438 275 479 1439 240 480 1440 241 480 1441 277 480 1442 240 481 1443 277 481 1444 276 481 1445 241 482 1446 242 482 1447 278 482 1448 241 483 1449 278 483 1450 277 483 1451 242 484 1452 243 484 1453 279 484 1454 242 485 1455 279 485 1456 278 485 1457 243 486 1458 244 486 1459 280 486 1460 243 487 1461 280 487 1462 279 487 1463 244 488 1464 245 488 1465 281 488 1466 244 489 1467 281 489 1468 280 489 1469 245 490 1470 246 490 1471 282 490 1472 245 491 1473 282 491 1474 281 491 1475 246 492 1476 247 492 1477 283 492 1478 246 493 1479 283 493 1480 282 493 1481 247 494 1482 248 494 1483 284 494 1484 247 495 1485 284 495 1486 283 495 1487 248 496 1488 249 496 1489 285 496 1490 248 497 1491 285 497 1492 284 497 1493 249 498 1494 250 498 1495 286 498 1496 249 499 1497 286 499 1498 285 499 1499 250 500 1500 251 500 1501 287 500 1502 250 501 1503 287 501 1504 286 501 1505 251 502 1506 216 502 1507 252 502 1508 251 503 1509 252 503 1510 287 503 1511 252 504 1512 253 504 1513 289 504 1514 252 505 1515 289 505 1516 288 505 1517 253 506 1518 254 506 1519 290 506 1520 253 507 1521 290 507 1522 289 507 1523 254 508 1524 255 508 1525 291 508 1526 254 509 1527 291 509 1528 290 509 1529 255 510 1530 256 510 1531 292 510 1532 255 511 1533 292 511 1534 291 511 1535 256 512 1536 257 512 1537 293 512 1538 256 513 1539 293 513 1540 292 513 1541 257 514 1542 258 514 1543 294 514 1544 257 515 1545 294 515 1546 293 515 1547 258 516 1548 259 516 1549 295 516 1550 258 517 1551 295 517 1552 294 517 1553 259 518 1554 260 518 1555 296 518 1556 259 519 1557 296 519 1558 295 519 1559 260 520 1560 261 520 1561 297 520 1562 260 521 1563 297 521 1564 296 521 1565 261 522 1566 262 522 1567 298 522 1568 261 523 1569 298 523 1570 297 523 1571 262 524 1572 263 524 1573 299 524 1574 262 525 1575 299 525 1576 298 525 1577 263 526 1578 264 526 1579 300 526 1580 263 527 1581 300 527 1582 299 527 1583 264 528 1584 265 528 1585 301 528 1586 264 529 1587 301 529 1588 300 529 1589 265 530 1590 266 530 1591 302 530 1592 265 531 1593 302 531 1594 301 531 1595 266 532 1596 267 532 1597 303 532 1598 266 533 1599 303 533 1600 302 533 1601 267 534 1602 268 534 1603 304 534 1604 267 535 1605 304 535 1606 303 535 1607 268 536 1608 269 536 1609 305 536 1610 268 537 1611 305 537 1612 304 537 1613 269 538 1614 270 538 1615 306 538 1616 269 539 1617 306 539 1618 305 539 1619 270 540 1620 271 540 1621 307 540 1622 270 541 1623 307 541 1624 306 541 1625 271 542 1626 272 542 1627 308 542 1628 271 543 1629 308 543 1630 307 543 1631 272 544 1632 273 544 1633 309 544 1634 272 545 1635 309 545 1636 308 545 1637 273 546 1638 274 546 1639 310 546 1640 273 547 1641 310 547 1642 309 547 1643 274 548 1644 275 548 1645 311 548 1646 274 549 1647 311 549 1648 310 549 1649 275 550 1650 276 550 1651 312 550 1652 275 551 1653 312 551 1654 311 551 1655 276 552 1656 277 552 1657 313 552 1658 276 553 1659 313 553 1660 312 553 1661 277 554 1662 278 554 1663 314 554 1664 277 555 1665 314 555 1666 313 555 1667 278 556 1668 279 556 1669 315 556 1670 278 557 1671 315 557 1672 314 557 1673 279 558 1674 280 558 1675 316 558 1676 279 559 1677 316 559 1678 315 559 1679 280 560 1680 281 560 1681 317 560 1682 280 561 1683 317 561 1684 316 561 1685 281 562 1686 282 562 1687 318 562 1688 281 563 1689 318 563 1690 317 563 1691 282 564 1692 283 564 1693 319 564 1694 282 565 1695 319 565 1696 318 565 1697 283 566 1698 284 566 1699 320 566 1700 283 567 1701 320 567 1702 319 567 1703 284 568 1704 285 568 1705 321 568 1706 284 569 1707 321 569 1708 320 569 1709 285 570 1710 286 570 1711 322 570 1712 285 571 1713 322 571 1714 321 571 1715 286 572 1716 287 572 1717 323 572 1718 286 573 1719 323 573 1720 322 573 1721 287 574 1722 252 574 1723 288 574 1724 287 575 1725 288 575 1726 323 575 1727 288 576 1728 289 576 1729 325 576 1730 288 577 1731 325 577 1732 324 577 1733 289 578 1734 290 578 1735 326 578 1736 289 579 1737 326 579 1738 325 579 1739 290 580 1740 291 580 1741 327 580 1742 290 581 1743 327 581 1744 326 581 1745 291 582 1746 292 582 1747 328 582 1748 291 583 1749 328 583 1750 327 583 1751 292 584 1752 293 584 1753 329 584 1754 292 585 1755 329 585 1756 328 585 1757 293 586 1758 294 586 1759 330 586 1760 293 587 1761 330 587 1762 329 587 1763 294 588 1764 295 588 1765 331 588 1766 294 589 1767 331 589 1768 330 589 1769 295 590 1770 296 590 1771 332 590 1772 295 591 1773 332 591 1774 331 591 1775 296 592 1776 297 592 1777 333 592 1778 296 593 1779 333 593 1780 332 593 1781 297 594 1782 298 594 1783 334 594 1784 297 595 1785 334 595 1786 333 595 1787 298 596 1788 299 596 1789 335 596 1790 298 597 1791 335 597 1792 334 597 1793 299 598 1794 300 598 1795 336 598 1796 299 599 1797 336 599 1798 335 599 1799 300 600 1800 301 600 1801 337 600 1802 300 601 1803 337 601 1804 336 601 1805 301 602 1806 302 602 1807 338 602 1808 301 603 1809 338 603 1810 337 603 1811 302 604 1812 303 604 1813 339 604 1814 302 605 1815 339 605 1816 338 605 1817 303 606 1818 304 606 1819 340 606 1820 303 607 1821 340 607 1822 339 607 1823 304 608 1824 305 608 1825 341 608 1826 304 609 1827 341 609 1828 340 609 1829 305 610 1830 306 610 1831 342 610 1832 305 611 1833 342 611 1834 341 611 1835 306 612 1836 307 612 1837 343 612 1838 306 613 1839 343 613 1840 342 613 1841 307 614 1842 308 614 1843 344 614 1844 307 615 1845 344 615 1846 343 615 1847 308 616 1848 309 616 1849 345 616 1850 308 617 1851 345 617 1852 344 617 1853 309 618 1854 310 618 1855 346 618 1856 309 619 1857 346 619 1858 345 619 1859 310 620 1860 311 620 1861 347 620 1862 310 621 1863 347 621 1864 346 621 1865 311 622 1866 312 622 1867 348 622 1868 311 623 1869 348 623 1870 347 623 1871 312 624 1872 313 624 1873 349 624 1874 312 625 1875 349 625 1876 348 625 1877 313 626 1878 314 626 1879 350 626 1880 313 627 1881 350 627 1882 349 627 1883 314 628 1884 315 628 1885 351 628 1886 314 629 1887 351 629 1888 350 629 1889 315 630 1890 316 630 1891 352 630 1892 315 631 1893 352 631 1894 351 631 1895 316 632 1896 317 632 1897 353 632 1898 316 633 1899 353 633 1900 352 633 1901 317 634 1902 318 634 1903 354 634 1904 317 635 1905 354 635 1906 353 635 1907 318 636 1908 319 636 1909 355 636 1910 318 637 1911 355 637 1912 354 637 1913 319 638 1914 320 638 1915 356 638 1916 319 639 1917 356 639 1918 355 639 1919 320 640 1920 321 640 1921 357 640 1922 320 641 1923 357 641 1924 356 641 1925 321 642 1926 322 642 1927 358 642 1928 321 643 1929 358 643 1930 357 643 1931 322 644 1932 323 644 1933 359 644 1934 322 645 1935 359 645 1936 358 645 1937 323 646 1938 288 646 1939 324 646 1940 323 647 1941 324 647 1942 359 647 1943 359 648 1944 324 648 1945 325 648 1946 325 649 1947 326 649 1948 327 649 1949 325 650 1950 327 650 1951 328 650 1952 358 651 1953 359 651 1954 325 651 1955 355 652 1956 356 652 1957 357 652 1958 357 653 1959 358 653 1960 325 653 1961 325 654 1962 328 654 1963 329 654 1964 329 655 1965 330 655 1966 331 655 1967 331 656 1968 332 656 1969 333 656 1970 333 657 1971 334 657 1972 335 657 1973 333 658 1974 335 658 1975 336 658 1976 329 659 1977 331 659 1978 333 659 1979 357 660 1980 325 660 1981 329 660 1982 354 661 1983 355 661 1984 357 661 1985 353 662 1986 354 662 1987 357 662 1988 357 663 1989 329 663 1990 333 663 1991 333 664 1992 336 664 1993 337 664 1994 337 665 1995 338 665 1996 339 665 1997 339 666 1998 340 666 1999 341 666 2000 341 667 2001 342 667 2002 343 667 2003 341 668 2004 343 668 2005 344 668 2006 337 669 2007 339 669 2008 341 669 2009 357 670 2010 333 670 2011 337 670 2012 352 671 2013 353 671 2014 357 671 2015 350 672 2016 351 672 2017 352 672 2018 347 673 2019 348 673 2020 349 673 2021 349 674 2022 350 674 2023 352 674 2024 352 675 2025 357 675 2026 337 675 2027 337 676 2028 341 676 2029 344 676 2030 345 677 2031 346 677 2032 347 677 2033 337 678 2034 344 678 2035 345 678 2036 349 679 2037 352 679 2038 337 679 2039 345 680 2040 347 680 2041 349 680 2042 337 681 2043 345 681 2044 349 681 2045</p>
        </triangles>
      </mesh>
    </geometry>
  </library_geometries>
  <library_visual_scenes>
    <visual_scene id="Scene">
      <node id="Node" type="NODE">
        <instance_geometry url="#geometry">
          <bind_material>
            <technique_common>
              <instance_material symbol="m0" target="#m0">
                <bind_vertex_input semantic="UVSET0" input_semantic="TEXCOORD" input_set="0" />
              </instance_material>
            </technique_common>
          </bind_material>
        </instance_geometry>
      </node>
    </visual_scene>
  </library_visual_scenes>
  <scene>
    <instance_visual_scene url="#Scene" />
  </scene>
</COLLADA>