<?xml version='1.0' encoding='utf-8'?>
<COLLADA xmlns="http://www.collada.org/2005/11/COLLADASchema" version="1.4.1">
  <asset>
    <created>2026-09-08T00:00:00Z</created>
    <modified>2026-09-08T00:00:00Z</modified>
    <unit name="meter" meter="1" />
    <up_axis>Z_UP</up_axis>
  </asset>
  <library_images>
    <image id="img0">
      <init_from>../materials/textures/sandstone.png</init_from>
    </image>
  </library_images>
  <library_effects>
    <effect id="e0">
      <profile_COMMON>
        <newparam sid="surf0">
          <surface type="2D">
            <init_from>img0</init_from>
          </surface>
        </newparam>
        <newparam sid="samp0">
          <sampler2D>
            <source>surf0</source>
            <wrap_s>WRAP</wrap_s>
            <wrap_t>WRAP</wrap_t>
          </sampler2D>
        </newparam>
        <technique sid="common">
          <phong>
            <ambient>
              <color>0.2205 0.1665 0.108 1</color>
            </ambient>
            <diffuse>
              <texture texture="samp0" texcoord="UVSET0" />
            </diffuse>
            <specular>
              <color>0.02 0.02 0.02 1</color>
            </specular>
            <shininess>
              <float>8</float>
            </shininess>
          </phong>
        </technique>
      </profile_COMMON>
    </effect>
  </library_effects>
  <library_materials>
    <material id="m0" name="m0">
      <instance_effect url="#e0" />
    </material>
  </library_materials>
  <library_geometries>
    <geometry id="geometry" name="2005_sandstone_talus_00">
      <mesh>
        <source id="positions">
          <float_array id="positions-array" count="36">-27.42599 39.6896 1.238908 -28.0125 39.75434 1.345395 -27.4653 40.22332 1.345395 -26.86377 39.95471 1.345395 -27.03922 39.31972 1.345395 -27.74917 39.1959 1.345395 -27.81277 40.05947 1.517696 -27.10282 40.1833 1.517696 -26.83948 39.62485 1.517696 -27.38668 39.15588 1.517696 -27.98821 39.42449 1.517696 -27.42599 39.6896 1.624183</float_array>
          <technique_common>
            <accessor source="#positions-array" count="12" stride="3">
              <param name="X" type="float" />
              <param name="Y" type="float" />
              <param name="Z" type="float" />
            </accessor>
          </technique_common>
        </source>
        <source id="normals">
          <float_array id="normals-array" count="60">-0.1561445 0.1821897 -0.9707862 -0.1873757 -0.08835563 -0.9783065 0.08985787 0.2012319 -0.9754134 0.2124237 -0.05869325 -0.9754134 0.04122794 -0.2363778 -0.9707862 -0.7448084 -0.3512089 -0.5673736 -0.560401 0.6538771 -0.5083261 0.3425297 0.7670769 -0.5424633 0.8097389 -0.2237331 -0.5424633 0.1479667 -0.8483575 -0.5083261 -0.8097389 0.2237331 0.5424633 -0.1479667 0.8483575 0.5083261 0.7448084 0.3512089 0.5673736 0.560401 -0.6538771 0.5083261 -0.3425297 -0.7670769 0.5424633 -0.2124237 0.05869325 0.9754134 -0.04122794 0.2363778 0.9707862 0.1873757 0.08835563 0.9783065 0.1561445 -0.1821897 0.9707862 -0.08985787 -0.2012319 0.9754134</float_array>
          <technique_common>
            <accessor source="#normals-array" count="20" stride="3">
              <param name="X" type="float" />
              <param name="Y" type="float" />
              <param name="Z" type="float" />
            </accessor>
          </technique_common>
        </source>
        <source id="uv">
          <float_array id="uv-array" count="120">-10.9704 15.87584 -11.205 15.90174 -10.98612 16.08933 -11.205 15.90174 -10.9704 15.87584 -11.09967 15.67836 -10.9704 15.87584 -10.98612 16.08933 -10.74551 15.98188 -10.9704 15.87584 -10.74551 15.98188 -10.81569 15.72789 -10.9704 15.87584 -10.81569 15.72789 -11.09967 15.67836 15.90174 0.5381582 15.67836 0.5381582 15.76979 0.6070784 -10.98612 0.5381582 -11.205 0.5381582 -11.12511 0.6070784 -10.74551 0.5381582 -10.98612 0.5381582 -10.84113 0.6070784 15.72789 0.5381582 15.98188 0.5381582 15.84994 0.6070784 -11.09967 0.5381582 -10.81569 0.5381582 -10.95467 0.6070784 15.90174 0.5381582 15.76979 0.6070784 16.02379 0.6070784 -10.98612 0.5381582 -11.12511 0.6070784 -10.84113 0.6070784 15.98188 0.5381582 16.07332 0.6070784 15.84994 0.6070784 -10.81569 0.5381582 -10.73579 0.6070784 -10.95467 0.6070784 -11.09967 0.5381582 -10.95467 0.6070784 -11.19529 0.6070784 -11.12511 16.02379 -11.19529 15.76979 -10.9704 15.87584 -10.84113 16.07332 -11.12511 16.02379 -10.9704 15.87584 -10.73579 15.84994 -10.84113 16.07332 -10.9704 15.87584 -10.95467 15.66235 -10.73579 15.84994 -10.9704 15.87584 -11.19529 15.76979 -10.95467 15.66235 -10.9704 15.87584</float_array>
          <technique_common>
            <accessor source="#uv-array" count="60" stride="2">
              <param name="S" type="float" />
              <param name="T" type="float" />
            </accessor>
          </technique_common>
        </source>
        <vertices id="vertices">
          <input semantic="POSITION" source="#positions" />
        </vertices>
        <triangles count="20" material="m0">
          <input semantic="VERTEX" source="#vertices" offset="0" />
          <input semantic="NORMAL" source="#normals" offset="1" />
          <input semantic="TEXCOORD" source="#uv" offset="2" set="0" />
          <p>0 0 0 1 0 1 2 0 2 1 1 3 0 1 4 5 1 5 0 2 6 2 2 7 3 2 8 0 3 9 3 3 10 4 3 11 0 4 12 4 4 13 5 4 14 1 5 15 5 5 16 10 5 17 2 6 18 1 6 19 6 6 20 3 7 21 2 7 22 7 7 23 4 8 24 3 8 25 8 8 26 5 9 27 4 9 28 9 9 29 1 10 30 10 10 31 6 10 32 2 11 33 6 11 34 7 11 35 3 12 36 7 12 37 8 12 38 4 13 39 8 13 40 9 13 41 5 14 42 9 14 43 10 14 44 6 15 45 10 15 46 11 15 47 7 16 48 6 16 49 11 16 50 8 17 51 7 17 52 11 17 53 9 18 54 8 18 55 11 18 56 10 19 57 9 19 58 11 19 59</p>
        </triangles>
      </mesh>
    </geometry>
  </library_geometries>
  <library_visual_scenes>
    <visual_scene id="Scene">
      <node id="Node" type="NODE">
        <instance_geometry url="#geometry">
          <bind_material>
            <technique_common>
              <instance_material symbol="m0" target="#m0">
                <bind_vertex_input semantic="UVSET0" input_semantic="TEXCOORD" input_set="0" />
              </instance_material>
            </technique_common>
          </bind_material>
        </instance_geometry>
      </node>
    </visual_scene>
  </library_visual_scenes>
  <scene>
    <instance_visual_scene url="#Scene" />
  </scene>
</COLLADA>