<?xml version='1.0' encoding='utf-8'?>
<COLLADA xmlns="http://www.collada.org/2005/11/COLLADASchema" version="1.4.1">
  <asset>
    <created>2026-09-08T00:00:00Z</created>
    <modified>2026-09-08T00:00:00Z</modified>
    <unit name="meter" meter="1" />
    <up_axis>Z_UP</up_axis>
  </asset>
  <library_images>
    <image id="img0">
      <init_from>../materials/textures/sandstone.png</init_from>
    </image>
  </library_images>
  <library_effects>
    <effect id="e0">
      <profile_COMMON>
        <newparam sid="surf0">
          <surface type="2D">
            <init_from>img0</init_from>
          </surface>
        </newparam>
        <newparam sid="samp0">
          <sampler2D>
            <source>surf0</source>
            <wrap_s>WRAP</wrap_s>
            <wrap_t>WRAP</wrap_t>
          </sampler2D>
        </newparam>
        <technique sid="common">
          <phong>
            <ambient>
              <color>0.2205 0.1665 0.108 1</color>
            </ambient>
            <diffuse>
              <texture texture="samp0" texcoord="UVSET0" />
            </diffuse>
            <specular>
              <color>0.02 0.02 0.02 1</color>
            </specular>
            <shininess>
              <float>8</float>
            </shininess>
          </phong>
        </technique>
      </profile_COMMON>
    </effect>
  </library_effects>
  <library_materials>
    <material id="m0" name="m0">
      <instance_effect url="#e0" />
    </material>
  </library_materials>
  <library_geometries>
    <geometry id="geometry" name="2010_sandstone_talus_05">
      <mesh>
        <source id="positions">
          <float_array id="positions-array" count="36">-8.070219 36.36 4.606505 -7.777882 35.77545 4.700285 -8.476256 36.28669 4.700285 -8.613505 36.89925 4.700285 -7.999943 36.76657 4.700285 -7.483507 36.07203 4.700285 -8.140496 35.95343 4.852026 -8.656931 36.64797 4.852026 -8.362556 36.94455 4.852026 -7.664182 36.43331 4.852026 -7.526933 35.82075 4.852026 -8.070219 36.36 4.945806</float_array>
          <technique_common>
            <accessor source="#positions-array" count="12" stride="3">
              <param name="X" type="float" />
              <param name="Y" type="float" />
              <param name="Z" type="float" />
            </accessor>
          </technique_common>
        </source>
        <source id="normals">
          <float_array id="normals-array" count="60">-0.1767799 -0.241488 -0.9541658 0.106268 -0.1054782 -0.9887272 -0.216455 -0.04849898 -0.9750872 0.04688299 0.2168107 -0.9750872 0.2401626 0.1785764 -0.9541658 0.5111114 -0.5073129 -0.693829 -0.5355811 -0.7316239 -0.4217574 -0.8213984 -0.1840428 -0.5398453 0.1779105 0.8227484 -0.5398453 0.7276084 0.5410238 -0.4217574 -0.1779105 -0.8227484 0.5398453 -0.7276084 -0.5410238 0.4217574 -0.5111114 0.5073129 0.693829 0.5355811 0.7316239 0.4217574 0.8213984 0.1840428 0.5398453 -0.04688299 -0.2168107 0.9750872 -0.2401626 -0.1785764 0.9541658 -0.106268 0.1054782 0.9887272 0.1767799 0.241488 0.9541658 0.216455 0.04849898 0.9750872</float_array>
          <technique_common>
            <accessor source="#normals-array" count="20" stride="3">
              <param name="X" type="float" />
              <param name="Y" type="float" />
              <param name="Z" type="float" />
            </accessor>
          </technique_common>
        </source>
        <source id="uv">
          <float_array id="uv-array" count="120">-3.228088 14.544 -3.111153 14.31018 -3.390502 14.51468 -3.111153 14.31018 -3.228088 14.544 -2.993403 14.42881 -3.228088 14.544 -3.390502 14.51468 -3.445402 14.7597 -3.228088 14.544 -3.445402 14.7597 -3.199977 14.70663 -3.228088 14.544 -3.199977 14.70663 -2.993403 14.42881 -3.111153 14.31018 -2.993403 14.42881 -3.010773 14.3283 -3.390502 1.880114 -3.111153 1.880114 -3.256198 1.94081 14.7597 1.880114 14.51468 1.880114 14.65919 1.94081 -3.199977 1.880114 -3.445402 1.880114 -3.345022 1.94081 14.42881 1.880114 14.70663 1.880114 14.57332 1.94081 -3.111153 1.880114 -3.010773 1.94081 -3.256198 1.94081 14.51468 1.880114 14.38137 1.94081 14.65919 1.94081 -3.445402 14.7597 -3.462773 14.65919 -3.345022 14.77782 -3.199977 1.880114 -3.345022 1.94081 -3.065673 1.94081 14.42881 1.880114 14.57332 1.94081 14.3283 1.94081 -3.256198 14.38137 -3.010773 14.3283 -3.228088 14.544 -3.462773 14.65919 -3.256198 14.38137 -3.228088 14.544 -3.345022 14.77782 -3.462773 14.65919 -3.228088 14.544 -3.065673 14.57332 -3.345022 14.77782 -3.228088 14.544 -3.010773 14.3283 -3.065673 14.57332 -3.228088 14.544</float_array>
          <technique_common>
            <accessor source="#uv-array" count="60" stride="2">
              <param name="S" type="float" />
              <param name="T" type="float" />
            </accessor>
          </technique_common>
        </source>
        <vertices id="vertices">
          <input semantic="POSITION" source="#positions" />
        </vertices>
        <triangles count="20" material="m0">
          <input semantic="VERTEX" source="#vertices" offset="0" />
          <input semantic="NORMAL" source="#normals" offset="1" />
          <input semantic="TEXCOORD" source="#uv" offset="2" set="0" />
          <p>0 0 0 1 0 1 2 0 2 1 1 3 0 1 4 5 1 5 0 2 6 2 2 7 3 2 8 0 3 9 3 3 10 4 3 11 0 4 12 4 4 13 5 4 14 1 5 15 5 5 16 10 5 17 2 6 18 1 6 19 6 6 20 3 7 21 2 7 22 7 7 23 4 8 24 3 8 25 8 8 26 5 9 27 4 9 28 9 9 29 1 10 30 10 10 31 6 10 32 2 11 33 6 11 34 7 11 35 3 12 36 7 12 37 8 12 38 4 13 39 8 13 40 9 13 41 5 14 42 9 14 43 10 14 44 6 15 45 10 15 46 11 15 47 7 16 48 6 16 49 11 16 50 8 17 51 7 17 52 11 17 53 9 18 54 8 18 55 11 18 56 10 19 57 9 19 58 11 19 59</p>
        </triangles>
      </mesh>
    </geometry>
  </library_geometries>
  <library_visual_scenes>
    <visual_scene id="Scene">
      <node id="Node" type="NODE">
        <instance_geometry url="#geometry">
          <bind_material>
            <technique_common>
              <instance_material symbol="m0" target="#m0">
                <bind_vertex_input semantic="UVSET0" input_semantic="TEXCOORD" input_set="0" />
              </instance_material>
            </technique_common>
          </bind_material>
        </instance_geometry>
      </node>
    </visual_scene>
  </library_visual_scenes>
  <scene>
    <instance_visual_scene url="#Scene" />
  </scene>
</COLLADA>