<?xml version='1.0' encoding='utf-8'?>
<COLLADA xmlns="http://www.collada.org/2005/11/COLLADASchema" version="1.4.1">
  <asset>
    <created>2026-09-08T00:00:00Z</created>
    <modified>2026-09-08T00:00:00Z</modified>
    <unit name="meter" meter="1" />
    <up_axis>Z_UP</up_axis>
  </asset>
  <library_images>
    <image id="img0">
      <init_from>../materials/textures/sandstone.png</init_from>
    </image>
  </library_images>
  <library_effects>
    <effect id="e0">
      <profile_COMMON>
        <newparam sid="surf0">
          <surface type="2D">
            <init_from>img0</init_from>
          </surface>
        </newparam>
        <newparam sid="samp0">
          <sampler2D>
            <source>surf0</source>
            <wrap_s>WRAP</wrap_s>
            <wrap_t>WRAP</wrap_t>
          </sampler2D>
        </newparam>
        <technique sid="common">
          <phong>
            <ambient>
              <color>0.2205 0.1665 0.108 1</color>
            </ambient>
            <diffuse>
              <texture texture="samp0" texcoord="UVSET0" />
            </diffuse>
            <specular>
              <color>0.02 0.02 0.02 1</color>
            </specular>
            <shininess>
              <float>8</float>
            </shininess>
          </phong>
        </technique>
      </profile_COMMON>
    </effect>
  </library_effects>
  <library_materials>
    <material id="m0" name="m0">
      <instance_effect url="#e0" />
    </material>
  </library_materials>
  <library_geometries>
    <geometry id="geometry" name="2016_sandstone_talus_11">
      <mesh>
        <source id="positions">
          <float_array id="positions-array" count="36">-21.82558 33.2639 1.440628 -22.22736 32.76971 1.566528 -22.09156 33.59513 1.566528 -21.58819 33.96281 1.566528 -21.41289 33.36461 1.566528 -21.80792 32.62724 1.566528 -22.23827 33.16319 1.77024 -21.84324 33.90056 1.77024 -21.42381 33.75809 1.77024 -21.55961 32.93267 1.77024 -22.06298 32.56499 1.77024 -21.82558 33.2639 1.896141</float_array>
          <technique_common>
            <accessor source="#positions-array" count="12" stride="3">
              <param name="X" type="float" />
              <param name="Y" type="float" />
              <param name="Z" type="float" />
            </accessor>
          </technique_common>
        </source>
        <source id="normals">
          <float_array id="normals-array" count="60">-0.3649988 0.0600503 -0.9290693 -0.06634998 -0.1953381 -0.978489 -0.1677702 0.229684 -0.9586962 0.2729544 0.07998425 -0.9586962 0.3260626 -0.1746807 -0.9290693 -0.2644688 -0.7786112 -0.5690526 -0.9264897 0.1524279 -0.3440676 -0.5293071 0.7246424 -0.4412793 0.8611584 0.2523466 -0.4412793 0.8276565 -0.4433984 -0.3440676 -0.8611584 -0.2523466 0.4412793 -0.8276565 0.4433984 0.3440676 0.2644688 0.7786112 0.5690526 0.9264897 -0.1524279 0.3440676 0.5293071 -0.7246424 0.4412793 -0.2729544 -0.07998425 0.9586962 -0.3260626 0.1746807 0.9290693 0.06634998 0.1953381 0.978489 0.3649988 -0.0600503 0.9290693 0.1677702 -0.229684 0.9586962</float_array>
          <technique_common>
            <accessor source="#normals-array" count="20" stride="3">
              <param name="X" type="float" />
              <param name="Y" type="float" />
              <param name="Z" type="float" />
            </accessor>
          </technique_common>
        </source>
        <source id="uv">
          <float_array id="uv-array" count="120">-8.730233 13.30556 -8.890942 13.10788 -8.836622 13.43805 -8.890942 13.10788 -8.730233 13.30556 -8.723169 13.0509 -8.730233 13.30556 -8.836622 13.43805 -8.635274 13.58512 -8.730233 13.30556 -8.635274 13.58512 -8.565158 13.34584 -8.730233 13.30556 -8.565158 13.34584 -8.723169 13.0509 -8.890942 0.6266112 -8.723169 0.6266112 -8.825192 0.7080961 13.43805 0.6266112 13.10788 0.6266112 13.26528 0.7080961 -8.635274 0.6266112 -8.836622 0.6266112 -8.737297 0.7080961 13.34584 0.6266112 13.58512 0.6266112 13.50324 0.7080961 13.0509 0.6266112 13.34584 0.6266112 13.17307 0.7080961 13.10788 0.6266112 13.026 0.7080961 13.26528 0.7080961 13.43805 0.6266112 13.26528 0.7080961 13.56022 0.7080961 -8.635274 0.6266112 -8.737297 0.7080961 -8.569524 0.7080961 13.34584 0.6266112 13.50324 0.7080961 13.17307 0.7080961 -8.723169 0.6266112 -8.623844 0.7080961 -8.825192 0.7080961 -8.895308 13.26528 -8.825192 13.026 -8.730233 13.30556 -8.737297 13.56022 -8.895308 13.26528 -8.730233 13.30556 -8.569524 13.50324 -8.737297 13.56022 -8.730233 13.30556 -8.623844 13.17307 -8.569524 13.50324 -8.730233 13.30556 -8.825192 13.026 -8.623844 13.17307 -8.730233 13.30556</float_array>
          <technique_common>
            <accessor source="#uv-array" count="60" stride="2">
              <param name="S" type="float" />
              <param name="T" type="float" />
            </accessor>
          </technique_common>
        </source>
        <vertices id="vertices">
          <input semantic="POSITION" source="#positions" />
        </vertices>
        <triangles count="20" material="m0">
          <input semantic="VERTEX" source="#vertices" offset="0" />
          <input semantic="NORMAL" source="#normals" offset="1" />
          <input semantic="TEXCOORD" source="#uv" offset="2" set="0" />
          <p>0 0 0 1 0 1 2 0 2 1 1 3 0 1 4 5 1 5 0 2 6 2 2 7 3 2 8 0 3 9 3 3 10 4 3 11 0 4 12 4 4 13 5 4 14 1 5 15 5 5 16 10 5 17 2 6 18 1 6 19 6 6 20 3 7 21 2 7 22 7 7 23 4 8 24 3 8 25 8 8 26 5 9 27 4 9 28 9 9 29 1 10 30 10 10 31 6 10 32 2 11 33 6 11 34 7 11 35 3 12 36 7 12 37 8 12 38 4 13 39 8 13 40 9 13 41 5 14 42 9 14 43 10 14 44 6 15 45 10 15 46 11 15 47 7 16 48 6 16 49 11 16 50 8 17 51 7 17 52 11 17 53 9 18 54 8 18 55 11 18 56 10 19 57 9 19 58 11 19 59</p>
        </triangles>
      </mesh>
    </geometry>
  </library_geometries>
  <library_visual_scenes>
    <visual_scene id="Scene">
      <node id="Node" type="NODE">
        <instance_geometry url="#geometry">
          <bind_material>
            <technique_common>
              <instance_material symbol="m0" target="#m0">
                <bind_vertex_input semantic="UVSET0" input_semantic="TEXCOORD" input_set="0" />
              </instance_material>
            </technique_common>
          </bind_material>
        </instance_geometry>
      </node>
    </visual_scene>
  </library_visual_scenes>
  <scene>
    <instance_visual_scene url="#Scene" />
  </scene>
</COLLADA>