<?xml version='1.0' encoding='utf-8'?>
<COLLADA xmlns="http://www.collada.org/2005/11/COLLADASchema" version="1.4.1">
  <asset>
    <created>2026-09-08T00:00:00Z</created>
    <modified>2026-09-08T00:00:00Z</modified>
    <unit name="meter" meter="1" />
    <up_axis>Z_UP</up_axis>
  </asset>
  <library_images>
    <image id="img0">
      <init_from>../materials/textures/sandstone.png</init_from>
    </image>
  </library_images>
  <library_effects>
    <effect id="e0">
      <profile_COMMON>
        <newparam sid="surf0">
          <surface type="2D">
            <init_from>img0</init_from>
          </surface>
        </newparam>
        <newparam sid="samp0">
          <sampler2D>
            <source>surf0</source>
            <wrap_s>WRAP</wrap_s>
            <wrap_t>WRAP</wrap_t>
          </sampler2D>
        </newparam>
        <technique sid="common">
          <phong>
            <ambient>
              <color>0.2205 0.1665 0.108 1</color>
            </ambient>
            <diffuse>
              <texture texture="samp0" texcoord="UVSET0" />
            </diffuse>
            <specular>
              <color>0.02 0.02 0.02 1</color>
            </specular>
            <shininess>
              <float>8</float>
            </shininess>
          </phong>
        </technique>
      </profile_COMMON>
    </effect>
  </library_effects>
  <library_materials>
    <material id="m0" name="m0">
      <instance_effect url="#e0" />
    </material>
  </library_materials>
  <library_geometries>
    <geometry id="geometry" name="2017_sandstone_talus_12">
      <mesh>
        <source id="positions">
          <float_array id="positions-array" count="36">-6.768948 48.91273 5.005145 -6.129724 48.98402 5.145337 -6.654957 48.37827 5.145337 -7.337729 48.51112 5.145337 -7.234455 49.19898 5.145337 -6.48787 49.49125 5.145337 -6.30344 48.62647 5.372174 -7.050025 48.33421 5.372174 -7.408172 48.84143 5.372174 -6.882939 49.44719 5.372174 -6.200166 49.31434 5.372174 -6.768948 48.91273 5.512367</float_array>
          <technique_common>
            <accessor source="#positions-array" count="12" stride="3">
              <param name="X" type="float" />
              <param name="Y" type="float" />
              <param name="Z" type="float" />
            </accessor>
          </technique_common>
        </source>
        <source id="normals">
          <float_array id="normals-array" count="60">0.2311544 -0.2004278 -0.9520485 0.1972872 0.1393026 -0.9703981 -0.05129091 -0.2636107 -0.9632646 -0.2655777 0.03987281 -0.9632646 -0.1115275 0.2848952 -0.9520485 0.7047169 0.4975939 -0.5057414 0.687956 -0.5965083 -0.4133939 -0.1692193 -0.8697063 -0.4636547 -0.8761959 0.1315487 -0.4636547 -0.3319255 0.847898 -0.4133938 0.8761959 -0.1315487 0.4636547 0.3319255 -0.847898 0.4133938 -0.7047169 -0.4975939 0.5057414 -0.687956 0.5965083 0.4133939 0.1692193 0.8697063 0.4636547 0.2655777 -0.03987281 0.9632646 0.1115275 -0.2848952 0.9520485 -0.1972872 -0.1393026 0.9703981 -0.2311544 0.2004278 0.9520485 0.05129091 0.2636107 0.9632646</float_array>
          <technique_common>
            <accessor source="#normals-array" count="20" stride="3">
              <param name="X" type="float" />
              <param name="Y" type="float" />
              <param name="Z" type="float" />
            </accessor>
          </technique_common>
        </source>
        <source id="uv">
          <float_array id="uv-array" count="120">-2.707579 19.56509 -2.451889 19.59361 -2.661983 19.35131 -2.451889 19.59361 -2.707579 19.56509 -2.595148 19.7965 -2.707579 19.56509 -2.661983 19.35131 -2.935092 19.40445 -2.707579 19.56509 -2.935092 19.40445 -2.893782 19.67959 -2.707579 19.56509 -2.893782 19.67959 -2.595148 19.7965 19.59361 2.058135 19.7965 2.058135 19.72574 2.14887 19.35131 2.058135 19.59361 2.058135 19.45059 2.14887 -2.935092 2.058135 -2.661983 2.058135 -2.82001 2.14887 19.67959 2.058135 19.40445 2.058135 19.53657 2.14887 -2.595148 2.058135 -2.893782 2.058135 -2.753175 2.14887 19.59361 2.058135 19.72574 2.14887 19.45059 2.14887 -2.661983 2.058135 -2.521376 2.14887 -2.82001 2.14887 19.40445 2.058135 19.33368 2.14887 19.53657 2.14887 19.67959 2.058135 19.53657 2.14887 19.77887 2.14887 -2.595148 2.058135 -2.753175 2.14887 -2.480066 2.14887 -2.521376 19.45059 -2.480066 19.72574 -2.707579 19.56509 -2.82001 19.33368 -2.521376 19.45059 -2.707579 19.56509 -2.963269 19.53657 -2.82001 19.33368 -2.707579 19.56509 -2.753175 19.77887 -2.963269 19.53657 -2.707579 19.56509 -2.480066 19.72574 -2.753175 19.77887 -2.707579 19.56509</float_array>
          <technique_common>
            <accessor source="#uv-array" count="60" stride="2">
              <param name="S" type="float" />
              <param name="T" type="float" />
            </accessor>
          </technique_common>
        </source>
        <vertices id="vertices">
          <input semantic="POSITION" source="#positions" />
        </vertices>
        <triangles count="20" material="m0">
          <input semantic="VERTEX" source="#vertices" offset="0" />
          <input semantic="NORMAL" source="#normals" offset="1" />
          <input semantic="TEXCOORD" source="#uv" offset="2" set="0" />
          <p>0 0 0 1 0 1 2 0 2 1 1 3 0 1 4 5 1 5 0 2 6 2 2 7 3 2 8 0 3 9 3 3 10 4 3 11 0 4 12 4 4 13 5 4 14 1 5 15 5 5 16 10 5 17 2 6 18 1 6 19 6 6 20 3 7 21 2 7 22 7 7 23 4 8 24 3 8 25 8 8 26 5 9 27 4 9 28 9 9 29 1 10 30 10 10 31 6 10 32 2 11 33 6 11 34 7 11 35 3 12 36 7 12 37 8 12 38 4 13 39 8 13 40 9 13 41 5 14 42 9 14 43 10 14 44 6 15 45 10 15 46 11 15 47 7 16 48 6 16 49 11 16 50 8 17 51 7 17 52 11 17 53 9 18 54 8 18 55 11 18 56 10 19 57 9 19 58 11 19 59</p>
        </triangles>
      </mesh>
    </geometry>
  </library_geometries>
  <library_visual_scenes>
    <visual_scene id="Scene">
      <node id="Node" type="NODE">
        <instance_geometry url="#geometry">
          <bind_material>
            <technique_common>
              <instance_material symbol="m0" target="#m0">
                <bind_vertex_input semantic="UVSET0" input_semantic="TEXCOORD" input_set="0" />
              </instance_material>
            </technique_common>
          </bind_material>
        </instance_geometry>
      </node>
    </visual_scene>
  </library_visual_scenes>
  <scene>
    <instance_visual_scene url="#Scene" />
  </scene>
</COLLADA>