<?xml version='1.0' encoding='utf-8'?>
<COLLADA xmlns="http://www.collada.org/2005/11/COLLADASchema" version="1.4.1">
  <asset>
    <created>2026-09-08T00:00:00Z</created>
    <modified>2026-09-08T00:00:00Z</modified>
    <unit name="meter" meter="1" />
    <up_axis>Z_UP</up_axis>
  </asset>
  <library_images>
    <image id="img0">
      <init_from>../materials/textures/sandstone.png</init_from>
    </image>
  </library_images>
  <library_effects>
    <effect id="e0">
      <profile_COMMON>
        <newparam sid="surf0">
          <surface type="2D">
            <init_from>img0</init_from>
          </surface>
        </newparam>
        <newparam sid="samp0">
          <sampler2D>
            <source>surf0</source>
            <wrap_s>WRAP</wrap_s>
            <wrap_t>WRAP</wrap_t>
          </sampler2D>
        </newparam>
        <technique sid="common">
          <phong>
            <ambient>
              <color>0.2205 0.1665 0.108 1</color>
            </ambient>
            <diffuse>
              <texture texture="samp0" texcoord="UVSET0" />
            </diffuse>
            <specular>
              <color>0.02 0.02 0.02 1</color>
            </specular>
            <shininess>
              <float>8</float>
            </shininess>
          </phong>
        </technique>
      </profile_COMMON>
    </effect>
  </library_effects>
  <library_materials>
    <material id="m0" name="m0">
      <instance_effect url="#e0" />
    </material>
  </library_materials>
  <library_geometries>
    <geometry id="geometry" name="2018_sandstone_talus_13">
      <mesh>
        <source id="positions">
          <float_array id="positions-array" count="36">-29.78764 38.57394 0.7063334 -30.33218 38.50832 0.890455 -29.74543 38.93009 0.890455 -29.21701 38.85966 0.890455 -29.47719 38.39437 0.890455 -30.1664 38.17724 0.890455 -30.09809 38.7535 1.188372 -29.40888 38.97064 1.188372 -29.2431 38.63955 1.188372 -29.82985 38.21779 1.188372 -30.35827 38.28821 1.188372 -29.78764 38.57394 1.372494</float_array>
          <technique_common>
            <accessor source="#positions-array" count="12" stride="3">
              <param name="X" type="float" />
              <param name="Y" type="float" />
              <param name="Z" type="float" />
            </accessor>
          </technique_common>
        </source>
        <source id="normals">
          <float_array id="normals-array" count="60">-0.333415 0.4638412 -0.8207836 -0.3003564 -0.1503941 -0.9418958 0.06033856 0.4527494 -0.8895939 0.3986591 -0.2229206 -0.8895939 0.1716504 -0.5448398 -0.8207836 -0.8275884 -0.414389 -0.3786545 -0.5712526 0.7947169 -0.2051721 0.1270729 0.9534896 -0.2733314 0.8395757 -0.4694706 -0.2733314 0.2940952 -0.9334947 -0.2051721 -0.8395757 0.4694706 0.2733314 -0.2940952 0.9334947 0.2051721 0.8275884 0.414389 0.3786545 0.5712526 -0.7947169 0.2051721 -0.1270729 -0.9534896 0.2733314 -0.3986591 0.2229206 0.8895939 -0.1716504 0.5448398 0.8207836 0.3003564 0.1503941 0.9418958 0.333415 -0.4638412 0.8207836 -0.06033856 -0.4527494 0.8895939</float_array>
          <technique_common>
            <accessor source="#normals-array" count="20" stride="3">
              <param name="X" type="float" />
              <param name="Y" type="float" />
              <param name="Z" type="float" />
            </accessor>
          </technique_common>
        </source>
        <source id="uv">
          <float_array id="uv-array" count="120">-11.91506 15.42957 -12.13287 15.40333 -11.89817 15.57203 -12.13287 15.40333 -11.91506 15.42957 -12.06656 15.27089 -11.91506 15.42957 -11.89817 15.57203 -11.6868 15.54387 -11.91506 15.42957 -11.6868 15.54387 -11.79088 15.35775 -11.91506 15.42957 -11.79088 15.35775 -12.06656 15.27089 15.40333 0.356182 15.27089 0.356182 15.31528 0.4753487 -11.89817 0.356182 -12.13287 0.356182 -12.03924 0.4753487 -11.6868 0.356182 -11.89817 0.356182 -11.76355 0.4753487 15.35775 0.356182 15.54387 0.356182 15.45582 0.4753487 -12.06656 0.356182 -11.79088 0.356182 -11.93194 0.4753487 15.40333 0.356182 15.31528 0.4753487 15.5014 0.4753487 -11.89817 0.356182 -12.03924 0.4753487 -11.76355 0.4753487 15.54387 0.356182 15.58825 0.4753487 15.45582 0.4753487 -11.79088 0.356182 -11.69724 0.4753487 -11.93194 0.4753487 -12.06656 0.356182 -11.93194 0.4753487 -12.14331 0.4753487 -12.03924 15.5014 -12.14331 15.31528 -11.91506 15.42957 -11.76355 15.58825 -12.03924 15.5014 -11.91506 15.42957 -11.69724 15.45582 -11.76355 15.58825 -11.91506 15.42957 -11.93194 15.28711 -11.69724 15.45582 -11.91506 15.42957 -12.14331 15.31528 -11.93194 15.28711 -11.91506 15.42957</float_array>
          <technique_common>
            <accessor source="#uv-array" count="60" stride="2">
              <param name="S" type="float" />
              <param name="T" type="float" />
            </accessor>
          </technique_common>
        </source>
        <vertices id="vertices">
          <input semantic="POSITION" source="#positions" />
        </vertices>
        <triangles count="20" material="m0">
          <input semantic="VERTEX" source="#vertices" offset="0" />
          <input semantic="NORMAL" source="#normals" offset="1" />
          <input semantic="TEXCOORD" source="#uv" offset="2" set="0" />
          <p>0 0 0 1 0 1 2 0 2 1 1 3 0 1 4 5 1 5 0 2 6 2 2 7 3 2 8 0 3 9 3 3 10 4 3 11 0 4 12 4 4 13 5 4 14 1 5 15 5 5 16 10 5 17 2 6 18 1 6 19 6 6 20 3 7 21 2 7 22 7 7 23 4 8 24 3 8 25 8 8 26 5 9 27 4 9 28 9 9 29 1 10 30 10 10 31 6 10 32 2 11 33 6 11 34 7 11 35 3 12 36 7 12 37 8 12 38 4 13 39 8 13 40 9 13 41 5 14 42 9 14 43 10 14 44 6 15 45 10 15 46 11 15 47 7 16 48 6 16 49 11 16 50 8 17 51 7 17 52 11 17 53 9 18 54 8 18 55 11 18 56 10 19 57 9 19 58 11 19 59</p>
        </triangles>
      </mesh>
    </geometry>
  </library_geometries>
  <library_visual_scenes>
    <visual_scene id="Scene">
      <node id="Node" type="NODE">
        <instance_geometry url="#geometry">
          <bind_material>
            <technique_common>
              <instance_material symbol="m0" target="#m0">
                <bind_vertex_input semantic="UVSET0" input_semantic="TEXCOORD" input_set="0" />
              </instance_material>
            </technique_common>
          </bind_material>
        </instance_geometry>
      </node>
    </visual_scene>
  </library_visual_scenes>
  <scene>
    <instance_visual_scene url="#Scene" />
  </scene>
</COLLADA>