<?xml version='1.0' encoding='utf-8'?>
<COLLADA xmlns="http://www.collada.org/2005/11/COLLADASchema" version="1.4.1">
  <asset>
    <created>2026-09-08T00:00:00Z</created>
    <modified>2026-09-08T00:00:00Z</modified>
    <unit name="meter" meter="1" />
    <up_axis>Z_UP</up_axis>
  </asset>
  <library_images>
    <image id="img0">
      <init_from>../materials/textures/sandstone.png</init_from>
    </image>
  </library_images>
  <library_effects>
    <effect id="e0">
      <profile_COMMON>
        <newparam sid="surf0">
          <surface type="2D">
            <init_from>img0</init_from>
          </surface>
        </newparam>
        <newparam sid="samp0">
          <sampler2D>
            <source>surf0</source>
            <wrap_s>WRAP</wrap_s>
            <wrap_t>WRAP</wrap_t>
          </sampler2D>
        </newparam>
        <technique sid="common">
          <phong>
            <ambient>
              <color>0.2205 0.1665 0.108 1</color>
            </ambient>
            <diffuse>
              <texture texture="samp0" texcoord="UVSET0" />
            </diffuse>
            <specular>
              <color>0.02 0.02 0.02 1</color>
            </specular>
            <shininess>
              <float>8</float>
            </shininess>
          </phong>
        </technique>
      </profile_COMMON>
    </effect>
  </library_effects>
  <library_materials>
    <material id="m0" name="m0">
      <instance_effect url="#e0" />
    </material>
  </library_materials>
  <library_geometries>
    <geometry id="geometry" name="2019_sandstone_talus_14">
      <mesh>
        <source id="positions">
          <float_array id="positions-array" count="36">-4.217825 45.46043 5.784655 -3.840335 45.21446 5.885496 -4.224284 44.92695 5.885496 -4.599312 45.3767 5.885496 -4.447131 45.94217 5.885496 -3.97806 45.8419 5.885496 -3.988519 44.9787 6.048661 -4.45759 45.07897 6.048661 -4.595315 45.70641 6.048661 -4.211366 45.99392 6.048661 -3.836338 45.54417 6.048661 -4.217825 45.46043 6.149502</float_array>
          <technique_common>
            <accessor source="#positions-array" count="12" stride="3">
              <param name="X" type="float" />
              <param name="Y" type="float" />
              <param name="Z" type="float" />
            </accessor>
          </technique_common>
        </source>
        <source id="normals">
          <float_array id="normals-array" count="60">0.13895 -0.1855553 -0.9727601 0.2969639 0.06518509 -0.9526612 -0.2145438 -0.1788993 -0.9601906 -0.2697481 0.0725948 -0.9601906 0.04845946 0.2266926 -0.9727601 0.8883157 0.1949899 -0.4157814 0.5112052 -0.6826688 -0.5221424 -0.6865329 -0.5724719 -0.4482728 -0.8631847 0.2323009 -0.4482728 0.1782852 0.8340154 -0.5221424 0.8631847 -0.2323009 0.4482728 -0.1782852 -0.8340154 0.5221424 -0.8883157 -0.1949899 0.4157814 -0.5112052 0.6826688 0.5221424 0.6865329 0.5724719 0.4482728 0.2697481 -0.0725948 0.9601906 -0.04845946 -0.2266926 0.9727601 -0.2969639 -0.06518509 0.9526612 -0.13895 0.1855553 0.9727601 0.2145438 0.1788993 0.9601906</float_array>
          <technique_common>
            <accessor source="#normals-array" count="20" stride="3">
              <param name="X" type="float" />
              <param name="Y" type="float" />
              <param name="Z" type="float" />
            </accessor>
          </technique_common>
        </source>
        <source id="uv">
          <float_array id="uv-array" count="120">-1.68713 18.18417 -1.536134 18.08578 -1.689714 17.97078 -1.536134 18.08578 -1.68713 18.18417 -1.591224 18.33676 -1.68713 18.18417 -1.689714 17.97078 -1.839725 18.15068 -1.68713 18.18417 -1.839725 18.15068 -1.778852 18.37687 -1.68713 18.18417 -1.778852 18.37687 -1.591224 18.33676 18.08578 2.354198 18.33676 2.354198 18.21767 2.419464 -1.689714 2.354198 -1.536134 2.354198 -1.595407 2.419464 18.15068 2.354198 17.97078 2.354198 18.03159 2.419464 18.37687 2.354198 18.15068 2.354198 18.28256 2.419464 -1.591224 2.354198 -1.778852 2.354198 -1.684546 2.419464 18.08578 2.354198 18.21767 2.419464 17.99148 2.419464 -1.689714 2.354198 -1.595407 2.419464 -1.783036 2.419464 18.15068 2.354198 18.03159 2.419464 18.28256 2.419464 -1.778852 2.354198 -1.838126 2.419464 -1.684546 2.419464 18.33676 2.354198 18.39757 2.419464 18.21767 2.419464 -1.595407 17.99148 -1.534535 18.21767 -1.68713 18.18417 -1.783036 18.03159 -1.595407 17.99148 -1.68713 18.18417 -1.838126 18.28256 -1.783036 18.03159 -1.68713 18.18417 -1.684546 18.39757 -1.838126 18.28256 -1.68713 18.18417 -1.534535 18.21767 -1.684546 18.39757 -1.68713 18.18417</float_array>
          <technique_common>
            <accessor source="#uv-array" count="60" stride="2">
              <param name="S" type="float" />
              <param name="T" type="float" />
            </accessor>
          </technique_common>
        </source>
        <vertices id="vertices">
          <input semantic="POSITION" source="#positions" />
        </vertices>
        <triangles count="20" material="m0">
          <input semantic="VERTEX" source="#vertices" offset="0" />
          <input semantic="NORMAL" source="#normals" offset="1" />
          <input semantic="TEXCOORD" source="#uv" offset="2" set="0" />
          <p>0 0 0 1 0 1 2 0 2 1 1 3 0 1 4 5 1 5 0 2 6 2 2 7 3 2 8 0 3 9 3 3 10 4 3 11 0 4 12 4 4 13 5 4 14 1 5 15 5 5 16 10 5 17 2 6 18 1 6 19 6 6 20 3 7 21 2 7 22 7 7 23 4 8 24 3 8 25 8 8 26 5 9 27 4 9 28 9 9 29 1 10 30 10 10 31 6 10 32 2 11 33 6 11 34 7 11 35 3 12 36 7 12 37 8 12 38 4 13 39 8 13 40 9 13 41 5 14 42 9 14 43 10 14 44 6 15 45 10 15 46 11 15 47 7 16 48 6 16 49 11 16 50 8 17 51 7 17 52 11 17 53 9 18 54 8 18 55 11 18 56 10 19 57 9 19 58 11 19 59</p>
        </triangles>
      </mesh>
    </geometry>
  </library_geometries>
  <library_visual_scenes>
    <visual_scene id="Scene">
      <node id="Node" type="NODE">
        <instance_geometry url="#geometry">
          <bind_material>
            <technique_common>
              <instance_material symbol="m0" target="#m0">
                <bind_vertex_input semantic="UVSET0" input_semantic="TEXCOORD" input_set="0" />
              </instance_material>
            </technique_common>
          </bind_material>
        </instance_geometry>
      </node>
    </visual_scene>
  </library_visual_scenes>
  <scene>
    <instance_visual_scene url="#Scene" />
  </scene>
</COLLADA>