<?xml version='1.0' encoding='utf-8'?>
<COLLADA xmlns="http://www.collada.org/2005/11/COLLADASchema" version="1.4.1">
  <asset>
    <created>2026-09-08T00:00:00Z</created>
    <modified>2026-09-08T00:00:00Z</modified>
    <unit name="meter" meter="1" />
    <up_axis>Z_UP</up_axis>
  </asset>
  <library_images>
    <image id="img0">
      <init_from>../materials/textures/sandstone.png</init_from>
    </image>
  </library_images>
  <library_effects>
    <effect id="e0">
      <profile_COMMON>
        <newparam sid="surf0">
          <surface type="2D">
            <init_from>img0</init_from>
          </surface>
        </newparam>
        <newparam sid="samp0">
          <sampler2D>
            <source>surf0</source>
            <wrap_s>WRAP</wrap_s>
            <wrap_t>WRAP</wrap_t>
          </sampler2D>
        </newparam>
        <technique sid="common">
          <phong>
            <ambient>
              <color>0.2205 0.1665 0.108 1</color>
            </ambient>
            <diffuse>
              <texture texture="samp0" texcoord="UVSET0" />
            </diffuse>
            <specular>
              <color>0.02 0.02 0.02 1</color>
            </specular>
            <shininess>
              <float>8</float>
            </shininess>
          </phong>
        </technique>
      </profile_COMMON>
    </effect>
  </library_effects>
  <library_materials>
    <material id="m0" name="m0">
      <instance_effect url="#e0" />
    </material>
  </library_materials>
  <library_geometries>
    <geometry id="geometry" name="2020_sandstone_talus_15">
      <mesh>
        <source id="positions">
          <float_array id="positions-array" count="36">-4.386536 40.06769 5.602536 -4.090781 39.63584 5.71367 -4.698444 39.62978 5.71367 -4.875065 40.2289 5.71367 -4.376546 40.60523 5.71367 -3.891839 40.23869 5.71367 -4.396525 39.53015 5.893489 -4.881233 39.89669 5.893489 -4.68229 40.49954 5.893489 -4.074627 40.50559 5.893489 -3.898006 39.90647 5.893489 -4.386536 40.06769 6.004622</float_array>
          <technique_common>
            <accessor source="#positions-array" count="12" stride="3">
              <param name="X" type="float" />
              <param name="Y" type="float" />
              <param name="Z" type="float" />
            </accessor>
          </technique_common>
        </source>
        <source id="normals">
          <float_array id="normals-array" count="60">0.002466894 -0.2476367 -0.9688498 0.2449916 -0.0808477 -0.9661484 -0.2437307 -0.07185174 -0.9671777 -0.1530936 0.2028045 -0.9671777 0.1493725 0.1975294 -0.9688498 0.8333437 -0.275005 -0.47949 0.008651219 -0.8684437 -0.4957123 -0.838567 -0.2472093 -0.4854822 -0.5267258 0.6977585 -0.4854822 0.5238386 0.6927211 -0.4957123 0.5267258 -0.6977585 0.4854822 -0.5238386 -0.6927211 0.4957123 -0.8333437 0.275005 0.47949 -0.008651219 0.8684437 0.4957123 0.838567 0.2472093 0.4854822 0.1530936 -0.2028045 0.9671777 -0.1493725 -0.1975294 0.9688498 -0.2449916 0.0808477 0.9661484 -0.002466894 0.2476367 0.9688498 0.2437307 0.07185174 0.9671777</float_array>
          <technique_common>
            <accessor source="#normals-array" count="20" stride="3">
              <param name="X" type="float" />
              <param name="Y" type="float" />
              <param name="Z" type="float" />
            </accessor>
          </technique_common>
        </source>
        <source id="uv">
          <float_array id="uv-array" count="120">-1.754614 16.02708 -1.636312 15.85433 -1.879378 15.85191 -1.636312 15.85433 -1.754614 16.02708 -1.556736 16.09548 -1.754614 16.02708 -1.879378 15.85191 -1.950026 16.09156 -1.754614 16.02708 -1.950026 16.09156 -1.750619 16.24209 -1.754614 16.02708 -1.750619 16.24209 -1.556736 16.09548 15.85433 2.285468 16.09548 2.285468 15.96259 2.357396 -1.879378 2.285468 -1.636312 2.285468 -1.75861 2.357396 16.09156 2.285468 15.85191 2.285468 15.95867 2.357396 -1.750619 2.285468 -1.950026 2.285468 -1.872916 2.357396 -1.556736 2.285468 -1.750619 2.285468 -1.629851 2.357396 -1.636312 2.285468 -1.559203 2.357396 -1.75861 2.357396 -1.879378 2.285468 -1.75861 2.357396 -1.952493 2.357396 16.09156 2.285468 15.95867 2.357396 16.19982 2.357396 -1.750619 2.285468 -1.872916 2.357396 -1.629851 2.357396 16.09548 2.285468 16.20224 2.357396 15.96259 2.357396 -1.75861 15.81206 -1.559203 15.96259 -1.754614 16.02708 -1.952493 15.95867 -1.75861 15.81206 -1.754614 16.02708 -1.872916 16.19982 -1.952493 15.95867 -1.754614 16.02708 -1.629851 16.20224 -1.872916 16.19982 -1.754614 16.02708 -1.559203 15.96259 -1.629851 16.20224 -1.754614 16.02708</float_array>
          <technique_common>
            <accessor source="#uv-array" count="60" stride="2">
              <param name="S" type="float" />
              <param name="T" type="float" />
            </accessor>
          </technique_common>
        </source>
        <vertices id="vertices">
          <input semantic="POSITION" source="#positions" />
        </vertices>
        <triangles count="20" material="m0">
          <input semantic="VERTEX" source="#vertices" offset="0" />
          <input semantic="NORMAL" source="#normals" offset="1" />
          <input semantic="TEXCOORD" source="#uv" offset="2" set="0" />
          <p>0 0 0 1 0 1 2 0 2 1 1 3 0 1 4 5 1 5 0 2 6 2 2 7 3 2 8 0 3 9 3 3 10 4 3 11 0 4 12 4 4 13 5 4 14 1 5 15 5 5 16 10 5 17 2 6 18 1 6 19 6 6 20 3 7 21 2 7 22 7 7 23 4 8 24 3 8 25 8 8 26 5 9 27 4 9 28 9 9 29 1 10 30 10 10 31 6 10 32 2 11 33 6 11 34 7 11 35 3 12 36 7 12 37 8 12 38 4 13 39 8 13 40 9 13 41 5 14 42 9 14 43 10 14 44 6 15 45 10 15 46 11 15 47 7 16 48 6 16 49 11 16 50 8 17 51 7 17 52 11 17 53 9 18 54 8 18 55 11 18 56 10 19 57 9 19 58 11 19 59</p>
        </triangles>
      </mesh>
    </geometry>
  </library_geometries>
  <library_visual_scenes>
    <visual_scene id="Scene">
      <node id="Node" type="NODE">
        <instance_geometry url="#geometry">
          <bind_material>
            <technique_common>
              <instance_material symbol="m0" target="#m0">
                <bind_vertex_input semantic="UVSET0" input_semantic="TEXCOORD" input_set="0" />
              </instance_material>
            </technique_common>
          </bind_material>
        </instance_geometry>
      </node>
    </visual_scene>
  </library_visual_scenes>
  <scene>
    <instance_visual_scene url="#Scene" />
  </scene>
</COLLADA>