<?xml version='1.0' encoding='utf-8'?>
<COLLADA xmlns="http://www.collada.org/2005/11/COLLADASchema" version="1.4.1">
  <asset>
    <created>2026-09-08T00:00:00Z</created>
    <modified>2026-09-08T00:00:00Z</modified>
    <unit name="meter" meter="1" />
    <up_axis>Z_UP</up_axis>
  </asset>
  <library_images>
    <image id="img0">
      <init_from>../materials/textures/sandstone.png</init_from>
    </image>
  </library_images>
  <library_effects>
    <effect id="e0">
      <profile_COMMON>
        <newparam sid="surf0">
          <surface type="2D">
            <init_from>img0</init_from>
          </surface>
        </newparam>
        <newparam sid="samp0">
          <sampler2D>
            <source>surf0</source>
            <wrap_s>WRAP</wrap_s>
            <wrap_t>WRAP</wrap_t>
          </sampler2D>
        </newparam>
        <technique sid="common">
          <phong>
            <ambient>
              <color>0.2205 0.1665 0.108 1</color>
            </ambient>
            <diffuse>
              <texture texture="samp0" texcoord="UVSET0" />
            </diffuse>
            <specular>
              <color>0.02 0.02 0.02 1</color>
            </specular>
            <shininess>
              <float>8</float>
            </shininess>
          </phong>
        </technique>
      </profile_COMMON>
    </effect>
  </library_effects>
  <library_materials>
    <material id="m0" name="m0">
      <instance_effect url="#e0" />
    </material>
  </library_materials>
  <library_geometries>
    <geometry id="geometry" name="2022_sandstone_talus_17">
      <mesh>
        <source id="positions">
          <float_array id="positions-array" count="36">-26.81431 38.56106 1.259388 -27.40463 38.48566 1.344181 -26.87721 39.02729 1.344181 -26.26286 38.92461 1.344181 -26.41061 38.31952 1.344181 -27.11625 38.04824 1.344181 -27.21801 38.80261 1.481379 -26.51237 39.07389 1.481379 -26.22399 38.63646 1.481379 -26.75141 38.09484 1.481379 -27.36576 38.19752 1.481379 -26.81431 38.56106 1.566172</float_array>
          <technique_common>
            <accessor source="#positions-array" count="12" stride="3">
              <param name="X" type="float" />
              <param name="Y" type="float" />
              <param name="Z" type="float" />
            </accessor>
          </technique_common>
        </source>
        <source id="normals">
          <float_array id="normals-array" count="60">-0.1599052 0.1557109 -0.9747741 -0.1308463 -0.08626092 -0.9876428 0.03055883 0.1828415 -0.9826674 0.1800868 -0.04397247 -0.9826674 0.0800899 -0.2083294 -0.9747741 -0.6145904 -0.4051712 -0.6768419 -0.6042073 0.5883591 -0.5373706 0.1303998 0.7802159 -0.6117672 0.7684614 -0.1876381 -0.6117672 0.3026225 -0.7871801 -0.5373706 -0.7684614 0.1876381 0.6117672 -0.3026225 0.7871801 0.5373706 0.6145904 0.4051712 0.6768419 0.6042073 -0.5883591 0.5373706 -0.1303998 -0.7802159 0.6117672 -0.1800868 0.04397247 0.9826674 -0.0800899 0.2083294 0.9747741 0.1308463 0.08626092 0.9876428 0.1599052 -0.1557109 0.9747741 -0.03055883 -0.1828415 0.9826674</float_array>
          <technique_common>
            <accessor source="#normals-array" count="20" stride="3">
              <param name="X" type="float" />
              <param name="Y" type="float" />
              <param name="Z" type="float" />
            </accessor>
          </technique_common>
        </source>
        <source id="uv">
          <float_array id="uv-array" count="120">-10.72572 15.42442 -10.96185 15.39426 -10.75088 15.61091 -10.96185 15.39426 -10.72572 15.42442 -10.8465 15.2193 -10.72572 15.42442 -10.75088 15.61091 -10.50514 15.56984 -10.72572 15.42442 -10.50514 15.56984 -10.56424 15.32781 -10.72572 15.42442 -10.56424 15.32781 -10.8465 15.2193 -10.96185 15.39426 -10.8465 15.2193 -10.9463 15.27901 15.61091 0.5376723 15.39426 0.5376723 15.52104 0.5925516 -10.50514 0.5376723 -10.75088 0.5376723 -10.60495 0.5925516 15.32781 0.5376723 15.56984 0.5376723 15.45459 0.5925516 -10.8465 0.5376723 -10.56424 0.5376723 -10.70057 0.5925516 15.39426 0.5376723 15.27901 0.5925516 15.52104 0.5925516 -10.75088 0.5376723 -10.88721 0.5925516 -10.60495 0.5925516 -10.50514 15.56984 -10.60495 15.62955 -10.4896 15.45459 15.32781 0.5376723 15.45459 0.5925516 15.23794 0.5925516 -10.8465 0.5376723 -10.70057 0.5925516 -10.9463 0.5925516 -10.88721 15.52104 -10.9463 15.27901 -10.72572 15.42442 -10.60495 15.62955 -10.88721 15.52104 -10.72572 15.42442 -10.4896 15.45459 -10.60495 15.62955 -10.72572 15.42442 -10.70057 15.23794 -10.4896 15.45459 -10.72572 15.42442 -10.9463 15.27901 -10.70057 15.23794 -10.72572 15.42442</float_array>
          <technique_common>
            <accessor source="#uv-array" count="60" stride="2">
              <param name="S" type="float" />
              <param name="T" type="float" />
            </accessor>
          </technique_common>
        </source>
        <vertices id="vertices">
          <input semantic="POSITION" source="#positions" />
        </vertices>
        <triangles count="20" material="m0">
          <input semantic="VERTEX" source="#vertices" offset="0" />
          <input semantic="NORMAL" source="#normals" offset="1" />
          <input semantic="TEXCOORD" source="#uv" offset="2" set="0" />
          <p>0 0 0 1 0 1 2 0 2 1 1 3 0 1 4 5 1 5 0 2 6 2 2 7 3 2 8 0 3 9 3 3 10 4 3 11 0 4 12 4 4 13 5 4 14 1 5 15 5 5 16 10 5 17 2 6 18 1 6 19 6 6 20 3 7 21 2 7 22 7 7 23 4 8 24 3 8 25 8 8 26 5 9 27 4 9 28 9 9 29 1 10 30 10 10 31 6 10 32 2 11 33 6 11 34 7 11 35 3 12 36 7 12 37 8 12 38 4 13 39 8 13 40 9 13 41 5 14 42 9 14 43 10 14 44 6 15 45 10 15 46 11 15 47 7 16 48 6 16 49 11 16 50 8 17 51 7 17 52 11 17 53 9 18 54 8 18 55 11 18 56 10 19 57 9 19 58 11 19 59</p>
        </triangles>
      </mesh>
    </geometry>
  </library_geometries>
  <library_visual_scenes>
    <visual_scene id="Scene">
      <node id="Node" type="NODE">
        <instance_geometry url="#geometry">
          <bind_material>
            <technique_common>
              <instance_material symbol="m0" target="#m0">
                <bind_vertex_input semantic="UVSET0" input_semantic="TEXCOORD" input_set="0" />
              </instance_material>
            </technique_common>
          </bind_material>
        </instance_geometry>
      </node>
    </visual_scene>
  </library_visual_scenes>
  <scene>
    <instance_visual_scene url="#Scene" />
  </scene>
</COLLADA>