<?xml version='1.0' encoding='utf-8'?>
<COLLADA xmlns="http://www.collada.org/2005/11/COLLADASchema" version="1.4.1">
  <asset>
    <created>2026-09-08T00:00:00Z</created>
    <modified>2026-09-08T00:00:00Z</modified>
    <unit name="meter" meter="1" />
    <up_axis>Z_UP</up_axis>
  </asset>
  <library_images>
    <image id="img0">
      <init_from>../materials/textures/sandstone.png</init_from>
    </image>
  </library_images>
  <library_effects>
    <effect id="e0">
      <profile_COMMON>
        <newparam sid="surf0">
          <surface type="2D">
            <init_from>img0</init_from>
          </surface>
        </newparam>
        <newparam sid="samp0">
          <sampler2D>
            <source>surf0</source>
            <wrap_s>WRAP</wrap_s>
            <wrap_t>WRAP</wrap_t>
          </sampler2D>
        </newparam>
        <technique sid="common">
          <phong>
            <ambient>
              <color>0.2205 0.1665 0.108 1</color>
            </ambient>
            <diffuse>
              <texture texture="samp0" texcoord="UVSET0" />
            </diffuse>
            <specular>
              <color>0.02 0.02 0.02 1</color>
            </specular>
            <shininess>
              <float>8</float>
            </shininess>
          </phong>
        </technique>
      </profile_COMMON>
    </effect>
  </library_effects>
  <library_materials>
    <material id="m0" name="m0">
      <instance_effect url="#e0" />
    </material>
  </library_materials>
  <library_geometries>
    <geometry id="geometry" name="2023_sandstone_talus_18">
      <mesh>
        <source id="positions">
          <float_array id="positions-array" count="36">-21.37152 52.04489 1.742021 -21.21186 52.49698 1.849194 -20.8662 52.07029 1.849194 -21.21888 51.60849 1.849194 -21.7825 51.74978 1.849194 -21.77816 52.2989 1.849194 -20.96054 52.33999 2.022603 -20.96488 51.79088 2.022603 -21.53118 51.59279 2.022603 -21.87684 52.01949 2.022603 -21.52417 52.48129 2.022603 -21.37152 52.04489 2.129775</float_array>
          <technique_common>
            <accessor source="#positions-array" count="12" stride="3">
              <param name="X" type="float" />
              <param name="Y" type="float" />
              <param name="Z" type="float" />
            </accessor>
          </technique_common>
        </source>
        <source id="normals">
          <float_array id="normals-array" count="60">0.1971227 0.1596882 -0.9672861 -0.09094533 0.2600053 -0.9613148 0.2125235 -0.1623027 -0.9635827 -0.06502471 -0.2593842 -0.9635827 -0.2536802 0.002005178 -0.9672861 -0.294221 0.841154 -0.4537554 0.6790325 0.5500811 -0.4861334 0.7034595 -0.5372272 -0.4653297 -0.2152339 -0.8585701 -0.4653297 -0.8738573 0.006907278 -0.4861334 0.2152339 0.8585701 0.4653297 0.8738573 -0.006907278 0.4861334 0.294221 -0.841154 0.4537554 -0.6790325 -0.5500811 0.4861334 -0.7034595 0.5372272 0.4653297 0.06502471 0.2593842 0.9635827 0.2536802 -0.002005178 0.9672861 0.09094533 -0.2600053 0.9613148 -0.1971227 -0.1596882 0.9672861 -0.2125235 0.1623027 0.9635827</float_array>
          <technique_common>
            <accessor source="#normals-array" count="20" stride="3">
              <param name="X" type="float" />
              <param name="Y" type="float" />
              <param name="Z" type="float" />
            </accessor>
          </technique_common>
        </source>
        <source id="uv">
          <float_array id="uv-array" count="120">-8.548609 20.81796 -8.484746 20.99879 -8.346482 20.82812 -8.484746 20.99879 -8.548609 20.81796 -8.711266 20.91956 -8.548609 20.81796 -8.346482 20.82812 -8.487551 20.6434 -8.548609 20.81796 -8.487551 20.6434 -8.713002 20.69991 -8.548609 20.81796 -8.713002 20.69991 -8.711266 20.91956 -8.484746 0.7396775 -8.711266 0.7396775 -8.609667 0.8090412 20.82812 0.7396775 20.99879 0.7396775 20.936 0.8090412 20.6434 0.7396775 20.82812 0.7396775 20.71635 0.8090412 -8.713002 0.7396775 -8.487551 0.7396775 -8.612473 0.8090412 20.91956 0.7396775 20.69991 0.7396775 20.80779 0.8090412 -8.484746 0.7396775 -8.609667 0.8090412 -8.384216 0.8090412 20.82812 0.7396775 20.936 0.8090412 20.71635 0.8090412 -8.487551 0.7396775 -8.385953 0.8090412 -8.612473 0.8090412 20.69991 0.7396775 20.63712 0.8090412 20.80779 0.8090412 20.91956 0.7396775 20.80779 0.8090412 20.99251 0.8090412 -8.384216 20.936 -8.609667 20.99251 -8.548609 20.81796 -8.385953 20.71635 -8.384216 20.936 -8.548609 20.81796 -8.612473 20.63712 -8.385953 20.71635 -8.548609 20.81796 -8.750737 20.80779 -8.612473 20.63712 -8.548609 20.81796 -8.609667 20.99251 -8.750737 20.80779 -8.548609 20.81796</float_array>
          <technique_common>
            <accessor source="#uv-array" count="60" stride="2">
              <param name="S" type="float" />
              <param name="T" type="float" />
            </accessor>
          </technique_common>
        </source>
        <vertices id="vertices">
          <input semantic="POSITION" source="#positions" />
        </vertices>
        <triangles count="20" material="m0">
          <input semantic="VERTEX" source="#vertices" offset="0" />
          <input semantic="NORMAL" source="#normals" offset="1" />
          <input semantic="TEXCOORD" source="#uv" offset="2" set="0" />
          <p>0 0 0 1 0 1 2 0 2 1 1 3 0 1 4 5 1 5 0 2 6 2 2 7 3 2 8 0 3 9 3 3 10 4 3 11 0 4 12 4 4 13 5 4 14 1 5 15 5 5 16 10 5 17 2 6 18 1 6 19 6 6 20 3 7 21 2 7 22 7 7 23 4 8 24 3 8 25 8 8 26 5 9 27 4 9 28 9 9 29 1 10 30 10 10 31 6 10 32 2 11 33 6 11 34 7 11 35 3 12 36 7 12 37 8 12 38 4 13 39 8 13 40 9 13 41 5 14 42 9 14 43 10 14 44 6 15 45 10 15 46 11 15 47 7 16 48 6 16 49 11 16 50 8 17 51 7 17 52 11 17 53 9 18 54 8 18 55 11 18 56 10 19 57 9 19 58 11 19 59</p>
        </triangles>
      </mesh>
    </geometry>
  </library_geometries>
  <library_visual_scenes>
    <visual_scene id="Scene">
      <node id="Node" type="NODE">
        <instance_geometry url="#geometry">
          <bind_material>
            <technique_common>
              <instance_material symbol="m0" target="#m0">
                <bind_vertex_input semantic="UVSET0" input_semantic="TEXCOORD" input_set="0" />
              </instance_material>
            </technique_common>
          </bind_material>
        </instance_geometry>
      </node>
    </visual_scene>
  </library_visual_scenes>
  <scene>
    <instance_visual_scene url="#Scene" />
  </scene>
</COLLADA>