<?xml version='1.0' encoding='utf-8'?>
<COLLADA xmlns="http://www.collada.org/2005/11/COLLADASchema" version="1.4.1">
  <asset>
    <created>2026-09-08T00:00:00Z</created>
    <modified>2026-09-08T00:00:00Z</modified>
    <unit name="meter" meter="1" />
    <up_axis>Z_UP</up_axis>
  </asset>
  <library_images>
    <image id="img0">
      <init_from>../materials/textures/sandstone.png</init_from>
    </image>
  </library_images>
  <library_effects>
    <effect id="e0">
      <profile_COMMON>
        <newparam sid="surf0">
          <surface type="2D">
            <init_from>img0</init_from>
          </surface>
        </newparam>
        <newparam sid="samp0">
          <sampler2D>
            <source>surf0</source>
            <wrap_s>WRAP</wrap_s>
            <wrap_t>WRAP</wrap_t>
          </sampler2D>
        </newparam>
        <technique sid="common">
          <phong>
            <ambient>
              <color>0.2205 0.1665 0.108 1</color>
            </ambient>
            <diffuse>
              <texture texture="samp0" texcoord="UVSET0" />
            </diffuse>
            <specular>
              <color>0.02 0.02 0.02 1</color>
            </specular>
            <shininess>
              <float>8</float>
            </shininess>
          </phong>
        </technique>
      </profile_COMMON>
    </effect>
  </library_effects>
  <library_materials>
    <material id="m0" name="m0">
      <instance_effect url="#e0" />
    </material>
  </library_materials>
  <library_geometries>
    <geometry id="geometry" name="2025_sandstone_talus_20">
      <mesh>
        <source id="positions">
          <float_array id="positions-array" count="36">-10.72196 51.76094 3.953562 -10.26929 52.1624 4.037298 -10.57272 51.41826 4.037298 -11.08239 51.14768 4.037298 -11.09396 51.72462 4.037298 -10.59144 52.35174 4.037298 -10.34996 51.79727 4.172785 -10.85249 51.17014 4.172785 -11.17463 51.35948 4.172785 -10.8712 52.10362 4.172785 -10.36153 52.3742 4.172785 -10.72196 51.76094 4.256521</float_array>
          <technique_common>
            <accessor source="#positions-array" count="12" stride="3">
              <param name="X" type="float" />
              <param name="Y" type="float" />
              <param name="Z" type="float" />
            </accessor>
          </technique_common>
        </source>
        <source id="normals">
          <float_array id="normals-array" count="60">0.2765481 -0.1127624 -0.9543615 0.07295985 0.1241366 -0.9895792 0.1028002 -0.1936401 -0.9756719 -0.2191918 -0.004392928 -0.9756719 -0.2330603 0.1867541 -0.9543615 0.3578045 0.6087817 -0.7080684 0.8392524 -0.342205 -0.4225532 0.3932776 -0.7407991 -0.5445635 -0.8385512 -0.01680581 -0.5445635 -0.7072782 0.5667507 -0.4225532 0.8385512 0.01680581 0.5445635 0.7072782 -0.5667507 0.4225532 -0.3578045 -0.6087817 0.7080684 -0.8392524 0.342205 0.4225532 -0.3932776 0.7407991 0.5445635 0.2191918 0.004392928 0.9756719 0.2330603 -0.1867541 0.9543615 -0.07295985 -0.1241366 0.9895792 -0.2765481 0.1127624 0.9543615 -0.1028002 0.1936401 0.9756719</float_array>
          <technique_common>
            <accessor source="#normals-array" count="20" stride="3">
              <param name="X" type="float" />
              <param name="Y" type="float" />
              <param name="Z" type="float" />
            </accessor>
          </technique_common>
        </source>
        <source id="uv">
          <float_array id="uv-array" count="120">-4.288784 20.70438 -4.107718 20.86496 -4.229087 20.56731 -4.107718 20.86496 -4.288784 20.70438 -4.236574 20.9407 -4.288784 20.70438 -4.229087 20.56731 -4.432958 20.45907 -4.288784 20.70438 -4.432958 20.45907 -4.437583 20.68985 -4.288784 20.70438 -4.437583 20.68985 -4.236574 20.9407 -4.107718 20.86496 -4.236574 20.9407 -4.14461 20.94968 20.56731 1.614919 20.86496 1.614919 20.71891 1.669114 -4.432958 1.614919 -4.229087 1.614919 -4.340994 1.669114 20.68985 1.614919 20.45907 1.614919 20.54379 1.669114 20.9407 1.614919 20.68985 1.614919 20.84145 1.669114 20.86496 1.614919 20.94968 1.669114 20.71891 1.669114 20.56731 1.614919 20.71891 1.669114 20.46806 1.669114 -4.432958 20.45907 -4.340994 20.46806 -4.46985 20.54379 20.68985 1.614919 20.54379 1.669114 20.84145 1.669114 -4.236574 1.614919 -4.348481 1.669114 -4.14461 1.669114 -4.139985 20.71891 -4.14461 20.94968 -4.288784 20.70438 -4.340994 20.46806 -4.139985 20.71891 -4.288784 20.70438 -4.46985 20.54379 -4.340994 20.46806 -4.288784 20.70438 -4.348481 20.84145 -4.46985 20.54379 -4.288784 20.70438 -4.14461 20.94968 -4.348481 20.84145 -4.288784 20.70438</float_array>
          <technique_common>
            <accessor source="#uv-array" count="60" stride="2">
              <param name="S" type="float" />
              <param name="T" type="float" />
            </accessor>
          </technique_common>
        </source>
        <vertices id="vertices">
          <input semantic="POSITION" source="#positions" />
        </vertices>
        <triangles count="20" material="m0">
          <input semantic="VERTEX" source="#vertices" offset="0" />
          <input semantic="NORMAL" source="#normals" offset="1" />
          <input semantic="TEXCOORD" source="#uv" offset="2" set="0" />
          <p>0 0 0 1 0 1 2 0 2 1 1 3 0 1 4 5 1 5 0 2 6 2 2 7 3 2 8 0 3 9 3 3 10 4 3 11 0 4 12 4 4 13 5 4 14 1 5 15 5 5 16 10 5 17 2 6 18 1 6 19 6 6 20 3 7 21 2 7 22 7 7 23 4 8 24 3 8 25 8 8 26 5 9 27 4 9 28 9 9 29 1 10 30 10 10 31 6 10 32 2 11 33 6 11 34 7 11 35 3 12 36 7 12 37 8 12 38 4 13 39 8 13 40 9 13 41 5 14 42 9 14 43 10 14 44 6 15 45 10 15 46 11 15 47 7 16 48 6 16 49 11 16 50 8 17 51 7 17 52 11 17 53 9 18 54 8 18 55 11 18 56 10 19 57 9 19 58 11 19 59</p>
        </triangles>
      </mesh>
    </geometry>
  </library_geometries>
  <library_visual_scenes>
    <visual_scene id="Scene">
      <node id="Node" type="NODE">
        <instance_geometry url="#geometry">
          <bind_material>
            <technique_common>
              <instance_material symbol="m0" target="#m0">
                <bind_vertex_input semantic="UVSET0" input_semantic="TEXCOORD" input_set="0" />
              </instance_material>
            </technique_common>
          </bind_material>
        </instance_geometry>
      </node>
    </visual_scene>
  </library_visual_scenes>
  <scene>
    <instance_visual_scene url="#Scene" />
  </scene>
</COLLADA>