<?xml version='1.0' encoding='utf-8'?>
<COLLADA xmlns="http://www.collada.org/2005/11/COLLADASchema" version="1.4.1">
  <asset>
    <created>2026-09-08T00:00:00Z</created>
    <modified>2026-09-08T00:00:00Z</modified>
    <unit name="meter" meter="1" />
    <up_axis>Z_UP</up_axis>
  </asset>
  <library_images>
    <image id="img0">
      <init_from>../materials/textures/sandstone.png</init_from>
    </image>
  </library_images>
  <library_effects>
    <effect id="e0">
      <profile_COMMON>
        <newparam sid="surf0">
          <surface type="2D">
            <init_from>img0</init_from>
          </surface>
        </newparam>
        <newparam sid="samp0">
          <sampler2D>
            <source>surf0</source>
            <wrap_s>WRAP</wrap_s>
            <wrap_t>WRAP</wrap_t>
          </sampler2D>
        </newparam>
        <technique sid="common">
          <phong>
            <ambient>
              <color>0.2205 0.1665 0.108 1</color>
            </ambient>
            <diffuse>
              <texture texture="samp0" texcoord="UVSET0" />
            </diffuse>
            <specular>
              <color>0.02 0.02 0.02 1</color>
            </specular>
            <shininess>
              <float>8</float>
            </shininess>
          </phong>
        </technique>
      </profile_COMMON>
    </effect>
  </library_effects>
  <library_materials>
    <material id="m0" name="m0">
      <instance_effect url="#e0" />
    </material>
  </library_materials>
  <library_geometries>
    <geometry id="geometry" name="2047_southern_low_outcrop">
      <mesh>
        <source id="positions">
          <float_array id="positions-array" count="756">-3.317416 5.411184 -1.792879 -3.809398 6.957265 -1.872158 -5.432288 8.096434 -1.985547 -6.468848 9.247748 -2.08357 -7.083035 10.8754 -2.123456 -8.71467 11.95901 -2.087801 -10.94254 12.02207 -1.992163 -12.98684 11.92559 -1.878272 -14.93718 11.71821 -1.795823 -16.74664 11.17372 -1.780792 -18.741 10.73691 -1.839737 -20.77592 9.995923 -1.946938 -21.44024 8.415929 -2.05562 -21.0699 6.7729 -2.11836 -21.49899 5.411184 -2.107783 -22.13997 3.869198 -2.028504 -21.56456 2.362251 -1.915115 -20.2948 1.109638 -1.817092 -18.72926 0.09632932 -1.777207 -16.72316 -0.3153602 -1.812861 -14.85026 -0.6147719 -1.908499 -12.98684 -1.494144 -2.02239 -10.75335 -1.811496 -2.104839 -8.977745 -0.7334372 -2.11987 -7.715177 0.5320379 -2.060925 -6.17201 1.399898 -1.953724 -4.810449 2.504902 -1.845042 -3.949024 3.888624 -1.782302 -3.928901 5.411184 -0.4119452 -4.493024 6.812919 -0.4912244 -6.003403 7.831869 -0.6046133 -6.832654 8.931661 -0.7026361 -7.414221 10.40858 -0.7425219 -8.961851 11.31471 -0.7068669 -10.95476 11.42246 -0.6112289 -12.81364 11.40245 -0.4973382 -14.58141 11.1278 -0.4148894 -16.20404 10.60755 -0.3998583 -18.0895 10.29421 -0.4588032 -19.93551 9.603194 -0.5660043 -20.43173 8.119016 -0.674686 -20.16296 6.649289 -0.7374262 -20.64527 5.411184 -0.7268492 -21.11214 4.013175 -0.64757 -20.55497 2.659545 -0.5341811 -19.5135 1.467572 -0.4361583 -18.0662 0.5497157 -0.3962726 -16.17781 0.2550269 -0.4319275 -14.50793 -0.06780616 -0.5275655 -12.81364 -0.9358198 -0.6414563 -10.78821 -1.138681 -0.7239051 -9.196381 -0.132888 -0.7389362 -7.976863 0.9345409 -0.6799914 -6.578343 1.741017 -0.5727902 -5.44764 2.792954 -0.4641084 -4.595501 4.026711 -0.4013682 -5.005399 5.411184 0.5923704 -5.600878 6.605065 0.513091 -6.891936 7.471269 0.3997023 -7.508841 8.459507 0.3016795 -8.049368 9.704137 0.2617938 -9.418329 10.42202 0.2974487 -11.09066 10.57565 0.3930865 -12.68768 10.59585 0.5069773 -14.1926 10.27782 0.5894261 -15.5737 9.834505 0.6044572 -17.25153 9.635222 0.5455122 -18.80497 9.011891 0.4383112 -19.15064 7.70843 0.3296297 -19.00327 6.475143 0.2668895 -19.46729 5.411184 0.2774664 -19.75552 4.220497 0.3567454 -19.2815 3.067425 0.4701346 -18.48269 2.000173 0.5681573 -17.20011 1.234735 0.6080431 -15.53907 1.040946 0.5723881 -14.14362 0.7029671 0.4767499 -12.68768 -0.07840295 0.3628592 -10.9619 -0.1696572 0.2804104 -9.607207 0.6898305 0.2653793 -8.500178 1.535473 0.3243242 -7.330302 2.257769 0.4315253 -6.440793 3.190741 0.5402072 -5.627383 4.221767 0.6029474 -4.713389 5.411184 0.9062188 -5.441167 6.625339 0.8269398 -6.728879 7.515237 0.7135511 -7.277855 8.572298 0.6155279 -7.894714 9.810845 0.5756421 -9.326658 10.50219 0.6112971 -11.00185 10.73553 0.7069353 -12.64832 10.76988 0.820826 -14.17782 10.35731 0.9032748 -15.59634 9.929536 0.9183059 -17.37611 9.786954 0.859361 -18.9179 9.101532 0.7521599 -19.21154 7.744066 0.643478 -19.16306 6.508692 0.5807378 -19.65743 5.411184 0.5913148 -19.83602 4.200304 0.6705942 -19.38629 3.016185 0.7839829 -18.65075 1.878083 0.8820057 -17.27281 1.131017 0.9218915 -15.5413 0.9772022 0.8862365 -14.15008 0.5547771 0.7905987 -12.64832 -0.2602476 0.676708 -10.89229 -0.2674624 0.5942592 -9.500854 0.5871587 0.5792281 -8.306526 1.392673 0.638173 -7.158134 2.179598 0.7453741 -6.30671 3.157073 0.8540556 -5.369774 4.185001 0.9167962 -5.540984 5.411184 1.157298 -6.283436 6.47814 1.078019 -7.3677 7.276975 0.96463 -7.798366 8.247385 0.8666072 -8.413493 9.301546 0.8267214 -9.693013 9.892427 0.862376 -11.14455 10.17225 0.9580142 -12.61683 10.19182 1.071905 -13.95989 9.754403 1.154354 -15.23109 9.417992 1.169385 -16.85435 9.333191 1.11044 -18.16166 8.674934 1.003239 -18.39152 7.463785 0.8945569 -18.44704 6.393372 0.8318167 -18.87101 5.411184 0.8423937 -18.93296 4.347133 0.9216731 -18.5924 3.287177 1.035062 -17.99616 2.244845 1.133085 -16.70558 1.626871 1.17297 -15.16019 1.513053 1.137315 -13.96068 1.065415 1.041678 -12.61683 0.3529923 0.9277868 -11.07272 0.4178512 0.845338 -9.825561 1.133092 0.8303069 -8.721878 1.806244 0.8892519 -7.763712 2.554585 0.9964529 -7.038817 3.428491 1.105134 -6.108742 4.314796 1.167875 -5.975825 5.411184 2.349922 -6.729335 6.377823 2.270643 -7.649122 7.123776 2.157254 -8.012514 8.03329 2.059232 -8.643262 8.950444 2.019346 -9.807162 9.488218 2.055001 -11.10697 9.810054 2.150639 -12.46725 9.797815 2.26453 -13.68306 9.34289 2.346979 -14.86665 9.088679 2.36201 -16.38133 9.033836 2.303065 -17.51324 8.381308 2.195864 -17.71937 7.27804 2.087182 -17.85915 6.319533 2.024441 -18.20644 5.411184 2.035018 -18.18936 4.447206 2.114298 -17.95043 3.462197 2.227687 -17.43546 2.486839 2.325709 -16.18633 1.969012 2.365595 -14.77903 1.867985 2.32994 -13.70995 1.392518 2.234302 -12.46725 0.7704533 2.120412 -11.06739 0.8843015 2.037963 -9.905801 1.48533 2.022932 -8.866787 2.078806 2.081877 -8.054522 2.813804 2.189078 -7.395184 3.608329 2.297759 -6.454753 4.398286 2.360499 -7.031201 5.411184 2.726541 -7.700906 6.20619 2.647262 -8.393953 6.842239 2.533873 -8.689847 7.606801 2.43585 -9.269696 8.326934 2.395965 -10.21814 8.785922 2.431619 -11.27863 9.102192 2.527257 -12.42001 9.052463 2.641148 -13.41917 8.642262 2.723597 -14.42459 8.483538 2.738628 -15.69509 8.442405 2.679683 -16.57879 7.859088 2.572482 -16.7666 6.95617 2.4638 -16.94898 6.174157 2.40106 -17.1839 5.411184 2.411637 -17.12599 4.618389 2.490916 -16.99858 3.78374 2.604305 -16.57676 2.964476 2.702328 -15.48318 2.576091 2.742213 -14.33252 2.479938 2.706558 -13.46372 2.036037 2.610921 -12.42001 1.558807 2.49703 -11.26795 1.685651 2.414581 -10.28082 2.1325 2.39955 -9.405486 2.621113 2.458495 -8.787327 3.272944 2.565696 -8.22301 3.919368 2.674378 -7.375478 4.561355 2.737118 -8.033843 5.411184 3.605317 -8.58481 6.038714 3.526038 -9.076721 6.560373 3.412649 -9.323638 7.16887 3.314626 -9.825612 7.7104 3.274741 -10.55769 8.096585 3.310395 -11.39193 8.379393 3.406033 -12.30979 8.299548 3.519924 -13.09793 7.959854 3.602373 -13.9191 7.877717 3.617404 -14.93036 7.836626 3.558459 -15.59082 7.34243 3.451258 -15.76841 6.64054 3.342576 -15.95559 6.025373 3.279836 -16.08812 5.411184 3.290413 -16.02433 4.785413 3.369692 -15.98283 4.10561 3.483081 -15.63564 3.453555 3.581104 -14.72458 3.176194 3.620989 -13.83148 3.078935 3.585335 -13.14989 2.694493 3.489697 -12.30979 2.354722 3.375806 -11.39991 2.468782 3.293357 -10.59329 2.780351 3.278326 -9.896709 3.177769 3.337271 -9.4477 3.726522 3.444472 -8.970301 4.224166 3.553154 -8.253463 4.727832 3.615894 -9.92618 5.411184 4.484093 -10.22034 5.744617 4.404814 -10.45246 6.032195 4.291425 -10.59863 6.353522 4.193403 -10.88447 6.628376 4.153517 -11.26024 6.850882 4.189172 -11.70425 7.01297 4.28481 -12.19958 6.945982 4.3987 -12.61813 6.764688 4.481149 -13.06895 6.743634 4.49618 -13.60423 6.711248 4.437235 -13.93745 6.434111 4.330034 -14.05404 6.070346 4.221352 -14.16881 5.742931 4.158612 -14.20681 5.411184 4.16919 -14.17323 5.078692 4.248468 -14.18203 4.706524 4.361857 -13.98222 4.3619 4.45988 -13.47757 4.228346 4.499766 -13.01567 4.160381 4.46411 -12.6533 3.943932 4.368473 -12.19958 3.786473 4.254582 -11.71591 3.847079 4.172133 -11.27288 3.990852 4.157102 -10.9059 4.213832 4.216047 -10.68579 4.52015 4.323248 -10.40884 4.774668 4.43193 -10.01076 5.042443 4.494671</float_array>
          <technique_common>
            <accessor source="#positions-array" count="252" stride="3">
              <param name="X" type="float" />
              <param name="Y" type="float" />
              <param name="Z" type="float" />
            </accessor>
          </technique_common>
        </source>
        <source id="normals">
          <float_array id="normals-array" count="1422">0.8447138 0.2918052 0.4486739 0.8516193 0.3640592 0.3771013 0.5182888 0.7744719 0.362726 0.5095165 0.7925383 0.3350762 0.6876187 0.6471161 0.3292738 0.7125246 0.5733025 0.4045156 0.8816264 0.3406809 0.326606 0.8806915 0.3552531 0.3133331 0.5040605 0.7445852 0.4376254 0.4735087 0.7937018 0.3818729 0.04302914 0.9162749 0.3982321 0.06934746 0.8992215 0.4319624 -0.02419407 0.9338631 0.3568114 0.01453308 0.9171197 0.3983468 -0.07936339 0.9090336 0.4090959 -0.1262579 0.9223129 0.3652368 -0.2538039 0.8558762 0.4506211 -0.2710077 0.8578696 0.4365944 -0.2082227 0.8985651 0.3862952 -0.1611739 0.8893215 0.4279372 -0.3279146 0.8372131 0.43766 -0.3385013 0.8378436 0.428293 -0.7480228 0.2729014 0.6049684 -0.8017405 0.2275841 0.5526461 -0.8262492 -0.2062542 0.5241865 -0.8127621 -0.1723862 0.5565076 -0.8207368 0.2625612 0.507398 -0.7819473 0.309233 0.5412332 -0.7692295 0.3473313 0.5363273 -0.8115426 0.299469 0.5017139 -0.7572341 -0.2435402 0.6060402 -0.7605254 -0.2633242 0.5935162 -0.6247316 -0.5935851 0.5073137 -0.6382367 -0.5102438 0.5764592 -0.4867877 -0.7333955 0.4745195 -0.4831069 -0.7415418 0.4655358 -0.173726 -0.8841104 0.4337835 -0.1366104 -0.9198911 0.3676112 -0.1256629 -0.9112982 0.3921025 -0.1480142 -0.8920908 0.4269259 -0.3739411 -0.8425911 0.3875671 -0.3909861 -0.8184215 0.4210892 -0.1111146 -0.8945114 0.4330161 -0.07669378 -0.9209826 0.3819804 0.4751852 -0.7768878 0.4130912 0.4943127 -0.7764877 0.3907964 0.6625182 -0.6760225 0.3225883 0.5931843 -0.6996913 0.3982016 0.4438878 -0.8307722 0.3358291 0.4530344 -0.8291492 0.3275233 0.5556191 -0.7247048 0.4075418 0.6182245 -0.7012044 0.3551209 0.7664896 -0.4956889 0.4083946 0.7263311 -0.5242711 0.4445029 0.8557266 -0.3523515 0.3789201 0.8180809 -0.390668 0.4220452 0.6128783 0.2882615 0.7357211 0.6358014 0.3623771 0.6814979 0.4120659 0.6784781 0.6081687 0.4106932 0.6901295 0.5958627 0.5900196 0.50129 0.632918 0.5905777 0.4360205 0.6790464 0.7013191 0.2937008 0.6495317 0.7057195 0.3266328 0.6287058 0.370136 0.6044137 0.7054668 0.3555902 0.6444668 0.6769181 0.07209258 0.7576896 0.6486209 0.1053362 0.7190103 0.6869705 0.02979951 0.7811516 0.6236298 0.05582312 0.7595803 0.6480135 -0.0847107 0.744162 0.6626062 -0.1272159 0.7654912 0.630745 -0.2188083 0.7020293 0.6777004 -0.2178726 0.7017647 0.6782756 -0.1469093 0.7663387 0.625414 -0.1121514 0.7521707 0.6493545 -0.2845742 0.6510614 0.7036594 -0.3104007 0.6551007 0.6888356 -0.5837125 0.136547 0.8003966 -0.6299976 0.1028886 0.7697512 -0.6599882 -0.1520987 0.7357184 -0.6354109 -0.114774 0.7635967 -0.6280265 0.250942 0.7366212 -0.606341 0.2718695 0.7472868 -0.6008407 0.2438238 0.7612755 -0.635227 0.2033775 0.7450667 -0.5760441 -0.1701336 0.7995172 -0.5721977 -0.1560528 0.8051318 -0.526335 -0.3980909 0.7513289 -0.5221535 -0.3181378 0.7912926 -0.3841215 -0.5742737 0.7229525 -0.3789332 -0.5981511 0.7061338 -0.1046735 -0.7498054 0.6533264 -0.07917856 -0.7904295 0.6074141 -0.1124072 -0.7681626 0.6303102 -0.1332777 -0.7375931 0.6619618 -0.3164585 -0.7014854 0.6385706 -0.3205923 -0.6916889 0.6471376 -0.04431351 -0.7227492 0.6896883 -0.009133086 -0.759939 0.6499302 0.3995306 -0.6222601 0.6731773 0.4026632 -0.6229339 0.670683 0.4987982 -0.6041833 0.62142 0.4271388 -0.6059451 0.6711058 0.3540678 -0.6968962 0.6236759 0.3741591 -0.6968296 0.6119097 0.4621646 -0.5671982 0.6816818 0.5023065 -0.5560457 0.6621943 0.5832749 -0.4376578 0.6842851 0.5318496 -0.4627511 0.7092231 0.6491703 -0.3072488 0.6958277 0.628279 -0.3222502 0.7081103 0.8152312 0.3774502 -0.4392374 0.6810712 0.3668651 -0.6336813 0.5373899 0.7506547 -0.3843561 0.5558708 0.7620489 -0.332098 0.6830852 0.3635868 -0.633403 0.8011002 0.3726084 -0.4684032 0.7973939 0.3301095 -0.5051639 0.7004814 0.3284719 -0.6335866 0.4299228 0.8366862 -0.3392973 0.3769263 0.804387 -0.4592256 0.05452987 0.8833843 -0.4654661 0.1169617 0.953513 -0.2777283 -0.02333547 0.8755535 -0.4825573 -0.01258768 0.8924007 -0.4510682 -0.2132684 0.9494309 -0.2304289 -0.255579 0.8587472 -0.4441087 -0.2948196 0.9084416 -0.2963364 -0.2836208 0.9326775 -0.2228718 -0.08859713 0.8825315 -0.4618319 -0.06667418 0.9536138 -0.2935564 -0.3247072 0.8721555 -0.3659371 -0.3189261 0.797493 -0.5121436 -0.9399339 0.2669961 -0.2126907 -0.8947539 0.2244537 -0.3860517 -0.8916051 -0.08390502 -0.4449723 -0.9818893 -0.02902217 -0.1872194 -0.8026978 0.3452424 -0.486296 -0.814323 0.3624396 -0.4533382 -0.9493288 0.2145096 -0.2296965 -0.8516725 0.09183076 -0.5159662 -0.8544621 -0.3855093 -0.3482486 -0.896062 -0.3645767 -0.2532919 -0.6429336 -0.5318373 -0.5511673 -0.7744232 -0.5302263 -0.3451503 -0.4668813 -0.801756 -0.3731075 -0.3985348 -0.7623107 -0.5099533 -0.1177777 -0.9730071 -0.1984581 -0.09025317 -0.939203 -0.3312884 -0.2407839 -0.8757394 -0.4184539 -0.2971952 -0.9352986 -0.1920719 -0.4571683 -0.7932163 -0.40225 -0.4624195 -0.7980658 -0.3863408 -0.06415135 -0.9567023 -0.2839107 -0.02697059 -0.8664045 -0.4986139 0.4839071 -0.7699897 -0.4158723 0.4861857 -0.797845 -0.3564644 0.5071858 -0.6224023 -0.5961358 0.5216629 -0.7427476 -0.4197546 0.497315 -0.7377221 -0.4565565 0.4919425 -0.6370733 -0.5934055 0.6950417 -0.6203216 -0.3634806 0.6778826 -0.534323 -0.5049496 0.6508601 -0.477571 -0.5901755 0.6991426 -0.6149974 -0.3646614 0.6823343 -0.3624599 -0.6348565 0.6938825 -0.3767344 -0.613676 0.2456332 0.2090411 0.9465549 0.2800593 0.2634734 0.9231189 0.2003281 0.4036301 0.8927213 0.1980531 0.3960848 0.8966001 0.2963675 0.2396481 0.9245188 0.2844618 0.2204862 0.9329884 0.2863151 0.1729483 0.9423972 0.3111647 0.2165836 0.9253476 0.1635078 0.2900326 0.9429455 0.1634774 0.297238 0.9407044 0.1056706 0.382395 0.9179367 0.1225685 0.3140222 0.9414707 0.07154181 0.4006474 0.913435 0.07617439 0.3897841 0.9177504 -0.04941634 0.3686997 0.9282341 -0.07208872 0.3940495 0.9162577 -0.1040481 0.3773657 0.9202006 -0.08353448 0.3572184 0.9302779 -0.06400453 0.4258075 0.9025472 -0.05442181 0.4083769 0.9111896 -0.1764345 0.2478859 0.9525878 -0.2142143 0.2726808 0.9379539 -0.2965897 -0.01229789 0.9549258 -0.3265801 -0.02280919 0.9448943 -0.3390201 -0.06098181 0.9388006 -0.3049974 -0.039952 0.9515148 -0.3009454 0.1446438 0.9426081 -0.3069834 0.1426452 0.9409642 -0.282084 0.1040475 0.953731 -0.3029548 0.08833812 0.9489019 -0.2950806 -0.02059812 0.9552503 -0.2702711 0.01614375 0.9626489 -0.3002845 -0.1124896 0.9471934 -0.2791348 -0.06960606 0.9577258 -0.1769548 -0.2759477 0.9447433 -0.1801555 -0.3161204 0.9314569 -0.0180061 -0.4136957 0.9102371 -0.01177125 -0.4409625 0.8974483 -0.06551229 -0.4206221 0.9048675 -0.06926548 -0.382457 0.9213734 -0.1309771 -0.3698704 0.9198048 -0.1334947 -0.3969807 0.9080669 0.04284323 -0.3337295 0.9416948 0.06524824 -0.3809618 0.9222856 0.1997477 -0.3088609 0.9298956 0.1810311 -0.2959531 0.937891 0.1960335 -0.3574756 0.9131167 0.1548628 -0.3352843 0.9293019 0.1595889 -0.3582105 0.9199003 0.1850431 -0.367491 0.9114326 0.2128682 -0.2891882 0.9333045 0.2083983 -0.2890628 0.9343516 0.2608268 -0.2938655 0.9195719 0.2127904 -0.2893639 0.9332678 0.287224 -0.1455864 0.9467349 0.295594 -0.1439606 0.9444043 0.7625808 0.5553052 0.3318232 0.7478326 0.6053093 0.2726664 0.5606382 0.7942176 0.2343142 0.5830949 0.7618564 0.2820909 0.8800951 0.414055 0.2323598 0.8871532 0.3823124 0.2584501 0.8184643 0.4890057 0.3016447 0.7943822 0.5568657 0.2426057 0.4035646 0.8540993 0.3281006 0.4043597 0.8533309 0.3291196 0.1994697 0.9393474 0.278995 0.2496544 0.909579 0.3321729 0.03655896 0.9502466 0.3093458 0.01568065 0.9568661 0.2901059 -0.2672354 0.8901144 0.3691634 -0.3105389 0.8902963 0.3330736 -0.2383042 0.9150259 0.3254821 -0.1915777 0.9132362 0.3595797 -0.05990554 0.9623022 0.2653031 -0.04558286 0.9592651 0.2788058 -0.4338043 0.7913983 0.4307001 -0.4874102 0.7814977 0.3894773 -0.8571655 0.1176842 0.5014157 -0.8611733 0.1120616 0.4958051 -0.896255 0.02051642 0.4430645 -0.8611499 0.09286867 0.4997963 -0.8159394 0.3571038 0.4546645 -0.8397483 0.3261179 0.4341311 -0.8485659 0.08827215 0.5216741 -0.8732732 0.02453958 0.4866125 -0.8452665 -0.2194579 0.4871989 -0.8347068 -0.1411913 0.5322871 -0.7907796 -0.4095682 0.4548862 -0.7939711 -0.3707874 0.4817952 -0.4041075 -0.8174516 0.410451 -0.3684596 -0.861997 0.3481361 -0.06303755 -0.9508624 0.3031288 -0.06076043 -0.9521279 0.2996007 -0.3103246 -0.8981215 0.3115709 -0.3501162 -0.8612961 0.3682224 -0.4162865 -0.8406358 0.3464635 -0.4005363 -0.8586901 0.3197218 0.05845926 -0.9297994 0.3633945 0.09545012 -0.943211 0.3181859 0.4803982 -0.8318261 0.2779978 0.4377994 -0.8379724 0.3257821 0.4943501 -0.8324433 0.250312 0.4642189 -0.8404764 0.2794641 0.5649201 -0.7669286 0.3044436 0.6325847 -0.7347887 0.24479 0.7130716 -0.6297937 0.3080402 0.7101957 -0.6318303 0.3105037 0.6608649 -0.7105951 0.2414793 0.6036099 -0.7417964 0.2922211 0.8459184 -0.4350786 0.3084294 0.8688387 -0.4078823 0.2806266 0.2967486 0.3055241 0.9047626 0.3144862 0.3528005 0.8812663 0.2608732 0.4513797 0.8533473 0.2577228 0.4346539 0.8629339 0.3528942 0.238507 0.9047542 0.3583243 0.2538599 0.8984202 0.3044784 0.2493758 0.9192957 0.3116867 0.3008888 0.9012865 0.198863 0.3702356 0.9074024 0.2031076 0.3486224 0.9149917 0.1716779 0.4299634 0.8863736 0.1932079 0.3734859 0.9072921 0.07031314 0.453416 0.8885212 0.06871425 0.4555584 0.88755 -0.1042155 0.440157 0.8918525 -0.1083683 0.4428508 0.8900222 -0.09139296 0.4772006 0.8740291 -0.05861893 0.4554398 0.8883346 -0.05164983 0.4930888 0.8684444 -0.05626824 0.4976007 0.8655793 -0.2356563 0.2547016 0.9378663 -0.2832057 0.2593589 0.9233241 -0.3737989 -0.02150244 0.9272605 -0.3880987 -0.03014778 0.9211246 -0.3829721 -0.004615363 0.9237484 -0.3645728 0.01032078 0.9311177 -0.3421323 0.1416247 0.9289176 -0.3623523 0.1243718 0.9237058 -0.3431423 0.07094502 0.9366003 -0.3448058 0.06843401 0.9361761 -0.3726564 0.0164149 0.9278242 -0.343589 0.07472785 0.9361423 -0.3554541 -0.09421794 0.929933 -0.3474433 -0.0669853 0.9353054 -0.1787904 -0.3607799 0.9153534 -0.1740365 -0.3975118 0.9009415 -0.01533733 -0.5159272 0.8564951 -0.01631372 -0.5133894 0.8580007 -0.1279602 -0.464026 0.8765307 -0.1316332 -0.4481361 0.884221 -0.1285621 -0.4212045 0.8978076 -0.1181649 -0.4674988 0.8760604 0.08659742 -0.4059132 0.9097996 0.1117473 -0.4338074 0.894049 0.215784 -0.3947025 0.893111 0.1856005 -0.3795241 0.9063741 0.1919644 -0.4239854 0.885091 0.1734734 -0.4183274 0.8915768 0.224195 -0.3787304 0.897942 0.2437849 -0.3780727 0.8931013 0.2753358 -0.350915 0.8950133 0.2382806 -0.3596882 0.9021346 0.2833635 -0.4063319 0.8686769 0.2455633 -0.4100296 0.8783931 0.3324239 -0.1474525 0.9315321 0.3550987 -0.1323373 0.9254144 0.547414 0.52604 0.6508609 0.5466413 0.5587411 0.623692 0.4924116 0.6414174 0.588315 0.5001191 0.6060463 0.6185376 0.6717842 0.3440897 0.6559789 0.6698891 0.3750499 0.6407699 0.5491042 0.4800302 0.6841459 0.5312141 0.5404688 0.6524608 0.3478619 0.6676918 0.6581639 0.3682399 0.635393 0.6787305 0.2732968 0.7253315 0.6318252 0.3083238 0.6869835 0.6580199 0.03150744 0.7609659 0.6480263 0.01181492 0.7715158 0.6361005 -0.2425824 0.7212765 0.6487789 -0.2430642 0.7213474 0.6485196 -0.114955 0.7857274 0.6077975 -0.0661657 0.7762326 0.6269649 -0.0536334 0.7997287 0.5979611 -0.06714671 0.80299 0.5921979 -0.4188158 0.4945237 0.7616033 -0.4753562 0.4745826 0.7408156 -0.6521516 0.04455788 0.7567779 -0.6500302 0.04702664 0.7584519 -0.6520467 0.09168492 0.7526148 -0.6355306 0.1155179 0.7633849 -0.6130733 0.19936 0.7644584 -0.6421015 0.1515032 0.7515002 -0.6262416 0.03215771 0.7789656 -0.6252481 0.03503054 0.7796395 -0.6547678 0.002730017 0.7558252 -0.6293731 0.09032283 0.7718363 -0.6028727 -0.218602 0.7673054 -0.6024756 -0.2048316 0.771406 -0.2647018 -0.6745494 0.6891416 -0.2453843 -0.7113004 0.658664 -0.04981184 -0.8118302 0.581765 -0.06297853 -0.7980246 0.599325 -0.2934397 -0.7118059 0.6381422 -0.3028344 -0.6982706 0.6486212 -0.2483061 -0.7022743 0.6671993 -0.2147141 -0.743268 0.6336013 0.1284386 -0.7307259 0.6704798 0.1521758 -0.7419757 0.6529277 0.327115 -0.7013297 0.6333502 0.2808572 -0.6951844 0.6616932 0.3447418 -0.69386 0.6322273 0.3423509 -0.6940041 0.6333673 0.4873118 -0.5708196 0.6608269 0.5247393 -0.5553888 0.6451294 0.5224559 -0.5636603 0.6397866 0.4674143 -0.59182 0.6567138 0.4609394 -0.6658524 0.5866647 0.4253382 -0.6797855 0.5974773 0.6382794 -0.2495118 0.7282468 0.6726657 -0.2051814 0.7109299 0.3672632 0.4268559 0.8263848 0.3631954 0.5063723 0.7820973 0.3297865 0.4867976 0.8088689 0.3134246 0.5563976 0.7695367 0.402217 0.3024187 0.8641553 0.3682469 0.420472 0.829215 0.3350974 0.3743051 0.8646418 0.3031475 0.4380735 0.846282 0.2762783 0.445086 0.8518032 0.3148885 0.3933746 0.8637717 0.2588006 0.4799465 0.8382563 0.3328413 0.4109986 0.848703 0.05607597 0.5468857 0.8353272 0.1249795 0.5163082 0.8472343 -0.1491798 0.5461813 0.8242763 -0.06828399 0.5393461 0.8393111 -0.04436137 0.5909177 0.8055112 -0.0007881572 0.592175 0.805809 -0.07087033 0.5606945 0.8249843 -0.1242466 0.5478931 0.8272702 -0.3394523 0.2574027 0.9047187 -0.4332288 0.1792219 0.883285 -0.4614704 -0.02057317 0.886917 -0.5068675 -0.0935698 0.8569306 -0.4357524 0.04088555 0.8991375 -0.4586363 -0.009499291 0.8885733 -0.4208141 0.1063234 0.9008945 -0.4300435 0.07793528 0.899438 -0.4367478 0.06910659 0.8969257 -0.4169981 0.1707461 0.8927252 -0.4669533 0.1176807 0.8764165 -0.4475103 0.2703053 0.8524492 -0.4272988 -0.09231742 0.8993849 -0.4388639 0.001130759 0.8985529 -0.1864918 -0.4901296 0.8514656 -0.1939034 -0.4766027 0.857468 -0.03538917 -0.6140265 0.7884916 -0.03053608 -0.619172 0.7846614 -0.1752404 -0.5188439 0.8367149 -0.1242467 -0.5676137 0.8138657 -0.09306853 -0.5156195 0.8517481 0.004974553 -0.5766073 0.8170063 0.1407617 -0.5091071 0.8491149 0.206505 -0.5233261 0.8267318 0.2072489 -0.4958591 0.8433099 0.1898633 -0.4965093 0.8470127 0.2151036 -0.5013329 0.8380906 0.1758758 -0.511751 0.8409391 0.3233529 -0.4293178 0.8432847 0.2485977 -0.4742141 0.8445829 0.3154564 -0.4812377 0.8178616 0.2053312 -0.5647462 0.7993127 0.3020375 -0.528687 0.7932612 0.2593699 -0.5685098 0.7807201 0.4181204 -0.1204419 0.9003716 0.4353883 -0.0741258 0.8971858 -0.1843906 0.07041463 0.9803274 0.2436194 0.382682 0.8911813 -0.4636975 -0.02506983 0.8856388 -0.2206641 0.1007404 0.9701334 0.3382852 0.4378195 0.8329929 0.2203526 0.0283289 0.9750088 0.04961734 -0.994177 0.09565724 0.2128678 -0.04760992 0.9759204 -0.01374532 0.1105591 0.9937745 0.08494232 -0.3829569 0.9198526 -0.341105 -0.0300234 0.9395456 -0.023742 -0.3357078 0.9416669 0.2026036 0.105937 0.9735138 0.1828248 -0.4732816 0.8617306 0.1858105 -0.1651714 0.9686036 0.1618309 0.7886478 0.5931656 0.1931584 -0.1075399 0.9752564 -0.06383295 -0.1246102 0.9901503 -0.04145659 -0.2737983 0.9608933 -0.6840804 0.1013851 0.7223262 0.03207501 0.2906013 0.9563065 -0.6867917 0.1022268 0.7196297 -0.1110469 -0.1385702 0.9841072 0.05765052 0.2965248 0.9532835 0.2717604 0.2653211 0.9250681 -0.1484516 0.04485674 0.9879018</float_array>
          <technique_common>
            <accessor source="#normals-array" count="474" stride="3">
              <param name="X" type="float" />
              <param name="Y" type="float" />
              <param name="Z" type="float" />
            </accessor>
          </technique_common>
        </source>
        <source id="uv">
          <float_array id="uv-array" count="2844">2.164473 -0.7171517 2.782906 -0.7488634 2.725168 -0.1964898 2.164473 -0.7171517 2.725168 -0.1964898 2.164473 -0.1647781 -1.523759 -0.7488634 -2.172915 -0.7942189 -2.401361 -0.2418453 -1.523759 -0.7488634 -2.401361 -0.2418453 -1.79721 -0.1964898 3.238573 -0.7942189 3.699099 -0.833428 3.572664 -0.2810545 3.238573 -0.7942189 3.572664 -0.2810545 3.132748 -0.2418453 3.699099 -0.833428 4.350161 -0.8493823 4.16343 -0.2970088 3.699099 -0.833428 4.16343 -0.2970088 3.572664 -0.2810545 -2.833214 -0.8493823 -3.485868 -0.8351203 -3.58474 -0.2827468 -2.833214 -0.8493823 -3.58474 -0.2827468 -2.965688 -0.2970088 -3.485868 -0.8351203 -4.377014 -0.7968651 -4.381902 -0.2444916 -3.485868 -0.8351203 -4.381902 -0.2444916 -3.58474 -0.2827468 -4.377014 -0.7968651 -5.194736 -0.7513088 -5.125457 -0.1989353 -4.377014 -0.7968651 -5.125457 -0.1989353 -4.381902 -0.2444916 -5.194736 -0.7513088 -5.974872 -0.7183293 -5.832564 -0.1659558 -5.194736 -0.7513088 -5.832564 -0.1659558 -5.125457 -0.1989353 -5.974872 -0.7183293 -6.698655 -0.7123169 -6.481617 -0.1599433 -5.974872 -0.7183293 -6.481617 -0.1599433 -5.832564 -0.1659558 -6.698655 -0.7123169 -7.496402 -0.7358948 -7.235799 -0.1835213 -6.698655 -0.7123169 -7.235799 -0.1835213 -6.481617 -0.1599433 -7.496402 -0.7358948 -8.310367 -0.7787753 -7.974204 -0.2264017 -7.496402 -0.7358948 -7.974204 -0.2264017 -7.235799 -0.1835213 3.998369 -0.7787753 3.366372 -0.822248 3.247606 -0.2698744 3.998369 -0.7787753 3.247606 -0.2698744 3.841278 -0.2264017 3.366372 -0.822248 2.70916 -0.8473441 2.659716 -0.2949705 3.366372 -0.822248 2.659716 -0.2949705 3.247606 -0.2698744 2.70916 -0.8473441 2.164473 -0.8431133 2.164473 -0.2907397 2.70916 -0.8473441 2.164473 -0.2907397 2.659716 -0.2949705 2.164473 -0.8431133 1.547679 -0.8114016 1.60527 -0.259028 2.164473 -0.8431133 1.60527 -0.259028 2.164473 -0.2907397 1.547679 -0.8114016 0.9449003 -0.7660461 1.063818 -0.2136724 1.547679 -0.8114016 1.063818 -0.2136724 1.60527 -0.259028 0.9449003 -0.7660461 0.4438552 -0.7268369 0.587029 -0.1744633 0.9449003 -0.7660461 0.587029 -0.1744633 1.063818 -0.2136724 -8.117919 -0.7268369 -7.491705 -0.7108826 -7.226482 -0.158509 -8.117919 -0.7268369 -7.226482 -0.158509 -7.805399 -0.1744633 -7.491705 -0.7108826 -6.689263 -0.7251446 -6.471124 -0.172771 -7.491705 -0.7108826 -6.471124 -0.172771 -7.226482 -0.158509 -6.689263 -0.7251446 -5.940105 -0.7633998 -5.803172 -0.2110262 -6.689263 -0.7251446 -5.803172 -0.2110262 -6.471124 -0.172771 -5.940105 -0.7633998 -5.194736 -0.8089561 -5.125457 -0.2565825 -5.940105 -0.7633998 -5.125457 -0.2565825 -5.803172 -0.2110262 -5.194736 -0.8089561 -4.301339 -0.8419356 -4.315283 -0.289562 -5.194736 -0.8089561 -4.315283 -0.289562 -5.125457 -0.2565825 -4.301339 -0.8419356 -3.591098 -0.8479481 -3.678552 -0.2955745 -4.301339 -0.8419356 -3.678552 -0.2955745 -4.315283 -0.289562 -3.591098 -0.8479481 -3.086071 -0.8243701 -3.190745 -0.2719966 -3.591098 -0.8479481 -3.190745 -0.2719966 -3.678552 -0.2955745 -3.086071 -0.8243701 -2.468804 -0.7814896 -2.631337 -0.2291161 -3.086071 -0.8243701 -2.631337 -0.2291161 -3.190745 -0.2719966 -2.468804 -0.7814896 -1.92418 -0.738017 -2.179056 -0.1856434 -2.468804 -0.7814896 -2.179056 -0.1856434 -2.631337 -0.2291161 1.001961 -0.738017 1.55545 -0.7129208 1.610685 -0.1605473 1.001961 -0.738017 1.610685 -0.1605473 1.117182 -0.1856434 1.55545 -0.7129208 2.164473 -0.7171517 2.164473 -0.1647781 1.55545 -0.7129208 2.164473 -0.1647781 1.610685 -0.1605473 -1.57156 2.164473 -1.79721 2.725168 -2.240351 2.642026 -1.57156 2.164473 -2.240351 2.642026 -2.00216 2.164473 -1.79721 -0.1964898 -2.401361 -0.2418453 -2.756775 0.1598809 -1.79721 -0.1964898 -2.756775 0.1598809 -2.240351 0.2052364 -2.401361 3.132748 -2.733062 3.572664 -3.003536 3.383803 -2.401361 3.132748 -3.003536 3.383803 -2.756775 2.988508 3.572664 -0.2810545 4.16343 -0.2970088 3.881655 0.1047175 3.572664 -0.2810545 3.881655 0.1047175 3.383803 0.1206718 -2.965688 4.16343 -3.58474 4.525884 -3.767332 4.168809 -2.965688 4.16343 -3.767332 4.168809 -3.219747 3.881655 -3.58474 -0.2827468 -4.381902 -0.2444916 -4.436263 0.1572346 -3.58474 -0.2827468 -4.436263 0.1572346 -3.767332 0.1189795 -4.381902 -0.2444916 -5.125457 -0.1989353 -5.075073 0.2027909 -4.381902 -0.2444916 -5.075073 0.2027909 -4.436263 0.1572346 -5.125457 -0.1989353 -5.832564 -0.1659558 -5.677042 0.2357704 -5.125457 -0.1989353 -5.677042 0.2357704 -5.075073 0.2027909 -5.832564 -0.1659558 -6.481617 -0.1599433 -6.229482 0.2417829 -5.832564 -0.1659558 -6.229482 0.2417829 -5.677042 0.2357704 -6.481617 -0.1599433 -7.235799 -0.1835213 -6.900614 0.2182049 -6.481617 -0.1599433 -6.900614 0.2182049 -6.229482 0.2417829 -7.235799 4.117684 -7.974204 3.841278 -7.52199 3.604756 -7.235799 4.117684 -7.52199 3.604756 -6.900614 3.854089 -7.974204 3.841278 -8.172691 3.247606 -7.660256 3.083372 -7.974204 3.841278 -7.660256 3.083372 -7.52199 3.604756 -8.172691 3.247606 -8.065184 2.659716 -7.601308 2.590057 -8.172691 3.247606 -7.601308 2.590057 -7.660256 3.083372 -8.065184 2.659716 -8.258106 2.164473 -7.786916 2.164473 -8.065184 2.659716 -7.786916 2.164473 -7.601308 2.590057 -8.258106 2.164473 -8.444854 1.60527 -7.902207 1.688199 -8.258106 2.164473 -7.902207 1.688199 -7.786916 2.164473 -8.444854 1.60527 -8.221986 1.063818 -7.712599 1.22697 -8.444854 1.60527 -7.712599 1.22697 -7.902207 1.688199 -8.221986 1.063818 -7.805399 0.587029 -7.393078 0.8000692 -8.221986 1.063818 -7.393078 0.8000692 -7.712599 1.22697 -7.805399 0.587029 -7.226482 0.2198863 -6.880046 0.4938941 -7.805399 0.587029 -6.880046 0.4938941 -7.393078 0.8000692 -7.226482 -0.158509 -6.471124 -0.172771 -6.215628 0.2289553 -7.226482 -0.158509 -6.215628 0.2289553 -6.880046 0.2432172 -6.471124 -0.172771 -5.803172 -0.2110262 -5.657447 0.1907 -6.471124 -0.172771 -5.657447 0.1907 -6.215628 0.2289553 -5.803172 -0.2110262 -5.125457 -0.2565825 -5.075073 0.1451437 -5.803172 -0.2110262 -5.075073 0.1451437 -5.657447 0.1907 -5.125457 -0.2565825 -4.315283 -0.289562 -4.38476 0.1121642 -5.125457 -0.2565825 -4.38476 0.1121642 -5.075073 0.1451437 -4.315283 -0.4554726 -3.678552 -0.0531552 -3.842883 0.2759322 -4.315283 -0.4554726 -3.842883 0.2759322 -4.38476 -0.06786289 -3.678552 -0.0531552 -3.190745 0.3738163 -3.400071 0.6141893 -3.678552 -0.0531552 -3.400071 0.6141893 -3.842883 0.2759322 -3.190745 -0.2719966 -2.631337 -0.2291161 -2.932121 0.1726101 -3.190745 -0.2719966 -2.932121 0.1726101 -3.400071 0.1297297 -2.631337 0.6964066 -2.179056 1.117182 -2.576317 1.276296 -2.631337 0.6964066 -2.576317 1.276296 -2.932121 0.9031076 -2.179056 1.117182 -1.8382 1.610685 -2.250953 1.688707 -2.179056 1.117182 -2.250953 1.688707 -2.576317 1.276296 -1.8382 1.610685 -1.57156 2.164473 -2.00216 2.164473 -1.8382 1.610685 -2.00216 2.164473 -2.250953 1.688707 2.164473 0.2369482 2.642026 0.2052364 2.650136 0.3307759 2.164473 0.2369482 2.650136 0.3307759 2.164473 0.3624875 -2.240351 0.2052364 -2.756775 0.1598809 -2.691552 0.2854204 -2.240351 0.2052364 -2.691552 0.2854204 -2.176467 0.3307759 2.988508 0.1598809 3.383803 0.1206718 3.428919 0.2462112 2.988508 0.1598809 3.428919 0.2462112 3.006095 0.2854204 3.383803 0.1206718 3.881655 0.1047175 3.924338 0.2302569 3.383803 0.1206718 3.924338 0.2302569 3.428919 0.2462112 -3.219747 0.1047175 -3.767332 0.1189795 -3.730663 0.2445188 -3.219747 0.1047175 -3.730663 0.2445188 -3.157886 0.2302569 -3.767332 0.1189795 -4.436263 0.1572346 -4.400741 0.2827741 -3.767332 0.1189795 -4.400741 0.2827741 -3.730663 0.2445188 -4.436263 0.1572346 -5.075073 0.2027909 -5.059327 0.3283304 -4.436263 0.1572346 -5.059327 0.3283304 -4.400741 0.2827741 -5.075073 0.2027909 -5.677042 0.2357704 -5.671129 0.3613099 -5.075073 0.2027909 -5.671129 0.3613099 -5.059327 0.3283304 -5.677042 0.2357704 -6.229482 0.2417829 -6.238538 0.3673224 -5.677042 0.2357704 -6.238538 0.3673224 -5.671129 0.3613099 -6.229482 0.2417829 -6.900614 0.2182049 -6.950444 0.3437444 -6.229482 0.2417829 -6.950444 0.3437444 -6.238538 0.3673224 -6.900614 0.2182049 -7.52199 0.1753245 -7.56716 0.300864 -6.900614 0.2182049 -7.56716 0.300864 -6.950444 0.3437444 3.604756 0.1753245 3.083372 0.1318519 3.097626 0.2573912 3.604756 0.1753245 3.097626 0.2573912 3.640613 0.300864 3.083372 0.1318519 2.590057 0.1067558 2.603477 0.2322951 3.083372 0.1318519 2.603477 0.2322951 3.097626 0.2573912 2.590057 0.1067558 2.164473 0.1109866 2.164473 0.2365259 2.590057 0.1067558 2.164473 0.2365259 2.603477 0.2322951 2.164473 0.1109866 1.688199 0.1426982 1.680122 0.2682377 2.164473 0.1109866 1.680122 0.2682377 2.164473 0.2365259 1.688199 0.1426982 1.22697 0.1880538 1.206474 0.3135932 1.688199 0.1426982 1.206474 0.3135932 1.680122 0.2682377 1.22697 0.1880538 0.8000692 0.2272629 0.7512332 0.3528023 1.22697 0.1880538 0.7512332 0.3528023 1.206474 0.3135932 -7.393078 0.2272629 -6.880046 0.2432172 -6.909126 0.3687566 -7.393078 0.2272629 -6.909126 0.3687566 -7.460301 0.3528023 -6.880046 0.2432172 -6.215628 0.2289553 -6.216518 0.3544946 -6.880046 0.2432172 -6.216518 0.3544946 -6.909126 0.3687566 -6.215628 0.2289553 -5.657447 0.1907 -5.660032 0.3162395 -6.215628 0.2289553 -5.660032 0.3162395 -6.216518 0.3544946 -5.657447 0.1907 -5.075073 0.1451437 -5.059327 0.2706832 -5.657447 0.1907 -5.059327 0.2706832 -5.660032 0.3162395 -5.075073 0.1451437 -4.38476 0.1121642 -4.356917 0.2377037 -5.075073 0.1451437 -4.356917 0.2377037 -5.059327 0.2706832 -4.38476 0.1121642 -3.842883 0.1061517 -3.800342 0.2316912 -4.38476 0.1121642 -3.800342 0.2316912 -4.356917 0.2377037 -3.842883 0.1061517 -3.400071 0.1297297 -3.32261 0.2552692 -3.842883 0.1061517 -3.32261 0.2552692 -3.800342 0.2316912 -3.400071 0.1297297 -2.932121 0.1726101 -2.863254 0.2981496 -3.400071 0.1297297 -2.863254 0.2981496 -3.32261 0.2552692 0.9031076 0.1726101 1.276296 0.2160829 1.262829 0.3416222 0.9031076 0.1726101 1.262829 0.3416222 0.8718394 0.2981496 1.276296 0.2160829 1.688707 0.241179 1.674 0.3667185 1.276296 0.2160829 1.674 0.3667185 1.262829 0.3416222 1.688707 0.241179 2.164473 0.2369482 2.164473 0.3624875 1.688707 0.241179 2.164473 0.3624875 1.674 0.3667185 -1.885355 2.164473 -2.176467 2.650136 -2.513374 2.591256 -1.885355 2.164473 -2.513374 2.591256 -2.216393 2.164473 -2.176467 2.650136 -2.691552 3.006095 -2.94708 2.91079 -2.176467 2.650136 -2.94708 2.91079 -2.513374 2.591256 -2.691552 3.006095 -2.911142 3.428919 -3.119346 3.298954 -2.691552 3.006095 -3.119346 3.298954 -2.94708 2.91079 -2.911142 3.428919 -3.157886 3.924338 -3.365397 3.720619 -2.911142 3.428919 -3.365397 3.720619 -3.119346 3.298954 -3.157886 3.924338 -3.730663 4.200877 -3.877205 3.956971 -3.157886 3.924338 -3.877205 3.956971 -3.365397 3.720619 -3.730663 4.200877 -4.400741 4.294214 -4.457819 4.068901 -3.730663 4.200877 -4.457819 4.068901 -3.877205 3.956971 -4.400741 4.294214 -5.059327 4.307951 -5.046732 4.076728 -4.400741 4.294214 -5.046732 4.076728 -4.457819 4.068901 -5.059327 4.307951 -5.671129 4.142923 -5.583958 3.901761 -5.059327 4.307951 -5.583958 3.901761 -5.046732 4.076728 -5.671129 4.142923 -6.238538 3.971814 -6.092437 3.767197 -5.671129 4.142923 -6.092437 3.767197 -5.583958 3.901761 -6.238538 3.971814 -6.950444 3.914782 -6.741741 3.733277 -6.238538 3.971814 -6.741741 3.733277 -6.092437 3.767197 -6.950444 3.914782 -7.56716 3.640613 -7.264664 3.469974 -6.950444 3.914782 -7.264664 3.469974 -6.741741 3.733277 -7.56716 3.640613 -7.684615 3.097626 -7.356608 2.985514 -7.56716 3.640613 -7.356608 2.985514 -7.264664 3.469974 -7.684615 3.097626 -7.665224 2.603477 -7.378815 2.557349 -7.684615 3.097626 -7.378815 2.557349 -7.356608 2.985514 -7.665224 2.603477 -7.862971 2.164473 -7.548404 2.164473 -7.665224 2.603477 -7.548404 2.164473 -7.378815 2.557349 -7.862971 2.164473 -7.934408 1.680122 -7.573183 1.738853 -7.862971 2.164473 -7.573183 1.738853 -7.548404 2.164473 -7.934408 1.680122 -7.754517 1.206474 -7.436962 1.314871 -7.934408 1.680122 -7.436962 1.314871 -7.573183 1.738853 -7.754517 1.206474 -7.460301 0.7512332 -7.198465 0.8979382 -7.754517 1.206474 -7.198465 0.8979382 -7.436962 1.314871 -7.460301 0.7512332 -6.909126 0.4524066 -6.682231 0.6507484 -7.460301 0.7512332 -6.682231 0.6507484 -7.198465 0.8979382 -6.909126 0.4524066 -6.216518 0.3908809 -6.064075 0.605221 -6.909126 0.4524066 -6.064075 0.605221 -6.682231 0.6507484 -6.216518 0.3908809 -5.660032 0.2219109 -5.584274 0.4261658 -6.216518 0.3908809 -5.584274 0.4261658 -6.064075 0.605221 -5.660032 0.2219109 -5.059327 -0.1040991 -5.046732 0.1411969 -5.660032 0.2219109 -5.046732 0.1411969 -5.584274 0.4261658 -5.059327 -0.1040991 -4.356917 -0.106985 -4.42909 0.1671405 -5.059327 -0.1040991 -4.42909 0.1671405 -5.046732 0.1411969 -4.356917 -0.106985 -3.800342 0.2348635 -3.930225 0.453237 -4.356917 -0.106985 -3.930225 0.453237 -4.42909 0.1671405 -3.800342 0.2348635 -3.32261 0.5570693 -3.488751 0.7224975 -3.800342 0.2348635 -3.488751 0.7224975 -3.930225 0.453237 -3.32261 0.5570693 -2.863254 0.8718394 -3.105485 1.021834 -3.32261 0.5570693 -3.105485 1.021834 -3.488751 0.7224975 -2.863254 0.8718394 -2.522684 1.262829 -2.815527 1.371396 -2.863254 0.8718394 -2.815527 1.371396 -3.105485 1.021834 -2.522684 1.262829 -2.147909 1.674 -2.443497 1.725919 -2.522684 1.262829 -2.443497 1.725919 -2.815527 1.371396 -2.147909 1.674 -1.885355 2.164473 -2.216393 2.164473 -2.147909 1.674 -2.216393 2.164473 -2.443497 1.725919 2.164473 0.4629191 2.591256 0.4312075 2.551129 0.9082574 2.164473 0.4629191 2.551129 0.9082574 2.164473 0.939969 -2.513374 0.4312075 -2.94708 0.385852 -3.059649 0.8629017 -2.513374 0.4312075 -3.059649 0.8629017 -2.691734 0.9082574 2.91079 0.385852 3.298954 0.3466429 3.213316 0.8236926 2.91079 0.385852 3.213316 0.8236926 2.849511 0.8629017 3.298954 0.3466429 3.720619 0.3306886 3.580177 0.8077383 3.298954 0.3466429 3.580177 0.8077383 3.213316 0.8236926 -3.365397 0.3306886 -3.877205 0.3449504 -3.922865 0.8220003 -3.365397 0.3306886 -3.922865 0.8220003 -3.457305 0.8077383 -3.877205 0.3449504 -4.457819 0.3832057 -4.442789 0.8602556 -3.877205 0.3449504 -4.442789 0.8602556 -3.922865 0.8220003 -4.457819 0.3832057 -5.046732 0.428762 -4.986899 0.9058119 -4.457819 0.3832057 -4.986899 0.9058119 -4.442789 0.8602556 -5.046732 0.428762 -5.583958 0.4617415 -5.473224 0.9387914 -5.046732 0.428762 -5.473224 0.9387914 -4.986899 0.9058119 -5.583958 0.4617415 -6.092437 0.4677539 -5.94666 0.9448038 -5.583958 0.4617415 -5.94666 0.9448038 -5.473224 0.9387914 -6.092437 0.4677539 -6.741741 0.4441759 -6.552533 0.9212259 -6.092437 0.4677539 -6.552533 0.9212259 -5.94666 0.9448038 -6.741741 0.4441759 -7.264664 0.4012955 -7.005294 0.8783454 -6.741741 0.4441759 -7.005294 0.8783454 -6.552533 0.9212259 3.469974 0.4012955 2.985514 0.3578228 2.911216 0.8348727 3.469974 0.4012955 2.911216 0.8348727 3.352523 0.8783454 2.985514 0.3578228 2.557349 0.3327267 2.527813 0.8097766 2.985514 0.3578228 2.527813 0.8097766 2.911216 0.8348727 2.557349 0.3327267 2.164473 0.3369575 2.164473 0.8140074 2.557349 0.3327267 2.164473 0.8140074 2.527813 0.8097766 2.164473 0.3369575 1.738853 0.3686692 1.778882 0.8457192 2.164473 0.3369575 1.778882 0.8457192 2.164473 0.8140074 1.738853 0.3686692 1.314871 0.4140247 1.384879 0.8910746 1.738853 0.3686692 1.384879 0.8910746 1.778882 0.8457192 1.314871 0.4140247 0.8979382 0.4532338 0.9947357 0.9302837 1.314871 0.4140247 0.9947357 0.9302837 1.384879 0.8910746 -7.198465 0.4532338 -6.682231 0.4691881 -6.474533 0.9462381 -7.198465 0.4532338 -6.474533 0.9462381 -6.974183 0.9302837 -6.682231 0.4691881 -6.064075 0.4549261 -5.911612 0.9319761 -6.682231 0.4691881 -5.911612 0.9319761 -6.474533 0.9462381 -6.064075 0.4549261 -5.584274 0.416671 -5.48398 0.8937209 -6.064075 0.4549261 -5.48398 0.8937209 -5.911612 0.9319761 -5.584274 0.416671 -5.046732 0.3711147 -4.986899 0.8481647 -5.584274 0.416671 -4.986899 0.8481647 -5.48398 0.8937209 -5.046732 0.3711147 -4.42909 0.3381352 -4.426955 0.8151851 -5.046732 0.3711147 -4.426955 0.8151851 -4.986899 0.8481647 -4.42909 0.3381352 -3.930225 0.3321228 -3.96232 0.8091727 -4.42909 0.3381352 -3.96232 0.8091727 -4.426955 0.8151851 -3.930225 0.3321228 -3.488751 0.3557008 -3.546715 0.8327507 -3.930225 0.3321228 -3.546715 0.8327507 -3.96232 0.8091727 -3.488751 0.3557008 -3.105485 0.3985812 -3.221809 0.8756311 -3.488751 0.3557008 -3.221809 0.8756311 -3.546715 0.8327507 1.021834 0.3985812 1.371396 0.4420538 1.443332 0.9191037 1.021834 0.3985812 1.443332 0.9191037 1.125522 0.8756311 -2.815527 0.4420538 -2.443497 0.46715 -2.581901 0.9441998 -2.815527 0.4420538 -2.581901 0.9441998 -2.958074 0.9191037 1.725919 0.46715 2.164473 0.4629191 2.164473 0.939969 1.725919 0.46715 2.164473 0.939969 1.759314 0.9441998 -2.39033 2.164473 -2.691734 2.551129 -3.080362 2.482476 -2.39033 2.164473 -3.080362 2.482476 -2.81248 2.164473 -2.691734 2.551129 -3.059649 2.849511 -3.357581 2.736896 -2.691734 2.551129 -3.357581 2.736896 -3.080362 2.482476 -3.059649 2.849511 -3.205006 3.213316 -3.475939 3.042721 -3.059649 2.849511 -3.475939 3.042721 -3.357581 2.736896 -3.205006 3.213316 -3.457305 3.580177 -3.707879 3.330774 -3.205006 3.213316 -3.707879 3.330774 -3.475939 3.042721 -3.457305 3.580177 -3.922865 3.795287 -4.087258 3.514369 -3.457305 3.580177 -4.087258 3.514369 -3.707879 3.330774 -3.922865 3.795287 -4.442789 3.924021 -4.511452 3.640877 -3.922865 3.795287 -4.511452 3.640877 -4.087258 3.514369 -4.442789 3.924021 -4.986899 3.919126 -4.968005 3.620985 -4.442789 3.924021 -4.968005 3.620985 -4.511452 3.640877 -4.986899 3.919126 -5.473224 3.737156 -5.367668 3.456905 -4.986899 3.919126 -5.367668 3.456905 -4.968005 3.620985 -5.473224 3.737156 -5.94666 3.635472 -5.769835 3.393415 -5.473224 3.737156 -5.769835 3.393415 -5.367668 3.456905 -5.94666 3.635472 -6.552533 3.613534 -6.278036 3.376962 -5.94666 3.635472 -6.278036 3.376962 -5.769835 3.393415 -6.552533 3.613534 -7.005294 3.352523 -6.631517 3.143635 -6.552533 3.613534 -6.631517 3.143635 -6.278036 3.376962 -7.005294 3.352523 -7.087749 2.911216 -6.706641 2.782468 -7.005294 3.352523 -6.706641 2.782468 -6.631517 3.143635 -7.087749 2.911216 -7.143661 2.527813 -6.779592 2.469663 -7.087749 2.911216 -6.779592 2.469663 -6.706641 2.782468 -7.143661 2.527813 -7.282578 2.164473 -6.873558 2.164473 -7.143661 2.527813 -6.873558 2.164473 -6.779592 2.469663 -7.282578 2.164473 -7.275743 1.778882 -6.850397 1.847356 -7.282578 2.164473 -6.850397 1.847356 -6.873558 2.164473 -7.275743 1.778882 -7.180174 1.384879 -6.799433 1.513496 -7.275743 1.778882 -6.799433 1.513496 -6.850397 1.847356 -7.180174 1.384879 -6.974183 0.9947357 -6.630703 1.18579 -7.180174 1.384879 -6.630703 1.18579 -6.799433 1.513496 -6.974183 0.9947357 -6.474533 0.7876047 -6.193272 1.030436 -6.974183 0.9947357 -6.193272 1.030436 -6.630703 1.18579 -6.474533 0.7876047 -5.911612 0.7471939 -5.733009 0.9919753 -6.474533 0.7876047 -5.733009 0.9919753 -6.193272 1.030436 -5.911612 0.7471939 -5.48398 0.5570072 -5.385488 0.8144149 -5.911612 0.7471939 -5.385488 0.8144149 -5.733009 0.9919753 -5.48398 0.5570072 -4.986899 0.3081813 -4.968005 0.6235228 -5.48398 0.5570072 -4.968005 0.6235228 -5.385488 0.8144149 -4.986899 0.3081813 -4.426955 0.3537206 -4.507182 0.6742605 -4.986899 0.3081813 -4.507182 0.6742605 -4.968005 0.6235228 -4.426955 0.3537206 -3.96232 0.5941318 -4.112326 0.853 -4.426955 0.3537206 -4.112326 0.853 -4.507182 0.6742605 -3.96232 0.5941318 -3.546715 0.8315224 -3.762194 1.048445 -3.96232 0.5941318 -3.762194 1.048445 -4.112326 0.853 -3.546715 0.8315224 -3.221809 1.125522 -3.514931 1.309178 -3.546715 0.8315224 -3.514931 1.309178 -3.762194 1.048445 -3.221809 1.125522 -2.958074 1.443332 -3.289204 1.567747 -3.221809 1.125522 -3.289204 1.567747 -3.514931 1.309178 -2.958074 1.443332 -2.581901 1.759314 -2.950191 1.824542 -2.958074 1.443332 -2.950191 1.824542 -3.289204 1.567747 -2.581901 1.759314 -2.39033 2.164473 -2.81248 2.164473 -2.581901 1.759314 -2.81248 2.164473 -2.950191 1.824542 -2.81248 2.164473 -3.080362 2.482476 -3.433924 2.415486 -2.81248 2.164473 -3.433924 2.415486 -3.213537 2.164473 -3.080362 1.058905 -3.357581 1.013549 -3.630689 1.36506 -3.080362 2.482476 -3.630689 2.624149 -3.433924 2.415486 2.736896 1.013549 3.042721 0.9743401 2.867548 1.325851 2.736896 1.013549 2.867548 1.325851 2.624149 1.36506 -3.475939 3.042721 -3.707879 3.330774 -3.930245 3.08416 -3.475939 3.042721 -3.930245 3.08416 -3.729455 2.867548 -3.707879 0.9583858 -4.087258 0.9726476 -4.223076 1.324158 -3.707879 3.330774 -4.223076 3.238634 -3.930245 3.08416 -4.087258 0.9726476 -4.511452 1.010903 -4.556771 1.362413 -4.087258 0.9726476 -4.556771 1.362413 -4.223076 1.324158 -4.511452 1.010903 -4.968005 1.056459 -4.923918 1.40797 -4.511452 1.010903 -4.923918 1.40797 -4.556771 1.362413 -4.968005 1.056459 -5.367668 1.089439 -5.239172 1.440949 -4.968005 1.056459 -5.239172 1.440949 -4.923918 1.40797 -5.367668 1.089439 -5.769835 1.095451 -5.56764 1.446962 -5.367668 1.089439 -5.56764 1.446962 -5.239172 1.440949 -5.769835 1.095451 -6.278036 1.071873 -5.972144 1.423384 -5.769835 1.095451 -5.972144 1.423384 -5.56764 1.446962 -6.278036 3.376962 -6.631517 3.143635 -6.236328 2.936972 -6.278036 3.376962 -6.236328 2.936972 -5.972144 3.134651 -6.631517 3.143635 -6.706641 2.782468 -6.307363 2.656216 -6.631517 3.143635 -6.307363 2.656216 -6.236328 2.936972 -6.706641 2.782468 -6.779592 2.469663 -6.382234 2.410149 -6.706641 2.782468 -6.382234 2.410149 -6.307363 2.656216 -6.779592 2.469663 -6.873558 2.164473 -6.43525 2.164473 -6.779592 2.469663 -6.43525 2.164473 -6.382234 2.410149 -6.873558 2.164473 -6.850397 1.847356 -6.409731 1.914165 -6.873558 2.164473 -6.409731 1.914165 -6.43525 2.164473 -6.850397 1.847356 -6.799433 1.513496 -6.393133 1.642244 -6.850397 1.847356 -6.393133 1.642244 -6.409731 1.914165 -6.799433 1.513496 -6.630703 1.18579 -6.254255 1.381422 -6.799433 1.513496 -6.254255 1.381422 -6.393133 1.642244 -6.630703 1.18579 -6.193272 1.030436 -5.889834 1.270478 -6.630703 1.080931 -5.889834 1.448396 -6.254255 1.432442 -6.193272 1.096885 -5.733009 1.082623 -5.532594 1.434134 -6.193272 1.096885 -5.532594 1.434134 -5.889834 1.448396 -5.733009 1.082623 -5.385488 1.044368 -5.259954 1.395879 -5.733009 1.082623 -5.259954 1.395879 -5.532594 1.434134 -5.385488 1.044368 -4.968005 0.998812 -4.923918 1.350322 -5.385488 1.044368 -4.923918 1.350322 -5.259954 1.395879 -4.968005 0.998812 -4.507182 0.9658325 -4.559963 1.317343 -4.968005 0.998812 -4.559963 1.317343 -4.923918 1.350322 -4.507182 0.9658325 -4.112326 0.95982 -4.237317 1.31133 -4.507182 0.9658325 -4.237317 1.31133 -4.559963 1.317343 -4.112326 0.95982 -3.762194 0.983398 -3.958683 1.334908 -4.112326 0.95982 -3.958683 1.334908 -4.237317 1.31133 -3.762194 1.048445 -3.514931 1.309178 -3.77908 1.490609 -3.762194 1.048445 -3.77908 1.490609 -3.958683 1.271108 -3.514931 1.309178 -3.289204 1.567747 -3.58812 1.689667 -3.514931 1.309178 -3.58812 1.689667 -3.77908 1.490609 -3.289204 1.069751 -2.950191 1.094847 -3.301385 1.446358 -3.289204 1.069751 -3.301385 1.446358 -3.58812 1.421262 -2.950191 1.824542 -2.81248 2.164473 -3.213537 2.164473 -2.950191 1.824542 -3.213537 2.164473 -3.301385 1.891133 -3.213537 2.164473 -3.433924 2.415486 -4.088136 2.297847 -3.213537 2.164473 -4.088136 2.297847 -3.970472 2.164473 -3.433924 2.415486 -3.630689 2.624149 -4.180983 2.412878 -3.433924 2.415486 -4.180983 2.412878 -4.088136 2.297847 -3.630689 2.624149 -3.729455 2.867548 -4.239451 2.541409 -3.630689 2.624149 -4.239451 2.541409 -4.180983 2.412878 -3.729455 2.867548 -3.930245 3.08416 -4.353787 2.65135 -3.729455 2.867548 -4.353787 2.65135 -4.239451 2.541409 -3.930245 3.08416 -4.223076 3.238634 -4.504096 2.740353 -3.930245 3.08416 -4.504096 2.740353 -4.353787 2.65135 -4.223076 3.238634 -4.556771 3.351757 -4.681701 2.805188 -4.223076 3.238634 -4.681701 2.805188 -4.504096 2.740353 -4.556771 3.351757 -4.923918 3.319819 -4.879832 2.778393 -4.556771 3.351757 -4.879832 2.778393 -4.681701 2.805188 -4.923918 3.319819 -5.239172 3.183942 -5.047251 2.705875 -4.923918 3.319819 -5.047251 2.705875 -4.879832 2.778393 -5.239172 3.183942 -5.56764 3.151087 -5.227578 2.697454 -5.239172 3.183942 -5.227578 2.697454 -5.047251 2.705875 -5.56764 3.151087 -5.972144 3.134651 -5.441692 2.684499 -5.56764 3.151087 -5.441692 2.684499 -5.227578 2.697454 -5.972144 3.134651 -6.236328 2.936972 -5.574978 2.573645 -5.972144 3.134651 -5.574978 2.573645 -5.441692 2.684499 -6.236328 2.936972 -6.307363 2.656216 -5.621614 2.428138 -6.236328 2.936972 -5.621614 2.428138 -5.574978 2.573645 -6.307363 2.656216 -6.382234 2.410149 -5.667523 2.297172 -6.307363 2.656216 -5.667523 2.297172 -5.621614 2.428138 -6.382234 2.410149 -6.43525 2.164473 -5.682723 2.164473 -6.382234 2.410149 -5.682723 2.164473 -5.667523 2.297172 -6.43525 2.164473 -6.409731 1.914165 -5.669291 2.031477 -6.43525 2.164473 -5.669291 2.031477 -5.682723 2.164473 -6.409731 1.914165 -6.393133 1.642244 -5.672813 1.88261 -6.409731 1.914165 -5.672813 1.88261 -5.669291 2.031477 -6.393133 1.642244 -6.254255 1.381422 -5.59289 1.74476 -6.393133 1.642244 -5.59289 1.74476 -5.672813 1.88261 -6.254255 1.381422 -5.889834 1.270478 -5.39103 1.691338 -6.254255 1.381422 -5.39103 1.691338 -5.59289 1.74476 -5.889834 1.270478 -5.532594 1.231574 -5.206269 1.664152 -5.889834 1.270478 -5.206269 1.664152 -5.39103 1.691338 -5.532594 1.231574 -5.259954 1.077797 -5.061322 1.577573 -5.532594 1.231574 -5.061322 1.577573 -5.206269 1.664152 -5.259954 1.077797 -4.923918 0.9418888 -4.879832 1.514589 -5.259954 1.077797 -4.879832 1.514589 -5.061322 1.577573 -4.923918 0.9418888 -4.559963 0.9875127 -4.686363 1.538832 -4.923918 0.9418888 -4.686363 1.538832 -4.879832 1.514589 -4.559963 0.9875127 -4.237317 1.11214 -4.50915 1.596341 -4.559963 0.9875127 -4.50915 1.596341 -4.686363 1.538832 -4.237317 1.11214 -3.958683 1.271108 -4.362362 1.685533 -4.237317 1.11214 -4.362362 1.685533 -4.50915 1.596341 -3.958683 1.271108 -3.77908 1.490609 -4.274316 1.80806 -3.958683 1.271108 -4.274316 1.80806 -4.362362 1.685533 -3.77908 1.490609 -3.58812 1.689667 -4.163535 1.909867 -3.77908 1.490609 -4.163535 1.909867 -4.274316 1.80806 -3.58812 1.689667 -3.301385 1.891133 -4.004303 2.016977 -3.58812 1.689667 -4.004303 2.016977 -4.163535 1.909867 -3.301385 1.891133 -3.213537 2.164473 -3.970472 2.164473 -3.301385 1.891133 -3.970472 2.164473 -4.004303 2.016977 -4.004303 2.016977 -3.970472 2.164473 -4.088136 2.297847 -4.180983 2.412878 -4.239451 2.541409 -4.353787 2.65135 -4.004303 2.016977 -4.088136 2.297847 -4.180983 2.412878 -4.163535 1.909867 -4.004303 2.016977 -4.180983 2.412878 -4.180983 2.412878 -4.353787 2.65135 -4.504096 2.740353 -4.504096 2.740353 -4.681701 2.805188 -4.879832 2.778393 -5.047251 1.79246 -5.227578 1.798472 -5.441692 1.774894 -4.504096 2.740353 -4.879832 2.778393 -5.047251 2.705875 -4.163535 1.909867 -4.180983 2.412878 -4.504096 2.740353 -4.50915 1.596341 -4.362362 1.685533 -4.274316 1.80806 -4.274316 1.80806 -4.163535 1.909867 -4.504096 2.740353 -5.047251 2.705875 -5.441692 2.684499 -5.574978 2.573645 -4.274316 1.80806 -4.504096 2.740353 -5.047251 2.705875 -4.686363 1.538832 -4.50915 1.596341 -4.274316 1.80806 -5.061322 1.577573 -4.879832 1.514589 -4.686363 1.538832 -5.59289 1.783952 -5.39103 1.799906 -5.206269 1.785644 -5.206269 1.664152 -5.061322 1.577573 -4.686363 1.538832 -4.686363 1.538832 -4.274316 1.80806 -5.047251 2.705875 -5.047251 2.705875 -5.574978 2.573645 -5.621614 2.428138 -5.621614 2.428138 -5.667523 2.297172 -5.682723 2.164473 -5.669291 2.031477 -5.672813 1.88261 -5.59289 1.74476 -5.621614 2.428138 -5.682723 2.164473 -5.669291 2.031477 -4.686363 1.538832 -5.047251 2.705875 -5.621614 2.428138 -5.669291 2.031477 -5.59289 1.74476 -5.206269 1.664152 -5.206269 1.664152 -4.686363 1.538832 -5.621614 2.428138 -5.621614 2.428138 -5.669291 2.031477 -5.206269 1.664152</float_array>
          <technique_common>
            <accessor source="#uv-array" count="1422" stride="2">
              <param name="S" type="float" />
              <param name="T" type="float" />
            </accessor>
          </technique_common>
        </source>
        <vertices id="vertices">
          <input semantic="POSITION" source="#positions" />
        </vertices>
        <triangles count="474" material="m0">
          <input semantic="VERTEX" source="#vertices" offset="0" />
          <input semantic="NORMAL" source="#normals" offset="1" />
          <input semantic="TEXCOORD" source="#uv" offset="2" set="0" />
          <p>0 0 0 1 0 1 29 0 2 0 1 3 29 1 4 28 1 5 1 2 6 2 2 7 30 2 8 1 3 9 30 3 10 29 3 11 2 4 12 3 4 13 31 4 14 2 5 15 31 5 16 30 5 17 3 6 18 4 6 19 32 6 20 3 7 21 32 7 22 31 7 23 4 8 24 5 8 25 33 8 26 4 9 27 33 9 28 32 9 29 5 10 30 6 10 31 34 10 32 5 11 33 34 11 34 33 11 35 6 12 36 7 12 37 35 12 38 6 13 39 35 13 40 34 13 41 7 14 42 8 14 43 36 14 44 7 15 45 36 15 46 35 15 47 8 16 48 9 16 49 37 16 50 8 17 51 37 17 52 36 17 53 9 18 54 10 18 55 38 18 56 9 19 57 38 19 58 37 19 59 10 20 60 11 20 61 39 20 62 10 21 63 39 21 64 38 21 65 11 22 66 12 22 67 40 22 68 11 23 69 40 23 70 39 23 71 12 24 72 13 24 73 41 24 74 12 25 75 41 25 76 40 25 77 13 26 78 14 26 79 42 26 80 13 27 81 42 27 82 41 27 83 14 28 84 15 28 85 43 28 86 14 29 87 43 29 88 42 29 89 15 30 90 16 30 91 44 30 92 15 31 93 44 31 94 43 31 95 16 32 96 17 32 97 45 32 98 16 33 99 45 33 100 44 33 101 17 34 102 18 34 103 46 34 104 17 35 105 46 35 106 45 35 107 18 36 108 19 36 109 47 36 110 18 37 111 47 37 112 46 37 113 19 38 114 20 38 115 48 38 116 19 39 117 48 39 118 47 39 119 20 40 120 21 40 121 49 40 122 20 41 123 49 41 124 48 41 125 21 42 126 22 42 127 50 42 128 21 43 129 50 43 130 49 43 131 22 44 132 23 44 133 51 44 134 22 45 135 51 45 136 50 45 137 23 46 138 24 46 139 52 46 140 23 47 141 52 47 142 51 47 143 24 48 144 25 48 145 53 48 146 24 49 147 53 49 148 52 49 149 25 50 150 26 50 151 54 50 152 25 51 153 54 51 154 53 51 155 26 52 156 27 52 157 55 52 158 26 53 159 55 53 160 54 53 161 27 54 162 0 54 163 28 54 164 27 55 165 28 55 166 55 55 167 28 56 168 29 56 169 57 56 170 28 57 171 57 57 172 56 57 173 29 58 174 30 58 175 58 58 176 29 59 177 58 59 178 57 59 179 30 60 180 31 60 181 59 60 182 30 61 183 59 61 184 58 61 185 31 62 186 32 62 187 60 62 188 31 63 189 60 63 190 59 63 191 32 64 192 33 64 193 61 64 194 32 65 195 61 65 196 60 65 197 33 66 198 34 66 199 62 66 200 33 67 201 62 67 202 61 67 203 34 68 204 35 68 205 63 68 206 34 69 207 63 69 208 62 69 209 35 70 210 36 70 211 64 70 212 35 71 213 64 71 214 63 71 215 36 72 216 37 72 217 65 72 218 36 73 219 65 73 220 64 73 221 37 74 222 38 74 223 66 74 224 37 75 225 66 75 226 65 75 227 38 76 228 39 76 229 67 76 230 38 77 231 67 77 232 66 77 233 39 78 234 40 78 235 68 78 236 39 79 237 68 79 238 67 79 239 40 80 240 41 80 241 69 80 242 40 81 243 69 81 244 68 81 245 41 82 246 42 82 247 70 82 248 41 83 249 70 83 250 69 83 251 42 84 252 43 84 253 71 84 254 42 85 255 71 85 256 70 85 257 43 86 258 44 86 259 72 86 260 43 87 261 72 87 262 71 87 263 44 88 264 45 88 265 73 88 266 44 89 267 73 89 268 72 89 269 45 90 270 46 90 271 74 90 272 45 91 273 74 91 274 73 91 275 46 92 276 47 92 277 75 92 278 46 93 279 75 93 280 74 93 281 47 94 282 48 94 283 76 94 284 47 95 285 76 95 286 75 95 287 48 96 288 49 96 289 77 96 290 48 97 291 77 97 292 76 97 293 49 98 294 50 98 295 78 98 296 49 99 297 78 99 298 77 99 299 50 100 300 51 100 301 79 100 302 50 101 303 79 101 304 78 101 305 51 102 306 52 102 307 80 102 308 51 103 309 80 103 310 79 103 311 52 104 312 53 104 313 81 104 314 52 105 315 81 105 316 80 105 317 53 106 318 54 106 319 82 106 320 53 107 321 82 107 322 81 107 323 54 108 324 55 108 325 83 108 326 54 109 327 83 109 328 82 109 329 55 110 330 28 110 331 56 110 332 55 111 333 56 111 334 83 111 335 56 112 336 57 112 337 85 112 338 56 113 339 85 113 340 84 113 341 57 114 342 58 114 343 86 114 344 57 115 345 86 115 346 85 115 347 58 116 348 59 116 349 87 116 350 58 117 351 87 117 352 86 117 353 59 118 354 60 118 355 88 118 356 59 119 357 88 119 358 87 119 359 60 120 360 61 120 361 89 120 362 60 121 363 89 121 364 88 121 365 61 122 366 62 122 367 90 122 368 61 123 369 90 123 370 89 123 371 62 124 372 63 124 373 91 124 374 62 125 375 91 125 376 90 125 377 63 126 378 64 126 379 92 126 380 63 127 381 92 127 382 91 127 383 64 128 384 65 128 385 93 128 386 64 129 387 93 129 388 92 129 389 65 130 390 66 130 391 94 130 392 65 131 393 94 131 394 93 131 395 66 132 396 67 132 397 95 132 398 66 133 399 95 133 400 94 133 401 67 134 402 68 134 403 96 134 404 67 135 405 96 135 406 95 135 407 68 136 408 69 136 409 97 136 410 68 137 411 97 137 412 96 137 413 69 138 414 70 138 415 98 138 416 69 139 417 98 139 418 97 139 419 70 140 420 71 140 421 99 140 422 70 141 423 99 141 424 98 141 425 71 142 426 72 142 427 100 142 428 71 143 429 100 143 430 99 143 431 72 144 432 73 144 433 101 144 434 72 145 435 101 145 436 100 145 437 73 146 438 74 146 439 102 146 440 73 147 441 102 147 442 101 147 443 74 148 444 75 148 445 103 148 446 74 149 447 103 149 448 102 149 449 75 150 450 76 150 451 104 150 452 75 151 453 104 151 454 103 151 455 76 152 456 77 152 457 105 152 458 76 153 459 105 153 460 104 153 461 77 154 462 78 154 463 106 154 464 77 155 465 106 155 466 105 155 467 78 156 468 79 156 469 107 156 470 78 157 471 107 157 472 106 157 473 79 158 474 80 158 475 108 158 476 79 159 477 108 159 478 107 159 479 80 160 480 81 160 481 109 160 482 80 161 483 109 161 484 108 161 485 81 162 486 82 162 487 110 162 488 81 163 489 110 163 490 109 163 491 82 164 492 83 164 493 111 164 494 82 165 495 111 165 496 110 165 497 83 166 498 56 166 499 84 166 500 83 167 501 84 167 502 111 167 503 84 168 504 85 168 505 113 168 506 84 169 507 113 169 508 112 169 509 85 170 510 86 170 511 114 170 512 85 171 513 114 171 514 113 171 515 86 172 516 87 172 517 115 172 518 86 173 519 115 173 520 114 173 521 87 174 522 88 174 523 116 174 524 87 175 525 116 175 526 115 175 527 88 176 528 89 176 529 117 176 530 88 177 531 117 177 532 116 177 533 89 178 534 90 178 535 118 178 536 89 179 537 118 179 538 117 179 539 90 180 540 91 180 541 119 180 542 90 181 543 119 181 544 118 181 545 91 182 546 92 182 547 120 182 548 91 183 549 120 183 550 119 183 551 92 184 552 93 184 553 121 184 554 92 185 555 121 185 556 120 185 557 93 186 558 94 186 559 122 186 560 93 187 561 122 187 562 121 187 563 94 188 564 95 188 565 123 188 566 94 189 567 123 189 568 122 189 569 95 190 570 96 190 571 124 190 572 95 191 573 124 191 574 123 191 575 96 192 576 97 192 577 125 192 578 96 193 579 125 193 580 124 193 581 97 194 582 98 194 583 126 194 584 97 195 585 126 195 586 125 195 587 98 196 588 99 196 589 127 196 590 98 197 591 127 197 592 126 197 593 99 198 594 100 198 595 128 198 596 99 199 597 128 199 598 127 199 599 100 200 600 101 200 601 129 200 602 100 201 603 129 201 604 128 201 605 101 202 606 102 202 607 130 202 608 101 203 609 130 203 610 129 203 611 102 204 612 103 204 613 131 204 614 102 205 615 131 205 616 130 205 617 103 206 618 104 206 619 132 206 620 103 207 621 132 207 622 131 207 623 104 208 624 105 208 625 133 208 626 104 209 627 133 209 628 132 209 629 105 210 630 106 210 631 134 210 632 105 211 633 134 211 634 133 211 635 106 212 636 107 212 637 135 212 638 106 213 639 135 213 640 134 213 641 107 214 642 108 214 643 136 214 644 107 215 645 136 215 646 135 215 647 108 216 648 109 216 649 137 216 650 108 217 651 137 217 652 136 217 653 109 218 654 110 218 655 138 218 656 109 219 657 138 219 658 137 219 659 110 220 660 111 220 661 139 220 662 110 221 663 139 221 664 138 221 665 111 222 666 84 222 667 112 222 668 111 223 669 112 223 670 139 223 671 112 224 672 113 224 673 141 224 674 112 225 675 141 225 676 140 225 677 113 226 678 114 226 679 142 226 680 113 227 681 142 227 682 141 227 683 114 228 684 115 228 685 143 228 686 114 229 687 143 229 688 142 229 689 115 230 690 116 230 691 144 230 692 115 231 693 144 231 694 143 231 695 116 232 696 117 232 697 145 232 698 116 233 699 145 233 700 144 233 701 117 234 702 118 234 703 146 234 704 117 235 705 146 235 706 145 235 707 118 236 708 119 236 709 147 236 710 118 237 711 147 237 712 146 237 713 119 238 714 120 238 715 148 238 716 119 239 717 148 239 718 147 239 719 120 240 720 121 240 721 149 240 722 120 241 723 149 241 724 148 241 725 121 242 726 122 242 727 150 242 728 121 243 729 150 243 730 149 243 731 122 244 732 123 244 733 151 244 734 122 245 735 151 245 736 150 245 737 123 246 738 124 246 739 152 246 740 123 247 741 152 247 742 151 247 743 124 248 744 125 248 745 153 248 746 124 249 747 153 249 748 152 249 749 125 250 750 126 250 751 154 250 752 125 251 753 154 251 754 153 251 755 126 252 756 127 252 757 155 252 758 126 253 759 155 253 760 154 253 761 127 254 762 128 254 763 156 254 764 127 255 765 156 255 766 155 255 767 128 256 768 129 256 769 157 256 770 128 257 771 157 257 772 156 257 773 129 258 774 130 258 775 158 258 776 129 259 777 158 259 778 157 259 779 130 260 780 131 260 781 159 260 782 130 261 783 159 261 784 158 261 785 131 262 786 132 262 787 160 262 788 131 263 789 160 263 790 159 263 791 132 264 792 133 264 793 161 264 794 132 265 795 161 265 796 160 265 797 133 266 798 134 266 799 162 266 800 133 267 801 162 267 802 161 267 803 134 268 804 135 268 805 163 268 806 134 269 807 163 269 808 162 269 809 135 270 810 136 270 811 164 270 812 135 271 813 164 271 814 163 271 815 136 272 816 137 272 817 165 272 818 136 273 819 165 273 820 164 273 821 137 274 822 138 274 823 166 274 824 137 275 825 166 275 826 165 275 827 138 276 828 139 276 829 167 276 830 138 277 831 167 277 832 166 277 833 139 278 834 112 278 835 140 278 836 139 279 837 140 279 838 167 279 839 140 280 840 141 280 841 169 280 842 140 281 843 169 281 844 168 281 845 141 282 846 142 282 847 170 282 848 141 283 849 170 283 850 169 283 851 142 284 852 143 284 853 171 284 854 142 285 855 171 285 856 170 285 857 143 286 858 144 286 859 172 286 860 143 287 861 172 287 862 171 287 863 144 288 864 145 288 865 173 288 866 144 289 867 173 289 868 172 289 869 145 290 870 146 290 871 174 290 872 145 291 873 174 291 874 173 291 875 146 292 876 147 292 877 175 292 878 146 293 879 175 293 880 174 293 881 147 294 882 148 294 883 176 294 884 147 295 885 176 295 886 175 295 887 148 296 888 149 296 889 177 296 890 148 297 891 177 297 892 176 297 893 149 298 894 150 298 895 178 298 896 149 299 897 178 299 898 177 299 899 150 300 900 151 300 901 179 300 902 150 301 903 179 301 904 178 301 905 151 302 906 152 302 907 180 302 908 151 303 909 180 303 910 179 303 911 152 304 912 153 304 913 181 304 914 152 305 915 181 305 916 180 305 917 153 306 918 154 306 919 182 306 920 153 307 921 182 307 922 181 307 923 154 308 924 155 308 925 183 308 926 154 309 927 183 309 928 182 309 929 155 310 930 156 310 931 184 310 932 155 311 933 184 311 934 183 311 935 156 312 936 157 312 937 185 312 938 156 313 939 185 313 940 184 313 941 157 314 942 158 314 943 186 314 944 157 315 945 186 315 946 185 315 947 158 316 948 159 316 949 187 316 950 158 317 951 187 317 952 186 317 953 159 318 954 160 318 955 188 318 956 159 319 957 188 319 958 187 319 959 160 320 960 161 320 961 189 320 962 160 321 963 189 321 964 188 321 965 161 322 966 162 322 967 190 322 968 161 323 969 190 323 970 189 323 971 162 324 972 163 324 973 191 324 974 162 325 975 191 325 976 190 325 977 163 326 978 164 326 979 192 326 980 163 327 981 192 327 982 191 327 983 164 328 984 165 328 985 193 328 986 164 329 987 193 329 988 192 329 989 165 330 990 166 330 991 194 330 992 165 331 993 194 331 994 193 331 995 166 332 996 167 332 997 195 332 998 166 333 999 195 333 1000 194 333 1001 167 334 1002 140 334 1003 168 334 1004 167 335 1005 168 335 1006 195 335 1007 168 336 1008 169 336 1009 197 336 1010 168 337 1011 197 337 1012 196 337 1013 169 338 1014 170 338 1015 198 338 1016 169 339 1017 198 339 1018 197 339 1019 170 340 1020 171 340 1021 199 340 1022 170 341 1023 199 341 1024 198 341 1025 171 342 1026 172 342 1027 200 342 1028 171 343 1029 200 343 1030 199 343 1031 172 344 1032 173 344 1033 201 344 1034 172 345 1035 201 345 1036 200 345 1037 173 346 1038 174 346 1039 202 346 1040 173 347 1041 202 347 1042 201 347 1043 174 348 1044 175 348 1045 203 348 1046 174 349 1047 203 349 1048 202 349 1049 175 350 1050 176 350 1051 204 350 1052 175 351 1053 204 351 1054 203 351 1055 176 352 1056 177 352 1057 205 352 1058 176 353 1059 205 353 1060 204 353 1061 177 354 1062 178 354 1063 206 354 1064 177 355 1065 206 355 1066 205 355 1067 178 356 1068 179 356 1069 207 356 1070 178 357 1071 207 357 1072 206 357 1073 179 358 1074 180 358 1075 208 358 1076 179 359 1077 208 359 1078 207 359 1079 180 360 1080 181 360 1081 209 360 1082 180 361 1083 209 361 1084 208 361 1085 181 362 1086 182 362 1087 210 362 1088 181 363 1089 210 363 1090 209 363 1091 182 364 1092 183 364 1093 211 364 1094 182 365 1095 211 365 1096 210 365 1097 183 366 1098 184 366 1099 212 366 1100 183 367 1101 212 367 1102 211 367 1103 184 368 1104 185 368 1105 213 368 1106 184 369 1107 213 369 1108 212 369 1109 185 370 1110 186 370 1111 214 370 1112 185 371 1113 214 371 1114 213 371 1115 186 372 1116 187 372 1117 215 372 1118 186 373 1119 215 373 1120 214 373 1121 187 374 1122 188 374 1123 216 374 1124 187 375 1125 216 375 1126 215 375 1127 188 376 1128 189 376 1129 217 376 1130 188 377 1131 217 377 1132 216 377 1133 189 378 1134 190 378 1135 218 378 1136 189 379 1137 218 379 1138 217 379 1139 190 380 1140 191 380 1141 219 380 1142 190 381 1143 219 381 1144 218 381 1145 191 382 1146 192 382 1147 220 382 1148 191 383 1149 220 383 1150 219 383 1151 192 384 1152 193 384 1153 221 384 1154 192 385 1155 221 385 1156 220 385 1157 193 386 1158 194 386 1159 222 386 1160 193 387 1161 222 387 1162 221 387 1163 194 388 1164 195 388 1165 223 388 1166 194 389 1167 223 389 1168 222 389 1169 195 390 1170 168 390 1171 196 390 1172 195 391 1173 196 391 1174 223 391 1175 196 392 1176 197 392 1177 225 392 1178 196 393 1179 225 393 1180 224 393 1181 197 394 1182 198 394 1183 226 394 1184 197 395 1185 226 395 1186 225 395 1187 198 396 1188 199 396 1189 227 396 1190 198 397 1191 227 397 1192 226 397 1193 199 398 1194 200 398 1195 228 398 1196 199 399 1197 228 399 1198 227 399 1199 200 400 1200 201 400 1201 229 400 1202 200 401 1203 229 401 1204 228 401 1205 201 402 1206 202 402 1207 230 402 1208 201 403 1209 230 403 1210 229 403 1211 202 404 1212 203 404 1213 231 404 1214 202 405 1215 231 405 1216 230 405 1217 203 406 1218 204 406 1219 232 406 1220 203 407 1221 232 407 1222 231 407 1223 204 408 1224 205 408 1225 233 408 1226 204 409 1227 233 409 1228 232 409 1229 205 410 1230 206 410 1231 234 410 1232 205 411 1233 234 411 1234 233 411 1235 206 412 1236 207 412 1237 235 412 1238 206 413 1239 235 413 1240 234 413 1241 207 414 1242 208 414 1243 236 414 1244 207 415 1245 236 415 1246 235 415 1247 208 416 1248 209 416 1249 237 416 1250 208 417 1251 237 417 1252 236 417 1253 209 418 1254 210 418 1255 238 418 1256 209 419 1257 238 419 1258 237 419 1259 210 420 1260 211 420 1261 239 420 1262 210 421 1263 239 421 1264 238 421 1265 211 422 1266 212 422 1267 240 422 1268 211 423 1269 240 423 1270 239 423 1271 212 424 1272 213 424 1273 241 424 1274 212 425 1275 241 425 1276 240 425 1277 213 426 1278 214 426 1279 242 426 1280 213 427 1281 242 427 1282 241 427 1283 214 428 1284 215 428 1285 243 428 1286 214 429 1287 243 429 1288 242 429 1289 215 430 1290 216 430 1291 244 430 1292 215 431 1293 244 431 1294 243 431 1295 216 432 1296 217 432 1297 245 432 1298 216 433 1299 245 433 1300 244 433 1301 217 434 1302 218 434 1303 246 434 1304 217 435 1305 246 435 1306 245 435 1307 218 436 1308 219 436 1309 247 436 1310 218 437 1311 247 437 1312 246 437 1313 219 438 1314 220 438 1315 248 438 1316 219 439 1317 248 439 1318 247 439 1319 220 440 1320 221 440 1321 249 440 1322 220 441 1323 249 441 1324 248 441 1325 221 442 1326 222 442 1327 250 442 1328 221 443 1329 250 443 1330 249 443 1331 222 444 1332 223 444 1333 251 444 1334 222 445 1335 251 445 1336 250 445 1337 223 446 1338 196 446 1339 224 446 1340 223 447 1341 224 447 1342 251 447 1343 251 448 1344 224 448 1345 225 448 1346 226 449 1347 227 449 1348 228 449 1349 251 450 1350 225 450 1351 226 450 1352 250 451 1353 251 451 1354 226 451 1355 226 452 1356 228 452 1357 229 452 1358 229 453 1359 230 453 1360 231 453 1361 232 454 1362 233 454 1363 234 454 1364 229 455 1365 231 455 1366 232 455 1367 250 456 1368 226 456 1369 229 456 1370 247 457 1371 248 457 1372 249 457 1373 249 458 1374 250 458 1375 229 458 1376 232 459 1377 234 459 1378 235 459 1379 249 460 1380 229 460 1381 232 460 1382 246 461 1383 247 461 1384 249 461 1385 244 462 1386 245 462 1387 246 462 1388 241 463 1389 242 463 1390 243 463 1391 243 464 1392 244 464 1393 246 464 1394 246 465 1395 249 465 1396 232 465 1397 232 466 1398 235 466 1399 236 466 1400 236 467 1401 237 467 1402 238 467 1403 239 468 1404 240 468 1405 241 468 1406 236 469 1407 238 469 1408 239 469 1409 246 470 1410 232 470 1411 236 470 1412 239 471 1413 241 471 1414 243 471 1415 243 472 1416 246 472 1417 236 472 1418 236 473 1419 239 473 1420 243 473 1421</p>
        </triangles>
      </mesh>
    </geometry>
  </library_geometries>
  <library_visual_scenes>
    <visual_scene id="Scene">
      <node id="Node" type="NODE">
        <instance_geometry url="#geometry">
          <bind_material>
            <technique_common>
              <instance_material symbol="m0" target="#m0">
                <bind_vertex_input semantic="UVSET0" input_semantic="TEXCOORD" input_set="0" />
              </instance_material>
            </technique_common>
          </bind_material>
        </instance_geometry>
      </node>
    </visual_scene>
  </library_visual_scenes>
  <scene>
    <instance_visual_scene url="#Scene" />
  </scene>
</COLLADA>