<?xml version='1.0' encoding='utf-8'?>
<COLLADA xmlns="http://www.collada.org/2005/11/COLLADASchema" version="1.4.1">
  <asset>
    <created>2026-09-08T00:00:00Z</created>
    <modified>2026-09-08T00:00:00Z</modified>
    <unit name="meter" meter="1" />
    <up_axis>Z_UP</up_axis>
  </asset>
  <library_images />
  <library_effects>
    <effect id="e0">
      <profile_COMMON>
        <technique sid="common">
          <phong>
            <ambient>
              <color>0.01575 0.072 0.06525 1</color>
            </ambient>
            <diffuse>
              <color>0.035 0.16 0.145 1</color>
            </diffuse>
            <specular>
              <color>0.02 0.02 0.02 1</color>
            </specular>
            <shininess>
              <float>8</float>
            </shininess>
          </phong>
        </technique>
      </profile_COMMON>
    </effect>
  </library_effects>
  <library_materials>
    <material id="m0" name="m0">
      <instance_effect url="#e0" />
    </material>
  </library_materials>
  <library_geometries>
    <geometry id="geometry" name="2077_winding_river_water">
      <mesh>
        <source id="positions">
          <float_array id="positions-array" count="360">10.08615 -8.545616 -2.555168 10.42553 -7.913379 -2.537131 10.84362 -7.136037 -2.519093 11.32767 -6.247522 -2.501056 16.44526 -8.05102 -2.483019 11.86888 -5.27627 -2.483019 17.05782 -7.115207 -2.464981 12.46018 -4.248277 -2.464981 17.69388 -6.169548 -2.446944 13.09562 -3.188046 -2.446944 18.34398 -5.240336 -2.428907 13.77039 -2.118869 -2.428907 18.99714 -4.35512 -2.41087 14.48117 -1.062824 -2.41087 19.64001 -3.542944 -2.392832 15.22705 -0.04046126 -2.392832 20.25498 -2.834833 -2.374795 16.01134 0.9296479 -2.374795 20.83815 -2.242894 -2.356758 16.82369 1.810001 -2.356758 21.43746 -1.705104 -2.33872 17.64243 2.5868 -2.33872 22.08002 -1.174726 -2.320683 18.47279 3.298114 -2.320683 22.74929 -0.6647042 -2.302646 19.32604 3.962145 -2.302646 23.44422 -0.1727783 -2.284609 20.19798 4.581893 -2.284609 24.16349 0.3031079 -2.266571 21.08465 5.16056 -2.266571 24.90549 0.7648766 -2.248534 21.98241 5.701488 -2.248534 25.6684 1.214377 -2.230497 22.88783 6.208086 -2.230497 26.45015 1.65344 -2.21246 23.7977 6.683792 -2.21246 27.24852 2.083899 -2.194422 24.70898 7.132023 -2.194422 28.06116 2.507638 -2.176385 25.61878 7.556159 -2.176385 28.88561 2.926592 -2.158348 26.52428 7.959531 -2.158348 29.70265 3.335159 -2.14031 27.43944 8.352997 -2.14031 30.49506 3.716039 -2.122273 28.38211 8.733944 -2.122273 31.28194 4.068085 -2.104236 29.33934 9.085097 -2.104236 32.08244 4.401894 -2.086199 30.29497 9.403388 -2.086199 32.89902 4.720448 -2.068161 31.24956 9.693344 -2.068161 33.73382 5.026646 -2.050124 32.20395 9.959575 -2.050124 34.58866 5.323359 -2.032087 33.15935 10.20674 -2.032087 35.46506 5.613459 -2.014049 34.11724 10.43947 -2.014049 36.36434 5.899874 -1.996012 35.0793 10.66235 -1.996012 37.2876 6.185598 -1.977975 36.04745 10.87992 -1.977975 38.2358 6.473698 -1.959938 37.02373 11.09661 -1.959938 39.20981 6.767327 -1.9419 38.01028 11.3168 -1.9419 40.18804 7.063807 -1.923863 39.03168 11.55066 -1.923863 41.1503 7.339951 -1.905826 40.10324 11.78369 -1.905826 42.12127 7.587251 -1.887789 41.19392 11.99222 -1.887789 43.12471 7.818126 -1.869751 42.28067 12.17958 -1.869751 44.16019 8.039135 -1.851714 43.36469 12.35501 -1.851714 45.22707 8.257251 -1.833677 44.44737 12.52733 -1.833677 46.32467 8.479844 -1.815639 45.53016 12.70494 -1.815639 47.45227 8.714618 -1.797602 46.61451 12.89592 -1.797602 48.60918 8.969565 -1.779565 47.70187 13.10806 -1.779565 49.79468 9.252892 -1.761528 48.7937 13.34894 -1.761528 51.00803 9.572968 -1.74349 49.89149 13.62598 -1.74349 52.24846 9.938244 -1.725453 50.99679 13.94649 -1.725453 53.51419 10.35687 -1.707416 52.1121 14.31812 -1.707416 54.847 10.85046 -1.689379 53.30915 14.77249 -1.689379 56.27336 11.42259 -1.671341 54.63285 15.32269 -1.671341 57.76714 12.05451 -1.653304 56.04695 15.94836 -1.653304 59.30148 12.72801 -1.635267 57.51595 16.62866 -1.635267 60.84761 13.42445 -1.617229 59.0062 17.34314 -1.617229 62.3757 14.1249 -1.599192 60.48522 18.07164 -1.599192 63.85512 14.81026 -1.581155 61.92118 18.79419 -1.581155 65.25474 15.46119 -1.563118 63.28291 19.49104 -1.563118 9.96434 -8.766116 -2.563219 64.53989 20.14272 -1.54508 10.43919 -8.766116 -2.555168 65.6628 20.73025 -1.527043 11.84497 -8.766116 -2.537131 13.59043 -8.766116 -2.519093 15.55286 -8.766116 -2.501056 15.98428 -8.766116 -2.497336 66.23288 15.91453 -1.549418 66.23288 16.68985 -1.54508 66.23288 19.56094 -1.527043 66.23288 21.02981 -1.516356</float_array>
          <technique_common>
            <accessor source="#positions-array" count="120" stride="3">
              <param name="X" type="float" />
              <param name="Y" type="float" />
              <param name="Z" type="float" />
            </accessor>
          </technique_common>
        </source>
        <source id="normals">
          <float_array id="normals-array" count="354">0.01694634 0.02713301 -0.9994882 0.01334016 0.0213591 -0.9996829 0.0128268 0.02135102 -0.9996898 0.01053344 0.01753358 -0.9997908 0.01033172 0.01740971 -0.9997951 0.009102493 0.01533837 -0.9998409 0.009189842 0.01541683 -0.9998389 0.008620617 0.01446191 -0.9998583 0.008415355 0.01387938 -0.9998683 0.008620595 0.01446186 -0.9998583 0.007886805 0.01300764 -0.9998843 0.008533984 0.01368579 -0.9998699 0.007721581 0.01238295 -0.9998935 0.008610604 0.01327982 -0.9998747 0.007761412 0.01197014 -0.9998982 0.008965561 0.01313637 -0.9998735 0.007987024 0.01170262 -0.9998996 0.009657783 0.01324736 -0.9998656 0.008395517 0.01151594 -0.9998984 0.01082395 0.01363767 -0.9998484 0.008988072 0.01132455 -0.9998955 0.01276087 0.01438514 -0.9998151 0.009993182 0.01126517 -0.9998866 0.01541965 0.01527341 -0.9997645 0.01135579 0.01124809 -0.9998723 0.01677718 0.01483485 -0.9997492 0.01235832 0.01092757 -0.9998639 0.01684856 0.01358791 -0.9997657 0.01298611 0.01047296 -0.9998608 0.01723 0.01274787 -0.9997703 0.01355525 0.01002905 -0.9998578 0.01749456 0.01194437 -0.9997756 0.01407019 0.00960639 -0.9998549 0.01766404 0.01119613 -0.9997813 0.01453682 0.009213979 -0.9998519 0.01775943 0.01051577 -0.999787 0.01496167 0.008859152 -0.9998488 0.01779872 0.009910591 -0.9997925 0.0153517 0.008548055 -0.9998456 0.01779748 0.009384426 -0.9997976 0.01571447 0.008286076 -0.9998422 0.01776866 0.008938791 -0.9998022 0.01605681 0.008077622 -0.9998385 0.01772127 0.008573223 -0.9998062 0.01638515 0.007926833 -0.9998343 0.0176626 0.008286863 -0.9998097 0.01639831 0.007693686 -0.9998359 0.01801007 0.008123126 -0.9998048 0.01618181 0.007298523 -0.9998424 0.01892697 0.007969807 -0.9997891 0.01631932 0.006871773 -0.9998432 0.01953359 0.007563453 -0.9997806 0.01671603 0.006472487 -0.9998393 0.01960577 0.007006869 -0.9997832 0.01704227 0.006090704 -0.9998362 0.01955407 0.006485902 -0.9997878 0.01729561 0.005736794 -0.999834 0.01939582 0.006015286 -0.9997938 0.01747418 0.005419322 -0.9998326 0.01915051 0.005605114 -0.9998009 0.01757725 0.00514464 -0.9998323 0.01883578 0.005260523 -0.9998088 0.01760613 0.004917103 -0.9998329 0.01846671 0.004982799 -0.9998171 0.01756266 0.004738863 -0.9998345 0.01805687 0.004770277 -0.9998256 0.01744939 0.004609794 -0.9998371 0.0176162 0.004618746 -0.9998342 0.01726971 0.0045279 -0.9998406 0.01715227 0.004522439 -0.9998427 0.01665158 0.004390424 -0.9998517 0.01710008 0.004407098 -0.9998441 0.01593712 0.004107376 -0.9998646 0.01755469 0.004136334 -0.9998373 0.01582271 0.003728234 -0.9998679 0.01762838 0.003711189 -0.9998377 0.01601405 0.003371334 -0.9998661 0.01720645 0.003329868 -0.9998464 0.01613172 0.003121882 -0.999865 0.01675747 0.003088742 -0.9998548 0.01618275 0.00298281 -0.9998646 0.01629586 0.002975565 -0.9998628 0.0161716 0.002952875 -0.9998649 0.01582772 0.00297633 -0.9998703 0.01609889 0.003027323 -0.9998658 0.01535379 0.003076272 -0.9998774 0.01596189 0.003198111 -0.9998675 0.01487058 0.003260179 -0.9998841 0.01575605 0.003454305 -0.9998699 0.01437378 0.003512629 -0.9998905 0.01547415 0.003781535 -0.9998731 0.0138571 0.00381743 -0.9998967 0.01510974 0.004162513 -0.9998772 0.01331524 0.004158006 -0.9999027 0.01464656 0.004573741 -0.9998823 0.01275593 0.004514986 -0.9999084 0.0132821 0.004701225 -0.9999007 0.01181631 0.004633236 -0.9999195 0.01171598 0.004593898 -0.9999208 0.01081945 0.00455101 -0.9999311 0.0107531 0.004523103 -0.999932 0.01017295 0.004494105 -0.9999382 0.0101926 0.004502785 -0.9999379 0.009788196 0.004480593 -0.9999421 0.009924734 0.004543094 -0.9999404 0.009627686 0.0045241 -0.9999434 0.009902663 0.004653314 -0.9999401 0.00967814 0.004635814 -0.9999424 0.01012088 0.004847885 -0.999937 0.009953007 0.004831551 -0.9999388 0.01060948 0.005150227 -0.9999305 0.01049762 0.005136557 -0.9999317 0.01278207 0.006267251 -0.9998987 0.01288462 0.006281713 -0.9998973 0.014921 0.007274521 -0.9998622 0.01141532 0.005585596 -0.9999192 0.01144032 0.005609367 -0.9999188 0.01142651 0.005594826 -0.9999191</float_array>
          <technique_common>
            <accessor source="#normals-array" count="118" stride="3">
              <param name="X" type="float" />
              <param name="Y" type="float" />
              <param name="Z" type="float" />
            </accessor>
          </technique_common>
        </source>
        <source id="uv">
          <float_array id="uv-array" count="708">4.175676 -3.506446 3.985736 -3.506446 4.034458 -3.418247 4.175676 -3.506446 4.034458 -3.418247 4.170213 -3.165352 4.175676 -3.506446 4.170213 -3.165352 4.737987 -3.506446 4.737987 -3.506446 4.170213 -3.165352 4.33745 -2.854415 4.737987 -3.506446 4.33745 -2.854415 5.436171 -3.506446 5.436171 -3.506446 4.33745 -2.854415 4.53107 -2.499009 5.436171 -3.506446 4.53107 -2.499009 6.221143 -3.506446 6.393713 -3.506446 6.221143 -3.506446 4.53107 -2.499009 4.53107 -2.499009 4.747553 -2.110508 6.578103 -3.220408 4.53107 -2.499009 6.578103 -3.220408 6.393713 -3.506446 6.578103 -3.220408 4.747553 -2.110508 4.984073 -1.699311 6.578103 -3.220408 4.984073 -1.699311 6.823129 -2.846083 6.823129 -2.846083 4.984073 -1.699311 5.238249 -1.275219 6.823129 -2.846083 5.238249 -1.275219 7.077553 -2.467819 7.077553 -2.467819 5.238249 -1.275219 5.508157 -0.8475475 7.077553 -2.467819 5.508157 -0.8475475 7.337591 -2.096134 7.337591 -2.096134 5.508157 -0.8475475 5.792469 -0.4251298 7.337591 -2.096134 5.792469 -0.4251298 7.598856 -1.742048 7.598856 -1.742048 5.792469 -0.4251298 6.090819 -0.0161845 7.598856 -1.742048 6.090819 -0.0161845 7.856004 -1.417178 7.856004 -1.417178 6.090819 -0.0161845 6.404536 0.3718592 7.856004 -1.417178 6.404536 0.3718592 8.101994 -1.133933 8.101994 -1.133933 6.404536 0.3718592 6.729475 0.7240002 8.101994 -1.133933 6.729475 0.7240002 8.335258 -0.8971577 8.335258 -0.8971577 6.729475 0.7240002 7.056974 1.03472 8.335258 -0.8971577 7.056974 1.03472 8.574982 -0.6820414 8.574982 -0.6820414 7.056974 1.03472 7.389117 1.319246 8.574982 -0.6820414 7.389117 1.319246 8.832007 -0.4698903 8.832007 -0.4698903 7.389117 1.319246 7.730418 1.584858 8.832007 -0.4698903 7.730418 1.584858 9.099714 -0.2658817 9.099714 -0.2658817 7.730418 1.584858 8.079191 1.832757 9.099714 -0.2658817 8.079191 1.832757 9.377687 -0.06911132 9.377687 -0.06911132 8.079191 1.832757 8.433861 2.064224 9.377687 -0.06911132 8.433861 2.064224 9.665394 0.1212432 9.665394 0.1212432 8.433861 2.064224 8.792964 2.280595 9.665394 0.1212432 8.792964 2.280595 9.962197 0.3059507 9.962197 0.3059507 8.792964 2.280595 9.155131 2.483234 9.962197 0.3059507 9.155131 2.483234 10.26736 0.4857509 10.26736 0.4857509 9.155131 2.483234 9.519079 2.673517 10.26736 0.4857509 9.519079 2.673517 10.58006 0.6613759 10.58006 0.6613759 9.519079 2.673517 9.883594 2.852809 10.58006 0.6613759 9.883594 2.852809 10.89941 0.8335595 10.89941 0.8335595 9.883594 2.852809 10.24751 3.022464 10.89941 0.8335595 10.24751 3.022464 11.22446 1.003055 11.22446 1.003055 10.24751 3.022464 10.60971 3.183812 11.22446 1.003055 10.60971 3.183812 11.55424 1.170637 11.55424 1.170637 10.60971 3.183812 10.97578 3.341199 11.55424 1.170637 10.97578 3.341199 11.88106 1.334064 11.88106 1.334064 10.97578 3.341199 11.35285 3.493577 11.88106 1.334064 11.35285 3.493577 12.19803 1.486416 12.19803 1.486416 11.35285 3.493577 11.73574 3.634039 12.19803 1.486416 11.73574 3.634039 12.51278 1.627234 12.51278 1.627234 11.73574 3.634039 12.11799 3.761355 12.51278 1.627234 12.11799 3.761355 12.83298 1.760758 12.83298 1.760758 12.11799 3.761355 12.49982 3.877337 12.83298 1.760758 12.49982 3.877337 13.15961 1.888179 13.15961 1.888179 12.49982 3.877337 12.88158 3.98383 13.15961 1.888179 12.88158 3.98383 13.49353 2.010658 13.49353 2.010658 12.88158 3.98383 13.26374 4.082695 13.49353 2.010658 13.26374 4.082695 13.83546 2.129344 13.83546 2.129344 13.26374 4.082695 13.6469 4.175787 13.83546 2.129344 13.6469 4.175787 14.18603 2.245384 14.18603 2.245384 13.6469 4.175787 14.03172 4.264941 14.18603 2.245384 14.03172 4.264941 14.54574 2.35995 14.54574 2.35995 14.03172 4.264941 14.41898 4.351968 14.54574 2.35995 14.41898 4.351968 14.91504 2.474239 14.91504 2.474239 14.41898 4.351968 14.80949 4.438645 14.91504 2.474239 14.80949 4.438645 15.29432 2.589479 15.29432 2.589479 14.80949 4.438645 15.20411 4.52672 15.29432 2.589479 15.20411 4.52672 15.68392 2.706931 15.68392 2.706931 15.20411 4.52672 15.61267 4.620265 15.68392 2.706931 15.61267 4.620265 16.07522 2.825523 16.07522 2.825523 15.61267 4.620265 16.0413 4.713478 16.07522 2.825523 16.0413 4.713478 16.46012 2.93598 16.46012 2.93598 16.0413 4.713478 16.47757 4.796886 16.46012 2.93598 16.47757 4.796886 16.84851 3.0349 16.84851 3.0349 16.47757 4.796886 16.91227 4.871831 16.84851 3.0349 16.91227 4.871831 17.24989 3.12725 17.24989 3.12725 16.91227 4.871831 17.34588 4.942006 17.24989 3.12725 17.34588 4.942006 17.66408 3.215654 17.66408 3.215654 17.34588 4.942006 17.77895 5.010931 17.66408 3.215654 17.77895 5.010931 18.09083 3.302901 18.09083 3.302901 17.77895 5.010931 18.21206 5.081975 18.09083 3.302901 18.21206 5.081975 18.52987 3.391937 18.52987 3.391937 18.21206 5.081975 18.6458 5.158368 18.52987 3.391937 18.6458 5.158368 18.98091 3.485847 18.98091 3.485847 18.6458 5.158368 19.08075 5.243226 18.98091 3.485847 19.08075 5.243226 19.44367 3.587826 19.44367 3.587826 19.08075 5.243226 19.51748 5.339578 19.44367 3.587826 19.51748 5.339578 19.91787 3.701157 19.91787 3.701157 19.51748 5.339578 19.9566 5.450391 19.91787 3.701157 19.9566 5.450391 20.40321 3.829187 20.40321 3.829187 19.9566 5.450391 20.39872 5.578598 20.40321 3.829187 20.39872 5.578598 20.89939 3.975298 20.89939 3.975298 20.39872 5.578598 20.84484 5.727249 20.89939 3.975298 20.84484 5.727249 21.40568 4.142749 21.40568 4.142749 20.84484 5.727249 21.32366 5.908997 21.40568 4.142749 21.32366 5.908997 21.9388 4.340185 21.9388 4.340185 21.32366 5.908997 21.85314 6.129076 21.9388 4.340185 21.85314 6.129076 22.50934 4.569035 22.50934 4.569035 21.85314 6.129076 22.41878 6.379344 22.50934 4.569035 22.41878 6.379344 23.10685 4.821806 23.10685 4.821806 22.41878 6.379344 23.00638 6.651463 23.10685 4.821806 23.00638 6.651463 23.72059 5.091205 23.72059 5.091205 23.00638 6.651463 23.60248 6.937255 23.72059 5.091205 23.60248 6.937255 24.33905 5.369779 24.33905 5.369779 23.60248 6.937255 24.19409 7.228655 24.33905 5.369779 24.19409 7.228655 24.95028 5.649961 24.95028 5.649961 24.19409 7.228655 24.76847 7.517675 24.95028 5.649961 24.76847 7.517675 25.54205 5.924104 25.54205 5.924104 24.76847 7.517675 25.31316 7.796417 25.54205 5.924104 25.31316 7.796417 26.1019 6.184478 26.49315 6.675942 25.81596 8.057087 26.26512 8.2921 26.49315 6.675942 26.26512 8.2921 26.49315 7.824377 26.49315 7.824377 26.26512 8.2921 26.49315 8.411925 26.49315 6.365814 26.1019 6.184478 25.31316 7.796417 25.31316 7.796417 25.81596 8.057087 26.49315 6.675942 25.31316 7.796417 26.49315 6.675942 26.49315 6.365814</float_array>
          <technique_common>
            <accessor source="#uv-array" count="354" stride="2">
              <param name="S" type="float" />
              <param name="T" type="float" />
            </accessor>
          </technique_common>
        </source>
        <vertices id="vertices">
          <input semantic="POSITION" source="#positions" />
        </vertices>
        <triangles count="118" material="m0">
          <input semantic="VERTEX" source="#vertices" offset="0" />
          <input semantic="NORMAL" source="#normals" offset="1" />
          <input semantic="TEXCOORD" source="#uv" offset="2" set="0" />
          <p>110 0 0 108 0 1 0 0 2 110 1 3 0 1 4 1 1 5 110 2 6 1 2 7 112 2 8 112 3 9 1 3 10 2 3 11 112 4 12 2 4 13 113 4 14 113 5 15 2 5 16 3 5 17 113 6 18 3 6 19 114 6 20 115 7 21 114 7 22 3 7 23 3 8 24 5 8 25 4 8 26 3 9 27 4 9 28 115 9 29 4 10 30 5 10 31 7 10 32 4 11 33 7 11 34 6 11 35 6 12 36 7 12 37 9 12 38 6 13 39 9 13 40 8 13 41 8 14 42 9 14 43 11 14 44 8 15 45 11 15 46 10 15 47 10 16 48 11 16 49 13 16 50 10 17 51 13 17 52 12 17 53 12 18 54 13 18 55 15 18 56 12 19 57 15 19 58 14 19 59 14 20 60 15 20 61 17 20 62 14 21 63 17 21 64 16 21 65 16 22 66 17 22 67 19 22 68 16 23 69 19 23 70 18 23 71 18 24 72 19 24 73 21 24 74 18 25 75 21 25 76 20 25 77 20 26 78 21 26 79 23 26 80 20 27 81 23 27 82 22 27 83 22 28 84 23 28 85 25 28 86 22 29 87 25 29 88 24 29 89 24 30 90 25 30 91 27 30 92 24 31 93 27 31 94 26 31 95 26 32 96 27 32 97 29 32 98 26 33 99 29 33 100 28 33 101 28 34 102 29 34 103 31 34 104 28 35 105 31 35 106 30 35 107 30 36 108 31 36 109 33 36 110 30 37 111 33 37 112 32 37 113 32 38 114 33 38 115 35 38 116 32 39 117 35 39 118 34 39 119 34 40 120 35 40 121 37 40 122 34 41 123 37 41 124 36 41 125 36 42 126 37 42 127 39 42 128 36 43 129 39 43 130 38 43 131 38 44 132 39 44 133 41 44 134 38 45 135 41 45 136 40 45 137 40 46 138 41 46 139 43 46 140 40 47 141 43 47 142 42 47 143 42 48 144 43 48 145 45 48 146 42 49 147 45 49 148 44 49 149 44 50 150 45 50 151 47 50 152 44 51 153 47 51 154 46 51 155 46 52 156 47 52 157 49 52 158 46 53 159 49 53 160 48 53 161 48 54 162 49 54 163 51 54 164 48 55 165 51 55 166 50 55 167 50 56 168 51 56 169 53 56 170 50 57 171 53 57 172 52 57 173 52 58 174 53 58 175 55 58 176 52 59 177 55 59 178 54 59 179 54 60 180 55 60 181 57 60 182 54 61 183 57 61 184 56 61 185 56 62 186 57 62 187 59 62 188 56 63 189 59 63 190 58 63 191 58 64 192 59 64 193 61 64 194 58 65 195 61 65 196 60 65 197 60 66 198 61 66 199 63 66 200 60 67 201 63 67 202 62 67 203 62 68 204 63 68 205 65 68 206 62 69 207 65 69 208 64 69 209 64 70 210 65 70 211 67 70 212 64 71 213 67 71 214 66 71 215 66 72 216 67 72 217 69 72 218 66 73 219 69 73 220 68 73 221 68 74 222 69 74 223 71 74 224 68 75 225 71 75 226 70 75 227 70 76 228 71 76 229 73 76 230 70 77 231 73 77 232 72 77 233 72 78 234 73 78 235 75 78 236 72 79 237 75 79 238 74 79 239 74 80 240 75 80 241 77 80 242 74 81 243 77 81 244 76 81 245 76 82 246 77 82 247 79 82 248 76 83 249 79 83 250 78 83 251 78 84 252 79 84 253 81 84 254 78 85 255 81 85 256 80 85 257 80 86 258 81 86 259 83 86 260 80 87 261 83 87 262 82 87 263 82 88 264 83 88 265 85 88 266 82 89 267 85 89 268 84 89 269 84 90 270 85 90 271 87 90 272 84 91 273 87 91 274 86 91 275 86 92 276 87 92 277 89 92 278 86 93 279 89 93 280 88 93 281 88 94 282 89 94 283 91 94 284 88 95 285 91 95 286 90 95 287 90 96 288 91 96 289 93 96 290 90 97 291 93 97 292 92 97 293 92 98 294 93 98 295 95 98 296 92 99 297 95 99 298 94 99 299 94 100 300 95 100 301 97 100 302 94 101 303 97 101 304 96 101 305 96 102 306 97 102 307 99 102 308 96 103 309 99 103 310 98 103 311 98 104 312 99 104 313 101 104 314 98 105 315 101 105 316 100 105 317 100 106 318 101 106 319 103 106 320 100 107 321 103 107 322 102 107 323 102 108 324 103 108 325 105 108 326 102 109 327 105 109 328 104 109 329 104 110 330 105 110 331 107 110 332 104 111 333 107 111 334 106 111 335 117 112 336 109 112 337 111 112 338 117 113 339 111 113 340 118 113 341 118 114 342 111 114 343 119 114 344 116 115 345 106 115 346 107 115 347 107 116 348 109 116 349 117 116 350 107 117 351 117 117 352 116 117 353</p>
        </triangles>
      </mesh>
    </geometry>
  </library_geometries>
  <library_visual_scenes>
    <visual_scene id="Scene">
      <node id="Node" type="NODE">
        <instance_geometry url="#geometry">
          <bind_material>
            <technique_common>
              <instance_material symbol="m0" target="#m0">
                <bind_vertex_input semantic="UVSET0" input_semantic="TEXCOORD" input_set="0" />
              </instance_material>
            </technique_common>
          </bind_material>
        </instance_geometry>
      </node>
    </visual_scene>
  </library_visual_scenes>
  <scene>
    <instance_visual_scene url="#Scene" />
  </scene>
</COLLADA>