<?xml version='1.0' encoding='utf-8'?>
<COLLADA xmlns="http://www.collada.org/2005/11/COLLADASchema" version="1.4.1">
  <asset>
    <created>2026-09-15T00:00:00Z</created>
    <modified>2026-09-15T00:00:00Z</modified>
    <unit name="meter" meter="1" />
    <up_axis>Z_UP</up_axis>
  </asset>
  <library_images />
  <library_effects>
    <effect id="e0">
      <profile_COMMON>
        <technique sid="common">
          <phong>
            <ambient>
              <color>0.225 0.225 0.225 1</color>
            </ambient>
            <diffuse>
              <color>0.5 0.5 0.5 1</color>
            </diffuse>
            <specular>
              <color>0.02 0.02 0.02 1</color>
            </specular>
            <shininess>
              <float>8</float>
            </shininess>
          </phong>
        </technique>
      </profile_COMMON>
    </effect>
  </library_effects>
  <library_materials>
    <material id="m0" name="m0">
      <instance_effect url="#e0" />
    </material>
  </library_materials>
  <library_geometries>
    <geometry id="geometry" name="canopy_8_1">
      <mesh>
        <source id="positions">
          <float_array id="positions-array" count="48">0.7386289 2.626757 13.09538 0.2076928 1.256542 17.17488 0.2061166 1.258453 17.15667 2.208197 1.220835 15.68865 0.201001 1.263179 14.72544 1.917497 -0.1461654 11.75873 0.02190578 -1.909282 13.84424 0.02497886 -1.911032 14.16524 0.03231543 -1.922072 14.31148 0.0417817 -1.918435 11.72068 0.02191012 -1.909268 12.03286 0.3786182 2.792999 12.88482 2.505104 -1.870693 16.14255 0.5866392 -2.336699 14.37123 2.88433 0.3620972 14.49001 4.140574 -2.761779 14.63777</float_array>
          <technique_common>
            <accessor source="#positions-array" count="16" stride="3">
              <param name="X" type="float" />
              <param name="Y" type="float" />
              <param name="Z" type="float" />
            </accessor>
          </technique_common>
        </source>
        <source id="normals">
          <float_array id="normals-array" count="84">0.2671367 0.9024789 0.3378903 0.2254253 0.9143255 0.3364407 -0.8879012 0.4431889 0.1233491 -0.9962449 -0.02075318 0.08405557 -0.4947298 -0.5664326 0.6590877 -0.4775899 -0.5712221 0.6675427 0.5894051 0.1724779 0.7892104 0.7155206 0.1682655 0.6780243 0.8968392 0.3719814 0.2393937 0.7425646 0.6671616 -0.05910402 0.777391 0.508786 -0.3698649 0.5966056 0.5398733 -0.5938001 -0.9930013 0.1180808 0.002318948 -0.2158669 0.2487349 -0.94421 -0.9940012 0.08733227 -0.06583812 -0.9963073 0.08082633 -0.02896397 -0.9984422 0.0557515 0.002209236 -0.9988081 0.04781121 0.009823029 -0.9986675 0.009136474 0.05079117 -0.8651624 -0.501461 0.005547986 -0.7754776 -0.6313751 -6.509364e-06 -0.5988452 -0.8008629 -0.001765462 -0.1381219 -0.9107404 0.3891971 -0.5707839 -0.8210093 -0.01222499 -0.1078396 -0.9851914 -0.1332983 0.4501042 -0.4599461 -0.7654122 0.8682065 0.3316856 -0.3690558 -0.9984103 0.05636389 -1.973596e-06</float_array>
          <technique_common>
            <accessor source="#normals-array" count="28" stride="3">
              <param name="X" type="float" />
              <param name="Y" type="float" />
              <param name="Z" type="float" />
            </accessor>
          </technique_common>
        </source>
        <source id="uv">
          <float_array id="uv-array" count="168">0.8832789 6.27546 0.2954515 5.238154 0.08307711 6.869952 0.2954515 5.238154 0.1514473 5.153927 0.08307711 6.869952 1.117199 5.153927 0.5033811 6.862669 0.5026169 6.869952 0.5033811 6.862669 -0.7688288 5.72459 0.5026169 6.869952 0.01292617 -0.7688288 0.2346557 -0.9346797 0.08307711 0.5026169 0.2346557 -0.9346797 1.002041 -0.748277 0.08307711 0.5026169 1.002041 -0.748277 0.8832789 0.488334 0.08307711 0.5026169 -0.748277 6.45702 -1.104712 5.85511 0.488334 6.27546 -1.104712 5.85511 0.1448389 5.796003 0.488334 6.27546 0.1448389 5.796003 1.050703 5.238154 0.488334 6.27546 0.1448389 5.796003 -0.05846615 4.703491 1.050703 5.238154 -0.05846615 4.703491 1.117199 5.153927 1.050703 5.238154 0.5052715 5.890174 0.5033811 6.862669 1.117199 5.153927 0.7669987 -0.05846615 0.01671268 -0.767374 0.1514473 1.117199 -0.767374 4.688274 -0.7637073 4.813143 1.117199 5.153927 -0.7637073 4.813143 0.5052715 5.890174 1.117199 5.153927 0.5052715 5.890174 -0.7637126 5.537698 0.5033811 6.862669 -0.7637126 5.537698 -0.7644129 5.666095 0.5033811 6.862669 -0.7644129 5.666095 -0.7688288 5.72459 0.5033811 6.862669 -0.7644129 5.666095 -0.7637126 5.537698 -0.7688288 5.72459 -0.7637126 5.537698 -0.7637073 4.813143 -0.7688288 5.72459 0.008764047 4.813143 0.2346557 5.748491 0.01292617 5.72459 1.65623 5.85511 1.002041 6.45702 0.2346557 5.748491 0.008764047 4.813143 0.01671268 4.688274 0.2346557 5.748491 0.01671268 4.688274 1.65623 5.85511 0.2346557 5.748491 0.01671268 -0.767374 0.7669987 -0.05846615 1.65623 -1.104712 -0.05846615 4.703491 0.1448389 5.796003 -1.104712 5.85511 -0.7637073 4.813143 -0.7637126 5.537698 0.5052715 5.890174</float_array>
          <technique_common>
            <accessor source="#uv-array" count="84" stride="2">
              <param name="S" type="float" />
              <param name="T" type="float" />
            </accessor>
          </technique_common>
        </source>
        <vertices id="vertices">
          <input semantic="POSITION" source="#positions" />
        </vertices>
        <triangles count="28" material="m0">
          <input semantic="VERTEX" source="#vertices" offset="0" />
          <input semantic="NORMAL" source="#normals" offset="1" />
          <input semantic="TEXCOORD" source="#uv" offset="2" set="0" />
          <p>3 0 0 0 0 1 1 0 2 0 1 3 11 1 4 1 1 5 11 2 6 2 2 7 1 2 8 2 3 9 8 3 10 1 3 11 8 4 12 13 4 13 1 4 14 13 5 15 12 5 16 1 5 17 12 6 18 3 6 19 1 6 20 12 7 21 15 7 22 3 7 23 15 8 24 14 8 25 3 8 26 14 9 27 0 9 28 3 9 29 14 10 30 5 10 31 0 10 32 5 11 33 11 11 34 0 11 35 4 12 36 2 12 37 11 12 38 5 13 39 9 13 40 11 13 41 9 14 42 10 14 43 11 14 44 10 15 45 4 15 46 11 15 47 4 16 48 6 16 49 2 16 50 6 17 51 7 17 52 2 17 53 7 18 54 8 18 55 2 18 56 7 19 57 6 19 58 8 19 59 6 20 60 10 20 61 8 20 62 10 21 63 13 21 64 8 21 65 15 22 66 12 22 67 13 22 68 10 23 69 9 23 70 13 23 71 9 24 72 15 24 73 13 24 74 9 25 75 5 25 76 15 25 77 5 26 78 14 26 79 15 26 80 10 27 81 6 27 82 4 27 83</p>
        </triangles>
      </mesh>
    </geometry>
  </library_geometries>
  <library_visual_scenes>
    <visual_scene id="Scene">
      <node id="Node" type="NODE">
        <instance_geometry url="#geometry">
          <bind_material>
            <technique_common>
              <instance_material symbol="m0" target="#m0">
                <bind_vertex_input semantic="UVSET0" input_semantic="TEXCOORD" input_set="0" />
              </instance_material>
            </technique_common>
          </bind_material>
        </instance_geometry>
      </node>
    </visual_scene>
  </library_visual_scenes>
  <scene>
    <instance_visual_scene url="#Scene" />
  </scene>
</COLLADA>