<?xml version='1.0' encoding='utf-8'?>
<COLLADA xmlns="http://www.collada.org/2005/11/COLLADASchema" version="1.4.1">
  <asset>
    <created>2026-09-15T00:00:00Z</created>
    <modified>2026-09-15T00:00:00Z</modified>
    <unit name="meter" meter="1" />
    <up_axis>Z_UP</up_axis>
  </asset>
  <library_images />
  <library_effects>
    <effect id="e0">
      <profile_COMMON>
        <technique sid="common">
          <phong>
            <ambient>
              <color>0.225 0.225 0.225 1</color>
            </ambient>
            <diffuse>
              <color>0.5 0.5 0.5 1</color>
            </diffuse>
            <specular>
              <color>0.02 0.02 0.02 1</color>
            </specular>
            <shininess>
              <float>8</float>
            </shininess>
          </phong>
        </technique>
      </profile_COMMON>
    </effect>
  </library_effects>
  <library_materials>
    <material id="m0" name="m0">
      <instance_effect url="#e0" />
    </material>
  </library_materials>
  <library_geometries>
    <geometry id="geometry" name="canopy_0_0">
      <mesh>
        <source id="positions">
          <float_array id="positions-array" count="39">-2.211204 -1.563313 17.57287 -3.653031 0.08259305 16.12774 -0.04157059 0.4152369 14.31124 -0.9935669 -2.056823 14.67953 -2.058315 3.920347 13.49573 -0.6651724 2.292124 11.67056 -0.8028139 2.233467 11.56485 -0.6768801 -1.693267 17.43789 -1.794869 -2.757559 15.00754 -0.691031 -1.688375 13.73364 -4.40484 -0.07758013 12.77195 -2.261469 0.7028745 11.44026 -0.1722016 3.51443 14.59445</float_array>
          <technique_common>
            <accessor source="#positions-array" count="13" stride="3">
              <param name="X" type="float" />
              <param name="Y" type="float" />
              <param name="Z" type="float" />
            </accessor>
          </technique_common>
        </source>
        <source id="normals">
          <float_array id="normals-array" count="66">-0.04030887 -0.908327 0.4163138 0.1166729 0.4672194 0.8764094 -0.185531 0.5515305 0.8132603 -0.8191825 -0.53409 0.2090167 -0.7709819 -0.6160018 0.1616438 0.6323531 -0.7685678 -0.09712371 0.6633121 -0.7480065 0.02243365 -0.1586347 -0.7189744 -0.6766911 -0.09448374 -0.720711 -0.6867666 0.7680614 -0.6403651 -0.003779916 0.9558026 -0.2939814 -0.004039628 0.9767878 0.02169779 0.2131077 0.9800771 0.05865064 -0.1897606 0.4136164 0.81309 -0.4096415 -0.2907972 0.6203837 0.7283963 -0.8629511 0.475606 0.1706292 -0.583251 0.4631425 -0.667321 0.4952179 -0.4095758 -0.7661637 0.6598101 -0.3491552 -0.665388 0.9178738 -0.1873096 -0.3498896 -0.4602386 0.4984122 -0.7346875 0.1284423 0.7867249 -0.6037934</float_array>
          <technique_common>
            <accessor source="#normals-array" count="22" stride="3">
              <param name="X" type="float" />
              <param name="Y" type="float" />
              <param name="Z" type="float" />
            </accessor>
          </technique_common>
        </source>
        <source id="uv">
          <float_array id="uv-array" count="132">-0.7179475 6.003015 -0.270752 6.975156 -0.8844817 7.029148 -0.270752 -0.6773068 -0.06888065 1.405772 -0.8844817 -0.6253253 -0.06888065 1.405772 -1.461213 0.03303722 -0.8844817 -0.6253253 0.03303722 6.451094 -0.03103205 5.108779 -0.6253253 7.029148 -0.03103205 5.108779 -1.103023 6.003015 -0.6253253 7.029148 -0.2764124 5.493458 -0.3974268 5.871813 -0.7179475 6.003015 -0.3974268 5.871813 -0.270752 6.975156 -0.7179475 6.003015 -1.761936 5.108779 -0.9045876 4.576105 -0.7179475 6.003015 -0.9045876 4.576105 -0.2764124 5.493458 -0.7179475 6.003015 -0.8227292 5.871813 -0.6753498 5.493458 -0.6773068 6.975156 -0.6753498 5.493458 0.1660948 5.724498 -0.6773068 6.975156 0.1660948 5.724498 1.405772 5.83778 -0.6773068 6.975156 0.1660948 5.724498 0.9168496 4.668225 1.405772 5.83778 -0.266069 4.668225 -0.823326 5.398293 -0.06888065 5.83778 -0.823326 1.568139 -1.461213 0.03303722 -0.06888065 1.405772 1.568139 5.398293 -0.03103205 5.108779 0.03303722 6.451094 -0.823326 1.568139 -0.9045876 0.2811498 -1.761936 -0.03103205 -0.9045876 0.2811498 -0.3211256 0.8933868 -0.2764124 -0.6753498 -0.3211256 0.8933868 -0.266069 0.9168496 -0.2764124 -0.6753498 0.9168496 4.668225 0.1660948 5.724498 -0.6753498 5.493458 -0.823326 1.568139 -0.3211256 0.8933868 -0.9045876 0.2811498 -0.3211256 4.625942 -0.823326 5.398293 -0.266069 4.668225</float_array>
          <technique_common>
            <accessor source="#uv-array" count="66" stride="2">
              <param name="S" type="float" />
              <param name="T" type="float" />
            </accessor>
          </technique_common>
        </source>
        <vertices id="vertices">
          <input semantic="POSITION" source="#positions" />
        </vertices>
        <triangles count="22" material="m0">
          <input semantic="VERTEX" source="#vertices" offset="0" />
          <input semantic="NORMAL" source="#normals" offset="1" />
          <input semantic="TEXCOORD" source="#uv" offset="2" set="0" />
          <p>8 0 0 7 0 1 0 0 2 7 1 3 12 1 4 0 1 5 12 2 6 1 2 7 0 2 8 1 3 9 10 3 10 0 3 11 10 4 12 8 4 13 0 4 14 9 5 15 3 5 16 8 5 17 3 6 18 7 6 19 8 6 20 10 7 21 11 7 22 8 7 23 11 8 24 9 8 25 8 8 26 3 9 27 9 9 28 7 9 29 9 10 30 2 10 31 7 10 32 2 11 33 12 11 34 7 11 35 2 12 36 5 12 37 12 12 38 5 13 39 4 13 40 12 13 41 4 14 42 1 14 43 12 14 44 4 15 45 10 15 46 1 15 47 4 16 48 11 16 49 10 16 50 11 17 51 6 17 52 9 17 53 6 18 54 5 18 55 9 18 56 5 19 57 2 19 58 9 19 59 4 20 60 6 20 61 11 20 62 6 21 63 4 21 64 5 21 65</p>
        </triangles>
      </mesh>
    </geometry>
  </library_geometries>
  <library_visual_scenes>
    <visual_scene id="Scene">
      <node id="Node" type="NODE">
        <instance_geometry url="#geometry">
          <bind_material>
            <technique_common>
              <instance_material symbol="m0" target="#m0">
                <bind_vertex_input semantic="UVSET0" input_semantic="TEXCOORD" input_set="0" />
              </instance_material>
            </technique_common>
          </bind_material>
        </instance_geometry>
      </node>
    </visual_scene>
  </library_visual_scenes>
  <scene>
    <instance_visual_scene url="#Scene" />
  </scene>
</COLLADA>