<?xml version='1.0' encoding='utf-8'?>
<COLLADA xmlns="http://www.collada.org/2005/11/COLLADASchema" version="1.4.1">
  <asset>
    <created>2026-09-15T00:00:00Z</created>
    <modified>2026-09-15T00:00:00Z</modified>
    <unit name="meter" meter="1" />
    <up_axis>Z_UP</up_axis>
  </asset>
  <library_images />
  <library_effects>
    <effect id="e0">
      <profile_COMMON>
        <technique sid="common">
          <phong>
            <ambient>
              <color>0.225 0.225 0.225 1</color>
            </ambient>
            <diffuse>
              <color>0.5 0.5 0.5 1</color>
            </diffuse>
            <specular>
              <color>0.02 0.02 0.02 1</color>
            </specular>
            <shininess>
              <float>8</float>
            </shininess>
          </phong>
        </technique>
      </profile_COMMON>
    </effect>
  </library_effects>
  <library_materials>
    <material id="m0" name="m0">
      <instance_effect url="#e0" />
    </material>
  </library_materials>
  <library_geometries>
    <geometry id="geometry" name="canopy_5_0">
      <mesh>
        <source id="positions">
          <float_array id="positions-array" count="39">-3.026881 1.531143 14.34049 -1.403792 -4.21339 12.69122 -3.319685 0.6133915 13.74852 -2.968865 -2.202384 13.53199 -1.880289 -0.3453263 12.5971 -0.7831273 2.83161 15.0478 -0.7920714 2.851078 15.20208 -2.275713 4.839818 13.79206 -0.6947734 2.70249 13.56949 -0.7787722 2.856023 11.88535 -1.326133 -2.601726 16.461 -2.466193 -4.014441 14.45979 -1.18795 0.4780727 15.84175</float_array>
          <technique_common>
            <accessor source="#positions-array" count="13" stride="3">
              <param name="X" type="float" />
              <param name="Y" type="float" />
              <param name="Z" type="float" />
            </accessor>
          </technique_common>
        </source>
        <source id="normals">
          <float_array id="normals-array" count="66">0.4238554 -0.8359365 0.3486499 0.9941698 -0.1050238 0.02441961 0.9943999 -0.08205758 0.06659928 0.9943378 -0.08169915 0.0679535 0.4840166 0.1515701 0.861832 -0.5543261 0.1878994 0.8108122 -0.8432244 -0.07379916 0.5324718 -0.7915813 -0.4378393 -0.4262579 -0.8436489 -0.07385672 0.5317911 -0.9586077 -0.1385618 0.2487405 0.9938233 -0.09449828 -0.05818333 -0.5574776 -0.08875861 -0.8254336 -0.3891874 -0.07029117 -0.9184728 0.8571384 0.5150691 0.004204755 0.9969121 -0.04605205 0.0636046 0.8001251 0.5998191 0.004102492 -0.4136845 0.3006587 0.8593425 -0.5205719 0.2533377 0.815368 -0.9652411 0.2372963 0.1095449 -0.6323235 -0.01922693 -0.7744659 -0.6778911 0.1748026 -0.7140782 -0.6103642 0.03406567 -0.7913881</float_array>
          <technique_common>
            <accessor source="#normals-array" count="22" stride="3">
              <param name="X" type="float" />
              <param name="Y" type="float" />
              <param name="Z" type="float" />
            </accessor>
          </technique_common>
        </source>
        <source id="uv">
          <float_array id="uv-array" count="132">-0.9864773 5.783918 -0.5615169 5.076488 -0.5304531 6.584399 -1.685356 5.076488 1.080996 5.427795 -1.04069 6.584399 1.080996 5.427795 1.132644 6.019118 -1.04069 6.584399 1.132644 6.019118 1.140431 6.080831 -1.04069 6.584399 -0.3168286 1.140431 -0.47518 0.1912291 -0.5304531 -1.04069 -0.47518 0.1912291 -1.210752 0.6124573 -0.5304531 -1.04069 0.6124573 5.736196 -1.605776 5.783918 -1.04069 6.584399 -0.8809535 5.412795 -1.685356 5.076488 -1.605776 5.783918 0.6124573 5.736196 0.2453566 5.499406 -1.605776 5.783918 0.2453566 5.499406 -0.8809535 5.412795 -1.605776 5.783918 1.142409 4.754141 1.080996 5.427795 -1.685356 5.076488 -1.187546 -0.8809535 -0.7521157 -0.1381305 -0.5615169 -1.685356 -0.7521157 -0.1381305 -0.3115089 1.142409 -0.5615169 -1.685356 1.142409 4.754141 1.140431 6.080831 1.080996 5.427795 1.140431 6.080831 1.132644 6.019118 1.080996 5.427795 1.142409 4.754141 1.935927 5.516822 1.140431 6.080831 -0.9102854 1.935927 -0.47518 0.1912291 -0.3168286 1.140431 -0.9102854 1.935927 -1.210752 0.6124573 -0.47518 0.1912291 1.935927 5.516822 0.2453566 5.499406 0.6124573 5.736196 -1.327874 0.2453566 -0.7521157 -0.1381305 -1.187546 -0.8809535 -0.9102854 1.935927 -0.3115089 1.142409 -1.327874 0.2453566 -0.3115089 1.142409 -0.7521157 -0.1381305 -1.327874 0.2453566</float_array>
          <technique_common>
            <accessor source="#uv-array" count="66" stride="2">
              <param name="S" type="float" />
              <param name="T" type="float" />
            </accessor>
          </technique_common>
        </source>
        <vertices id="vertices">
          <input semantic="POSITION" source="#positions" />
        </vertices>
        <triangles count="22" material="m0">
          <input semantic="VERTEX" source="#vertices" offset="0" />
          <input semantic="NORMAL" source="#normals" offset="1" />
          <input semantic="TEXCOORD" source="#uv" offset="2" set="0" />
          <p>11 0 0 1 0 1 10 0 2 1 1 3 8 1 4 10 1 5 8 2 6 5 2 7 10 2 8 5 3 9 6 3 10 10 3 11 6 4 12 12 4 13 10 4 14 12 5 15 0 5 16 10 5 17 0 6 18 11 6 19 10 6 20 3 7 21 1 7 22 11 7 23 0 8 24 2 8 25 11 8 26 2 9 27 3 9 28 11 9 29 9 10 30 8 10 31 1 10 32 3 11 33 4 11 34 1 11 35 4 12 36 9 12 37 1 12 38 9 13 39 6 13 40 8 13 41 6 14 42 5 14 43 8 14 44 9 15 45 7 15 46 6 15 47 7 16 48 12 16 49 6 16 50 7 17 51 0 17 52 12 17 53 7 18 54 2 18 55 0 18 56 2 19 57 4 19 58 3 19 59 7 20 60 9 20 61 2 20 62 9 21 63 4 21 64 2 21 65</p>
        </triangles>
      </mesh>
    </geometry>
  </library_geometries>
  <library_visual_scenes>
    <visual_scene id="Scene">
      <node id="Node" type="NODE">
        <instance_geometry url="#geometry">
          <bind_material>
            <technique_common>
              <instance_material symbol="m0" target="#m0">
                <bind_vertex_input semantic="UVSET0" input_semantic="TEXCOORD" input_set="0" />
              </instance_material>
            </technique_common>
          </bind_material>
        </instance_geometry>
      </node>
    </visual_scene>
  </library_visual_scenes>
  <scene>
    <instance_visual_scene url="#Scene" />
  </scene>
</COLLADA>