<?xml version='1.0' encoding='utf-8'?>
<COLLADA xmlns="http://www.collada.org/2005/11/COLLADASchema" version="1.4.1">
  <asset>
    <created>2026-09-15T00:00:00Z</created>
    <modified>2026-09-15T00:00:00Z</modified>
    <unit name="meter" meter="1" />
    <up_axis>Z_UP</up_axis>
  </asset>
  <library_images />
  <library_effects>
    <effect id="e0">
      <profile_COMMON>
        <technique sid="common">
          <phong>
            <ambient>
              <color>0.225 0.225 0.225 1</color>
            </ambient>
            <diffuse>
              <color>0.5 0.5 0.5 1</color>
            </diffuse>
            <specular>
              <color>0.02 0.02 0.02 1</color>
            </specular>
            <shininess>
              <float>8</float>
            </shininess>
          </phong>
        </technique>
      </profile_COMMON>
    </effect>
  </library_effects>
  <library_materials>
    <material id="m0" name="m0">
      <instance_effect url="#e0" />
    </material>
  </library_materials>
  <library_geometries>
    <geometry id="geometry" name="canopy_7_1">
      <mesh>
        <source id="positions">
          <float_array id="positions-array" count="36">0.8319752 -2.444678 16.26703 1.513408 -4.331677 15.03123 0.1158094 -2.74567 13.7223 1.092981 1.233477 15.81773 3.212786 1.930923 14.22842 1.134713 1.171248 12.80012 1.112865 1.152731 12.92964 1.115256 1.164814 13.08767 3.110128 0.06477895 13.22175 2.100945 -1.708999 11.75876 1.599942 0.3933739 16.79545 3.152524 0.6566308 15.45409</float_array>
          <technique_common>
            <accessor source="#positions-array" count="12" stride="3">
              <param name="X" type="float" />
              <param name="Y" type="float" />
              <param name="Z" type="float" />
            </accessor>
          </technique_common>
        </source>
        <source id="normals">
          <float_array id="normals-array" count="60">0.459801 0.6042047 0.6507839 0.1793521 0.7902173 0.5859944 -0.8328437 0.1249663 0.5392169 0.5690146 -0.2967668 0.7669106 0.6548433 -0.2748545 0.7040137 0.9986253 -0.0521652 -0.005135092 0.9462865 -0.3165321 0.06594968 -0.3286438 0.9441486 -0.02401494 0.4435069 0.4064986 -0.7987869 0.4007359 0.4274289 -0.8103797 -0.6238798 0.7811287 -0.02473607 -0.9104546 0.4132249 -0.01782118 -0.9693835 0.2451789 -0.01352862 -0.9608175 0.09976981 0.2586032 -0.8239446 -0.487138 0.2895028 -0.2419099 -0.7354882 -0.6328797 0.9075751 -0.3917821 -0.1510434 -0.7660388 0.641701 -0.037475 -0.7078173 0.01786686 -0.7061696 -0.9664917 0.2204495 -0.1315134</float_array>
          <technique_common>
            <accessor source="#normals-array" count="20" stride="3">
              <param name="X" type="float" />
              <param name="Y" type="float" />
              <param name="Z" type="float" />
            </accessor>
          </technique_common>
        </source>
        <source id="uv">
          <float_array id="uv-array" count="120">1.261009 0.2626523 1.285114 0.7723694 0.639977 0.1573496 1.285114 5.69137 0.4371926 6.327093 0.639977 6.718182 0.4933907 6.327093 -0.977871 6.506812 0.1573496 6.718182 0.3327901 -0.977871 0.6053633 -1.732671 0.639977 0.1573496 0.6053633 -1.732671 1.261009 0.2626523 0.639977 0.1573496 0.02591158 5.288702 0.7723694 5.69137 0.2626523 6.181635 -1.732671 6.012494 0.02591158 5.288702 0.2626523 6.181635 0.4538851 5.120049 0.4371926 6.327093 1.285114 5.69137 1.244051 0.02591158 0.8403779 -0.6835995 1.285114 0.7723694 0.8403779 -0.6835995 0.4538851 0.4684992 1.285114 0.7723694 0.4538851 5.120049 0.4461023 5.23507 0.4371926 6.327093 0.4659256 5.23507 0.4610924 5.171857 0.4933907 6.327093 0.4610924 5.171857 -1.098268 5.488921 0.4933907 6.327093 -1.098268 5.488921 -0.977871 6.506812 0.4933907 6.327093 -1.098268 5.488921 -1.732671 6.012494 -0.977871 6.506812 0.04632378 5.488921 0.8403779 4.703505 0.6053633 6.012494 -0.6835995 4.703505 0.02591158 5.288702 -1.732671 6.012494 0.4610924 5.171857 0.4659256 5.23507 0.4684992 5.120049 -0.6835995 4.703505 -1.098268 5.488921 0.4684992 5.120049 -1.098268 5.488921 0.4610924 5.171857 0.4684992 5.120049</float_array>
          <technique_common>
            <accessor source="#uv-array" count="60" stride="2">
              <param name="S" type="float" />
              <param name="T" type="float" />
            </accessor>
          </technique_common>
        </source>
        <vertices id="vertices">
          <input semantic="POSITION" source="#positions" />
        </vertices>
        <triangles count="20" material="m0">
          <input semantic="VERTEX" source="#vertices" offset="0" />
          <input semantic="NORMAL" source="#normals" offset="1" />
          <input semantic="TEXCOORD" source="#uv" offset="2" set="0" />
          <p>11 0 0 4 0 1 10 0 2 4 1 3 3 1 4 10 1 5 3 2 6 0 2 7 10 2 8 0 3 9 1 3 10 10 3 11 1 4 12 11 4 13 10 4 14 8 5 15 4 5 16 11 5 17 1 6 18 8 6 19 11 6 20 5 7 21 3 7 22 4 7 23 8 8 24 9 8 25 4 8 26 9 9 27 5 9 28 4 9 29 5 10 30 7 10 31 3 10 32 7 11 33 6 11 34 3 11 35 6 12 36 2 12 37 3 12 38 2 13 39 0 13 40 3 13 41 2 14 42 1 14 43 0 14 44 2 15 45 9 15 46 1 15 47 9 16 48 8 16 49 1 16 50 6 17 51 7 17 52 5 17 53 9 18 54 2 18 55 5 18 56 2 19 57 6 19 58 5 19 59</p>
        </triangles>
      </mesh>
    </geometry>
  </library_geometries>
  <library_visual_scenes>
    <visual_scene id="Scene">
      <node id="Node" type="NODE">
        <instance_geometry url="#geometry">
          <bind_material>
            <technique_common>
              <instance_material symbol="m0" target="#m0">
                <bind_vertex_input semantic="UVSET0" input_semantic="TEXCOORD" input_set="0" />
              </instance_material>
            </technique_common>
          </bind_material>
        </instance_geometry>
      </node>
    </visual_scene>
  </library_visual_scenes>
  <scene>
    <instance_visual_scene url="#Scene" />
  </scene>
</COLLADA>