<?xml version='1.0' encoding='utf-8'?>
<COLLADA xmlns="http://www.collada.org/2005/11/COLLADASchema" version="1.4.1">
  <asset>
    <created>2026-09-15T00:00:00Z</created>
    <modified>2026-09-15T00:00:00Z</modified>
    <unit name="meter" meter="1" />
    <up_axis>Z_UP</up_axis>
  </asset>
  <library_images />
  <library_effects>
    <effect id="e0">
      <profile_COMMON>
        <technique sid="common">
          <phong>
            <ambient>
              <color>0.225 0.225 0.225 1</color>
            </ambient>
            <diffuse>
              <color>0.5 0.5 0.5 1</color>
            </diffuse>
            <specular>
              <color>0.02 0.02 0.02 1</color>
            </specular>
            <shininess>
              <float>8</float>
            </shininess>
          </phong>
        </technique>
      </profile_COMMON>
    </effect>
  </library_effects>
  <library_materials>
    <material id="m0" name="m0">
      <instance_effect url="#e0" />
    </material>
  </library_materials>
  <library_geometries>
    <geometry id="geometry" name="canopy_1_0">
      <mesh>
        <source id="positions">
          <float_array id="positions-array" count="48">-0.7813781 -3.361381 15.00309 -0.670518 -2.128477 15.99064 -1.272826 -3.58444 14.95403 -0.6723424 -2.12793 12.67627 -0.7048376 0.6641933 14.24258 -2.119001 2.539666 13.88495 -4.481113 2.085341 14.11522 -4.186903 -0.9763702 14.21907 -2.765805 -0.897939 12.71832 -2.901175 0.6417011 12.76324 -0.3264431 -1.201769 13.31178 -2.651445 -3.324498 13.58076 -1.395748 -1.173577 12.33131 -2.06654 2.143736 17.25266 -2.027536 2.025673 17.51152 -3.687679 2.869117 16.09722</float_array>
          <technique_common>
            <accessor source="#positions-array" count="16" stride="3">
              <param name="X" type="float" />
              <param name="Y" type="float" />
              <param name="Z" type="float" />
            </accessor>
          </technique_common>
        </source>
        <source id="normals">
          <float_array id="normals-array" count="84">0.8378623 0.5332077 0.1169456 0.1247228 0.9096938 0.3961078 -0.6972549 -0.2394672 0.6756413 -0.5483741 -0.4068309 0.7305987 -0.3830628 -0.4253348 0.8199715 0.9346227 0.1968756 0.2961762 0.7915975 0.6081714 0.0591694 0.9793195 0.1158563 0.1658633 0.7069242 0.425273 -0.5651558 0.3432572 0.9334221 0.1043921 -0.2078221 0.9352267 -0.2866375 -0.9152761 -0.07452399 0.3958734 -0.691943 -0.2705118 -0.6693566 -0.6353074 -0.5599904 0.5317849 -0.720577 -0.0925509 -0.6871704 0.2976105 -0.8379864 -0.4573912 0.4103771 -0.8135281 -0.4120227 0.2074017 -0.6228681 0.7543341 0.9859996 -0.1488533 0.07514928 0.6245985 0.401835 -0.6696307 0.2489269 0.4146956 -0.8752502 -0.1858597 0.5555682 -0.8104321 0.9531379 -0.2835006 -0.1056198 0.6591517 0.2423133 -0.7119012 -0.6691101 -0.03717623 -0.7422329 -0.3175811 -0.330811 -0.8886542 -0.271047 0.004250224 -0.9625567 -0.1455486 -0.4320424 -0.8900309</float_array>
          <technique_common>
            <accessor source="#normals-array" count="28" stride="3">
              <param name="X" type="float" />
              <param name="Y" type="float" />
              <param name="Z" type="float" />
            </accessor>
          </technique_common>
        </source>
        <source id="uv">
          <float_array id="uv-array" count="168">0.2656773 5.697034 0.8574943 6.901066 0.8102692 7.00461 -0.8266159 6.901066 -1.475072 6.438886 -0.8110146 7.00461 1.147647 6.438886 -0.3905481 5.687627 0.8102692 7.00461 -1.674761 -0.3905481 -0.5091305 -1.433776 -0.8110146 0.8102692 -0.5091305 -1.433776 -0.2682072 -0.8513908 -0.8110146 0.8102692 -0.8513908 6.396256 0.2656773 5.697034 0.8102692 7.00461 1.015866 5.553981 0.8574943 6.901066 0.2656773 5.697034 -0.8513908 6.396256 -0.4807077 5.324714 0.2656773 5.697034 -0.4807077 5.324714 1.015866 5.553981 0.2656773 5.697034 -0.8476003 5.553981 -1.475072 6.438886 -0.8266159 6.901066 -0.8476003 5.553981 -1.792445 5.646086 -1.475072 6.438886 0.8341364 5.646086 -0.3905481 5.687627 1.147647 6.438886 -0.3591756 5.087328 -1.329799 5.432305 -0.3905481 5.687627 -1.329799 5.432305 -1.433776 5.981611 -0.3905481 5.687627 0.8341364 5.646086 -0.3591756 5.087328 -0.3905481 5.687627 -1.060578 5.432305 -0.268937 5.070509 -0.5091305 5.981611 -0.268937 5.070509 -0.3125513 6.001236 -0.5091305 5.981611 -0.3125513 -1.344552 -0.2682072 -0.8513908 -0.5091305 -1.433776 -1.344552 6.001236 -0.4807077 5.324714 -0.8513908 6.396256 -0.1305772 -0.4807077 -0.5582993 -0.4694307 -0.8476003 1.015866 -0.5582993 -0.4694307 -1.16047 0.2566804 -0.8476003 1.015866 -1.16047 0.2566804 -1.792445 0.8341364 -0.8476003 1.015866 -1.344552 6.001236 -0.8511721 5.070509 -0.4807077 5.324714 -0.268937 -0.8511721 -0.5582993 -0.4694307 -0.1305772 -0.4807077 -1.16047 0.2566804 -1.106322 -0.3591756 -1.792445 0.8341364 -0.5582993 -0.4694307 -1.060578 -1.329799 -1.106322 -0.3591756 -1.16047 0.2566804 -0.5582993 -0.4694307 -1.106322 -0.3591756 -0.5582993 -0.4694307 -0.268937 -0.8511721 -1.060578 -1.329799</float_array>
          <technique_common>
            <accessor source="#uv-array" count="84" stride="2">
              <param name="S" type="float" />
              <param name="T" type="float" />
            </accessor>
          </technique_common>
        </source>
        <vertices id="vertices">
          <input semantic="POSITION" source="#positions" />
        </vertices>
        <triangles count="28" material="m0">
          <input semantic="VERTEX" source="#vertices" offset="0" />
          <input semantic="NORMAL" source="#normals" offset="1" />
          <input semantic="TEXCOORD" source="#uv" offset="2" set="0" />
          <p>4 0 0 13 0 1 14 0 2 13 1 3 15 1 4 14 1 5 15 2 6 7 2 7 14 2 8 7 3 9 2 3 10 14 3 11 2 4 12 1 4 13 14 4 14 1 5 15 4 5 16 14 5 17 5 6 18 13 6 19 4 6 20 1 7 21 10 7 22 4 7 23 10 8 24 5 8 25 4 8 26 5 9 27 15 9 28 13 9 29 5 10 30 6 10 31 15 10 32 6 11 33 7 11 34 15 11 35 8 12 36 11 12 37 7 12 38 11 13 39 2 13 40 7 13 41 6 14 42 8 14 43 7 14 44 11 15 45 3 15 46 2 15 47 3 16 48 0 16 49 2 16 50 0 17 51 1 17 52 2 17 53 0 18 54 10 18 55 1 18 56 10 19 57 12 19 58 5 19 59 12 20 60 9 20 61 5 20 62 9 21 63 6 21 64 5 21 65 0 22 66 3 22 67 10 22 68 3 23 69 12 23 70 10 23 71 9 24 72 8 24 73 6 24 74 12 25 75 11 25 76 8 25 77 9 26 78 12 26 79 8 26 80 12 27 81 3 27 82 11 27 83</p>
        </triangles>
      </mesh>
    </geometry>
  </library_geometries>
  <library_visual_scenes>
    <visual_scene id="Scene">
      <node id="Node" type="NODE">
        <instance_geometry url="#geometry">
          <bind_material>
            <technique_common>
              <instance_material symbol="m0" target="#m0">
                <bind_vertex_input semantic="UVSET0" input_semantic="TEXCOORD" input_set="0" />
              </instance_material>
            </technique_common>
          </bind_material>
        </instance_geometry>
      </node>
    </visual_scene>
  </library_visual_scenes>
  <scene>
    <instance_visual_scene url="#Scene" />
  </scene>
</COLLADA>