<?xml version='1.0' encoding='utf-8'?>
<COLLADA xmlns="http://www.collada.org/2005/11/COLLADASchema" version="1.4.1">
  <asset>
    <created>2026-09-15T00:00:00Z</created>
    <modified>2026-09-15T00:00:00Z</modified>
    <unit name="meter" meter="1" />
    <up_axis>Z_UP</up_axis>
  </asset>
  <library_images />
  <library_effects>
    <effect id="e0">
      <profile_COMMON>
        <technique sid="common">
          <phong>
            <ambient>
              <color>0.225 0.225 0.225 1</color>
            </ambient>
            <diffuse>
              <color>0.5 0.5 0.5 1</color>
            </diffuse>
            <specular>
              <color>0.02 0.02 0.02 1</color>
            </specular>
            <shininess>
              <float>8</float>
            </shininess>
          </phong>
        </technique>
      </profile_COMMON>
    </effect>
  </library_effects>
  <library_materials>
    <material id="m0" name="m0">
      <instance_effect url="#e0" />
    </material>
  </library_materials>
  <library_geometries>
    <geometry id="geometry" name="canopy_8_0">
      <mesh>
        <source id="positions">
          <float_array id="positions-array" count="51">-0.178244 1.393496 14.2083 -0.2735478 1.488683 11.43142 -0.2989056 1.488388 11.36248 -0.7235691 2.967439 16.03535 -2.237174 -1.752421 15.88839 -2.074952 -1.910608 13.50499 -2.232516 -1.754498 13.51867 -0.2088643 3.330543 13.18706 -3.584855 1.033906 13.34152 -3.755526 4.476682 13.28749 -2.338922 2.49452 11.87666 -0.03094698 -3.810475 13.15737 -1.619774 -0.1636901 17.20249 -1.597212 -0.1538024 17.18431 -3.655903 0.1338732 15.36413 -1.626601 -0.150813 17.21231 -0.106213 -1.330576 15.19682</float_array>
          <technique_common>
            <accessor source="#positions-array" count="17" stride="3">
              <param name="X" type="float" />
              <param name="Y" type="float" />
              <param name="Z" type="float" />
            </accessor>
          </technique_common>
        </source>
        <source id="normals">
          <float_array id="normals-array" count="90">0.6919163 0.07081581 0.7184963 -0.4805825 0.4280616 0.7653782 -0.6097437 0.3304963 0.720406 -0.6635969 -0.3098664 0.6808979 -0.05446616 -0.6237644 0.7797124 0.6659641 -0.1960844 0.7197519 0.674417 -0.2913396 0.6784415 0.7992239 -0.002460823 0.6010284 0.974716 0.1160719 0.1909346 0.3072466 0.9354432 0.1747729 0.9737446 0.09996474 0.2045204 0.2012998 0.6843205 -0.7008451 0.1173367 0.6301652 -0.7675441 -0.7372081 -0.04712421 -0.6740205 -0.9970806 -0.05033003 -0.05742043 -0.7990442 -0.6012713 -0.001043466 -0.8710213 -0.4367237 -0.2249318 -0.7038552 -0.7103431 -0.0007607812 -0.6805974 -0.732654 0.002302994 0.2396633 -0.6723961 0.7003177 0.4834974 -0.5472042 0.683226 0.9996684 0.02487897 0.006640894 0.9966765 0.04975955 0.06449786 0.9976903 0.02511969 -0.06311148 0.8992546 0.2848477 -0.3319683 0.9363747 -0.06920975 -0.3441111 -0.3748751 -0.3143797 -0.8721434 -0.4465943 -0.3322287 -0.8307693 -0.5455465 -0.3139493 -0.7770552 -0.6473717 -0.6138171 -0.4518169</float_array>
          <technique_common>
            <accessor source="#normals-array" count="30" stride="3">
              <param name="X" type="float" />
              <param name="Y" type="float" />
              <param name="Z" type="float" />
            </accessor>
          </technique_common>
        </source>
        <source id="uv">
          <float_array id="uv-array" count="180">-0.6388847 -0.06152098 -0.2894276 1.186976 -0.6506405 -0.0603252 -0.2894276 1.186976 -1.50221 1.790673 -0.6506405 -0.0603252 -1.50221 1.790673 -1.462361 0.05354927 -0.6506405 -0.0603252 -1.462361 0.05354927 -0.8948695 -0.7009683 -0.6506405 -0.0603252 -0.8948695 -0.7009683 -0.6479098 -0.06547606 -0.6506405 -0.0603252 -0.6479098 -0.06547606 -0.6388847 -0.06152098 -0.6506405 -0.0603252 -0.6479098 -0.06547606 -0.04248522 -0.5322303 -0.6388847 -0.06152098 -0.5322303 6.078726 1.186976 6.41414 -0.06152098 6.873722 0.5573986 5.68332 1.332217 5.274823 1.186976 6.41414 -0.08354574 5.274823 -1.50221 5.314994 -0.2894276 6.41414 -0.5322303 6.078726 0.5573986 5.68332 1.186976 6.41414 -0.08354574 1.332217 -0.1195622 0.5953554 -1.50221 1.790673 -0.1195622 0.5953554 -0.9355687 0.9978081 -1.50221 1.790673 0.9978081 4.750665 0.4135623 5.336607 1.790673 5.314994 0.4135623 5.336607 0.05354927 6.145652 1.790673 5.314994 -0.7017991 5.407466 -0.7009683 6.355355 0.05354927 6.145652 0.4135623 5.336607 -0.7017991 5.407466 0.05354927 6.145652 -0.8930065 5.407466 -0.8299809 5.401995 -0.8948695 6.355355 -0.8299809 5.401995 -0.01237879 5.262948 -0.8948695 6.355355 -0.01237879 -1.52419 -0.6479098 -0.06547606 -0.8948695 -0.7009683 -0.01237879 -1.52419 -0.04248522 -0.5322303 -0.6479098 -0.06547606 -1.52419 5.262948 1.332217 5.274823 -0.5322303 6.078726 1.332217 5.274823 0.5573986 5.68332 -0.5322303 6.078726 -1.52419 5.262948 0.595473 4.572568 1.332217 5.274823 0.595473 4.572568 0.5953554 4.544991 1.332217 5.274823 0.595473 4.572568 -1.52419 5.262948 0.5953554 4.544991 -0.01237879 -1.52419 -0.9355687 0.9978081 -0.1195622 0.5953554 -0.01237879 -1.52419 -0.8930065 -0.7017991 -0.9355687 0.9978081 -0.8930065 -0.7017991 -1.433942 0.4135623 -0.9355687 0.9978081 -1.52419 5.262948 -0.7642432 5.401995 -0.7017991 5.407466</float_array>
          <technique_common>
            <accessor source="#uv-array" count="90" stride="2">
              <param name="S" type="float" />
              <param name="T" type="float" />
            </accessor>
          </technique_common>
        </source>
        <vertices id="vertices">
          <input semantic="POSITION" source="#positions" />
        </vertices>
        <triangles count="30" material="m0">
          <input semantic="VERTEX" source="#vertices" offset="0" />
          <input semantic="NORMAL" source="#normals" offset="1" />
          <input semantic="TEXCOORD" source="#uv" offset="2" set="0" />
          <p>13 0 0 3 0 1 15 0 2 3 1 3 9 1 4 15 1 5 9 2 6 14 2 7 15 2 8 14 3 9 4 3 10 15 3 11 4 4 12 12 4 13 15 4 14 12 5 15 13 5 16 15 5 17 12 6 18 16 6 19 13 6 20 16 7 21 3 7 22 13 7 23 0 8 24 7 8 25 3 8 26 7 9 27 9 9 28 3 9 29 16 10 30 0 10 31 3 10 32 7 11 33 2 11 34 9 11 35 2 12 36 10 12 37 9 12 38 10 13 39 8 13 40 9 13 41 8 14 42 14 14 43 9 14 44 6 15 45 4 15 46 14 15 47 8 16 48 6 16 49 14 16 50 6 17 51 5 17 52 4 17 53 5 18 54 11 18 55 4 18 56 11 19 57 12 19 58 4 19 59 11 20 60 16 20 61 12 20 62 11 21 63 7 21 64 16 21 65 7 22 66 0 22 67 16 22 68 11 23 69 1 23 70 7 23 71 1 24 72 2 24 73 7 24 74 1 25 75 11 25 76 2 25 77 11 26 78 10 26 79 2 26 80 11 27 81 6 27 82 10 27 83 6 28 84 8 28 85 10 28 86 11 29 87 5 29 88 6 29 89</p>
        </triangles>
      </mesh>
    </geometry>
  </library_geometries>
  <library_visual_scenes>
    <visual_scene id="Scene">
      <node id="Node" type="NODE">
        <instance_geometry url="#geometry">
          <bind_material>
            <technique_common>
              <instance_material symbol="m0" target="#m0">
                <bind_vertex_input semantic="UVSET0" input_semantic="TEXCOORD" input_set="0" />
              </instance_material>
            </technique_common>
          </bind_material>
        </instance_geometry>
      </node>
    </visual_scene>
  </library_visual_scenes>
  <scene>
    <instance_visual_scene url="#Scene" />
  </scene>
</COLLADA>