<?xml version='1.0' encoding='utf-8'?>
<COLLADA xmlns="http://www.collada.org/2005/11/COLLADASchema" version="1.4.1">
  <asset>
    <created>2026-09-08T00:00:00Z</created>
    <modified>2026-09-08T00:00:00Z</modified>
    <unit name="meter" meter="1" />
    <up_axis>Z_UP</up_axis>
  </asset>
  <library_images />
  <library_effects>
    <effect id="e0">
      <profile_COMMON>
        <technique sid="common">
          <phong>
            <ambient>
              <color>0.1755 0.18 0.1485 1</color>
            </ambient>
            <diffuse>
              <color>0.39 0.4 0.33 1</color>
            </diffuse>
            <specular>
              <color>0.02 0.02 0.02 1</color>
            </specular>
            <shininess>
              <float>8</float>
            </shininess>
          </phong>
        </technique>
      </profile_COMMON>
    </effect>
    <effect id="e1">
      <profile_COMMON>
        <technique sid="common">
          <phong>
            <ambient>
              <color>0.045 0.09 0.06075 1</color>
            </ambient>
            <diffuse>
              <color>0.1 0.2 0.135 1</color>
            </diffuse>
            <specular>
              <color>0.02 0.02 0.02 1</color>
            </specular>
            <shininess>
              <float>8</float>
            </shininess>
          </phong>
        </technique>
      </profile_COMMON>
    </effect>
    <effect id="e2">
      <profile_COMMON>
        <technique sid="common">
          <phong>
            <ambient>
              <color>0.0765 0.1215 0.0765 1</color>
            </ambient>
            <diffuse>
              <color>0.17 0.27 0.17 1</color>
            </diffuse>
            <specular>
              <color>0.02 0.02 0.02 1</color>
            </specular>
            <shininess>
              <float>8</float>
            </shininess>
          </phong>
        </technique>
      </profile_COMMON>
    </effect>
    <effect id="e3">
      <profile_COMMON>
        <technique sid="common">
          <phong>
            <ambient>
              <color>0.099 0.1395 0.09225 1</color>
            </ambient>
            <diffuse>
              <color>0.22 0.31 0.205 1</color>
            </diffuse>
            <specular>
              <color>0.02 0.02 0.02 1</color>
            </specular>
            <shininess>
              <float>8</float>
            </shininess>
          </phong>
        </technique>
      </profile_COMMON>
    </effect>
    <effect id="e4">
      <profile_COMMON>
        <technique sid="common">
          <phong>
            <ambient>
              <color>0.054 0.1035 0.09 1</color>
            </ambient>
            <diffuse>
              <color>0.12 0.23 0.2 1</color>
            </diffuse>
            <specular>
              <color>0.02 0.02 0.02 1</color>
            </specular>
            <shininess>
              <float>8</float>
            </shininess>
          </phong>
        </technique>
      </profile_COMMON>
    </effect>
    <effect id="e5">
      <profile_COMMON>
        <technique sid="common">
          <phong>
            <ambient>
              <color>0.126 0.1485 0.0855 1</color>
            </ambient>
            <diffuse>
              <color>0.28 0.33 0.19 1</color>
            </diffuse>
            <specular>
              <color>0.02 0.02 0.02 1</color>
            </specular>
            <shininess>
              <float>8</float>
            </shininess>
          </phong>
        </technique>
      </profile_COMMON>
    </effect>
  </library_effects>
  <library_materials>
    <material id="m0" name="m0">
      <instance_effect url="#e0" />
    </material>
    <material id="m1" name="m1">
      <instance_effect url="#e1" />
    </material>
    <material id="m2" name="m2">
      <instance_effect url="#e2" />
    </material>
    <material id="m3" name="m3">
      <instance_effect url="#e3" />
    </material>
    <material id="m4" name="m4">
      <instance_effect url="#e4" />
    </material>
    <material id="m5" name="m5">
      <instance_effect url="#e5" />
    </material>
  </library_materials>
  <library_geometries>
    <geometry id="geometry" name="forest_21_27">
      <mesh>
        <source id="positions">
          <float_array id="positions-array" count="810">17.28171 70.50904 -1.81828 17.38151 70.57764 -1.82259 17.25141 70.61179 -1.821361 17.3241 70.62314 0.6336725 17.3643 70.62517 0.6329994 17.33765 70.65831 0.6323012 17.30186 70.58621 -0.4339031 17.35176 70.59093 -0.4398295 17.32781 70.63081 -0.4488876 17.45353 71.00803 1.425112 17.46606 71.00858 1.423814 17.4576 71.01869 1.42173 17.4592 71.01189 1.808195 17.45866 71.01307 1.916428 17.5001 70.8463 1.685187 16.87519 70.81852 1.552339 17.49816 71.61781 1.241586 17.45821 71.01236 0.9306223 17.37781 70.62771 1.037086 17.45952 71.01198 0.9960434 17.31567 70.57988 -0.3077237 17.35187 70.60145 -0.2802988 17.30473 70.62087 -0.3003469 16.65621 70.20968 1.219503 16.66823 70.20807 1.225744 16.66156 70.21876 1.225524 16.66483 70.21419 1.656991 16.30379 70.57671 1.201008 16.6573 70.20995 1.491134 17.12513 70.36927 1.153095 16.66804 70.21198 0.8151498 16.66008 70.21138 0.8632655 16.6796 70.19358 1.180279 17.3048 70.58692 -0.2384022 17.35161 70.59001 -0.2591612 17.32201 70.63081 -0.2398384 17.74803 70.46198 0.9678384 17.7597 70.4634 0.962737 17.7546 70.47349 0.9665206 17.7539 70.46626 1.383364 17.75398 70.46626 1.370812 17.90364 70.78378 1.320087 17.75408 70.46586 1.438748 18.223 70.08729 0.9432789 17.22758 70.60764 0.6455468 17.32779 70.20641 1.082879 17.75119 70.4761 0.4930782 17.754 70.4663 0.5959634 17.75399 70.46618 0.4978791 17.34139 70.58605 -0.3506496 17.33801 70.6265 -0.3809456 17.30092 70.60517 -0.384833 16.76769 71.36647 1.023286 16.77944 71.36938 1.027243 16.77166 71.37661 1.01813 16.77304 71.37088 1.351053 16.77317 71.371 1.389292 16.59001 71.91995 1.158242 16.77303 71.37089 1.371916 16.87136 71.28375 1.446127 16.31686 71.68124 0.9385353 17.38052 71.38857 0.9129279 16.76138 71.34751 0.7373119 16.77296 71.37085 0.5993111 16.77304 71.37088 0.5801322 17.33014 70.57826 -0.4514076 17.3507 70.61815 -0.4255708 17.29878 70.61052 -0.4353778 17.23832 70.11635 0.6070156 17.24882 70.1142 0.6068115 17.24726 70.12492 0.6129838 17.23462 70.11047 0.7025881 17.25834 70.11558 1.062928 17.24527 70.11933 0.9920344 17.62883 70.73396 0.5733987 16.83112 70.27971 0.5684361 17.24175 70.12057 0.1843214 17.24452 70.11938 0.2581668 17.2589 70.11054 0.5265784 17.3089 70.59592 0.09161246 17.34678 70.58257 0.06384325 17.32338 70.62892 0.05204462 17.69341 70.87437 0.5427385 17.69701 70.88261 0.5328243 17.68755 70.88595 0.5397749 17.69267 70.88092 0.8710371 17.69335 70.8834 0.9681654 17.6837 71.42646 0.5143354 17.69366 70.88085 0.952978 17.67114 70.87867 0.5076377 17.6447 70.89059 0.4167619 17.80299 70.9346 0.4655769 17.32805 70.57501 -0.7263041 17.35064 70.61927 -0.7170317 17.30085 70.6124 -0.7368982 16.902 70.59296 0.6271396 16.9111 70.59085 0.6307631 16.90935 70.60357 0.6301067 16.90949 70.59715 1.163305 16.90801 70.59217 1.06252 16.77661 71.0509 0.510416 16.90275 70.59628 1.123324 17.34103 70.54747 0.3716292 16.9019 70.5924 0.2170236 16.90739 70.59648 0.1464459 16.90756 70.59671 0.1384499 17.34181 70.58166 -0.4444507 17.34766 70.62263 -0.4316257 17.29956 70.59888 -0.4256519 17.63795 70.23421 0.8724911 17.63461 70.24637 0.877873 17.62738 70.23847 0.8772469 17.63745 70.23678 1.354306 17.63419 70.23943 1.223133 17.63389 70.2397 1.300027 17.11694 70.08002 0.8996549 17.6687 70.75052 0.8496725 17.96898 69.8391 0.7846756 17.63341 70.23834 0.4161779 17.63408 70.23953 0.4834668 17.6337 70.23958 0.5002081 17.32933 70.57356 0.0003453534 17.34933 70.61825 -0.01305267 17.30217 70.61756 -0.01392645 17.29675 70.92011 1.328268 17.30854 70.92028 1.328493 17.30175 70.93128 1.324935 17.30242 70.92399 1.733671 17.30399 70.92975 1.842586 17.16949 71.00661 1.724873 17.75202 70.79856 1.568203 17.07772 70.52004 1.08481 17.29677 70.93364 0.7473754 17.34822 70.91566 0.8173529 17.30211 70.92388 0.783587 17.38639 71.46273 -2.04512 17.50592 71.49421 -2.049133 17.39273 71.57188 -2.047989 17.46647 71.55771 0.2376575 17.50578 71.5458 0.2370309 17.49162 71.58682 0.2363808 17.45976 71.51602 -0.5728941 17.48182 71.54955 -0.6100128 17.43413 71.54341 -0.5881634 17.81509 72.44181 0.5213802 17.82185 72.44893 0.5127956 17.81032 72.45223 0.5138374 17.79362 72.45559 0.3900605 17.81566 72.44762 0.8352996 17.4369 72.11856 0.3873894 17.80898 72.4355 0.9173073 18.27049 72.51846 0.4629736 17.81677 72.44844 0.1812087 17.81564 72.44767 0.2075984 17.81566 72.44761 0.172304 17.43701 71.53239 -0.7548471 17.47853 71.51295 -0.7397727 17.46889 71.56573 -0.7315235 17.08574 71.3389 0.09992639 17.0911 71.35043 0.1052488 17.08022 71.34833 0.09960071 17.08667 71.34631 0.5593812 17.08165 71.34352 0.6160646 17.08654 71.34595 0.5289288 17.59618 71.55898 0.09215223 17.07651 71.34391 -0.210804 17.18938 70.85014 0.03437975 16.95057 71.87204 -0.09425353 17.08655 71.34595 -0.359083 17.08655 71.34595 -0.3590181 17.46425 71.50989 -0.7385743 17.48594 71.54751 -0.7441833 17.44001 71.5453 -0.7130792 18.00948 71.33036 0.1228549 18.01822 71.33494 0.1179731 18.01213 71.34376 0.1243626 18.01289 71.33724 0.5125407 18.01275 71.33696 0.4534561 17.91152 71.94422 0.1355311 18.01209 71.33587 0.5205282 18.4807 71.36877 0.07362325 17.39771 71.37952 0.08993556 18.01121 70.79953 -0.03094025 18.01275 71.33696 -0.2254053 18.01158 71.3352 -0.1953774 18.01298 71.33647 -0.2520689 17.44992 71.51163 -0.4657332 17.49096 71.54701 -0.4702245 17.44336 71.55361 -0.4891761 17.01981 72.21344 0.9710005 17.02766 72.22236 0.9690421 17.01595 72.22461 0.9640754 17.021 72.22013 1.273112 17.02098 72.22012 1.285462 17.02297 72.2199 1.344996 17.64138 72.23451 0.9213001 16.8501 71.6452 1.093932 16.57953 72.68144 1.089446 17.16408 72.76849 0.7768197 17.01519 72.22055 0.6151979 17.02171 72.21897 0.5803085 17.02103 72.22012 0.650171 17.43318 71.53333 -0.9127694 17.4855 71.51863 -0.9141905 17.46668 71.56121 -0.8915601 17.25333 70.66407 0.6573598 17.26513 70.66828 0.6614731 17.25249 70.67284 0.662436 17.2579 70.66859 1.059489 17.14141 71.24647 0.6498816 17.25784 70.66853 1.044795 17.25961 70.66716 1.163927 16.76263 70.43822 0.7398407 17.67551 70.23005 0.5296639 17.25793 70.66853 0.2297755 17.25721 70.6686 0.232676 17.2579 70.66858 0.286595 17.44635 71.52195 -0.6648986 17.48571 71.52611 -0.6956975 17.46286 71.56337 -0.6982019 18.07608 71.97585 0.2253862 18.08625 71.96703 0.2225042 18.08591 71.97693 0.2176761 18.08446 71.98334 0.741391 18.08203 71.9731 0.5945586 18.0804 71.96107 0.6813195 18.45723 72.33373 0.2519951 17.66409 71.79961 0.2543804 18.08297 71.9757 -0.2399044 18.53383 71.86879 -0.1096061 18.06277 71.96404 -0.2188489 17.43535 71.53493 -0.5576735 17.48022 71.51422 -0.534427 17.47009 71.56416 -0.541162 16.99094 71.56449 0.4422393 17.00143 71.56168 0.4475993 16.99947 71.57431 0.446223 16.99302 71.56563 0.6692795 17.0187 71.55389 0.4168232 17.00716 71.56697 0.3226263 16.98425 71.55841 0.3198208 17.4415 71.51715 -0.9680979 17.48738 71.53303 -0.9784635 17.44631 71.55688 -0.9496584 17.92727 70.93018 0.2962163 17.93867 70.92796 0.2905155 17.93519 70.93914 0.2976486 17.93384 70.93243 0.5596732 17.93384 70.93243 0.6593668 17.82379 71.43623 0.3310515 17.65854 70.54414 0.3422613 17.93642 70.92877 0.6511136 18.58149 70.95701 0.2472797 17.93378 70.93252 -0.01213284 17.93091 70.9286 -0.07811707 17.93386 70.93238 -0.01354351 17.46135 71.5203 -0.5629476 17.48935 71.54352 -0.5955734 17.43529 71.5469 -0.5995888 17.46967 72.45698 0.1314039 17.47575 72.46418 0.121295 17.46374 72.4638 0.1219629 17.46972 72.46657 0.5747886 17.47065 72.45414 0.4172867 17.47498 72.46119 0.4633898 17.57708 73.139 0.1126503 16.93232 72.32838 0.07397637 17.46915 72.45383 -0.1979344 17.47228 72.46389 -0.2575401 17.47437 72.47375 -0.2941532</float_array>
          <technique_common>
            <accessor source="#positions-array" count="270" stride="3">
              <param name="X" type="float" />
              <param name="Y" type="float" />
              <param name="Z" type="float" />
            </accessor>
          </technique_common>
        </source>
        <source id="normals">
          <float_array id="normals-array" count="936">0.05115612 -0.9976517 0.04554286 0.2535649 0.9669346 -0.02724635 -0.9589983 -0.2818514 0.02969762 0.06535832 -0.9742623 0.2157345 0.8617912 0.4811416 -0.1606819 -0.8696142 0.4919695 -0.04167854 0.1382557 0.6123743 -0.7783849 0.549415 -0.6379839 -0.5395551 0.7226145 0.03996911 0.6900947 -0.9970658 0.03625993 0.06741689 -0.9982563 0.0553818 0.02042412 -0.00673112 -0.9711647 -0.2383144 0.2319959 0.9120507 0.338144 -0.79077 0.585338 -0.1790594 -0.8911843 -0.1614364 -0.4239444 -0.2410634 -0.843599 -0.479822 0.7142189 0.6997748 0.01437207 0.7137714 0.7003635 -0.004620767 0.01719371 -0.9938646 -0.1092594 0.8325477 0.5059184 -0.2256344 -0.7959771 0.4939892 0.3498502 -0.7000068 0.06382991 -0.7112779 0.9039805 -0.4275307 -0.006063089 0.6866743 -0.4504325 -0.570604 -0.1250504 -0.9221276 0.366119 0.1912204 0.8378274 0.5113512 0.04223758 -0.8610645 0.5067385 0.9372874 0.2556662 0.2369118 0.949777 0.3127736 -0.009814548 0.7566861 0.4501376 -0.4741332 -0.6631702 -0.7484686 -7.673559e-05 -0.5565148 -0.5341024 -0.6364165 -0.09509741 0.9900401 0.1038128 -0.1399905 -0.5790526 0.8031816 -0.5646025 -0.8253536 -0.003929854 0.6378333 0.7535081 0.1593552 -0.109552 0.9815419 0.1567603 -0.1909599 -0.8934769 -0.406489 0.9101188 -0.4006261 -0.1057477 -0.7511584 0.612292 0.2466974 0.3984567 0.9161925 -0.04270255 0.3864138 -0.6716727 -0.6320919 0.1518196 0.9881778 0.0213393 -0.362458 -0.9319991 -0.001356312 -0.8603558 0.5058156 0.0627562 0.05357491 -0.8694983 0.4910218 0.7217574 0.1953787 -0.663998 -0.01951111 0.8904384 -0.4546853 -0.6944385 -0.1727392 0.6985101 -0.9999052 -0.01168845 0.007274641 0.8554574 0.5132841 -0.06878948 0.9998907 0.008564489 -0.01205215 0.9944873 -0.05627003 -0.08847988 0.4922597 0.8699603 -0.02914665 -0.386398 0.9222098 0.01502289 -0.9495148 -0.2069145 -0.2358137 -0.2513197 -0.1556532 0.9553065 -0.2059379 -0.9771895 -0.05186844 0.8361005 -0.4816893 0.2625098 0.02376379 0.9984817 -0.04969475 0.9847741 0.0479557 -0.1670932 0.9642994 0.2648066 -0.002033034 0.5863874 0.8100208 -0.004015219 -0.6727518 -0.6646598 -0.3250112 0.1019331 0.9947912 -0.0004634601 0.07932893 0.9948083 0.06374402 0.9734777 0.2136417 0.08184417 -0.4265004 -0.8936093 -0.1398565 0.9432831 0.3105082 -0.1174807 -0.705388 0.6173654 0.348264 0.6118373 -0.546144 -0.572173 -0.9020124 -0.2733495 -0.3341463 0.3041927 -0.9525212 0.01304344 -0.7738951 -0.6330316 0.01890394 0.009410897 -0.9674941 0.2527184 0.8600323 0.5027603 -0.08704274 -0.009972514 0.9735787 -0.2281338 -0.8612017 -0.4965575 0.108454 0.4080635 0.7168156 0.5653845 -0.490048 -0.8716473 -0.009160781 0.115085 0.7827824 -0.6115612 -0.2803971 -0.9598835 0.001096319 0.5669253 -0.8235284 0.01991558 0.7794297 0.6264543 -0.006662148 -0.9324733 0.3603061 0.02594318 0.1169608 -0.9706062 0.210342 0.7721597 0.6094181 -0.1799416 -0.9348023 0.3551422 -0.004317374 -0.3095613 0.950804 -0.01197978 -0.9895251 -0.07381619 -0.1240614 0.02684738 0.9456687 -0.3240214 0.7356466 -0.34725 0.5815854 -0.9698065 0.2179183 0.1094851 0.5085577 -0.8610073 0.005952752 0.7476178 0.4755586 0.4635857 0.7388246 0.6719848 -0.05074059 -0.3690738 0.927969 -0.05155676 -0.1650173 -0.7897852 0.5907695 -0.3631319 0.9299083 0.05835832 0.7688963 0.6249315 0.1351262 0.06596843 -0.9900097 -0.1246154 0.7510684 0.6332652 -0.186739 -0.8664594 0.3512724 0.3547616 0.6809791 -0.4380968 -0.5868038 -0.5187571 0.8549137 -0.003695815 0.5234093 -0.8520619 -0.005763902 0.01306188 0.800463 -0.5992399 -0.7701394 -0.5382943 0.3422347 0.2657672 0.9603577 0.08414821 -0.2591898 -0.9658256 0.001268635 0.3594613 0.7271896 0.584793 -0.5720333 0.2205919 0.7900108 0.7243333 0.6854367 -0.07428187 -0.3716955 0.7471295 -0.5510353 -0.8983318 0.1406154 -0.4162058 -0.5617179 -0.7979061 0.2186752 -0.9491098 -0.3149175 0.004191941 0.6809972 -0.02992107 -0.7316745 0.6616373 -0.06998492 -0.7465509 0.5944783 0.8038645 -0.01993563 -0.2222197 -0.8494966 0.4785121 0.9890768 0.0679747 0.1307918 -0.2072481 0.8915305 0.4027674 -0.7540072 -0.5755415 -0.3165835 -0.3184697 -0.9478943 0.008571596 -0.8583194 0.5119342 -0.03480301 -0.07136092 0.9974058 -0.009444774 0.3800843 0.9246599 0.02323979 0.3288913 -0.5856566 0.7408352 0.7809972 -0.5895597 -0.2060649 -0.7520715 0.6147803 0.2375578 0.9397951 0.1448084 0.309541 -0.1251344 0.9917032 -0.02943145 -0.7727041 0.5963614 -0.217443 -0.7550215 -0.6142138 -0.2295298 0.09668361 0.9948528 0.03033401 -0.4176377 -0.6447399 0.640226 0.9697735 -0.06494849 -0.2352044 -0.3841259 0.8616234 0.3317416 -0.4241607 -0.8945837 -0.1407401 0.9887961 -0.1308029 -0.07192265 -0.2919746 0.9564158 -0.004443739 0.3097385 -0.950441 -0.0269052 0.1743613 0.8521343 -0.493422 0.2941229 0.7699256 0.5663093 0.6262401 -0.4689126 0.6228518 0.9962231 -0.08380019 0.02274086 -0.8115743 -0.3030068 0.4995339 0.9191612 -0.3773536 0.1129028 -0.9189076 0.3840054 -0.09026959 0.2495939 0.9668043 -0.0547022 -0.3576579 -0.9335665 0.02311806 0.9186823 -0.3666261 0.146997 -0.5882857 0.6887166 0.4237798 -0.3522051 0.6774058 0.6458118 -0.7387559 0.6154239 0.2747601 -0.2889503 -0.956042 0.04991393 0.5653799 0.8242898 -0.02986538 -0.9977377 0.05882045 0.03255183 0.880353 -0.4624619 0.105393 0.1556415 0.7474376 -0.6458426 -0.3411753 0.7790451 -0.5260116 -0.9052763 -0.1195726 0.4076484 0.6861882 -0.7259065 -0.04696288 0.6885427 -0.7234155 -0.05078402 0.1368662 -0.9897113 -0.04170311 -0.400987 0.8823819 -0.2461943 -0.4151394 0.7754225 0.4757932 -0.3276448 -0.9447998 0.001464351 -0.243499 0.9680358 -0.06012362 -0.3009288 -0.8960154 -0.326494 0.8975669 0.09677002 0.4301269 -0.2536706 0.9582391 0.1320188 -0.6833307 0.4396665 -0.582883 -0.2104312 -0.7827096 -0.585734 0.9754775 0.2200184 -0.005957035 -0.3913561 -0.2863273 0.8745611 -0.9791633 -0.2030744 0 0.3760434 -0.9265149 0.01271104 -0.679614 -0.6739449 0.2896947 0.2693545 -0.894467 -0.3568991 -0.8111281 0.09524683 0.5770609 0.5069257 -0.3995673 -0.7637882 0.055249 -0.9983513 -0.01556363 0.4750447 0.6304382 -0.6139056 -0.5814756 0.5836795 -0.566749 -0.5564779 0.3179558 0.7676174 0.05592804 -0.9982598 0.01869506 0.1004252 0.9930206 0.06184551 0.5997581 -0.6334128 0.4889566 0.3081859 0.8955296 -0.3210111 -0.9551555 -0.243496 -0.1684865 0.9609815 -0.2746349 -0.03301705 -0.3902002 -0.7036716 -0.5937929 -0.3669477 0.678977 0.635877 0.4806925 -0.3657101 0.7969886 -0.963161 0.2134988 0.1635212 0.01597508 -0.9997355 0.01654335 -0.2480828 -0.8352036 -0.4908053 -0.7114198 0.6478656 0.2723087 -0.9918079 -0.02206328 -0.1258188 0.980925 0.1943274 -0.004798436 0.6050965 -0.3624723 -0.7088527 -0.8638747 -0.4212791 -0.2761239 0.3075349 0.7169813 0.6255878 -0.7834153 -0.4609636 0.416861 0.970482 0.02101407 0.2402562 0.7242077 0.6895819 -0.0001425017 -0.4023427 -0.6685428 0.6254365 0.2936985 -0.9223974 0.2508471 0.8611856 -0.1985 -0.4679285 -0.7099784 0.7032357 -0.03728727 -0.007722034 0.9377854 -0.3471297 0.6444609 -0.7589459 -0.09311994 -0.8256575 0.2552638 -0.5031203 0.5504362 -0.8181105 -0.1664788 -0.1629639 0.9648869 -0.206 0.5502698 -0.8163361 0.1754949 0.7585522 -0.4298997 0.4896783 0.09296057 0.9136256 0.3957861 -0.3582928 -0.9242418 -0.1319221 0.88709 0.1832944 0.4236444 -0.5429837 0.7961701 -0.2669867 0.3487861 -0.9371422 0.01061629 0.1995385 0.9795643 -0.02526274 -0.3219182 -0.8999241 -0.2941178 0.580127 0.797137 0.1674076 -0.9392824 -0.0444248 0.3402573 0.9785835 0.2049279 -0.0194629 -0.9769636 -0.2134062 -0 -0.4845819 0.7331951 -0.4770799 -0.3849123 0.7307767 -0.5637445 -0.9666124 -0.2498459 0.0568985 0.8886049 -0.1591999 0.4301589 -0.2722563 0.7479044 0.6054052 -0.283448 -0.5814672 0.7625963 0.8194893 -0.3459644 0.4568873 0.0965423 0.6123835 -0.7846439 -0.8910858 -0.2632648 0.3696724 -0.991129 0.1219798 -0.05276654 0.6569752 -0.49544 -0.568263 -0.2275262 0.973772 6.369376e-05 -0.9882802 0.152489 0.007022555 -0.9858271 0.1660694 -0.02378902 -0.1288352 0.9724454 0.1942973 0.2552475 -0.9666293 0.02183071 0.9452774 0.3261859 -0.007303056 -0.7557932 0.6541926 0.02843715 0.8161514 -0.5457198 0.1899655 -0.7374592 -0.3782885 0.5595103 0.1218198 -0.9908733 0.057706 0.6828892 -0.7235831 0.1004484 0.1656248 -0.9859505 -0.02168009 0.8162102 -0.5072052 0.2766654 -0.6725615 0.7296349 -0.1236689 -0.7747411 -0.4686246 -0.4244611 -0.9875674 -0.1455083 -0.0594809 -0.3923055 0.9197895 -0.009144798 -0.9260231 -0.3639944 -0.09994666 0.9724103 0.2332017 -0.005931852 0.9645827 0.2546501 0.06880139 -0.6986905 0.350125 0.6238943 0.6895088 -0.478531 -0.543678 0.6938055 0.6703967 -0.2630632 0.07696817 0.9800441 0.1832744 -0.9595502 -0.2456666 -0.1375184 -0.07158917 0.9974234 -0.004645038 -0.5748841 -0.4988577 -0.6485748 -0.4374613 -0.512219 0.7390935 0.3905009 -0.421394 0.8184963 0.4220328 0.2657791 0.8667467 0.9996675 0.006943004 0.02483342 0.7103726 -0.5210481 0.4731593 0.2608865 0.9033712 -0.3403801 -0.9221032 -0.3757204 -0.09251936 0.7258635 0.6876118 -0.01766948 0.4887203 0.1238721 -0.8636019 0.958427 -0.2853345 0.001379204 -0.5068286 0.4685592 -0.7235862 -0.3421559 -0.5179665 -0.7839898 0.814313 0.2149597 0.5391537 0.9744235 -0.123239 0.1879124 -0.3960766 -0.1072872 0.9119281 0.4256694 -0.8198602 -0.3829292 0.9253073 0.2642293 0.2720097 0.3272926 0.800196 0.5025593 0.9820093 0.1883462 -0.01354513 0.4301129 -0.9026192 -0.01677522 0.06879401 0.8419587 -0.5351382 0.7477494 -0.2836078 0.6003644 -0.726619 -0.6869819 0.008976139 0.6793836 0.3742621 -0.6311623 -0.2817126 0.9317506 -0.2290825 -0.7909204 0.5426615 0.2827779 -0.3500865 -0.6103332 0.7105862 -0.2272177 -0.9717511 -0.06381203 0.8785272 0.2342283 0.4163257 -0.6515072 0.6923989 -0.3100356 0.1894283 -0.858426 -0.4766777 0.9145183 0.3775936 -0.1451872 -0.6789007 0.5164665 0.5218776 0.8344151 -0.1611897 -0.5270382 -0.4263569 -0.5483591 -0.7193901 -0.8143108 0.5804202 0.003204037 -0.002750063 -0.9949071 0.1007589 0.8981503 -0.2617947 0.3532556 -0.06314625 0.6183925 -0.7833283 -0.8666794 -0.2920909 0.4044129 -0.1790753 0.9807026 -0.07844963 -0.8572051 0.514972 0.001833437 -0.9869748 0.1603466 -0.01302761 0.5759589 -0.489353 0.654832</float_array>
          <technique_common>
            <accessor source="#normals-array" count="312" stride="3">
              <param name="X" type="float" />
              <param name="Y" type="float" />
              <param name="Z" type="float" />
            </accessor>
          </technique_common>
        </source>
        <source id="uv">
          <float_array id="uv-array" count="1872">6.912683 -0.7273121 6.945719 0.2531998 6.929641 0.253469 6.900565 -0.7285445 6.935062 0.2529205 6.952605 -0.729036 28.20361 -0.7273121 28.24926 0.253469 28.24472 -0.7285445 6.920743 -0.1735613 6.986425 0.5695258 6.981411 0.5700446 28.25232 -0.1795551 28.40343 0.5695258 28.23637 -0.1759318 28.23448 -0.1735613 28.40748 0.5686919 28.25232 -0.1795551 7.000038 28.33852 6.750077 28.32741 6.983681 28.40475 6.983465 0.7665712 6.750077 0.6209356 6.999264 0.4966344 28.32741 0.6209356 28.25108 0.4148344 28.40495 0.3722489 28.33852 0.6740748 28.64713 0.4966344 28.40479 0.3984174 28.64713 0.4966344 28.40495 0.3722489 28.40479 0.3984174 6.926267 -0.1230895 6.667291 0.4902978 6.662484 0.4878012 6.921892 -0.1201387 6.664626 0.4902094 6.940748 -0.1121195 28.24835 -0.1201387 28.08387 0.4878012 28.0875 0.4902094 28.23195 -0.1230895 28.08387 0.4878012 28.24835 -0.1201387 6.521516 0.4804033 6.850051 0.4612378 6.665933 0.6627962 28.08398 0.5964534 28.07743 0.4721117 28.23069 0.4804033 28.07743 0.4721117 28.08455 0.3453062 28.23069 0.4804033 6.940644 -0.1036645 7.099213 0.3871354 6.921921 -0.09536086 28.236 -0.1036645 28.1894 0.3866082 28.18536 0.3850948 28.25233 -0.09593534 28.18479 0.3871354 28.1894 0.3866082 7.101631 28.18634 7.161455 28.31351 7.289202 28.03492 28.18651 0.5533456 28.31351 0.5280349 28.18634 0.5754992 28.08256 0.4331517 28.24306 0.2582187 28.31351 0.5280349 6.891031 0.2582187 7.100474 0.1972313 7.161455 0.5280349 7.289202 0.3773116 7.101596 0.1991517 6.931117 0.4331517 6.936555 -0.1402598 6.711775 0.4108972 6.707075 0.4093145 28.2506 -0.1523783 28.54775 0.4108972 28.23442 -0.1402598 28.5484 0.5557167 28.54836 0.5487665 28.76798 0.4632968 28.54836 0.5487665 28.5135 0.5784509 28.6725 0.3754141 6.709217 0.5404212 6.748546 0.5784509 6.709212 0.5487665 6.748546 28.5135 6.636004 28.76798 6.952209 28.55543 6.748546 0.5784509 6.952209 0.3651711 6.704551 0.2949247 6.636004 28.76798 6.526742 28.6725 6.952209 28.55543 6.526742 0.3754141 6.709217 0.2320529 6.709184 0.2397245 6.526742 0.3754141 6.704551 0.2949247 6.709217 0.2320529 6.952209 0.3651711 6.709184 0.2397245 6.704551 0.2949247 6.932054 -0.1805631 6.899527 0.2427246 6.895326 0.2428062 28.24726 -0.1702283 28.04568 0.2427246 28.2313 -0.1805631 28.24421 -0.1741511 28.04654 0.2428062 28.04997 0.2451935 6.893848 0.2810352 6.732447 0.2273744 6.898108 0.3968137 6.898108 0.3968137 6.732447 0.2273744 7.051533 0.2293595 6.893848 0.2810352 6.90356 0.2106313 6.896698 0.07372855 6.732447 0.2273744 6.896698 0.07372855 6.897808 0.1032667 28.29358 0.2293595 28.04775 0.1032667 28.04422 0.2106313 6.938711 0.0255373 7.077363 0.2170954 6.92356 0.03664499 28.25157 0.02081785 28.35304 0.2131297 28.23303 0.0255373 6.929351 0.02081785 7.075018 0.21591 7.078803 0.2131297 6.92356 28.23837 7.077363 28.34975 7.075018 28.35438 28.35237 0.3484148 28.35336 0.3872662 28.57059 0.2057342 28.35234 0.3811912 28.35624 0.1667047 28.35336 0.3872662 28.35237 0.3484148 28.57059 0.2057342 28.35234 0.3811912 28.35336 0.3872662 28.35624 0.1667047 28.57059 0.2057342 7.077464 0.3811912 7.068458 0.2030551 7.057879 0.1667047 7.077464 0.3811912 7.121198 0.1862308 7.068458 0.2030551 28.57059 0.2057342 28.37384 0.1862308 28.35234 0.3811912 7.07348 28.57059 7.057879 28.35624 7.121198 28.37384 6.93122 -0.2905216 6.764439 0.2523053 6.760799 0.2508558 28.24771 -0.2868127 28.23634 0.2523053 28.23 -0.2905216 6.763204 0.425008 6.763795 0.4653218 6.93641 0.1486517 28.23851 0.4493297 28.42036 0.2041664 28.23886 0.4653218 28.23851 0.4493297 28.23696 0.08680944 28.42036 0.2041664 6.761098 0.4493297 6.763204 0.425008 6.76076 0.08680944 28.42036 0.2041664 28.21899 0.1486517 28.23886 0.4653218 6.763204 0.425008 6.93641 0.1486517 6.76076 0.08680944 6.93641 0.1486517 6.762957 0.05857838 6.76076 0.08680944 28.42036 0.2041664 28.23696 0.08680944 28.23868 0.05537994 6.936724 -0.1777803 7.055178 0.3489964 6.919822 -0.1702608 28.24905 -0.1726503 28.09855 0.3511492 28.09368 0.3489964 28.23955 -0.1702608 28.09539 0.3508988 28.09855 0.3511492 28.03201 0.359862 28.30021 0.339869 28.09588 0.5200106 28.09471 0.5417224 28.30021 0.339869 27.93564 0.3138703 6.846777 0.359862 7.053365 0.1664712 7.053481 0.2000832 27.93564 0.3138703 28.09581 0.1933867 28.09534 0.1664712 6.931733 0.0001381414 6.923415 0.5313972 6.918699 0.5313073 28.2473 -0.005221069 28.37251 0.5299741 28.36811 0.5313972 6.920866 -0.005570581 6.920698 0.5299741 6.93973 -0.005221069 28.22942 0.0001381414 28.36804 0.5313073 28.24702 -0.005570581 6.920967 0.6934682 7.100806 0.6272811 6.867795 0.6899492 6.867795 0.6899492 6.939288 0.3269412 6.921596 0.7370346 7.100806 0.6272811 6.83109 0.4339238 6.867795 0.6899492 6.921596 0.7370346 6.939288 0.3269412 7.100806 0.6272811 6.912683 -0.7273121 6.952605 -0.729036 6.945719 0.2531998 28.23106 -0.729036 28.26333 0.2529205 28.25007 0.2531998 28.24472 -0.7285445 28.24926 0.253469 28.26333 0.2529205 6.920743 -0.1735613 6.940704 -0.1759318 6.986425 0.5695258 28.25232 -0.1795551 28.40748 0.5686919 28.40343 0.5695258 28.23448 -0.1735613 28.40321 0.5700446 28.40748 0.5686919 6.983681 0.7232781 6.750077 0.6209356 6.983465 0.7665712 28.40523 0.7665712 28.64713 0.4966344 28.33852 0.6740748 7.000038 0.6740748 6.951124 0.4148344 6.750077 0.6209356 28.64713 0.4966344 28.32741 0.6209356 28.40495 0.3722489 28.25108 0.4148344 28.33852 0.6740748 28.40479 0.3984174 6.926267 -0.1230895 6.940748 -0.1121195 6.667291 0.4902978 28.24058 -0.1121195 28.0875 0.4902094 28.08323 0.4902978 28.08568 0.6627962 28.08398 0.5964534 28.23069 0.4804033 6.665933 0.6627962 6.850051 0.4612378 6.671839 0.4721117 6.850051 0.4612378 6.521516 0.4804033 6.667218 0.3260599 6.671839 0.4721117 6.850051 0.4612378 6.667218 0.3260599 28.08479 0.3260599 28.23069 0.4804033 28.08455 0.3453062 6.940644 -0.1036645 7.103882 0.3850948 7.099213 0.3871354 28.236 -0.1036645 28.25233 -0.09593534 28.1894 0.3866082 28.25233 -0.09593534 28.23477 -0.09536086 28.18479 0.3871354 28.18651 0.5533456 28.08256 0.4331517 28.31351 0.5280349 7.101559 0.5533456 7.101593 0.5483246 6.931117 0.4331517 7.101593 0.5483246 7.101631 0.5754992 6.931117 0.4331517 7.101631 0.5754992 7.289202 0.3773116 6.931117 0.4331517 28.03492 0.3773116 28.31351 0.5280349 28.19044 0.1972313 7.100474 0.1972313 6.891031 0.2582187 7.101599 0.2383854 6.891031 0.2582187 7.101596 0.1991517 7.101599 0.2383854 6.891031 0.2582187 6.931117 0.4331517 7.101596 0.1991517 7.289202 28.03492 7.100474 28.19044 7.101596 28.18647 28.2506 -0.1523783 28.55064 0.4072519 28.54775 0.4108972 6.935205 -0.1523783 6.920366 -0.1539332 6.708665 0.4072519 28.24207 -0.1539332 28.54659 0.4093145 28.55064 0.4072519 6.920366 -0.1539332 6.936555 -0.1402598 6.707075 0.4093145 28.54835 0.5404212 28.5484 0.5557167 28.76798 0.4632968 6.709217 28.54835 6.636004 28.76798 6.748546 28.5135 6.636004 28.76798 6.709212 28.54836 6.526742 28.6725 6.748546 0.5784509 6.704551 0.2949247 6.526742 0.3754141 6.952209 0.3651711 6.526742 0.3754141 6.709184 0.2397245 28.24726 -0.1702283 28.04997 0.2451935 28.04568 0.2427246 6.94028 -0.1702283 6.919512 -0.1741511 6.898905 0.2451935 28.24421 -0.1741511 28.2313 -0.1805631 28.04654 0.2428062 6.903336 0.4251713 6.898108 0.3968137 6.90356 0.2106313 28.04773 0.3968137 28.29358 0.2293595 28.04422 0.2106313 6.893848 0.2810352 6.903336 0.4251713 6.90356 0.2106313 6.732447 0.2273744 6.893848 0.2810352 6.896698 0.07372855 7.051533 28.29358 6.732447 28.11188 6.897808 28.04775 28.23303 0.0255373 28.35304 0.2131297 28.34975 0.2170954 28.25157 0.02081785 28.23837 0.03664499 28.35438 0.21591 28.24771 -0.2868127 28.24143 0.2520427 28.23634 0.2523053 6.940257 -0.2868127 6.920341 -0.2947593 6.763742 0.2520427 28.24496 -0.2947593 28.23718 0.2508558 28.24143 0.2520427 28.24496 -0.2947593 28.23 -0.2905216 28.23718 0.2508558 6.93641 0.1486517 6.763024 0.05537994 6.762957 0.05857838 6.93641 0.1486517 6.710644 0.2041664 6.763024 0.05537994 28.23266 -0.1777803 28.24905 -0.1726503 28.09368 0.3489964 6.939066 -0.1726503 6.919822 -0.1702608 7.053844 0.3511492 6.919822 -0.1702608 7.055178 0.3489964 7.050953 0.3508988 28.09471 0.5417224 28.09588 0.5200106 28.30021 0.339869 7.053555 0.5200106 7.053674 0.489253 6.846777 0.359862 7.053674 0.489253 7.05498 0.5417224 6.846777 0.359862 7.05498 0.5417224 7.187593 0.3138703 6.846777 0.359862 7.187593 0.3138703 7.053365 0.1664712 6.846777 0.359862 28.03201 0.359862 28.09583 0.2000832 28.30021 0.339869 28.30021 0.339869 28.09583 0.2000832 28.09581 0.1933867 27.93564 0.3138703 28.30021 0.339869 28.09581 0.1933867 28.22942 0.0001381414 28.2473 -0.005221069 28.36811 0.5313972 28.24702 -0.005570581 28.36804 0.5313073 28.37251 0.5299741 6.920967 0.6934682 6.921596 0.7370346 7.100806 0.6272811 6.867795 0.6899492 6.91871 0.2989502 6.939288 0.3269412 28.40264 0.6899492 28.20802 0.4339238 28.37345 0.2989502 7.100806 0.6272811 6.939288 0.3269412 6.83109 0.4339238 6.83109 0.4339238 6.939288 0.3269412 6.920846 0.3134348 28.37345 0.2989502 28.20802 0.4339238 28.36955 0.3134348 6.954558 -0.8180481 7.002312 0.09481236 6.986588 0.095063 6.957094 -0.8191955 6.996648 0.09455233 7.002368 -0.819653 28.58509 -0.8180481 28.62309 0.095063 28.62875 -0.8191955 28.61982 -0.2440051 28.97672 0.2085521 28.60641 -0.2291576 6.992729 -0.2440051 7.124128 0.205535 7.128742 0.2051182 6.973651 -0.2352654 7.124128 0.205535 6.992729 -0.2440051 28.61736 -0.2352654 28.97672 0.2085521 28.98089 0.205535 7.126265 0.3341198 6.974761 0.1549558 7.117449 0.1560242 7.126265 0.3341198 7.12359 0.3669229 6.974761 0.1549558 7.117449 0.1560242 7.308198 0.1851894 7.12359 0.3669229 7.12359 0.3669229 7.308198 0.1851894 6.974761 0.1549558 7.308198 0.1851894 7.126707 0.07248348 6.974761 0.1549558 7.117449 0.1560242 7.126265 0.06892159 7.126257 0.08303937 7.117449 0.1560242 7.126707 0.07248348 7.126265 0.06892159 6.991412 -0.2959091 6.834297 0.03997056 6.974805 -0.3019388 28.62629 -0.2926094 28.54017 0.04209951 28.60518 -0.2959091 6.987555 -0.2926094 6.832087 0.03984029 6.836442 0.04209951 28.53838 0.2115715 28.62359 0.03686089 28.34006 0.0137519 6.834669 0.2237525 6.780227 -0.03770141 7.038471 0.03686089 28.53741 0.2464258 28.34006 0.0137519 28.53756 -0.08432158 6.780227 28.74882 6.830606 28.53756 7.038471 28.62359 28.34006 0.0137519 28.53838 -0.1436072 28.53838 -0.1436332 7.038471 0.03686089 6.830606 -0.08432158 6.834621 -0.1436072 28.60396 -0.2954297 28.53214 0.04914196 28.61812 -0.2852317 6.985702 -0.2954297 7.20729 0.04718923 7.203793 0.04914196 28.61812 -0.2852317 28.53214 0.04914196 28.5375 0.04974504 7.204836 28.53435 6.959085 28.55181 7.164607 28.77769 7.2051 0.1813825 7.392281 0.0294493 7.204836 0.2082113 7.204836 0.2082113 7.204485 -0.0123761 6.959085 0.03597422 7.204836 0.2082113 7.392281 0.0294493 7.204485 -0.0123761 7.204485 28.31981 7.392281 28.54751 7.205191 28.53459 7.392281 0.0294493 7.205098 -0.0901621 7.205191 -0.1008276 6.959085 0.03597422 7.204631 -0.07815097 7.205098 -0.0901621 6.996382 -0.1880898 6.807924 0.3884002 6.97997 -0.1862933 6.996382 -0.1880898 6.80638 0.3856302 6.811065 0.3876169 28.60465 -0.1862933 28.88985 0.3856302 28.62145 -0.1956704 28.88805 0.5141849 28.88796 0.5379982 28.65808 0.4375727 6.63181 0.4357785 7.05655 0.36852 6.809186 0.5379982 7.05655 0.36852 6.808686 0.2321234 6.74004 0.4375727 6.63181 29.07258 6.806075 28.88822 6.865633 29.10739 28.88822 0.2460792 28.88805 0.2600684 29.10739 0.3107279 7.05655 0.36852 6.808411 0.2600684 6.808686 0.2321234 6.994199 -0.3656762 6.901333 0.2629439 6.973272 -0.3651078 28.61333 -0.3651078 28.26914 0.2649744 28.62448 -0.356624 28.61333 -0.3651078 28.26563 0.2629439 28.26914 0.2649744 28.26741 0.4179179 28.49859 0.2599526 28.26743 0.4237957 6.903136 28.26741 6.705054 28.17529 6.856566 28.49859 28.26686 0.465571 28.49859 0.2599526 28.09202 0.2118656 6.705054 0.2959363 7.070204 0.2118656 6.902885 0.09307038 28.49859 0.2599526 28.26741 0.09191021 28.09202 0.2118656 28.49859 0.2599526 28.26744 0.09307038 28.26741 0.09191021 28.09202 0.2118656 28.26741 0.09191021 28.26743 0.114638 6.978539 -0.2659594 7.2345 0.08900167 7.230431 0.09015448 6.994284 -0.278279 7.2345 0.08900167 6.978539 -0.2659594 28.61044 -0.278279 28.79077 0.08707045 28.78681 0.08900167 28.78924 0.2378235 28.79334 0.2965564 28.93349 0.100798 7.232161 0.2725278 7.065635 0.1017522 7.233786 0.2965564 7.232812 0.2378235 7.382891 0.100798 7.232161 0.2725278 28.78443 0.2725278 28.93349 0.100798 28.74752 -0.04384243 7.065635 0.1017522 7.382891 0.100798 7.233786 0.2965564 7.232161 0.2725278 7.413532 -0.04384243 7.065635 0.1017522 7.065635 0.1017522 7.233188 -0.09596176 7.382891 0.100798 28.78562 -0.08753957 28.79028 -0.09596176 28.71984 0.1017522 7.413532 -0.04384243 7.225108 -0.08753957 7.065635 0.1017522 6.992086 -0.2137708 6.796374 0.1768957 6.974141 -0.2230694 28.60569 -0.2137708 28.62972 0.1784892 28.62467 0.1790397 6.974141 -0.2230694 6.79979 0.1784892 6.988037 -0.2164648 6.797209 0.2677118 6.793698 0.1279283 6.802866 0.1290505 6.797209 0.2677118 6.80748 0.1667293 6.793698 0.1279283 6.976602 -0.3872391 7.175467 0.1162062 7.170907 0.1184865 6.978522 -0.3798634 7.174074 0.1190595 6.994953 -0.3913854 28.60686 -0.3872391 28.37207 0.1184865 28.62275 -0.3798634 28.37297 0.2238693 28.57449 0.1324206 28.37151 0.2604454 28.37297 0.2637467 28.57449 0.1324206 28.37297 0.2238693 7.174569 0.2604454 7.063414 0.1369045 7.173534 0.2637467 7.174569 0.2604454 7.432596 0.09891186 7.063414 0.1369045 28.57449 0.1324206 28.37144 -0.03124683 28.37301 -0.004853137 28.21766 0.1369045 28.37144 -0.03124683 28.57449 0.1324206 7.432596 0.09891186 7.173545 -0.005417404 7.063414 0.1369045 7.129515 28.57449 7.173512 28.37301 7.432596 28.3828 28.61741 -0.2382294 28.98279 0.05256157 28.60812 -0.2251791 6.974117 28.61876 6.9903 28.98567 6.995739 28.61741 28.61876 -0.2398355 28.98279 0.05256157 28.98552 0.04878515 28.98663 0.2299155 29.2556 0.04506011 28.98447 0.1853559 28.98663 0.2299155 28.93135 0.02959055 29.2556 0.04506011 6.988261 0.1669147 6.98766 -0.07917374 6.772926 0.02959055 28.98447 0.1853559 29.2556 0.04506011 28.98153 -0.07917374 29.2556 0.04506011 28.98556 -0.103016 28.98153 -0.07917374 6.772926 0.02959055 6.98766 -0.07917374 6.989747 -0.1176613 6.954558 -0.8180481 7.002368 -0.819653 7.002312 0.09481236 28.59768 -0.819653 28.63473 0.09455233 28.61832 0.09481236 28.62875 -0.8191955 28.62309 0.095063 28.63473 0.09455233 28.61982 -0.2440051 28.97957 0.2051182 28.97672 0.2085521 28.61736 -0.2352654 28.60641 -0.2291576 28.97672 0.2085521 7.308198 0.1851894 7.117449 0.1560242 7.126257 0.08303937 7.117449 0.1560242 6.974761 0.1549558 7.126707 0.07248348 7.126707 0.07248348 7.308198 0.1851894 7.126257 0.08303937 28.60518 -0.2959091 28.54017 0.04209951 28.53556 0.03997056 6.987555 -0.2926094 6.974805 -0.3019388 6.832087 0.03984029 28.61296 -0.3019388 28.53556 0.03997056 28.53933 0.03984029 28.53838 0.2115715 28.34006 0.0137519 28.53741 0.2464258 6.834616 0.2115715 6.834669 0.2237525 7.038471 0.03686089 28.53852 0.2237525 28.53741 0.2464258 28.74882 -0.03770141 28.53741 0.2464258 28.53756 -0.08432158 28.74882 -0.03770141 28.34006 0.0137519 28.53838 -0.1436332 28.53756 -0.08432158 28.34006 0.0137519 28.62359 0.03686089 28.53838 -0.1436072 28.60396 -0.2954297 28.619 -0.2976733 28.53398 0.04718923 28.619 -0.2976733 28.5375 0.04974504 28.53398 0.04718923 6.994375 -0.2976733 6.976005 -0.2852317 7.204851 0.04974504 28.5349 0.2050163 28.53435 0.2082113 28.77769 0.05421244 7.2051 0.1813825 7.205154 0.2050163 7.392281 0.0294493 7.392281 28.54751 7.205154 28.5349 7.164607 28.77769 7.392281 28.54751 7.164607 28.77769 7.205098 28.53478 7.164607 28.77769 6.959085 28.55181 7.205098 28.53478 6.959085 28.55181 7.204485 28.31981 7.204631 28.53408 28.31981 -0.0123761 28.53459 -0.1008276 28.53408 -0.07815097 28.6188 -0.1880898 28.88895 0.3876169 28.88537 0.3884002 6.996382 -0.1880898 6.977342 -0.1956704 6.80638 0.3856302 28.60465 -0.1862933 28.88537 0.3884002 28.88985 0.3856302 28.88805 0.509245 29.07258 0.4357785 28.88796 0.5379982 6.808401 28.88805 6.74004 28.65808 6.63181 29.07258 28.88805 0.509245 28.88805 0.5141849 28.65808 0.4375727 6.809186 28.88796 7.05655 28.89381 6.74004 28.65808 7.05655 28.89381 6.63181 29.07258 6.865633 29.10739 29.07258 0.4357785 28.65808 0.4375727 28.88822 0.2460792 28.88822 0.2460792 28.65808 0.4375727 28.88759 0.2321234 7.05655 28.89381 6.865633 29.10739 6.808411 28.88805 6.994199 -0.3656762 6.906052 0.2645892 6.901333 0.2629439 28.60745 -0.3656762 28.62448 -0.356624 28.26731 0.2645892 6.986674 -0.356624 6.900998 0.2649744 6.906052 0.2645892 28.26743 0.4237957 28.49859 0.2599526 28.26686 0.465571 6.903136 0.4179179 6.903846 0.465571 6.705054 0.2959363 6.903846 0.465571 7.070204 0.2118656 6.705054 0.2959363 28.17529 0.2959363 28.26744 0.09307038 28.49859 0.2599526 28.26744 0.09307038 28.09202 0.2118656 28.26743 0.114638 28.61044 -0.278279 28.62535 -0.2792808 28.79077 0.08707045 6.985143 -0.2792808 7.230431 0.09015448 7.234363 0.08707045 28.62535 -0.2792808 28.60878 -0.2659594 28.79034 0.09015448 7.413532 28.74752 7.382891 28.93349 7.233188 28.79028 6.992086 -0.2137708 6.80057 0.1790397 6.796374 0.1768957 28.60569 -0.2137708 28.62566 -0.2164648 28.62972 0.1784892 6.974141 -0.2230694 6.796374 0.1768957 6.79979 0.1784892 6.976602 -0.3872391 6.994953 -0.3913854 7.175467 0.1162062 28.61321 -0.3913854 28.37566 0.1190595 28.37118 0.1162062 28.62275 -0.3798634 28.37207 0.1184865 28.37566 0.1190595 28.37297 0.2637467 28.21766 0.1369045 28.57449 0.1324206 7.174569 28.37151 7.129515 28.57449 7.432596 28.3828 28.37144 -0.03124683 28.21766 0.1369045 28.37295 -0.005417404 7.432596 0.09891186 7.173512 -0.004853137 7.173545 -0.005417404 28.61741 -0.2382294 28.98567 0.04851798 28.98279 0.05256157 6.974117 28.61876 6.985496 28.98552 6.9903 28.98567 28.61876 -0.2398355 28.60812 -0.2251791 28.98279 0.05256157 6.988261 0.1669147 6.772926 0.02959055 6.987886 0.2299155 28.98447 0.1853559 28.98153 -0.07917374 28.98166 0.1669147 29.2556 0.04506011 28.9895 -0.1176613 28.98556 -0.103016 7.030831 29.2556 6.772926 28.93135 6.989747 28.9895</float_array>
          <technique_common>
            <accessor source="#uv-array" count="936" stride="2">
              <param name="S" type="float" />
              <param name="T" type="float" />
            </accessor>
          </technique_common>
        </source>
        <vertices id="vertices">
          <input semantic="POSITION" source="#positions" />
        </vertices>
        <triangles count="120" material="m0">
          <input semantic="VERTEX" source="#vertices" offset="0" />
          <input semantic="NORMAL" source="#normals" offset="1" />
          <input semantic="TEXCOORD" source="#uv" offset="2" set="0" />
          <p>0 0 0 4 0 1 3 0 2 2 1 3 5 1 4 1 1 5 0 2 6 3 2 7 2 2 8 6 3 9 10 3 10 9 3 11 8 4 12 10 4 13 7 4 14 6 5 15 11 5 16 8 5 17 20 11 33 24 11 34 23 11 35 22 12 36 25 12 37 21 12 38 22 13 39 23 13 40 25 13 41 20 14 42 23 14 43 22 14 44 34 18 54 36 18 55 33 18 56 34 19 57 38 19 58 37 19 59 35 20 60 36 20 61 38 20 62 49 26 78 53 26 79 52 26 80 50 27 81 53 27 82 49 27 83 65 37 111 69 37 112 68 37 113 66 38 114 69 38 115 65 38 116 67 39 117 68 39 118 70 39 119 80 45 135 82 45 136 79 45 137 81 46 138 83 46 139 80 46 140 81 47 141 84 47 142 83 47 143 79 48 144 82 48 145 84 48 146 92 57 171 96 57 172 95 57 173 93 58 174 96 58 175 92 58 176 106 67 201 109 67 202 108 67 203 107 68 204 110 68 205 109 68 206 108 69 207 111 69 208 110 69 209 121 74 222 125 74 223 124 74 224 122 75 225 126 75 226 125 75 227 123 76 228 126 76 229 122 76 230 121 77 231 124 77 232 123 77 233 0 82 246 1 82 247 4 82 248 1 83 249 5 83 250 4 83 251 2 84 252 3 84 253 5 84 254 6 85 255 7 85 256 10 85 257 8 86 258 11 86 259 10 86 260 6 87 261 9 87 262 11 87 263 20 93 279 21 93 280 24 93 281 21 94 282 25 94 283 24 94 284 34 100 300 37 100 301 36 100 302 34 101 303 35 101 304 38 101 305 35 102 306 33 102 307 36 102 308 50 112 336 54 112 337 53 112 338 50 113 339 51 113 340 54 113 341 51 114 342 52 114 343 54 114 344 51 115 345 49 115 346 52 115 347 66 121 363 70 121 364 69 121 365 66 122 366 67 122 367 70 122 368 67 123 369 65 123 370 68 123 371 80 129 387 83 129 388 82 129 389 81 130 390 79 130 391 84 130 392 93 131 393 97 131 394 96 131 395 93 132 396 94 132 397 97 132 398 94 133 399 95 133 400 97 133 401 94 134 402 92 134 403 95 134 404 106 137 411 107 137 412 109 137 413 107 138 414 108 138 415 110 138 416 108 139 417 109 139 418 111 139 419 121 148 444 122 148 445 125 148 446 123 149 447 124 149 448 126 149 449 135 156 468 139 156 469 138 156 470 137 157 471 140 157 472 136 157 473 135 158 474 138 158 475 137 158 476 142 159 477 144 159 478 141 159 479 142 160 480 146 160 481 145 160 482 143 161 483 146 161 484 142 161 485 143 162 486 144 162 487 146 162 488 156 170 510 158 170 511 155 170 512 157 171 513 159 171 514 156 171 515 157 172 516 160 172 517 159 172 518 170 179 537 173 179 538 172 179 539 170 180 540 174 180 541 173 180 542 172 181 543 173 181 544 175 181 545 187 189 567 189 189 568 186 189 569 187 190 570 191 190 571 190 190 572 186 191 573 191 191 574 188 191 575 203 198 594 205 198 595 202 198 596 202 199 597 207 199 598 204 199 599 202 200 600 205 200 601 207 200 602 217 208 624 221 208 625 220 208 626 218 209 627 221 209 628 217 209 629 218 210 630 222 210 631 221 210 632 232 220 660 234 220 661 231 220 662 232 221 663 236 221 664 235 221 665 231 222 666 236 222 667 233 222 668 241 225 675 245 225 676 244 225 677 243 226 678 246 226 679 242 226 680 241 227 681 244 227 682 243 227 683 257 236 708 259 236 709 256 236 710 258 237 711 260 237 712 257 237 713 258 238 714 259 238 715 261 238 716 135 245 735 136 245 736 139 245 737 136 246 738 140 246 739 139 246 740 137 247 741 138 247 742 140 247 743 142 248 744 145 248 745 144 248 746 143 249 747 141 249 748 144 249 749 156 253 759 159 253 760 158 253 761 157 254 762 155 254 763 160 254 764 155 255 765 158 255 766 160 255 767 170 262 786 171 262 787 174 262 788 171 263 789 175 263 790 174 263 791 171 264 792 172 264 793 175 264 794 187 272 816 190 272 817 189 272 818 187 273 819 188 273 820 191 273 821 186 274 822 189 274 823 191 274 824 203 283 849 206 283 850 205 283 851 203 284 852 204 284 853 206 284 854 204 285 855 207 285 856 206 285 857 218 291 873 219 291 874 222 291 875 219 292 876 220 292 877 222 292 878 219 293 879 217 293 880 220 293 881 232 295 885 235 295 886 234 295 887 232 296 888 233 296 889 236 296 890 231 297 891 234 297 892 236 297 893 241 298 894 242 298 895 245 298 896 242 299 897 246 299 898 245 299 899 243 300 900 244 300 901 246 300 902 257 305 915 260 305 916 259 305 917 258 306 918 261 306 919 260 306 920 258 307 921 256 307 922 259 307 923</p>
        </triangles>
        <triangles count="78" material="m4">
          <input semantic="VERTEX" source="#vertices" offset="0" />
          <input semantic="NORMAL" source="#normals" offset="1" />
          <input semantic="TEXCOORD" source="#uv" offset="2" set="0" />
          <p>14 6 18 15 6 19 12 6 20 13 7 21 15 7 22 16 7 23 15 8 24 18 8 25 17 8 26 14 9 27 16 9 28 19 9 29 16 10 30 17 10 31 19 10 32 99 59 177 98 59 178 102 59 179 101 60 180 100 60 181 98 60 182 101 61 183 103 61 184 100 61 185 101 62 186 99 62 187 103 62 188 100 63 189 102 63 190 98 63 191 99 64 192 102 64 193 103 64 194 102 65 195 104 65 196 103 65 197 100 66 198 103 66 199 105 66 200 12 88 264 15 88 265 13 88 266 13 89 267 16 89 268 14 89 269 14 90 270 18 90 271 15 90 272 16 91 273 15 91 274 17 91 275 18 92 276 14 92 277 19 92 278 102 135 405 105 135 406 104 135 407 102 136 408 100 136 409 105 136 410 148 163 489 149 163 490 147 163 491 148 164 492 150 164 493 149 164 494 147 165 495 151 165 496 150 165 497 150 166 498 151 166 499 149 166 500 151 167 501 152 167 502 149 167 503 147 168 504 154 168 505 153 168 506 147 169 507 152 169 508 154 169 509 179 182 546 181 182 547 178 182 548 177 183 549 180 183 550 179 183 551 179 184 552 182 184 553 181 184 554 179 185 555 180 185 556 182 185 557 182 186 558 180 186 559 185 186 560 180 187 561 183 187 562 185 187 563 181 188 564 184 188 565 183 188 566 193 192 576 194 192 577 196 192 578 197 193 579 195 193 580 194 193 581 195 194 582 200 194 583 196 194 584 197 195 585 199 195 586 198 195 587 199 196 588 201 196 589 198 196 590 195 197 591 201 197 592 200 197 593 224 211 633 223 211 634 226 211 635 225 212 636 227 212 637 223 212 638 224 213 639 226 213 640 225 213 641 225 214 642 226 214 643 229 214 644 227 215 645 226 215 646 223 215 647 225 216 648 229 216 649 227 216 650 227 217 651 228 217 652 226 217 653 230 218 654 228 218 655 227 218 656 229 219 657 230 219 658 227 219 659 262 239 717 265 239 718 264 239 719 262 240 720 266 240 721 265 240 722 263 241 723 267 241 724 266 241 725 264 242 726 265 242 727 267 242 728 265 243 729 268 243 730 267 243 731 266 244 732 267 244 733 269 244 734 151 250 750 147 250 751 153 250 752 147 251 753 149 251 754 152 251 755 152 252 756 151 252 757 153 252 758 176 265 795 179 265 796 178 265 797 177 266 798 176 266 799 180 266 800 180 267 801 176 267 802 178 267 803 180 268 804 178 268 805 183 268 806 178 269 807 181 269 808 183 269 809 181 270 810 182 270 811 184 270 812 182 271 813 185 271 814 184 271 815 192 275 825 197 275 826 194 275 827 192 276 828 196 276 829 197 276 830 192 277 831 193 277 832 196 277 833 194 278 834 195 278 835 196 278 836 195 279 837 197 279 838 198 279 839 197 280 840 196 280 841 199 280 842 199 281 843 196 281 844 200 281 845 195 282 846 198 282 847 201 282 848 229 294 882 226 294 883 228 294 884 263 308 924 266 308 925 262 308 926 264 309 927 267 309 928 263 309 929 265 310 930 269 310 931 268 310 932 265 311 933 266 311 934 269 311 935</p>
        </triangles>
        <triangles count="30" material="m1">
          <input semantic="VERTEX" source="#vertices" offset="0" />
          <input semantic="NORMAL" source="#normals" offset="1" />
          <input semantic="TEXCOORD" source="#uv" offset="2" set="0" />
          <p>27 15 45 29 15 46 26 15 47 28 16 48 32 16 49 27 16 50 32 17 51 31 17 52 27 17 53 71 40 120 75 40 121 73 40 122 73 41 123 75 41 124 74 41 125 71 42 126 78 42 127 76 42 128 75 43 129 76 43 130 77 43 131 74 44 132 77 44 133 78 44 134 26 95 285 28 95 286 27 95 287 26 96 288 29 96 289 32 96 290 29 97 291 27 97 292 30 97 293 32 98 294 29 98 295 30 98 296 30 99 297 27 99 298 31 99 299 72 124 372 73 124 373 78 124 374 73 125 375 74 125 376 78 125 377 71 126 378 72 126 379 78 126 380 75 127 381 71 127 382 76 127 383 74 128 384 75 128 385 77 128 386 210 201 603 209 201 604 208 201 605 210 202 606 212 202 607 209 202 608 211 203 609 209 203 610 213 203 611 212 204 612 213 204 613 215 204 614 209 205 615 214 205 616 213 205 617 209 206 618 215 206 619 214 206 620 213 207 621 214 207 622 216 207 623 208 286 858 209 286 859 211 286 860 210 287 861 211 287 862 212 287 863 211 288 864 213 288 865 212 288 866 212 289 867 215 289 868 209 289 869 215 290 870 213 290 871 216 290 872</p>
        </triangles>
        <triangles count="24" material="m3">
          <input semantic="VERTEX" source="#vertices" offset="0" />
          <input semantic="NORMAL" source="#normals" offset="1" />
          <input semantic="TEXCOORD" source="#uv" offset="2" set="0" />
          <p>42 21 63 41 21 64 43 21 65 39 22 66 41 22 67 42 22 68 45 23 69 44 23 70 41 23 71 44 24 72 46 24 73 41 24 74 43 25 75 48 25 76 45 25 77 127 78 234 130 78 235 129 78 236 129 79 237 133 79 238 128 79 239 130 80 240 131 80 241 129 80 242 128 81 243 133 81 244 130 81 245 39 103 309 45 103 310 41 103 311 39 104 312 40 104 313 45 104 314 40 105 315 42 105 316 45 105 317 42 106 318 43 106 319 45 106 320 43 107 321 41 107 322 46 107 323 46 108 324 44 108 325 47 108 326 44 109 327 48 109 328 47 109 329 44 110 330 45 110 331 48 110 332 43 111 333 46 111 334 48 111 335 127 150 450 128 150 451 130 150 452 129 151 453 132 151 454 133 151 455 129 152 456 131 152 457 132 152 458 130 153 459 133 153 460 131 153 461 131 154 462 133 154 463 134 154 464 132 155 465 131 155 466 134 155 467</p>
        </triangles>
        <triangles count="40" material="m2">
          <input semantic="VERTEX" source="#vertices" offset="0" />
          <input semantic="NORMAL" source="#normals" offset="1" />
          <input semantic="TEXCOORD" source="#uv" offset="2" set="0" />
          <p>56 28 84 58 28 85 57 28 86 58 29 87 59 29 88 60 29 89 55 30 90 59 30 91 58 30 92 59 31 93 57 31 94 61 31 95 59 32 96 61 32 97 62 32 98 57 33 99 60 33 100 61 33 101 60 34 102 64 34 103 63 34 104 60 35 105 62 35 106 64 35 107 61 36 108 63 36 109 62 36 110 55 116 348 56 116 349 57 116 350 55 117 351 57 117 352 59 117 353 57 118 354 58 118 355 60 118 356 59 119 357 62 119 358 60 119 359 61 120 360 60 120 361 63 120 362 163 173 519 164 173 520 166 173 521 161 174 522 167 174 523 164 174 524 162 175 525 166 175 526 165 175 527 167 176 528 165 176 529 164 176 530 166 177 531 169 177 532 168 177 533 164 178 534 165 178 535 169 178 536 237 223 669 240 223 670 239 223 671 237 224 672 238 224 673 240 224 674 247 228 684 249 228 685 251 228 686 248 229 687 249 229 688 247 229 689 251 230 690 250 230 691 248 230 692 251 231 693 252 231 694 250 231 695 249 232 696 254 232 697 253 232 698 250 233 699 254 233 700 249 233 701 252 234 702 255 234 703 250 234 704 249 235 705 253 235 706 252 235 707 163 256 768 166 256 769 162 256 770 163 257 771 161 257 772 164 257 773 161 258 774 162 258 775 167 258 776 162 259 777 165 259 778 167 259 779 166 260 780 168 260 781 165 260 782 166 261 783 164 261 784 169 261 785 248 301 903 250 301 904 249 301 905 251 302 906 249 302 907 252 302 908 254 303 909 250 303 910 255 303 911 252 304 912 253 304 913 255 304 914</p>
        </triangles>
        <triangles count="20" material="m5">
          <input semantic="VERTEX" source="#vertices" offset="0" />
          <input semantic="NORMAL" source="#normals" offset="1" />
          <input semantic="TEXCOORD" source="#uv" offset="2" set="0" />
          <p>85 49 147 86 49 148 87 49 149 88 50 150 90 50 151 86 50 152 85 51 153 87 51 154 88 51 155 86 52 156 90 52 157 87 52 158 88 53 159 89 53 160 90 53 161 88 54 162 91 54 163 89 54 164 87 55 165 91 55 166 88 55 167 87 56 168 90 56 169 91 56 170 115 70 210 116 70 211 114 70 212 112 71 213 116 71 214 117 71 215 115 72 216 118 72 217 120 72 218 117 73 219 119 73 220 118 73 221 112 140 420 114 140 421 116 140 422 114 141 423 113 141 424 115 141 425 113 142 426 112 142 427 115 142 428 112 143 429 117 143 430 115 143 431 117 144 432 118 144 433 115 144 434 115 145 435 120 145 436 116 145 437 116 146 438 120 146 439 119 146 440 117 147 441 116 147 442 119 147 443</p>
        </triangles>
      </mesh>
    </geometry>
  </library_geometries>
  <library_visual_scenes>
    <visual_scene id="Scene">
      <node id="Node" type="NODE">
        <instance_geometry url="#geometry">
          <bind_material>
            <technique_common>
              <instance_material symbol="m0" target="#m0">
                <bind_vertex_input semantic="UVSET0" input_semantic="TEXCOORD" input_set="0" />
              </instance_material>
              <instance_material symbol="m1" target="#m1">
                <bind_vertex_input semantic="UVSET0" input_semantic="TEXCOORD" input_set="0" />
              </instance_material>
              <instance_material symbol="m2" target="#m2">
                <bind_vertex_input semantic="UVSET0" input_semantic="TEXCOORD" input_set="0" />
              </instance_material>
              <instance_material symbol="m3" target="#m3">
                <bind_vertex_input semantic="UVSET0" input_semantic="TEXCOORD" input_set="0" />
              </instance_material>
              <instance_material symbol="m4" target="#m4">
                <bind_vertex_input semantic="UVSET0" input_semantic="TEXCOORD" input_set="0" />
              </instance_material>
              <instance_material symbol="m5" target="#m5">
                <bind_vertex_input semantic="UVSET0" input_semantic="TEXCOORD" input_set="0" />
              </instance_material>
            </technique_common>
          </bind_material>
        </instance_geometry>
      </node>
    </visual_scene>
  </library_visual_scenes>
  <scene>
    <instance_visual_scene url="#Scene" />
  </scene>
</COLLADA>