<?xml version='1.0' encoding='utf-8'?>
<COLLADA xmlns="http://www.collada.org/2005/11/COLLADASchema" version="1.4.1">
  <asset>
    <created>2026-09-15T00:00:00Z</created>
    <modified>2026-09-15T00:00:00Z</modified>
    <unit name="meter" meter="1" />
    <up_axis>Z_UP</up_axis>
  </asset>
  <library_images />
  <library_effects>
    <effect id="e0">
      <profile_COMMON>
        <technique sid="common">
          <phong>
            <ambient>
              <color>0.117 0.10125 0.0675 1</color>
            </ambient>
            <diffuse>
              <color>0.26 0.225 0.15 1</color>
            </diffuse>
            <specular>
              <color>0.02 0.02 0.02 1</color>
            </specular>
            <shininess>
              <float>8</float>
            </shininess>
          </phong>
        </technique>
      </profile_COMMON>
    </effect>
  </library_effects>
  <library_materials>
    <material id="m0" name="m0">
      <instance_effect url="#e0" />
    </material>
  </library_materials>
  <library_geometries>
    <geometry id="geometry" name="0821_left_gravel_bank">
      <mesh>
        <source id="positions">
          <float_array id="positions-array" count="264">17.13171 -8.467236 -2.140027 16.44526 -8.05102 -2.342489 17.74746 -7.545251 -2.132431 17.05782 -7.115207 -2.324452 18.38362 -6.616776 -2.106934 17.69388 -6.169551 -2.306415 19.03001 -5.70856 -2.115243 18.34397 -5.240336 -2.288378 19.67454 -4.848967 -2.108308 18.99714 -4.35512 -2.27034 20.30195 -4.068318 -2.063992 19.64001 -3.542946 -2.252303 20.89153 -3.399507 -2.076773 20.25498 -2.834835 -2.234266 21.44031 -2.85083 -2.035813 20.83814 -2.242896 -2.216228 22.00671 -2.34889 -2.004311 21.43745 -1.705104 -2.198191 22.6211 -1.845653 -1.993102 22.08002 -1.174727 -2.180154 23.26277 -1.358732 -1.975036 22.74929 -0.6647042 -2.162117 23.93115 -0.8859801 -1.96345 23.44422 -0.1727799 -2.144079 24.62531 -0.4255093 -1.947465 24.16349 0.3031063 -2.126042 25.34395 0.02438278 -1.933917 24.90549 0.7648766 -2.108005 26.08548 0.4653179 -1.902654 25.6684 1.214376 -2.089968 26.84802 0.8988847 -1.879871 26.45015 1.65344 -2.07193 27.62945 1.32668 -1.852987 27.24852 2.083897 -2.053893 28.42752 1.750362 -1.846481 28.06116 2.507638 -2.035855 29.23981 2.171649 -1.785473 28.88561 2.92659 -2.017818 30.04213 2.582483 -1.767202 29.70265 3.335159 -1.999781 30.81201 2.963351 -1.705065 30.49506 3.716039 -1.981744 31.57333 3.315532 -1.738819 31.28194 4.068085 -1.963706 32.35056 3.651669 -1.679158 32.08244 4.401893 -1.945669 33.14644 3.974513 -1.631203 32.89902 4.720448 -1.927632 33.9633 4.286705 -1.590011 33.73382 5.026644 -1.909595 34.80305 4.59085 -1.581933 34.58866 5.323357 -1.891557 35.66723 4.889558 -1.565406 35.46507 5.613457 -1.87352 36.5571 5.1855 -1.563636 36.36434 5.899873 -1.855483 37.47362 5.481449 -1.55205 37.2876 6.185596 -1.837446 38.41761 5.780261 -1.58293 38.2358 6.473696 -1.819408 39.38974 6.084903 -1.297039 39.20981 6.767325 -1.801371 40.3615 6.390778 -1.308447 40.18804 7.063806 -1.783334 41.30737 6.673389 -1.36754 41.1503 7.33995 -1.765297 42.26037 6.926505 -1.444592 42.12127 7.587251 -1.747259 43.25132 7.163906 -1.401855 43.12471 7.818126 -1.729222 44.27952 7.391751 -1.334314 44.16019 8.039135 -1.711185 45.34403 7.616739 -1.439869 45.22707 8.25725 -1.693148 46.44385 7.84608 -1.417774 46.32467 8.479842 -1.67511 47.57793 8.087422 -1.348106 47.45226 8.714618 -1.657073 48.74527 8.348788 -1.441838 48.60918 8.969563 -1.639036 49.94482 8.638483 -1.345147 49.79467 9.252892 -1.620998 51.17551 8.965014 -1.298565 51.00804 9.572966 -1.602961 16.93477 -8.766116 -2.20533 15.98428 -8.766116 -2.356807 51.23332 8.982072 -1.302327 51.23332 9.639308 -1.599685</float_array>
          <technique_common>
            <accessor source="#positions-array" count="88" stride="3">
              <param name="X" type="float" />
              <param name="Y" type="float" />
              <param name="Z" type="float" />
            </accessor>
          </technique_common>
        </source>
        <source id="normals">
          <float_array id="normals-array" count="258">-0.2920426 -0.01649755 0.956263 -0.1568601 0.08141018 0.9842598 -0.1948343 0.1221035 0.9732062 -0.2128362 0.1206295 0.969613 -0.2065569 0.1148411 0.9716716 -0.1990543 0.115324 0.9731792 -0.1621601 0.1243687 0.9788956 -0.2017565 0.1222891 0.9717714 -0.1555811 0.1087325 0.9818206 -0.17336 0.1079685 0.9789224 -0.1962082 0.1023346 0.9752077 -0.1589904 0.1040434 0.9817826 -0.1271579 0.1308832 0.9832093 -0.1760462 0.1280292 0.9760206 -0.1823119 0.1094004 0.9771356 -0.1439996 0.1119037 0.9832302 -0.1762342 0.1376959 0.9746699 -0.1535364 0.1382839 0.9784192 -0.1451095 0.1553958 0.9771363 -0.1559899 0.1558139 0.9753918 -0.1456086 0.1556344 0.9770241 -0.144891 0.1555732 0.9771405 -0.1296634 0.1593361 0.9786723 -0.1390168 0.1605556 0.9771879 -0.1279229 0.1588569 0.9789792 -0.129869 0.1591946 0.978668 -0.1186978 0.1600961 0.9799388 -0.1241596 0.1612645 0.97907 -0.1399594 0.166162 0.9761155 -0.1178093 0.160627 0.9799591 -0.1309792 0.179123 0.9750689 -0.1216693 0.1765051 0.976751 -0.1369672 0.1890847 0.9723615 -0.1213812 0.1842565 0.9753544 -0.1093674 0.1910295 0.9754725 -0.1237226 0.1958626 0.9727952 -0.181351 0.2105584 0.9606128 -0.116611 0.1874872 0.9753207 -0.1414554 0.2334661 0.9620208 -0.1372606 0.2319757 0.9629885 -0.2050109 0.2604794 0.9434622 -0.1354497 0.2362332 0.9622096 -0.07669636 0.2581004 0.963069 -0.1492844 0.2851649 0.9467815 -0.1885217 0.2682319 0.9447281 -0.1219954 0.2405239 0.9629462 -0.1821175 0.3103647 0.9330096 -0.1336743 0.2889806 0.9479564 -0.1776872 0.3432349 0.922289 -0.1395488 0.3253681 0.9352335 -0.1362558 0.3516074 0.9261785 -0.1426572 0.3548304 0.9239828 -0.1401699 0.3543674 0.924541 -0.1355218 0.3518317 0.926201 -0.1176504 0.3481976 0.930009 -0.1321634 0.3567202 0.9248154 -0.1230614 0.3446771 0.93062 -0.125262 0.3460632 0.9298116 -0.06596739 0.3065316 0.9495718 -0.1224788 0.344838 0.9306373 -0.3827828 0.4816749 0.7883315 -0.1067361 0.2957449 0.9492852 -0.1606192 0.541072 0.8254954 -0.1825259 0.5527766 0.8130943 -0.09354147 0.4938369 0.8645086 -0.1700082 0.5385083 0.8252915 -0.03522378 0.4100587 0.9113787 -0.139096 0.483074 0.8644604 -0.1395942 0.4213762 0.8960779 -0.1073457 0.395282 0.9122659 -0.1618932 0.4740112 0.8655079 -0.10704 0.4282798 0.8972841 0.01393767 0.3698895 0.9289712 -0.1136421 0.4841176 0.8675918 -0.0935979 0.3594025 0.9284769 -0.08681669 0.3525879 0.9317428 -0.1433392 0.4140833 0.898882 -0.08983858 0.3601436 0.928561 0.008325921 0.3044028 0.952507 -0.1070366 0.4220272 0.9002423 -0.163207 0.370623 0.9143315 -0.08269165 0.2852059 0.9548925 -0.1431928 0.4112727 0.9001948 -0.1147609 0.3834017 0.9164241 -0.06223029 0.4114116 0.9093228 -0.1349049 0.4136511 0.9003852</float_array>
          <technique_common>
            <accessor source="#normals-array" count="86" stride="3">
              <param name="X" type="float" />
              <param name="Y" type="float" />
              <param name="Z" type="float" />
            </accessor>
          </technique_common>
        </source>
        <source id="uv">
          <float_array id="uv-array" count="516">6.773907 -3.506446 6.852684 -3.386894 6.578102 -3.220408 6.773907 -3.506446 6.578102 -3.220408 6.393713 -3.506446 6.852684 -3.386894 7.098986 -3.0181 6.823128 -2.846083 6.852684 -3.386894 6.823128 -2.846083 6.578102 -3.220408 7.098986 -3.0181 7.353448 -2.64671 7.077552 -2.46782 7.098986 -3.0181 7.077552 -2.46782 6.823128 -2.846083 7.353448 -2.64671 7.612005 -2.283424 7.33759 -2.096134 7.353448 -2.64671 7.33759 -2.096134 7.077552 -2.46782 7.612005 -2.283424 7.869814 -1.939587 7.598856 -1.742048 7.612005 -2.283424 7.598856 -1.742048 7.33759 -2.096134 7.869814 -1.939587 8.120781 -1.627327 7.856004 -1.417178 7.869814 -1.939587 7.856004 -1.417178 7.598856 -1.742048 8.120781 -1.627327 8.356612 -1.359803 8.101993 -1.133934 8.120781 -1.627327 8.101993 -1.133934 7.856004 -1.417178 8.356612 -1.359803 8.576125 -1.140332 8.335258 -0.8971584 8.356612 -1.359803 8.335258 -0.8971584 8.101993 -1.133934 8.576125 -1.140332 8.802683 -0.9395561 8.574982 -0.6820414 8.576125 -1.140332 8.574982 -0.6820414 8.335258 -0.8971584 8.802683 -0.9395561 9.04844 -0.738261 8.832007 -0.4698909 8.802683 -0.9395561 8.832007 -0.4698909 8.574982 -0.6820414 9.04844 -0.738261 9.305108 -0.5434928 9.099714 -0.2658817 9.04844 -0.738261 9.099714 -0.2658817 8.832007 -0.4698909 9.305108 -0.5434928 9.572461 -0.354392 9.377687 -0.06911198 9.305108 -0.5434928 9.377687 -0.06911198 9.099714 -0.2658817 9.572461 -0.354392 9.850123 -0.1702037 9.665394 0.1212425 9.572461 -0.354392 9.665394 0.1212425 9.377687 -0.06911198 9.850123 -0.1702037 10.13758 0.009753111 9.962196 0.3059507 9.850123 -0.1702037 9.962196 0.3059507 9.665394 0.1212425 10.13758 0.009753111 10.43419 0.1861272 10.26736 0.4857503 10.13758 0.009753111 10.26736 0.4857503 9.962196 0.3059507 10.43419 0.1861272 10.73921 0.3595539 10.58006 0.6613759 10.43419 0.1861272 10.58006 0.6613759 10.26736 0.4857503 10.73921 0.3595539 11.05178 0.530672 10.89941 0.8335588 10.73921 0.3595539 10.89941 0.8335588 10.58006 0.6613759 11.05178 0.530672 11.37101 0.7001446 11.22446 1.003055 11.05178 0.530672 11.22446 1.003055 10.89941 0.8335588 11.37101 0.7001446 11.69592 0.8686595 11.55424 1.170636 11.37101 0.7001446 11.55424 1.170636 11.22446 1.003055 11.69592 0.8686595 12.01685 1.032993 11.88106 1.334064 11.69592 0.8686595 11.88106 1.334064 11.55424 1.170636 12.01685 1.032993 12.3248 1.185341 12.19803 1.486416 12.01685 1.032993 12.19803 1.486416 11.88106 1.334064 12.3248 1.185341 12.62933 1.326213 12.51278 1.627234 12.3248 1.185341 12.51278 1.627234 12.19803 1.486416 12.62933 1.326213 12.94023 1.460668 12.83298 1.760757 12.62933 1.326213 12.83298 1.760757 12.51278 1.627234 12.94023 1.460668 13.25857 1.589805 13.15961 1.888179 12.94023 1.460668 13.15961 1.888179 12.83298 1.760757 13.25857 1.589805 13.58532 1.714682 13.49353 2.010658 13.25857 1.589805 13.49353 2.010658 13.15961 1.888179 13.58532 1.714682 13.92122 1.83634 13.83546 2.129343 13.58532 1.714682 13.83546 2.129343 13.49353 2.010658 13.92122 1.83634 14.26689 1.955823 14.18603 2.245383 13.92122 1.83634 14.18603 2.245383 13.83546 2.129343 14.26689 1.955823 14.62284 2.0742 14.54574 2.359949 14.26689 1.955823 14.54574 2.359949 14.18603 2.245383 14.62284 2.0742 14.98945 2.19258 14.91504 2.474239 14.62284 2.0742 14.91504 2.474239 14.54574 2.359949 14.98945 2.19258 15.36704 2.312105 15.29432 2.589479 14.98945 2.19258 15.29432 2.589479 14.91504 2.474239 15.36704 2.312105 15.7559 2.433961 15.68392 2.70693 15.36704 2.312105 15.68392 2.70693 15.29432 2.589479 15.7559 2.433961 16.1446 2.556311 16.07522 2.825522 15.7559 2.433961 16.07522 2.825522 15.68392 2.70693 16.1446 2.556311 16.52295 2.669356 16.46012 2.93598 16.1446 2.556311 16.46012 2.93598 16.07522 2.825522 16.52295 2.669356 16.90415 2.770602 16.84851 3.0349 16.52295 2.669356 16.84851 3.0349 16.46012 2.93598 16.90415 2.770602 17.30053 2.865562 17.24989 3.12725 16.90415 2.770602 17.24989 3.12725 16.84851 3.0349 17.30053 2.865562 17.71181 2.9567 17.66408 3.215654 17.30053 2.865562 17.66408 3.215654 17.24989 3.12725 17.71181 2.9567 18.13761 3.046696 18.09083 3.3029 17.71181 2.9567 18.09083 3.3029 17.66408 3.215654 18.13761 3.046696 18.57754 3.138432 18.52987 3.391937 18.13761 3.046696 18.52987 3.391937 18.09083 3.3029 18.57754 3.138432 19.03117 3.234969 18.98091 3.485847 18.57754 3.138432 18.98091 3.485847 18.52987 3.391937 19.03117 3.234969 19.49811 3.339515 19.44367 3.587825 19.03117 3.234969 19.44367 3.587825 18.98091 3.485847 19.49811 3.339515 19.97793 3.455393 19.91787 3.701157 19.49811 3.339515 19.91787 3.701157 19.44367 3.587825 19.97793 3.455393 20.4702 3.586005 20.40321 3.829186 19.97793 3.455393 20.40321 3.829186 19.91787 3.701157 20.4702 3.586005 20.49333 3.592829 20.49333 3.855723 20.4702 3.586005 20.49333 3.855723 20.40321 3.829186</float_array>
          <technique_common>
            <accessor source="#uv-array" count="258" stride="2">
              <param name="S" type="float" />
              <param name="T" type="float" />
            </accessor>
          </technique_common>
        </source>
        <vertices id="vertices">
          <input semantic="POSITION" source="#positions" />
        </vertices>
        <triangles count="86" material="m0">
          <input semantic="VERTEX" source="#vertices" offset="0" />
          <input semantic="NORMAL" source="#normals" offset="1" />
          <input semantic="TEXCOORD" source="#uv" offset="2" set="0" />
          <p>84 0 0 0 0 1 1 0 2 84 1 3 1 1 4 85 1 5 0 2 6 2 2 7 3 2 8 0 3 9 3 3 10 1 3 11 2 4 12 4 4 13 5 4 14 2 5 15 5 5 16 3 5 17 4 6 18 6 6 19 7 6 20 4 7 21 7 7 22 5 7 23 6 8 24 8 8 25 9 8 26 6 9 27 9 9 28 7 9 29 8 10 30 10 10 31 11 10 32 8 11 33 11 11 34 9 11 35 10 12 36 12 12 37 13 12 38 10 13 39 13 13 40 11 13 41 12 14 42 14 14 43 15 14 44 12 15 45 15 15 46 13 15 47 14 16 48 16 16 49 17 16 50 14 17 51 17 17 52 15 17 53 16 18 54 18 18 55 19 18 56 16 19 57 19 19 58 17 19 59 18 20 60 20 20 61 21 20 62 18 21 63 21 21 64 19 21 65 20 22 66 22 22 67 23 22 68 20 23 69 23 23 70 21 23 71 22 24 72 24 24 73 25 24 74 22 25 75 25 25 76 23 25 77 24 26 78 26 26 79 27 26 80 24 27 81 27 27 82 25 27 83 26 28 84 28 28 85 29 28 86 26 29 87 29 29 88 27 29 89 28 30 90 30 30 91 31 30 92 28 31 93 31 31 94 29 31 95 30 32 96 32 32 97 33 32 98 30 33 99 33 33 100 31 33 101 32 34 102 34 34 103 35 34 104 32 35 105 35 35 106 33 35 107 34 36 108 36 36 109 37 36 110 34 37 111 37 37 112 35 37 113 36 38 114 38 38 115 39 38 116 36 39 117 39 39 118 37 39 119 38 40 120 40 40 121 41 40 122 38 41 123 41 41 124 39 41 125 40 42 126 42 42 127 43 42 128 40 43 129 43 43 130 41 43 131 42 44 132 44 44 133 45 44 134 42 45 135 45 45 136 43 45 137 44 46 138 46 46 139 47 46 140 44 47 141 47 47 142 45 47 143 46 48 144 48 48 145 49 48 146 46 49 147 49 49 148 47 49 149 48 50 150 50 50 151 51 50 152 48 51 153 51 51 154 49 51 155 50 52 156 52 52 157 53 52 158 50 53 159 53 53 160 51 53 161 52 54 162 54 54 163 55 54 164 52 55 165 55 55 166 53 55 167 54 56 168 56 56 169 57 56 170 54 57 171 57 57 172 55 57 173 56 58 174 58 58 175 59 58 176 56 59 177 59 59 178 57 59 179 58 60 180 60 60 181 61 60 182 58 61 183 61 61 184 59 61 185 60 62 186 62 62 187 63 62 188 60 63 189 63 63 190 61 63 191 62 64 192 64 64 193 65 64 194 62 65 195 65 65 196 63 65 197 64 66 198 66 66 199 67 66 200 64 67 201 67 67 202 65 67 203 66 68 204 68 68 205 69 68 206 66 69 207 69 69 208 67 69 209 68 70 210 70 70 211 71 70 212 68 71 213 71 71 214 69 71 215 70 72 216 72 72 217 73 72 218 70 73 219 73 73 220 71 73 221 72 74 222 74 74 223 75 74 224 72 75 225 75 75 226 73 75 227 74 76 228 76 76 229 77 76 230 74 77 231 77 77 232 75 77 233 76 78 234 78 78 235 79 78 236 76 79 237 79 79 238 77 79 239 78 80 240 80 80 241 81 80 242 78 81 243 81 81 244 79 81 245 80 82 246 82 82 247 83 82 248 80 83 249 83 83 250 81 83 251 82 84 252 86 84 253 87 84 254 82 85 255 87 85 256 83 85 257</p>
        </triangles>
      </mesh>
    </geometry>
  </library_geometries>
  <library_visual_scenes>
    <visual_scene id="Scene">
      <node id="Node" type="NODE">
        <instance_geometry url="#geometry">
          <bind_material>
            <technique_common>
              <instance_material symbol="m0" target="#m0">
                <bind_vertex_input semantic="UVSET0" input_semantic="TEXCOORD" input_set="0" />
              </instance_material>
            </technique_common>
          </bind_material>
        </instance_geometry>
      </node>
    </visual_scene>
  </library_visual_scenes>
  <scene>
    <instance_visual_scene url="#Scene" />
  </scene>
</COLLADA>