<?xml version='1.0' encoding='utf-8'?>
<COLLADA xmlns="http://www.collada.org/2005/11/COLLADASchema" version="1.4.1">
  <asset>
    <created>2026-09-08T00:00:00Z</created>
    <modified>2026-09-08T00:00:00Z</modified>
    <unit name="meter" meter="1" />
    <up_axis>Z_UP</up_axis>
  </asset>
  <library_images>
    <image id="img0">
      <init_from>../materials/textures/sandstone.png</init_from>
    </image>
  </library_images>
  <library_effects>
    <effect id="e0">
      <profile_COMMON>
        <newparam sid="surf0">
          <surface type="2D">
            <init_from>img0</init_from>
          </surface>
        </newparam>
        <newparam sid="samp0">
          <sampler2D>
            <source>surf0</source>
            <wrap_s>WRAP</wrap_s>
            <wrap_t>WRAP</wrap_t>
          </sampler2D>
        </newparam>
        <technique sid="common">
          <phong>
            <ambient>
              <color>0.2205 0.1665 0.108 1</color>
            </ambient>
            <diffuse>
              <texture texture="samp0" texcoord="UVSET0" />
            </diffuse>
            <specular>
              <color>0.02 0.02 0.02 1</color>
            </specular>
            <shininess>
              <float>8</float>
            </shininess>
          </phong>
        </technique>
      </profile_COMMON>
    </effect>
  </library_effects>
  <library_materials>
    <material id="m0" name="m0">
      <instance_effect url="#e0" />
    </material>
  </library_materials>
  <library_geometries>
    <geometry id="geometry" name="2006_sandstone_talus_01">
      <mesh>
        <source id="positions">
          <float_array id="positions-array" count="36">-23.90022 34.83344 1.261813 -24.30487 34.51001 1.367276 -24.06443 35.14441 1.367276 -23.59705 35.34907 1.367276 -23.54865 34.84114 1.367276 -23.98611 34.32258 1.367276 -24.25179 34.82574 1.53792 -23.81433 35.3443 1.53792 -23.49557 35.15687 1.53792 -23.73601 34.52248 1.53792 -24.20339 34.31782 1.53792 -23.90022 34.83344 1.643383</float_array>
          <technique_common>
            <accessor source="#positions-array" count="12" stride="3">
              <param name="X" type="float" />
              <param name="Y" type="float" />
              <param name="Z" type="float" />
            </accessor>
          </technique_common>
        </source>
        <source id="normals">
          <float_array id="normals-array" count="60">-0.3471691 0.131583 -0.9285254 -0.10793 -0.1835626 -0.9770649 -0.1155085 0.263787 -0.9576399 0.2866698 0.02731667 -0.9576399 0.2837773 -0.239397 -0.9285255 -0.4211828 -0.7163291 -0.5563072 -0.8784382 0.3329429 -0.342776 -0.3608831 0.8241494 -0.4365102 0.8956422 0.08534544 -0.4365102 0.7180386 -0.6057435 -0.342776 -0.8956422 -0.08534544 0.4365102 -0.7180386 0.6057435 0.342776 0.4211828 0.7163291 0.5563072 0.8784382 -0.3329429 0.342776 0.3608831 -0.8241494 0.4365102 -0.2866698 -0.02731667 0.9576399 -0.2837773 0.239397 0.9285255 0.10793 0.1835626 0.9770649 0.3471691 -0.131583 0.9285254 0.1155085 -0.263787 0.9576399</float_array>
          <technique_common>
            <accessor source="#normals-array" count="20" stride="3">
              <param name="X" type="float" />
              <param name="Y" type="float" />
              <param name="Z" type="float" />
            </accessor>
          </technique_common>
        </source>
        <source id="uv">
          <float_array id="uv-array" count="120">-9.560088 13.93338 -9.72195 13.804 -9.625771 14.05776 -9.72195 13.804 -9.560088 13.93338 -9.594443 13.72903 -9.560088 13.93338 -9.625771 14.05776 -9.438819 14.13963 -9.560088 13.93338 -9.438819 14.13963 -9.419459 13.93646 -9.560088 13.93338 -9.419459 13.93646 -9.594443 13.72903 -9.72195 0.5469103 -9.594443 0.5469103 -9.681358 0.6151678 14.05776 0.5469103 13.804 0.5469103 13.9303 0.6151678 -9.438819 0.5469103 -9.625771 0.5469103 -9.525734 0.6151678 13.93646 0.5469103 14.13963 0.5469103 14.06275 0.6151678 13.72903 0.5469103 13.93646 0.5469103 13.80899 0.6151678 13.804 0.5469103 13.72713 0.6151678 13.9303 0.6151678 14.05776 0.5469103 13.9303 0.6151678 14.13772 0.6151678 -9.438819 0.5469103 -9.525734 0.6151678 -9.398227 0.6151678 13.93646 0.5469103 14.06275 0.6151678 13.80899 0.6151678 -9.594443 0.5469103 -9.494406 0.6151678 -9.681358 0.6151678 -9.700718 13.9303 -9.681358 13.72713 -9.560088 13.93338 -9.525734 14.13772 -9.700718 13.9303 -9.560088 13.93338 -9.398227 14.06275 -9.525734 14.13772 -9.560088 13.93338 -9.494406 13.80899 -9.398227 14.06275 -9.560088 13.93338 -9.681358 13.72713 -9.494406 13.80899 -9.560088 13.93338</float_array>
          <technique_common>
            <accessor source="#uv-array" count="60" stride="2">
              <param name="S" type="float" />
              <param name="T" type="float" />
            </accessor>
          </technique_common>
        </source>
        <vertices id="vertices">
          <input semantic="POSITION" source="#positions" />
        </vertices>
        <triangles count="20" material="m0">
          <input semantic="VERTEX" source="#vertices" offset="0" />
          <input semantic="NORMAL" source="#normals" offset="1" />
          <input semantic="TEXCOORD" source="#uv" offset="2" set="0" />
          <p>0 0 0 1 0 1 2 0 2 1 1 3 0 1 4 5 1 5 0 2 6 2 2 7 3 2 8 0 3 9 3 3 10 4 3 11 0 4 12 4 4 13 5 4 14 1 5 15 5 5 16 10 5 17 2 6 18 1 6 19 6 6 20 3 7 21 2 7 22 7 7 23 4 8 24 3 8 25 8 8 26 5 9 27 4 9 28 9 9 29 1 10 30 10 10 31 6 10 32 2 11 33 6 11 34 7 11 35 3 12 36 7 12 37 8 12 38 4 13 39 8 13 40 9 13 41 5 14 42 9 14 43 10 14 44 6 15 45 10 15 46 11 15 47 7 16 48 6 16 49 11 16 50 8 17 51 7 17 52 11 17 53 9 18 54 8 18 55 11 18 56 10 19 57 9 19 58 11 19 59</p>
        </triangles>
      </mesh>
    </geometry>
  </library_geometries>
  <library_visual_scenes>
    <visual_scene id="Scene">
      <node id="Node" type="NODE">
        <instance_geometry url="#geometry">
          <bind_material>
            <technique_common>
              <instance_material symbol="m0" target="#m0">
                <bind_vertex_input semantic="UVSET0" input_semantic="TEXCOORD" input_set="0" />
              </instance_material>
            </technique_common>
          </bind_material>
        </instance_geometry>
      </node>
    </visual_scene>
  </library_visual_scenes>
  <scene>
    <instance_visual_scene url="#Scene" />
  </scene>
</COLLADA>