<?xml version='1.0' encoding='utf-8'?>
<COLLADA xmlns="http://www.collada.org/2005/11/COLLADASchema" version="1.4.1">
  <asset>
    <created>2026-09-08T00:00:00Z</created>
    <modified>2026-09-08T00:00:00Z</modified>
    <unit name="meter" meter="1" />
    <up_axis>Z_UP</up_axis>
  </asset>
  <library_images>
    <image id="img0">
      <init_from>../materials/textures/sandstone.png</init_from>
    </image>
  </library_images>
  <library_effects>
    <effect id="e0">
      <profile_COMMON>
        <newparam sid="surf0">
          <surface type="2D">
            <init_from>img0</init_from>
          </surface>
        </newparam>
        <newparam sid="samp0">
          <sampler2D>
            <source>surf0</source>
            <wrap_s>WRAP</wrap_s>
            <wrap_t>WRAP</wrap_t>
          </sampler2D>
        </newparam>
        <technique sid="common">
          <phong>
            <ambient>
              <color>0.2205 0.1665 0.108 1</color>
            </ambient>
            <diffuse>
              <texture texture="samp0" texcoord="UVSET0" />
            </diffuse>
            <specular>
              <color>0.02 0.02 0.02 1</color>
            </specular>
            <shininess>
              <float>8</float>
            </shininess>
          </phong>
        </technique>
      </profile_COMMON>
    </effect>
  </library_effects>
  <library_materials>
    <material id="m0" name="m0">
      <instance_effect url="#e0" />
    </material>
  </library_materials>
  <library_geometries>
    <geometry id="geometry" name="2007_sandstone_talus_02">
      <mesh>
        <source id="positions">
          <float_array id="positions-array" count="36">-20.27011 33.71502 1.792431 -20.62645 33.32093 1.90341 -20.6358 33.98246 1.90341 -20.13978 34.2744 1.90341 -19.82387 33.79328 1.90341 -20.12466 33.20402 1.90341 -20.71635 33.63675 2.082978 -20.41557 34.22602 2.082978 -19.91377 34.10911 2.082978 -19.90442 33.44758 2.082978 -20.40045 33.15564 2.082978 -20.27011 33.71502 2.193957</float_array>
          <technique_common>
            <accessor source="#positions-array" count="12" stride="3">
              <param name="X" type="float" />
              <param name="Y" type="float" />
              <param name="Z" type="float" />
            </accessor>
          </technique_common>
        </source>
        <source id="normals">
          <float_array id="normals-array" count="60">-0.2931701 -0.004144233 -0.9560513 -0.05271367 -0.2262419 -0.9726438 -0.1307509 0.2221557 -0.9662045 0.2154781 0.1414854 -0.9662045 0.2611464 -0.1332983 -0.9560513 -0.1936447 -0.8311041 -0.5213135 -0.9029301 -0.01276376 -0.4295979 -0.44503 0.7561399 -0.4797924 0.7334118 0.4815666 -0.4797924 0.8043009 -0.4105433 -0.4295979 -0.7334118 -0.4815666 0.4797924 -0.8043009 0.4105433 0.4295979 0.1936447 0.8311041 0.5213135 0.9029301 0.01276376 0.4295979 0.44503 -0.7561399 0.4797924 -0.2154781 -0.1414854 0.9662045 -0.2611464 0.1332983 0.9560513 0.05271367 0.2262419 0.9726438 0.2931701 0.004144233 0.9560513 0.1307509 -0.2221557 0.9662045</float_array>
          <technique_common>
            <accessor source="#normals-array" count="20" stride="3">
              <param name="X" type="float" />
              <param name="Y" type="float" />
              <param name="Z" type="float" />
            </accessor>
          </technique_common>
        </source>
        <source id="uv">
          <float_array id="uv-array" count="120">-8.108045 13.48601 -8.250581 13.32837 -8.254322 13.59298 -8.250581 13.32837 -8.108045 13.48601 -8.049862 13.28161 -8.108045 13.48601 -8.254322 13.59298 -8.055912 13.70976 -8.108045 13.48601 -8.055912 13.70976 -7.929549 13.51731 -8.108045 13.48601 -7.929549 13.51731 -8.049862 13.28161 -8.250581 0.7613639 -8.049862 0.7613639 -8.160179 0.8331914 13.59298 0.7613639 13.32837 0.7613639 13.4547 0.8331914 -8.055912 0.7613639 -8.254322 0.7613639 -8.166228 0.8331914 13.51731 0.7613639 13.70976 0.7613639 13.64364 0.8331914 13.28161 0.7613639 13.51731 0.7613639 13.37903 0.8331914 13.32837 0.7613639 13.26226 0.8331914 13.4547 0.8331914 13.59298 0.7613639 13.4547 0.8331914 13.69041 0.8331914 -8.055912 0.7613639 -8.166228 0.8331914 -7.965509 0.8331914 13.51731 0.7613639 13.64364 0.8331914 13.37903 0.8331914 -8.049862 0.7613639 -7.961768 0.8331914 -8.160179 0.8331914 -8.286541 13.4547 -8.160179 13.26226 -8.108045 13.48601 -8.166228 13.69041 -8.286541 13.4547 -8.108045 13.48601 -7.965509 13.64364 -8.166228 13.69041 -8.108045 13.48601 -7.961768 13.37903 -7.965509 13.64364 -8.108045 13.48601 -8.160179 13.26226 -7.961768 13.37903 -8.108045 13.48601</float_array>
          <technique_common>
            <accessor source="#uv-array" count="60" stride="2">
              <param name="S" type="float" />
              <param name="T" type="float" />
            </accessor>
          </technique_common>
        </source>
        <vertices id="vertices">
          <input semantic="POSITION" source="#positions" />
        </vertices>
        <triangles count="20" material="m0">
          <input semantic="VERTEX" source="#vertices" offset="0" />
          <input semantic="NORMAL" source="#normals" offset="1" />
          <input semantic="TEXCOORD" source="#uv" offset="2" set="0" />
          <p>0 0 0 1 0 1 2 0 2 1 1 3 0 1 4 5 1 5 0 2 6 2 2 7 3 2 8 0 3 9 3 3 10 4 3 11 0 4 12 4 4 13 5 4 14 1 5 15 5 5 16 10 5 17 2 6 18 1 6 19 6 6 20 3 7 21 2 7 22 7 7 23 4 8 24 3 8 25 8 8 26 5 9 27 4 9 28 9 9 29 1 10 30 10 10 31 6 10 32 2 11 33 6 11 34 7 11 35 3 12 36 7 12 37 8 12 38 4 13 39 8 13 40 9 13 41 5 14 42 9 14 43 10 14 44 6 15 45 10 15 46 11 15 47 7 16 48 6 16 49 11 16 50 8 17 51 7 17 52 11 17 53 9 18 54 8 18 55 11 18 56 10 19 57 9 19 58 11 19 59</p>
        </triangles>
      </mesh>
    </geometry>
  </library_geometries>
  <library_visual_scenes>
    <visual_scene id="Scene">
      <node id="Node" type="NODE">
        <instance_geometry url="#geometry">
          <bind_material>
            <technique_common>
              <instance_material symbol="m0" target="#m0">
                <bind_vertex_input semantic="UVSET0" input_semantic="TEXCOORD" input_set="0" />
              </instance_material>
            </technique_common>
          </bind_material>
        </instance_geometry>
      </node>
    </visual_scene>
  </library_visual_scenes>
  <scene>
    <instance_visual_scene url="#Scene" />
  </scene>
</COLLADA>