<?xml version='1.0' encoding='utf-8'?>
<COLLADA xmlns="http://www.collada.org/2005/11/COLLADASchema" version="1.4.1">
  <asset>
    <created>2026-09-08T00:00:00Z</created>
    <modified>2026-09-08T00:00:00Z</modified>
    <unit name="meter" meter="1" />
    <up_axis>Z_UP</up_axis>
  </asset>
  <library_images>
    <image id="img0">
      <init_from>../materials/textures/sandstone.png</init_from>
    </image>
  </library_images>
  <library_effects>
    <effect id="e0">
      <profile_COMMON>
        <newparam sid="surf0">
          <surface type="2D">
            <init_from>img0</init_from>
          </surface>
        </newparam>
        <newparam sid="samp0">
          <sampler2D>
            <source>surf0</source>
            <wrap_s>WRAP</wrap_s>
            <wrap_t>WRAP</wrap_t>
          </sampler2D>
        </newparam>
        <technique sid="common">
          <phong>
            <ambient>
              <color>0.2205 0.1665 0.108 1</color>
            </ambient>
            <diffuse>
              <texture texture="samp0" texcoord="UVSET0" />
            </diffuse>
            <specular>
              <color>0.02 0.02 0.02 1</color>
            </specular>
            <shininess>
              <float>8</float>
            </shininess>
          </phong>
        </technique>
      </profile_COMMON>
    </effect>
  </library_effects>
  <library_materials>
    <material id="m0" name="m0">
      <instance_effect url="#e0" />
    </material>
  </library_materials>
  <library_geometries>
    <geometry id="geometry" name="2008_sandstone_talus_03">
      <mesh>
        <source id="positions">
          <float_array id="positions-array" count="36">-28.7297 42.53586 1.198751 -29.09935 42.7588 1.316621 -28.63281 42.95736 1.316621 -28.30017 42.57342 1.316621 -28.56113 42.13757 1.316621 -29.05505 42.25215 1.316621 -28.89827 42.93415 1.50734 -28.40435 42.81957 1.50734 -28.36005 42.31292 1.50734 -28.82659 42.11436 1.50734 -29.15923 42.4983 1.50734 -28.7297 42.53586 1.625211</float_array>
          <technique_common>
            <accessor source="#positions-array" count="12" stride="3">
              <param name="X" type="float" />
              <param name="Y" type="float" />
              <param name="Z" type="float" />
            </accessor>
          </technique_common>
        </source>
        <source id="normals">
          <float_array id="normals-array" count="60">-0.1250201 0.2937487 -0.9476717 -0.3189099 -0.0278851 -0.9473748 0.2416955 0.2094022 -0.9474883 0.2743697 -0.1642781 -0.9474883 -0.07214259 -0.3109883 -0.9476717 -0.9145854 -0.07997028 -0.3964067 -0.3593558 0.8443466 -0.3974196 0.693753 0.6010595 -0.3967799 0.7875396 -0.471537 -0.3967799 -0.2073655 -0.8939 -0.3974196 -0.7875396 0.471537 0.3967799 0.2073655 0.8939 0.3974196 0.9145854 0.07997028 0.3964067 0.3593558 -0.8443466 0.3974196 -0.693753 -0.6010595 0.3967799 -0.2743697 0.1642781 0.9474883 0.07214259 0.3109883 0.9476717 0.3189099 0.0278851 0.9473748 0.1250201 -0.2937487 0.9476717 -0.2416955 -0.2094022 0.9474883</float_array>
          <technique_common>
            <accessor source="#normals-array" count="20" stride="3">
              <param name="X" type="float" />
              <param name="Y" type="float" />
              <param name="Z" type="float" />
            </accessor>
          </technique_common>
        </source>
        <source id="uv">
          <float_array id="uv-array" count="120">-11.49188 17.01434 -11.63974 17.10352 -11.45312 17.18294 -11.63974 17.10352 -11.49188 17.01434 -11.62202 16.90086 -11.49188 17.01434 -11.45312 17.18294 -11.32007 17.02937 -11.49188 17.01434 -11.32007 17.02937 -11.42445 16.85503 -11.49188 17.01434 -11.42445 16.85503 -11.62202 16.90086 17.10352 0.5266484 16.90086 0.5266484 16.99932 0.6029361 -11.45312 0.5266484 -11.63974 0.5266484 -11.55931 0.6029361 17.02937 0.5266484 17.18294 0.5266484 17.12783 0.6029361 16.85503 0.5266484 17.02937 0.5266484 16.92517 0.6029361 -11.62202 0.5266484 -11.42445 0.5266484 -11.53064 0.6029361 17.10352 0.5266484 16.99932 0.6029361 17.17366 0.6029361 -11.45312 0.5266484 -11.55931 0.6029361 -11.36174 0.6029361 17.02937 0.5266484 17.12783 0.6029361 16.92517 0.6029361 -11.42445 0.5266484 -11.34402 0.6029361 -11.53064 0.6029361 16.90086 0.5266484 16.84574 0.6029361 16.99932 0.6029361 -11.55931 17.17366 -11.66369 16.99932 -11.49188 17.01434 -11.36174 17.12783 -11.55931 17.17366 -11.49188 17.01434 -11.34402 16.92517 -11.36174 17.12783 -11.49188 17.01434 -11.53064 16.84574 -11.34402 16.92517 -11.49188 17.01434 -11.66369 16.99932 -11.53064 16.84574 -11.49188 17.01434</float_array>
          <technique_common>
            <accessor source="#uv-array" count="60" stride="2">
              <param name="S" type="float" />
              <param name="T" type="float" />
            </accessor>
          </technique_common>
        </source>
        <vertices id="vertices">
          <input semantic="POSITION" source="#positions" />
        </vertices>
        <triangles count="20" material="m0">
          <input semantic="VERTEX" source="#vertices" offset="0" />
          <input semantic="NORMAL" source="#normals" offset="1" />
          <input semantic="TEXCOORD" source="#uv" offset="2" set="0" />
          <p>0 0 0 1 0 1 2 0 2 1 1 3 0 1 4 5 1 5 0 2 6 2 2 7 3 2 8 0 3 9 3 3 10 4 3 11 0 4 12 4 4 13 5 4 14 1 5 15 5 5 16 10 5 17 2 6 18 1 6 19 6 6 20 3 7 21 2 7 22 7 7 23 4 8 24 3 8 25 8 8 26 5 9 27 4 9 28 9 9 29 1 10 30 10 10 31 6 10 32 2 11 33 6 11 34 7 11 35 3 12 36 7 12 37 8 12 38 4 13 39 8 13 40 9 13 41 5 14 42 9 14 43 10 14 44 6 15 45 10 15 46 11 15 47 7 16 48 6 16 49 11 16 50 8 17 51 7 17 52 11 17 53 9 18 54 8 18 55 11 18 56 10 19 57 9 19 58 11 19 59</p>
        </triangles>
      </mesh>
    </geometry>
  </library_geometries>
  <library_visual_scenes>
    <visual_scene id="Scene">
      <node id="Node" type="NODE">
        <instance_geometry url="#geometry">
          <bind_material>
            <technique_common>
              <instance_material symbol="m0" target="#m0">
                <bind_vertex_input semantic="UVSET0" input_semantic="TEXCOORD" input_set="0" />
              </instance_material>
            </technique_common>
          </bind_material>
        </instance_geometry>
      </node>
    </visual_scene>
  </library_visual_scenes>
  <scene>
    <instance_visual_scene url="#Scene" />
  </scene>
</COLLADA>