<?xml version='1.0' encoding='utf-8'?>
<COLLADA xmlns="http://www.collada.org/2005/11/COLLADASchema" version="1.4.1">
  <asset>
    <created>2026-09-08T00:00:00Z</created>
    <modified>2026-09-08T00:00:00Z</modified>
    <unit name="meter" meter="1" />
    <up_axis>Z_UP</up_axis>
  </asset>
  <library_images>
    <image id="img0">
      <init_from>../materials/textures/sandstone.png</init_from>
    </image>
  </library_images>
  <library_effects>
    <effect id="e0">
      <profile_COMMON>
        <newparam sid="surf0">
          <surface type="2D">
            <init_from>img0</init_from>
          </surface>
        </newparam>
        <newparam sid="samp0">
          <sampler2D>
            <source>surf0</source>
            <wrap_s>WRAP</wrap_s>
            <wrap_t>WRAP</wrap_t>
          </sampler2D>
        </newparam>
        <technique sid="common">
          <phong>
            <ambient>
              <color>0.2205 0.1665 0.108 1</color>
            </ambient>
            <diffuse>
              <texture texture="samp0" texcoord="UVSET0" />
            </diffuse>
            <specular>
              <color>0.02 0.02 0.02 1</color>
            </specular>
            <shininess>
              <float>8</float>
            </shininess>
          </phong>
        </technique>
      </profile_COMMON>
    </effect>
  </library_effects>
  <library_materials>
    <material id="m0" name="m0">
      <instance_effect url="#e0" />
    </material>
  </library_materials>
  <library_geometries>
    <geometry id="geometry" name="2009_sandstone_talus_04">
      <mesh>
        <source id="positions">
          <float_array id="positions-array" count="36">-5.037746 38.77367 5.260263 -4.868256 38.36096 5.433273 -5.362439 38.39761 5.433273 -5.407911 38.95397 5.433273 -4.941822 39.26116 5.433273 -4.608302 38.89466 5.433273 -5.133671 38.28618 5.71321 -5.467191 38.65269 5.71321 -5.207237 39.18639 5.71321 -4.713053 39.14974 5.71321 -4.667582 38.59337 5.71321 -5.037746 38.77367 5.88622</float_array>
          <technique_common>
            <accessor source="#positions-array" count="12" stride="3">
              <param name="X" type="float" />
              <param name="Y" type="float" />
              <param name="Z" type="float" />
            </accessor>
          </technique_common>
        </source>
        <source id="normals">
          <float_array id="normals-array" count="60">-0.02942157 -0.3966905 -0.9174808 0.4143844 -0.2018379 -0.8874385 -0.4373875 -0.03574785 -0.8985623 -0.2415001 0.3664197 -0.8985623 0.2942001 0.2677225 -0.9174808 0.865524 -0.4215785 -0.2704437 -0.07010166 -0.9451796 -0.3189378 -0.9549769 -0.07805063 -0.2862294 -0.5272831 0.8000283 -0.2862294 0.7009794 0.6378923 -0.3189378 0.5272831 -0.8000283 0.2862294 -0.7009794 -0.6378923 0.3189378 -0.865524 0.4215785 0.2704437 0.07010166 0.9451796 0.3189378 0.9549769 0.07805063 0.2862294 0.2415001 -0.3664197 0.8985623 -0.2942001 -0.2677225 0.9174808 -0.4143844 0.2018379 0.8874385 0.02942157 0.3966905 0.9174808 0.4373875 0.03574785 0.8985623</float_array>
          <technique_common>
            <accessor source="#normals-array" count="20" stride="3">
              <param name="X" type="float" />
              <param name="Y" type="float" />
              <param name="Z" type="float" />
            </accessor>
          </technique_common>
        </source>
        <source id="uv">
          <float_array id="uv-array" count="120">-2.015099 15.50947 -1.947302 15.34438 -2.144976 15.35904 -1.947302 15.34438 -2.015099 15.50947 -1.843321 15.55786 -2.015099 15.50947 -2.144976 15.35904 -2.163164 15.58159 -2.015099 15.50947 -2.163164 15.58159 -1.976729 15.70447 -2.015099 15.50947 -1.976729 15.70447 -1.843321 15.55786 15.34438 2.173309 15.55786 2.173309 15.43735 2.285284 -2.144976 2.173309 -1.947302 2.173309 -2.053469 2.285284 15.58159 2.173309 15.35904 2.173309 15.46108 2.285284 -1.976729 2.173309 -2.163164 2.173309 -2.082895 2.285284 15.55786 2.173309 15.70447 2.173309 15.65989 2.285284 -1.947302 2.173309 -1.867033 2.285284 -2.053469 2.285284 15.35904 2.173309 15.31447 2.285284 15.46108 2.285284 15.58159 2.173309 15.46108 2.285284 15.67456 2.285284 -1.976729 2.173309 -2.082895 2.285284 -1.885221 2.285284 15.55786 2.173309 15.65989 2.285284 15.43735 2.285284 -2.053469 15.31447 -1.867033 15.43735 -2.015099 15.50947 -2.186876 15.46108 -2.053469 15.31447 -2.015099 15.50947 -2.082895 15.67456 -2.186876 15.46108 -2.015099 15.50947 -1.885221 15.65989 -2.082895 15.67456 -2.015099 15.50947 -1.867033 15.43735 -1.885221 15.65989 -2.015099 15.50947</float_array>
          <technique_common>
            <accessor source="#uv-array" count="60" stride="2">
              <param name="S" type="float" />
              <param name="T" type="float" />
            </accessor>
          </technique_common>
        </source>
        <vertices id="vertices">
          <input semantic="POSITION" source="#positions" />
        </vertices>
        <triangles count="20" material="m0">
          <input semantic="VERTEX" source="#vertices" offset="0" />
          <input semantic="NORMAL" source="#normals" offset="1" />
          <input semantic="TEXCOORD" source="#uv" offset="2" set="0" />
          <p>0 0 0 1 0 1 2 0 2 1 1 3 0 1 4 5 1 5 0 2 6 2 2 7 3 2 8 0 3 9 3 3 10 4 3 11 0 4 12 4 4 13 5 4 14 1 5 15 5 5 16 10 5 17 2 6 18 1 6 19 6 6 20 3 7 21 2 7 22 7 7 23 4 8 24 3 8 25 8 8 26 5 9 27 4 9 28 9 9 29 1 10 30 10 10 31 6 10 32 2 11 33 6 11 34 7 11 35 3 12 36 7 12 37 8 12 38 4 13 39 8 13 40 9 13 41 5 14 42 9 14 43 10 14 44 6 15 45 10 15 46 11 15 47 7 16 48 6 16 49 11 16 50 8 17 51 7 17 52 11 17 53 9 18 54 8 18 55 11 18 56 10 19 57 9 19 58 11 19 59</p>
        </triangles>
      </mesh>
    </geometry>
  </library_geometries>
  <library_visual_scenes>
    <visual_scene id="Scene">
      <node id="Node" type="NODE">
        <instance_geometry url="#geometry">
          <bind_material>
            <technique_common>
              <instance_material symbol="m0" target="#m0">
                <bind_vertex_input semantic="UVSET0" input_semantic="TEXCOORD" input_set="0" />
              </instance_material>
            </technique_common>
          </bind_material>
        </instance_geometry>
      </node>
    </visual_scene>
  </library_visual_scenes>
  <scene>
    <instance_visual_scene url="#Scene" />
  </scene>
</COLLADA>