<?xml version='1.0' encoding='utf-8'?>
<COLLADA xmlns="http://www.collada.org/2005/11/COLLADASchema" version="1.4.1">
  <asset>
    <created>2026-09-08T00:00:00Z</created>
    <modified>2026-09-08T00:00:00Z</modified>
    <unit name="meter" meter="1" />
    <up_axis>Z_UP</up_axis>
  </asset>
  <library_images>
    <image id="img0">
      <init_from>../materials/textures/sandstone.png</init_from>
    </image>
  </library_images>
  <library_effects>
    <effect id="e0">
      <profile_COMMON>
        <newparam sid="surf0">
          <surface type="2D">
            <init_from>img0</init_from>
          </surface>
        </newparam>
        <newparam sid="samp0">
          <sampler2D>
            <source>surf0</source>
            <wrap_s>WRAP</wrap_s>
            <wrap_t>WRAP</wrap_t>
          </sampler2D>
        </newparam>
        <technique sid="common">
          <phong>
            <ambient>
              <color>0.2205 0.1665 0.108 1</color>
            </ambient>
            <diffuse>
              <texture texture="samp0" texcoord="UVSET0" />
            </diffuse>
            <specular>
              <color>0.02 0.02 0.02 1</color>
            </specular>
            <shininess>
              <float>8</float>
            </shininess>
          </phong>
        </technique>
      </profile_COMMON>
    </effect>
  </library_effects>
  <library_materials>
    <material id="m0" name="m0">
      <instance_effect url="#e0" />
    </material>
  </library_materials>
  <library_geometries>
    <geometry id="geometry" name="2013_sandstone_talus_08">
      <mesh>
        <source id="positions">
          <float_array id="positions-array" count="36">-18.58224 53.1407 2.175346 -18.36387 53.66917 2.274828 -18.13134 52.99071 2.274828 -18.52194 52.51952 2.274828 -18.99588 52.90679 2.274828 -18.89818 53.6173 2.274828 -18.16861 53.37461 2.435795 -18.2663 52.66409 2.435795 -18.80062 52.61222 2.435795 -19.03315 53.29068 2.435795 -18.64254 53.76188 2.435795 -18.58224 53.1407 2.535277</float_array>
          <technique_common>
            <accessor source="#positions-array" count="12" stride="3">
              <param name="X" type="float" />
              <param name="Y" type="float" />
              <param name="Z" type="float" />
            </accessor>
          </technique_common>
        </source>
        <source id="normals">
          <float_array id="normals-array" count="60">0.2408138 0.08253533 -0.9670557 -0.01867825 0.1924113 -0.9811366 0.1687356 -0.1398769 -0.9756858 -0.1386817 -0.1697193 -0.9756858 -0.2521921 0.03467697 -0.9670557 -0.07764899 0.7998897 -0.5951026 0.8273975 0.2835782 -0.4847646 0.6456487 -0.535224 -0.544677 -0.5306505 -0.6494128 -0.544677 -0.8664917 0.1191445 -0.4847646 0.5306505 0.6494128 0.544677 0.8664917 -0.1191445 0.4847646 0.07764899 -0.7998897 0.5951026 -0.8273975 -0.2835782 0.4847646 -0.6456487 0.535224 0.544677 0.1386817 0.1697193 0.9756858 0.2521921 -0.03467697 0.9670557 0.01867825 -0.1924113 0.9811366 -0.2408138 -0.08253533 0.9670557 -0.1687356 0.1398769 0.9756858</float_array>
          <technique_common>
            <accessor source="#normals-array" count="20" stride="3">
              <param name="X" type="float" />
              <param name="Y" type="float" />
              <param name="Z" type="float" />
            </accessor>
          </technique_common>
        </source>
        <source id="uv">
          <float_array id="uv-array" count="120">-7.432897 21.25628 -7.345548 21.46767 -7.252535 21.19628 -7.345548 21.46767 -7.432897 21.25628 -7.559273 21.44692 -7.432897 21.25628 -7.252535 21.19628 -7.408777 21.00781 -7.432897 21.25628 -7.408777 21.00781 -7.598352 21.16271 -7.432897 21.25628 -7.598352 21.16271 -7.559273 21.44692 -7.345548 0.9099313 -7.559273 0.9099313 -7.457017 0.9743178 21.19628 0.9099313 21.46767 0.9099313 21.34984 0.9743178 21.00781 0.9099313 21.19628 0.9099313 21.06564 0.9743178 -7.598352 0.9099313 -7.408777 0.9099313 -7.520246 0.9743178 21.44692 0.9099313 21.16271 0.9099313 21.31627 0.9743178 -7.345548 0.9099313 -7.457017 0.9743178 -7.267442 0.9743178 21.19628 0.9099313 21.34984 0.9743178 21.06564 0.9743178 -7.408777 0.9099313 -7.306521 0.9743178 -7.520246 0.9743178 21.16271 0.9099313 21.04489 0.9743178 21.31627 0.9743178 21.44692 0.9099313 21.31627 0.9743178 21.50475 0.9743178 -7.267442 21.34984 -7.457017 21.50475 -7.432897 21.25628 -7.306521 21.06564 -7.267442 21.34984 -7.432897 21.25628 -7.520246 21.04489 -7.306521 21.06564 -7.432897 21.25628 -7.613259 21.31627 -7.520246 21.04489 -7.432897 21.25628 -7.457017 21.50475 -7.613259 21.31627 -7.432897 21.25628</float_array>
          <technique_common>
            <accessor source="#uv-array" count="60" stride="2">
              <param name="S" type="float" />
              <param name="T" type="float" />
            </accessor>
          </technique_common>
        </source>
        <vertices id="vertices">
          <input semantic="POSITION" source="#positions" />
        </vertices>
        <triangles count="20" material="m0">
          <input semantic="VERTEX" source="#vertices" offset="0" />
          <input semantic="NORMAL" source="#normals" offset="1" />
          <input semantic="TEXCOORD" source="#uv" offset="2" set="0" />
          <p>0 0 0 1 0 1 2 0 2 1 1 3 0 1 4 5 1 5 0 2 6 2 2 7 3 2 8 0 3 9 3 3 10 4 3 11 0 4 12 4 4 13 5 4 14 1 5 15 5 5 16 10 5 17 2 6 18 1 6 19 6 6 20 3 7 21 2 7 22 7 7 23 4 8 24 3 8 25 8 8 26 5 9 27 4 9 28 9 9 29 1 10 30 10 10 31 6 10 32 2 11 33 6 11 34 7 11 35 3 12 36 7 12 37 8 12 38 4 13 39 8 13 40 9 13 41 5 14 42 9 14 43 10 14 44 6 15 45 10 15 46 11 15 47 7 16 48 6 16 49 11 16 50 8 17 51 7 17 52 11 17 53 9 18 54 8 18 55 11 18 56 10 19 57 9 19 58 11 19 59</p>
        </triangles>
      </mesh>
    </geometry>
  </library_geometries>
  <library_visual_scenes>
    <visual_scene id="Scene">
      <node id="Node" type="NODE">
        <instance_geometry url="#geometry">
          <bind_material>
            <technique_common>
              <instance_material symbol="m0" target="#m0">
                <bind_vertex_input semantic="UVSET0" input_semantic="TEXCOORD" input_set="0" />
              </instance_material>
            </technique_common>
          </bind_material>
        </instance_geometry>
      </node>
    </visual_scene>
  </library_visual_scenes>
  <scene>
    <instance_visual_scene url="#Scene" />
  </scene>
</COLLADA>