<?xml version='1.0' encoding='utf-8'?>
<COLLADA xmlns="http://www.collada.org/2005/11/COLLADASchema" version="1.4.1">
  <asset>
    <created>2026-09-08T00:00:00Z</created>
    <modified>2026-09-08T00:00:00Z</modified>
    <unit name="meter" meter="1" />
    <up_axis>Z_UP</up_axis>
  </asset>
  <library_images>
    <image id="img0">
      <init_from>../materials/textures/sandstone.png</init_from>
    </image>
  </library_images>
  <library_effects>
    <effect id="e0">
      <profile_COMMON>
        <newparam sid="surf0">
          <surface type="2D">
            <init_from>img0</init_from>
          </surface>
        </newparam>
        <newparam sid="samp0">
          <sampler2D>
            <source>surf0</source>
            <wrap_s>WRAP</wrap_s>
            <wrap_t>WRAP</wrap_t>
          </sampler2D>
        </newparam>
        <technique sid="common">
          <phong>
            <ambient>
              <color>0.2205 0.1665 0.108 1</color>
            </ambient>
            <diffuse>
              <texture texture="samp0" texcoord="UVSET0" />
            </diffuse>
            <specular>
              <color>0.02 0.02 0.02 1</color>
            </specular>
            <shininess>
              <float>8</float>
            </shininess>
          </phong>
        </technique>
      </profile_COMMON>
    </effect>
  </library_effects>
  <library_materials>
    <material id="m0" name="m0">
      <instance_effect url="#e0" />
    </material>
  </library_materials>
  <library_geometries>
    <geometry id="geometry" name="2015_sandstone_talus_10">
      <mesh>
        <source id="positions">
          <float_array id="positions-array" count="36">-7.991922 36.83304 4.59979 -7.68726 36.32168 4.704895 -8.339399 36.77635 4.704895 -8.511342 37.30937 4.704895 -7.965456 37.18412 4.704895 -7.456152 36.57369 4.704895 -8.018389 36.48197 4.87496 -8.527693 37.09239 4.87496 -8.296585 37.34441 4.87496 -7.644445 36.88974 4.87496 -7.472503 36.35671 4.87496 -7.991922 36.83304 4.980065</float_array>
          <technique_common>
            <accessor source="#positions-array" count="12" stride="3">
              <param name="X" type="float" />
              <param name="Y" type="float" />
              <param name="Z" type="float" />
            </accessor>
          </technique_common>
        </source>
        <source id="normals">
          <float_array id="normals-array" count="60">-0.2252973 -0.3231474 -0.9191392 0.1336127 -0.1225288 -0.9834299 -0.2750909 -0.08873851 -0.9573142 0.06464352 0.2817282 -0.9573142 0.3024776 0.2523697 -0.9191392 0.5779089 -0.5299682 -0.6206085 -0.5414082 -0.7765503 -0.3222528 -0.8569169 -0.2764232 -0.4350674 0.2013666 0.8775921 -0.4350674 0.7268789 0.6064654 -0.3222528 -0.2013666 -0.8775921 0.4350674 -0.7268789 -0.6064654 0.3222528 -0.5779089 0.5299682 0.6206085 0.5414082 0.7765503 0.3222528 0.8569169 0.2764232 0.4350674 -0.06464352 -0.2817282 0.9573142 -0.3024776 -0.2523697 0.9191392 -0.1336127 0.1225288 0.9834299 0.2252973 0.3231474 0.9191392 0.2750909 0.08873851 0.9573142</float_array>
          <technique_common>
            <accessor source="#normals-array" count="20" stride="3">
              <param name="X" type="float" />
              <param name="Y" type="float" />
              <param name="Z" type="float" />
            </accessor>
          </technique_common>
        </source>
        <source id="uv">
          <float_array id="uv-array" count="120">-3.196769 14.73322 -3.074904 14.52867 -3.33576 14.71054 -3.074904 14.52867 -3.196769 14.73322 -2.982461 14.62948 -3.196769 14.73322 -3.33576 14.71054 -3.404537 14.92375 -3.196769 14.73322 -3.404537 14.92375 -3.186182 14.87365 -3.196769 14.73322 -3.186182 14.87365 -2.982461 14.62948 -3.074904 14.52867 -2.982461 14.62948 -2.989001 14.54268 -3.33576 1.881958 -3.074904 1.881958 -3.207356 1.949984 14.92375 1.881958 14.71054 1.881958 14.83696 1.949984 -3.186182 1.881958 -3.404537 1.881958 -3.318634 1.949984 14.62948 1.881958 14.87365 1.881958 14.75589 1.949984 -3.074904 1.881958 -2.989001 1.949984 -3.207356 1.949984 14.71054 1.881958 14.59279 1.949984 14.83696 1.949984 -3.404537 14.92375 -3.411077 14.83696 -3.318634 14.93776 -3.186182 1.881958 -3.318634 1.949984 -3.057778 1.949984 14.62948 1.881958 14.75589 1.949984 14.54268 1.949984 -3.207356 14.59279 -2.989001 14.54268 -3.196769 14.73322 -3.411077 14.83696 -3.207356 14.59279 -3.196769 14.73322 -3.318634 14.93776 -3.411077 14.83696 -3.196769 14.73322 -3.057778 14.75589 -3.318634 14.93776 -3.196769 14.73322 -2.989001 14.54268 -3.057778 14.75589 -3.196769 14.73322</float_array>
          <technique_common>
            <accessor source="#uv-array" count="60" stride="2">
              <param name="S" type="float" />
              <param name="T" type="float" />
            </accessor>
          </technique_common>
        </source>
        <vertices id="vertices">
          <input semantic="POSITION" source="#positions" />
        </vertices>
        <triangles count="20" material="m0">
          <input semantic="VERTEX" source="#vertices" offset="0" />
          <input semantic="NORMAL" source="#normals" offset="1" />
          <input semantic="TEXCOORD" source="#uv" offset="2" set="0" />
          <p>0 0 0 1 0 1 2 0 2 1 1 3 0 1 4 5 1 5 0 2 6 2 2 7 3 2 8 0 3 9 3 3 10 4 3 11 0 4 12 4 4 13 5 4 14 1 5 15 5 5 16 10 5 17 2 6 18 1 6 19 6 6 20 3 7 21 2 7 22 7 7 23 4 8 24 3 8 25 8 8 26 5 9 27 4 9 28 9 9 29 1 10 30 10 10 31 6 10 32 2 11 33 6 11 34 7 11 35 3 12 36 7 12 37 8 12 38 4 13 39 8 13 40 9 13 41 5 14 42 9 14 43 10 14 44 6 15 45 10 15 46 11 15 47 7 16 48 6 16 49 11 16 50 8 17 51 7 17 52 11 17 53 9 18 54 8 18 55 11 18 56 10 19 57 9 19 58 11 19 59</p>
        </triangles>
      </mesh>
    </geometry>
  </library_geometries>
  <library_visual_scenes>
    <visual_scene id="Scene">
      <node id="Node" type="NODE">
        <instance_geometry url="#geometry">
          <bind_material>
            <technique_common>
              <instance_material symbol="m0" target="#m0">
                <bind_vertex_input semantic="UVSET0" input_semantic="TEXCOORD" input_set="0" />
              </instance_material>
            </technique_common>
          </bind_material>
        </instance_geometry>
      </node>
    </visual_scene>
  </library_visual_scenes>
  <scene>
    <instance_visual_scene url="#Scene" />
  </scene>
</COLLADA>