<?xml version='1.0' encoding='utf-8'?>
<COLLADA xmlns="http://www.collada.org/2005/11/COLLADASchema" version="1.4.1">
  <asset>
    <created>2026-09-08T00:00:00Z</created>
    <modified>2026-09-08T00:00:00Z</modified>
    <unit name="meter" meter="1" />
    <up_axis>Z_UP</up_axis>
  </asset>
  <library_images>
    <image id="img0">
      <init_from>../materials/textures/sandstone.png</init_from>
    </image>
  </library_images>
  <library_effects>
    <effect id="e0">
      <profile_COMMON>
        <newparam sid="surf0">
          <surface type="2D">
            <init_from>img0</init_from>
          </surface>
        </newparam>
        <newparam sid="samp0">
          <sampler2D>
            <source>surf0</source>
            <wrap_s>WRAP</wrap_s>
            <wrap_t>WRAP</wrap_t>
          </sampler2D>
        </newparam>
        <technique sid="common">
          <phong>
            <ambient>
              <color>0.2205 0.1665 0.108 1</color>
            </ambient>
            <diffuse>
              <texture texture="samp0" texcoord="UVSET0" />
            </diffuse>
            <specular>
              <color>0.02 0.02 0.02 1</color>
            </specular>
            <shininess>
              <float>8</float>
            </shininess>
          </phong>
        </technique>
      </profile_COMMON>
    </effect>
  </library_effects>
  <library_materials>
    <material id="m0" name="m0">
      <instance_effect url="#e0" />
    </material>
  </library_materials>
  <library_geometries>
    <geometry id="geometry" name="2024_sandstone_talus_19">
      <mesh>
        <source id="positions">
          <float_array id="positions-array" count="36">-30.38354 43.36103 0.9129768 -30.71094 43.67874 1.075319 -30.25391 43.87031 1.075319 -29.97602 43.35808 1.075319 -30.26131 42.84992 1.075319 -30.71552 43.04811 1.075319 -30.50577 43.87214 1.337995 -30.05156 43.67395 1.337995 -30.05614 43.04333 1.337995 -30.51317 42.85175 1.337995 -30.79106 43.36399 1.337995 -30.38354 43.36103 1.500337</float_array>
          <technique_common>
            <accessor source="#positions-array" count="12" stride="3">
              <param name="X" type="float" />
              <param name="Y" type="float" />
              <param name="Z" type="float" />
            </accessor>
          </technique_common>
        </source>
        <source id="normals">
          <float_array id="normals-array" count="60">-0.1394991 0.3327969 -0.9326233 -0.441735 0.003203681 -0.8971399 0.3640265 0.197489 -0.9102103 0.3611238 -0.2027481 -0.9102103 -0.1443114 -0.3307386 -0.9326233 -0.9587687 0.006953465 -0.2841025 -0.3617222 0.8629446 -0.3528226 0.8370047 0.4540857 -0.3053347 0.8303305 -0.466178 -0.3053347 -0.3742005 -0.8576073 -0.3528226 -0.8303305 0.466178 0.3053347 0.3742005 0.8576073 0.3528226 0.9587687 -0.006953465 0.2841025 0.3617222 -0.8629446 0.3528226 -0.8370047 -0.4540857 0.3053347 -0.3611238 0.2027481 0.9102103 0.1443114 0.3307386 0.9326233 0.441735 -0.003203681 0.8971399 0.1394991 -0.3327969 0.9326233 -0.3640265 -0.197489 0.9102103</float_array>
          <technique_common>
            <accessor source="#normals-array" count="20" stride="3">
              <param name="X" type="float" />
              <param name="Y" type="float" />
              <param name="Z" type="float" />
            </accessor>
          </technique_common>
        </source>
        <source id="uv">
          <float_array id="uv-array" count="120">-12.15342 17.34441 -12.28438 17.47149 -12.10156 17.54812 -12.28438 17.47149 -12.15342 17.34441 -12.28621 17.21924 -12.15342 17.34441 -12.10156 17.54812 -11.99041 17.34323 -12.15342 17.34441 -11.99041 17.34323 -12.10452 17.13997 -12.15342 17.34441 -12.10452 17.13997 -12.28621 17.21924 17.47149 0.4301275 17.21924 0.4301275 17.34559 0.535198 -12.10156 0.4301275 -12.28438 0.4301275 -12.20231 0.535198 17.34323 0.4301275 17.54812 0.4301275 17.46958 0.535198 17.13997 0.4301275 17.34323 0.4301275 17.21733 0.535198 -12.28621 0.4301275 -12.10452 0.4301275 -12.20527 0.535198 17.47149 0.4301275 17.34559 0.535198 17.54885 0.535198 -12.10156 0.4301275 -12.20231 0.535198 -12.02062 0.535198 17.34323 0.4301275 17.46958 0.535198 17.21733 0.535198 -12.10452 0.4301275 -12.02245 0.535198 -12.20527 0.535198 17.21924 0.4301275 17.1407 0.535198 17.34559 0.535198 -12.20231 17.54885 -12.31642 17.34559 -12.15342 17.34441 -12.02062 17.46958 -12.20231 17.54885 -12.15342 17.34441 -12.02245 17.21733 -12.02062 17.46958 -12.15342 17.34441 -12.20527 17.1407 -12.02245 17.21733 -12.15342 17.34441 -12.31642 17.34559 -12.20527 17.1407 -12.15342 17.34441</float_array>
          <technique_common>
            <accessor source="#uv-array" count="60" stride="2">
              <param name="S" type="float" />
              <param name="T" type="float" />
            </accessor>
          </technique_common>
        </source>
        <vertices id="vertices">
          <input semantic="POSITION" source="#positions" />
        </vertices>
        <triangles count="20" material="m0">
          <input semantic="VERTEX" source="#vertices" offset="0" />
          <input semantic="NORMAL" source="#normals" offset="1" />
          <input semantic="TEXCOORD" source="#uv" offset="2" set="0" />
          <p>0 0 0 1 0 1 2 0 2 1 1 3 0 1 4 5 1 5 0 2 6 2 2 7 3 2 8 0 3 9 3 3 10 4 3 11 0 4 12 4 4 13 5 4 14 1 5 15 5 5 16 10 5 17 2 6 18 1 6 19 6 6 20 3 7 21 2 7 22 7 7 23 4 8 24 3 8 25 8 8 26 5 9 27 4 9 28 9 9 29 1 10 30 10 10 31 6 10 32 2 11 33 6 11 34 7 11 35 3 12 36 7 12 37 8 12 38 4 13 39 8 13 40 9 13 41 5 14 42 9 14 43 10 14 44 6 15 45 10 15 46 11 15 47 7 16 48 6 16 49 11 16 50 8 17 51 7 17 52 11 17 53 9 18 54 8 18 55 11 18 56 10 19 57 9 19 58 11 19 59</p>
        </triangles>
      </mesh>
    </geometry>
  </library_geometries>
  <library_visual_scenes>
    <visual_scene id="Scene">
      <node id="Node" type="NODE">
        <instance_geometry url="#geometry">
          <bind_material>
            <technique_common>
              <instance_material symbol="m0" target="#m0">
                <bind_vertex_input semantic="UVSET0" input_semantic="TEXCOORD" input_set="0" />
              </instance_material>
            </technique_common>
          </bind_material>
        </instance_geometry>
      </node>
    </visual_scene>
  </library_visual_scenes>
  <scene>
    <instance_visual_scene url="#Scene" />
  </scene>
</COLLADA>