<?xml version='1.0' encoding='utf-8'?>
<COLLADA xmlns="http://www.collada.org/2005/11/COLLADASchema" version="1.4.1">
  <asset>
    <created>2026-09-08T00:00:00Z</created>
    <modified>2026-09-08T00:00:00Z</modified>
    <unit name="meter" meter="1" />
    <up_axis>Z_UP</up_axis>
  </asset>
  <library_images>
    <image id="img0">
      <init_from>../materials/textures/sandstone.png</init_from>
    </image>
  </library_images>
  <library_effects>
    <effect id="e0">
      <profile_COMMON>
        <newparam sid="surf0">
          <surface type="2D">
            <init_from>img0</init_from>
          </surface>
        </newparam>
        <newparam sid="samp0">
          <sampler2D>
            <source>surf0</source>
            <wrap_s>WRAP</wrap_s>
            <wrap_t>WRAP</wrap_t>
          </sampler2D>
        </newparam>
        <technique sid="common">
          <phong>
            <ambient>
              <color>0.2205 0.1665 0.108 1</color>
            </ambient>
            <diffuse>
              <texture texture="samp0" texcoord="UVSET0" />
            </diffuse>
            <specular>
              <color>0.02 0.02 0.02 1</color>
            </specular>
            <shininess>
              <float>8</float>
            </shininess>
          </phong>
        </technique>
      </profile_COMMON>
    </effect>
  </library_effects>
  <library_materials>
    <material id="m0" name="m0">
      <instance_effect url="#e0" />
    </material>
  </library_materials>
  <library_geometries>
    <geometry id="geometry" name="2026_sandstone_talus_21">
      <mesh>
        <source id="positions">
          <float_array id="positions-array" count="36">-17.25905 54.00726 2.256701 -17.04922 54.45319 2.436107 -16.92311 53.83527 2.436107 -17.26125 53.45503 2.436107 -17.59635 53.83796 2.436107 -17.4653 54.45486 2.436107 -16.92175 54.17656 2.726394 -17.05279 53.55967 2.726394 -17.46887 53.56133 2.726394 -17.59498 54.17925 2.726394 -17.25684 54.55949 2.726394 -17.25905 54.00726 2.905801</float_array>
          <technique_common>
            <accessor source="#positions-array" count="12" stride="3">
              <param name="X" type="float" />
              <param name="Y" type="float" />
              <param name="Z" type="float" />
            </accessor>
          </technique_common>
        </source>
        <source id="normals">
          <float_array id="normals-array" count="60">0.5094195 0.1039671 -0.8542146 0.001489651 0.3726417 -0.9279741 0.329394 -0.2929266 -0.8976044 -0.3317254 -0.2902837 -0.8976044 -0.508572 0.1080365 -0.8542146 0.0037572 0.9398777 -0.3414905 0.9528114 0.1944586 -0.2331014 0.716318 -0.637014 -0.2847835 -0.721388 -0.6312667 -0.2847835 -0.9512263 0.2020701 -0.2331014 0.721388 0.6312667 0.2847835 0.9512263 -0.2020701 0.2331014 -0.0037572 -0.9398777 0.3414905 -0.9528114 -0.1944586 0.2331014 -0.716318 0.637014 0.2847835 0.3317254 0.2902837 0.8976044 0.508572 -0.1080365 0.8542146 -0.001489651 -0.3726417 0.9279741 -0.5094195 -0.1039671 0.8542146 -0.329394 0.2929266 0.8976044</float_array>
          <technique_common>
            <accessor source="#normals-array" count="20" stride="3">
              <param name="X" type="float" />
              <param name="Y" type="float" />
              <param name="Z" type="float" />
            </accessor>
          </technique_common>
        </source>
        <source id="uv">
          <float_array id="uv-array" count="120">-6.903619 21.60291 -6.819688 21.78128 -6.769244 21.53411 -6.819688 21.78128 -6.903619 21.60291 -6.98612 21.78194 -6.903619 21.60291 -6.769244 21.53411 -6.904502 21.38201 -6.903619 21.60291 -6.904502 21.38201 -7.038539 21.53519 -6.903619 21.60291 -7.038539 21.53519 -6.98612 21.78194 -6.819688 0.9744428 -6.98612 0.9744428 -6.902736 1.090558 21.53411 0.9744428 21.78128 0.9744428 21.67062 1.090558 21.38201 0.9744428 21.53411 0.9744428 21.42387 1.090558 21.53519 0.9744428 21.38201 0.9744428 21.42453 1.090558 21.78194 0.9744428 21.53519 0.9744428 21.6717 1.090558 21.78128 0.9744428 21.8238 1.090558 21.67062 1.090558 21.53411 0.9744428 21.67062 1.090558 21.42387 1.090558 -6.904502 0.9744428 -6.821117 1.090558 -6.987549 1.090558 21.53519 0.9744428 21.42453 1.090558 21.6717 1.090558 21.78194 0.9744428 21.6717 1.090558 21.8238 1.090558 -6.768698 21.67062 -6.902736 21.8238 -6.903619 21.60291 -6.821117 21.42387 -6.768698 21.67062 -6.903619 21.60291 -6.987549 21.42453 -6.821117 21.42387 -6.903619 21.60291 -7.037993 21.6717 -6.987549 21.42453 -6.903619 21.60291 -6.902736 21.8238 -7.037993 21.6717 -6.903619 21.60291</float_array>
          <technique_common>
            <accessor source="#uv-array" count="60" stride="2">
              <param name="S" type="float" />
              <param name="T" type="float" />
            </accessor>
          </technique_common>
        </source>
        <vertices id="vertices">
          <input semantic="POSITION" source="#positions" />
        </vertices>
        <triangles count="20" material="m0">
          <input semantic="VERTEX" source="#vertices" offset="0" />
          <input semantic="NORMAL" source="#normals" offset="1" />
          <input semantic="TEXCOORD" source="#uv" offset="2" set="0" />
          <p>0 0 0 1 0 1 2 0 2 1 1 3 0 1 4 5 1 5 0 2 6 2 2 7 3 2 8 0 3 9 3 3 10 4 3 11 0 4 12 4 4 13 5 4 14 1 5 15 5 5 16 10 5 17 2 6 18 1 6 19 6 6 20 3 7 21 2 7 22 7 7 23 4 8 24 3 8 25 8 8 26 5 9 27 4 9 28 9 9 29 1 10 30 10 10 31 6 10 32 2 11 33 6 11 34 7 11 35 3 12 36 7 12 37 8 12 38 4 13 39 8 13 40 9 13 41 5 14 42 9 14 43 10 14 44 6 15 45 10 15 46 11 15 47 7 16 48 6 16 49 11 16 50 8 17 51 7 17 52 11 17 53 9 18 54 8 18 55 11 18 56 10 19 57 9 19 58 11 19 59</p>
        </triangles>
      </mesh>
    </geometry>
  </library_geometries>
  <library_visual_scenes>
    <visual_scene id="Scene">
      <node id="Node" type="NODE">
        <instance_geometry url="#geometry">
          <bind_material>
            <technique_common>
              <instance_material symbol="m0" target="#m0">
                <bind_vertex_input semantic="UVSET0" input_semantic="TEXCOORD" input_set="0" />
              </instance_material>
            </technique_common>
          </bind_material>
        </instance_geometry>
      </node>
    </visual_scene>
  </library_visual_scenes>
  <scene>
    <instance_visual_scene url="#Scene" />
  </scene>
</COLLADA>