<?xml version='1.0' encoding='utf-8'?>
<COLLADA xmlns="http://www.collada.org/2005/11/COLLADASchema" version="1.4.1">
  <asset>
    <created>2026-09-08T00:00:00Z</created>
    <modified>2026-09-08T00:00:00Z</modified>
    <unit name="meter" meter="1" />
    <up_axis>Z_UP</up_axis>
  </asset>
  <library_images>
    <image id="img0">
      <init_from>../materials/textures/sandstone.png</init_from>
    </image>
  </library_images>
  <library_effects>
    <effect id="e0">
      <profile_COMMON>
        <newparam sid="surf0">
          <surface type="2D">
            <init_from>img0</init_from>
          </surface>
        </newparam>
        <newparam sid="samp0">
          <sampler2D>
            <source>surf0</source>
            <wrap_s>WRAP</wrap_s>
            <wrap_t>WRAP</wrap_t>
          </sampler2D>
        </newparam>
        <technique sid="common">
          <phong>
            <ambient>
              <color>0.2205 0.1665 0.108 1</color>
            </ambient>
            <diffuse>
              <texture texture="samp0" texcoord="UVSET0" />
            </diffuse>
            <specular>
              <color>0.02 0.02 0.02 1</color>
            </specular>
            <shininess>
              <float>8</float>
            </shininess>
          </phong>
        </technique>
      </profile_COMMON>
    </effect>
  </library_effects>
  <library_materials>
    <material id="m0" name="m0">
      <instance_effect url="#e0" />
    </material>
  </library_materials>
  <library_geometries>
    <geometry id="geometry" name="2027_sandstone_talus_22">
      <mesh>
        <source id="positions">
          <float_array id="positions-array" count="36">-6.344288 46.05947 5.165033 -5.714318 45.91762 5.314673 -6.372901 45.47957 5.314673 -6.99195 45.84292 5.314673 -6.71594 46.50554 5.314673 -5.926326 46.5517 5.314673 -5.972635 45.6134 5.556798 -6.762249 45.56724 5.556798 -6.974258 46.20132 5.556798 -6.315674 46.63937 5.556798 -5.696626 46.27602 5.556798 -6.344288 46.05947 5.706439</float_array>
          <technique_common>
            <accessor source="#positions-array" count="12" stride="3">
              <param name="X" type="float" />
              <param name="Y" type="float" />
              <param name="Z" type="float" />
            </accessor>
          </technique_common>
        </source>
        <source id="normals">
          <float_array id="normals-array" count="60">0.1689973 -0.2540765 -0.9523051 0.2479415 0.08290074 -0.9652215 -0.1413423 -0.2408077 -0.960226 -0.2577564 0.1073666 -0.960226 -0.01780871 0.3046273 -0.9523051 0.8349566 0.2791728 -0.4742469 0.5040344 -0.7577831 -0.414384 -0.4524448 -0.7708393 -0.4484423 -0.8250933 0.3436867 -0.4484423 -0.05311448 0.9085509 -0.414384 0.8250933 -0.3436867 0.4484423 0.05311448 -0.9085509 0.414384 -0.8349566 -0.2791728 0.4742469 -0.5040344 0.7577831 0.414384 0.4524448 0.7708393 0.4484423 0.2577564 -0.1073666 0.960226 0.01780871 -0.3046273 0.9523051 -0.2479415 -0.08290074 0.9652215 -0.1689973 0.2540765 0.9523051 0.1413423 0.2408077 0.960226</float_array>
          <technique_common>
            <accessor source="#normals-array" count="20" stride="3">
              <param name="X" type="float" />
              <param name="Y" type="float" />
              <param name="Z" type="float" />
            </accessor>
          </technique_common>
        </source>
        <source id="uv">
          <float_array id="uv-array" count="120">-2.537715 18.42379 -2.285727 18.36705 -2.549161 18.19183 -2.285727 18.36705 -2.537715 18.42379 -2.370531 18.62068 -2.537715 18.42379 -2.549161 18.19183 -2.79678 18.33717 -2.537715 18.42379 -2.79678 18.33717 -2.686376 18.60222 -2.537715 18.42379 -2.686376 18.60222 -2.370531 18.62068 18.36705 2.125869 18.62068 2.125869 18.51041 2.222719 -2.549161 2.125869 -2.285727 2.125869 -2.389054 2.222719 -2.79678 2.125869 -2.549161 2.125869 -2.7049 2.222719 18.60222 2.125869 18.33717 2.125869 18.48053 2.222719 -2.370531 2.125869 -2.686376 2.125869 -2.52627 2.222719 18.36705 2.125869 18.51041 2.222719 18.24536 2.222719 -2.549161 2.125869 -2.389054 2.222719 -2.7049 2.222719 18.33717 2.125869 18.2269 2.222719 18.48053 2.222719 -2.686376 2.125869 -2.789703 2.222719 -2.52627 2.222719 -2.370531 2.125869 -2.52627 2.222719 -2.27865 2.222719 -2.389054 18.24536 -2.27865 18.51041 -2.537715 18.42379 -2.7049 18.2269 -2.389054 18.24536 -2.537715 18.42379 -2.789703 18.48053 -2.7049 18.2269 -2.537715 18.42379 -2.52627 18.65575 -2.789703 18.48053 -2.537715 18.42379 -2.27865 18.51041 -2.52627 18.65575 -2.537715 18.42379</float_array>
          <technique_common>
            <accessor source="#uv-array" count="60" stride="2">
              <param name="S" type="float" />
              <param name="T" type="float" />
            </accessor>
          </technique_common>
        </source>
        <vertices id="vertices">
          <input semantic="POSITION" source="#positions" />
        </vertices>
        <triangles count="20" material="m0">
          <input semantic="VERTEX" source="#vertices" offset="0" />
          <input semantic="NORMAL" source="#normals" offset="1" />
          <input semantic="TEXCOORD" source="#uv" offset="2" set="0" />
          <p>0 0 0 1 0 1 2 0 2 1 1 3 0 1 4 5 1 5 0 2 6 2 2 7 3 2 8 0 3 9 3 3 10 4 3 11 0 4 12 4 4 13 5 4 14 1 5 15 5 5 16 10 5 17 2 6 18 1 6 19 6 6 20 3 7 21 2 7 22 7 7 23 4 8 24 3 8 25 8 8 26 5 9 27 4 9 28 9 9 29 1 10 30 10 10 31 6 10 32 2 11 33 6 11 34 7 11 35 3 12 36 7 12 37 8 12 38 4 13 39 8 13 40 9 13 41 5 14 42 9 14 43 10 14 44 6 15 45 10 15 46 11 15 47 7 16 48 6 16 49 11 16 50 8 17 51 7 17 52 11 17 53 9 18 54 8 18 55 11 18 56 10 19 57 9 19 58 11 19 59</p>
        </triangles>
      </mesh>
    </geometry>
  </library_geometries>
  <library_visual_scenes>
    <visual_scene id="Scene">
      <node id="Node" type="NODE">
        <instance_geometry url="#geometry">
          <bind_material>
            <technique_common>
              <instance_material symbol="m0" target="#m0">
                <bind_vertex_input semantic="UVSET0" input_semantic="TEXCOORD" input_set="0" />
              </instance_material>
            </technique_common>
          </bind_material>
        </instance_geometry>
      </node>
    </visual_scene>
  </library_visual_scenes>
  <scene>
    <instance_visual_scene url="#Scene" />
  </scene>
</COLLADA>