<?xml version='1.0' encoding='utf-8'?>
<COLLADA xmlns="http://www.collada.org/2005/11/COLLADASchema" version="1.4.1">
  <asset>
    <created>2026-09-08T00:00:00Z</created>
    <modified>2026-09-08T00:00:00Z</modified>
    <unit name="meter" meter="1" />
    <up_axis>Z_UP</up_axis>
  </asset>
  <library_images>
    <image id="img0">
      <init_from>../materials/textures/sandstone.png</init_from>
    </image>
  </library_images>
  <library_effects>
    <effect id="e0">
      <profile_COMMON>
        <newparam sid="surf0">
          <surface type="2D">
            <init_from>img0</init_from>
          </surface>
        </newparam>
        <newparam sid="samp0">
          <sampler2D>
            <source>surf0</source>
            <wrap_s>WRAP</wrap_s>
            <wrap_t>WRAP</wrap_t>
          </sampler2D>
        </newparam>
        <technique sid="common">
          <phong>
            <ambient>
              <color>0.2205 0.1665 0.108 1</color>
            </ambient>
            <diffuse>
              <texture texture="samp0" texcoord="UVSET0" />
            </diffuse>
            <specular>
              <color>0.02 0.02 0.02 1</color>
            </specular>
            <shininess>
              <float>8</float>
            </shininess>
          </phong>
        </technique>
      </profile_COMMON>
    </effect>
  </library_effects>
  <library_materials>
    <material id="m0" name="m0">
      <instance_effect url="#e0" />
    </material>
  </library_materials>
  <library_geometries>
    <geometry id="geometry" name="2028_sandstone_talus_23">
      <mesh>
        <source id="positions">
          <float_array id="positions-array" count="36">-7.588924 39.09613 4.664412 -7.487594 38.65725 4.797581 -7.955754 38.68904 4.797581 -7.91697 39.28342 4.797581 -7.424833 39.61897 4.797581 -7.159469 39.23197 4.797581 -7.753016 38.57329 5.013055 -8.01838 38.96029 5.013055 -7.690255 39.53501 5.013055 -7.222095 39.50322 5.013055 -7.260878 38.90884 5.013055 -7.588924 39.09613 5.146224</float_array>
          <technique_common>
            <accessor source="#positions-array" count="12" stride="3">
              <param name="X" type="float" />
              <param name="Y" type="float" />
              <param name="Z" type="float" />
            </accessor>
          </technique_common>
        </source>
        <source id="normals">
          <float_array id="normals-array" count="60">-0.02000061 -0.2945246 -0.9554346 0.3469219 -0.1980674 -0.9167412 -0.3643473 0.02377396 -0.9309596 -0.2056863 0.3016741 -0.9309596 0.2434641 0.166943 -0.9554346 0.8234971 -0.4701575 -0.3174972 -0.06126524 -0.9021783 -0.4269906 -0.9352642 0.06102677 -0.3486496 -0.5279882 0.7743849 -0.3486496 0.7457715 0.5113745 -0.4269906 0.5279882 -0.7743849 0.3486496 -0.7457715 -0.5113745 0.4269906 -0.8234971 0.4701575 0.3174972 0.06126524 0.9021783 0.4269906 0.9352642 -0.06102677 0.3486496 0.2056863 -0.3016741 0.9309596 -0.2434641 -0.166943 0.9554346 -0.3469219 0.1980674 0.9167412 0.02000061 0.2945246 0.9554346 0.3643473 -0.02377396 0.9309596</float_array>
          <technique_common>
            <accessor source="#normals-array" count="20" stride="3">
              <param name="X" type="float" />
              <param name="Y" type="float" />
              <param name="Z" type="float" />
            </accessor>
          </technique_common>
        </source>
        <source id="uv">
          <float_array id="uv-array" count="120">-3.03557 15.63845 -2.995038 15.4629 -3.182302 15.47562 -2.995038 15.4629 -3.03557 15.63845 -2.863788 15.69279 -3.03557 15.63845 -3.182302 15.47562 -3.166788 15.71337 -3.03557 15.63845 -3.166788 15.71337 -2.969933 15.84759 -3.03557 15.63845 -2.969933 15.84759 -2.863788 15.69279 15.4629 1.919033 15.69279 1.919033 15.56354 2.005222 -3.182302 1.919033 -2.995038 1.919033 -3.101206 2.005222 15.71337 1.919033 15.47562 1.919033 15.58412 2.005222 -2.969933 1.919033 -3.166788 1.919033 -3.076102 2.005222 15.69279 1.919033 15.84759 1.919033 15.80129 2.005222 -2.995038 1.919033 -2.904351 2.005222 -3.101206 2.005222 15.47562 1.919033 15.42932 2.005222 15.58412 2.005222 15.71337 1.919033 15.58412 2.005222 15.814 2.005222 -2.969933 1.919033 -3.076102 2.005222 -2.888838 2.005222 15.69279 1.919033 15.80129 2.005222 15.56354 2.005222 -3.101206 15.42932 -2.904351 15.56354 -3.03557 15.63845 -3.207352 15.58412 -3.101206 15.42932 -3.03557 15.63845 -3.076102 15.814 -3.207352 15.58412 -3.03557 15.63845 -2.888838 15.80129 -3.076102 15.814 -3.03557 15.63845 -2.904351 15.56354 -2.888838 15.80129 -3.03557 15.63845</float_array>
          <technique_common>
            <accessor source="#uv-array" count="60" stride="2">
              <param name="S" type="float" />
              <param name="T" type="float" />
            </accessor>
          </technique_common>
        </source>
        <vertices id="vertices">
          <input semantic="POSITION" source="#positions" />
        </vertices>
        <triangles count="20" material="m0">
          <input semantic="VERTEX" source="#vertices" offset="0" />
          <input semantic="NORMAL" source="#normals" offset="1" />
          <input semantic="TEXCOORD" source="#uv" offset="2" set="0" />
          <p>0 0 0 1 0 1 2 0 2 1 1 3 0 1 4 5 1 5 0 2 6 2 2 7 3 2 8 0 3 9 3 3 10 4 3 11 0 4 12 4 4 13 5 4 14 1 5 15 5 5 16 10 5 17 2 6 18 1 6 19 6 6 20 3 7 21 2 7 22 7 7 23 4 8 24 3 8 25 8 8 26 5 9 27 4 9 28 9 9 29 1 10 30 10 10 31 6 10 32 2 11 33 6 11 34 7 11 35 3 12 36 7 12 37 8 12 38 4 13 39 8 13 40 9 13 41 5 14 42 9 14 43 10 14 44 6 15 45 10 15 46 11 15 47 7 16 48 6 16 49 11 16 50 8 17 51 7 17 52 11 17 53 9 18 54 8 18 55 11 18 56 10 19 57 9 19 58 11 19 59</p>
        </triangles>
      </mesh>
    </geometry>
  </library_geometries>
  <library_visual_scenes>
    <visual_scene id="Scene">
      <node id="Node" type="NODE">
        <instance_geometry url="#geometry">
          <bind_material>
            <technique_common>
              <instance_material symbol="m0" target="#m0">
                <bind_vertex_input semantic="UVSET0" input_semantic="TEXCOORD" input_set="0" />
              </instance_material>
            </technique_common>
          </bind_material>
        </instance_geometry>
      </node>
    </visual_scene>
  </library_visual_scenes>
  <scene>
    <instance_visual_scene url="#Scene" />
  </scene>
</COLLADA>