<?xml version='1.0' encoding='utf-8'?>
<COLLADA xmlns="http://www.collada.org/2005/11/COLLADASchema" version="1.4.1">
  <asset>
    <created>2026-09-08T00:00:00Z</created>
    <modified>2026-09-08T00:00:00Z</modified>
    <unit name="meter" meter="1" />
    <up_axis>Z_UP</up_axis>
  </asset>
  <library_images>
    <image id="img0">
      <init_from>../materials/textures/sandstone.png</init_from>
    </image>
  </library_images>
  <library_effects>
    <effect id="e0">
      <profile_COMMON>
        <newparam sid="surf0">
          <surface type="2D">
            <init_from>img0</init_from>
          </surface>
        </newparam>
        <newparam sid="samp0">
          <sampler2D>
            <source>surf0</source>
            <wrap_s>WRAP</wrap_s>
            <wrap_t>WRAP</wrap_t>
          </sampler2D>
        </newparam>
        <technique sid="common">
          <phong>
            <ambient>
              <color>0.2205 0.1665 0.108 1</color>
            </ambient>
            <diffuse>
              <texture texture="samp0" texcoord="UVSET0" />
            </diffuse>
            <specular>
              <color>0.02 0.02 0.02 1</color>
            </specular>
            <shininess>
              <float>8</float>
            </shininess>
          </phong>
        </technique>
      </profile_COMMON>
    </effect>
  </library_effects>
  <library_materials>
    <material id="m0" name="m0">
      <instance_effect url="#e0" />
    </material>
  </library_materials>
  <library_geometries>
    <geometry id="geometry" name="2032_eastern_sandstone_ridge">
      <mesh>
        <source id="positions">
          <float_array id="positions-array" count="756">60.60613 45.02104 -3.229142 60.68814 46.97019 -3.202598 58.64052 48.41819 -3.251214 56.74317 49.54889 -3.353776 55.64403 51.14078 -3.465534 53.88702 52.50821 -3.537722 51.46031 53.10486 -3.538842 48.91709 53.33249 -3.468406 46.46696 52.80899 -3.357148 44.53378 51.62449 -3.253613 42.38641 50.96224 -3.202978 39.62746 50.39565 -3.227336 38.16109 48.77895 -3.31606 38.4306 46.75749 -3.430435 38.5285 45.02104 -3.520556 38.42959 43.28444 -3.5471 39.05133 41.57417 -3.498484 39.95452 39.83566 -3.395921 41.50218 38.27543 -3.284164 44.16243 37.85815 -3.211976 46.71521 38.02219 -3.210856 48.91709 37.31539 -3.281291 51.54733 36.66063 -3.39255 53.96744 37.41273 -3.496085 55.77492 38.78224 -3.54672 57.36077 40.13588 -3.522361 58.35441 41.72386 -3.433638 59.22024 43.31496 -3.319263 59.81829 45.02104 -0.8958395 59.75156 46.78856 -0.8692959 57.84749 48.08513 -0.917912 56.25935 49.17624 -1.020474 55.23162 50.61978 -1.132231 53.55643 51.76872 -1.204419 51.38996 52.3718 -1.20554 49.07737 52.65983 -1.135104 46.8563 52.0809 -1.023846 45.12622 50.97344 -0.9203112 43.08641 50.47124 -0.8696759 40.58275 49.93568 -0.8940342 39.37988 48.40913 -0.9827577 39.54227 46.59995 -1.097133 39.51985 45.02104 -1.187254 39.57121 43.44693 -1.213797 40.17773 41.91171 -1.165182 40.86118 40.26749 -1.062619 42.29706 38.85275 -0.9508621 44.7942 38.56846 -0.878674 47.0754 38.65761 -0.8775536 49.07737 37.93352 -0.9479891 51.46234 37.44025 -1.059248 53.63552 38.15421 -1.162782 55.36604 39.30002 -1.213418 56.80217 40.55179 -1.189059 57.57485 42.05222 -1.100336 58.44562 43.46977 -0.9859603 58.48155 45.02104 0.8011075 58.28841 46.52698 0.8276511 56.66066 47.62975 0.779035 55.4134 48.61937 0.6764727 54.48144 49.83127 0.5647155 52.99405 50.7459 0.4925274 51.18064 51.33594 0.491407 49.19394 51.62742 0.5618425 47.30268 51.03257 0.673101 45.83156 50.08645 0.776636 44.0082 49.7387 0.8272713 41.89725 49.24261 0.8029129 40.96296 47.89677 0.7141893 41.00136 46.37764 0.5998139 40.92067 45.02104 0.5096929 41.10063 43.68089 0.4831493 41.6162 42.37355 0.5317654 42.08801 40.90984 0.6343278 43.36981 39.72263 0.746085 45.56173 39.54913 0.818273 47.47348 39.55242 0.8193935 49.19394 38.88718 0.7489579 51.22568 38.563 0.6376995 53.0766 39.17184 0.5341645 54.63485 40.07125 0.4835296 55.83078 41.18124 0.5078876 56.39634 42.50469 0.5966111 57.2435 43.68813 0.7109865 58.82371 45.02104 1.331404 58.48351 46.55326 1.357947 56.85829 47.68607 1.309331 55.68074 48.75297 1.206769 54.64902 49.95059 1.095012 53.08964 50.83502 1.022824 51.27832 51.53064 1.021703 49.23036 51.84585 1.092139 47.30762 51.13265 1.203397 45.79634 50.19438 1.306932 43.85469 49.91149 1.357567 41.75212 49.34765 1.333209 40.86781 47.94273 1.244485 40.78253 46.41991 1.13011 40.67737 45.02104 1.039989 41.00405 43.65886 1.013445 41.48857 42.31623 1.062062 41.87079 40.76309 1.164624 43.26133 39.59079 1.276381 45.5433 39.46649 1.348569 47.45547 39.37941 1.34969 49.23036 38.68086 1.279254 51.29719 38.45147 1.167996 53.19801 39.04381 1.064461 54.86775 39.89251 1.013825 56.03184 41.08599 1.038184 56.53796 42.46793 1.126907 57.53152 43.64647 1.241283 57.81439 45.02104 1.75564 57.39523 46.36822 1.782184 56.02398 47.3844 1.733568 55.04757 48.36978 1.631005 54.04975 49.3789 1.519248 52.65528 50.13676 1.447061 51.09048 50.84093 1.44594 49.25951 51.10766 1.516375 47.57052 50.38963 1.627634 46.21437 49.60853 1.731169 44.43807 49.40728 1.781804 42.64615 48.84726 1.757446 41.89866 47.59276 1.668722 41.70331 46.27226 1.554347 41.62793 45.02104 1.464226 42.0351 43.82477 1.437682 42.39398 42.62238 1.486298 42.66453 41.20546 1.58886 43.98079 40.21881 1.700618 46.01657 40.13557 1.772806 47.67088 39.97148 1.773926 49.25951 39.36454 1.703491 51.07637 39.24601 1.592232 52.77823 39.7201 1.488698 54.31321 40.4235 1.438062 55.27223 41.54233 1.462421 55.68408 42.77644 1.551144 56.68552 43.79138 1.665519 57.2463 45.02104 3.770765 56.77295 46.24226 3.797309 55.60604 47.19002 3.748693 54.74964 48.11732 3.64613 53.75406 48.98397 3.534373 52.48652 49.67399 3.462185 51.08924 50.39702 3.461064 49.39793 50.60522 3.5315 47.86837 49.88286 3.642759 46.60277 49.23194 3.746293 44.94185 49.0749 3.796928 43.3802 48.50265 3.77257 42.7011 47.36077 3.683847 42.41424 46.17746 3.569471 42.39484 45.02104 3.47935 42.85721 43.93798 3.452807 43.0973 42.81975 3.501423 43.30749 41.49737 3.603985 44.59461 40.65129 3.715742 46.44925 40.57887 3.787931 47.92848 40.35029 3.789051 49.39793 39.83063 3.718615 51.04455 39.78713 3.607357 52.62666 40.15698 3.503822 54.06665 40.77374 3.453187 54.86578 41.85757 3.477545 55.23761 42.98079 3.566268 56.26244 43.88436 3.680644 55.9569 45.02104 4.40712 55.51057 46.02599 4.433664 54.62745 46.83285 4.385047 53.92327 47.61393 4.282485 53.02836 48.28401 4.170728 51.99777 48.87185 4.09854 50.86046 49.53088 4.09742 49.44164 49.65663 4.167855 48.18417 49.01801 4.279113 47.10588 48.53986 4.382648 45.71128 48.41469 4.433284 44.4827 47.89009 4.408925 43.89841 46.95772 4.320202 43.57965 45.99172 4.205826 43.62862 45.02104 4.115705 44.06582 44.13087 4.089162 44.17897 43.18238 4.137778 44.3463 42.07309 4.24034 45.48341 41.4201 4.352097 47.00175 41.34535 4.424285 48.20714 41.09708 4.425406 49.44164 40.71259 4.35497 50.79636 40.71495 4.243712 52.1376 40.95959 4.140177 53.34866 41.46669 4.089542 53.94377 42.4163 4.1139 54.27278 43.33315 4.202624 55.20462 44.06676 4.316999 54.71333 45.02104 5.891948 54.33645 45.81468 5.918492 53.70603 46.47529 5.869876 53.13158 47.09688 5.767313 52.3701 47.59238 5.655557 51.57758 48.08517 5.583369 50.68436 48.64691 5.582248 49.54363 48.69901 5.652684 48.55142 48.17489 5.763942 47.66781 47.84697 5.867477 46.55783 47.73734 5.918112 45.632 47.28415 5.893754 45.1327 46.56213 5.80503 44.82793 45.80191 5.690655 44.93313 45.02104 5.600534 45.30275 44.3188 5.573991 45.32004 43.54541 5.622606 45.467 42.66247 5.725169 46.42134 42.18058 5.836926 47.60225 42.09636 5.909114 48.54969 41.86171 5.910235 49.54363 41.60357 5.839799 50.6133 41.62103 5.72854 51.70629 41.76302 5.625006 52.67012 42.17677 5.574371 53.0915 42.96839 5.598729 53.38754 43.67807 5.687453 54.1805 44.25323 5.801828 52.39413 45.02104 7.376777 52.19321 45.44289 7.403321 51.89365 45.80645 7.354705 51.56926 46.13398 7.252142 51.1409 46.38134 7.140385 50.73619 46.66396 7.068197 50.26109 46.97734 7.067076 49.64563 46.97622 7.137512 49.11857 46.69636 7.248771 48.63187 46.54827 7.352306 48.04498 46.47721 7.402941 47.57413 46.21953 7.378583 47.28083 45.84725 7.289859 47.10002 45.44257 7.175483 47.19623 45.02104 7.085363 47.39327 44.64808 7.058819 47.36488 44.2242 7.107435 47.46061 43.75688 7.209998 47.99213 43.51679 7.321754 48.60458 43.45271 7.393943 49.10868 43.31429 7.395063 49.64563 43.2052 7.324628 50.21412 43.21406 7.213369 50.81281 43.26269 7.109834 51.32152 43.49643 7.059199 51.52256 43.93513 7.083557 51.70714 44.3008 7.172281 52.14908 44.6065 7.286656</float_array>
          <technique_common>
            <accessor source="#positions-array" count="252" stride="3">
              <param name="X" type="float" />
              <param name="Y" type="float" />
              <param name="Z" type="float" />
            </accessor>
          </technique_common>
        </source>
        <source id="normals">
          <float_array id="normals-array" count="1422">0.9283084 -0.04408593 0.3691882 0.9469958 0.03095312 0.3197514 0.5465208 0.7828238 0.2974927 0.5359405 0.797451 0.2771998 0.4881133 0.8404255 0.2354365 0.5284222 0.7967007 0.2933223 0.784967 0.5605209 0.2638997 0.7787293 0.5740174 0.2531495 0.5736161 0.7539405 0.3202158 0.536076 0.7987713 0.2731062 0.2277741 0.9269616 0.2980958 0.253485 0.9112152 0.3247033 0.0932506 0.9583689 0.2698765 0.1268891 0.945212 0.300788 -0.1839651 0.9291651 0.3206384 -0.2284812 0.9311629 0.2841336 -0.4765338 0.8080148 0.3464499 -0.4941264 0.8030691 0.3330451 -0.2772258 0.9200751 0.2767808 -0.2196622 0.9238186 0.3135407 -0.1961552 0.9437078 0.2663432 -0.2044058 0.9437488 0.2599164 -0.6750704 0.5878342 0.4457925 -0.72883 0.550639 0.4069441 -0.8971829 -0.1432544 0.417781 -0.8881021 -0.1079605 0.4467876 -0.9179852 -0.07199929 0.3900246 -0.9030178 -0.01168712 0.4294442 -0.8985786 0.04450677 0.4365498 -0.9197573 -0.03659871 0.3907775 -0.8434646 -0.2938471 0.4496903 -0.8423492 -0.3190335 0.4343565 -0.8244452 -0.4049929 0.3953112 -0.8346453 -0.3189233 0.4490604 -0.66883 -0.6358498 0.385177 -0.6646349 -0.6447411 0.3775836 -0.1551255 -0.9325905 0.3259004 -0.1165985 -0.9541178 0.2757971 0.06192094 -0.9653925 0.2533438 0.03733038 -0.9587593 0.2817571 -0.2871638 -0.9208744 0.2636803 -0.3158754 -0.9019733 0.2943924 -0.2182212 -0.9279604 0.3021076 -0.1835754 -0.9470326 0.2634944 0.293171 -0.8983343 0.3271792 0.3099552 -0.8982961 0.3114352 0.5859656 -0.7632983 0.2720662 0.5287889 -0.7842904 0.3244548 0.6209194 -0.7324607 0.2792138 0.6296976 -0.7277267 0.271836 0.7898538 -0.5130086 0.336085 0.8457518 -0.4522829 0.2830973 0.8268835 -0.4719477 0.3058253 0.7901696 -0.5124998 0.3361189 0.7447 -0.6182205 0.2514466 0.7110882 -0.6454243 0.2788927 0.7557912 0.01870622 0.6545454 0.7823948 0.08947896 0.6163213 0.4713975 0.7117966 0.5207014 0.4699574 0.7164159 0.5156435 0.4757799 0.7375526 0.4792177 0.4988406 0.6838877 0.5324055 0.6678706 0.5169471 0.5354574 0.6585441 0.5534516 0.5099128 0.4497051 0.6912218 0.5656658 0.4256581 0.7339829 0.5292299 0.2275481 0.8184174 0.5276503 0.2560642 0.7880371 0.559847 0.1216027 0.8516596 0.5097928 0.1415487 0.8370878 0.5284391 -0.1844873 0.8137095 0.5512179 -0.2289121 0.8245665 0.517387 -0.4259359 0.7169933 0.5518144 -0.4223062 0.7172919 0.554211 -0.1988578 0.8558462 0.4774755 -0.1480438 0.8498739 0.5057641 -0.1866911 0.8503821 0.4919316 -0.2059417 0.8527585 0.4799906 -0.5929856 0.4275951 0.6822979 -0.6383603 0.3997892 0.6577725 -0.7607516 -0.1087362 0.6398699 -0.7397882 -0.0690903 0.6692832 -0.7709369 -0.02537597 0.6364058 -0.7581343 0.001768524 0.652096 -0.7399178 -0.03546911 0.6717615 -0.7660342 -0.1153873 0.6323586 -0.7018342 -0.2562269 0.6646627 -0.7013695 -0.2517961 0.666843 -0.7311438 -0.2646905 0.6287827 -0.7237421 -0.1867423 0.6643227 -0.5691639 -0.527872 0.6303996 -0.5635972 -0.55053 0.615853 -0.1108472 -0.8379408 0.5343858 -0.08473373 -0.8639324 0.4964283 0.03445195 -0.8873434 0.4598204 0.001197182 -0.8660515 0.4999534 -0.2823802 -0.8278729 0.4846523 -0.2947104 -0.8150136 0.4988974 -0.1477429 -0.8341893 0.5313193 -0.1107406 -0.8631358 0.4926795 0.2825344 -0.7787746 0.5600754 0.2876092 -0.7798011 0.5560497 0.4801924 -0.7019907 0.5259509 0.4263639 -0.706909 0.5643523 0.544571 -0.6354258 0.5474271 0.5707453 -0.6265852 0.5306984 0.7012745 -0.3961859 0.5926642 0.7474411 -0.356972 0.5602703 0.6911413 -0.4689217 0.5499419 0.6360571 -0.511183 0.5780341 0.6341558 -0.5901679 0.499548 0.6121818 -0.6031776 0.5112829 0.9290754 0.1252883 -0.3480255 0.8245882 0.1922999 -0.5320479 0.5432538 0.7892524 -0.2862794 0.5593126 0.7919191 -0.2450175 0.5747361 0.6766688 -0.4602149 0.6519643 0.6891891 -0.316166 0.7548672 0.5471515 -0.3616639 0.685247 0.5452687 -0.4828235 0.5176901 0.8235869 -0.2317361 0.4767148 0.8132807 -0.3336429 0.2868793 0.8809649 -0.3762992 0.3501427 0.9113826 -0.2162911 0.1205811 0.9149413 -0.3851527 0.1295653 0.9228544 -0.3627019 -0.3047595 0.9364207 -0.1738906 -0.3444957 0.8761307 -0.3372205 -0.539775 0.8171719 -0.202171 -0.5288029 0.8349055 -0.1526442 -0.1847587 0.9174222 -0.3524211 -0.1463385 0.9674151 -0.2066229 -0.2189891 0.9439698 -0.2469105 -0.2374874 0.9012515 -0.3624161 -0.8000536 0.5681095 -0.1927846 -0.7926439 0.5191115 -0.3197483 -0.9242246 0.005384943 -0.3818112 -0.9809147 0.06860104 -0.1819347 -0.9058814 0.08148553 -0.4156188 -0.9176488 0.09385778 -0.3861493 -0.9748695 -0.1272836 -0.182834 -0.8895296 -0.2053726 -0.4081166 -0.8962663 -0.3629339 -0.2549229 -0.9227618 -0.3395994 -0.1821617 -0.8491342 -0.3039766 -0.4319366 -0.9357305 -0.2469101 -0.2518807 -0.6323529 -0.7115672 -0.306271 -0.5627293 -0.7081408 -0.426465 -0.07283319 -0.985061 -0.1560452 -0.04479472 -0.967301 -0.2496443 0.001817599 -0.9507038 -0.310095 -0.04484492 -0.9868411 -0.1553499 -0.3532152 -0.8798233 -0.3180408 -0.3596128 -0.8834194 -0.3004145 -0.1646367 -0.9694748 -0.1816956 -0.1219548 -0.9277968 -0.3525905 0.2849249 -0.9148537 -0.2861126 0.2776786 -0.9318799 -0.2334405 0.4345242 -0.7783322 -0.4531972 0.4244636 -0.8531811 -0.303171 0.6376515 -0.6790444 -0.3637296 0.6320805 -0.6066718 -0.4821032 0.8932516 -0.3640389 -0.263775 0.8744669 -0.2955677 -0.3846394 0.7480068 -0.4924546 -0.4449431 0.7530659 -0.6112399 -0.2434697 0.6742158 -0.5968146 -0.4350233 0.676287 -0.6085389 -0.41511 0.3532889 0.06227027 0.9334395 0.3854684 0.1018653 0.917081 0.2779206 0.4354727 0.8562264 0.2708078 0.407168 0.8722828 0.3116335 0.4256226 0.8495469 0.3016648 0.3894926 0.8702263 0.3021194 0.3432568 0.8893248 0.3215616 0.4123586 0.852384 0.1956713 0.4174245 0.8873948 0.1958501 0.4436723 0.8745271 0.1831843 0.478374 0.8588375 0.1889747 0.4213459 0.8869928 0.1063289 0.4985986 0.8602869 0.1058881 0.4998898 0.8595917 -0.1197131 0.4599882 0.879818 -0.1508658 0.488084 0.859659 -0.2267204 0.4599175 0.85853 -0.1846348 0.437231 0.8801926 -0.06605777 0.5965543 0.7998496 -0.0407579 0.5667787 0.8228613 -0.139614 0.4832864 0.8642582 -0.1711087 0.5108618 0.8424619 -0.3321905 0.1502878 0.9311622 -0.3558306 0.1467451 0.9229574 -0.4238876 -0.04420485 0.9046354 -0.3870251 -0.02258539 0.9217925 -0.4073928 -0.02818346 0.912818 -0.4233711 -0.03968653 0.9050867 -0.3638584 -0.1052938 0.9254838 -0.4025001 -0.1570056 0.9018553 -0.3915612 -0.1082182 0.9137662 -0.3694572 -0.07281718 0.9263903 -0.4483208 -0.05139915 0.8923937 -0.420206 -0.01455948 0.9073119 -0.3021128 -0.271233 0.9138712 -0.3083295 -0.3094425 0.8995433 -0.05482024 -0.5067392 0.8603546 -0.05145468 -0.517882 0.8539032 -0.0266984 -0.5758056 0.8171506 -0.05104744 -0.508788 0.859377 -0.169113 -0.5144521 0.8406782 -0.1670206 -0.5333952 0.8292127 -0.004940043 -0.472068 0.8815483 0.01757606 -0.5277206 0.8492362 0.1843156 -0.4376473 0.8800526 0.1727339 -0.426139 0.8880138 0.2469693 -0.4342044 0.8662983 0.2200464 -0.4166974 0.8820107 0.3085998 -0.3192855 0.8960039 0.3577094 -0.3256699 0.8752046 0.3783574 -0.1966413 0.9045318 0.3869531 -0.1939447 0.9014726 0.3598897 -0.3858434 0.8494729 0.2937135 -0.3882427 0.8734987 0.3566518 -0.3909079 0.8485225 0.3581942 -0.3909712 0.8478434 0.912751 0.2780973 0.299245 0.9035075 0.3446696 0.2547099 0.5792824 0.7910993 0.196453 0.6068975 0.7592822 0.2348743 0.6875375 0.7009939 0.1894723 0.7062161 0.6756236 0.2116402 0.6778134 0.6963501 0.2359356 0.6328396 0.751194 0.1876744 0.454661 0.8590093 0.2353432 0.4543665 0.8592395 0.2350713 0.402197 0.894064 0.197198 0.4464862 0.8632102 0.2356233 0.1489438 0.9618251 0.2295828 0.1281104 0.9685218 0.2134322 -0.3603708 0.8906539 0.2772517 -0.3989676 0.8829191 0.2475454 -0.4690824 0.8473925 0.2487721 -0.421007 0.862999 0.2792596 -0.105306 0.9766206 0.1874109 -0.08623009 0.9761882 0.1990501 -0.2910291 0.9197683 0.2633027 -0.3376764 0.9115153 0.2347646 -0.8080612 0.4550184 0.3741595 -0.8100568 0.4528138 0.3725153 -0.9357474 0.1093934 0.3352758 -0.9059973 0.1827278 0.3818108 -0.9341655 0.03066702 0.3555199 -0.9431335 -0.01007275 0.3322614 -0.8752902 -0.3062185 0.3742958 -0.8654399 -0.3775349 0.3293647 -0.9045511 -0.256207 0.3408008 -0.9075257 -0.1783209 0.3802615 -0.9344042 -0.1552074 0.3206235 -0.9332925 -0.1221548 0.337703 -0.5829664 -0.7396236 0.336314 -0.5433949 -0.7886655 0.287626 -0.04775461 -0.9733315 0.2243774 -0.04670601 -0.9736547 0.2231931 -0.09692334 -0.9758362 0.1958305 -0.1483299 -0.9586817 0.2427501 -0.3379068 -0.9116106 0.2340622 -0.3165311 -0.9240871 0.2141753 -0.04712876 -0.9648988 0.2583587 -0.0104623 -0.9740675 0.2260158 0.2741609 -0.9353736 0.22341 0.2359018 -0.9375891 0.2554938 0.4133375 -0.8872526 0.2047803 0.3904138 -0.8932196 0.2230153 0.7330609 -0.6337306 0.2469965 0.7868289 -0.58459 0.1978757 0.9166015 -0.3228462 0.2358219 0.9169707 -0.3221434 0.2353475 0.6904801 -0.7012791 0.1773269 0.6321497 -0.744266 0.2155339 0.7141732 -0.6703888 0.2013342 0.7358286 -0.651534 0.1845528 0.4253628 0.1454581 0.8932572 0.4360949 0.1703442 0.8836312 0.3516595 0.4743735 0.8070349 0.3466836 0.4296863 0.8337746 0.3697955 0.4324709 0.8223261 0.3704347 0.4412893 0.8173383 0.299776 0.4526684 0.8397772 0.2941499 0.5259432 0.7980348 0.2325316 0.5135561 0.8259474 0.2332525 0.5105647 0.8275971 0.2698784 0.5227998 0.8086075 0.2806501 0.4857305 0.8278294 0.1029239 0.5574058 0.8238358 0.09126052 0.5738422 0.8138653 -0.1927758 0.5348954 0.8226326 -0.2015178 0.5392481 0.8176809 -0.2258425 0.5653059 0.7933627 -0.1629229 0.5454469 0.822158 -0.04056661 0.6684934 0.7426109 -0.03243012 0.6636174 0.7473688 -0.1998219 0.509688 0.8368329 -0.2369694 0.5167705 0.8226748 -0.4146889 0.1772757 0.8925281 -0.4167552 0.1763091 0.8917568 -0.4753083 0.03023348 0.8792997 -0.4568275 0.04555822 0.8883879 -0.4575282 -0.06145537 0.8870688 -0.4894382 -0.1050653 0.8656856 -0.4301361 -0.2051739 0.8791397 -0.4445364 -0.2440292 0.86188 -0.4890879 -0.06720295 0.8696417 -0.4646072 -0.01003892 0.88546 -0.5160009 -0.01559293 0.8564461 -0.5078232 0.003044527 0.8614559 -0.3144996 -0.362563 0.8772902 -0.311304 -0.3941042 0.8647379 -0.0546256 -0.6142207 0.7872414 -0.06728465 -0.5888738 0.8054194 -0.09705933 -0.6242902 0.7751395 -0.1204701 -0.5812821 0.8047348 -0.1637096 -0.5718762 0.8038388 -0.1454364 -0.6096867 0.7791858 0.04128892 -0.5575904 0.8290887 0.06734279 -0.5859836 0.8075198 0.1802852 -0.5412973 0.8212761 0.1607632 -0.5286441 0.833481 0.2455183 -0.5053122 0.8272728 0.246262 -0.5055565 0.8269025 0.4019371 -0.3156728 0.8595331 0.450617 -0.3039276 0.8393881 0.4777767 -0.2252345 0.8491165 0.4466001 -0.2435741 0.8609413 0.3726907 -0.5199931 0.7685758 0.3224072 -0.5316366 0.7832089 0.4029531 -0.4135125 0.8164779 0.4184596 -0.4065777 0.8121491 0.7251751 0.3057775 0.616945 0.7252617 0.3240957 0.6074187 0.56577 0.6498241 0.5075756 0.5848342 0.5984031 0.5476154 0.5950054 0.6057849 0.5281981 0.5858352 0.6262845 0.5143586 0.4627579 0.7071803 0.534557 0.4234078 0.7614107 0.4908968 0.3972388 0.759662 0.5148932 0.4130154 0.7416484 0.5285602 0.4343401 0.7503957 0.498252 0.456206 0.7264332 0.5139755 0.1009038 0.8392363 0.5343227 0.07086237 0.8533793 0.5164516 -0.3474731 0.7759135 0.5265175 -0.3509697 0.7757581 0.5244231 -0.3117027 0.8103737 0.4961209 -0.2418043 0.8168956 0.5236528 -0.06408448 0.8936369 0.4441917 -0.06808926 0.8939651 0.4429338 -0.3332691 0.7542289 0.5657477 -0.3777704 0.7419821 0.553852 -0.6692044 0.3573749 0.6514973 -0.654533 0.3717384 0.658329 -0.7437219 0.16883 0.6468185 -0.7285914 0.1932238 0.6571295 -0.7475827 -0.09869473 0.6567948 -0.7645679 -0.1746147 0.6204398 -0.6940876 -0.3594919 0.623705 -0.6925504 -0.3875147 0.6084458 -0.7840248 -0.0618709 0.6176383 -0.7695534 0.02291147 0.6381713 -0.7848019 -0.06136587 0.6167011 -0.7845272 -0.05887869 0.6172928 -0.437809 -0.6574358 0.6132711 -0.4179793 -0.690998 0.5897586 -0.06571039 -0.879468 0.4714002 -0.09196731 -0.8615147 0.4993339 -0.1771149 -0.8577615 0.4825718 -0.2077668 -0.8364683 0.5071032 -0.2285797 -0.8277622 0.5124072 -0.1877671 -0.8549287 0.4835705 0.04455161 -0.8503185 0.5243793 0.06704684 -0.8575666 0.5099846 0.1923042 -0.8386262 0.5096325 0.1584057 -0.8340361 0.5284804 0.3465181 -0.7747494 0.5288558 0.3593334 -0.773093 0.5226918 0.6928398 -0.4486747 0.5645034 0.7394173 -0.4100277 0.5339845 0.7750212 -0.3302511 0.538773 0.7357018 -0.3772202 0.5625369 0.5181222 -0.7281005 0.4487973 0.4774212 -0.7494296 0.4587203 0.6383768 -0.5537357 0.5346511 0.6681076 -0.5254679 0.5267976 0.5285542 0.2236096 0.8189195 0.5283305 0.1997205 0.8252143 0.4436678 0.4791249 0.7573626 0.4462946 0.4695945 0.7617757 0.4105982 0.5047602 0.7593591 0.3696325 0.5906957 0.717252 0.2890936 0.6105739 0.7373089 0.2224454 0.6943856 0.6843585 0.3033252 0.5966502 0.7429687 0.2927871 0.6078237 0.7381234 0.3567285 0.5687089 0.7411578 0.3671203 0.5592248 0.7432969 0.0763441 0.6535403 0.7530317 0.08524553 0.6499815 0.7551538 -0.2537468 0.6352253 0.7294528 -0.1793727 0.6361525 0.7504235 -0.170764 0.6840448 0.7091702 -0.05950102 0.695897 0.7156724 -0.04251695 0.740339 0.6708878 -0.03204994 0.7419174 0.6697248 -0.2919054 0.5544476 0.7793453 -0.3304949 0.5300888 0.7808835 -0.4963803 0.2407773 0.8340461 -0.5182046 0.2107248 0.8288902 -0.5351193 0.08812317 0.8401676 -0.5642559 0.01882833 0.8253852 -0.540776 -0.1679824 0.8242228 -0.5550758 -0.2931262 0.7784394 -0.519483 -0.3036144 0.7987213 -0.5178832 -0.3297788 0.7893307 -0.5952094 0.03715207 0.8027113 -0.5877068 0.1309394 0.7984082 -0.5952837 -0.005750032 0.803495 -0.5981941 0.05294954 0.7996 -0.3413609 -0.4900185 0.8020939 -0.3700166 -0.4377328 0.8194374 -0.09323709 -0.7029681 0.7050835 -0.1556706 -0.6467209 0.7466718 -0.1674092 -0.6724977 0.7209168 -0.1831619 -0.6611308 0.7275697 -0.1222999 -0.6705585 0.7317062 -0.05024149 -0.7044032 0.7080198 0.08782021 -0.6673306 0.7395658 0.1514766 -0.6771875 0.72005 0.1547725 -0.6470081 0.7466097 0.1807352 -0.6459859 0.7416448 0.2860689 -0.5723435 0.7684969 0.3315689 -0.5566368 0.7617201 0.543723 -0.313384 0.7785601 0.5589047 -0.2990675 0.7734237 0.5547767 -0.3270628 0.7650181 0.4701714 -0.4249958 0.7735098 0.3734044 -0.6470038 0.6647972 0.3136564 -0.6953609 0.6466011 0.4874139 -0.4275998 0.7613055 0.476216 -0.4462347 0.7576892 -0.1420181 -0.1293945 0.9813704 -0.6522438 -0.4565012 0.605132 0.5412769 0.8212402 0.1805101 -0.270506 -0.03375487 0.9621263 -0.1647641 -0.1277281 0.9780278 0.1552099 -0.1255328 0.9798732 -0.4539923 0.01298929 0.8909109 0.3301522 0.5790646 0.7454419 0.1115554 0.1785484 0.9775867 0.118543 -0.3059085 0.9446521 -0.04944686 0.6763256 0.7349413 -0.2441965 -0.09603022 0.9649592 0.1804278 -0.1524698 0.9716989 0.1802983 0.278309 0.9434175 -0.08665925 0.2562755 0.9627113 0.1797176 0.6603788 0.7291101 0.07803196 0.0377534 0.9962358 0.2907258 -0.9123917 0.2881316 0.1220408 -0.320059 0.9395043 -0.4121969 -0.2794836 0.8671693 -0.3566025 0.1299973 0.9251677 0.1776924 0.9037811 0.389365 0.1046871 0.03732619 0.9938045 -0.1141704 -0.1854591 0.975997 0.03221364 0.1695244 0.9849994 -0.1453965 -0.1811826 0.9726421</float_array>
          <technique_common>
            <accessor source="#normals-array" count="474" stride="3">
              <param name="X" type="float" />
              <param name="Y" type="float" />
              <param name="Z" type="float" />
            </accessor>
          </technique_common>
        </source>
        <source id="uv">
          <float_array id="uv-array" count="2844">18.00842 -1.291657 18.78808 -1.281039 18.71543 -0.3477184 18.00842 -1.291657 18.71543 -0.3477184 18.00842 -0.3583358 24.27526 -1.281039 23.45621 -1.300486 23.139 -0.3671648 24.27526 -1.281039 23.139 -0.3671648 23.90062 -0.3477184 23.45621 -1.300486 22.69727 -1.341511 22.50374 -0.4081898 23.45621 -1.300486 22.50374 -0.4081898 23.139 -0.3671648 19.81956 -1.341511 20.45631 -1.386213 20.24791 -0.4528925 19.81956 -1.341511 20.24791 -0.4528925 19.6705 -0.4081898 22.25761 -1.386213 21.55481 -1.415089 21.42257 -0.4817678 22.25761 -1.386213 21.42257 -0.4817678 22.09265 -0.4528925 21.55481 -1.415089 20.58412 -1.415537 20.55599 -0.482216 21.55481 -1.415089 20.55599 -0.482216 21.42257 -0.4817678 20.58412 -1.415537 19.56684 -1.387363 19.63095 -0.4540417 20.58412 -1.415537 19.63095 -0.4540417 20.55599 -0.482216 19.56684 -1.387363 18.58678 -1.342859 18.74252 -0.4095384 19.56684 -1.387363 18.74252 -0.4095384 19.63095 -0.4540417 18.58678 -1.342859 17.81351 -1.301445 18.05049 -0.3681245 18.58678 -1.342859 18.05049 -0.3681245 18.74252 -0.4095384 17.81351 -1.301445 16.95456 -1.281191 17.23456 -0.3478704 17.81351 -1.301445 17.23456 -0.3478704 18.05049 -0.3681245 16.95456 -1.281191 15.85098 -1.290935 16.2331 -0.3576137 16.95456 -1.281191 16.2331 -0.3576137 17.23456 -0.3478704 20.15826 -1.290935 19.51158 -1.326424 19.36365 -0.3931031 20.15826 -1.290935 19.36365 -0.3931031 19.97427 -0.3576137 19.51158 -1.326424 18.70299 -1.372174 18.63998 -0.4388532 19.51158 -1.326424 18.63998 -0.4388532 19.36365 -0.3931031 18.70299 -1.372174 18.00842 -1.408222 18.00842 -0.4749016 18.70299 -1.372174 18.00842 -0.4749016 18.63998 -0.4388532 18.00842 -1.408222 17.31377 -1.41884 17.37877 -0.485519 18.00842 -1.408222 17.37877 -0.485519 18.00842 -0.4749016 17.31377 -1.41884 16.62967 -1.399393 16.76468 -0.4660726 17.31377 -1.41884 16.76468 -0.4660726 17.37877 -0.485519 16.62967 -1.399393 15.93427 -1.358369 16.107 -0.4250477 16.62967 -1.399393 16.107 -0.4250477 16.76468 -0.4660726 15.93427 -1.358369 15.31017 -1.313666 15.5411 -0.3803448 15.93427 -1.358369 15.5411 -0.3803448 16.107 -0.4250477 16.60087 -1.313666 17.66497 -1.284791 17.91768 -0.3514696 16.60087 -1.313666 17.91768 -0.3514696 16.91883 -0.3803448 17.66497 -1.284791 18.68608 -1.284342 18.83016 -0.3510214 17.66497 -1.284791 18.83016 -0.3510214 17.91768 -0.3514696 18.68608 -1.284342 19.56684 -1.312517 19.63095 -0.3791956 18.68608 -1.284342 19.63095 -0.3791956 18.83016 -0.3510214 19.56684 -1.312517 20.61893 -1.35702 20.58493 -0.423699 19.56684 -1.312517 20.58493 -0.423699 19.63095 -0.3791956 20.61893 -1.35702 21.58697 -1.398434 21.45421 -0.465113 20.61893 -1.35702 21.45421 -0.465113 20.58493 -0.423699 21.58697 -1.398434 22.30997 -1.418688 22.14641 -0.4853671 21.58697 -1.398434 22.14641 -0.4853671 21.45421 -0.465113 22.30997 -1.418688 22.94431 -1.408945 22.72087 -0.4756237 22.30997 -1.418688 22.72087 -0.4756237 22.14641 -0.4853671 16.05435 -1.408945 16.68954 -1.373455 16.82089 -0.4401343 16.05435 -1.408945 16.82089 -0.4401343 16.22072 -0.4756237 16.68954 -1.373455 17.32598 -1.327705 17.38791 -0.3943841 16.68954 -1.373455 17.38791 -0.3943841 16.82089 -0.4401343 17.32598 -1.327705 18.00842 -1.291657 18.00842 -0.3583358 17.32598 -1.327705 18.00842 -0.3583358 17.38791 -0.3943841 18.00842 -0.3583358 18.71543 -0.3477184 18.61079 0.3310605 18.00842 -0.3583358 18.61079 0.3310605 18.00842 0.320443 23.90062 -0.3477184 23.139 -0.3671648 22.66426 0.311614 23.90062 -0.3477184 22.66426 0.311614 23.31536 0.3310605 23.139 -0.3671648 22.50374 -0.4081898 22.16536 0.2705891 23.139 -0.3671648 22.16536 0.2705891 22.66426 0.311614 19.6705 -0.4081898 20.24791 -0.4528925 19.93251 0.2258862 19.6705 -0.4081898 19.93251 0.2258862 19.44775 0.2705891 22.09265 -0.4528925 21.42257 -0.4817678 21.19762 0.197011 22.09265 -0.4528925 21.19762 0.197011 21.79257 0.2258862 21.42257 -0.4817678 20.55599 -0.482216 20.47226 0.1965628 21.42257 -0.4817678 20.47226 0.1965628 21.19762 0.197011 20.55599 -0.482216 19.63095 -0.4540417 19.67758 0.224737 20.55599 -0.482216 19.67758 0.224737 20.47226 0.1965628 19.63095 -0.4540417 18.74252 -0.4095384 18.92107 0.2692404 19.63095 -0.4540417 18.92107 0.2692404 19.67758 0.224737 18.74252 -0.4095384 18.05049 -0.3681245 18.33262 0.3106544 18.74252 -0.4095384 18.33262 0.3106544 18.92107 0.2692404 18.05049 -0.3681245 17.23456 -0.3478704 17.60328 0.3309085 18.05049 -0.3681245 17.60328 0.3309085 18.33262 0.3106544 17.23456 -0.3478704 16.2331 -0.3576137 16.7589 0.3211652 17.23456 -0.3478704 16.7589 0.3211652 17.60328 0.3309085 16.2331 19.97427 15.75195 19.36365 16.38518 19.15871 16.2331 19.97427 16.38518 19.15871 16.7589 19.69704 19.36365 -0.3931031 18.63998 -0.4388532 18.55106 0.2399256 19.36365 -0.3931031 18.55106 0.2399256 19.15871 0.2856757 18.63998 -0.4388532 18.00842 -0.4749016 18.00842 0.2038772 18.63998 -0.4388532 18.00842 0.2038772 18.55106 0.2399256 18.00842 -0.4749016 17.37877 -0.485519 17.47235 0.1932597 18.00842 -0.4749016 17.47235 0.1932597 18.00842 0.2038772 17.37877 -0.485519 16.76468 -0.4660726 16.94942 0.2127062 17.37877 -0.485519 16.94942 0.2127062 17.47235 0.1932597 16.76468 -0.4660726 16.107 -0.4250477 16.36394 0.2537311 16.76468 -0.4660726 16.36394 0.2537311 16.94942 0.2127062 16.34447 16.107 16.91883 15.5411 17.34793 15.88905 16.34447 16.107 17.34793 15.88905 16.8352 16.36394 16.91883 -0.3803448 17.91768 -0.3514696 18.22469 0.3273092 16.91883 -0.3803448 18.22469 0.3273092 17.34793 0.298434 17.91768 -0.3514696 18.83016 -0.3510214 18.98939 0.3277574 17.91768 -0.3514696 18.98939 0.3277574 18.22469 0.3273092 18.83016 -0.3510214 19.63095 -0.3791956 19.67758 0.2995832 18.83016 -0.3510214 19.67758 0.2995832 18.98939 0.3277574 19.63095 -0.3791956 20.58493 -0.423699 20.49027 0.2550798 19.63095 -0.3791956 20.49027 0.2550798 19.67758 0.2995832 20.58493 -0.423699 21.45421 -0.465113 21.23064 0.2136658 20.58493 -0.423699 21.23064 0.2136658 20.49027 0.2550798 21.45421 -0.465113 22.14641 -0.4853671 21.85394 0.1934118 21.45421 -0.465113 21.85394 0.1934118 21.23064 0.2136658 22.14641 -0.4853671 22.72087 -0.4756237 22.33231 0.203155 22.14641 -0.4853671 22.33231 0.203155 21.85394 0.1934118 16.22072 -0.4756237 16.82089 -0.4401343 17.00187 0.2386445 16.22072 -0.4756237 17.00187 0.2386445 16.4725 0.203155 16.82089 -0.4401343 17.38791 -0.3943841 17.47525 0.2843946 16.82089 -0.4401343 17.47525 0.2843946 17.00187 0.2386445 17.38791 -0.3943841 18.00842 -0.3583358 18.00842 0.320443 17.38791 -0.3943841 18.00842 0.320443 17.47525 0.2843946 18.00842 0.320443 18.61079 0.3310605 18.6213 0.5431787 18.00842 0.320443 18.6213 0.5431787 18.00842 0.5325615 23.31536 0.3310605 22.66426 0.311614 22.74332 0.5237325 23.31536 0.3310605 22.74332 0.5237325 23.3934 0.5431787 22.66426 0.311614 22.16536 0.2705891 22.2723 0.4827075 22.66426 0.311614 22.2723 0.4827075 22.74332 0.5237325 19.44775 0.2705891 19.93251 0.2258862 19.98023 0.4380046 19.44775 0.2705891 19.98023 0.4380046 19.50119 0.4827075 21.79257 0.2258862 21.19762 0.197011 21.23586 0.4091294 21.79257 0.2258862 21.23586 0.4091294 21.85961 0.4380046 21.19762 0.197011 20.47226 0.1965628 20.51133 0.4086812 21.19762 0.197011 20.51133 0.4086812 21.23586 0.4091294 20.47226 0.1965628 19.67758 0.224737 19.69215 0.4368555 20.47226 0.1965628 19.69215 0.4368555 20.51133 0.4086812 19.67758 0.224737 18.92107 0.2692404 18.92305 0.4813588 19.67758 0.224737 18.92305 0.4813588 19.69215 0.4368555 18.92107 0.2692404 18.33262 0.3106544 18.31854 0.5227727 18.92107 0.2692404 18.31854 0.5227727 18.92305 0.4813588 18.33262 0.3106544 17.60328 0.3309085 17.54188 0.5430268 18.33262 0.3106544 17.54188 0.5430268 18.31854 0.5227727 17.60328 0.3309085 16.7589 0.3211652 16.70085 0.5332834 17.60328 0.3309085 16.70085 0.5332834 17.54188 0.5430268 19.69704 0.3211652 19.15871 0.2856757 19.17709 0.497794 19.69704 0.3211652 19.17709 0.497794 19.73906 0.5332834 19.15871 0.2856757 18.55106 0.2399256 18.56796 0.4520439 19.15871 0.2856757 18.56796 0.4520439 19.17709 0.497794 18.55106 0.2399256 18.00842 0.2038772 18.00842 0.4159956 18.55106 0.2399256 18.00842 0.4159956 18.56796 0.4520439 18.00842 0.2038772 17.47235 0.1932597 17.46354 0.4053782 18.00842 0.2038772 17.46354 0.4053782 18.00842 0.4159956 17.47235 0.1932597 16.94942 0.2127062 16.92649 0.4248246 17.47235 0.1932597 16.92649 0.4248246 17.46354 0.4053782 16.94942 0.2127062 16.36394 0.2537311 16.30524 0.4658496 16.94942 0.2127062 16.30524 0.4658496 16.92649 0.4248246 16.8352 0.2537311 17.34793 0.298434 17.30453 0.5105523 16.8352 0.2537311 17.30453 0.5105523 16.74832 0.4658496 17.34793 0.298434 18.22469 0.3273092 18.21732 0.5394275 17.34793 0.298434 18.21732 0.5394275 17.30453 0.5105523 18.22469 0.3273092 18.98939 0.3277574 18.98219 0.5398758 18.22469 0.3273092 18.98219 0.5398758 18.21732 0.5394275 18.98939 0.3277574 19.67758 0.2995832 19.69215 0.5117015 18.98939 0.3277574 19.69215 0.5117015 18.98219 0.5398758 19.67758 0.2995832 20.49027 0.2550798 20.51888 0.4671982 19.67758 0.2995832 20.51888 0.4671982 19.69215 0.5117015 20.49027 0.2550798 21.23064 0.2136658 21.2792 0.4257842 20.49027 0.2550798 21.2792 0.4257842 20.51888 0.4671982 21.23064 0.2136658 21.85394 0.1934118 21.9471 0.4055301 21.23064 0.2136658 21.9471 0.4055301 21.2792 0.4257842 21.85394 0.1934118 22.33231 0.203155 22.41274 0.4152735 16.0285 0.1934118 16.4344 0.4152735 15.957 0.4055301 16.4725 0.203155 17.00187 0.2386445 16.98717 0.4507629 16.4725 0.203155 16.98717 0.4507629 16.4344 0.4152735 17.00187 0.2386445 17.47525 0.2843946 17.45859 0.4965131 17.00187 0.2386445 17.45859 0.4965131 16.98717 0.4507629 17.47525 0.2843946 18.00842 0.320443 18.00842 0.5325615 17.47525 0.2843946 18.00842 0.5325615 17.45859 0.4965131 23.52948 18.00842 23.3934 18.6213 22.95809 18.54729 23.52948 18.00842 22.95809 18.54729 23.12576 18.00842 23.3934 18.6213 22.74332 19.07443 22.40959 18.95376 23.3934 18.6213 22.40959 18.95376 22.95809 18.54729 22.74332 19.07443 22.2723 19.50119 22.01903 19.34791 22.74332 19.07443 22.01903 19.34791 22.40959 18.95376 22.2723 19.50119 21.85961 19.98023 21.6199 19.75156 22.2723 19.50119 21.6199 19.75156 22.01903 19.34791 21.85961 19.98023 21.23586 20.33401 21.06211 20.0547 21.85961 19.98023 21.06211 20.0547 21.6199 19.75156 21.23586 20.33401 20.51133 20.61226 20.43619 20.33637 21.23586 20.33401 20.43619 20.33637 21.06211 20.0547 20.51133 20.61226 19.69215 20.73834 19.7038 20.44306 20.51133 20.61226 19.7038 20.44306 20.43619 20.33637 19.69215 20.73834 18.92305 20.45306 19.02821 20.15585 19.69215 20.73834 19.02821 20.15585 19.7038 20.44306 18.92305 20.45306 18.31854 20.07775 18.48575 19.84341 18.92305 20.45306 18.48575 19.84341 19.02821 20.15585 18.31854 20.07775 17.54188 19.9646 17.77523 19.76291 18.31854 20.07775 17.77523 19.76291 18.48575 19.84341 17.54188 19.9646 16.70085 19.73906 17.05846 19.5389 17.54188 19.9646 17.05846 19.5389 17.77523 19.76291 16.70085 19.73906 16.34713 19.17709 16.75946 19.0371 16.70085 19.73906 16.75946 19.0371 17.05846 19.5389 16.34713 19.17709 16.31301 18.56796 16.68132 18.50891 16.34713 19.17709 16.68132 18.50891 16.75946 19.0371 16.31301 18.56796 16.27095 18.00842 16.65117 18.00842 16.31301 18.56796 16.65117 18.00842 16.68132 18.50891 16.27095 18.00842 16.40162 17.46354 16.81404 17.52991 16.27095 18.00842 16.81404 17.52991 16.65117 18.00842 16.40162 17.46354 16.59543 16.92649 16.95759 17.04895 16.40162 17.46354 16.95759 17.04895 16.81404 17.52991 16.59543 16.92649 16.74832 16.30524 17.06581 16.48218 16.59543 16.92649 17.06581 16.48218 16.95759 17.04895 16.74832 16.30524 17.30453 15.83632 17.59232 16.08752 16.74832 16.30524 17.59232 16.08752 17.06581 16.48218 17.30453 15.83632 18.21732 15.78659 18.40663 16.05423 17.30453 15.83632 18.40663 16.05423 17.59232 16.08752 18.21732 15.78659 18.98219 15.75177 19.06835 15.98859 18.21732 15.78659 19.06835 15.98859 18.40663 16.05423 18.98219 15.75177 19.69215 15.47235 19.7038 15.74582 18.98219 15.75177 19.7038 15.74582 19.06835 15.98859 19.69215 15.47235 20.51888 15.38059 20.43055 15.6984 19.69215 15.47235 20.43055 15.6984 19.7038 15.74582 20.51888 15.38059 21.2792 15.61752 21.11129 15.88804 20.51888 15.38059 21.11129 15.88804 20.43055 15.6984 21.2792 15.61752 21.9471 15.957 21.72529 16.1694 21.2792 15.61752 21.72529 16.1694 21.11129 15.88804 21.9471 15.957 22.41274 16.4344 22.10889 16.61693 21.9471 15.957 22.10889 16.61693 21.72529 16.1694 22.41274 16.4344 22.61518 16.98717 22.27363 17.11058 22.41274 16.4344 22.27363 17.11058 22.10889 16.61693 22.61518 16.98717 23.01261 17.45859 22.67421 17.51655 22.61518 16.98717 22.67421 17.51655 22.27363 17.11058 23.01261 17.45859 23.52948 18.00842 23.12576 18.00842 23.01261 17.45859 23.12576 18.00842 22.67421 17.51655 18.00842 0.7022561 18.54729 0.7128735 18.4969 1.518923 18.00842 0.7022561 18.4969 1.518923 18.00842 1.508306 22.95809 0.7128735 22.40959 0.6934271 22.24242 1.499477 22.95809 0.7128735 22.24242 1.499477 22.70918 1.518923 22.40959 0.6934271 22.01903 0.6524021 21.89986 1.458452 18.95376 0.6934271 19.24693 1.458452 18.87601 1.499477 22.01903 0.6524021 21.6199 0.6076993 21.50162 1.413749 22.01903 0.6524021 21.50162 1.413749 21.89986 1.458452 21.6199 0.6076993 21.06211 0.5788242 20.99461 1.384874 21.6199 0.6076993 20.99461 1.384874 21.50162 1.413749 21.06211 0.5788242 20.43619 0.5783759 20.4357 1.384426 21.06211 0.5788242 20.4357 1.384426 20.99461 1.384874 20.43619 0.5783759 19.7038 0.6065501 19.75917 1.4126 20.43619 0.5783759 19.75917 1.4126 20.4357 1.384426 19.7038 0.6065501 19.02821 0.6510535 19.14735 1.457103 19.7038 0.6065501 19.14735 1.457103 19.75917 1.4126 19.02821 0.6510535 18.48575 0.6924675 18.64111 1.498517 19.02821 0.6510535 18.64111 1.498517 19.14735 1.457103 18.48575 0.6924675 17.77523 0.7127216 17.97674 1.518771 18.48575 0.6924675 17.97674 1.518771 18.64111 1.498517 17.77523 0.7127216 17.05846 0.7029782 17.35208 1.509028 17.77523 0.7127216 17.35208 1.509028 17.97674 1.518771 19.5389 0.7029782 19.0371 0.6674888 18.94431 1.473539 19.5389 0.7029782 18.94431 1.473539 19.40106 1.509028 19.0371 0.6674888 18.50891 0.6217386 18.47099 1.427788 19.0371 0.6674888 18.47099 1.427788 18.94431 1.473539 18.50891 0.6217386 18.00842 0.5856902 18.00842 1.39174 18.50891 0.6217386 18.00842 1.39174 18.47099 1.427788 18.00842 0.5856902 17.52991 0.5750728 17.57519 1.381123 18.00842 0.5856902 17.57519 1.381123 18.00842 1.39174 17.52991 0.5750728 17.04895 0.5945192 17.1279 1.400569 17.52991 0.5750728 17.1279 1.400569 17.57519 1.381123 17.04895 0.5945192 16.48218 0.6355442 16.59895 1.441594 17.04895 0.5945192 16.59895 1.441594 17.1279 1.400569 17.06581 0.6355442 17.59232 0.6802471 17.83784 1.486297 17.06581 0.6355442 17.83784 1.486297 17.323 1.441594 17.59232 0.6802471 18.40663 0.7091223 18.5797 1.515172 17.59232 0.6802471 18.5797 1.515172 17.83784 1.486297 18.40663 0.7091223 19.06835 0.7095705 19.17139 1.51562 18.40663 0.7091223 19.17139 1.51562 18.5797 1.515172 19.06835 0.7095705 19.7038 0.6813962 19.75917 1.487446 19.06835 0.7095705 19.75917 1.487446 19.17139 1.51562 19.7038 0.6813962 20.43055 0.6368929 20.41782 1.442943 19.7038 0.6813962 20.41782 1.442943 19.75917 1.487446 20.43055 0.6368929 21.11129 0.595479 21.05066 1.401529 20.43055 0.6368929 21.05066 1.401529 20.41782 1.442943 21.11129 0.595479 21.72529 0.5752249 21.62666 1.381275 21.11129 0.595479 21.62666 1.381275 21.05066 1.401529 16.1694 0.5752249 16.61693 0.5849683 16.74303 1.391018 16.1694 0.5752249 16.74303 1.391018 16.30949 1.381275 16.61693 0.5849683 17.11058 0.6204575 17.19232 1.426507 16.61693 0.5849683 17.19232 1.426507 16.74303 1.391018 22.27363 0.6204575 22.67421 0.6662077 22.50498 1.472258 22.27363 0.6204575 22.50498 1.472258 22.09504 1.426507 17.51655 0.6662077 18.00842 0.7022561 18.00842 1.508306 17.51655 0.6662077 18.00842 1.508306 17.55374 1.472258 22.89852 18.00842 22.70918 18.4969 22.20423 18.4104 22.89852 18.00842 22.20423 18.4104 22.38276 18.00842 22.70918 18.4969 22.24242 18.87601 21.85098 18.73314 22.70918 18.4969 21.85098 18.73314 22.20423 18.4104 22.24242 18.87601 21.89986 19.24693 21.56931 19.04557 22.24242 18.87601 21.56931 19.04557 21.85098 18.73314 21.89986 19.24693 21.50162 19.59359 21.21134 19.3136 21.89986 19.24693 21.21134 19.3136 21.56931 19.04557 21.50162 19.59359 20.99461 19.8696 20.79911 19.54874 21.50162 19.59359 20.79911 19.54874 21.21134 19.3136 20.99461 19.8696 20.4357 20.15881 20.34419 19.81235 20.99461 19.8696 20.34419 19.81235 20.79911 19.54874 20.4357 20.15881 19.75917 20.24209 19.77666 19.86265 20.4357 20.15881 19.77666 19.86265 20.34419 19.81235 19.75917 20.24209 19.14735 19.95314 19.27367 19.6072 19.75917 20.24209 19.27367 19.6072 19.77666 19.86265 19.14735 19.95314 18.64111 19.69278 18.84235 19.41595 19.14735 19.95314 18.84235 19.41595 19.27367 19.6072 18.64111 19.69278 17.97674 19.62996 18.28451 19.36587 18.64111 19.69278 18.28451 19.36587 18.84235 19.41595 17.97674 19.62996 17.35208 19.40106 17.79308 19.15603 17.97674 19.62996 17.79308 19.15603 18.28451 19.36587 17.35208 19.40106 17.08044 18.94431 17.55937 18.78309 17.35208 19.40106 17.55937 18.78309 17.79308 19.15603 17.08044 18.94431 16.9657 18.47099 17.43186 18.39669 17.08044 18.94431 17.43186 18.39669 17.55937 18.78309 16.9657 18.47099 16.95794 18.00842 17.45145 18.00842 16.9657 18.47099 17.45145 18.00842 17.43186 18.39669 16.95794 18.00842 17.14288 17.57519 17.62633 17.65235 16.95794 18.00842 17.62633 17.65235 17.45145 18.00842 17.14288 17.57519 17.23892 17.1279 17.67159 17.27295 17.14288 17.57519 17.67159 17.27295 17.62633 17.65235 17.23892 17.1279 17.323 16.59895 17.73852 16.82924 17.23892 17.1279 17.73852 16.82924 17.67159 17.27295 17.323 16.59895 17.83784 16.26052 18.19336 16.56804 17.323 16.59895 18.19336 16.56804 17.73852 16.82924 17.83784 16.26052 18.5797 16.23155 18.8007 16.53814 17.83784 16.26052 18.8007 16.53814 18.19336 16.56804 18.5797 16.23155 19.17139 16.14012 19.28286 16.43883 18.5797 16.23155 19.28286 16.43883 18.8007 16.53814 19.17139 16.14012 19.75917 15.93225 19.77666 16.28503 19.17139 16.14012 19.77666 16.28503 19.28286 16.43883 19.75917 15.93225 20.41782 15.91485 20.31854 16.28598 19.75917 15.93225 20.31854 16.28598 19.77666 16.28503 20.41782 15.91485 21.05066 16.06279 20.85504 16.38384 20.41782 15.91485 20.85504 16.38384 20.31854 16.28598 21.05066 16.06279 21.62666 16.30949 21.33946 16.58668 21.05066 16.06279 21.33946 16.58668 20.85504 16.38384 21.62666 16.30949 21.94631 16.74303 21.57751 16.96652 21.62666 16.30949 21.57751 16.96652 21.33946 16.58668 21.94631 16.74303 22.09504 17.19232 21.70911 17.33326 21.94631 16.74303 21.70911 17.33326 21.57751 16.96652 22.09504 17.19232 22.50498 17.55374 22.08185 17.6267 22.09504 17.19232 22.08185 17.6267 21.70911 17.33326 22.50498 17.55374 22.89852 18.00842 22.38276 18.00842 22.50498 17.55374 22.38276 18.00842 22.08185 17.6267 18.00842 1.762848 18.4104 1.773465 18.32587 2.367397 18.00842 1.762848 18.32587 2.367397 18.00842 2.356779 22.20423 1.773465 21.85098 1.754019 21.48241 2.34795 22.20423 1.773465 21.48241 2.34795 21.73458 2.367397 21.85098 1.754019 21.56931 1.712994 21.25263 2.306925 21.85098 1.754019 21.25263 2.306925 21.48241 2.34795 21.56931 1.712994 21.21134 1.668291 20.94804 2.262223 21.56931 1.712994 20.94804 2.262223 21.25263 2.306925 21.21134 1.668291 20.79911 1.639416 20.63103 2.233348 21.21134 1.668291 20.63103 2.233348 20.94804 2.262223 20.79911 1.639416 20.34419 1.638968 20.27374 2.232899 20.79911 1.639416 20.27374 2.232899 20.63103 2.233348 20.34419 1.638968 19.77666 1.667142 19.81745 2.261074 20.34419 1.638968 19.81745 2.261074 20.27374 2.232899 19.77666 1.667142 19.27367 1.711645 19.42057 2.305577 19.77666 1.667142 19.42057 2.305577 19.81745 2.261074 19.27367 1.711645 18.84235 1.753059 19.06712 2.346991 19.27367 1.711645 19.06712 2.346991 19.42057 2.305577 18.84235 1.753059 18.28451 1.773313 18.62313 2.367245 18.84235 1.753059 18.62313 2.367245 19.06712 2.346991 18.28451 1.773313 17.79308 1.76357 18.2528 2.357502 18.28451 1.773313 18.2528 2.357502 18.62313 2.367245 19.15603 1.76357 18.78309 1.728081 18.62485 2.322012 17.79308 19.15603 18.05308 18.62485 18.2528 18.91366 18.78309 1.728081 18.39669 1.68233 18.32076 2.276262 18.78309 1.728081 18.32076 2.276262 18.62485 2.322012 18.39669 1.68233 18.00842 1.646282 18.00842 2.240214 18.39669 1.68233 18.00842 2.240214 18.32076 2.276262 18.00842 1.646282 17.65235 1.635665 17.72752 2.229596 18.00842 1.646282 17.72752 2.229596 18.00842 2.240214 17.65235 1.635665 17.27295 1.655111 17.41817 2.249042 17.65235 1.635665 17.41817 2.249042 17.72752 2.229596 17.27295 1.655111 16.82924 1.696136 17.06499 2.290068 17.27295 1.655111 17.06499 2.290068 17.41817 2.249042 17.73852 1.696136 18.19336 1.740839 18.56854 2.33477 17.73852 1.696136 18.56854 2.33477 18.1868 2.290068 18.19336 1.740839 18.8007 1.769714 19.0409 2.363646 18.19336 1.740839 19.0409 2.363646 18.56854 2.33477 18.8007 1.769714 19.28286 1.770162 19.41988 2.364094 18.8007 1.769714 19.41988 2.364094 19.0409 2.363646 19.28286 1.770162 19.77666 1.741988 19.81745 2.33592 19.28286 1.770162 19.81745 2.33592 19.41988 2.364094 19.77666 1.741988 20.31854 1.697485 20.24532 2.291416 19.77666 1.741988 20.24532 2.291416 19.81745 2.33592 20.31854 1.697485 20.85504 1.656071 20.68252 2.250002 20.31854 1.697485 20.68252 2.250002 20.24532 2.291416 20.85504 1.656071 21.33946 1.635817 21.06805 2.229748 20.85504 1.656071 21.06805 2.229748 20.68252 2.250002 16.58668 1.635817 16.96652 1.64556 17.18736 2.239492 16.58668 1.635817 17.18736 2.239492 16.87071 2.229748 16.96652 1.64556 17.33326 1.68105 17.47123 2.274981 16.96652 1.64556 17.47123 2.274981 17.18736 2.239492 21.70911 1.68105 22.08185 1.7268 21.6722 2.320731 21.70911 1.68105 21.6722 2.320731 21.35502 2.274981 17.6267 1.7268 18.00842 1.762848 18.00842 2.356779 17.6267 1.7268 18.00842 2.356779 17.70129 2.320731 21.88533 18.00842 21.73458 18.32587 20.87728 18.17716 21.88533 18.00842 20.87728 18.17716 20.95765 18.00842 21.73458 18.32587 21.48241 18.59012 20.75746 18.32258 21.73458 18.32587 20.75746 18.32258 20.87728 18.17716 21.48241 18.59012 21.25263 18.83875 20.6277 18.45359 21.48241 18.59012 20.6277 18.45359 20.75746 18.32258 21.25263 18.83875 20.94804 19.03695 20.45636 18.55254 21.25263 2.306925 20.45636 2.856154 20.6277 2.900857 20.94804 19.03695 20.63103 19.23407 20.29447 18.66558 20.94804 19.03695 20.29447 18.66558 20.45636 18.55254 20.63103 19.23407 20.27374 19.45876 20.10444 18.79093 20.63103 19.23407 20.10444 18.79093 20.29447 18.66558 20.27374 19.45876 19.81745 19.4796 19.85825 18.79049 20.27374 19.45876 19.85825 18.79049 20.10444 18.79093 19.81745 19.4796 19.42057 19.26996 19.64743 18.67855 19.81745 19.4796 19.64743 18.67855 19.85825 18.79049 19.42057 19.26996 19.06712 19.13879 19.45275 18.61931 19.42057 19.26996 19.45275 18.61931 19.64743 18.67855 19.06712 2.346991 18.62313 2.367245 19.21799 2.961176 19.06712 2.346991 19.21799 2.961176 19.45275 2.940922 18.62313 19.09494 18.2528 18.91366 19.02965 18.48781 18.62313 19.09494 19.02965 18.48781 19.21799 18.59088 18.2528 18.91366 18.05308 18.62485 18.91233 18.3389 18.2528 18.91366 18.91233 18.3389 19.02965 18.48781 18.05308 18.62485 17.93117 18.32076 18.84001 18.17703 18.05308 18.62485 18.84001 18.17703 18.91233 18.3389 17.93117 18.32076 17.97325 18.00842 18.87849 18.00842 17.93117 18.32076 18.87849 18.00842 18.84001 18.17703 17.97325 18.00842 18.1211 17.72752 18.95731 17.85923 17.97325 18.00842 18.95731 17.85923 18.87849 18.00842 18.1211 17.72752 18.12802 17.41817 18.94595 17.68968 18.1211 17.72752 18.94595 17.68968 18.95731 17.85923 18.12802 17.41817 18.1868 17.06499 18.98424 17.50275 18.12802 17.41817 18.98424 17.50275 18.94595 17.68968 18.1868 17.06499 18.56854 16.87223 19.19685 17.40672 18.1868 17.06499 19.19685 17.40672 18.98424 17.50275 18.56854 16.87223 19.0409 16.83854 19.44183 17.38109 18.56854 16.87223 19.44183 17.38109 19.19685 17.40672 19.0409 16.83854 19.41988 16.74468 19.64347 17.32572 19.0409 16.83854 19.64347 17.32572 19.44183 17.38109 19.41988 16.74468 19.81745 16.64143 19.85825 17.28208 19.41988 16.74468 19.85825 17.28208 19.64347 17.32572 19.81745 16.64143 20.24532 16.64841 20.08565 17.28562 19.81745 16.64143 20.08565 17.28562 19.85825 17.28208 20.24532 16.64841 20.68252 16.70521 20.32512 17.30508 20.24532 16.64841 20.32512 17.30508 20.08565 17.28562 20.68252 16.70521 21.06805 16.87071 20.52861 17.39857 20.68252 16.70521 20.52861 17.39857 20.32512 17.30508 21.06805 16.87071 21.2366 17.18736 20.60903 17.57405 21.06805 16.87071 20.60903 17.57405 20.52861 17.39857 21.2366 17.18736 21.35502 17.47123 20.68285 17.72032 21.2366 17.18736 20.68285 17.72032 20.60903 17.57405 21.35502 17.47123 21.6722 17.70129 20.85963 17.8426 21.35502 2.274981 20.85963 2.914663 20.68285 2.868912 21.6722 17.70129 21.88533 18.00842 20.95765 18.00842 21.6722 17.70129 20.95765 18.00842 20.85963 17.8426 20.85963 17.8426 20.95765 18.00842 20.87728 18.17716 18.17716 2.961328 18.32258 2.941882 18.45359 2.900857 20.45636 2.856154 20.29447 2.827279 20.10444 2.826831 20.87728 18.17716 20.6277 18.45359 20.45636 18.55254 20.68285 17.72032 20.85963 17.8426 20.87728 18.17716 20.32512 17.30508 20.52861 17.39857 20.60903 17.57405 20.60903 17.57405 20.68285 17.72032 20.87728 18.17716 20.87728 18.17716 20.45636 18.55254 20.10444 18.79093 20.10444 18.79093 19.85825 18.79049 19.64743 18.67855 19.45275 18.61931 19.21799 18.59088 19.02965 18.48781 20.10444 18.79093 19.64743 18.67855 19.45275 18.61931 20.60903 17.57405 20.87728 18.17716 20.10444 18.79093 20.08565 17.28562 20.32512 17.30508 20.60903 17.57405 19.64347 17.32572 19.85825 17.28208 20.08565 17.28562 18.98424 17.50275 19.19685 17.40672 19.44183 17.38109 19.44183 17.38109 19.64347 17.32572 20.08565 17.28562 20.08565 17.28562 20.60903 17.57405 20.10444 18.79093 20.10444 2.826831 19.45275 2.940922 19.02965 2.951433 19.02965 18.48781 18.91233 18.3389 18.84001 18.17703 18.84001 18.17703 18.87849 18.00842 18.95731 17.85923 18.95731 17.85923 18.94595 17.68968 18.98424 17.50275 18.98424 2.883999 19.44183 2.957577 20.08565 2.885348 20.08565 17.28562 20.10444 18.79093 19.02965 18.48781 19.02965 18.48781 18.84001 18.17703 18.95731 17.85923 18.95731 17.85923 18.98424 17.50275 20.08565 17.28562 19.02965 18.48781 18.95731 17.85923 20.08565 17.28562</float_array>
          <technique_common>
            <accessor source="#uv-array" count="1422" stride="2">
              <param name="S" type="float" />
              <param name="T" type="float" />
            </accessor>
          </technique_common>
        </source>
        <vertices id="vertices">
          <input semantic="POSITION" source="#positions" />
        </vertices>
        <triangles count="474" material="m0">
          <input semantic="VERTEX" source="#vertices" offset="0" />
          <input semantic="NORMAL" source="#normals" offset="1" />
          <input semantic="TEXCOORD" source="#uv" offset="2" set="0" />
          <p>0 0 0 1 0 1 29 0 2 0 1 3 29 1 4 28 1 5 1 2 6 2 2 7 30 2 8 1 3 9 30 3 10 29 3 11 2 4 12 3 4 13 31 4 14 2 5 15 31 5 16 30 5 17 3 6 18 4 6 19 32 6 20 3 7 21 32 7 22 31 7 23 4 8 24 5 8 25 33 8 26 4 9 27 33 9 28 32 9 29 5 10 30 6 10 31 34 10 32 5 11 33 34 11 34 33 11 35 6 12 36 7 12 37 35 12 38 6 13 39 35 13 40 34 13 41 7 14 42 8 14 43 36 14 44 7 15 45 36 15 46 35 15 47 8 16 48 9 16 49 37 16 50 8 17 51 37 17 52 36 17 53 9 18 54 10 18 55 38 18 56 9 19 57 38 19 58 37 19 59 10 20 60 11 20 61 39 20 62 10 21 63 39 21 64 38 21 65 11 22 66 12 22 67 40 22 68 11 23 69 40 23 70 39 23 71 12 24 72 13 24 73 41 24 74 12 25 75 41 25 76 40 25 77 13 26 78 14 26 79 42 26 80 13 27 81 42 27 82 41 27 83 14 28 84 15 28 85 43 28 86 14 29 87 43 29 88 42 29 89 15 30 90 16 30 91 44 30 92 15 31 93 44 31 94 43 31 95 16 32 96 17 32 97 45 32 98 16 33 99 45 33 100 44 33 101 17 34 102 18 34 103 46 34 104 17 35 105 46 35 106 45 35 107 18 36 108 19 36 109 47 36 110 18 37 111 47 37 112 46 37 113 19 38 114 20 38 115 48 38 116 19 39 117 48 39 118 47 39 119 20 40 120 21 40 121 49 40 122 20 41 123 49 41 124 48 41 125 21 42 126 22 42 127 50 42 128 21 43 129 50 43 130 49 43 131 22 44 132 23 44 133 51 44 134 22 45 135 51 45 136 50 45 137 23 46 138 24 46 139 52 46 140 23 47 141 52 47 142 51 47 143 24 48 144 25 48 145 53 48 146 24 49 147 53 49 148 52 49 149 25 50 150 26 50 151 54 50 152 25 51 153 54 51 154 53 51 155 26 52 156 27 52 157 55 52 158 26 53 159 55 53 160 54 53 161 27 54 162 0 54 163 28 54 164 27 55 165 28 55 166 55 55 167 28 56 168 29 56 169 57 56 170 28 57 171 57 57 172 56 57 173 29 58 174 30 58 175 58 58 176 29 59 177 58 59 178 57 59 179 30 60 180 31 60 181 59 60 182 30 61 183 59 61 184 58 61 185 31 62 186 32 62 187 60 62 188 31 63 189 60 63 190 59 63 191 32 64 192 33 64 193 61 64 194 32 65 195 61 65 196 60 65 197 33 66 198 34 66 199 62 66 200 33 67 201 62 67 202 61 67 203 34 68 204 35 68 205 63 68 206 34 69 207 63 69 208 62 69 209 35 70 210 36 70 211 64 70 212 35 71 213 64 71 214 63 71 215 36 72 216 37 72 217 65 72 218 36 73 219 65 73 220 64 73 221 37 74 222 38 74 223 66 74 224 37 75 225 66 75 226 65 75 227 38 76 228 39 76 229 67 76 230 38 77 231 67 77 232 66 77 233 39 78 234 40 78 235 68 78 236 39 79 237 68 79 238 67 79 239 40 80 240 41 80 241 69 80 242 40 81 243 69 81 244 68 81 245 41 82 246 42 82 247 70 82 248 41 83 249 70 83 250 69 83 251 42 84 252 43 84 253 71 84 254 42 85 255 71 85 256 70 85 257 43 86 258 44 86 259 72 86 260 43 87 261 72 87 262 71 87 263 44 88 264 45 88 265 73 88 266 44 89 267 73 89 268 72 89 269 45 90 270 46 90 271 74 90 272 45 91 273 74 91 274 73 91 275 46 92 276 47 92 277 75 92 278 46 93 279 75 93 280 74 93 281 47 94 282 48 94 283 76 94 284 47 95 285 76 95 286 75 95 287 48 96 288 49 96 289 77 96 290 48 97 291 77 97 292 76 97 293 49 98 294 50 98 295 78 98 296 49 99 297 78 99 298 77 99 299 50 100 300 51 100 301 79 100 302 50 101 303 79 101 304 78 101 305 51 102 306 52 102 307 80 102 308 51 103 309 80 103 310 79 103 311 52 104 312 53 104 313 81 104 314 52 105 315 81 105 316 80 105 317 53 106 318 54 106 319 82 106 320 53 107 321 82 107 322 81 107 323 54 108 324 55 108 325 83 108 326 54 109 327 83 109 328 82 109 329 55 110 330 28 110 331 56 110 332 55 111 333 56 111 334 83 111 335 56 112 336 57 112 337 85 112 338 56 113 339 85 113 340 84 113 341 57 114 342 58 114 343 86 114 344 57 115 345 86 115 346 85 115 347 58 116 348 59 116 349 87 116 350 58 117 351 87 117 352 86 117 353 59 118 354 60 118 355 88 118 356 59 119 357 88 119 358 87 119 359 60 120 360 61 120 361 89 120 362 60 121 363 89 121 364 88 121 365 61 122 366 62 122 367 90 122 368 61 123 369 90 123 370 89 123 371 62 124 372 63 124 373 91 124 374 62 125 375 91 125 376 90 125 377 63 126 378 64 126 379 92 126 380 63 127 381 92 127 382 91 127 383 64 128 384 65 128 385 93 128 386 64 129 387 93 129 388 92 129 389 65 130 390 66 130 391 94 130 392 65 131 393 94 131 394 93 131 395 66 132 396 67 132 397 95 132 398 66 133 399 95 133 400 94 133 401 67 134 402 68 134 403 96 134 404 67 135 405 96 135 406 95 135 407 68 136 408 69 136 409 97 136 410 68 137 411 97 137 412 96 137 413 69 138 414 70 138 415 98 138 416 69 139 417 98 139 418 97 139 419 70 140 420 71 140 421 99 140 422 70 141 423 99 141 424 98 141 425 71 142 426 72 142 427 100 142 428 71 143 429 100 143 430 99 143 431 72 144 432 73 144 433 101 144 434 72 145 435 101 145 436 100 145 437 73 146 438 74 146 439 102 146 440 73 147 441 102 147 442 101 147 443 74 148 444 75 148 445 103 148 446 74 149 447 103 149 448 102 149 449 75 150 450 76 150 451 104 150 452 75 151 453 104 151 454 103 151 455 76 152 456 77 152 457 105 152 458 76 153 459 105 153 460 104 153 461 77 154 462 78 154 463 106 154 464 77 155 465 106 155 466 105 155 467 78 156 468 79 156 469 107 156 470 78 157 471 107 157 472 106 157 473 79 158 474 80 158 475 108 158 476 79 159 477 108 159 478 107 159 479 80 160 480 81 160 481 109 160 482 80 161 483 109 161 484 108 161 485 81 162 486 82 162 487 110 162 488 81 163 489 110 163 490 109 163 491 82 164 492 83 164 493 111 164 494 82 165 495 111 165 496 110 165 497 83 166 498 56 166 499 84 166 500 83 167 501 84 167 502 111 167 503 84 168 504 85 168 505 113 168 506 84 169 507 113 169 508 112 169 509 85 170 510 86 170 511 114 170 512 85 171 513 114 171 514 113 171 515 86 172 516 87 172 517 115 172 518 86 173 519 115 173 520 114 173 521 87 174 522 88 174 523 116 174 524 87 175 525 116 175 526 115 175 527 88 176 528 89 176 529 117 176 530 88 177 531 117 177 532 116 177 533 89 178 534 90 178 535 118 178 536 89 179 537 118 179 538 117 179 539 90 180 540 91 180 541 119 180 542 90 181 543 119 181 544 118 181 545 91 182 546 92 182 547 120 182 548 91 183 549 120 183 550 119 183 551 92 184 552 93 184 553 121 184 554 92 185 555 121 185 556 120 185 557 93 186 558 94 186 559 122 186 560 93 187 561 122 187 562 121 187 563 94 188 564 95 188 565 123 188 566 94 189 567 123 189 568 122 189 569 95 190 570 96 190 571 124 190 572 95 191 573 124 191 574 123 191 575 96 192 576 97 192 577 125 192 578 96 193 579 125 193 580 124 193 581 97 194 582 98 194 583 126 194 584 97 195 585 126 195 586 125 195 587 98 196 588 99 196 589 127 196 590 98 197 591 127 197 592 126 197 593 99 198 594 100 198 595 128 198 596 99 199 597 128 199 598 127 199 599 100 200 600 101 200 601 129 200 602 100 201 603 129 201 604 128 201 605 101 202 606 102 202 607 130 202 608 101 203 609 130 203 610 129 203 611 102 204 612 103 204 613 131 204 614 102 205 615 131 205 616 130 205 617 103 206 618 104 206 619 132 206 620 103 207 621 132 207 622 131 207 623 104 208 624 105 208 625 133 208 626 104 209 627 133 209 628 132 209 629 105 210 630 106 210 631 134 210 632 105 211 633 134 211 634 133 211 635 106 212 636 107 212 637 135 212 638 106 213 639 135 213 640 134 213 641 107 214 642 108 214 643 136 214 644 107 215 645 136 215 646 135 215 647 108 216 648 109 216 649 137 216 650 108 217 651 137 217 652 136 217 653 109 218 654 110 218 655 138 218 656 109 219 657 138 219 658 137 219 659 110 220 660 111 220 661 139 220 662 110 221 663 139 221 664 138 221 665 111 222 666 84 222 667 112 222 668 111 223 669 112 223 670 139 223 671 112 224 672 113 224 673 141 224 674 112 225 675 141 225 676 140 225 677 113 226 678 114 226 679 142 226 680 113 227 681 142 227 682 141 227 683 114 228 684 115 228 685 143 228 686 114 229 687 143 229 688 142 229 689 115 230 690 116 230 691 144 230 692 115 231 693 144 231 694 143 231 695 116 232 696 117 232 697 145 232 698 116 233 699 145 233 700 144 233 701 117 234 702 118 234 703 146 234 704 117 235 705 146 235 706 145 235 707 118 236 708 119 236 709 147 236 710 118 237 711 147 237 712 146 237 713 119 238 714 120 238 715 148 238 716 119 239 717 148 239 718 147 239 719 120 240 720 121 240 721 149 240 722 120 241 723 149 241 724 148 241 725 121 242 726 122 242 727 150 242 728 121 243 729 150 243 730 149 243 731 122 244 732 123 244 733 151 244 734 122 245 735 151 245 736 150 245 737 123 246 738 124 246 739 152 246 740 123 247 741 152 247 742 151 247 743 124 248 744 125 248 745 153 248 746 124 249 747 153 249 748 152 249 749 125 250 750 126 250 751 154 250 752 125 251 753 154 251 754 153 251 755 126 252 756 127 252 757 155 252 758 126 253 759 155 253 760 154 253 761 127 254 762 128 254 763 156 254 764 127 255 765 156 255 766 155 255 767 128 256 768 129 256 769 157 256 770 128 257 771 157 257 772 156 257 773 129 258 774 130 258 775 158 258 776 129 259 777 158 259 778 157 259 779 130 260 780 131 260 781 159 260 782 130 261 783 159 261 784 158 261 785 131 262 786 132 262 787 160 262 788 131 263 789 160 263 790 159 263 791 132 264 792 133 264 793 161 264 794 132 265 795 161 265 796 160 265 797 133 266 798 134 266 799 162 266 800 133 267 801 162 267 802 161 267 803 134 268 804 135 268 805 163 268 806 134 269 807 163 269 808 162 269 809 135 270 810 136 270 811 164 270 812 135 271 813 164 271 814 163 271 815 136 272 816 137 272 817 165 272 818 136 273 819 165 273 820 164 273 821 137 274 822 138 274 823 166 274 824 137 275 825 166 275 826 165 275 827 138 276 828 139 276 829 167 276 830 138 277 831 167 277 832 166 277 833 139 278 834 112 278 835 140 278 836 139 279 837 140 279 838 167 279 839 140 280 840 141 280 841 169 280 842 140 281 843 169 281 844 168 281 845 141 282 846 142 282 847 170 282 848 141 283 849 170 283 850 169 283 851 142 284 852 143 284 853 171 284 854 142 285 855 171 285 856 170 285 857 143 286 858 144 286 859 172 286 860 143 287 861 172 287 862 171 287 863 144 288 864 145 288 865 173 288 866 144 289 867 173 289 868 172 289 869 145 290 870 146 290 871 174 290 872 145 291 873 174 291 874 173 291 875 146 292 876 147 292 877 175 292 878 146 293 879 175 293 880 174 293 881 147 294 882 148 294 883 176 294 884 147 295 885 176 295 886 175 295 887 148 296 888 149 296 889 177 296 890 148 297 891 177 297 892 176 297 893 149 298 894 150 298 895 178 298 896 149 299 897 178 299 898 177 299 899 150 300 900 151 300 901 179 300 902 150 301 903 179 301 904 178 301 905 151 302 906 152 302 907 180 302 908 151 303 909 180 303 910 179 303 911 152 304 912 153 304 913 181 304 914 152 305 915 181 305 916 180 305 917 153 306 918 154 306 919 182 306 920 153 307 921 182 307 922 181 307 923 154 308 924 155 308 925 183 308 926 154 309 927 183 309 928 182 309 929 155 310 930 156 310 931 184 310 932 155 311 933 184 311 934 183 311 935 156 312 936 157 312 937 185 312 938 156 313 939 185 313 940 184 313 941 157 314 942 158 314 943 186 314 944 157 315 945 186 315 946 185 315 947 158 316 948 159 316 949 187 316 950 158 317 951 187 317 952 186 317 953 159 318 954 160 318 955 188 318 956 159 319 957 188 319 958 187 319 959 160 320 960 161 320 961 189 320 962 160 321 963 189 321 964 188 321 965 161 322 966 162 322 967 190 322 968 161 323 969 190 323 970 189 323 971 162 324 972 163 324 973 191 324 974 162 325 975 191 325 976 190 325 977 163 326 978 164 326 979 192 326 980 163 327 981 192 327 982 191 327 983 164 328 984 165 328 985 193 328 986 164 329 987 193 329 988 192 329 989 165 330 990 166 330 991 194 330 992 165 331 993 194 331 994 193 331 995 166 332 996 167 332 997 195 332 998 166 333 999 195 333 1000 194 333 1001 167 334 1002 140 334 1003 168 334 1004 167 335 1005 168 335 1006 195 335 1007 168 336 1008 169 336 1009 197 336 1010 168 337 1011 197 337 1012 196 337 1013 169 338 1014 170 338 1015 198 338 1016 169 339 1017 198 339 1018 197 339 1019 170 340 1020 171 340 1021 199 340 1022 170 341 1023 199 341 1024 198 341 1025 171 342 1026 172 342 1027 200 342 1028 171 343 1029 200 343 1030 199 343 1031 172 344 1032 173 344 1033 201 344 1034 172 345 1035 201 345 1036 200 345 1037 173 346 1038 174 346 1039 202 346 1040 173 347 1041 202 347 1042 201 347 1043 174 348 1044 175 348 1045 203 348 1046 174 349 1047 203 349 1048 202 349 1049 175 350 1050 176 350 1051 204 350 1052 175 351 1053 204 351 1054 203 351 1055 176 352 1056 177 352 1057 205 352 1058 176 353 1059 205 353 1060 204 353 1061 177 354 1062 178 354 1063 206 354 1064 177 355 1065 206 355 1066 205 355 1067 178 356 1068 179 356 1069 207 356 1070 178 357 1071 207 357 1072 206 357 1073 179 358 1074 180 358 1075 208 358 1076 179 359 1077 208 359 1078 207 359 1079 180 360 1080 181 360 1081 209 360 1082 180 361 1083 209 361 1084 208 361 1085 181 362 1086 182 362 1087 210 362 1088 181 363 1089 210 363 1090 209 363 1091 182 364 1092 183 364 1093 211 364 1094 182 365 1095 211 365 1096 210 365 1097 183 366 1098 184 366 1099 212 366 1100 183 367 1101 212 367 1102 211 367 1103 184 368 1104 185 368 1105 213 368 1106 184 369 1107 213 369 1108 212 369 1109 185 370 1110 186 370 1111 214 370 1112 185 371 1113 214 371 1114 213 371 1115 186 372 1116 187 372 1117 215 372 1118 186 373 1119 215 373 1120 214 373 1121 187 374 1122 188 374 1123 216 374 1124 187 375 1125 216 375 1126 215 375 1127 188 376 1128 189 376 1129 217 376 1130 188 377 1131 217 377 1132 216 377 1133 189 378 1134 190 378 1135 218 378 1136 189 379 1137 218 379 1138 217 379 1139 190 380 1140 191 380 1141 219 380 1142 190 381 1143 219 381 1144 218 381 1145 191 382 1146 192 382 1147 220 382 1148 191 383 1149 220 383 1150 219 383 1151 192 384 1152 193 384 1153 221 384 1154 192 385 1155 221 385 1156 220 385 1157 193 386 1158 194 386 1159 222 386 1160 193 387 1161 222 387 1162 221 387 1163 194 388 1164 195 388 1165 223 388 1166 194 389 1167 223 389 1168 222 389 1169 195 390 1170 168 390 1171 196 390 1172 195 391 1173 196 391 1174 223 391 1175 196 392 1176 197 392 1177 225 392 1178 196 393 1179 225 393 1180 224 393 1181 197 394 1182 198 394 1183 226 394 1184 197 395 1185 226 395 1186 225 395 1187 198 396 1188 199 396 1189 227 396 1190 198 397 1191 227 397 1192 226 397 1193 199 398 1194 200 398 1195 228 398 1196 199 399 1197 228 399 1198 227 399 1199 200 400 1200 201 400 1201 229 400 1202 200 401 1203 229 401 1204 228 401 1205 201 402 1206 202 402 1207 230 402 1208 201 403 1209 230 403 1210 229 403 1211 202 404 1212 203 404 1213 231 404 1214 202 405 1215 231 405 1216 230 405 1217 203 406 1218 204 406 1219 232 406 1220 203 407 1221 232 407 1222 231 407 1223 204 408 1224 205 408 1225 233 408 1226 204 409 1227 233 409 1228 232 409 1229 205 410 1230 206 410 1231 234 410 1232 205 411 1233 234 411 1234 233 411 1235 206 412 1236 207 412 1237 235 412 1238 206 413 1239 235 413 1240 234 413 1241 207 414 1242 208 414 1243 236 414 1244 207 415 1245 236 415 1246 235 415 1247 208 416 1248 209 416 1249 237 416 1250 208 417 1251 237 417 1252 236 417 1253 209 418 1254 210 418 1255 238 418 1256 209 419 1257 238 419 1258 237 419 1259 210 420 1260 211 420 1261 239 420 1262 210 421 1263 239 421 1264 238 421 1265 211 422 1266 212 422 1267 240 422 1268 211 423 1269 240 423 1270 239 423 1271 212 424 1272 213 424 1273 241 424 1274 212 425 1275 241 425 1276 240 425 1277 213 426 1278 214 426 1279 242 426 1280 213 427 1281 242 427 1282 241 427 1283 214 428 1284 215 428 1285 243 428 1286 214 429 1287 243 429 1288 242 429 1289 215 430 1290 216 430 1291 244 430 1292 215 431 1293 244 431 1294 243 431 1295 216 432 1296 217 432 1297 245 432 1298 216 433 1299 245 433 1300 244 433 1301 217 434 1302 218 434 1303 246 434 1304 217 435 1305 246 435 1306 245 435 1307 218 436 1308 219 436 1309 247 436 1310 218 437 1311 247 437 1312 246 437 1313 219 438 1314 220 438 1315 248 438 1316 219 439 1317 248 439 1318 247 439 1319 220 440 1320 221 440 1321 249 440 1322 220 441 1323 249 441 1324 248 441 1325 221 442 1326 222 442 1327 250 442 1328 221 443 1329 250 443 1330 249 443 1331 222 444 1332 223 444 1333 251 444 1334 222 445 1335 251 445 1336 250 445 1337 223 446 1338 196 446 1339 224 446 1340 223 447 1341 224 447 1342 251 447 1343 251 448 1344 224 448 1345 225 448 1346 225 449 1347 226 449 1348 227 449 1349 228 450 1350 229 450 1351 230 450 1352 225 451 1353 227 451 1354 228 451 1355 250 452 1356 251 452 1357 225 452 1358 247 453 1359 248 453 1360 249 453 1361 249 454 1362 250 454 1363 225 454 1364 225 455 1365 228 455 1366 230 455 1367 230 456 1368 231 456 1369 232 456 1370 233 457 1371 234 457 1372 235 457 1373 230 458 1374 232 458 1375 233 458 1376 249 459 1377 225 459 1378 230 459 1379 246 460 1380 247 460 1381 249 460 1382 244 461 1383 245 461 1384 246 461 1385 241 462 1386 242 462 1387 243 462 1388 243 463 1389 244 463 1390 246 463 1391 246 464 1392 249 464 1393 230 464 1394 230 465 1395 233 465 1396 235 465 1397 235 466 1398 236 466 1399 237 466 1400 237 467 1401 238 467 1402 239 467 1403 239 468 1404 240 468 1405 241 468 1406 241 469 1407 243 469 1408 246 469 1409 246 470 1410 230 470 1411 235 470 1412 235 471 1413 237 471 1414 239 471 1415 239 472 1416 241 472 1417 246 472 1418 235 473 1419 239 473 1420 246 473 1421</p>
        </triangles>
      </mesh>
    </geometry>
  </library_geometries>
  <library_visual_scenes>
    <visual_scene id="Scene">
      <node id="Node" type="NODE">
        <instance_geometry url="#geometry">
          <bind_material>
            <technique_common>
              <instance_material symbol="m0" target="#m0">
                <bind_vertex_input semantic="UVSET0" input_semantic="TEXCOORD" input_set="0" />
              </instance_material>
            </technique_common>
          </bind_material>
        </instance_geometry>
      </node>
    </visual_scene>
  </library_visual_scenes>
  <scene>
    <instance_visual_scene url="#Scene" />
  </scene>
</COLLADA>