<?xml version='1.0' encoding='utf-8'?>
<COLLADA xmlns="http://www.collada.org/2005/11/COLLADASchema" version="1.4.1">
  <asset>
    <created>2026-09-08T00:00:00Z</created>
    <modified>2026-09-08T00:00:00Z</modified>
    <unit name="meter" meter="1" />
    <up_axis>Z_UP</up_axis>
  </asset>
  <library_images>
    <image id="img0">
      <init_from>../materials/textures/sandstone.png</init_from>
    </image>
  </library_images>
  <library_effects>
    <effect id="e0">
      <profile_COMMON>
        <newparam sid="surf0">
          <surface type="2D">
            <init_from>img0</init_from>
          </surface>
        </newparam>
        <newparam sid="samp0">
          <sampler2D>
            <source>surf0</source>
            <wrap_s>WRAP</wrap_s>
            <wrap_t>WRAP</wrap_t>
          </sampler2D>
        </newparam>
        <technique sid="common">
          <phong>
            <ambient>
              <color>0.2205 0.1665 0.108 1</color>
            </ambient>
            <diffuse>
              <texture texture="samp0" texcoord="UVSET0" />
            </diffuse>
            <specular>
              <color>0.02 0.02 0.02 1</color>
            </specular>
            <shininess>
              <float>8</float>
            </shininess>
          </phong>
        </technique>
      </profile_COMMON>
    </effect>
  </library_effects>
  <library_materials>
    <material id="m0" name="m0">
      <instance_effect url="#e0" />
    </material>
  </library_materials>
  <library_geometries>
    <geometry id="geometry" name="2062_northeast_sandstone_hill">
      <mesh>
        <source id="positions">
          <float_array id="positions-array" count="756">43.59785 60.3888 -3.505238 43.05453 61.79901 -3.617451 41.95088 62.99341 -3.691363 41.31838 64.35004 -3.694725 40.53974 65.93632 -3.626069 38.50393 66.62598 -3.515352 36.15522 66.3694 -3.410884 34.19868 66.43223 -3.358249 32.13766 66.68874 -3.380413 30.07845 66.35793 -3.467705 28.14969 65.6808 -3.582036 26.54058 64.64959 -3.67352 26.08849 63.11368 -3.702239 26.03985 61.68801 -3.655661 24.98338 60.3888 -3.55411 24.28752 58.81055 -3.441897 25.43451 57.4442 -3.367985 27.16324 56.47445 -3.364623 28.61622 55.50496 -3.433279 30.30477 54.74756 -3.543996 32.15445 54.1402 -3.648464 34.19868 53.44539 -3.701099 36.42111 53.59548 -3.678935 38.03232 54.83487 -3.591643 39.43803 55.80512 -3.477312 41.4922 56.33086 -3.385828 43.11423 57.39334 -3.357109 43.56837 58.89678 -3.403687 42.86641 60.3888 -1.695738 42.2528 61.66706 -1.807951 41.21413 62.73684 -1.881864 40.75528 64.02179 -1.885225 40.02352 65.46119 -1.816569 38.1066 66.01141 -1.705852 36.00455 65.82667 -1.601385 34.22556 65.94944 -1.548749 32.35724 66.09971 -1.570913 30.5079 65.7747 -1.658205 28.68047 65.23996 -1.772537 27.22208 64.28538 -1.864021 26.92157 62.84281 -1.892739 26.80745 61.57006 -1.846161 25.75204 60.3888 -1.74461 25.23799 58.95763 -1.632398 26.3161 57.73137 -1.558485 27.77251 56.79848 -1.555123 29.11792 55.92036 -1.62378 30.71884 55.30849 -1.734497 32.36678 54.70705 -1.838964 34.22556 54.00918 -1.891599 36.24076 54.22892 -1.869435 37.68242 55.38073 -1.782143 39.03388 56.18221 -1.667812 40.89727 56.67682 -1.576328 42.26243 57.68856 -1.54761 42.74556 59.03208 -1.594188 41.71993 60.3888 -0.3797387 41.07937 61.47709 -0.4919514 40.19272 62.3871 -0.5658641 39.89554 63.53257 -0.5692257 39.22527 64.74573 -0.5005693 37.53876 65.16045 -0.3898525 35.77373 65.06138 -0.2853848 34.24511 65.20277 -0.2327497 32.65424 65.25161 -0.2549135 31.07906 64.97557 -0.3422057 29.44949 64.58428 -0.456537 28.22898 63.73604 -0.5480208 28.05297 62.46925 -0.5767392 27.87016 61.40395 -0.5301613 26.91371 60.3888 -0.4286108 26.58771 59.16944 -0.3163978 27.50817 58.12531 -0.2424851 28.6604 57.2816 -0.2391236 29.85665 56.54954 -0.30778 31.27229 56.08199 -0.418497 32.64809 55.50718 -0.5229644 34.24511 54.87285 -0.5755995 35.96187 55.14115 -0.5534358 37.18761 56.12589 -0.4661437 38.40921 56.74581 -0.3518123 39.97686 57.19979 -0.2603285 41.06543 58.09729 -0.2316101 41.56452 59.22326 -0.278188 41.97469 60.3888 0.03151133 41.19789 61.49499 -0.08070161 40.32582 62.42976 -0.1546143 40.10676 63.64669 -0.1579757 39.35535 64.85419 -0.08931945 37.59705 65.23604 0.02139756 35.82774 65.20777 0.1258652 34.25122 65.36597 0.1785003 32.6339 65.33247 0.1563361 31.01627 65.07539 0.06904431 29.2846 64.73388 -0.04528712 28.0855 63.81926 -0.1367709 27.96732 62.50008 -0.1654893 27.67471 61.43604 -0.1189112 26.67484 60.3888 -0.01736073 26.4603 59.14818 0.09485221 27.36704 58.07584 0.1687647 28.46308 57.16842 0.172126 29.75396 56.45435 0.1034698 31.23445 56.01831 -0.007246962 32.60455 55.35543 -0.1117146 34.25122 54.69165 -0.1643497 35.99766 55.05043 -0.1421857 37.25689 56.03438 -0.05489371 38.57012 56.61038 0.05943751 40.12526 57.12062 0.1509213 41.1794 58.06105 0.1796397 41.79641 59.18731 0.1330618 41.14508 60.3888 0.3605114 40.35682 61.36028 0.2482984 39.64283 62.19865 0.1743859 39.50632 63.3099 0.1710242 38.77017 64.33796 0.2396804 37.2008 64.6549 0.3503976 35.66657 64.7002 0.4548648 34.2561 64.83003 0.5075003 32.83545 64.73134 0.4853362 31.38724 64.54502 0.3980443 29.80563 64.28233 0.2837127 28.80392 63.42227 0.1922289 28.73051 62.2453 0.1635105 28.36993 61.32612 0.2100888 27.49768 60.3888 0.3116393 27.40612 59.29802 0.4238522 28.15088 58.33756 0.4977647 29.06571 57.50099 0.5011261 30.28065 56.91085 0.4324699 31.60346 56.54582 0.3217531 32.78338 55.88712 0.2172854 34.2561 55.30859 0.1646503 35.79136 55.69597 0.1868141 36.92148 56.52737 0.2741063 38.13173 56.99818 0.3884375 39.44943 57.49935 0.4799213 40.35351 58.34018 0.5086398 41.00199 59.31459 0.4620619 40.59999 60.3888 1.923261 39.80278 61.26836 1.811048 39.22372 62.05004 1.737135 39.13035 63.08781 1.733774 38.3872 63.98261 1.80243 36.95812 64.26969 1.913147 35.5833 64.3747 2.017615 34.27932 64.46439 2.07025 32.9928 64.32132 2.048086 31.64669 64.20278 1.960794 30.16945 63.98434 1.846463 29.31887 63.14868 1.754979 29.25606 62.07653 1.72626 28.83488 61.25577 1.772838 28.07817 60.3888 1.874389 28.0699 59.40002 1.986602 28.67714 58.50657 2.060514 29.48305 57.72027 2.063876 30.66453 57.22639 1.995219 31.86788 56.89527 1.884503 32.91834 56.2287 1.780035 34.27932 55.72823 1.7274 35.67075 56.13559 1.749564 36.72566 56.8447 1.836856 37.86292 57.25367 1.951187 39.00279 57.76077 2.042671 39.82606 58.5252 2.071389 40.51082 59.3965 2.024811 39.53351 60.3888 2.416761 38.82646 61.11172 2.304548 38.41817 61.77692 2.230636 38.34674 62.64775 2.227274 37.67218 63.35066 2.29593 36.50388 63.60099 2.406647 35.38153 63.73555 2.511114 34.28665 63.77177 2.56375 33.22901 63.62169 2.541586 32.08805 63.57399 2.454294 30.84837 63.3968 2.339962 30.19972 62.66267 2.248478 30.13059 61.78517 2.21976 29.71286 61.11713 2.266338 29.13908 60.3888 2.367889 29.17697 59.57514 2.480102 29.60867 58.81708 2.554014 30.27205 58.15517 2.557376 31.31076 57.78533 2.488719 32.29154 57.49842 2.378003 33.14442 56.89733 2.273535 34.28665 56.51985 2.2209 35.43144 56.88949 2.243064 36.33048 57.42782 2.330356 37.28772 57.76329 2.444687 38.1767 58.22447 2.536171 38.8776 58.84632 2.564889 39.5143 59.55636 2.518311 38.46631 60.3888 3.568261 37.88519 60.95911 3.456048 37.62145 61.50349 3.382135 37.55301 62.19662 3.378773 36.97466 62.72546 3.44743 36.06806 62.94482 3.558147 35.18481 63.08194 3.662615 34.30375 63.07184 3.715249 33.46923 62.9397 3.693085 32.53964 62.94454 3.605794 31.55293 62.79538 3.491462 31.08068 62.18205 3.399978 30.99692 61.49984 3.37126 30.62134 60.97519 3.417838 30.22026 60.3888 3.519389 30.26854 59.74624 3.631601 30.55091 59.12792 3.705514 31.09073 58.60115 3.708876 31.95905 58.33752 3.64022 32.71632 58.08903 3.529502 33.38499 57.58042 3.425035 34.30375 57.31878 3.3724 35.20768 57.62575 3.394563 35.94463 58.0116 3.481856 36.70643 58.2868 3.596187 37.37006 58.68278 3.687671 37.95689 59.16142 3.716389 38.50684 59.71951 3.669811 36.53328 60.3888 4.71976 36.223 60.6917 4.607548 36.11367 60.99116 4.533634 36.06263 61.35788 4.530273 35.73552 61.62643 4.598929 35.26678 61.75919 4.709647 34.7966 61.843 4.814114 34.32086 61.8141 4.866749 33.87757 61.74381 4.844585 33.36848 61.76854 4.757293 32.84646 61.67869 4.642962 32.61439 61.33824 4.551478 32.54748 60.98463 4.522759 32.33158 60.70557 4.569338 32.15073 60.3888 4.670888 32.17599 60.04726 4.783101 32.29529 59.70825 4.857014 32.59847 59.43051 4.860375 33.08067 59.30382 4.791719 33.46955 59.15548 4.681002 33.82495 58.87297 4.576534 34.32086 58.75651 4.5239 34.80127 58.92032 4.546063 35.20732 59.10456 4.633355 35.60904 59.26183 4.747687 35.94347 59.48602 4.83917 36.27947 59.73075 4.867889 36.58863 60.02768 4.821311</float_array>
          <technique_common>
            <accessor source="#positions-array" count="252" stride="3">
              <param name="X" type="float" />
              <param name="Y" type="float" />
              <param name="Z" type="float" />
            </accessor>
          </technique_common>
        </source>
        <source id="normals">
          <float_array id="normals-array" count="1422">0.8440951 0.3570429 0.4000297 0.8364865 0.4312302 0.3381285 0.672397 0.6438988 0.3650707 0.6622689 0.6666378 0.3420438 0.852784 0.398433 0.3376545 0.8644806 0.3097381 0.3958985 0.8477146 0.4010812 0.3471509 0.8453437 0.4136252 0.338095 0.3163366 0.8749402 0.3666208 0.278516 0.906446 0.3174656 -0.09200962 0.9558626 0.2790357 -0.06814052 0.9491384 0.3073974 0.03792764 0.9656455 0.2570803 0.074447 0.9534624 0.2921764 0.114891 0.948611 0.2948513 0.07448133 0.9637918 0.2560427 -0.1632415 0.9270484 0.3375403 -0.1785665 0.9290223 0.3240856 -0.3310179 0.8898855 0.3138965 -0.2829713 0.8912444 0.3544161 -0.5190955 0.7787552 0.3522502 -0.5292172 0.7755454 0.3441781 -0.8657289 0.2466794 0.4355028 -0.9076691 0.1815439 0.3783895 -0.9186583 0.04416797 0.3925763 -0.8985866 0.09624423 0.4281112 -0.7260918 0.6145393 0.3084351 -0.6884397 0.64381 0.3340051 -0.8267836 0.3931412 0.4023293 -0.865651 0.3397525 0.3677181 -0.7021527 -0.5660604 0.4319227 -0.6960696 -0.587059 0.4133387 -0.4662802 -0.8301544 0.3056574 -0.5019747 -0.7823471 0.3687201 -0.51427 -0.7937439 0.3248029 -0.5075155 -0.8021828 0.3145327 -0.3640204 -0.8628159 0.3507674 -0.3230947 -0.8989048 0.2959392 -0.2797109 -0.9063309 0.316743 -0.3024738 -0.8886491 0.3446918 -0.3015516 -0.9090078 0.2877002 -0.3254473 -0.8907573 0.317231 0.06015467 -0.9402462 0.3351394 0.1003821 -0.9503322 0.2946051 0.5626145 -0.7551033 0.3365768 0.5794393 -0.7495125 0.3201268 0.5287396 -0.7996025 0.2847284 0.4590587 -0.8221041 0.3367638 0.2290826 -0.939432 0.2549289 0.2370688 -0.9391307 0.2486604 0.5054972 -0.7815997 0.3654784 0.5577825 -0.761966 0.3290691 0.8739319 -0.2510911 0.4161686 0.8470769 -0.2891493 0.4459299 0.927096 0.007187653 0.3747551 0.9077774 -0.04968635 0.416499 0.6641521 0.375566 0.6464149 0.6712729 0.4554108 0.5848023 0.559084 0.5835174 0.5890097 0.5578895 0.5909003 0.5827487 0.7563461 0.2716449 0.5951048 0.7487097 0.1961029 0.6332279 0.714451 0.3338803 0.6148851 0.7138861 0.3604395 0.6003748 0.2525576 0.7591804 0.5998831 0.23137 0.7889341 0.5692547 -0.0516043 0.8672141 0.4952541 -0.01543941 0.8426592 0.5382259 0.07442711 0.8678183 0.4912759 0.09655721 0.8529675 0.5129553 0.0616873 0.8452485 0.5308009 0.01983013 0.8697119 0.4931613 -0.1686814 0.8083221 0.5640584 -0.1729681 0.8096638 0.5608266 -0.2660728 0.7916932 0.5499337 -0.2288592 0.7848266 0.5759085 -0.4576102 0.6399726 0.6172747 -0.4862285 0.6348607 0.6004446 -0.7310817 0.1389937 0.6679822 -0.7716547 0.09295141 0.6292131 -0.7689787 0.09210584 0.6326044 -0.7272028 0.1540341 0.6689168 -0.6064671 0.5878794 0.5353462 -0.5818439 0.6028218 0.545952 -0.6897519 0.29943 0.6592299 -0.7253383 0.2528426 0.6402773 -0.5798077 -0.469627 0.6657879 -0.5800358 -0.4639358 0.6695685 -0.4482792 -0.6978342 0.5586351 -0.4675253 -0.6360434 0.6138965 -0.4268987 -0.6989366 0.5737988 -0.4140645 -0.7278748 0.5465793 -0.2592329 -0.7810624 0.568102 -0.2304148 -0.8212466 0.5219799 -0.2577006 -0.8001707 0.5415878 -0.279153 -0.771943 0.5711196 -0.2851471 -0.7993785 0.5288527 -0.2948244 -0.7872107 0.5416437 0.08204109 -0.8108572 0.5794651 0.1227895 -0.8305452 0.543247 0.495471 -0.66271 0.5615372 0.4924388 -0.6629533 0.5639121 0.4044113 -0.7554543 0.5155 0.3340256 -0.7608256 0.5563914 0.202816 -0.8530301 0.4808381 0.2200227 -0.8545708 0.470424 0.4602067 -0.6384754 0.6168946 0.5001682 -0.6257978 0.5985055 0.7071589 -0.2311286 0.6682109 0.6697307 -0.268218 0.6924738 0.7538788 -0.01799358 0.6567671 0.7407148 -0.04033415 0.6706077 0.8429985 0.4690344 -0.2633634 0.7468963 0.4775639 -0.4626862 0.6965248 0.6548163 -0.2933749 0.7198111 0.6528709 -0.2358635 0.8425102 0.2171334 -0.4929804 0.9328329 0.1670391 -0.3192504 0.8018632 0.4643064 -0.3760784 0.720865 0.4771646 -0.5026605 0.2208348 0.9531978 -0.2065091 0.1837837 0.9345817 -0.3045992 -0.07220244 0.9425921 -0.3260474 -0.02617714 0.983839 -0.1771314 0.07300957 0.9266354 -0.368804 0.08238757 0.9354236 -0.3437948 0.03278176 0.9809928 -0.191255 -0.01420025 0.9294669 -0.368632 -0.1531693 0.9547051 -0.2551028 -0.1434398 0.9697006 -0.1977519 -0.1871569 0.8966587 -0.4012175 -0.1706349 0.9512469 -0.25693 -0.5194113 0.7840219 -0.3398846 -0.513258 0.7196735 -0.4675856 -0.9673276 0.1392069 -0.2118931 -0.9343663 0.09120413 -0.3444436 -0.8909591 0.1339172 -0.4338871 -0.9439536 0.2501585 -0.2153422 -0.68697 0.6073404 -0.3990112 -0.6882527 0.6207049 -0.3755445 -0.9341147 0.2241717 -0.2778072 -0.860072 0.1035488 -0.4995536 -0.7001434 -0.6396702 -0.3172085 -0.7287788 -0.6340574 -0.2585589 -0.5264472 -0.7207544 -0.4509616 -0.6083449 -0.7358944 -0.2972811 -0.5087977 -0.8020898 -0.312693 -0.4539779 -0.7791384 -0.4322585 -0.3210695 -0.9309907 -0.173697 -0.2903778 -0.9137946 -0.2840073 -0.3832052 -0.8526395 -0.3551896 -0.4395545 -0.880643 -0.1768046 -0.3531154 -0.8580872 -0.3728214 -0.359105 -0.8626027 -0.3563147 0.1532742 -0.9620922 -0.2255784 0.1894317 -0.897504 -0.3982489 0.6148388 -0.7415157 -0.268566 0.6099558 -0.7610057 -0.2209621 0.4400262 -0.7875068 -0.4315206 0.4066382 -0.8748649 -0.2631668 0.2821149 -0.9180561 -0.2785394 0.3065605 -0.8619487 -0.4038132 0.6215902 -0.7463011 -0.2380341 0.6266984 -0.6915001 -0.3592724 0.7942863 -0.3719457 -0.4803808 0.8386552 -0.4707761 -0.2739112 0.839525 -0.1572495 -0.5200677 0.8522731 -0.1683234 -0.4952754 0.3041383 0.3051226 0.9024412 0.3415063 0.3765698 0.8611438 0.3055306 0.3548971 0.8835718 0.2970586 0.331918 0.8953137 0.443034 0.08221719 0.8927268 0.4184141 0.05414529 0.906641 0.3620958 0.1732506 0.9158989 0.3768252 0.2095737 0.9022647 0.1457813 0.4102505 0.9002457 0.1460779 0.4085966 0.9009495 0.04132012 0.5341771 0.8443621 0.07387205 0.4526903 0.8886025 0.0807293 0.5219933 0.8491206 0.07989242 0.5241882 0.8478467 -0.0218856 0.4743284 0.8800759 -0.04956055 0.5221953 0.8513847 -0.1207001 0.4609503 0.8791793 -0.1111281 0.4481971 0.8870005 -0.1491674 0.4640589 0.8731543 -0.1385488 0.4502652 0.8820802 -0.2748184 0.2679351 0.9234098 -0.3250138 0.2825471 0.9025149 -0.3915847 0.01505163 0.920019 -0.4146915 0.003662439 0.9099547 -0.4033538 0.1504324 0.9025939 -0.3382937 0.1795158 0.9237594 -0.3392545 0.406186 0.8484806 -0.3376171 0.4061789 0.8491368 -0.3453502 0.1436059 0.9274215 -0.368317 0.1256786 0.9211664 -0.3193423 -0.2062761 0.9249166 -0.3013361 -0.1613414 0.9397689 -0.2925865 -0.3501062 0.889842 -0.2808468 -0.3034642 0.9105133 -0.1869579 -0.4232199 0.8865279 -0.1914197 -0.492832 0.848808 -0.07852967 -0.4874349 0.8696208 -0.07405218 -0.5254337 0.8476058 -0.1655288 -0.478068 0.862584 -0.1651682 -0.4361598 0.8845813 -0.1590094 -0.4635865 0.8716671 -0.1579729 -0.4806115 0.8625875 0.07754153 -0.432933 0.8980848 0.10557 -0.4685756 0.8770929 0.2584341 -0.4084055 0.8754523 0.2159959 -0.387688 0.8961271 0.1589679 -0.528019 0.8342213 0.1123141 -0.497582 0.8601149 0.1206807 -0.5194851 0.8459145 0.146994 -0.537999 0.83003 0.2570196 -0.3159848 0.9132878 0.2657134 -0.3167982 0.9105137 0.3562852 -0.1570945 0.9210766 0.3161092 -0.1657229 0.9341364 0.3685378 0.02386049 0.9293065 0.3872356 0.03551284 0.9212966 0.725377 0.6225113 0.293782 0.7025847 0.6680703 0.245065 0.7248819 0.6398377 0.2552528 0.7523794 0.585837 0.3011979 0.9613935 0.1188588 0.2481836 0.9600782 0.08724069 0.2657798 0.7817123 0.5387774 0.3140777 0.751405 0.6036047 0.2665558 0.2087999 0.9415107 0.2644998 0.2096092 0.9410891 0.2653588 0.04288646 0.9776306 0.2059106 0.09271556 0.9633153 0.251848 0.09764258 0.9693707 0.2253582 0.07545072 0.9753892 0.2071789 -0.07095801 0.963047 0.2598181 -0.111492 0.9672633 0.2279718 -0.1379144 0.9624838 0.233676 -0.1015034 0.9597101 0.2620182 -0.1754081 0.9587553 0.2236521 -0.1600171 0.9583776 0.2364462 -0.6319335 0.7008203 0.3309245 -0.6868327 0.6676606 0.287211 -0.9449214 0.05104934 0.3232917 -0.9462549 0.04685949 0.3200092 -0.8885843 0.3627982 0.2807052 -0.8327163 0.4459427 0.3282052 -0.6932938 0.6730704 0.2575266 -0.7166137 0.6539028 0.2426436 -0.9168807 0.1162427 0.3818605 -0.9363684 0.04729763 0.3478176 -0.7610496 -0.5657013 0.3174673 -0.7835817 -0.5023198 0.3656152 -0.6497339 -0.7094256 0.2730589 -0.6671476 -0.6825133 0.2984789 -0.4073112 -0.8706368 0.2758426 -0.3647432 -0.9037097 0.2242124 -0.2380442 -0.9384915 0.2501372 -0.2357872 -0.9397183 0.2476569 -0.4592516 -0.858719 0.2273535 -0.4969113 -0.8251861 0.2686021 -0.346513 -0.9046485 0.2480722 -0.3281855 -0.916518 0.2286679 0.2310697 -0.9317888 0.2799577 0.2687159 -0.9312559 0.2460777 0.5648084 -0.7920544 0.2316059 0.5220829 -0.8096734 0.2680643 0.3374709 -0.9180381 0.2081334 0.309386 -0.9236138 0.2263136 0.3295049 -0.9113723 0.2466315 0.3828506 -0.8989621 0.2128208 0.6443668 -0.7031058 0.300722 0.6430847 -0.7039234 0.3015524 0.8052085 -0.5224729 0.2804662 0.7526562 -0.5742918 0.322021 0.9400094 -0.09421776 0.32788 0.951742 -0.05462264 0.3019991 0.3527601 0.42602 0.833107 0.3677211 0.4829988 0.7946656 0.3911347 0.369453 0.8429224 0.3828932 0.3308507 0.8625141 0.5124673 0.04888467 0.8573141 0.5106681 0.04519926 0.8585891 0.3874275 0.2537633 0.8862867 0.3892359 0.2880788 0.874932 0.1676785 0.5091175 0.8442057 0.1823335 0.468681 0.8643452 0.1058161 0.5865723 0.8029545 0.1410121 0.5240695 0.8399207 0.07261429 0.5792603 0.8119018 0.05821089 0.5985323 0.798981 -0.07622992 0.5574142 0.8267275 -0.09883467 0.5767475 0.8109217 -0.1029863 0.5683727 0.8163004 -0.08650672 0.5545767 0.8276239 -0.1434574 0.5340615 0.8331856 -0.1535923 0.5411017 0.8268122 -0.3561952 0.2644459 0.8962106 -0.4133234 0.2563108 0.8737669 -0.4900906 0.005361356 0.871655 -0.4847261 0.009563513 0.8746137 -0.4381419 0.2734327 0.8563097 -0.3893305 0.3040758 0.8694594 -0.3810703 0.4285665 0.8192168 -0.3923274 0.4229651 0.8168107 -0.4187844 0.1058519 0.9018952 -0.4194428 0.1048243 0.9017093 -0.4051998 -0.2016272 0.8917172 -0.386289 -0.1309598 0.9130336 -0.3483239 -0.3533007 0.8682448 -0.3475224 -0.3438671 0.8723437 -0.1738485 -0.5311575 0.8292457 -0.1611512 -0.5982968 0.7849021 -0.08933072 -0.5923811 0.8006901 -0.08629008 -0.6014675 0.7942234 -0.2483299 -0.5194839 0.8175994 -0.2515741 -0.5008839 0.828146 -0.1592388 -0.5212144 0.8384382 -0.1457252 -0.5551333 0.8188963 0.1363577 -0.5119108 0.8481473 0.1529128 -0.5238248 0.8379888 0.2730771 -0.5068908 0.8176128 0.2099251 -0.4879665 0.8472427 0.1382893 -0.6039863 0.7849054 0.1138192 -0.5957404 0.7950714 0.1790055 -0.5495829 0.8160365 0.2035885 -0.5527456 0.808099 0.3224908 -0.3798907 0.8669964 0.3050329 -0.3840551 0.8714681 0.3940575 -0.2626027 0.8807716 0.3696128 -0.2731788 0.8881215 0.4193177 0.05505376 0.9061687 0.4541943 0.09754923 0.885546 0.5583469 0.6298933 0.5398918 0.5503062 0.6610937 0.5100179 0.6676454 0.4736145 0.5744031 0.6782644 0.411274 0.6089426 0.8086522 0.0685808 0.5842759 0.8102164 0.08281712 0.5802506 0.5896362 0.5042281 0.6309383 0.5731276 0.5476322 0.6096096 0.224711 0.8075979 0.5452436 0.2579676 0.7749308 0.5770052 0.1489836 0.8488201 0.5072556 0.1911093 0.8199629 0.5395721 0.05314834 0.8536637 0.5181057 0.01968222 0.8680524 0.4960823 -0.1303334 0.840916 0.5252367 -0.1473641 0.8442187 0.5153431 -0.07436158 0.8624686 0.5006178 -0.04398682 0.8555311 0.5158796 -0.1676912 0.8279996 0.5350667 -0.186401 0.8294756 0.5265215 -0.6060065 0.454051 0.6531415 -0.6620534 0.4168723 0.6228184 -0.7932696 0.04261683 0.6073773 -0.7781598 0.06925417 0.6242365 -0.6690548 0.4591185 0.5844449 -0.6269403 0.5017266 0.5960002 -0.6057114 0.556479 0.5687221 -0.6325423 0.530392 0.564424 -0.7288724 0.06011617 0.6820051 -0.7274918 0.06462881 0.6830657 -0.6860582 -0.3273426 0.6497469 -0.6884309 -0.2322536 0.6871107 -0.5593078 -0.5574388 0.6135445 -0.5563627 -0.5662662 0.6081144 -0.2530234 -0.809082 0.530439 -0.2189921 -0.8473043 0.4838572 -0.1899669 -0.843363 0.5026444 -0.1991135 -0.8352106 0.5126179 -0.4470077 -0.7252571 0.523628 -0.4576147 -0.711233 0.5336069 -0.2375786 -0.7964302 0.5561074 -0.203891 -0.8227063 0.5306437 0.2457124 -0.7942991 0.5556207 0.2568211 -0.7958356 0.5483508 0.4020011 -0.7552923 0.5176183 0.33413 -0.7632739 0.5529648 0.2333467 -0.8354247 0.4976091 0.2269495 -0.8358717 0.4998124 0.3415184 -0.7662783 0.5442268 0.3775569 -0.7562199 0.534399 0.5234814 -0.617156 0.5874399 0.4896916 -0.6361636 0.5962365 0.61118 -0.5082555 0.6067416 0.5872745 -0.5274726 0.6139067 0.7318526 0.06585815 0.6782732 0.7548332 0.1428427 0.6401741 0.4094828 0.5590974 0.7209257 0.3913821 0.6443201 0.6570173 0.4920128 0.3467836 0.798539 0.4871442 0.3727823 0.7897619 0.5881408 0.06198558 0.8063797 0.5853013 0.08885652 0.8059323 0.4352767 0.369434 0.8210071 0.4498572 0.3364395 0.827307 0.2369711 0.5896965 0.7720769 0.3282966 0.4813657 0.8127167 0.1873085 0.6366059 0.7480965 0.2737109 0.5684988 0.7758166 0.03627776 0.6750941 0.7368391 0.0407724 0.6733353 0.7382122 -0.1249496 0.6657074 0.7356774 -0.1423686 0.6673376 0.731021 -0.06557188 0.6741444 0.7356831 -0.0929234 0.6739647 0.7328961 -0.180798 0.5967411 0.7818006 -0.2682208 0.5708217 0.7760285 -0.4887032 0.2516929 0.8353561 -0.5684678 0.171272 0.8046802 -0.5875833 0.03811095 0.8082657 -0.5839716 0.0446715 0.810544 -0.466322 0.4037107 0.7871223 -0.4259802 0.4596533 0.7792687 -0.458355 0.4465807 0.7684246 -0.4325409 0.4896455 0.7570704 -0.5262118 0.1077675 0.843497 -0.4976441 0.2372911 0.8342921 -0.514584 -0.1337558 0.8469432 -0.517331 0.004530323 0.8557734 -0.4023411 -0.4070767 0.8200062 -0.3968206 -0.4232927 0.8144671 -0.1499278 -0.680586 0.7171641 -0.09999064 -0.7406718 0.6643848 -0.1209536 -0.6876073 0.7159375 -0.08072864 -0.7234027 0.6856905 -0.3145304 -0.5695027 0.7594323 -0.2686267 -0.6127582 0.743214 -0.1318302 -0.6187181 0.7744732 -0.07222891 -0.6496376 0.7568051 0.1912298 -0.6181507 0.762444 0.1748929 -0.6167621 0.7674744 0.2383217 -0.6236195 0.7445143 0.1255611 -0.6370567 0.7605217 0.1404507 -0.6855563 0.7143431 0.0718635 -0.7000471 0.7104715 0.2607169 -0.6098479 0.7484064 0.219671 -0.6312278 0.7438388 0.3688027 -0.4992176 0.7840704 0.3251494 -0.53771 0.7779112 0.4365315 -0.3614011 0.8239111 0.451006 -0.3401393 0.8251659 0.5052399 0.1592837 0.8481517 0.5257542 0.304006 0.7944576 -0.0985534 0.2553625 0.9618094 0.2381795 0.0420465 0.9703106 -0.09973905 0.2547247 0.9618563 0.7643201 0.403245 0.503198 0.1929518 -0.1298296 0.972581 0.1087779 -0.8490251 0.5170337 -0.1751065 -0.2073418 0.9624693 -0.3558266 -0.008566393 0.9345127 -0.5178153 0.5146942 0.6833426 0.3505812 0.3156206 0.8817463 0.1948679 0.2242639 0.9548467 0.02596675 -0.3178083 0.9477994 0.4292402 0.7530539 0.4986608 -0.02735433 0.258295 0.9656787 -0.1856902 -0.08947858 0.9785258 0.08248894 -0.4993332 0.8624743 0.4758678 0.2559313 0.8414565 -0.5849442 0.7750679 0.2389772 0.2497545 -0.8052368 0.5377884 -0.3681677 0.3008781 0.87973 0.1400424 0.1783674 0.9739472 -0.3845175 0.3042137 0.8715505 0.4319353 0.9002677 0.05431274 0.06427754 -0.4446674 0.8933864 -0.002776113 0.008263619 0.999962 -0.0007023187 -0.3316866 0.9433894</float_array>
          <technique_common>
            <accessor source="#normals-array" count="474" stride="3">
              <param name="X" type="float" />
              <param name="Y" type="float" />
              <param name="Z" type="float" />
            </accessor>
          </technique_common>
        </source>
        <source id="uv">
          <float_array id="uv-array" count="2844">24.15552 -1.402095 24.7196 -1.44698 24.66682 -0.7231805 24.15552 -1.402095 24.66682 -0.7231805 24.15552 -0.6782954 24.7196 -1.44698 25.19736 -1.476545 25.09474 -0.7527455 17.22181 -1.44698 16.48565 -0.7527455 16.90112 -0.7231805 25.19736 -1.476545 25.74002 -1.47789 25.60872 -0.7540901 25.19736 -1.476545 25.60872 -0.7540901 25.09474 -0.7527455 25.74002 -1.47789 26.37453 -1.450427 26.18448 -0.7266276 25.74002 -1.47789 26.18448 -0.7266276 25.60872 -0.7540901 16.2159 -1.450427 15.40157 -1.406141 15.24264 -0.6823409 16.2159 -1.450427 15.24264 -0.6823409 16.00941 -0.7266276 15.40157 -1.406141 14.46209 -1.364354 14.40182 -0.6405538 15.40157 -1.406141 14.40182 -0.6405538 15.24264 -0.6823409 14.46209 -1.364354 13.67947 -1.3433 13.69022 -0.6194998 14.46209 -1.364354 13.69022 -0.6194998 14.40182 -0.6405538 13.67947 -1.3433 12.85506 -1.352165 12.9429 -0.6283654 13.67947 -1.3433 12.9429 -0.6283654 13.69022 -0.6194998 12.85506 -1.352165 12.03138 -1.387082 12.20316 -0.6632822 12.85506 -1.352165 12.20316 -0.6632822 12.9429 -0.6283654 12.03138 -1.387082 11.25988 -1.432815 11.47219 -0.7090147 12.03138 -1.387082 11.47219 -0.7090147 12.20316 -0.6632822 11.25988 -1.432815 10.61623 -1.469408 10.88883 -0.7456082 11.25988 -1.432815 10.88883 -0.7456082 11.47219 -0.7090147 25.85984 -1.469408 25.24547 -1.480895 25.13713 -0.7570956 25.85984 -1.469408 25.13713 -0.7570956 25.71415 -0.7456082 25.24547 -1.480895 24.67521 -1.462264 24.62802 -0.7384644 25.24547 -1.480895 24.62802 -0.7384644 25.13713 -0.7570956 24.67521 -1.462264 24.15552 -1.421644 24.15552 -0.6978441 24.67521 -1.462264 24.15552 -0.6978441 24.62802 -0.7384644 24.15552 -1.421644 23.52422 -1.376759 23.58305 -0.652959 24.15552 -1.421644 23.58305 -0.652959 24.15552 -0.6978441 23.52422 -1.376759 22.97768 -1.347194 23.09255 -0.6233939 23.52422 -1.376759 23.09255 -0.6233939 23.58305 -0.652959 10.1738 -1.347194 10.8653 -1.345849 11.109 -0.6220494 10.1738 -1.347194 11.109 -0.6220494 10.52644 -0.6233939 10.8653 -1.345849 11.44649 -1.373312 11.64717 -0.6495119 10.8653 -1.345849 11.64717 -0.6495119 11.109 -0.6220494 11.44649 -1.373312 12.12191 -1.417599 12.28753 -0.6937986 11.44649 -1.373312 12.28753 -0.6937986 11.64717 -0.6495119 12.12191 -1.417599 12.86178 -1.459386 12.94671 -0.7355857 12.12191 -1.417599 12.94671 -0.7355857 12.28753 -0.6937986 12.86178 -1.459386 13.67947 -1.48044 13.69022 -0.7566397 12.86178 -1.459386 13.69022 -0.7566397 12.94671 -0.7355857 13.67947 -1.48044 14.56844 -1.471574 14.4963 -0.7477742 13.67947 -1.48044 14.4963 -0.7477742 13.69022 -0.7566397 14.56844 -1.471574 15.21293 -1.436657 15.07297 -0.7128573 14.56844 -1.471574 15.07297 -0.7128573 14.4963 -0.7477742 15.21293 -1.436657 15.77521 -1.390925 15.61355 -0.6671248 15.21293 -1.436657 15.61355 -0.6671248 15.07297 -0.7128573 15.77521 -1.390925 16.59688 -1.354331 16.35891 -0.6305313 15.77521 -1.390925 16.35891 -0.6305313 15.61355 -0.6671248 16.59688 -1.354331 17.24569 -1.342844 16.90497 -0.6190439 16.59688 -1.354331 16.90497 -0.6190439 16.35891 -0.6305313 22.95733 -1.342844 23.55871 -1.361475 23.61283 -0.6376751 22.95733 -1.342844 23.61283 -0.6376751 23.07542 -0.6190439 23.55871 -1.361475 24.15552 -1.402095 24.15552 -0.6782954 23.55871 -1.361475 24.15552 -0.6782954 23.61283 -0.6376751 24.15552 -0.6782954 24.66682 -0.7231805 24.59084 -0.1967806 24.15552 -0.6782954 24.59084 -0.1967806 24.15552 -0.1518955 16.90112 24.66682 16.48565 25.09474 16.07709 24.95484 16.90112 -0.7231805 16.07709 -0.2263457 16.43175 -0.1967806 25.09474 -0.7527455 25.60872 -0.7540901 25.41303 -0.2276903 25.09474 -0.7527455 25.41303 -0.2276903 24.95484 -0.2263457 25.60872 -0.7540901 26.18448 -0.7266276 25.89829 -0.2002277 25.60872 -0.7540901 25.89829 -0.2002277 25.41303 -0.2276903 16.00941 -0.7266276 15.24264 -0.6823409 15.01551 -0.155941 16.00941 -0.7266276 15.01551 -0.155941 15.69011 -0.2002277 15.24264 -0.6823409 14.40182 -0.6405538 14.30949 -0.1141539 15.24264 -0.6823409 14.30949 -0.1141539 15.01551 -0.155941 14.40182 -0.6405538 13.69022 -0.6194998 13.69804 -0.09309989 14.40182 -0.6405538 13.69804 -0.09309989 14.30949 -0.1141539 13.69022 -0.6194998 12.9429 -0.6283654 13.0617 -0.1019654 13.69022 -0.6194998 13.0617 -0.1019654 13.69804 -0.09309989 12.9429 -0.6283654 12.20316 -0.6632822 12.43162 -0.1368823 12.9429 -0.6283654 12.43162 -0.1368823 13.0617 -0.1019654 12.20316 -0.6632822 11.47219 -0.7090147 11.7798 -0.1826148 12.20316 -0.6632822 11.7798 -0.1826148 12.43162 -0.1368823 11.47219 -0.7090147 10.88883 -0.7456082 11.29159 -0.2192083 11.47219 -0.7090147 11.29159 -0.2192083 11.7798 -0.1826148 25.71415 -0.7456082 25.13713 -0.7570956 24.9877 -0.2306957 25.71415 -0.7456082 24.9877 -0.2306957 25.49441 -0.2192083 25.13713 -0.7570956 24.62802 -0.7384644 24.56158 -0.2120645 25.13713 -0.7570956 24.56158 -0.2120645 24.9877 -0.2306957 24.62802 -0.7384644 24.15552 -0.6978441 24.15552 -0.1714443 10.72298 -0.7384644 10.76548 -0.1714443 11.14807 -0.2120645 24.15552 -0.6978441 23.58305 -0.652959 23.66778 -0.1265591 24.15552 -0.6978441 23.66778 -0.1265591 24.15552 -0.1714443 10.0952 23.58305 10.52644 23.09255 11.00327 23.25012 10.0952 23.58305 11.00327 23.25012 10.63508 23.66778 10.52644 -0.6233939 11.109 -0.6220494 11.46416 -0.09564943 10.52644 -0.6233939 11.46416 -0.09564943 11.00327 -0.09699405 11.109 -0.6220494 11.64717 -0.6495119 11.94266 -0.123112 11.109 -0.6220494 11.94266 -0.123112 11.46416 -0.09564943 11.64717 -0.6495119 12.28753 -0.6937986 12.50892 -0.1673988 11.64717 -0.6495119 12.50892 -0.1673988 11.94266 -0.123112 12.28753 -0.6937986 12.94671 -0.7355857 13.05923 -0.2091858 12.28753 -0.6937986 13.05923 -0.2091858 12.50892 -0.1673988 12.94671 -0.7355857 13.69022 -0.7566397 13.69804 -0.2302398 12.94671 -0.7355857 13.69804 -0.2302398 13.05923 -0.2091858 13.69022 -0.7566397 14.4963 -0.7477742 14.38475 -0.2213743 13.69022 -0.7566397 14.38475 -0.2213743 13.69804 -0.2302398 14.4963 -0.7477742 15.07297 -0.7128573 14.87505 -0.1864575 14.4963 -0.7477742 14.87505 -0.1864575 14.38475 -0.2213743 15.07297 -0.7128573 15.61355 -0.6671248 15.36368 -0.1407249 15.07297 -0.7128573 15.36368 -0.1407249 14.87505 -0.1864575 15.61355 -0.6671248 16.35891 -0.6305313 15.99074 -0.1041314 15.61355 -0.6671248 15.99074 -0.1041314 15.36368 -0.1407249 16.35891 -0.6305313 16.90497 -0.6190439 16.42617 -0.09264404 16.35891 -0.6305313 16.42617 -0.09264404 15.99074 -0.1041314 23.07542 -0.6190439 23.61283 -0.6376751 23.6893 -0.1112752 16.90497 23.07542 16.62581 23.6893 16.42617 23.23892 23.61283 -0.6376751 24.15552 -0.6782954 24.15552 -0.1518955 23.61283 -0.6376751 24.15552 -0.1518955 23.6893 -0.1112752 24.15552 -0.1518955 24.59084 -0.1967806 24.598 -0.03228064 24.15552 -0.1518955 24.598 -0.03228064 24.15552 0.01260453 24.59084 -0.1967806 24.95484 -0.2263457 24.97191 -0.06184572 24.59084 -0.1967806 24.97191 -0.06184572 24.598 -0.03228064 24.95484 -0.2263457 25.41303 -0.2276903 25.45868 -0.06319026 24.95484 -0.2263457 25.45868 -0.06319026 24.97191 -0.06184572 25.41303 -0.2276903 25.89829 -0.2002277 25.94168 -0.03572778 25.41303 -0.2276903 25.94168 -0.03572778 25.45868 -0.06319026 15.69011 -0.2002277 15.01551 -0.155941 15.03882 0.008559025 15.69011 -0.2002277 15.03882 0.008559025 15.74214 -0.03572778 15.01551 -0.155941 14.30949 -0.1141539 14.33109 0.05034608 15.01551 -0.155941 14.33109 0.05034608 15.03882 0.008559025 14.30949 -0.1141539 13.69804 -0.09309989 13.70049 0.07140012 14.30949 -0.1141539 13.70049 0.07140012 14.33109 0.05034608 13.69804 -0.09309989 13.0617 -0.1019654 13.05356 0.06253445 13.69804 -0.09309989 13.05356 0.06253445 13.70049 0.07140012 13.0617 -0.1019654 12.43162 -0.1368823 12.40651 0.02761772 13.0617 -0.1019654 12.40651 0.02761772 13.05356 0.06253445 12.43162 -0.1368823 11.7798 -0.1826148 11.71384 -0.01811485 12.43162 -0.1368823 11.71384 -0.01811485 12.40651 0.02761772 11.7798 -0.1826148 11.29159 -0.2192083 11.2342 -0.05470837 11.7798 -0.1826148 11.2342 -0.05470837 11.71384 -0.01811485 25.49441 -0.2192083 24.9877 -0.2306957 25.00003 -0.06619574 25.49441 -0.2192083 25.00003 -0.06619574 25.52771 -0.05470837 24.9877 -0.2306957 24.56158 -0.2120645 24.57442 -0.04756449 24.9877 -0.2306957 24.57442 -0.04756449 25.00003 -0.06619574 24.56158 -0.2120645 24.15552 -0.1714443 24.15552 -0.006944292 24.56158 -0.2120645 24.15552 -0.006944292 24.57442 -0.04756449 24.15552 -0.1714443 23.66778 -0.1265591 23.65927 0.03794088 24.15552 -0.1714443 23.65927 0.03794088 24.15552 -0.006944292 23.66778 -0.1265591 23.25012 -0.09699405 23.23034 0.06750588 23.66778 -0.1265591 23.23034 0.06750588 23.65927 0.03794088 11.00327 -0.09699405 11.46416 -0.09564943 11.38523 0.06885042 11.00327 -0.09699405 11.38523 0.06885042 10.94682 0.06750588 11.46416 -0.09564943 11.94266 -0.123112 11.90159 0.04138794 11.46416 -0.09564943 11.90159 0.04138794 11.38523 0.06885042 11.94266 -0.123112 12.50892 -0.1673988 12.49378 -0.002898785 11.94266 -0.123112 12.49378 -0.002898785 11.90159 0.04138794 12.50892 -0.1673988 13.05923 -0.2091858 13.04182 -0.04468584 12.50892 -0.1673988 13.04182 -0.04468584 12.49378 -0.002898785 13.05923 -0.2091858 13.69804 -0.2302398 13.70049 -0.06573988 13.05923 -0.2091858 13.70049 -0.06573988 13.04182 -0.04468584 13.69804 -0.2302398 14.38475 -0.2213743 14.39906 -0.0568743 13.69804 -0.2302398 14.39906 -0.0568743 13.70049 -0.06573988 14.38475 -0.2213743 14.87505 -0.1864575 14.90276 -0.02195748 14.38475 -0.2213743 14.90276 -0.02195748 14.39906 -0.0568743 14.87505 -0.1864575 15.36368 -0.1407249 15.42805 0.02377501 14.87505 -0.1864575 15.42805 0.02377501 14.90276 -0.02195748 15.36368 -0.1407249 15.99074 -0.1041314 16.05011 0.06036853 15.36368 -0.1407249 16.05011 0.06036853 15.42805 0.02377501 15.99074 -0.1041314 16.42617 -0.09264404 16.47176 0.0718559 15.99074 -0.1041314 16.47176 0.0718559 16.05011 0.06036853 23.23892 -0.09264404 23.6893 -0.1112752 23.67492 0.05322474 23.23892 -0.09264404 23.67492 0.05322474 23.22442 0.0718559 23.6893 -0.1112752 24.15552 -0.1518955 24.15552 0.01260453 23.6893 -0.1112752 24.15552 0.01260453 23.67492 0.05322474 16.78988 24.15552 16.47915 24.598 16.14273 24.54411 16.78988 24.15552 16.14273 24.54411 16.45803 24.15552 16.47915 24.598 16.13033 24.97191 15.85713 24.87946 16.47915 24.598 15.85713 24.87946 16.14273 24.54411 16.13033 24.97191 16.0427 25.45868 15.80253 25.32396 16.13033 24.97191 15.80253 25.32396 15.85713 24.87946 16.0427 25.45868 15.74214 25.94168 15.50807 25.73518 16.0427 25.45868 15.50807 25.73518 15.80253 25.32396 15.74214 25.94168 15.03882 26.09442 14.88032 25.86196 15.74214 25.94168 14.88032 25.86196 15.50807 25.73518 15.03882 26.09442 14.33109 26.08311 14.26663 25.88008 15.03882 26.09442 14.26663 25.88008 14.88032 25.86196 14.33109 26.08311 13.70049 26.14639 13.70244 25.93201 14.33109 26.08311 13.70244 25.93201 14.26663 25.88008 13.70049 26.14639 13.05356 26.13299 13.13418 25.89254 13.70049 26.14639 13.13418 25.89254 13.70244 25.93201 13.05356 26.13299 12.40651 26.03015 12.5549 25.81801 13.05356 26.13299 12.5549 25.81801 13.13418 25.89254 12.40651 26.03015 11.71384 25.89355 11.92225 25.71293 12.40651 26.03015 11.92225 25.71293 12.5549 25.81801 11.71384 25.89355 11.2342 25.52771 11.52157 25.36891 11.71384 25.89355 11.52157 25.36891 11.92225 25.71293 11.2342 25.52771 11.18693 25.00003 11.4922 24.89812 11.2342 25.52771 11.4922 24.89812 11.52157 25.36891 11.18693 25.00003 11.06989 24.57442 11.34797 24.53045 11.18693 25.00003 11.34797 24.53045 11.4922 24.89812 11.06989 24.57442 10.66994 24.15552 10.99907 24.15552 11.06989 24.57442 10.99907 24.15552 11.34797 24.53045 10.66994 24.15552 10.58412 23.65927 10.96245 23.71921 10.66994 24.15552 10.96245 23.71921 10.99907 24.15552 10.58412 23.65927 10.94682 23.23034 11.26035 23.33502 10.58412 23.65927 11.26035 23.33502 10.96245 23.71921 10.94682 23.23034 11.38523 22.86737 11.62629 23.0004 10.94682 23.23034 11.62629 23.0004 11.26035 23.33502 11.38523 22.86737 11.90159 22.58174 12.11226 22.76434 11.38523 22.86737 12.11226 22.76434 11.62629 23.0004 11.90159 22.58174 12.49378 22.40732 12.64138 22.61833 11.90159 22.58174 12.64138 22.61833 12.11226 22.76434 12.49378 22.40732 13.04182 22.14217 13.11335 22.35485 12.49378 22.40732 13.11335 22.35485 12.64138 22.61833 13.04182 22.14217 13.70049 21.87666 13.70244 22.12343 13.04182 22.14217 13.70244 22.12343 13.11335 22.35485 13.70049 21.87666 14.39906 22.02017 14.31654 22.27839 13.70049 21.87666 14.31654 22.27839 13.70244 22.12343 14.39906 22.02017 14.90276 22.41375 14.76859 22.61095 14.39906 22.02017 14.76859 22.61095 14.31654 22.27839 14.90276 22.41375 15.42805 22.64415 15.25269 22.79927 14.90276 22.41375 15.25269 22.79927 14.76859 22.61095 15.42805 22.64415 16.05011 22.84825 15.77977 22.99974 15.42805 22.64415 15.77977 22.99974 15.25269 22.79927 16.05011 22.84825 16.47176 23.22442 16.1414 23.33607 16.05011 22.84825 16.1414 23.33607 15.77977 22.99974 16.47176 23.22442 16.71856 23.67492 16.4008 23.72584 16.47176 23.22442 16.4008 23.72584 16.1414 23.33607 16.71856 23.67492 16.78988 24.15552 16.45803 24.15552 16.71856 23.67492 16.45803 24.15552 16.4008 23.72584 24.15552 0.1442045 24.54411 0.09931937 24.50734 0.7244192 24.15552 0.1442045 24.50734 0.7244192 24.15552 0.7693044 24.54411 0.09931937 24.87946 0.06975437 24.82002 0.6948542 24.54411 0.09931937 24.82002 0.6948542 24.50734 0.7244192 24.87946 0.06975437 25.32396 0.06840967 25.23512 0.6935095 24.87946 0.06975437 25.23512 0.6935095 24.82002 0.6948542 25.32396 0.06840967 25.73518 0.09587215 25.59304 0.7209721 25.32396 0.06840967 25.59304 0.7209721 25.23512 0.6935095 15.50807 0.09587215 14.88032 0.140159 14.78325 0.7652588 15.50807 0.09587215 14.78325 0.7652588 15.35488 0.7209721 14.88032 0.140159 14.26663 0.1819459 14.23332 0.8070459 14.88032 0.140159 14.23332 0.8070459 14.78325 0.7652588 14.26663 0.1819459 13.70244 0.2030001 13.71173 0.8280999 14.26663 0.1819459 13.71173 0.8280999 14.23332 0.8070459 13.70244 0.2030001 13.13418 0.1941345 13.19712 0.8192344 13.70244 0.2030001 13.19712 0.8192344 13.71173 0.8280999 13.13418 0.1941345 12.5549 0.1592177 12.65868 0.7843175 13.13418 0.1941345 12.65868 0.7843175 13.19712 0.8192344 12.5549 0.1592177 11.92225 0.1134851 12.06778 0.7385851 12.5549 0.1592177 12.06778 0.7385851 12.65868 0.7843175 11.92225 0.1134851 11.52157 0.07689156 11.72755 0.7019915 25.71293 0.1134851 25.25947 0.7019915 25.59374 0.7385851 25.36891 0.07689156 24.89812 0.06540419 24.83061 0.6905042 25.36891 0.07689156 24.83061 0.6905042 25.25947 0.7019915 24.89812 0.06540419 24.53045 0.08403552 24.50231 0.7091353 24.89812 0.06540419 24.50231 0.7091353 24.83061 0.6905042 24.53045 0.08403552 24.15552 0.1246557 24.15552 0.7497555 24.53045 0.08403552 24.15552 0.7497555 24.50231 0.7091353 24.15552 0.1246557 23.71921 0.1695409 23.76001 0.7946407 24.15552 0.1246557 23.76001 0.7946407 24.15552 0.7497555 23.71921 0.1695409 23.33502 0.1991059 23.40263 0.8242057 23.71921 0.1695409 23.40263 0.8242057 23.76001 0.7946407 11.26035 0.1991059 11.62629 0.2004504 11.79322 0.8255504 11.26035 0.1991059 11.79322 0.8255504 11.47086 0.8242057 11.62629 0.2004504 12.11226 0.1729879 12.26581 0.7980878 11.62629 0.2004504 12.26581 0.7980878 11.79322 0.8255504 12.11226 0.1729879 12.64138 0.1287012 12.74715 0.753801 12.11226 0.1729879 12.74715 0.753801 12.26581 0.7980878 12.64138 0.1287012 13.11335 0.08691417 13.16734 0.712014 12.64138 0.1287012 13.16734 0.712014 12.74715 0.753801 13.11335 0.08691417 13.70244 0.06586013 13.71173 0.6909599 13.11335 0.08691417 13.71173 0.6909599 13.16734 0.712014 13.70244 0.06586013 14.31654 0.07472563 14.2683 0.6998254 13.70244 0.06586013 14.2683 0.6998254 13.71173 0.6909599 14.31654 0.07472563 14.76859 0.1096425 14.69026 0.7347423 14.31654 0.07472563 14.69026 0.7347423 14.2683 0.6998254 14.76859 0.1096425 15.25269 0.155375 15.14517 0.7804748 14.76859 0.1096425 15.14517 0.7804748 14.69026 0.7347423 15.25269 0.155375 15.77977 0.1919685 15.60112 0.8170684 15.25269 0.155375 15.60112 0.8170684 15.14517 0.7804748 15.77977 0.1919685 16.1414 0.2034559 15.93042 0.8285557 15.77977 0.1919685 15.93042 0.8285557 15.60112 0.8170684 23.33607 0.2034559 23.72584 0.1848247 23.7586 0.8099246 23.33607 0.2034559 23.7586 0.8099246 23.41008 0.8285557 23.72584 0.1848247 24.15552 0.1442045 24.15552 0.7693044 23.72584 0.1848247 24.15552 0.7693044 23.7586 0.8099246 16.24 24.15552 15.92111 24.50734 15.53058 24.44469 16.24 24.15552 15.53058 24.44469 15.8134 24.15552 15.92111 24.50734 15.68949 24.82002 15.36727 24.71077 15.92111 24.50734 15.36727 24.71077 15.53058 24.44469 15.68949 24.82002 15.65214 25.23512 15.3387 25.0591 15.68949 24.82002 15.3387 25.0591 15.36727 24.71077 15.65214 25.23512 15.35488 25.59304 15.06887 25.34026 15.65214 25.23512 15.06887 25.34026 15.3387 25.0591 15.35488 25.59304 14.78325 25.70788 14.60155 25.44039 15.35488 25.59304 14.60155 25.44039 15.06887 25.34026 14.78325 25.70788 14.23332 25.74988 14.15261 25.49422 14.78325 25.70788 14.15261 25.49422 14.60155 25.44039 14.23332 25.74988 13.71173 25.78576 13.71466 25.50871 14.23332 25.74988 13.71466 25.50871 14.15261 25.49422 13.71173 25.78576 13.19712 25.72853 13.2916 25.44868 13.71173 25.78576 13.2916 25.44868 13.71466 25.50871 13.19712 25.72853 12.65868 25.68111 12.83522 25.42959 13.19712 25.72853 12.83522 25.42959 13.2916 25.44868 12.65868 25.68111 12.06778 25.59374 12.33935 25.35872 12.65868 25.68111 12.33935 25.35872 12.83522 25.42959 12.06778 25.59374 11.72755 25.25947 12.07989 25.06507 12.06778 25.59374 12.07989 25.06507 12.33935 25.35872 11.72755 25.25947 11.70242 24.83061 12.05224 24.71407 11.72755 25.25947 12.05224 24.71407 12.07989 25.06507 11.70242 24.83061 11.53395 24.50231 11.88514 24.44685 11.70242 24.83061 11.88514 24.44685 12.05224 24.71407 11.53395 24.50231 11.23127 24.15552 11.65563 24.15552 11.53395 24.50231 11.65563 24.15552 11.88514 24.44685 11.23127 24.15552 11.22796 23.76001 11.67079 23.83006 11.23127 24.15552 11.67079 23.83006 11.65563 24.15552 11.22796 23.76001 11.47086 23.40263 11.84347 23.52683 11.22796 23.76001 11.84347 23.52683 11.67079 23.83006 11.47086 23.40263 11.79322 23.08811 12.10882 23.26207 11.47086 23.40263 12.10882 23.26207 11.84347 23.52683 11.79322 23.08811 12.26581 22.89055 12.5243 23.11413 11.79322 23.08811 12.5243 23.11413 12.10882 23.26207 12.26581 22.89055 12.74715 22.75811 12.91662 22.99937 12.26581 22.89055 12.91662 22.99937 12.5243 23.11413 12.74715 22.75811 13.16734 22.49148 13.25777 22.75893 12.74715 22.75811 13.25777 22.75893 12.91662 22.99937 13.16734 22.49148 13.71173 22.29129 13.71466 22.60794 13.16734 22.49148 13.71466 22.60794 13.25777 22.75893 13.71173 22.29129 14.2683 22.45424 14.17258 22.7558 13.71173 22.29129 14.17258 22.7558 13.71466 22.60794 14.2683 22.45424 14.69026 22.73788 14.53219 22.97113 14.2683 22.45424 14.53219 22.97113 14.17258 22.7558 14.69026 22.73788 15.14517 22.90147 14.91509 23.10532 14.69026 22.73788 14.91509 23.10532 14.53219 22.97113 15.14517 22.90147 15.60112 23.10431 15.27068 23.28979 15.14517 22.90147 15.27068 23.28979 14.91509 23.10532 15.60112 23.10431 15.93042 23.41008 15.55104 23.53853 15.60112 23.10431 15.55104 23.53853 15.27068 23.28979 15.93042 23.41008 16.20433 23.7586 15.80572 23.82254 15.93042 23.41008 15.80572 23.82254 15.55104 23.53853 16.20433 23.7586 16.24 24.15552 15.8134 24.15552 16.20433 23.7586 15.8134 24.15552 15.80572 23.82254 15.8134 0.9667044 15.53058 0.9218192 15.15407 1.382419 15.8134 0.9667044 15.15407 1.382419 15.38652 1.427304 24.44469 0.9218192 24.71077 0.8922542 24.6014 1.352854 24.44469 0.9218192 24.6014 1.352854 24.38364 1.382419 24.71077 0.8922542 25.0591 0.8909095 24.87865 1.351509 24.71077 0.8922542 24.87865 1.351509 24.6014 1.352854 15.3387 25.0591 15.06887 25.34026 14.78986 25.09019 15.3387 25.0591 14.78986 25.09019 15.0212 24.87865 15.06887 0.918372 14.60155 0.9626589 14.42722 1.423259 15.06887 0.918372 14.42722 1.423259 14.78986 1.378972 14.60155 0.9626589 14.15261 1.004446 14.07392 1.465046 14.60155 0.9626589 14.07392 1.465046 14.42722 1.423259 14.15261 1.004446 13.71466 1.0255 13.7215 1.4861 14.15261 1.004446 13.7215 1.4861 14.07392 1.465046 13.71466 1.0255 13.2916 1.016634 13.38769 1.477234 13.71466 1.0255 13.38769 1.477234 13.7215 1.4861 13.2916 1.016634 12.83522 0.9817176 13.01586 1.442317 13.2916 1.016634 13.01586 1.442317 13.38769 1.477234 12.83522 0.9817176 12.33935 0.9359849 12.62117 1.396585 12.83522 0.9817176 12.62117 1.396585 13.01586 1.442317 12.33935 25.35872 12.07989 25.06507 12.43227 24.87282 25.35872 0.9359849 24.87282 1.359991 25.11815 1.396585 25.06507 0.8993914 24.71407 0.887904 24.59994 1.348504 25.06507 0.8993914 24.59994 1.348504 24.87282 1.359991 24.71407 0.887904 24.44685 0.9065353 24.39008 1.367135 24.71407 0.887904 24.39008 1.367135 24.59994 1.348504 24.44685 0.9065353 24.15552 0.9471556 24.15552 1.407755 24.44685 0.9065353 24.15552 1.407755 24.39008 1.367135 24.15552 0.9471556 23.83006 0.9920407 23.8985 1.45264 24.15552 0.9471556 23.8985 1.45264 24.15552 1.407755 23.83006 0.9920407 23.52683 1.021606 23.65117 1.482206 23.83006 0.9920407 23.65117 1.482206 23.8985 1.45264 11.84347 23.52683 12.10882 23.26207 12.43629 23.44046 11.84347 23.52683 12.43629 23.44046 12.22036 23.65117 12.10882 1.02295 12.5243 0.9954878 12.78362 1.456088 12.10882 1.02295 12.78362 1.456088 12.43629 1.48355 12.5243 0.9954878 12.91662 0.9512011 13.08653 1.411801 12.5243 0.9954878 13.08653 1.411801 12.78362 1.456088 12.91662 0.9512011 13.25777 0.909414 13.354 1.370014 12.91662 0.9512011 13.354 1.370014 13.08653 1.411801 13.25777 0.909414 13.71466 0.88836 13.7215 1.34896 13.25777 0.909414 13.7215 1.34896 13.354 1.370014 13.71466 0.88836 14.17258 0.8972255 14.08307 1.357825 13.71466 0.88836 14.08307 1.357825 13.7215 1.34896 14.17258 0.8972255 14.53219 0.9321424 14.37785 1.392742 14.17258 0.8972255 14.37785 1.392742 14.08307 1.357825 14.53219 0.9321424 14.91509 0.9778748 14.68257 1.438475 14.53219 0.9321424 14.68257 1.438475 14.37785 1.392742 14.91509 0.9778748 15.27068 1.014468 14.94802 1.475068 14.91509 0.9778748 14.94802 1.475068 14.68257 1.438475 15.27068 1.014468 15.55104 1.025956 15.18276 1.486556 15.27068 1.014468 15.18276 1.486556 14.94802 1.475068 23.53853 1.025956 23.82254 1.007325 23.8878 1.467924 15.55104 23.53853 15.40274 23.8878 15.18276 23.66457 23.82254 1.007325 24.15552 0.9667044 24.15552 1.427304 23.82254 1.007325 24.15552 1.427304 23.8878 1.467924 15.38652 24.15552 15.15407 24.38364 14.4892 24.27668 15.38652 24.15552 14.4892 24.27668 14.61331 24.15552 15.15407 24.38364 15.04858 24.6014 14.44547 24.39646 15.15407 24.38364 14.44547 24.39646 14.4892 24.27668 15.04858 24.6014 15.0212 24.87865 14.42505 24.54315 15.04858 24.6014 14.42505 24.54315 14.44547 24.39646 15.0212 24.87865 14.78986 25.09019 14.29421 24.65057 15.0212 24.87865 14.29421 24.65057 14.42505 24.54315 14.78986 25.09019 14.42722 25.17793 14.10671 24.70368 14.78986 25.09019 14.10671 24.70368 14.29421 24.65057 14.42722 25.17793 14.07392 25.23278 13.91864 24.7372 14.42722 25.17793 13.91864 24.7372 14.10671 24.70368 14.07392 25.23278 13.7215 25.22874 13.72834 24.72564 14.07392 25.23278 13.72834 24.72564 13.91864 24.7372 13.7215 25.22874 13.38769 25.17588 13.55103 24.69752 13.7215 25.22874 13.55103 24.69752 13.72834 24.72564 13.38769 25.17588 13.01586 25.17781 13.34739 24.70742 13.38769 25.17588 13.34739 24.70742 13.55103 24.69752 13.01586 25.17781 12.62117 25.11815 13.13858 24.67147 13.01586 25.17781 13.13858 24.67147 13.34739 24.70742 12.62117 25.11815 12.43227 24.87282 13.04576 24.5353 12.62117 25.11815 13.04576 24.5353 13.13858 24.67147 12.43227 24.87282 12.39877 24.59994 13.01899 24.39385 12.43227 24.87282 13.01899 24.39385 13.04576 24.5353 12.39877 24.59994 12.24853 24.39008 12.93263 24.28223 12.39877 24.59994 12.93263 24.28223 13.01899 24.39385 12.24853 24.39008 12.0881 24.15552 12.86029 24.15552 12.24853 24.39008 12.86029 24.15552 12.93263 24.28223 12.0881 24.15552 12.10742 23.8985 12.8704 24.0189 12.0881 24.15552 12.8704 24.0189 12.86029 24.15552 12.10742 23.8985 12.22036 23.65117 12.91812 23.8833 12.10742 23.8985 12.91812 23.8833 12.8704 24.0189 12.22036 23.65117 12.43629 23.44046 13.03939 23.7722 12.22036 23.65117 13.03939 23.7722 12.91812 23.8833 12.43629 23.44046 12.78362 23.33501 13.23227 23.72153 12.43629 1.48355 13.23227 1.916688 13.03939 1.94415 12.78362 23.33501 13.08653 23.23561 13.38782 23.66219 12.78362 1.456088 13.38782 1.872401 13.23227 1.916688 13.08653 23.23561 13.354 23.03217 13.52998 23.54919 13.08653 23.23561 13.52998 23.54919 13.38782 23.66219 13.354 23.03217 13.7215 22.92751 13.72834 23.5026 13.354 23.03217 13.72834 23.5026 13.52998 23.54919 13.7215 22.92751 14.08307 23.0503 13.92051 23.56813 13.7215 22.92751 13.92051 23.56813 13.72834 23.5026 14.08307 23.0503 14.37785 23.20464 14.08293 23.64182 14.08307 23.0503 14.08293 23.64182 13.92051 23.56813 14.37785 23.20464 14.68257 23.31472 14.24361 23.70473 14.37785 23.20464 14.24361 23.70473 14.08293 23.64182 14.68257 23.31472 14.94802 23.47311 14.37739 23.79441 14.68257 23.31472 14.37739 23.79441 14.24361 23.70473 14.94802 23.47311 15.18276 23.66457 14.51179 23.8923 14.94802 23.47311 14.51179 23.8923 14.37739 23.79441 15.18276 23.66457 15.40274 23.8878 14.63545 24.01107 15.18276 23.66457 14.63545 24.01107 14.51179 23.8923 15.40274 23.8878 15.38652 24.15552 14.61331 24.15552 15.40274 23.8878 14.61331 24.15552 14.63545 24.01107 14.63545 24.01107 14.61331 24.15552 14.4892 24.27668 14.44547 24.39646 14.42505 24.54315 14.29421 24.65057 14.51179 23.8923 14.63545 24.01107 14.4892 24.27668 24.27668 1.843019 24.39646 1.813454 24.65057 1.839572 14.29421 24.65057 14.10671 24.70368 13.91864 24.7372 13.91864 1.925646 13.72834 1.9467 13.55103 1.937834 13.55103 24.69752 13.34739 24.70742 13.13858 24.67147 13.13858 24.67147 13.04576 24.5353 13.01899 24.39385 13.01899 24.39385 12.93263 24.28223 12.86029 24.15552 12.86029 24.15552 12.8704 24.0189 12.91812 23.8833 12.91812 23.8833 13.03939 23.7722 13.23227 23.72153 13.38782 23.66219 13.52998 23.54919 13.72834 23.5026 12.91812 1.942806 13.23227 1.916688 13.38782 1.872401 13.01899 24.39385 12.86029 24.15552 12.91812 23.8833 13.55103 24.69752 13.13858 24.67147 13.01899 24.39385 14.29421 24.65057 13.91864 24.7372 13.55103 24.69752 14.51179 23.8923 14.4892 24.27668 14.29421 24.65057 14.24361 1.899075 14.37739 1.935668 14.51179 1.947156 13.72834 1.80956 13.92051 1.818425 14.08293 1.853342 14.08293 23.64182 14.24361 23.70473 14.51179 23.8923 14.51179 23.8923 14.29421 24.65057 13.55103 24.69752 13.55103 24.69752 13.01899 24.39385 12.91812 23.8833 12.91812 1.942806 13.38782 1.872401 13.72834 1.80956 13.72834 23.5026 14.08293 23.64182 14.51179 23.8923 14.51179 23.8923 13.55103 24.69752 12.91812 23.8833 12.91812 23.8833 13.72834 23.5026 14.51179 23.8923</float_array>
          <technique_common>
            <accessor source="#uv-array" count="1422" stride="2">
              <param name="S" type="float" />
              <param name="T" type="float" />
            </accessor>
          </technique_common>
        </source>
        <vertices id="vertices">
          <input semantic="POSITION" source="#positions" />
        </vertices>
        <triangles count="474" material="m0">
          <input semantic="VERTEX" source="#vertices" offset="0" />
          <input semantic="NORMAL" source="#normals" offset="1" />
          <input semantic="TEXCOORD" source="#uv" offset="2" set="0" />
          <p>0 0 0 1 0 1 29 0 2 0 1 3 29 1 4 28 1 5 1 2 6 2 2 7 30 2 8 1 3 9 30 3 10 29 3 11 2 4 12 3 4 13 31 4 14 2 5 15 31 5 16 30 5 17 3 6 18 4 6 19 32 6 20 3 7 21 32 7 22 31 7 23 4 8 24 5 8 25 33 8 26 4 9 27 33 9 28 32 9 29 5 10 30 6 10 31 34 10 32 5 11 33 34 11 34 33 11 35 6 12 36 7 12 37 35 12 38 6 13 39 35 13 40 34 13 41 7 14 42 8 14 43 36 14 44 7 15 45 36 15 46 35 15 47 8 16 48 9 16 49 37 16 50 8 17 51 37 17 52 36 17 53 9 18 54 10 18 55 38 18 56 9 19 57 38 19 58 37 19 59 10 20 60 11 20 61 39 20 62 10 21 63 39 21 64 38 21 65 11 22 66 12 22 67 40 22 68 11 23 69 40 23 70 39 23 71 12 24 72 13 24 73 41 24 74 12 25 75 41 25 76 40 25 77 13 26 78 14 26 79 42 26 80 13 27 81 42 27 82 41 27 83 14 28 84 15 28 85 43 28 86 14 29 87 43 29 88 42 29 89 15 30 90 16 30 91 44 30 92 15 31 93 44 31 94 43 31 95 16 32 96 17 32 97 45 32 98 16 33 99 45 33 100 44 33 101 17 34 102 18 34 103 46 34 104 17 35 105 46 35 106 45 35 107 18 36 108 19 36 109 47 36 110 18 37 111 47 37 112 46 37 113 19 38 114 20 38 115 48 38 116 19 39 117 48 39 118 47 39 119 20 40 120 21 40 121 49 40 122 20 41 123 49 41 124 48 41 125 21 42 126 22 42 127 50 42 128 21 43 129 50 43 130 49 43 131 22 44 132 23 44 133 51 44 134 22 45 135 51 45 136 50 45 137 23 46 138 24 46 139 52 46 140 23 47 141 52 47 142 51 47 143 24 48 144 25 48 145 53 48 146 24 49 147 53 49 148 52 49 149 25 50 150 26 50 151 54 50 152 25 51 153 54 51 154 53 51 155 26 52 156 27 52 157 55 52 158 26 53 159 55 53 160 54 53 161 27 54 162 0 54 163 28 54 164 27 55 165 28 55 166 55 55 167 28 56 168 29 56 169 57 56 170 28 57 171 57 57 172 56 57 173 29 58 174 30 58 175 58 58 176 29 59 177 58 59 178 57 59 179 30 60 180 31 60 181 59 60 182 30 61 183 59 61 184 58 61 185 31 62 186 32 62 187 60 62 188 31 63 189 60 63 190 59 63 191 32 64 192 33 64 193 61 64 194 32 65 195 61 65 196 60 65 197 33 66 198 34 66 199 62 66 200 33 67 201 62 67 202 61 67 203 34 68 204 35 68 205 63 68 206 34 69 207 63 69 208 62 69 209 35 70 210 36 70 211 64 70 212 35 71 213 64 71 214 63 71 215 36 72 216 37 72 217 65 72 218 36 73 219 65 73 220 64 73 221 37 74 222 38 74 223 66 74 224 37 75 225 66 75 226 65 75 227 38 76 228 39 76 229 67 76 230 38 77 231 67 77 232 66 77 233 39 78 234 40 78 235 68 78 236 39 79 237 68 79 238 67 79 239 40 80 240 41 80 241 69 80 242 40 81 243 69 81 244 68 81 245 41 82 246 42 82 247 70 82 248 41 83 249 70 83 250 69 83 251 42 84 252 43 84 253 71 84 254 42 85 255 71 85 256 70 85 257 43 86 258 44 86 259 72 86 260 43 87 261 72 87 262 71 87 263 44 88 264 45 88 265 73 88 266 44 89 267 73 89 268 72 89 269 45 90 270 46 90 271 74 90 272 45 91 273 74 91 274 73 91 275 46 92 276 47 92 277 75 92 278 46 93 279 75 93 280 74 93 281 47 94 282 48 94 283 76 94 284 47 95 285 76 95 286 75 95 287 48 96 288 49 96 289 77 96 290 48 97 291 77 97 292 76 97 293 49 98 294 50 98 295 78 98 296 49 99 297 78 99 298 77 99 299 50 100 300 51 100 301 79 100 302 50 101 303 79 101 304 78 101 305 51 102 306 52 102 307 80 102 308 51 103 309 80 103 310 79 103 311 52 104 312 53 104 313 81 104 314 52 105 315 81 105 316 80 105 317 53 106 318 54 106 319 82 106 320 53 107 321 82 107 322 81 107 323 54 108 324 55 108 325 83 108 326 54 109 327 83 109 328 82 109 329 55 110 330 28 110 331 56 110 332 55 111 333 56 111 334 83 111 335 56 112 336 57 112 337 85 112 338 56 113 339 85 113 340 84 113 341 57 114 342 58 114 343 86 114 344 57 115 345 86 115 346 85 115 347 58 116 348 59 116 349 87 116 350 58 117 351 87 117 352 86 117 353 59 118 354 60 118 355 88 118 356 59 119 357 88 119 358 87 119 359 60 120 360 61 120 361 89 120 362 60 121 363 89 121 364 88 121 365 61 122 366 62 122 367 90 122 368 61 123 369 90 123 370 89 123 371 62 124 372 63 124 373 91 124 374 62 125 375 91 125 376 90 125 377 63 126 378 64 126 379 92 126 380 63 127 381 92 127 382 91 127 383 64 128 384 65 128 385 93 128 386 64 129 387 93 129 388 92 129 389 65 130 390 66 130 391 94 130 392 65 131 393 94 131 394 93 131 395 66 132 396 67 132 397 95 132 398 66 133 399 95 133 400 94 133 401 67 134 402 68 134 403 96 134 404 67 135 405 96 135 406 95 135 407 68 136 408 69 136 409 97 136 410 68 137 411 97 137 412 96 137 413 69 138 414 70 138 415 98 138 416 69 139 417 98 139 418 97 139 419 70 140 420 71 140 421 99 140 422 70 141 423 99 141 424 98 141 425 71 142 426 72 142 427 100 142 428 71 143 429 100 143 430 99 143 431 72 144 432 73 144 433 101 144 434 72 145 435 101 145 436 100 145 437 73 146 438 74 146 439 102 146 440 73 147 441 102 147 442 101 147 443 74 148 444 75 148 445 103 148 446 74 149 447 103 149 448 102 149 449 75 150 450 76 150 451 104 150 452 75 151 453 104 151 454 103 151 455 76 152 456 77 152 457 105 152 458 76 153 459 105 153 460 104 153 461 77 154 462 78 154 463 106 154 464 77 155 465 106 155 466 105 155 467 78 156 468 79 156 469 107 156 470 78 157 471 107 157 472 106 157 473 79 158 474 80 158 475 108 158 476 79 159 477 108 159 478 107 159 479 80 160 480 81 160 481 109 160 482 80 161 483 109 161 484 108 161 485 81 162 486 82 162 487 110 162 488 81 163 489 110 163 490 109 163 491 82 164 492 83 164 493 111 164 494 82 165 495 111 165 496 110 165 497 83 166 498 56 166 499 84 166 500 83 167 501 84 167 502 111 167 503 84 168 504 85 168 505 113 168 506 84 169 507 113 169 508 112 169 509 85 170 510 86 170 511 114 170 512 85 171 513 114 171 514 113 171 515 86 172 516 87 172 517 115 172 518 86 173 519 115 173 520 114 173 521 87 174 522 88 174 523 116 174 524 87 175 525 116 175 526 115 175 527 88 176 528 89 176 529 117 176 530 88 177 531 117 177 532 116 177 533 89 178 534 90 178 535 118 178 536 89 179 537 118 179 538 117 179 539 90 180 540 91 180 541 119 180 542 90 181 543 119 181 544 118 181 545 91 182 546 92 182 547 120 182 548 91 183 549 120 183 550 119 183 551 92 184 552 93 184 553 121 184 554 92 185 555 121 185 556 120 185 557 93 186 558 94 186 559 122 186 560 93 187 561 122 187 562 121 187 563 94 188 564 95 188 565 123 188 566 94 189 567 123 189 568 122 189 569 95 190 570 96 190 571 124 190 572 95 191 573 124 191 574 123 191 575 96 192 576 97 192 577 125 192 578 96 193 579 125 193 580 124 193 581 97 194 582 98 194 583 126 194 584 97 195 585 126 195 586 125 195 587 98 196 588 99 196 589 127 196 590 98 197 591 127 197 592 126 197 593 99 198 594 100 198 595 128 198 596 99 199 597 128 199 598 127 199 599 100 200 600 101 200 601 129 200 602 100 201 603 129 201 604 128 201 605 101 202 606 102 202 607 130 202 608 101 203 609 130 203 610 129 203 611 102 204 612 103 204 613 131 204 614 102 205 615 131 205 616 130 205 617 103 206 618 104 206 619 132 206 620 103 207 621 132 207 622 131 207 623 104 208 624 105 208 625 133 208 626 104 209 627 133 209 628 132 209 629 105 210 630 106 210 631 134 210 632 105 211 633 134 211 634 133 211 635 106 212 636 107 212 637 135 212 638 106 213 639 135 213 640 134 213 641 107 214 642 108 214 643 136 214 644 107 215 645 136 215 646 135 215 647 108 216 648 109 216 649 137 216 650 108 217 651 137 217 652 136 217 653 109 218 654 110 218 655 138 218 656 109 219 657 138 219 658 137 219 659 110 220 660 111 220 661 139 220 662 110 221 663 139 221 664 138 221 665 111 222 666 84 222 667 112 222 668 111 223 669 112 223 670 139 223 671 112 224 672 113 224 673 141 224 674 112 225 675 141 225 676 140 225 677 113 226 678 114 226 679 142 226 680 113 227 681 142 227 682 141 227 683 114 228 684 115 228 685 143 228 686 114 229 687 143 229 688 142 229 689 115 230 690 116 230 691 144 230 692 115 231 693 144 231 694 143 231 695 116 232 696 117 232 697 145 232 698 116 233 699 145 233 700 144 233 701 117 234 702 118 234 703 146 234 704 117 235 705 146 235 706 145 235 707 118 236 708 119 236 709 147 236 710 118 237 711 147 237 712 146 237 713 119 238 714 120 238 715 148 238 716 119 239 717 148 239 718 147 239 719 120 240 720 121 240 721 149 240 722 120 241 723 149 241 724 148 241 725 121 242 726 122 242 727 150 242 728 121 243 729 150 243 730 149 243 731 122 244 732 123 244 733 151 244 734 122 245 735 151 245 736 150 245 737 123 246 738 124 246 739 152 246 740 123 247 741 152 247 742 151 247 743 124 248 744 125 248 745 153 248 746 124 249 747 153 249 748 152 249 749 125 250 750 126 250 751 154 250 752 125 251 753 154 251 754 153 251 755 126 252 756 127 252 757 155 252 758 126 253 759 155 253 760 154 253 761 127 254 762 128 254 763 156 254 764 127 255 765 156 255 766 155 255 767 128 256 768 129 256 769 157 256 770 128 257 771 157 257 772 156 257 773 129 258 774 130 258 775 158 258 776 129 259 777 158 259 778 157 259 779 130 260 780 131 260 781 159 260 782 130 261 783 159 261 784 158 261 785 131 262 786 132 262 787 160 262 788 131 263 789 160 263 790 159 263 791 132 264 792 133 264 793 161 264 794 132 265 795 161 265 796 160 265 797 133 266 798 134 266 799 162 266 800 133 267 801 162 267 802 161 267 803 134 268 804 135 268 805 163 268 806 134 269 807 163 269 808 162 269 809 135 270 810 136 270 811 164 270 812 135 271 813 164 271 814 163 271 815 136 272 816 137 272 817 165 272 818 136 273 819 165 273 820 164 273 821 137 274 822 138 274 823 166 274 824 137 275 825 166 275 826 165 275 827 138 276 828 139 276 829 167 276 830 138 277 831 167 277 832 166 277 833 139 278 834 112 278 835 140 278 836 139 279 837 140 279 838 167 279 839 140 280 840 141 280 841 169 280 842 140 281 843 169 281 844 168 281 845 141 282 846 142 282 847 170 282 848 141 283 849 170 283 850 169 283 851 142 284 852 143 284 853 171 284 854 142 285 855 171 285 856 170 285 857 143 286 858 144 286 859 172 286 860 143 287 861 172 287 862 171 287 863 144 288 864 145 288 865 173 288 866 144 289 867 173 289 868 172 289 869 145 290 870 146 290 871 174 290 872 145 291 873 174 291 874 173 291 875 146 292 876 147 292 877 175 292 878 146 293 879 175 293 880 174 293 881 147 294 882 148 294 883 176 294 884 147 295 885 176 295 886 175 295 887 148 296 888 149 296 889 177 296 890 148 297 891 177 297 892 176 297 893 149 298 894 150 298 895 178 298 896 149 299 897 178 299 898 177 299 899 150 300 900 151 300 901 179 300 902 150 301 903 179 301 904 178 301 905 151 302 906 152 302 907 180 302 908 151 303 909 180 303 910 179 303 911 152 304 912 153 304 913 181 304 914 152 305 915 181 305 916 180 305 917 153 306 918 154 306 919 182 306 920 153 307 921 182 307 922 181 307 923 154 308 924 155 308 925 183 308 926 154 309 927 183 309 928 182 309 929 155 310 930 156 310 931 184 310 932 155 311 933 184 311 934 183 311 935 156 312 936 157 312 937 185 312 938 156 313 939 185 313 940 184 313 941 157 314 942 158 314 943 186 314 944 157 315 945 186 315 946 185 315 947 158 316 948 159 316 949 187 316 950 158 317 951 187 317 952 186 317 953 159 318 954 160 318 955 188 318 956 159 319 957 188 319 958 187 319 959 160 320 960 161 320 961 189 320 962 160 321 963 189 321 964 188 321 965 161 322 966 162 322 967 190 322 968 161 323 969 190 323 970 189 323 971 162 324 972 163 324 973 191 324 974 162 325 975 191 325 976 190 325 977 163 326 978 164 326 979 192 326 980 163 327 981 192 327 982 191 327 983 164 328 984 165 328 985 193 328 986 164 329 987 193 329 988 192 329 989 165 330 990 166 330 991 194 330 992 165 331 993 194 331 994 193 331 995 166 332 996 167 332 997 195 332 998 166 333 999 195 333 1000 194 333 1001 167 334 1002 140 334 1003 168 334 1004 167 335 1005 168 335 1006 195 335 1007 168 336 1008 169 336 1009 197 336 1010 168 337 1011 197 337 1012 196 337 1013 169 338 1014 170 338 1015 198 338 1016 169 339 1017 198 339 1018 197 339 1019 170 340 1020 171 340 1021 199 340 1022 170 341 1023 199 341 1024 198 341 1025 171 342 1026 172 342 1027 200 342 1028 171 343 1029 200 343 1030 199 343 1031 172 344 1032 173 344 1033 201 344 1034 172 345 1035 201 345 1036 200 345 1037 173 346 1038 174 346 1039 202 346 1040 173 347 1041 202 347 1042 201 347 1043 174 348 1044 175 348 1045 203 348 1046 174 349 1047 203 349 1048 202 349 1049 175 350 1050 176 350 1051 204 350 1052 175 351 1053 204 351 1054 203 351 1055 176 352 1056 177 352 1057 205 352 1058 176 353 1059 205 353 1060 204 353 1061 177 354 1062 178 354 1063 206 354 1064 177 355 1065 206 355 1066 205 355 1067 178 356 1068 179 356 1069 207 356 1070 178 357 1071 207 357 1072 206 357 1073 179 358 1074 180 358 1075 208 358 1076 179 359 1077 208 359 1078 207 359 1079 180 360 1080 181 360 1081 209 360 1082 180 361 1083 209 361 1084 208 361 1085 181 362 1086 182 362 1087 210 362 1088 181 363 1089 210 363 1090 209 363 1091 182 364 1092 183 364 1093 211 364 1094 182 365 1095 211 365 1096 210 365 1097 183 366 1098 184 366 1099 212 366 1100 183 367 1101 212 367 1102 211 367 1103 184 368 1104 185 368 1105 213 368 1106 184 369 1107 213 369 1108 212 369 1109 185 370 1110 186 370 1111 214 370 1112 185 371 1113 214 371 1114 213 371 1115 186 372 1116 187 372 1117 215 372 1118 186 373 1119 215 373 1120 214 373 1121 187 374 1122 188 374 1123 216 374 1124 187 375 1125 216 375 1126 215 375 1127 188 376 1128 189 376 1129 217 376 1130 188 377 1131 217 377 1132 216 377 1133 189 378 1134 190 378 1135 218 378 1136 189 379 1137 218 379 1138 217 379 1139 190 380 1140 191 380 1141 219 380 1142 190 381 1143 219 381 1144 218 381 1145 191 382 1146 192 382 1147 220 382 1148 191 383 1149 220 383 1150 219 383 1151 192 384 1152 193 384 1153 221 384 1154 192 385 1155 221 385 1156 220 385 1157 193 386 1158 194 386 1159 222 386 1160 193 387 1161 222 387 1162 221 387 1163 194 388 1164 195 388 1165 223 388 1166 194 389 1167 223 389 1168 222 389 1169 195 390 1170 168 390 1171 196 390 1172 195 391 1173 196 391 1174 223 391 1175 196 392 1176 197 392 1177 225 392 1178 196 393 1179 225 393 1180 224 393 1181 197 394 1182 198 394 1183 226 394 1184 197 395 1185 226 395 1186 225 395 1187 198 396 1188 199 396 1189 227 396 1190 198 397 1191 227 397 1192 226 397 1193 199 398 1194 200 398 1195 228 398 1196 199 399 1197 228 399 1198 227 399 1199 200 400 1200 201 400 1201 229 400 1202 200 401 1203 229 401 1204 228 401 1205 201 402 1206 202 402 1207 230 402 1208 201 403 1209 230 403 1210 229 403 1211 202 404 1212 203 404 1213 231 404 1214 202 405 1215 231 405 1216 230 405 1217 203 406 1218 204 406 1219 232 406 1220 203 407 1221 232 407 1222 231 407 1223 204 408 1224 205 408 1225 233 408 1226 204 409 1227 233 409 1228 232 409 1229 205 410 1230 206 410 1231 234 410 1232 205 411 1233 234 411 1234 233 411 1235 206 412 1236 207 412 1237 235 412 1238 206 413 1239 235 413 1240 234 413 1241 207 414 1242 208 414 1243 236 414 1244 207 415 1245 236 415 1246 235 415 1247 208 416 1248 209 416 1249 237 416 1250 208 417 1251 237 417 1252 236 417 1253 209 418 1254 210 418 1255 238 418 1256 209 419 1257 238 419 1258 237 419 1259 210 420 1260 211 420 1261 239 420 1262 210 421 1263 239 421 1264 238 421 1265 211 422 1266 212 422 1267 240 422 1268 211 423 1269 240 423 1270 239 423 1271 212 424 1272 213 424 1273 241 424 1274 212 425 1275 241 425 1276 240 425 1277 213 426 1278 214 426 1279 242 426 1280 213 427 1281 242 427 1282 241 427 1283 214 428 1284 215 428 1285 243 428 1286 214 429 1287 243 429 1288 242 429 1289 215 430 1290 216 430 1291 244 430 1292 215 431 1293 244 431 1294 243 431 1295 216 432 1296 217 432 1297 245 432 1298 216 433 1299 245 433 1300 244 433 1301 217 434 1302 218 434 1303 246 434 1304 217 435 1305 246 435 1306 245 435 1307 218 436 1308 219 436 1309 247 436 1310 218 437 1311 247 437 1312 246 437 1313 219 438 1314 220 438 1315 248 438 1316 219 439 1317 248 439 1318 247 439 1319 220 440 1320 221 440 1321 249 440 1322 220 441 1323 249 441 1324 248 441 1325 221 442 1326 222 442 1327 250 442 1328 221 443 1329 250 443 1330 249 443 1331 222 444 1332 223 444 1333 251 444 1334 222 445 1335 251 445 1336 250 445 1337 223 446 1338 196 446 1339 224 446 1340 223 447 1341 224 447 1342 251 447 1343 251 448 1344 224 448 1345 225 448 1346 226 449 1347 227 449 1348 228 449 1349 250 450 1350 251 450 1351 225 450 1352 225 451 1353 226 451 1354 228 451 1355 228 452 1356 229 452 1357 230 452 1358 230 453 1359 231 453 1360 232 453 1361 232 454 1362 233 454 1363 234 454 1364 234 455 1365 235 455 1366 236 455 1367 236 456 1368 237 456 1369 238 456 1370 238 457 1371 239 457 1372 240 457 1373 240 458 1374 241 458 1375 242 458 1376 243 459 1377 244 459 1378 245 459 1379 240 460 1380 242 460 1381 243 460 1382 236 461 1383 238 461 1384 240 461 1385 232 462 1386 234 462 1387 236 462 1388 228 463 1389 230 463 1390 232 463 1391 250 464 1392 225 464 1393 228 464 1394 248 465 1395 249 465 1396 250 465 1397 245 466 1398 246 466 1399 247 466 1400 247 467 1401 248 467 1402 250 467 1403 250 468 1404 228 468 1405 232 468 1406 232 469 1407 236 469 1408 240 469 1409 240 470 1410 243 470 1411 245 470 1412 245 471 1413 247 471 1414 250 471 1415 250 472 1416 232 472 1417 240 472 1418 240 473 1419 245 473 1420 250 473 1421</p>
        </triangles>
      </mesh>
    </geometry>
  </library_geometries>
  <library_visual_scenes>
    <visual_scene id="Scene">
      <node id="Node" type="NODE">
        <instance_geometry url="#geometry">
          <bind_material>
            <technique_common>
              <instance_material symbol="m0" target="#m0">
                <bind_vertex_input semantic="UVSET0" input_semantic="TEXCOORD" input_set="0" />
              </instance_material>
            </technique_common>
          </bind_material>
        </instance_geometry>
      </node>
    </visual_scene>
  </library_visual_scenes>
  <scene>
    <instance_visual_scene url="#Scene" />
  </scene>
</COLLADA>