<?xml version='1.0' encoding='utf-8'?>
<COLLADA xmlns="http://www.collada.org/2005/11/COLLADASchema" version="1.4.1">
  <asset>
    <created>2026-09-08T00:00:00Z</created>
    <modified>2026-09-08T00:00:00Z</modified>
    <unit name="meter" meter="1" />
    <up_axis>Z_UP</up_axis>
  </asset>
  <library_images />
  <library_effects>
    <effect id="e0">
      <profile_COMMON>
        <technique sid="common">
          <phong>
            <ambient>
              <color>0.117 0.10125 0.0675 1</color>
            </ambient>
            <diffuse>
              <color>0.26 0.225 0.15 1</color>
            </diffuse>
            <specular>
              <color>0.02 0.02 0.02 1</color>
            </specular>
            <shininess>
              <float>8</float>
            </shininess>
          </phong>
        </technique>
      </profile_COMMON>
    </effect>
  </library_effects>
  <library_materials>
    <material id="m0" name="m0">
      <instance_effect url="#e0" />
    </material>
  </library_materials>
  <library_geometries>
    <geometry id="geometry" name="2078_left_gravel_bank">
      <mesh>
        <source id="positions">
          <float_array id="positions-array" count="324">17.13171 -8.467233 -2.280556 16.44526 -8.05102 -2.483019 17.74747 -7.545248 -2.27296 17.05782 -7.115207 -2.464981 18.38362 -6.616773 -2.247463 17.69388 -6.169548 -2.446944 19.03001 -5.708557 -2.255773 18.34398 -5.240336 -2.428907 19.67454 -4.848967 -2.248837 18.99714 -4.35512 -2.41087 20.30195 -4.068318 -2.204521 19.64001 -3.542944 -2.392832 20.89153 -3.399505 -2.217303 20.25498 -2.834833 -2.374795 21.44031 -2.850828 -2.176342 20.83815 -2.242894 -2.356758 22.00671 -2.348889 -2.144841 21.43746 -1.705104 -2.33872 22.6211 -1.845651 -2.133631 22.08002 -1.174726 -2.320683 23.26277 -1.35873 -2.115565 22.74929 -0.6647042 -2.302646 23.93115 -0.8859784 -2.103979 23.44422 -0.1727783 -2.284609 24.62531 -0.4255093 -2.087994 24.16349 0.3031079 -2.266571 25.34395 0.02438443 -2.074447 24.90549 0.7648766 -2.248534 26.08548 0.4653196 -2.043183 25.6684 1.214377 -2.230497 26.84802 0.8988863 -2.020401 26.45015 1.65344 -2.21246 27.62945 1.326682 -1.993517 27.24852 2.083899 -2.194422 28.42752 1.750362 -1.98701 28.06116 2.507638 -2.176385 29.23981 2.17165 -1.926002 28.88561 2.926592 -2.158348 30.04213 2.582483 -1.907732 29.70265 3.335159 -2.14031 30.81201 2.963353 -1.845594 30.49506 3.716039 -2.122273 31.57333 3.315532 -1.879348 31.28194 4.068085 -2.104236 32.35056 3.65167 -1.819688 32.08244 4.401894 -2.086199 33.14644 3.974513 -1.771732 32.89902 4.720448 -2.068161 33.9633 4.286707 -1.73054 33.73382 5.026646 -2.050124 34.80305 4.590851 -1.722462 34.58866 5.323359 -2.032087 35.66724 4.889558 -1.705935 35.46506 5.613459 -2.014049 36.5571 5.185502 -1.704165 36.36434 5.899874 -1.996012 37.47363 5.481451 -1.692579 37.2876 6.185598 -1.977975 38.41761 5.780261 -1.723459 38.2358 6.473698 -1.959938 39.38974 6.084905 -1.437569 39.20981 6.767327 -1.9419 40.3615 6.39078 -1.448977 40.18804 7.063807 -1.923863 41.30736 6.673389 -1.508069 41.1503 7.339951 -1.905826 42.26037 6.926506 -1.585122 42.12127 7.587251 -1.887789 43.25132 7.163908 -1.542384 43.12471 7.818126 -1.869751 44.27952 7.391753 -1.474844 44.16019 8.039135 -1.851714 45.34403 7.616741 -1.580399 45.22707 8.257251 -1.833677 46.44385 7.84608 -1.558303 46.32467 8.479844 -1.815639 47.57793 8.087424 -1.488636 47.45227 8.714618 -1.797602 48.74527 8.348788 -1.582367 48.60918 8.969565 -1.779565 49.94482 8.638485 -1.485676 49.79468 9.252892 -1.761528 51.17551 8.965015 -1.439095 51.00803 9.572968 -1.74349 52.43621 9.337006 -1.521128 52.24846 9.938244 -1.725453 53.7245 9.762684 -1.581284 53.51419 10.35687 -1.707416 55.07767 10.26216 -1.580379 54.847 10.85046 -1.689379 56.51944 10.83757 -1.625018 56.27336 11.42259 -1.671341 58.02516 11.47044 -1.638421 57.76714 12.05451 -1.653304 59.56931 12.14292 -1.621729 59.30148 12.72801 -1.635267 61.12383 12.83664 -1.608868 60.84761 13.42445 -1.617229 62.65927 13.53289 -1.585042 62.3757 14.1249 -1.599192 64.14522 14.21267 -1.666672 63.85512 14.81026 -1.581155 65.55051 14.85672 -1.72379 65.25474 15.46119 -1.563118 16.93477 -8.766116 -2.345859 15.98428 -8.766116 -2.497336 66.23288 15.1675 -1.615732 66.23288 15.91453 -1.549418</float_array>
          <technique_common>
            <accessor source="#positions-array" count="108" stride="3">
              <param name="X" type="float" />
              <param name="Y" type="float" />
              <param name="Z" type="float" />
            </accessor>
          </technique_common>
        </source>
        <source id="normals">
          <float_array id="normals-array" count="318">0.1568597 -0.08141005 -0.9842598 0.2920418 0.01649742 -0.9562633 0.2128362 -0.1206296 -0.9696129 0.1948346 -0.1221035 -0.9732062 0.1990545 -0.1153241 -0.9731791 0.2065568 -0.1148412 -0.9716716 0.2017563 -0.1222893 -0.9717714 0.1621606 -0.1243688 -0.9788955 0.1733605 -0.1079687 -0.9789223 0.1555809 -0.1087327 -0.9818206 0.1589905 -0.1040433 -0.9817826 0.1962079 -0.1023345 -0.9752077 0.1760457 -0.1280293 -0.9760207 0.1271581 -0.1308832 -0.9832092 0.1439998 -0.1119037 -0.9832302 0.1823114 -0.1094005 -0.9771356 0.1535361 -0.1382839 -0.9784193 0.1762347 -0.1376958 -0.9746698 0.1559904 -0.1558139 -0.9753917 0.1451092 -0.1553958 -0.9771364 0.1448907 -0.1555732 -0.9771406 0.1456083 -0.1556344 -0.9770241 0.1390169 -0.1605553 -0.9771879 0.1296644 -0.159336 -0.9786722 0.1298696 -0.1591948 -0.9786679 0.1279219 -0.1588568 -0.9789793 0.1241588 -0.1612643 -0.9790702 0.1186989 -0.1600964 -0.9799386 0.11781 -0.1606275 -0.979959 0.1399589 -0.1661622 -0.9761156 0.1216687 -0.1765053 -0.976751 0.1309794 -0.1791233 -0.9750688 0.1213819 -0.1842566 -0.9753543 0.1369671 -0.1890845 -0.9723616 0.123722 -0.1958628 -0.9727953 0.1093673 -0.1910298 -0.9754724 0.1166115 -0.1874872 -0.9753206 0.1813516 -0.2105584 -0.9606127 0.1372606 -0.231976 -0.9629884 0.141455 -0.2334663 -0.9620208 0.1354498 -0.2362332 -0.9622096 0.2050115 -0.2604795 -0.9434621 0.1492841 -0.2851655 -0.9467813 0.07669579 -0.2581007 -0.9630689 0.1219962 -0.2405237 -0.9629462 0.1885226 -0.2682317 -0.944728 0.1336737 -0.2889808 -0.9479564 0.1821166 -0.3103649 -0.9330097 0.1395493 -0.3253678 -0.9352335 0.177688 -0.3432346 -0.922289 0.1426574 -0.3548304 -0.9239828 0.1362561 -0.3516075 -0.9261784 0.1355222 -0.3518318 -0.9262009 0.1401681 -0.3543663 -0.9245417 0.1321623 -0.356719 -0.924816 0.117651 -0.3481974 -0.9300091 0.1252623 -0.346063 -0.9298117 0.1230612 -0.3446766 -0.9306202 0.1224784 -0.3448376 -0.9306375 0.06596651 -0.3065309 -0.9495721 0.1067357 -0.295744 -0.9492855 0.3827839 -0.4816748 -0.788331 0.1825264 -0.5527765 -0.8130942 0.1606196 -0.5410719 -0.8254954 0.1700083 -0.5385083 -0.8252915 0.09354097 -0.4938365 -0.8645089 0.1390954 -0.4830739 -0.8644606 0.03522447 -0.4100593 -0.9113784 0.1073458 -0.3952824 -0.9122657 0.1395943 -0.4213768 -0.8960776 0.1070402 -0.4282805 -0.8972838 0.1618932 -0.4740116 -0.8655077 0.1136429 -0.4841181 -0.8675915 -0.01393768 -0.3698897 -0.9289711 0.08681638 -0.3525881 -0.9317427 0.09359714 -0.3594022 -0.928477 0.08983808 -0.3601433 -0.9285612 0.14334 -0.4140845 -0.8988813 0.1070374 -0.4220283 -0.9002417 -0.00832655 -0.304402 -0.9525073 0.0826911 -0.2852055 -0.9548927 0.1632078 -0.3706243 -0.9143308 0.1147624 -0.3834027 -0.9164235 0.1431921 -0.4112715 -0.9001954 0.1349025 -0.4136505 -0.9003858 0.03060002 -0.3130376 -0.9492476 0.1091745 -0.2891132 -0.9510491 0.02055992 -0.2006369 -0.9794499 0.07987566 -0.1798535 -0.9804451 0.05944837 -0.1592711 -0.9854434 0.07404403 -0.1535336 -0.9853654 0.0005462619 -0.07870668 -0.9968977 0.03858263 -0.06273775 -0.997284 0.001525251 -0.02479975 -0.9996913 0.01920838 -0.01698743 -0.9996712 0.01741004 -0.01516213 -0.9997335 0.01830738 -0.01475113 -0.9997236 0.01208523 -0.008544075 -0.9998905 0.0150746 -0.007138927 -0.9998609 0.02164542 -0.01352553 -0.9996742 0.01903412 -0.01477718 -0.9997096 -0.0976091 0.09439552 -0.9907381 -0.0434203 0.1208415 -0.9917217 -0.1290174 0.1952916 -0.972222 -0.08655704 0.2161459 -0.9725168 0.116663 0.08781764 -0.9892815</float_array>
          <technique_common>
            <accessor source="#normals-array" count="106" stride="3">
              <param name="X" type="float" />
              <param name="Y" type="float" />
              <param name="Z" type="float" />
            </accessor>
          </technique_common>
        </source>
        <source id="uv">
          <float_array id="uv-array" count="636">6.773907 -3.506446 6.393713 -3.506446 6.578103 -3.220408 6.773907 -3.506446 6.578103 -3.220408 6.852685 -3.386893 6.852685 -3.386893 6.578103 -3.220408 6.823129 -2.846083 6.852685 -3.386893 6.823129 -2.846083 7.098987 -3.018099 7.098987 -3.018099 6.823129 -2.846083 7.077553 -2.467819 7.098987 -3.018099 7.077553 -2.467819 7.353449 -2.646709 7.353449 -2.646709 7.077553 -2.467819 7.337591 -2.096134 7.353449 -2.646709 7.337591 -2.096134 7.612006 -2.283423 7.612006 -2.283423 7.337591 -2.096134 7.598856 -1.742048 7.612006 -2.283423 7.598856 -1.742048 7.869814 -1.939587 7.869814 -1.939587 7.598856 -1.742048 7.856004 -1.417178 7.869814 -1.939587 7.856004 -1.417178 8.120782 -1.627327 8.120782 -1.627327 7.856004 -1.417178 8.101994 -1.133933 8.120782 -1.627327 8.101994 -1.133933 8.356612 -1.359802 8.356612 -1.359802 8.101994 -1.133933 8.335258 -0.8971577 8.356612 -1.359802 8.335258 -0.8971577 8.576126 -1.140331 8.576126 -1.140331 8.335258 -0.8971577 8.574982 -0.6820414 8.576126 -1.140331 8.574982 -0.6820414 8.802683 -0.9395555 8.802683 -0.9395555 8.574982 -0.6820414 8.832007 -0.4698903 8.802683 -0.9395555 8.832007 -0.4698903 9.048441 -0.7382604 9.048441 -0.7382604 8.832007 -0.4698903 9.099714 -0.2658817 9.048441 -0.7382604 9.099714 -0.2658817 9.305109 -0.5434921 9.305109 -0.5434921 9.099714 -0.2658817 9.377687 -0.06911132 9.305109 -0.5434921 9.377687 -0.06911132 9.572461 -0.3543914 9.572461 -0.3543914 9.377687 -0.06911132 9.665394 0.1212432 9.572461 -0.3543914 9.665394 0.1212432 9.850124 -0.1702037 9.850124 -0.1702037 9.665394 0.1212432 9.962197 0.3059507 9.850124 -0.1702037 9.962197 0.3059507 10.13758 0.009753772 10.13758 0.009753772 9.962197 0.3059507 10.26736 0.4857509 10.13758 0.009753772 10.26736 0.4857509 10.43419 0.1861278 10.43419 0.1861278 10.26736 0.4857509 10.58006 0.6613759 10.43419 0.1861278 10.58006 0.6613759 10.73921 0.3595545 10.73921 0.3595545 10.58006 0.6613759 10.89941 0.8335595 10.73921 0.3595545 10.89941 0.8335595 11.05178 0.5306726 11.05178 0.5306726 10.89941 0.8335595 11.22446 1.003055 11.05178 0.5306726 11.22446 1.003055 11.37101 0.7001446 11.37101 0.7001446 11.22446 1.003055 11.55424 1.170637 11.37101 0.7001446 11.55424 1.170637 11.69592 0.8686602 11.69592 0.8686602 11.55424 1.170637 11.88106 1.334064 11.69592 0.8686602 11.88106 1.334064 12.01685 1.032993 12.01685 1.032993 11.88106 1.334064 12.19803 1.486416 12.01685 1.032993 12.19803 1.486416 12.3248 1.185341 12.3248 1.185341 12.19803 1.486416 12.51278 1.627234 12.3248 1.185341 12.51278 1.627234 12.62933 1.326213 12.62933 1.326213 12.51278 1.627234 12.83298 1.760758 12.62933 1.326213 12.83298 1.760758 12.94023 1.460668 12.94023 1.460668 12.83298 1.760758 13.15961 1.888179 12.94023 1.460668 13.15961 1.888179 13.25858 1.589805 13.25858 1.589805 13.15961 1.888179 13.49353 2.010658 13.25858 1.589805 13.49353 2.010658 13.58532 1.714683 13.58532 1.714683 13.49353 2.010658 13.83546 2.129344 13.58532 1.714683 13.83546 2.129344 13.92122 1.836341 13.92122 1.836341 13.83546 2.129344 14.18603 2.245384 13.92122 1.836341 14.18603 2.245384 14.2669 1.955823 14.2669 1.955823 14.18603 2.245384 14.54574 2.35995 14.2669 1.955823 14.54574 2.35995 14.62284 2.074201 14.62284 2.074201 14.54574 2.35995 14.91504 2.474239 14.62284 2.074201 14.91504 2.474239 14.98945 2.19258 14.98945 2.19258 14.91504 2.474239 15.29432 2.589479 14.98945 2.19258 15.29432 2.589479 15.36705 2.312105 15.36705 2.312105 15.29432 2.589479 15.68392 2.706931 15.36705 2.312105 15.68392 2.706931 15.7559 2.433962 15.7559 2.433962 15.68392 2.706931 16.07522 2.825523 15.7559 2.433962 16.07522 2.825523 16.1446 2.556312 16.1446 2.556312 16.07522 2.825523 16.46012 2.93598 16.1446 2.556312 16.46012 2.93598 16.52295 2.669356 16.52295 2.669356 16.46012 2.93598 16.84851 3.0349 16.52295 2.669356 16.84851 3.0349 16.90415 2.770603 16.90415 2.770603 16.84851 3.0349 17.24989 3.12725 16.90415 2.770603 17.24989 3.12725 17.30053 2.865563 17.30053 2.865563 17.24989 3.12725 17.66408 3.215654 17.30053 2.865563 17.66408 3.215654 17.71181 2.956701 17.71181 2.956701 17.66408 3.215654 18.09083 3.302901 17.71181 2.956701 18.09083 3.302901 18.13761 3.046696 18.13761 3.046696 18.09083 3.302901 18.52987 3.391937 18.13761 3.046696 18.52987 3.391937 18.57754 3.138432 18.57754 3.138432 18.52987 3.391937 18.98091 3.485847 18.57754 3.138432 18.98091 3.485847 19.03117 3.234969 19.03117 3.234969 18.98091 3.485847 19.44367 3.587826 19.03117 3.234969 19.44367 3.587826 19.49811 3.339515 19.49811 3.339515 19.44367 3.587826 19.91787 3.701157 19.49811 3.339515 19.91787 3.701157 19.97793 3.455394 19.97793 3.455394 19.91787 3.701157 20.40321 3.829187 19.97793 3.455394 20.40321 3.829187 20.47021 3.586006 20.47021 3.586006 20.40321 3.829187 20.89939 3.975298 20.47021 3.586006 20.89939 3.975298 20.97449 3.734802 20.97449 3.734802 20.89939 3.975298 21.40568 4.142749 20.97449 3.734802 21.40568 4.142749 21.4898 3.905074 21.4898 3.905074 21.40568 4.142749 21.9388 4.340185 21.4898 3.905074 21.9388 4.340185 22.03107 4.104864 22.03107 4.104864 21.9388 4.340185 22.50934 4.569035 22.03107 4.104864 22.50934 4.569035 22.60777 4.335028 22.60777 4.335028 22.50934 4.569035 23.10685 4.821806 22.60777 4.335028 23.10685 4.821806 23.21006 4.588175 23.21006 4.588175 23.10685 4.821806 23.72059 5.091205 23.21006 4.588175 23.72059 5.091205 23.82773 4.857167 23.82773 4.857167 23.72059 5.091205 24.33905 5.369779 23.82773 4.857167 24.33905 5.369779 24.44953 5.134657 24.44953 5.134657 24.33905 5.369779 24.95028 5.649961 24.44953 5.134657 24.95028 5.649961 25.06371 5.413157 25.06371 5.413157 24.95028 5.649961 25.54205 5.924104 25.06371 5.413157 25.54205 5.924104 25.65809 5.685068 25.65809 5.685068 25.54205 5.924104 26.1019 6.184478 25.65809 5.685068 26.1019 6.184478 26.2202 5.942687 26.2202 5.942687 26.1019 6.184478 26.49315 6.365814 26.2202 5.942687 26.49315 6.365814 26.49315 6.067001</float_array>
          <technique_common>
            <accessor source="#uv-array" count="318" stride="2">
              <param name="S" type="float" />
              <param name="T" type="float" />
            </accessor>
          </technique_common>
        </source>
        <vertices id="vertices">
          <input semantic="POSITION" source="#positions" />
        </vertices>
        <triangles count="106" material="m0">
          <input semantic="VERTEX" source="#vertices" offset="0" />
          <input semantic="NORMAL" source="#normals" offset="1" />
          <input semantic="TEXCOORD" source="#uv" offset="2" set="0" />
          <p>104 0 0 105 0 1 1 0 2 104 1 3 1 1 4 0 1 5 0 2 6 1 2 7 3 2 8 0 3 9 3 3 10 2 3 11 2 4 12 3 4 13 5 4 14 2 5 15 5 5 16 4 5 17 4 6 18 5 6 19 7 6 20 4 7 21 7 7 22 6 7 23 6 8 24 7 8 25 9 8 26 6 9 27 9 9 28 8 9 29 8 10 30 9 10 31 11 10 32 8 11 33 11 11 34 10 11 35 10 12 36 11 12 37 13 12 38 10 13 39 13 13 40 12 13 41 12 14 42 13 14 43 15 14 44 12 15 45 15 15 46 14 15 47 14 16 48 15 16 49 17 16 50 14 17 51 17 17 52 16 17 53 16 18 54 17 18 55 19 18 56 16 19 57 19 19 58 18 19 59 18 20 60 19 20 61 21 20 62 18 21 63 21 21 64 20 21 65 20 22 66 21 22 67 23 22 68 20 23 69 23 23 70 22 23 71 22 24 72 23 24 73 25 24 74 22 25 75 25 25 76 24 25 77 24 26 78 25 26 79 27 26 80 24 27 81 27 27 82 26 27 83 26 28 84 27 28 85 29 28 86 26 29 87 29 29 88 28 29 89 28 30 90 29 30 91 31 30 92 28 31 93 31 31 94 30 31 95 30 32 96 31 32 97 33 32 98 30 33 99 33 33 100 32 33 101 32 34 102 33 34 103 35 34 104 32 35 105 35 35 106 34 35 107 34 36 108 35 36 109 37 36 110 34 37 111 37 37 112 36 37 113 36 38 114 37 38 115 39 38 116 36 39 117 39 39 118 38 39 119 38 40 120 39 40 121 41 40 122 38 41 123 41 41 124 40 41 125 40 42 126 41 42 127 43 42 128 40 43 129 43 43 130 42 43 131 42 44 132 43 44 133 45 44 134 42 45 135 45 45 136 44 45 137 44 46 138 45 46 139 47 46 140 44 47 141 47 47 142 46 47 143 46 48 144 47 48 145 49 48 146 46 49 147 49 49 148 48 49 149 48 50 150 49 50 151 51 50 152 48 51 153 51 51 154 50 51 155 50 52 156 51 52 157 53 52 158 50 53 159 53 53 160 52 53 161 52 54 162 53 54 163 55 54 164 52 55 165 55 55 166 54 55 167 54 56 168 55 56 169 57 56 170 54 57 171 57 57 172 56 57 173 56 58 174 57 58 175 59 58 176 56 59 177 59 59 178 58 59 179 58 60 180 59 60 181 61 60 182 58 61 183 61 61 184 60 61 185 60 62 186 61 62 187 63 62 188 60 63 189 63 63 190 62 63 191 62 64 192 63 64 193 65 64 194 62 65 195 65 65 196 64 65 197 64 66 198 65 66 199 67 66 200 64 67 201 67 67 202 66 67 203 66 68 204 67 68 205 69 68 206 66 69 207 69 69 208 68 69 209 68 70 210 69 70 211 71 70 212 68 71 213 71 71 214 70 71 215 70 72 216 71 72 217 73 72 218 70 73 219 73 73 220 72 73 221 72 74 222 73 74 223 75 74 224 72 75 225 75 75 226 74 75 227 74 76 228 75 76 229 77 76 230 74 77 231 77 77 232 76 77 233 76 78 234 77 78 235 79 78 236 76 79 237 79 79 238 78 79 239 78 80 240 79 80 241 81 80 242 78 81 243 81 81 244 80 81 245 80 82 246 81 82 247 83 82 248 80 83 249 83 83 250 82 83 251 82 84 252 83 84 253 85 84 254 82 85 255 85 85 256 84 85 257 84 86 258 85 86 259 87 86 260 84 87 261 87 87 262 86 87 263 86 88 264 87 88 265 89 88 266 86 89 267 89 89 268 88 89 269 88 90 270 89 90 271 91 90 272 88 91 273 91 91 274 90 91 275 90 92 276 91 92 277 93 92 278 90 93 279 93 93 280 92 93 281 92 94 282 93 94 283 95 94 284 92 95 285 95 95 286 94 95 287 94 96 288 95 96 289 97 96 290 94 97 291 97 97 292 96 97 293 96 98 294 97 98 295 99 98 296 96 99 297 99 99 298 98 99 299 98 100 300 99 100 301 101 100 302 98 101 303 101 101 304 100 101 305 100 102 306 101 102 307 103 102 308 100 103 309 103 103 310 102 103 311 102 104 312 103 104 313 107 104 314 102 105 315 107 105 316 106 105 317</p>
        </triangles>
      </mesh>
    </geometry>
  </library_geometries>
  <library_visual_scenes>
    <visual_scene id="Scene">
      <node id="Node" type="NODE">
        <instance_geometry url="#geometry">
          <bind_material>
            <technique_common>
              <instance_material symbol="m0" target="#m0">
                <bind_vertex_input semantic="UVSET0" input_semantic="TEXCOORD" input_set="0" />
              </instance_material>
            </technique_common>
          </bind_material>
        </instance_geometry>
      </node>
    </visual_scene>
  </library_visual_scenes>
  <scene>
    <instance_visual_scene url="#Scene" />
  </scene>
</COLLADA>