<?xml version='1.0' encoding='utf-8'?>
<COLLADA xmlns="http://www.collada.org/2005/11/COLLADASchema" version="1.4.1">
  <asset>
    <created>2026-09-08T00:00:00Z</created>
    <modified>2026-09-08T00:00:00Z</modified>
    <unit name="meter" meter="1" />
    <up_axis>Z_UP</up_axis>
  </asset>
  <library_images />
  <library_effects>
    <effect id="e0">
      <profile_COMMON>
        <technique sid="common">
          <phong>
            <ambient>
              <color>0.117 0.10125 0.0675 1</color>
            </ambient>
            <diffuse>
              <color>0.26 0.225 0.15 1</color>
            </diffuse>
            <specular>
              <color>0.02 0.02 0.02 1</color>
            </specular>
            <shininess>
              <float>8</float>
            </shininess>
          </phong>
        </technique>
      </profile_COMMON>
    </effect>
  </library_effects>
  <library_materials>
    <material id="m0" name="m0">
      <instance_effect url="#e0" />
    </material>
  </library_materials>
  <library_geometries>
    <geometry id="geometry" name="2079_right_gravel_bank">
      <mesh>
        <source id="positions">
          <float_array id="positions-array" count="363">9.185853 -8.634658 -2.323512 10.08615 -8.545616 -2.555168 9.442888 -8.143863 -2.317395 10.42553 -7.913379 -2.537131 9.765515 -7.516871 -2.29888 10.84362 -7.136037 -2.519093 10.17174 -6.737312 -2.268382 11.32767 -6.247522 -2.501056 10.64715 -5.841864 -2.251697 11.86888 -5.27627 -2.483019 11.18243 -4.860057 -2.209158 12.46018 -4.248277 -2.464981 11.77054 -3.818238 -2.199078 13.09562 -3.188046 -2.446944 12.40588 -2.740821 -2.1615 13.77039 -2.118869 -2.428907 13.08436 -1.650648 -2.143995 14.48117 -1.062824 -2.41087 13.80378 -0.5689813 -2.098986 15.22705 -0.04046126 -2.392832 14.5651 0.484913 -2.030725 16.01134 0.9296479 -2.374795 15.37479 1.49432 -1.985042 16.82369 1.810001 -2.356758 16.22152 2.417935 -1.970239 17.64243 2.5868 -2.33872 17.07318 3.230585 -1.928677 18.47279 3.298114 -2.320683 17.93171 3.969039 -1.917752 19.32604 3.962145 -2.302646 18.81256 4.656171 -1.839114 20.19798 4.581893 -2.284609 19.71104 5.295093 -1.846083 21.08465 5.16056 -2.266571 20.62283 5.889177 -1.854743 21.98241 5.701488 -2.248534 21.54395 6.44198 -1.849273 22.88783 6.208086 -2.230497 22.47074 6.957144 -1.799297 23.7977 6.683792 -2.21246 23.39983 7.438346 -1.784289 24.70898 7.132023 -2.194422 24.32805 7.88924 -1.747437 25.61878 7.556159 -2.176385 25.25242 8.313436 -1.699416 26.52428 7.959531 -2.158348 26.17008 8.714472 -1.653937 27.43944 8.352997 -2.14031 27.09996 9.105673 -1.591958 28.38211 8.733944 -2.122273 28.06517 9.486629 -1.479434 29.33934 9.085097 -2.104236 29.04795 9.83765 -1.558343 30.29497 9.403388 -2.086199 30.02685 10.15361 -1.482374 31.24956 9.693344 -2.068161 31.00214 10.43928 -1.507204 32.20395 9.959575 -2.050124 31.97447 10.69951 -1.498128 33.15935 10.20674 -2.032087 32.94496 10.93925 -1.517317 34.11724 10.43947 -2.014049 33.91506 11.16337 -1.483266 35.0793 10.66235 -1.996012 34.88655 11.37673 -1.50943 36.04745 10.87992 -1.977975 35.86143 11.58407 -1.479144 37.02373 11.09661 -1.959938 36.84192 11.79005 -1.489957 38.01028 11.3168 -1.9419 37.83035 11.99922 -1.522132 39.03168 11.55066 -1.923863 38.85822 12.22369 -1.558852 40.10324 11.78369 -1.905826 39.94618 12.45026 -1.550905 41.19392 11.99222 -1.887789 41.05482 12.65296 -1.545832 42.28067 12.17958 -1.869751 42.15406 12.8338 -1.559591 43.36469 12.35501 -1.851714 43.24536 13.0024 -1.556811 44.44737 12.52733 -1.833677 44.33042 13.16784 -1.546559 45.53016 12.70494 -1.815639 45.41098 13.3387 -1.351784 46.61451 12.89592 -1.797602 46.48884 13.52311 -1.414939 47.70187 13.10806 -1.779565 47.56577 13.72884 -1.561111 48.7937 13.34894 -1.761528 48.64355 13.96335 -1.447173 49.89149 13.62598 -1.74349 49.72401 14.23393 -1.571646 50.99679 13.94649 -1.725453 50.80904 14.54773 -1.584058 52.1121 14.31812 -1.707416 51.90179 14.91231 -1.563581 53.30915 14.77249 -1.689379 53.07847 15.3608 -1.565589 54.63285 15.32269 -1.671341 54.38677 15.9077 -1.592143 56.04695 15.94836 -1.653304 55.78893 16.53244 -1.503524 57.51595 16.62866 -1.635267 57.24811 17.21375 -1.585273 59.0062 17.34314 -1.617229 58.72999 17.93094 -1.587242 60.48522 18.07164 -1.599192 60.20164 18.66365 -1.564777 61.92118 18.79419 -1.581155 61.63109 19.39178 -1.574388 63.28291 19.49104 -1.563118 62.98714 20.09552 -1.60182 64.53989 20.14272 -1.54508 64.23948 20.75541 -1.637007 65.6628 20.73025 -1.527043 65.35935 21.35266 -1.619503 9.96434 -8.766116 -2.563219 9.389523 -8.766116 -2.404568 66.23288 21.02981 -1.516356 66.23288 21.82237 -1.495597</float_array>
          <technique_common>
            <accessor source="#positions-array" count="121" stride="3">
              <param name="X" type="float" />
              <param name="Y" type="float" />
              <param name="Z" type="float" />
            </accessor>
          </technique_common>
        </source>
        <source id="normals">
          <float_array id="normals-array" count="357">-0.2617473 0.179219 -0.9483506 -0.2601616 0.1481408 -0.9541333 -0.2617474 0.1792188 -0.9483506 -0.2536085 0.1586749 -0.9542039 -0.2483623 0.1605745 -0.9552654 -0.2455001 0.1652992 -0.9551994 -0.2593903 0.1616062 -0.9521555 -0.2621714 0.1569324 -0.9521756 -0.2551207 0.1583497 -0.9538547 -0.2451202 0.174955 -0.9535758 -0.2742616 0.1704025 -0.9464373 -0.2771647 0.165617 -0.9464411 -0.2620573 0.167411 -0.9504207 -0.2527613 0.1821942 -0.9502194 -0.2740319 0.1803101 -0.9446665 -0.2715306 0.1841554 -0.944647 -0.2669541 0.1844351 -0.945896 -0.2516041 0.2066868 -0.945503 -0.2816488 0.2055744 -0.937237 -0.2533811 0.2436767 -0.9361729 -0.3102828 0.2425866 -0.9191715 -0.2868824 0.2716962 -0.9186293 -0.3154435 0.2719266 -0.9091487 -0.2998314 0.2894402 -0.9090245 -0.2930803 0.2891128 -0.9113275 -0.2611641 0.3202729 -0.9106144 -0.2857685 0.3221564 -0.9025251 -0.2742921 0.332243 -0.9024292 -0.2639919 0.331144 -0.9058984 -0.2103426 0.3730601 -0.9036494 -0.2787903 0.3821661 -0.8810363 -0.2786632 0.3822599 -0.8810359 -0.2499321 0.3775828 -0.8916082 -0.2530885 0.3754374 -0.8916238 -0.2224832 0.3690328 -0.9023946 -0.2178546 0.3719321 -0.9023336 -0.2037599 0.368418 -0.9070557 -0.1674992 0.389208 -0.9057931 -0.2058033 0.3996267 -0.8932768 -0.1954687 0.4052571 -0.8930614 -0.1939328 0.4048125 -0.8935977 -0.1676882 0.4181729 -0.8927553 -0.1918098 0.4255518 -0.8843725 -0.1570706 0.4422392 -0.8830364 -0.1942994 0.4537676 -0.8696797 -0.161793 0.4686975 -0.8684156 -0.1964838 0.4793212 -0.8553627 -0.1528222 0.4984545 -0.8533396 -0.2047334 0.5143655 -0.8327739 -0.1200797 0.5486298 -0.8273972 -0.2188575 0.5787702 -0.785574 -0.2631205 0.5600959 -0.7855318 -0.1792773 0.5312343 -0.8280397 -0.1147492 0.5538005 -0.8247046 -0.1774103 0.5777989 -0.7966643 -0.1884223 0.5740245 -0.7968644 -0.1548662 0.560457 -0.813575 -0.1433608 0.5640117 -0.8132272 -0.1417472 0.5632919 -0.8140086 -0.1543308 0.5595879 -0.8142748 -0.1254972 0.545576 -0.8286117 -0.09863965 0.5526803 -0.8275353 -0.1217954 0.5645595 -0.8163568 -0.1446546 0.5584973 -0.816796 -0.1092787 0.5392687 -0.8350134 -0.08978636 0.544014 -0.8342585 -0.1094036 0.5551873 -0.8244986 -0.124924 0.5513492 -0.8248685 -0.1042192 0.5391152 -0.8357591 -0.1394347 0.5302478 -0.8362986 -0.09653718 0.5028945 -0.8589399 -0.1381937 0.4922151 -0.859434 -0.08901413 0.4570257 -0.8849881 -0.08872501 0.4570962 -0.8849808 -0.08355759 0.4529366 -0.8876185 -0.0789438 0.4539681 -0.8875139 -0.07065437 0.4467049 -0.8918871 -0.08420061 0.4439551 -0.8920842 -0.0571326 0.4186387 -0.906354 -0.06222181 0.4177002 -0.9064519 -0.05057095 0.4062824 -0.9123471 -0.05325621 0.4058131 -0.9124032 -0.04860763 0.401159 -0.9147178 0.09584911 0.4216843 -0.9016625 -0.08139638 0.5786421 -0.8115097 -0.1444707 0.5665839 -0.8112404 -0.07525929 0.5083243 -0.8578709 -0.2072705 0.4789245 -0.8530359 -0.04720852 0.3223561 -0.9454406 0.02618042 0.3369399 -0.9411621 -0.08184913 0.4380298 -0.8952266 -0.2042647 0.4058585 -0.8908169 -0.04951483 0.2590145 -0.9646034 -0.08326558 0.2497507 -0.9647235 -0.04640516 0.2149269 -0.975527 -0.05277011 0.2129644 -0.9756339 -0.05622771 0.2160578 -0.9747602 -0.08072235 0.2074254 -0.9749147 -0.05534667 0.1847647 -0.9812231 -0.09125363 0.1706587 -0.9810955 -0.03601488 0.1191753 -0.9922198 0.002406581 0.1351476 -0.9908226 -0.08200902 0.2134171 -0.9735131 -0.1416465 0.1867212 -0.9721479 -0.02244877 0.0749069 -0.9969378 -0.03483541 0.06924144 -0.9969915 -0.01007233 0.04622596 -0.9988802 -0.008203697 0.04710283 -0.9988564 -0.01328145 0.05168849 -0.9985749 -0.02916786 0.04408051 -0.9986021 0.005514977 0.01400018 -0.9998868 -0.02084866 0.001201139 -0.9997819 0.03673346 -0.04594189 -0.9982685 0.00447543 -0.061714 -0.9980838 0.07279529 -0.1129837 -0.9909266 0.07513025 -0.1118322 -0.9908829 0.07405719 -0.1111154 -0.9910443 0.1726895 -0.0618384 -0.9830332 0.004981077 0.02618299 -0.9996448</float_array>
          <technique_common>
            <accessor source="#normals-array" count="119" stride="3">
              <param name="X" type="float" />
              <param name="Y" type="float" />
              <param name="Z" type="float" />
            </accessor>
          </technique_common>
        </source>
        <source id="uv">
          <float_array id="uv-array" count="714">3.985736 -3.506446 3.755809 -3.506446 3.674341 -3.453863 3.674341 -3.453863 3.777155 -3.257545 4.034458 -3.418247 3.674341 -3.453863 4.034458 -3.418247 3.985736 -3.506446 4.034458 -3.418247 3.777155 -3.257545 3.906206 -3.006748 4.034458 -3.418247 3.906206 -3.006748 4.170213 -3.165352 4.170213 -3.165352 3.906206 -3.006748 4.068698 -2.694925 4.170213 -3.165352 4.068698 -2.694925 4.33745 -2.854415 4.33745 -2.854415 4.068698 -2.694925 4.258859 -2.336746 4.33745 -2.854415 4.258859 -2.336746 4.53107 -2.499009 4.53107 -2.499009 4.258859 -2.336746 4.472971 -1.944023 4.53107 -2.499009 4.472971 -1.944023 4.747553 -2.110508 4.747553 -2.110508 4.472971 -1.944023 4.708214 -1.527295 4.747553 -2.110508 4.708214 -1.527295 4.984073 -1.699311 4.984073 -1.699311 4.708214 -1.527295 4.962353 -1.096329 4.984073 -1.699311 4.962353 -1.096329 5.238249 -1.275219 5.238249 -1.275219 4.962353 -1.096329 5.233742 -0.6602593 5.238249 -1.275219 5.233742 -0.6602593 5.508157 -0.8475475 5.508157 -0.8475475 5.233742 -0.6602593 5.521511 -0.2275925 5.508157 -0.8475475 5.521511 -0.2275925 5.792469 -0.4251298 5.792469 -0.4251298 5.521511 -0.2275925 5.826041 0.1939652 5.792469 -0.4251298 5.826041 0.1939652 6.090819 -0.0161845 6.090819 -0.0161845 5.826041 0.1939652 6.149917 0.5977278 6.090819 -0.0161845 6.149917 0.5977278 6.404536 0.3718592 6.404536 0.3718592 6.149917 0.5977278 6.488608 0.9671738 6.404536 0.3718592 6.488608 0.9671738 6.729475 0.7240002 6.729475 0.7240002 6.488608 0.9671738 6.829273 1.292234 6.729475 0.7240002 6.829273 1.292234 7.056974 1.03472 7.056974 1.03472 6.829273 1.292234 7.172683 1.587616 7.056974 1.03472 7.172683 1.587616 7.389117 1.319246 7.389117 1.319246 7.172683 1.587616 7.525023 1.862468 7.389117 1.319246 7.525023 1.862468 7.730418 1.584858 7.730418 1.584858 7.525023 1.862468 7.884416 2.118037 7.730418 1.584858 7.884416 2.118037 8.079191 1.832757 8.079191 1.832757 7.884416 2.118037 8.249131 2.355671 8.079191 1.832757 8.249131 2.355671 8.433861 2.064224 8.433861 2.064224 8.249131 2.355671 8.617579 2.576792 8.433861 2.064224 8.617579 2.576792 8.792964 2.280595 8.792964 2.280595 8.617579 2.576792 8.988296 2.782858 8.792964 2.280595 8.988296 2.782858 9.155131 2.483234 9.155131 2.483234 8.988296 2.782858 9.359932 2.975338 9.155131 2.483234 9.359932 2.975338 9.519079 2.673517 9.519079 2.673517 9.359932 2.975338 9.731221 3.155696 9.519079 2.673517 9.731221 3.155696 9.883594 2.852809 9.883594 2.852809 9.731221 3.155696 10.10097 3.325374 9.883594 2.852809 10.10097 3.325374 10.24751 3.022464 10.24751 3.022464 10.10097 3.325374 10.46803 3.485789 10.24751 3.022464 10.46803 3.485789 10.60971 3.183812 10.60971 3.183812 10.46803 3.485789 10.83998 3.642269 10.60971 3.183812 10.83998 3.642269 10.97578 3.341199 10.97578 3.341199 10.83998 3.642269 11.22607 3.794652 10.97578 3.341199 11.22607 3.794652 11.35285 3.493577 11.35285 3.493577 11.22607 3.794652 11.61918 3.93506 11.35285 3.493577 11.61918 3.93506 11.73574 3.634039 11.73574 3.634039 11.61918 3.93506 12.01074 4.061444 11.73574 3.634039 12.01074 4.061444 12.11799 3.761355 12.11799 3.761355 12.01074 4.061444 12.40085 4.175711 12.11799 3.761355 12.40085 4.175711 12.49982 3.877337 12.49982 3.877337 12.40085 4.175711 12.78979 4.279805 12.49982 3.877337 12.78979 4.279805 12.88158 3.98383 12.88158 3.98383 12.78979 4.279805 13.17798 4.375698 12.88158 3.98383 13.17798 4.375698 13.26374 4.082695 13.26374 4.082695 13.17798 4.375698 13.56603 4.465348 13.26374 4.082695 13.56603 4.465348 13.6469 4.175787 13.6469 4.175787 13.56603 4.465348 13.95462 4.55069 13.6469 4.175787 13.95462 4.55069 14.03172 4.264941 14.03172 4.264941 13.95462 4.55069 14.34457 4.633628 14.03172 4.264941 14.34457 4.633628 14.41898 4.351968 14.41898 4.351968 14.34457 4.633628 14.73677 4.71602 14.41898 4.351968 14.73677 4.71602 14.80949 4.438645 14.80949 4.438645 14.73677 4.71602 15.13214 4.799689 14.80949 4.438645 15.13214 4.799689 15.20411 4.52672 15.20411 4.52672 15.13214 4.799689 15.54329 4.889476 15.20411 4.52672 15.54329 4.889476 15.61267 4.620265 15.61267 4.620265 15.54329 4.889476 15.97847 4.980102 15.61267 4.620265 15.97847 4.980102 16.0413 4.713478 16.0413 4.713478 15.97847 4.980102 16.42193 5.061185 16.0413 4.713478 16.42193 5.061185 16.47757 4.796886 16.47757 4.796886 16.42193 5.061185 16.86162 5.133519 16.47757 4.796886 16.86162 5.133519 16.91227 4.871831 16.91227 4.871831 16.86162 5.133519 17.29815 5.200958 16.91227 4.871831 17.29815 5.200958 17.34588 4.942006 17.34588 4.942006 17.29815 5.200958 17.73217 5.267136 17.34588 4.942006 17.73217 5.267136 17.77895 5.010931 17.77895 5.010931 17.73217 5.267136 18.16439 5.335481 17.77895 5.010931 18.16439 5.335481 18.21206 5.081975 18.21206 5.081975 18.16439 5.335481 18.59554 5.409246 18.21206 5.081975 18.59554 5.409246 18.6458 5.158368 18.6458 5.158368 18.59554 5.409246 19.02631 5.491536 18.6458 5.158368 19.02631 5.491536 19.08075 5.243226 19.08075 5.243226 19.02631 5.491536 19.45742 5.585341 19.08075 5.243226 19.45742 5.585341 19.51748 5.339578 19.51748 5.339578 19.45742 5.585341 19.8896 5.693572 19.51748 5.339578 19.8896 5.693572 19.9566 5.450391 19.9566 5.450391 19.8896 5.693572 20.32362 5.819093 19.9566 5.450391 20.32362 5.819093 20.39872 5.578598 20.39872 5.578598 20.32362 5.819093 20.76072 5.964925 20.39872 5.578598 20.76072 5.964925 20.84484 5.727249 20.84484 5.727249 20.76072 5.964925 21.23139 6.144318 20.84484 5.727249 21.23139 6.144318 21.32366 5.908997 21.32366 5.908997 21.23139 6.144318 21.75471 6.363082 21.32366 5.908997 21.75471 6.363082 21.85314 6.129076 21.85314 6.129076 21.75471 6.363082 22.31557 6.612975 21.85314 6.129076 22.31557 6.612975 22.41878 6.379344 22.41878 6.379344 22.31557 6.612975 22.89925 6.885502 22.41878 6.379344 22.89925 6.885502 23.00638 6.651463 23.00638 6.651463 22.89925 6.885502 23.49199 7.172377 23.00638 6.651463 23.49199 7.172377 23.60248 6.937255 23.60248 6.937255 23.49199 7.172377 24.08066 7.465459 23.60248 6.937255 24.08066 7.465459 24.19409 7.228655 24.19409 7.228655 24.08066 7.465459 24.65244 7.756711 24.19409 7.228655 24.65244 7.756711 24.76847 7.517675 24.76847 7.517675 24.65244 7.756711 25.19485 8.038207 24.76847 7.517675 25.19485 8.038207 25.31316 7.796417 25.31316 7.796417 25.19485 8.038207 25.69579 8.302164 25.31316 7.796417 25.69579 8.302164 25.81596 8.057087 25.81596 8.057087 25.69579 8.302164 26.14374 8.541064 25.81596 8.057087 26.14374 8.541064 26.26512 8.2921 26.26512 8.2921 26.14374 8.541064 26.49315 8.728947 26.26512 8.2921 26.49315 8.728947 26.49315 8.411925</float_array>
          <technique_common>
            <accessor source="#uv-array" count="357" stride="2">
              <param name="S" type="float" />
              <param name="T" type="float" />
            </accessor>
          </technique_common>
        </source>
        <vertices id="vertices">
          <input semantic="POSITION" source="#positions" />
        </vertices>
        <triangles count="119" material="m0">
          <input semantic="VERTEX" source="#vertices" offset="0" />
          <input semantic="NORMAL" source="#normals" offset="1" />
          <input semantic="TEXCOORD" source="#uv" offset="2" set="0" />
          <p>117 0 0 118 0 1 0 0 2 0 1 3 2 1 4 1 1 5 0 2 6 1 2 7 117 2 8 1 3 9 2 3 10 4 3 11 1 4 12 4 4 13 3 4 14 3 5 15 4 5 16 6 5 17 3 6 18 6 6 19 5 6 20 5 7 21 6 7 22 8 7 23 5 8 24 8 8 25 7 8 26 7 9 27 8 9 28 10 9 29 7 10 30 10 10 31 9 10 32 9 11 33 10 11 34 12 11 35 9 12 36 12 12 37 11 12 38 11 13 39 12 13 40 14 13 41 11 14 42 14 14 43 13 14 44 13 15 45 14 15 46 16 15 47 13 16 48 16 16 49 15 16 50 15 17 51 16 17 52 18 17 53 15 18 54 18 18 55 17 18 56 17 19 57 18 19 58 20 19 59 17 20 60 20 20 61 19 20 62 19 21 63 20 21 64 22 21 65 19 22 66 22 22 67 21 22 68 21 23 69 22 23 70 24 23 71 21 24 72 24 24 73 23 24 74 23 25 75 24 25 76 26 25 77 23 26 78 26 26 79 25 26 80 25 27 81 26 27 82 28 27 83 25 28 84 28 28 85 27 28 86 27 29 87 28 29 88 30 29 89 27 30 90 30 30 91 29 30 92 29 31 93 30 31 94 32 31 95 29 32 96 32 32 97 31 32 98 31 33 99 32 33 100 34 33 101 31 34 102 34 34 103 33 34 104 33 35 105 34 35 106 36 35 107 33 36 108 36 36 109 35 36 110 35 37 111 36 37 112 38 37 113 35 38 114 38 38 115 37 38 116 37 39 117 38 39 118 40 39 119 37 40 120 40 40 121 39 40 122 39 41 123 40 41 124 42 41 125 39 42 126 42 42 127 41 42 128 41 43 129 42 43 130 44 43 131 41 44 132 44 44 133 43 44 134 43 45 135 44 45 136 46 45 137 43 46 138 46 46 139 45 46 140 45 47 141 46 47 142 48 47 143 45 48 144 48 48 145 47 48 146 47 49 147 48 49 148 50 49 149 47 50 150 50 50 151 49 50 152 49 51 153 50 51 154 52 51 155 49 52 156 52 52 157 51 52 158 51 53 159 52 53 160 54 53 161 51 54 162 54 54 163 53 54 164 53 55 165 54 55 166 56 55 167 53 56 168 56 56 169 55 56 170 55 57 171 56 57 172 58 57 173 55 58 174 58 58 175 57 58 176 57 59 177 58 59 178 60 59 179 57 60 180 60 60 181 59 60 182 59 61 183 60 61 184 62 61 185 59 62 186 62 62 187 61 62 188 61 63 189 62 63 190 64 63 191 61 64 192 64 64 193 63 64 194 63 65 195 64 65 196 66 65 197 63 66 198 66 66 199 65 66 200 65 67 201 66 67 202 68 67 203 65 68 204 68 68 205 67 68 206 67 69 207 68 69 208 70 69 209 67 70 210 70 70 211 69 70 212 69 71 213 70 71 214 72 71 215 69 72 216 72 72 217 71 72 218 71 73 219 72 73 220 74 73 221 71 74 222 74 74 223 73 74 224 73 75 225 74 75 226 76 75 227 73 76 228 76 76 229 75 76 230 75 77 231 76 77 232 78 77 233 75 78 234 78 78 235 77 78 236 77 79 237 78 79 238 80 79 239 77 80 240 80 80 241 79 80 242 79 81 243 80 81 244 82 81 245 79 82 246 82 82 247 81 82 248 81 83 249 82 83 250 84 83 251 81 84 252 84 84 253 83 84 254 83 85 255 84 85 256 86 85 257 83 86 258 86 86 259 85 86 260 85 87 261 86 87 262 88 87 263 85 88 264 88 88 265 87 88 266 87 89 267 88 89 268 90 89 269 87 90 270 90 90 271 89 90 272 89 91 273 90 91 274 92 91 275 89 92 276 92 92 277 91 92 278 91 93 279 92 93 280 94 93 281 91 94 282 94 94 283 93 94 284 93 95 285 94 95 286 96 95 287 93 96 288 96 96 289 95 96 290 95 97 291 96 97 292 98 97 293 95 98 294 98 98 295 97 98 296 97 99 297 98 99 298 100 99 299 97 100 300 100 100 301 99 100 302 99 101 303 100 101 304 102 101 305 99 102 306 102 102 307 101 102 308 101 103 309 102 103 310 104 103 311 101 104 312 104 104 313 103 104 314 103 105 315 104 105 316 106 105 317 103 106 318 106 106 319 105 106 320 105 107 321 106 107 322 108 107 323 105 108 324 108 108 325 107 108 326 107 109 327 108 109 328 110 109 329 107 110 330 110 110 331 109 110 332 109 111 333 110 111 334 112 111 335 109 112 336 112 112 337 111 112 338 111 113 339 112 113 340 114 113 341 111 114 342 114 114 343 113 114 344 113 115 345 114 115 346 116 115 347 113 116 348 116 116 349 115 116 350 115 117 351 116 117 352 120 117 353 115 118 354 120 118 355 119 118 356</p>
        </triangles>
      </mesh>
    </geometry>
  </library_geometries>
  <library_visual_scenes>
    <visual_scene id="Scene">
      <node id="Node" type="NODE">
        <instance_geometry url="#geometry">
          <bind_material>
            <technique_common>
              <instance_material symbol="m0" target="#m0">
                <bind_vertex_input semantic="UVSET0" input_semantic="TEXCOORD" input_set="0" />
              </instance_material>
            </technique_common>
          </bind_material>
        </instance_geometry>
      </node>
    </visual_scene>
  </library_visual_scenes>
  <scene>
    <instance_visual_scene url="#Scene" />
  </scene>
</COLLADA>