<?xml version='1.0' encoding='utf-8'?>
<COLLADA xmlns="http://www.collada.org/2005/11/COLLADASchema" version="1.4.1">
  <asset>
    <created>2026-09-15T00:00:00Z</created>
    <modified>2026-09-15T00:00:00Z</modified>
    <unit name="meter" meter="1" />
    <up_axis>Z_UP</up_axis>
  </asset>
  <library_images />
  <library_effects>
    <effect id="e0">
      <profile_COMMON>
        <technique sid="common">
          <phong>
            <ambient>
              <color>0.225 0.225 0.225 1</color>
            </ambient>
            <diffuse>
              <color>0.5 0.5 0.5 1</color>
            </diffuse>
            <specular>
              <color>0.02 0.02 0.02 1</color>
            </specular>
            <shininess>
              <float>8</float>
            </shininess>
          </phong>
        </technique>
      </profile_COMMON>
    </effect>
  </library_effects>
  <library_materials>
    <material id="m0" name="m0">
      <instance_effect url="#e0" />
    </material>
  </library_materials>
  <library_geometries>
    <geometry id="geometry" name="canopy_5_0">
      <mesh>
        <source id="positions">
          <float_array id="positions-array" count="39">-3.026881 1.531143 8.736346 -1.403792 -4.21339 7.087076 -3.319685 0.6133915 8.144373 -2.968865 -2.202384 7.927845 -1.880289 -0.3453263 6.992959 -0.7831273 2.83161 9.443653 -0.7920714 2.851078 9.597935 -2.275713 4.839818 8.187913 -0.6947734 2.70249 7.965344 -0.7787722 2.856023 6.281209 -1.326133 -2.601726 10.85685 -2.466193 -4.014441 8.855651 -1.18795 0.4780727 10.23761</float_array>
          <technique_common>
            <accessor source="#positions-array" count="13" stride="3">
              <param name="X" type="float" />
              <param name="Y" type="float" />
              <param name="Z" type="float" />
            </accessor>
          </technique_common>
        </source>
        <source id="normals">
          <float_array id="normals-array" count="66">0.4238554 -0.8359365 0.3486499 0.9941698 -0.1050238 0.02441961 0.9943999 -0.08205758 0.0665993 0.9943378 -0.08169915 0.0679535 0.4840166 0.1515701 0.861832 -0.5543261 0.1878994 0.8108122 -0.8432244 -0.07379916 0.5324718 -0.7915813 -0.4378392 -0.4262579 -0.8436489 -0.07385672 0.5317911 -0.9586077 -0.1385617 0.2487407 0.9938233 -0.09449828 -0.05818333 -0.5574778 -0.08875852 -0.8254335 -0.3891876 -0.07029108 -0.9184728 0.8571384 0.5150691 0.004204755 0.996912 -0.04605258 0.06360466 0.8001251 0.5998191 0.004102493 -0.4136845 0.3006587 0.8593425 -0.5205719 0.2533377 0.815368 -0.9652411 0.2372963 0.1095449 -0.6323234 -0.01922704 -0.7744659 -0.677891 0.1748026 -0.7140783 -0.6103641 0.0340656 -0.7913882</float_array>
          <technique_common>
            <accessor source="#normals-array" count="22" stride="3">
              <param name="X" type="float" />
              <param name="Y" type="float" />
              <param name="Z" type="float" />
            </accessor>
          </technique_common>
        </source>
        <source id="uv">
          <float_array id="uv-array" count="132">-0.9864773 3.54226 -0.5615169 2.83483 -0.5304531 4.342741 -1.685356 2.83483 1.080996 3.186138 -1.04069 4.342741 1.080996 3.186138 1.132644 3.777461 -1.04069 4.342741 1.132644 3.777461 1.140431 3.839174 -1.04069 4.342741 -0.3168286 1.140431 -0.47518 0.1912291 -0.5304531 -1.04069 -0.47518 0.1912291 -1.210752 0.6124573 -0.5304531 -1.04069 0.6124573 3.494538 -1.605776 3.54226 -1.04069 4.342741 -0.8809535 3.171138 -1.685356 2.83483 -1.605776 3.54226 0.6124573 3.494538 0.2453566 3.257749 -1.605776 3.54226 0.2453566 3.257749 -0.8809535 3.171138 -1.605776 3.54226 1.142409 2.512484 1.080996 3.186138 -1.685356 2.83483 -1.187546 -0.8809535 -0.7521157 -0.1381305 -0.5615169 -1.685356 -0.7521157 -0.1381305 -0.3115089 1.142409 -0.5615169 -1.685356 1.142409 2.512484 1.140431 3.839174 1.080996 3.186138 1.140431 3.839174 1.132644 3.777461 1.080996 3.186138 1.142409 2.512484 1.935927 3.275165 1.140431 3.839174 -0.9102854 1.935927 -0.47518 0.1912291 -0.3168286 1.140431 -0.9102854 1.935927 -1.210752 0.6124573 -0.47518 0.1912291 1.935927 3.275165 0.2453566 3.257749 0.6124573 3.494538 -1.327874 0.2453566 -0.7521157 -0.1381305 -1.187546 -0.8809535 -0.9102854 1.935927 -0.3115089 1.142409 -1.327874 0.2453566 -0.3115089 1.142409 -0.7521157 -0.1381305 -1.327874 0.2453566</float_array>
          <technique_common>
            <accessor source="#uv-array" count="66" stride="2">
              <param name="S" type="float" />
              <param name="T" type="float" />
            </accessor>
          </technique_common>
        </source>
        <vertices id="vertices">
          <input semantic="POSITION" source="#positions" />
        </vertices>
        <triangles count="22" material="m0">
          <input semantic="VERTEX" source="#vertices" offset="0" />
          <input semantic="NORMAL" source="#normals" offset="1" />
          <input semantic="TEXCOORD" source="#uv" offset="2" set="0" />
          <p>11 0 0 1 0 1 10 0 2 1 1 3 8 1 4 10 1 5 8 2 6 5 2 7 10 2 8 5 3 9 6 3 10 10 3 11 6 4 12 12 4 13 10 4 14 12 5 15 0 5 16 10 5 17 0 6 18 11 6 19 10 6 20 3 7 21 1 7 22 11 7 23 0 8 24 2 8 25 11 8 26 2 9 27 3 9 28 11 9 29 9 10 30 8 10 31 1 10 32 3 11 33 4 11 34 1 11 35 4 12 36 9 12 37 1 12 38 9 13 39 6 13 40 8 13 41 6 14 42 5 14 43 8 14 44 9 15 45 7 15 46 6 15 47 7 16 48 12 16 49 6 16 50 7 17 51 0 17 52 12 17 53 7 18 54 2 18 55 0 18 56 2 19 57 4 19 58 3 19 59 7 20 60 9 20 61 2 20 62 9 21 63 4 21 64 2 21 65</p>
        </triangles>
      </mesh>
    </geometry>
  </library_geometries>
  <library_visual_scenes>
    <visual_scene id="Scene">
      <node id="Node" type="NODE">
        <instance_geometry url="#geometry">
          <bind_material>
            <technique_common>
              <instance_material symbol="m0" target="#m0">
                <bind_vertex_input semantic="UVSET0" input_semantic="TEXCOORD" input_set="0" />
              </instance_material>
            </technique_common>
          </bind_material>
        </instance_geometry>
      </node>
    </visual_scene>
  </library_visual_scenes>
  <scene>
    <instance_visual_scene url="#Scene" />
  </scene>
</COLLADA>