<?xml version='1.0' encoding='utf-8'?>
<COLLADA xmlns="http://www.collada.org/2005/11/COLLADASchema" version="1.4.1">
  <asset>
    <created>2026-09-08T00:00:00Z</created>
    <modified>2026-09-08T00:00:00Z</modified>
    <unit name="meter" meter="1" />
    <up_axis>Z_UP</up_axis>
  </asset>
  <library_images />
  <library_effects>
    <effect id="e0">
      <profile_COMMON>
        <technique sid="common">
          <phong>
            <ambient>
              <color>0.225 0.225 0.225 1</color>
            </ambient>
            <diffuse>
              <color>0.5 0.5 0.5 1</color>
            </diffuse>
            <specular>
              <color>0.02 0.02 0.02 1</color>
            </specular>
            <shininess>
              <float>8</float>
            </shininess>
          </phong>
        </technique>
      </profile_COMMON>
    </effect>
  </library_effects>
  <library_materials>
    <material id="m0" name="m0">
      <instance_effect url="#e0" />
    </material>
  </library_materials>
  <library_geometries>
    <geometry id="geometry" name="canopy_0_1">
      <mesh>
        <source id="positions">
          <float_array id="positions-array" count="51">1.385152 -0.7152692 11.28466 2.874488 1.055817 9.856178 2.807702 -2.068301 10.04297 0.7807598 2.83406 7.977087 1.09074 -1.620976 9.021626 2.67437 1.28617 10.16389 2.684522 1.905302 8.751994 2.667699 1.253299 7.601696 1.710499 -3.261363 6.916026 1.807722 -3.104949 8.300955 2.100672 -3.375063 6.051482 1.795361 -3.084309 5.379752 0.3955645 1.825255 10.00647 0.4022272 1.823373 10.28942 1.82466 2.993348 8.059511 0.3947448 1.826306 7.206681 0.3411424 1.850637 7.575573</float_array>
          <technique_common>
            <accessor source="#positions-array" count="17" stride="3">
              <param name="X" type="float" />
              <param name="Y" type="float" />
              <param name="Z" type="float" />
            </accessor>
          </technique_common>
        </source>
        <source id="normals">
          <float_array id="normals-array" count="90">-0.7854171 -0.5326159 0.3153416 -0.2231801 -0.7760143 0.5899089 0.6570206 -0.001060209 0.7538719 0.1466152 0.4097373 0.900344 -0.9344765 -0.2715485 0.2302499 -0.9627478 -0.2573972 -0.08284594 -0.8714063 -0.4768842 0.1150326 -0.9788045 -0.2036445 0.02169368 -0.9789513 -0.2031316 0.01979542 -0.9654409 -0.2452229 -0.08825872 -0.03535947 -0.9927814 0.1146071 0.5510447 -0.8170035 0.1698676 0.9859413 -0.06996607 -0.1517382 0.9952432 -0.02687452 -0.09364125 0.8430286 0.01412621 0.5376832 0.8595699 0.4656973 0.2103938 0.6380399 0.7034844 0.3130733 0.2198492 0.7991263 0.5595207 -0.1686443 0.9130063 0.3714548 -0.9163666 0.3995812 0.02464045 -0.9559466 0.2925201 0.02445577 0.2124363 0.3933774 -0.8944971 0.3157086 0.3815353 -0.8687686 0.9139496 0.02372542 -0.4051335 -0.5245844 -0.8419806 -0.126015 -0.9653956 -0.2287776 -0.1251883 -0.8760316 0.4558578 -0.15736 0.8319044 0.4774546 -0.2827935 0.9899017 0.1166247 -0.0805815 -0.03155349 0.6146338 -0.7881812</float_array>
          <technique_common>
            <accessor source="#normals-array" count="30" stride="3">
              <param name="X" type="float" />
              <param name="Y" type="float" />
              <param name="Z" type="float" />
            </accessor>
          </technique_common>
        </source>
        <source id="uv">
          <float_array id="uv-array" count="180">-0.6483906 3.608651 -1.24198 3.320382 -0.2861077 4.513866 0.7230888 3.320382 1.123081 4.017188 0.5540608 4.513866 1.123081 -0.8273204 1.069748 0.5144681 0.5540608 -0.2861077 1.069748 0.5144681 0.1608909 0.7293492 0.5540608 -0.2861077 0.7293492 4.115767 -0.6483906 3.608651 -0.2861077 4.513866 -1.233724 2.151901 -1.304545 2.76641 -0.6483906 3.608651 -1.304545 2.76641 -1.24198 3.320382 -0.6483906 3.608651 0.7293492 4.115767 0.7301021 4.002588 -0.6483906 3.608651 0.7301021 4.002588 0.740255 3.030229 -0.6483906 3.608651 0.740255 3.030229 -1.233724 2.151901 -0.6483906 3.608651 0.6841997 2.76641 0.8402688 2.420593 0.7230888 3.320382 0.8402688 2.420593 1.123081 4.017188 0.7230888 3.320382 -1.350025 2.420593 0.5013195 3.040678 -0.8273204 4.017188 0.5013195 3.040678 0.4223269 3.942471 -0.8273204 4.017188 0.4223269 3.942471 0.5144681 4.065556 -0.8273204 4.017188 0.4223269 3.942471 0.7621207 3.500798 0.5144681 4.065556 1.073809 3.500798 0.7298642 3.223804 1.069748 4.065556 0.7298642 3.223804 0.1608909 4.115767 1.069748 4.065556 0.7298642 3.223804 0.3123039 3.190835 0.1608909 4.115767 1.133624 3.190835 0.740255 3.030229 0.7293492 4.115767 0.740255 3.030229 0.7301021 4.002588 0.7293492 4.115767 0.1578979 0.7305225 0.7298642 1.197339 0.7181445 -1.233724 0.7298642 1.197339 1.067079 0.5013195 0.7181445 -1.233724 0.5013195 3.040678 -1.350025 2.420593 -1.233724 2.151901 0.8402688 2.420593 0.6841997 2.76641 0.7181445 2.151901 0.740255 3.030229 0.7305225 2.882673 -1.233724 2.151901 1.133624 3.190835 0.7305225 2.882673 0.740255 3.030229 1.197339 3.223804 0.7621207 3.500798 0.5013195 3.040678 0.7621207 3.500798 0.4223269 3.942471 0.5013195 3.040678 0.1578979 0.7305225 0.3123039 1.133624 0.7298642 1.197339</float_array>
          <technique_common>
            <accessor source="#uv-array" count="90" stride="2">
              <param name="S" type="float" />
              <param name="T" type="float" />
            </accessor>
          </technique_common>
        </source>
        <vertices id="vertices">
          <input semantic="POSITION" source="#positions" />
        </vertices>
        <triangles count="30" material="m0">
          <input semantic="VERTEX" source="#vertices" offset="0" />
          <input semantic="NORMAL" source="#normals" offset="1" />
          <input semantic="TEXCOORD" source="#uv" offset="2" set="0" />
          <p>4 0 0 9 0 1 0 0 2 9 1 3 2 1 4 0 1 5 2 2 6 5 2 7 0 2 8 5 3 9 13 3 10 0 3 11 13 4 12 4 4 13 0 4 14 11 5 15 8 5 16 4 5 17 8 6 18 9 6 19 4 6 20 13 7 21 12 7 22 4 7 23 12 8 24 16 8 25 4 8 26 16 9 27 11 9 28 4 9 29 8 10 30 10 10 31 9 10 32 10 11 33 2 11 34 9 11 35 10 12 36 7 12 37 2 12 38 7 13 39 1 13 40 2 13 41 1 14 42 5 14 43 2 14 44 1 15 45 6 15 46 5 15 47 6 16 48 14 16 49 5 16 50 14 17 51 13 17 52 5 17 53 14 18 54 3 18 55 13 18 56 3 19 57 16 19 58 13 19 59 16 20 60 12 20 61 13 20 62 15 21 63 14 21 64 11 21 65 14 22 66 7 22 67 11 22 68 7 23 69 10 23 70 11 23 71 10 24 72 8 24 73 11 24 74 16 25 75 15 25 76 11 25 77 3 26 78 15 26 79 16 26 80 14 27 81 6 27 82 7 27 83 6 28 84 1 28 85 7 28 86 15 29 87 3 29 88 14 29 89</p>
        </triangles>
      </mesh>
    </geometry>
  </library_geometries>
  <library_visual_scenes>
    <visual_scene id="Scene">
      <node id="Node" type="NODE">
        <instance_geometry url="#geometry">
          <bind_material>
            <technique_common>
              <instance_material symbol="m0" target="#m0">
                <bind_vertex_input semantic="UVSET0" input_semantic="TEXCOORD" input_set="0" />
              </instance_material>
            </technique_common>
          </bind_material>
        </instance_geometry>
      </node>
    </visual_scene>
  </library_visual_scenes>
  <scene>
    <instance_visual_scene url="#Scene" />
  </scene>
</COLLADA>