<?xml version='1.0' encoding='utf-8'?>
<COLLADA xmlns="http://www.collada.org/2005/11/COLLADASchema" version="1.4.1">
  <asset>
    <created>2026-09-15T00:00:00Z</created>
    <modified>2026-09-15T00:00:00Z</modified>
    <unit name="meter" meter="1" />
    <up_axis>Z_UP</up_axis>
  </asset>
  <library_images />
  <library_effects>
    <effect id="e0">
      <profile_COMMON>
        <technique sid="common">
          <phong>
            <ambient>
              <color>0.225 0.225 0.225 1</color>
            </ambient>
            <diffuse>
              <color>0.5 0.5 0.5 1</color>
            </diffuse>
            <specular>
              <color>0.02 0.02 0.02 1</color>
            </specular>
            <shininess>
              <float>8</float>
            </shininess>
          </phong>
        </technique>
      </profile_COMMON>
    </effect>
  </library_effects>
  <library_materials>
    <material id="m0" name="m0">
      <instance_effect url="#e0" />
    </material>
  </library_materials>
  <library_geometries>
    <geometry id="geometry" name="canopy_7_0">
      <mesh>
        <source id="positions">
          <float_array id="positions-array" count="60">-0.05960557 -2.636228 14.92713 -0.06070533 -2.649606 12.02028 -0.05963165 -2.63388 12.15313 -3.95563 -1.828183 14.2628 -4.621927 1.01222 13.96716 -3.28757 -0.2113502 11.98186 -3.152176 -0.2055126 11.96399 -0.2937992 1.962275 16.23384 -0.2926781 1.993461 16.0604 -0.2998796 1.954143 16.57073 -1.65611 3.158102 14.66349 -0.2980075 1.959767 13.15629 -0.3060495 1.972516 13.24758 -1.879909 -2.748296 16.6574 -0.4331274 -3.332079 15.36577 -3.090877 -3.46106 15.3849 -1.777847 -2.654911 13.3952 -2.261239 2.937837 12.67594 -4.173783 1.253432 13.42416 -2.237296 1.224524 12.29105</float_array>
          <technique_common>
            <accessor source="#positions-array" count="20" stride="3">
              <param name="X" type="float" />
              <param name="Y" type="float" />
              <param name="Z" type="float" />
            </accessor>
          </technique_common>
        </source>
        <source id="normals">
          <float_array id="normals-array" count="108">0.04644616 -0.8897128 0.4541518 0.6098094 -0.1907186 0.7692587 -0.5369584 0.1955448 0.8206326 -0.71722 -0.02476489 0.6964066 0.04614683 -0.9797699 -0.1947341 -0.8807721 -0.1602295 0.4456086 -0.4808567 -0.6551167 -0.5827511 -0.4598918 -0.6749878 -0.5769671 0.8815684 -0.4720527 0.001838956 0.8508881 -0.1370507 0.5071553 0.9970478 0.07419088 0.01978578 0.6057288 0.7926199 0.06961538 -0.5240962 0.50083 0.6888342 0.9987844 0.04543236 0.01912298 -0.5979723 0.7960041 0.09384379 -0.6938227 0.6645758 -0.277397 -0.7905223 0.1141821 -0.6016951 -0.8678747 -0.2483654 -0.430242 0.1297147 0.1414693 -0.9814074 0.2654929 0.21485 -0.9398686 0.3424291 0.2414104 -0.9079996 0.9983803 0.05499225 -0.01457911 0.9977156 -0.06755405 -6.657044e-05 -0.4779868 -0.6420292 -0.5994389 -0.121333 -0.1759703 -0.9768893 -0.4814227 -0.6423551 -0.5963322 0.9987356 0.05027124 3.316879e-05 0.998801 0.04664896 0.01484455 0.654637 0.7558929 -0.008740753 0.9986256 0.05235405 -0.002440042 0.8183262 0.574696 -0.008169597 0.6267371 0.7774021 -0.05335359 0.4792554 0.844369 -0.2394896 0.006058758 0.219262 -0.9756472 -0.1373136 0.2556671 -0.9569636 -0.5937043 0.3528804 -0.7231809</float_array>
          <technique_common>
            <accessor source="#normals-array" count="36" stride="3">
              <param name="X" type="float" />
              <param name="Y" type="float" />
              <param name="Z" type="float" />
            </accessor>
          </technique_common>
        </source>
        <source id="uv">
          <float_array id="uv-array" count="216">-1.236351 6.153959 -0.173251 6.146309 -0.7519637 6.662962 -0.173251 -1.332832 -0.1199518 0.7816572 -0.7519637 -1.099318 -0.1199518 0.7816572 -1.848771 0.4048881 -0.7519637 -1.099318 0.4048881 5.586866 -1.384424 6.153959 -1.099318 6.662962 -0.02428213 4.808113 -0.173251 6.146309 -1.236351 6.153959 0.4048881 5.586866 -0.731273 5.705121 -1.384424 6.153959 -1.582252 5.705121 -0.7111389 5.358079 -1.236351 6.153959 -0.7111389 5.358079 -0.02428213 4.808113 -1.236351 6.153959 -1.059842 4.808113 -1.054491 5.970853 -1.332832 6.146309 -1.054491 5.970853 0.7816572 6.628292 -1.332832 6.146309 0.7849098 6.493535 0.7973846 6.424161 0.7816572 6.628292 -0.1170712 6.424161 -0.6624442 5.865395 -0.1199518 6.628292 -0.6624442 1.263241 -1.848771 0.4048881 -0.1199518 0.7816572 -1.054491 5.970853 0.7849098 6.493535 0.7816572 6.628292 -0.6624442 5.865395 -0.9044956 5.070378 -1.848771 5.586866 1.175135 5.070378 0.5013727 5.369662 0.4048881 5.586866 0.5013727 5.369662 -0.08454009 4.792744 0.4048881 5.586866 -0.08454009 4.792744 -0.731273 5.705121 0.4048881 5.586866 -1.26087 -0.08220506 -0.8949183 0.4898098 -0.02428213 -1.059842 -0.8949183 0.4898098 -0.9044956 1.175135 -0.02428213 -1.059842 -0.9044956 1.175135 -0.119203 0.7839067 -0.02428213 -1.059842 0.7839067 5.262515 -1.053552 4.861251 -1.059842 4.808113 -1.053552 4.861251 -1.054491 5.970853 -1.059842 4.808113 -0.7111389 5.358079 -1.315028 4.792744 -0.02428213 4.808113 -1.315028 -0.08454009 -1.26087 -0.08220506 -0.02428213 -1.059842 -1.315028 4.792744 -0.7111389 5.358079 -1.582252 5.705121 -1.053552 4.861251 0.7973846 6.424161 -1.054491 5.970853 0.7973846 6.424161 0.7849098 6.493535 -1.054491 5.970853 -0.1224198 5.299033 -0.6624442 5.865395 -0.1170712 6.424161 -1.053552 4.861251 0.7839067 5.262515 0.7973846 6.424161 0.7839067 5.262515 0.7890063 5.299033 0.7973846 6.424161 -0.1224198 5.299033 -0.119203 5.262515 -0.6624442 5.865395 -0.119203 5.262515 -0.9044956 5.070378 -0.6624442 5.865395 -0.8949183 0.4898098 -1.26087 -0.08220506 -0.9044956 1.175135 -1.26087 -0.08220506 -1.315028 -0.08454009 -0.9044956 1.175135 -1.315028 -0.08454009 -1.669513 0.5013727 -0.9044956 1.175135</float_array>
          <technique_common>
            <accessor source="#uv-array" count="108" stride="2">
              <param name="S" type="float" />
              <param name="T" type="float" />
            </accessor>
          </technique_common>
        </source>
        <vertices id="vertices">
          <input semantic="POSITION" source="#positions" />
        </vertices>
        <triangles count="36" material="m0">
          <input semantic="VERTEX" source="#vertices" offset="0" />
          <input semantic="NORMAL" source="#normals" offset="1" />
          <input semantic="TEXCOORD" source="#uv" offset="2" set="0" />
          <p>15 0 0 14 0 1 13 0 2 14 1 3 9 1 4 13 1 5 9 2 6 4 2 7 13 2 8 4 3 9 15 3 10 13 3 11 1 4 12 14 4 13 15 4 14 4 5 15 3 5 16 15 5 17 3 6 18 16 6 19 15 6 20 16 7 21 1 7 22 15 7 23 1 8 24 0 8 25 14 8 26 0 9 27 9 9 28 14 9 29 7 10 30 8 10 31 9 10 32 8 11 33 10 11 34 9 11 35 10 12 36 4 12 37 9 12 38 0 13 39 7 13 40 9 13 41 10 14 42 17 14 43 4 14 44 17 15 45 18 15 46 4 15 47 18 16 48 5 16 49 4 16 50 5 17 51 3 17 52 4 17 53 6 18 54 19 18 55 1 18 56 19 19 57 17 19 58 1 19 59 17 20 60 11 20 61 1 20 62 11 21 63 2 21 64 1 21 65 2 22 66 0 22 67 1 22 68 16 23 69 5 23 70 1 23 71 5 24 72 6 24 73 1 24 74 5 25 75 16 25 76 3 25 77 2 26 78 8 26 79 0 26 80 8 27 81 7 27 82 0 27 83 12 28 84 10 28 85 8 28 86 2 29 87 11 29 88 8 29 89 11 30 90 12 30 91 8 30 92 12 31 93 11 31 94 10 31 95 11 32 96 17 32 97 10 32 98 19 33 99 6 33 100 17 33 101 6 34 102 5 34 103 17 34 104 5 35 105 18 35 106 17 35 107</p>
        </triangles>
      </mesh>
    </geometry>
  </library_geometries>
  <library_visual_scenes>
    <visual_scene id="Scene">
      <node id="Node" type="NODE">
        <instance_geometry url="#geometry">
          <bind_material>
            <technique_common>
              <instance_material symbol="m0" target="#m0">
                <bind_vertex_input semantic="UVSET0" input_semantic="TEXCOORD" input_set="0" />
              </instance_material>
            </technique_common>
          </bind_material>
        </instance_geometry>
      </node>
    </visual_scene>
  </library_visual_scenes>
  <scene>
    <instance_visual_scene url="#Scene" />
  </scene>
</COLLADA>