<?xml version='1.0' encoding='utf-8'?>
<COLLADA xmlns="http://www.collada.org/2005/11/COLLADASchema" version="1.4.1">
  <asset>
    <created>2026-09-15T00:00:00Z</created>
    <modified>2026-09-15T00:00:00Z</modified>
    <unit name="meter" meter="1" />
    <up_axis>Z_UP</up_axis>
  </asset>
  <library_images />
  <library_effects>
    <effect id="e0">
      <profile_COMMON>
        <technique sid="common">
          <phong>
            <ambient>
              <color>0.225 0.225 0.225 1</color>
            </ambient>
            <diffuse>
              <color>0.5 0.5 0.5 1</color>
            </diffuse>
            <specular>
              <color>0.02 0.02 0.02 1</color>
            </specular>
            <shininess>
              <float>8</float>
            </shininess>
          </phong>
        </technique>
      </profile_COMMON>
    </effect>
  </library_effects>
  <library_materials>
    <material id="m0" name="m0">
      <instance_effect url="#e0" />
    </material>
  </library_materials>
  <library_geometries>
    <geometry id="geometry" name="canopy_6_1">
      <mesh>
        <source id="positions">
          <float_array id="positions-array" count="51">1.134869 0.5758188 11.49545 1.403135 -1.064156 10.63447 1.640319 0.2075448 11.72715 0.1180467 1.781074 10.58469 3.642245 1.011269 9.609584 1.588974 -1.573594 9.855911 0.3383676 -1.582692 10.22825 0.3667794 -1.557659 7.260862 0.3392528 -1.581926 7.275927 1.734483 2.95864 10.07307 3.214721 4.391231 9.348062 2.02819 4.900727 8.658649 1.733895 2.958865 7.534026 3.313525 0.1212749 7.327564 1.533409 -0.5780736 7.021391 1.918244 -1.018473 7.174566 0.7122622 2.455059 7.315266</float_array>
          <technique_common>
            <accessor source="#positions-array" count="17" stride="3">
              <param name="X" type="float" />
              <param name="Y" type="float" />
              <param name="Z" type="float" />
            </accessor>
          </technique_common>
        </source>
        <source id="normals">
          <float_array id="normals-array" count="90">0.6917542 0.1422779 0.7079782 -0.02989428 0.5025793 0.8640141 -0.5527766 -0.2606899 0.7915042 0.03068588 -0.654684 0.7552795 0.6350978 -0.5681239 0.5233412 0.7106337 -0.5192466 0.4747449 0.7826462 -0.6097716 0.1250742 0.976937 0.1093814 -0.1833845 -0.1943725 0.5987292 0.7770088 -0.1684267 0.5780844 0.7984052 -0.09804168 0.5281621 0.8434647 0.5793887 0.35953 -0.731469 -0.1215165 0.5311259 0.8385338 -0.7368822 -0.1187831 0.6655037 0.007198557 -0.9999741 -0.0002574256 0.1749596 -0.804221 0.5679945 -0.997864 -0.06532486 -0.0003161548 0.3233366 -0.9337337 -0.1536058 0.6358549 -0.7675648 -0.08082636 0.221663 -0.1418537 -0.9647503 0.1191958 0.1276682 -0.9846285 0.1369912 0.1475301 -0.9795245 0.5431553 0.3576362 -0.759657 -0.06635656 0.5075727 -0.8590499 -0.8663314 0.4964189 -0.05511939 -0.9828523 0.09236875 -0.1595912 0.1908854 -0.6648415 -0.7221832 -0.5169253 0.05608667 -0.8541911 0.04783348 -0.2905872 -0.9556521 -0.2272932 0.03276476 -0.973275</float_array>
          <technique_common>
            <accessor source="#normals-array" count="30" stride="3">
              <param name="X" type="float" />
              <param name="Y" type="float" />
              <param name="Z" type="float" />
            </accessor>
          </technique_common>
        </source>
        <source id="uv">
          <float_array id="uv-array" count="180">1.456898 0.4045074 1.285888 1.756492 0.6561278 0.08301791 1.285888 1.756492 0.4539475 0.2303275 0.6561278 0.08301791 0.4539475 0.2303275 0.135347 -0.6330769 0.6561278 0.08301791 0.135347 -0.6330769 0.5612539 -0.4256623 0.6561278 0.08301791 -0.4256623 4.253786 -0.6294374 3.942365 0.08301791 4.690861 -0.6294374 3.942365 0.4045074 3.843834 0.08301791 4.690861 -0.6294374 3.942365 0.04850997 2.931026 0.4045074 3.843834 0.04850997 2.931026 1.756492 3.739225 0.4045074 3.843834 0.8112759 1.960291 0.04721869 0.7124297 1.285888 1.756492 0.04721869 0.7124297 0.693793 1.183456 1.285888 1.756492 0.693793 1.183456 0.4539475 0.2303275 1.285888 1.756492 1.32541 0.04850997 0.8112759 1.960291 1.285888 1.756492 0.693793 1.183456 0.04721869 0.7124297 0.4539475 0.2303275 0.7124297 4.233875 -0.6330769 4.091301 0.2303275 4.598179 0.1357011 2.910371 0.6355896 3.942365 0.135347 4.091301 0.6355896 3.942365 0.5612539 4.253786 0.135347 4.091301 0.7124297 4.233875 -0.6327703 2.910371 -0.6330769 4.091301 0.1357011 2.910371 0.7672976 2.869827 0.6355896 3.942365 0.7672976 2.869827 1.32541 2.931026 0.6355896 3.942365 0.7672976 -0.4073891 0.6133636 -0.2312294 1.32541 0.04850997 0.6133636 -0.2312294 0.2849049 0.9820237 1.32541 0.04850997 0.2849049 0.9820237 0.6935579 1.183546 1.32541 0.04850997 0.6935579 1.183546 0.8112759 1.960291 1.32541 0.04850997 0.6935579 1.183546 0.2849049 0.9820237 0.8112759 1.960291 0.9820237 2.926106 0.7124297 4.233875 1.960291 3.46346 0.9820237 2.926106 -0.6327703 2.910371 0.7124297 4.233875 0.1467118 -0.6230634 0.7672976 -0.4073891 0.1357011 -0.6327703 0.2849049 0.9820237 0.1467118 -0.6230634 0.1357011 -0.6327703 0.1467118 -0.6230634 0.6133636 -0.2312294 0.7672976 -0.4073891 0.1467118 -0.6230634 0.2849049 0.9820237 0.6133636 -0.2312294</float_array>
          <technique_common>
            <accessor source="#uv-array" count="90" stride="2">
              <param name="S" type="float" />
              <param name="T" type="float" />
            </accessor>
          </technique_common>
        </source>
        <vertices id="vertices">
          <input semantic="POSITION" source="#positions" />
        </vertices>
        <triangles count="30" material="m0">
          <input semantic="VERTEX" source="#vertices" offset="0" />
          <input semantic="NORMAL" source="#normals" offset="1" />
          <input semantic="TEXCOORD" source="#uv" offset="2" set="0" />
          <p>4 0 0 10 0 1 2 0 2 10 1 3 0 1 4 2 1 5 0 2 6 6 2 7 2 2 8 6 3 9 1 3 10 2 3 11 1 4 12 5 4 13 2 4 14 5 5 15 4 5 16 2 5 17 5 6 18 13 6 19 4 6 20 13 7 21 10 7 22 4 7 23 11 8 24 3 8 25 10 8 26 3 9 27 9 9 28 10 9 29 9 10 30 0 10 31 10 10 32 13 11 33 11 11 34 10 11 35 9 12 36 3 12 37 0 12 38 3 13 39 6 13 40 0 13 41 8 14 42 5 14 43 6 14 44 5 15 45 1 15 46 6 15 47 3 16 48 8 16 49 6 16 50 8 17 51 15 17 52 5 17 53 15 18 54 13 18 55 5 18 56 15 19 57 14 19 58 13 19 59 14 20 60 16 20 61 13 20 62 16 21 63 12 21 64 13 21 65 12 22 66 11 22 67 13 22 68 12 23 69 16 23 70 11 23 71 16 24 72 3 24 73 11 24 74 16 25 75 8 25 76 3 25 77 7 26 78 15 26 79 8 26 80 16 27 81 7 27 82 8 27 83 7 28 84 14 28 85 15 28 86 7 29 87 16 29 88 14 29 89</p>
        </triangles>
      </mesh>
    </geometry>
  </library_geometries>
  <library_visual_scenes>
    <visual_scene id="Scene">
      <node id="Node" type="NODE">
        <instance_geometry url="#geometry">
          <bind_material>
            <technique_common>
              <instance_material symbol="m0" target="#m0">
                <bind_vertex_input semantic="UVSET0" input_semantic="TEXCOORD" input_set="0" />
              </instance_material>
            </technique_common>
          </bind_material>
        </instance_geometry>
      </node>
    </visual_scene>
  </library_visual_scenes>
  <scene>
    <instance_visual_scene url="#Scene" />
  </scene>
</COLLADA>