<?xml version='1.0' encoding='utf-8'?>
<COLLADA xmlns="http://www.collada.org/2005/11/COLLADASchema" version="1.4.1">
  <asset>
    <created>2026-09-15T00:00:00Z</created>
    <modified>2026-09-15T00:00:00Z</modified>
    <unit name="meter" meter="1" />
    <up_axis>Z_UP</up_axis>
  </asset>
  <library_images />
  <library_effects>
    <effect id="e0">
      <profile_COMMON>
        <technique sid="common">
          <phong>
            <ambient>
              <color>0.225 0.225 0.225 1</color>
            </ambient>
            <diffuse>
              <color>0.5 0.5 0.5 1</color>
            </diffuse>
            <specular>
              <color>0.02 0.02 0.02 1</color>
            </specular>
            <shininess>
              <float>8</float>
            </shininess>
          </phong>
        </technique>
      </profile_COMMON>
    </effect>
  </library_effects>
  <library_materials>
    <material id="m0" name="m0">
      <instance_effect url="#e0" />
    </material>
  </library_materials>
  <library_geometries>
    <geometry id="geometry" name="canopy_2_0">
      <mesh>
        <source id="positions">
          <float_array id="positions-array" count="51">-2.453469 2.528231 12.84599 -0.6264212 3.368193 11.24028 -0.6769964 2.801617 11.17487 -1.605196 -2.902248 14.54615 -0.2603006 -2.685509 13.36452 -2.836537 -3.948241 13.08235 -1.604086 -2.911093 11.80564 -1.468162 -2.911976 11.72159 -2.846466 1.279319 16.78156 -2.829602 1.212498 16.95811 -1.272951 -2.193638 15.5186 -0.2429112 4.493707 15.6369 -0.5597168 -0.5451732 14.91809 -2.361989 -1.286779 15.74008 -0.2112473 -1.516258 13.34302 -4.300042 -2.785067 13.90807 -3.735486 0.213674 14.04502</float_array>
          <technique_common>
            <accessor source="#positions-array" count="17" stride="3">
              <param name="X" type="float" />
              <param name="Y" type="float" />
              <param name="Z" type="float" />
            </accessor>
          </technique_common>
        </source>
        <source id="normals">
          <float_array id="normals-array" count="90">-0.679237 0.6625686 0.315658 -0.9395984 0.2806268 0.1959679 -0.9561001 0.1690687 0.2393499 -0.3947071 -0.4611482 0.7947003 -0.2071156 -0.4596373 0.8636183 0.5496709 -0.09933723 0.8294541 -0.5291161 0.8319877 -0.1668311 -0.7466731 0.6518993 0.1323124 0.800643 -0.1336529 0.5840442 0.9392563 -0.1056367 0.3265554 0.9923319 -0.03947709 0.117128 0.994317 0.04249471 -0.09761111 -0.8545439 0.513544 0.07763509 -0.8252988 0.1798209 -0.5353003 -0.6062331 -0.2202906 -0.7641685 -0.207044 -0.7260201 0.6557649 -0.3039626 -0.554262 0.7748551 -0.6898174 0.09630603 -0.7175494 -0.6145407 0.01263758 -0.7887839 -0.02271431 -0.8042756 0.5938222 0.4800787 -0.7788942 0.4035447 0.8657777 -0.208945 0.4547207 0.9546934 -0.0454605 -0.2940983 0.9509467 -0.04963433 -0.3053471 -0.6897145 0.1435022 -0.709719 0.3953757 -0.8714864 0.2901542 0.4487553 -0.8685845 -0.2101894 0.8052982 -0.1659721 -0.5691643 -0.4870213 -0.3858146 -0.7835543 -0.5259501 -0.008550731 -0.8504725</float_array>
          <technique_common>
            <accessor source="#normals-array" count="30" stride="3">
              <param name="X" type="float" />
              <param name="Y" type="float" />
              <param name="Z" type="float" />
            </accessor>
          </technique_common>
        </source>
        <source id="uv">
          <float_array id="uv-array" count="180">1.797483 6.254759 0.5117276 6.712624 0.4849993 6.783243 0.5117276 6.712624 0.08546961 5.618009 0.4849993 6.783243 0.08546961 5.618009 -1.114027 5.563229 0.4849993 6.783243 -1.720017 -1.114027 -0.9447955 -0.5147117 -1.131841 0.4849993 -0.9447955 -0.5147117 -0.5091805 -0.8774552 -1.131841 0.4849993 -0.5091805 -0.8774552 -0.09716447 1.797483 -1.131841 0.4849993 -0.2505685 4.496111 -0.9813875 5.138396 -0.09716447 6.254759 1.011293 5.138396 0.5117276 6.712624 1.797483 6.254759 -0.8774552 6.207442 -0.2180693 5.967238 1.797483 6.254759 -0.2180693 5.967238 -1.074203 5.34581 1.797483 6.254759 -1.074203 5.34581 -0.6065032 5.337209 1.797483 6.254759 -0.6065032 5.337209 1.347277 4.496111 1.797483 6.254759 1.011293 5.138396 0.08546961 5.618009 0.5117276 6.712624 1.011293 5.138396 -1.114027 5.563229 0.08546961 5.618009 -0.6416344 -1.164437 -1.134615 -1.579297 -1.720017 -1.114027 -1.134615 5.232941 -0.5091805 6.207442 -1.720017 5.563229 -0.5091805 -0.8774552 -0.9447955 -0.5147117 -1.720017 -1.114027 -0.9813875 1.011293 -0.2707985 1.120647 -1.720017 -1.114027 -0.2707985 1.120647 -0.6416344 -1.164437 -1.720017 -1.114027 -1.134615 5.232941 -0.6420786 5.81846 -0.5091805 6.207442 -0.6420786 5.81846 -0.1041202 5.34581 -0.5091805 6.207442 -1.074203 5.34581 -0.2180693 5.967238 -0.8774552 6.207442 -0.6065032 5.337209 -1.074203 5.34581 1.347277 4.496111 -1.074203 5.34581 1.120647 4.469947 1.347277 4.496111 -0.2707985 1.120647 -0.9813875 1.011293 -0.2505685 1.347277 -0.6420786 5.81846 -1.134615 5.232941 -0.1041202 5.34581 -1.134615 5.232941 -0.5872649 4.688635 -0.1041202 5.34581 -1.164791 4.688635 1.120647 4.469947 -1.074203 5.34581 -0.5872649 -1.164791 -1.134615 -1.579297 -0.6416344 -1.164437 -0.2707985 1.120647 -0.5872649 -1.164791 -0.6416344 -1.164437</float_array>
          <technique_common>
            <accessor source="#uv-array" count="90" stride="2">
              <param name="S" type="float" />
              <param name="T" type="float" />
            </accessor>
          </technique_common>
        </source>
        <vertices id="vertices">
          <input semantic="POSITION" source="#positions" />
        </vertices>
        <triangles count="30" material="m0">
          <input semantic="VERTEX" source="#vertices" offset="0" />
          <input semantic="NORMAL" source="#normals" offset="1" />
          <input semantic="TEXCOORD" source="#uv" offset="2" set="0" />
          <p>11 0 0 8 0 1 9 0 2 8 1 3 16 1 4 9 1 5 16 2 6 15 2 7 9 2 8 15 3 9 13 3 10 9 3 11 13 4 12 10 4 13 9 4 14 10 5 15 11 5 16 9 5 17 1 6 18 0 6 19 11 6 20 0 7 21 8 7 22 11 7 23 10 8 24 12 8 25 11 8 26 12 9 27 4 9 28 11 9 29 4 10 30 14 10 31 11 10 32 14 11 33 1 11 34 11 11 35 0 12 36 16 12 37 8 12 38 0 13 39 15 13 40 16 13 41 6 14 42 5 14 43 15 14 44 5 15 45 10 15 46 15 15 47 10 16 48 13 16 49 15 16 50 0 17 51 2 17 52 15 17 53 2 18 54 6 18 55 15 18 56 5 19 57 3 19 58 10 19 59 3 20 60 4 20 61 10 20 62 4 21 63 12 21 64 10 21 65 14 22 66 4 22 67 1 22 68 4 23 69 2 23 70 1 23 71 2 24 72 0 24 73 1 24 74 3 25 75 5 25 76 4 25 77 5 26 78 7 26 79 4 26 80 7 27 81 2 27 82 4 27 83 7 28 84 5 28 85 6 28 86 2 29 87 7 29 88 6 29 89</p>
        </triangles>
      </mesh>
    </geometry>
  </library_geometries>
  <library_visual_scenes>
    <visual_scene id="Scene">
      <node id="Node" type="NODE">
        <instance_geometry url="#geometry">
          <bind_material>
            <technique_common>
              <instance_material symbol="m0" target="#m0">
                <bind_vertex_input semantic="UVSET0" input_semantic="TEXCOORD" input_set="0" />
              </instance_material>
            </technique_common>
          </bind_material>
        </instance_geometry>
      </node>
    </visual_scene>
  </library_visual_scenes>
  <scene>
    <instance_visual_scene url="#Scene" />
  </scene>
</COLLADA>