<?xml version='1.0' encoding='utf-8'?>
<COLLADA xmlns="http://www.collada.org/2005/11/COLLADASchema" version="1.4.1">
  <asset>
    <created>2026-09-15T00:00:00Z</created>
    <modified>2026-09-15T00:00:00Z</modified>
    <unit name="meter" meter="1" />
    <up_axis>Z_UP</up_axis>
  </asset>
  <library_images />
  <library_effects>
    <effect id="e0">
      <profile_COMMON>
        <technique sid="common">
          <phong>
            <ambient>
              <color>0.225 0.225 0.225 1</color>
            </ambient>
            <diffuse>
              <color>0.5 0.5 0.5 1</color>
            </diffuse>
            <specular>
              <color>0.02 0.02 0.02 1</color>
            </specular>
            <shininess>
              <float>8</float>
            </shininess>
          </phong>
        </technique>
      </profile_COMMON>
    </effect>
  </library_effects>
  <library_materials>
    <material id="m0" name="m0">
      <instance_effect url="#e0" />
    </material>
  </library_materials>
  <library_geometries>
    <geometry id="geometry" name="canopy_3_1">
      <mesh>
        <source id="positions">
          <float_array id="positions-array" count="57">2.928962 0.2042583 12.32723 3.066965 -2.696547 11.99297 2.326604 -1.371635 10.99971 2.362316 -1.370308 10.99234 0.07401214 1.58711 15.0031 1.743646 3.271188 13.88806 0.07768875 1.590344 12.08719 0.07323103 1.586387 12.25029 1.432414 0.08018372 17.24681 0.2256021 -0.5217535 16.76418 2.880386 -0.4348469 15.38411 0.3559446 -2.752333 15.21264 0.2840744 -2.680907 14.7233 0.3487642 -2.755604 15.20833 1.280774 -4.425632 13.49078 0.355126 -2.751663 12.28797 2.818428 2.967488 14.91838 1.181458 1.636181 16.16952 0.02579663 3.0722 14.57816</float_array>
          <technique_common>
            <accessor source="#positions-array" count="19" stride="3">
              <param name="X" type="float" />
              <param name="Y" type="float" />
              <param name="Z" type="float" />
            </accessor>
          </technique_common>
        </source>
        <source id="normals">
          <float_array id="normals-array" count="102">0.1428227 0.5788633 0.8028194 -0.4866221 0.4428756 0.7530339 -0.5110018 0.4257809 0.746718 -0.04216447 -0.572175 0.819047 0.2467225 -0.6253947 0.7402766 0.5944681 -0.5265901 0.6077092 0.798551 0.09588402 0.5942411 0.001743397 0.9596882 0.2810613 -0.05723182 0.7201702 0.6914329 0.9989517 0.02356358 0.03924649 0.9987772 0.04857523 -0.009194686 0.6609299 0.5272259 -0.5340453 -0.2930473 0.8189989 -0.4933195 -0.9995786 0.01049266 -0.02706528 -0.999476 -0.03236581 0.0002921028 -0.9973616 -0.01188994 0.07161265 -0.9850461 -0.1316877 0.1110972 -0.2188186 -0.5657701 0.7949985 -0.9983935 -0.05078577 0.02512441 -0.0705207 -0.7340263 0.6754497 -0.8568946 -0.5142965 0.03508252 -0.8716353 -0.4900272 -0.01119295 -0.08596123 -0.6122752 -0.7859578 -0.05590422 -0.6201065 -0.7825233 0.7875187 -0.49184 0.3713593 0.3508555 0.528883 -0.7727763 0.3130283 0.5323968 -0.7864903 0.8697851 0.09712492 -0.4837774 -0.2050953 0.1963187 -0.9588508 -0.5096759 -0.07221036 -0.8573308 -0.997464 -0.06506766 -0.02884041 -0.9975105 -0.06505654 -0.02721257 -0.99879 -0.04917763 0.0002963236 -0.1485752 -0.5530372 -0.8198019</float_array>
          <technique_common>
            <accessor source="#normals-array" count="34" stride="3">
              <param name="X" type="float" />
              <param name="Y" type="float" />
              <param name="Z" type="float" />
            </accessor>
          </technique_common>
        </source>
        <source id="uv">
          <float_array id="uv-array" count="204">1.127371 1.186995 0.4725831 0.6544724 0.5729656 0.03207349 0.4725831 0.6544724 0.01031865 1.22888 0.5729656 0.03207349 0.01031865 1.22888 0.09024083 -0.2087014 0.5729656 0.03207349 0.09024083 -0.2087014 0.1423778 -1.100933 0.5729656 0.03207349 0.1423778 -1.100933 0.5123095 -1.770253 0.5729656 0.03207349 0.5123095 -1.770253 1.152154 -0.1739388 0.5729656 0.03207349 -0.1739388 6.153642 1.186995 5.967352 0.03207349 6.898724 0.6974584 5.555225 0.01031865 5.831265 1.127371 5.967352 0.01031865 5.831265 0.4725831 6.467809 1.127371 5.967352 -0.1739388 6.153642 -1.078619 4.797189 1.186995 5.967352 -1.078619 4.797189 0.08170334 4.930893 1.186995 5.967352 0.08170334 4.930893 1.308475 5.555225 1.186995 5.967352 0.6974584 5.555225 0.0310755 4.834876 0.01031865 5.831265 0.6361375 4.834876 0.634555 4.900116 1.22888 5.831265 0.634555 4.900116 0.6348442 6.001239 1.22888 5.831265 0.6348442 6.001239 -0.2087014 6.705672 1.22888 5.831265 -1.072363 5.88932 -1.102241 6.083333 -0.2087014 6.705672 0.1395057 -1.102241 0.1423778 -1.100933 0.09024083 -0.2087014 0.6348442 6.001239 -1.072363 5.88932 -0.2087014 6.705672 0.1395057 6.083333 0.5123095 5.396313 0.1423778 6.085055 -1.102241 6.083333 -1.072363 5.88932 -1.770253 5.396313 -1.072363 5.88932 -1.100665 4.915188 -1.770253 5.396313 0.1420504 -1.100665 0.9449265 -0.5481233 0.5123095 -1.770253 0.9449265 -0.5481233 1.226786 -1.078619 0.5123095 -1.770253 -1.078619 4.797189 -0.1739388 6.153642 -1.770253 5.396313 1.171585 0.08170334 0.9449265 -0.5481233 0.6974584 1.308475 0.9449265 -0.5481233 0.0310755 0.6361375 0.6974584 1.308475 -0.5481233 4.396936 0.08170334 4.930893 -1.078619 4.797189 0.9449265 -0.5481233 0.9306416 -0.5486539 0.0310755 0.6361375 0.9306416 -0.5486539 0.1420504 -1.100665 0.0310755 0.6361375 -1.100665 4.915188 0.634555 4.900116 0.6361375 4.834876 -1.100665 4.915188 -1.072363 5.88932 0.634555 4.900116 -1.072363 5.88932 0.6348442 6.001239 0.634555 4.900116 0.9306416 -0.5486539 0.9449265 -0.5481233 0.1420504 -1.100665</float_array>
          <technique_common>
            <accessor source="#uv-array" count="102" stride="2">
              <param name="S" type="float" />
              <param name="T" type="float" />
            </accessor>
          </technique_common>
        </source>
        <vertices id="vertices">
          <input semantic="POSITION" source="#positions" />
        </vertices>
        <triangles count="34" material="m0">
          <input semantic="VERTEX" source="#vertices" offset="0" />
          <input semantic="NORMAL" source="#normals" offset="1" />
          <input semantic="TEXCOORD" source="#uv" offset="2" set="0" />
          <p>16 0 0 17 0 1 8 0 2 17 1 3 18 1 4 8 1 5 18 2 6 9 2 7 8 2 8 9 3 9 11 3 10 8 3 11 11 4 12 14 4 13 8 4 14 14 5 15 10 5 16 8 5 17 10 6 18 16 6 19 8 6 20 5 7 21 18 7 22 16 7 23 18 8 24 17 8 25 16 8 26 10 9 27 1 9 28 16 9 29 1 10 30 0 10 31 16 10 32 0 11 33 5 11 34 16 11 35 5 12 36 6 12 37 18 12 38 6 13 39 7 13 40 18 13 41 7 14 42 4 14 43 18 14 44 4 15 45 9 15 46 18 15 47 12 16 48 13 16 49 9 16 50 13 17 51 11 17 52 9 17 53 4 18 54 12 18 55 9 18 56 13 19 57 14 19 58 11 19 59 13 20 60 12 20 61 14 20 62 12 21 63 15 21 64 14 21 65 15 22 66 3 22 67 14 22 68 3 23 69 1 23 70 14 23 71 1 24 72 10 24 73 14 24 74 0 25 75 3 25 76 5 25 77 3 26 78 6 26 79 5 26 80 3 27 81 0 27 82 1 27 83 3 28 84 2 28 85 6 28 86 2 29 87 15 29 88 6 29 89 15 30 90 7 30 91 6 30 92 15 31 93 12 31 94 7 31 95 12 32 96 4 32 97 7 32 98 2 33 99 3 33 100 15 33 101</p>
        </triangles>
      </mesh>
    </geometry>
  </library_geometries>
  <library_visual_scenes>
    <visual_scene id="Scene">
      <node id="Node" type="NODE">
        <instance_geometry url="#geometry">
          <bind_material>
            <technique_common>
              <instance_material symbol="m0" target="#m0">
                <bind_vertex_input semantic="UVSET0" input_semantic="TEXCOORD" input_set="0" />
              </instance_material>
            </technique_common>
          </bind_material>
        </instance_geometry>
      </node>
    </visual_scene>
  </library_visual_scenes>
  <scene>
    <instance_visual_scene url="#Scene" />
  </scene>
</COLLADA>