<?xml version='1.0' encoding='utf-8'?>
<COLLADA xmlns="http://www.collada.org/2005/11/COLLADASchema" version="1.4.1">
  <asset>
    <created>2026-09-15T00:00:00Z</created>
    <modified>2026-09-15T00:00:00Z</modified>
    <unit name="meter" meter="1" />
    <up_axis>Z_UP</up_axis>
  </asset>
  <library_images />
  <library_effects>
    <effect id="e0">
      <profile_COMMON>
        <technique sid="common">
          <phong>
            <ambient>
              <color>0.225 0.225 0.225 1</color>
            </ambient>
            <diffuse>
              <color>0.5 0.5 0.5 1</color>
            </diffuse>
            <specular>
              <color>0.02 0.02 0.02 1</color>
            </specular>
            <shininess>
              <float>8</float>
            </shininess>
          </phong>
        </technique>
      </profile_COMMON>
    </effect>
  </library_effects>
  <library_materials>
    <material id="m0" name="m0">
      <instance_effect url="#e0" />
    </material>
  </library_materials>
  <library_geometries>
    <geometry id="geometry" name="canopy_5_1">
      <mesh>
        <source id="positions">
          <float_array id="positions-array" count="51">0.1422283 -2.867563 12.64261 0.2618106 -2.756989 13.71728 2.147511 -4.057531 12.957 0.2721859 -2.697675 11.14944 0.2613181 -2.759026 11.25301 1.188449 1.588705 15.6606 3.008732 1.714159 14.05233 0.4217155 3.176015 14.43194 1.205947 1.575511 12.74981 0.2206053 -0.2041965 14.17581 1.582221 -0.9896312 16.13639 1.170529 -1.025993 16.32817 1.591946 -1.009485 12.44282 1.119134 3.173357 13.63101 0.3637223 -1.960891 15.00599 2.127909 0.7969972 16.80702 3.62762 1.6544 15.35518</float_array>
          <technique_common>
            <accessor source="#positions-array" count="17" stride="3">
              <param name="X" type="float" />
              <param name="Y" type="float" />
              <param name="Z" type="float" />
            </accessor>
          </technique_common>
        </source>
        <source id="normals">
          <float_array id="normals-array" count="90">0.1774882 0.7561352 0.6298868 -0.6749025 0.2193537 0.7045499 -0.695033 0.1823265 0.6954755 0.412438 -0.4278583 0.8042588 0.7275161 -0.4245185 0.5389845 0.7442414 -0.4131803 0.5247732 0.6257164 0.734178 -0.2635558 0.3398191 0.8937067 0.2929357 0.9010701 -0.05276382 -0.4304517 -0.7028338 0.3605764 -0.613196 -0.9944901 0.06928302 -0.07867199 -0.9961617 0.06380819 -0.0599193 -0.9677831 0.03872822 0.2487891 -0.8714009 0.06418821 0.4863542 -0.7154987 0.1774203 0.6757097 -0.1615465 -0.7566228 0.6335809 0.3718296 -0.6341029 0.6779795 -0.3368655 -0.788893 0.5139742 -0.5216304 -0.8408357 0.1445585 -0.4944671 -0.8622431 -0.1097232 -0.1188721 -0.8487764 -0.5152165 0.6961395 0.005782618 -0.7178833 0.7340647 0.01928735 -0.6788056 0.5041325 0.437904 -0.7443726 0.5669225 0.1801183 -0.8038385 -0.4993467 0.3974426 -0.7698651 0.5615659 0.1797731 -0.8076666 -0.9959001 0.03723444 -0.08244106 -0.9912341 -0.06198168 0.1166757 -0.9939637 -0.03128355 0.1051547</float_array>
          <technique_common>
            <accessor source="#normals-array" count="30" stride="3">
              <param name="X" type="float" />
              <param name="Y" type="float" />
              <param name="Z" type="float" />
            </accessor>
          </technique_common>
        </source>
        <source id="uv">
          <float_array id="uv-array" count="180">1.451048 6.142072 0.1686862 5.772776 0.8511635 6.722807 0.1686862 1.270406 0.4753796 0.635482 0.8511635 0.3187989 0.4753796 0.635482 0.4682117 -0.4103973 0.8511635 0.3187989 0.4682117 -0.4103973 0.6328883 -0.3958525 0.8511635 0.3187989 -0.3958525 6.454555 -1.623013 5.182802 0.3187989 6.722807 -1.623013 5.182802 0.6617599 6.142072 0.3187989 6.722807 1.203493 5.620932 0.4476537 5.452404 1.451048 6.142072 0.4476537 5.452404 0.1686862 5.772776 1.451048 6.142072 -1.623013 5.182802 0.6856638 5.620932 0.6617599 6.142072 1.269343 5.452404 -1.07907 4.459774 1.270406 5.772776 -1.07907 4.459774 -1.147025 5.057045 1.270406 5.772776 -1.147025 5.057045 -0.08167859 5.670326 1.270406 5.772776 -0.08167859 5.670326 -0.7843564 6.002398 1.270406 5.772776 -0.7843564 6.002398 -0.4103973 6.531266 1.270406 5.772776 -0.4103973 6.531266 0.635482 6.264241 1.270406 5.772776 0.1454889 6.002398 0.8590042 5.182802 0.4682117 6.531266 0.8590042 -1.623013 0.6328883 -0.3958525 0.4682117 -0.4103973 0.1454889 6.002398 0.1047242 5.486912 0.8590042 5.182802 0.1047242 5.486912 0.05689133 5.057045 0.8590042 5.182802 0.05689133 5.057045 0.1045272 4.501205 0.8590042 5.182802 0.1045272 4.501205 0.1088744 4.459774 0.8590042 5.182802 0.1088744 -1.07907 0.6367784 -0.4037941 0.8590042 -1.623013 -0.4037941 4.977128 0.6856638 5.620932 -1.623013 5.182802 0.4823789 0.6302044 0.4476537 1.269343 1.203493 0.6856638 0.6367784 -0.4037941 0.4823789 0.6302044 1.203493 0.6856638 0.4823789 0.6302044 0.1088744 -1.07907 0.4476537 1.269343 0.4823789 0.6302044 0.6367784 -0.4037941 0.1088744 -1.07907 -1.10361 4.501205 -1.147025 5.057045 -1.07907 4.459774 -1.102796 5.486912 -0.7843564 6.002398 -1.147025 5.057045 -0.7843564 6.002398 -0.08167859 5.670326 -1.147025 5.057045</float_array>
          <technique_common>
            <accessor source="#uv-array" count="90" stride="2">
              <param name="S" type="float" />
              <param name="T" type="float" />
            </accessor>
          </technique_common>
        </source>
        <vertices id="vertices">
          <input semantic="POSITION" source="#positions" />
        </vertices>
        <triangles count="30" material="m0">
          <input semantic="VERTEX" source="#vertices" offset="0" />
          <input semantic="NORMAL" source="#normals" offset="1" />
          <input semantic="TEXCOORD" source="#uv" offset="2" set="0" />
          <p>16 0 0 7 0 1 15 0 2 7 1 3 5 1 4 15 1 5 5 2 6 11 2 7 15 2 8 11 3 9 10 3 10 15 3 11 10 4 12 2 4 13 15 4 14 2 5 15 16 5 16 15 5 17 6 6 18 13 6 19 16 6 20 13 7 21 7 7 22 16 7 23 2 8 24 6 8 25 16 8 26 13 9 27 3 9 28 7 9 29 3 10 30 0 10 31 7 10 32 0 11 33 9 11 34 7 11 35 9 12 36 14 12 37 7 12 38 14 13 39 11 13 40 7 13 41 11 14 42 5 14 43 7 14 44 14 15 45 2 15 46 11 15 47 2 16 48 10 16 49 11 16 50 14 17 51 1 17 52 2 17 53 1 18 54 0 18 55 2 18 56 0 19 57 4 19 58 2 19 59 4 20 60 3 20 61 2 20 62 3 21 63 12 21 64 2 21 65 12 22 66 6 22 67 2 22 68 8 23 69 13 23 70 6 23 71 12 24 72 8 24 73 6 24 74 8 25 75 3 25 76 13 25 77 8 26 78 12 26 79 3 26 80 4 27 81 0 27 82 3 27 83 1 28 84 14 28 85 0 28 86 14 29 87 9 29 88 0 29 89</p>
        </triangles>
      </mesh>
    </geometry>
  </library_geometries>
  <library_visual_scenes>
    <visual_scene id="Scene">
      <node id="Node" type="NODE">
        <instance_geometry url="#geometry">
          <bind_material>
            <technique_common>
              <instance_material symbol="m0" target="#m0">
                <bind_vertex_input semantic="UVSET0" input_semantic="TEXCOORD" input_set="0" />
              </instance_material>
            </technique_common>
          </bind_material>
        </instance_geometry>
      </node>
    </visual_scene>
  </library_visual_scenes>
  <scene>
    <instance_visual_scene url="#Scene" />
  </scene>
</COLLADA>