<?xml version='1.0' encoding='utf-8'?>
<COLLADA xmlns="http://www.collada.org/2005/11/COLLADASchema" version="1.4.1">
  <asset>
    <created>2026-09-15T00:00:00Z</created>
    <modified>2026-09-15T00:00:00Z</modified>
    <unit name="meter" meter="1" />
    <up_axis>Z_UP</up_axis>
  </asset>
  <library_images />
  <library_effects>
    <effect id="e0">
      <profile_COMMON>
        <technique sid="common">
          <phong>
            <ambient>
              <color>0.225 0.225 0.225 1</color>
            </ambient>
            <diffuse>
              <color>0.5 0.5 0.5 1</color>
            </diffuse>
            <specular>
              <color>0.02 0.02 0.02 1</color>
            </specular>
            <shininess>
              <float>8</float>
            </shininess>
          </phong>
        </technique>
      </profile_COMMON>
    </effect>
  </library_effects>
  <library_materials>
    <material id="m0" name="m0">
      <instance_effect url="#e0" />
    </material>
  </library_materials>
  <library_geometries>
    <geometry id="geometry" name="canopy_4_1">
      <mesh>
        <source id="positions">
          <float_array id="positions-array" count="51">4.331286 3.693 7.280702 0.7445349 3.2612 7.150355 2.446082 2.293619 5.909604 3.182808 1.378691 9.992733 4.531564 0.4535949 8.461438 0.5066411 -0.2752397 7.211615 0.9921485 -1.848201 8.655421 0.9958106 -1.848895 6.051446 0.7036762 2.769823 11.43422 0.7341776 5.002021 10.57291 2.398295 3.785519 9.519231 2.758463 -0.4186341 9.399821 4.54229 -0.4625159 7.750352 2.736041 -0.4339244 6.092445 3.593021 -1.804157 6.531605 0.7707363 -1.137666 8.016806 1.476864 -4.183896 7.734459</float_array>
          <technique_common>
            <accessor source="#positions-array" count="17" stride="3">
              <param name="X" type="float" />
              <param name="Y" type="float" />
              <param name="Z" type="float" />
            </accessor>
          </technique_common>
        </source>
        <source id="normals">
          <float_array id="normals-array" count="90">-0.9992793 0.02475743 0.0287749 -0.9758092 -0.1531753 0.155993 -0.9740759 -0.158169 0.1617368 -0.7619215 -0.3682086 0.5328209 0.1743643 -0.447334 0.8772054 0.3078179 -0.3628255 0.8795486 0.5956036 0.2820735 0.7521243 0.6696119 0.3474075 0.656451 0.6877843 0.4422709 0.5756293 -0.09043576 0.8875656 -0.4517175 -0.9971114 0.06643732 -0.03680954 -0.9659911 -0.2490729 -0.06945403 -0.9703015 -0.2314408 0.07035761 -0.8928072 0.05230852 -0.4473914 -0.9695827 -0.231987 0.07804778 0.1604414 -0.5551788 -0.8161097 0.7678787 -0.6329489 0.09868131 0.5915714 -0.4900316 0.640244 0.5834609 -0.4862903 0.6504576 0.571074 -0.3756196 0.7299208 0.7965005 0.2499217 0.5505689 0.7155908 0.3519524 0.6033733 -0.06502987 0.7416934 -0.6675792 0.9979916 0.04571912 -0.04384751 0.8026287 -0.02659132 -0.5958859 0.5706122 0.0351719 -0.8204661 -0.5232515 0.1544919 -0.8380574 0.1815446 -0.1953502 -0.9637842 0.07154442 -0.05914 -0.9956826 0.4387135 -0.01359403 -0.8985241</float_array>
          <technique_common>
            <accessor source="#normals-array" count="30" stride="3">
              <param name="X" type="float" />
              <param name="Y" type="float" />
              <param name="Z" type="float" />
            </accessor>
          </technique_common>
        </source>
        <source id="uv">
          <float_array id="uv-array" count="180">2.000808 4.229165 -0.1100959 2.884646 1.107929 4.573689 -0.1100959 2.884646 -0.4550663 3.206722 1.107929 4.573689 -0.4550663 3.206722 -0.7392803 3.462169 1.107929 4.573689 -0.7392803 3.462169 -1.673558 3.093784 1.107929 4.573689 0.5907456 -1.673558 1.103385 -0.1674536 0.2814705 1.107929 1.103385 -0.1674536 1.273123 0.5514765 0.2814705 1.107929 1.273123 0.5514765 0.293671 2.000808 0.2814705 1.107929 0.5514765 3.997093 1.514208 3.807692 2.000808 4.229165 1.514208 3.807692 1.4772 2.912281 2.000808 4.229165 1.732515 2.912281 0.2978139 2.860142 0.293671 4.229165 1.30448 2.860142 -0.1100959 2.884646 2.000808 4.229165 -0.7395581 2.420578 -1.673558 3.093784 -0.1100959 2.884646 -1.673558 3.093784 -0.4550663 3.206722 -0.1100959 2.884646 1.30448 2.860142 -0.7395581 2.420578 -0.1100959 2.884646 -1.673558 3.093784 -0.7392803 3.462169 -0.4550663 3.206722 0.3983243 -0.7395581 1.437208 -0.721663 0.5907456 -1.673558 -0.721663 2.612642 -0.1850063 3.100141 -1.673558 3.093784 1.816916 -0.1850063 1.812626 0.181438 0.5907456 -1.673558 1.812626 0.181438 1.103385 -0.1674536 0.5907456 -1.673558 1.812626 0.181438 1.273123 0.5514765 1.103385 -0.1674536 0.181438 3.384575 1.4772 2.912281 0.5514765 3.997093 1.4772 2.912281 1.514208 3.807692 0.5514765 3.997093 0.9784328 2.363842 0.2978139 2.860142 1.732515 2.912281 0.181438 3.384575 -0.1850063 3.100141 1.4772 2.912281 -0.1850063 3.100141 -0.721663 2.612642 1.4772 2.912281 1.437208 -0.721663 0.9784328 0.9174478 1.732515 1.4772 0.9784328 0.9174478 0.3983243 -0.7395581 0.2978139 1.30448 1.094416 -0.1735698 1.437208 -0.721663 0.3983243 -0.7395581 0.9784328 0.9174478 1.094416 -0.1735698 0.3983243 -0.7395581 1.094416 -0.1735698 0.9784328 0.9174478 1.437208 -0.721663</float_array>
          <technique_common>
            <accessor source="#uv-array" count="90" stride="2">
              <param name="S" type="float" />
              <param name="T" type="float" />
            </accessor>
          </technique_common>
        </source>
        <vertices id="vertices">
          <input semantic="POSITION" source="#positions" />
        </vertices>
        <triangles count="30" material="m0">
          <input semantic="VERTEX" source="#vertices" offset="0" />
          <input semantic="NORMAL" source="#normals" offset="1" />
          <input semantic="TEXCOORD" source="#uv" offset="2" set="0" />
          <p>9 0 0 5 0 1 8 0 2 5 1 3 15 1 4 8 1 5 15 2 6 6 2 7 8 2 8 6 3 9 16 3 10 8 3 11 16 4 12 11 4 13 8 4 14 11 5 15 3 5 16 8 5 17 3 6 18 9 6 19 8 6 20 3 7 21 10 7 22 9 7 23 10 8 24 0 8 25 9 8 26 0 9 27 1 9 28 9 9 29 1 10 30 5 10 31 9 10 32 7 11 33 16 11 34 5 11 35 16 12 36 15 12 37 5 12 38 1 13 39 7 13 40 5 13 41 16 14 42 6 14 43 15 14 44 7 15 45 14 15 46 16 15 47 14 16 48 12 16 49 16 16 50 12 17 51 4 17 52 16 17 53 4 18 54 11 18 55 16 18 56 4 19 57 3 19 58 11 19 59 4 20 60 0 20 61 3 20 62 0 21 63 10 21 64 3 21 65 2 22 66 1 22 67 0 22 68 4 23 69 12 23 70 0 23 71 12 24 72 14 24 73 0 24 74 14 25 75 2 25 76 0 25 77 2 26 78 7 26 79 1 26 80 13 27 81 14 27 82 7 27 83 2 28 84 13 28 85 7 28 86 13 29 87 2 29 88 14 29 89</p>
        </triangles>
      </mesh>
    </geometry>
  </library_geometries>
  <library_visual_scenes>
    <visual_scene id="Scene">
      <node id="Node" type="NODE">
        <instance_geometry url="#geometry">
          <bind_material>
            <technique_common>
              <instance_material symbol="m0" target="#m0">
                <bind_vertex_input semantic="UVSET0" input_semantic="TEXCOORD" input_set="0" />
              </instance_material>
            </technique_common>
          </bind_material>
        </instance_geometry>
      </node>
    </visual_scene>
  </library_visual_scenes>
  <scene>
    <instance_visual_scene url="#Scene" />
  </scene>
</COLLADA>