<?xml version='1.0' encoding='utf-8'?>
<COLLADA xmlns="http://www.collada.org/2005/11/COLLADASchema" version="1.4.1">
  <asset>
    <created>2026-09-15T00:00:00Z</created>
    <modified>2026-09-15T00:00:00Z</modified>
    <unit name="meter" meter="1" />
    <up_axis>Z_UP</up_axis>
  </asset>
  <library_images />
  <library_effects>
    <effect id="e0">
      <profile_COMMON>
        <technique sid="common">
          <phong>
            <ambient>
              <color>0.225 0.225 0.225 1</color>
            </ambient>
            <diffuse>
              <color>0.5 0.5 0.5 1</color>
            </diffuse>
            <specular>
              <color>0.02 0.02 0.02 1</color>
            </specular>
            <shininess>
              <float>8</float>
            </shininess>
          </phong>
        </technique>
      </profile_COMMON>
    </effect>
  </library_effects>
  <library_materials>
    <material id="m0" name="m0">
      <instance_effect url="#e0" />
    </material>
  </library_materials>
  <library_geometries>
    <geometry id="geometry" name="canopy_1_1">
      <mesh>
        <source id="positions">
          <float_array id="positions-array" count="48">0.8491303 -3.292272 16.09419 0.1285103 -2.874122 17.07732 0.1299889 -2.870339 13.26828 0.1277038 -2.879572 13.34387 1.782256 1.012109 16.71604 1.607061 3.217689 14.76182 2.928715 0.9989319 13.78751 2.788094 -1.407066 13.49584 0.7344972 -1.048426 12.27322 0.3008986 2.302212 16.39888 1.545954 3.18447 14.77126 0.3036261 2.293532 13.91499 0.2975351 2.301052 14.12436 2.759137 -0.5950142 13.80197 1.597838 -0.06200674 12.7915 1.596581 -0.06809516 12.78774</float_array>
          <technique_common>
            <accessor source="#positions-array" count="16" stride="3">
              <param name="X" type="float" />
              <param name="Y" type="float" />
              <param name="Z" type="float" />
            </accessor>
          </technique_common>
        </source>
        <source id="normals">
          <float_array id="normals-array" count="84">-0.500488 -0.8657424 0.001371862 0.7271595 -0.2500007 0.6393268 -0.0958317 0.1324932 0.9865403 -0.9994385 0.03347592 0.001460866 -0.9994639 0.03273911 0.0001681333 -0.9989978 0.03662516 -0.02572755 -0.09425403 -0.987857 -0.1235101 0.4833729 -0.8394488 -0.2483471 0.8542085 -0.2509641 0.4553513 0.8664413 0.3678954 0.3375389 0.4010679 0.6251372 0.669588 0.9237771 -0.1057981 0.3680252 0.9268029 -0.0953065 0.3632534 -0.4587285 0.8796133 0.1258915 -0.5777857 0.8161884 0.0004384404 -0.5610269 0.8265179 -0.04600978 -0.998838 0.03739375 -0.03040172 0.3606074 -0.5363976 -0.7630465 -0.9109015 0.08129238 -0.4045367 0.5116832 0.0009704269 -0.8591737 0.5641399 0.0667944 -0.8229731 0.9341284 -0.0962631 0.3437114 0.2256215 0.5012305 -0.8353819 0.2594514 0.4677503 -0.8449229 0.1887681 0.5053269 -0.8420281 -0.4910023 0.8533025 -0.1754753 0.1583243 0.4945891 -0.8545847 0.02983276 0.4438268 -0.8956159</float_array>
          <technique_common>
            <accessor source="#normals-array" count="28" stride="3">
              <param name="X" type="float" />
              <param name="Y" type="float" />
              <param name="Z" type="float" />
            </accessor>
          </technique_common>
        </source>
        <source id="uv">
          <float_array id="uv-array" count="168">0.05108151 5.337549 0.3396521 6.437675 0.05140414 6.830928 -1.316909 6.437675 0.4048435 6.686416 -1.149649 6.830928 0.7129024 0.4048435 0.1203594 0.9208846 0.05140414 -1.149649 0.9208846 6.559552 0.9204209 5.649744 -1.149649 6.830928 0.9204209 5.649744 -1.151829 5.337549 -1.149649 6.830928 0.9204209 5.649744 -1.148136 5.307314 -1.151829 5.337549 0.05199555 5.307314 0.3396521 6.437675 0.05108151 5.337549 0.05199555 5.307314 1.115238 5.398336 0.3396521 6.437675 -0.5628264 5.398336 0.4048435 6.686416 -1.316909 6.437675 0.3995728 5.515005 1.287076 5.904726 0.4048435 6.686416 0.6428243 1.287076 0.1203594 0.9208846 0.7129024 0.4048435 -0.5628264 5.398336 -0.2380057 5.520788 0.4048435 6.686416 -0.2380057 5.520788 0.3995728 5.515005 0.4048435 6.686416 0.6428243 5.904726 0.6183816 5.908504 0.1203594 6.559552 0.6183816 5.908504 0.119014 5.649744 0.1203594 6.559552 0.6183816 5.908504 0.1214504 5.565997 0.119014 5.649744 0.9174128 5.565997 -1.148136 5.307314 0.9204209 5.649744 0.2937989 -0.4193704 1.115238 -0.5628264 0.05199555 -1.148136 0.9174128 5.565997 -0.4193704 4.909288 -1.148136 5.307314 0.2937989 -0.4193704 0.6386323 -0.02723806 1.115238 -0.5628264 0.6386323 -0.02723806 1.171486 0.3995728 1.115238 -0.5628264 0.3995728 5.515005 -0.2380057 5.520788 -0.5628264 5.398336 0.6391351 -0.0248027 0.6428243 1.287076 1.171486 0.3995728 0.6386323 -0.02723806 0.6391351 -0.0248027 1.171486 0.3995728 0.6391351 -0.0248027 0.1214504 0.9174128 0.6428243 1.287076 0.1214504 5.565997 0.6183816 5.908504 0.6428243 5.904726 0.6391351 -0.0248027 0.6386323 -0.02723806 0.1214504 0.9174128 0.6386323 -0.02723806 0.2937989 -0.4193704 0.1214504 0.9174128</float_array>
          <technique_common>
            <accessor source="#uv-array" count="84" stride="2">
              <param name="S" type="float" />
              <param name="T" type="float" />
            </accessor>
          </technique_common>
        </source>
        <vertices id="vertices">
          <input semantic="POSITION" source="#positions" />
        </vertices>
        <triangles count="28" material="m0">
          <input semantic="VERTEX" source="#vertices" offset="0" />
          <input semantic="NORMAL" source="#normals" offset="1" />
          <input semantic="TEXCOORD" source="#uv" offset="2" set="0" />
          <p>3 0 0 0 0 1 1 0 2 0 1 3 4 1 4 1 1 5 4 2 6 9 2 7 1 2 8 9 3 9 12 3 10 1 3 11 12 4 12 3 4 13 1 4 14 12 5 15 2 5 16 3 5 17 2 6 18 0 6 19 3 6 20 2 7 21 7 7 22 0 7 23 7 8 24 4 8 25 0 8 26 6 9 27 5 9 28 4 9 29 5 10 30 9 10 31 4 10 32 7 11 33 13 11 34 4 11 35 13 12 36 6 12 37 4 12 38 5 13 39 10 13 40 9 13 41 10 14 42 12 14 43 9 14 44 10 15 45 11 15 46 12 15 47 11 16 48 2 16 49 12 16 50 8 17 51 7 17 52 2 17 53 11 18 54 8 18 55 2 18 56 8 19 57 15 19 58 7 19 59 15 20 60 6 20 61 7 20 62 6 21 63 13 21 64 7 21 65 14 22 66 5 22 67 6 22 68 15 23 69 14 23 70 6 23 71 14 24 72 11 24 73 5 24 74 11 25 75 10 25 76 5 25 77 14 26 78 15 26 79 11 26 80 15 27 81 8 27 82 11 27 83</p>
        </triangles>
      </mesh>
    </geometry>
  </library_geometries>
  <library_visual_scenes>
    <visual_scene id="Scene">
      <node id="Node" type="NODE">
        <instance_geometry url="#geometry">
          <bind_material>
            <technique_common>
              <instance_material symbol="m0" target="#m0">
                <bind_vertex_input semantic="UVSET0" input_semantic="TEXCOORD" input_set="0" />
              </instance_material>
            </technique_common>
          </bind_material>
        </instance_geometry>
      </node>
    </visual_scene>
  </library_visual_scenes>
  <scene>
    <instance_visual_scene url="#Scene" />
  </scene>
</COLLADA>