<?xml version='1.0' encoding='utf-8'?>
<COLLADA xmlns="http://www.collada.org/2005/11/COLLADASchema" version="1.4.1">
  <asset>
    <created>2026-09-15T00:00:00Z</created>
    <modified>2026-09-15T00:00:00Z</modified>
    <unit name="meter" meter="1" />
    <up_axis>Z_UP</up_axis>
  </asset>
  <library_images />
  <library_effects>
    <effect id="e0">
      <profile_COMMON>
        <technique sid="common">
          <phong>
            <ambient>
              <color>0.225 0.225 0.225 1</color>
            </ambient>
            <diffuse>
              <color>0.5 0.5 0.5 1</color>
            </diffuse>
            <specular>
              <color>0.02 0.02 0.02 1</color>
            </specular>
            <shininess>
              <float>8</float>
            </shininess>
          </phong>
        </technique>
      </profile_COMMON>
    </effect>
  </library_effects>
  <library_materials>
    <material id="m0" name="m0">
      <instance_effect url="#e0" />
    </material>
  </library_materials>
  <library_geometries>
    <geometry id="geometry" name="canopy_3_0">
      <mesh>
        <source id="positions">
          <float_array id="positions-array" count="39">-1.374375 3.452961 13.37356 -1.430115 -1.428267 15.70281 -1.442043 -1.397874 15.72662 -3.053083 -2.844058 14.18067 -0.7254887 -2.36889 13.55631 -1.437433 -1.429095 12.93806 -2.491151 2.101924 14.66368 -4.71068 1.616767 12.84589 -2.070724 3.91801 11.54761 -1.31049 0.5277112 11.94652 -2.49034 2.10229 11.41098 -2.47712 -0.5375134 15.39806 -2.502945 -0.565249 12.58907</float_array>
          <technique_common>
            <accessor source="#positions-array" count="13" stride="3">
              <param name="X" type="float" />
              <param name="Y" type="float" />
              <param name="Z" type="float" />
            </accessor>
          </technique_common>
        </source>
        <source id="normals">
          <float_array id="normals-array" count="66">-0.5062188 -0.3002856 0.8084374 -0.142446 -0.6444269 0.751281 0.9437886 0.1335163 0.3023847 0.4626175 0.3817012 0.8001807 -0.08309679 0.2667127 0.9601871 -0.6466078 0.2012823 0.7357878 -0.7940702 -0.1165693 0.5965434 -0.1650731 -0.5376492 -0.826852 -0.09259346 -0.5952416 -0.7981941 0.2948475 -0.8358442 0.4630652 -0.4969926 -0.4130303 -0.7631542 0.9576505 0.1150227 0.2639607 0.9341608 0.1727332 -0.3122608 -0.4908962 0.780983 0.3861173 -0.4904744 0.7788103 0.3910107 0.9800932 0.1039283 -0.1691632 -0.5618776 0.1904243 -0.8050045 -0.4499477 -0.3590091 -0.8177161 -0.1222687 -0.4004796 -0.9081115 -0.07054518 -0.4472252 -0.891635 0.1610149 -0.4543904 -0.8761299 0.3900099 -0.02086203 -0.9205743</float_array>
          <technique_common>
            <accessor source="#normals-array" count="22" stride="3">
              <param name="X" type="float" />
              <param name="Y" type="float" />
              <param name="Z" type="float" />
            </accessor>
          </technique_common>
        </source>
        <source id="uv">
          <float_array id="uv-array" count="132">-0.9908481 -0.2150054 -1.221233 -1.137623 -0.5768171 -0.5591496 -1.221233 -1.137623 -0.572046 -0.5713068 -0.5768171 -0.5591496 -0.5713068 6.281125 1.381184 5.349424 -0.5591496 6.290649 -0.5497502 1.381184 -0.9964602 0.8407695 -0.5768171 -0.5591496 -0.9964602 0.8407695 -0.9908481 -0.2150054 -0.5768171 -0.5591496 -0.9964602 0.8407695 -1.884272 0.6467069 -0.9908481 -0.2150054 0.6467069 5.138356 -1.137623 5.672267 -0.2150054 6.159224 -1.001178 -0.2260996 -0.574973 -0.5716381 -1.221233 -1.137623 -0.574973 -0.5716381 -0.2901955 -0.9475558 -1.221233 -1.137623 -0.2901955 5.422523 -0.572046 6.281125 -1.221233 5.672267 -1.884272 0.6467069 -1.001178 -0.2260996 -1.221233 -1.137623 -0.9475558 5.422523 1.381184 5.349424 -0.5713068 6.281125 0.2110845 4.778609 1.567204 4.619044 1.381184 5.349424 -0.8282898 4.619044 -1.884272 5.138356 -0.5497502 5.349424 -1.884272 5.138356 -0.9964602 5.865474 -0.5497502 5.349424 -0.9475558 5.422523 0.2110845 4.778609 1.381184 5.349424 -0.8282898 1.567204 -0.996136 0.840916 -1.884272 0.6467069 -0.996136 0.840916 -1.001178 -0.2260996 -1.884272 0.6467069 -0.996136 0.840916 -0.5241959 0.2110845 -1.001178 -0.2260996 -0.5241959 0.2110845 -0.574973 -0.5716381 -1.001178 -0.2260996 -0.5241959 0.2110845 -0.2901955 -0.9475558 -0.574973 -0.5716381 -0.996136 0.840916 -0.8282898 1.567204 -0.5241959 0.2110845</float_array>
          <technique_common>
            <accessor source="#uv-array" count="66" stride="2">
              <param name="S" type="float" />
              <param name="T" type="float" />
            </accessor>
          </technique_common>
        </source>
        <vertices id="vertices">
          <input semantic="POSITION" source="#positions" />
        </vertices>
        <triangles count="22" material="m0">
          <input semantic="VERTEX" source="#vertices" offset="0" />
          <input semantic="NORMAL" source="#normals" offset="1" />
          <input semantic="TEXCOORD" source="#uv" offset="2" set="0" />
          <p>11 0 0 3 0 1 2 0 2 3 1 3 1 1 4 2 1 5 1 2 6 0 2 7 2 2 8 0 3 9 6 3 10 2 3 11 6 4 12 11 4 13 2 4 14 6 5 15 7 5 16 11 5 17 7 6 18 3 6 19 11 6 20 12 7 21 5 7 22 3 7 23 5 8 24 4 8 25 3 8 26 4 9 27 1 9 28 3 9 29 7 10 30 12 10 31 3 10 32 4 11 33 0 11 34 1 11 35 9 12 36 8 12 37 0 12 38 8 13 39 7 13 40 0 13 41 7 14 42 6 14 43 0 14 44 4 15 45 9 15 46 0 15 47 8 16 48 10 16 49 7 16 50 10 17 51 12 17 52 7 17 53 10 18 54 9 18 55 12 18 56 9 19 57 5 19 58 12 19 59 9 20 60 4 20 61 5 20 62 10 21 63 8 21 64 9 21 65</p>
        </triangles>
      </mesh>
    </geometry>
  </library_geometries>
  <library_visual_scenes>
    <visual_scene id="Scene">
      <node id="Node" type="NODE">
        <instance_geometry url="#geometry">
          <bind_material>
            <technique_common>
              <instance_material symbol="m0" target="#m0">
                <bind_vertex_input semantic="UVSET0" input_semantic="TEXCOORD" input_set="0" />
              </instance_material>
            </technique_common>
          </bind_material>
        </instance_geometry>
      </node>
    </visual_scene>
  </library_visual_scenes>
  <scene>
    <instance_visual_scene url="#Scene" />
  </scene>
</COLLADA>