<?xml version='1.0' encoding='utf-8'?>
<COLLADA xmlns="http://www.collada.org/2005/11/COLLADASchema" version="1.4.1">
  <asset>
    <created>2026-09-15T00:00:00Z</created>
    <modified>2026-09-15T00:00:00Z</modified>
    <unit name="meter" meter="1" />
    <up_axis>Z_UP</up_axis>
  </asset>
  <library_images />
  <library_effects>
    <effect id="e0">
      <profile_COMMON>
        <technique sid="common">
          <phong>
            <ambient>
              <color>0.225 0.225 0.225 1</color>
            </ambient>
            <diffuse>
              <color>0.5 0.5 0.5 1</color>
            </diffuse>
            <specular>
              <color>0.02 0.02 0.02 1</color>
            </specular>
            <shininess>
              <float>8</float>
            </shininess>
          </phong>
        </technique>
      </profile_COMMON>
    </effect>
  </library_effects>
  <library_materials>
    <material id="m0" name="m0">
      <instance_effect url="#e0" />
    </material>
  </library_materials>
  <library_geometries>
    <geometry id="geometry" name="canopy_6_0">
      <mesh>
        <source id="positions">
          <float_array id="positions-array" count="45">-2.145463 1.526431 16.77935 -1.537328 3.24315 15.34854 -2.170671 1.544079 16.25891 -2.147617 1.512723 14.13776 -2.161811 1.537361 14.28874 -2.188915 1.447324 15.28349 -0.1552689 -3.670398 14.53982 -0.01664862 0.3254739 13.60557 -1.558296 -0.4694518 12.1583 -0.539773 1.330364 15.23023 -0.03521539 -0.1312634 12.74605 -0.5441398 1.335877 12.01437 -0.5764072 -1.560817 15.82957 -1.342791 -3.236895 14.04214 -0.5776164 -1.545455 12.88584</float_array>
          <technique_common>
            <accessor source="#positions-array" count="15" stride="3">
              <param name="X" type="float" />
              <param name="Y" type="float" />
              <param name="Z" type="float" />
            </accessor>
          </technique_common>
        </source>
        <source id="normals">
          <float_array id="normals-array" count="78">0.6789466 0.3130068 0.6641221 -0.9249837 0.3756252 0.0575395 -0.9811244 -0.1889564 0.04111473 -0.5400701 -0.4858963 0.6871893 0.6963765 0.1372056 0.704439 0.886651 0.462439 -0.0005365693 0.958811 0.04595726 0.2803024 -0.8935564 0.422116 -0.1528886 -0.9379479 0.3467341 -0.005400123 0.886696 0.4623528 -0.0003529525 -0.6238681 0.5836749 -0.5197231 -0.9718826 0.235409 -0.005173133 -0.9816466 -0.1871015 0.03691921 -0.004527335 -0.5629481 -0.8264798 0.1156549 -0.5956897 -0.7948445 -0.4847976 -0.5246295 0.6998108 -0.985094 -0.1668259 -0.04194005 -0.9840433 -0.1654279 -0.06551622 -0.9782772 -0.1631962 -0.1278312 0.9632442 0.0290223 0.2670547 0.9993718 -0.03532731 -0.002815298 0.9547242 0.2536668 -0.1554186 -0.7287664 0.3631009 -0.5805664 0.4634956 -0.2614583 -0.8466471 0.3609226 -0.2738292 -0.8914889 0.715457 -0.3350104 -0.6130982</float_array>
          <technique_common>
            <accessor source="#normals-array" count="26" stride="3">
              <param name="X" type="float" />
              <param name="Y" type="float" />
              <param name="Z" type="float" />
            </accessor>
          </technique_common>
        </source>
        <source id="uv">
          <float_array id="uv-array" count="156">0.5321457 6.092091 1.29726 6.139415 0.6105726 6.711741 1.29726 6.139415 0.6176314 6.503566 0.6105726 6.711741 0.6176314 6.503566 -1.294758 5.616856 0.6105726 6.711741 -0.5371163 -1.294758 -0.2305629 -0.6243266 -0.8581852 0.6105726 -0.2305629 -0.6243266 -0.2159092 0.5321457 -0.8581852 0.6105726 0.1301895 5.442228 1.29726 6.139415 0.5321457 6.092091 -0.6243266 6.331827 0.1301895 5.442228 0.5321457 6.092091 0.6050891 5.655105 0.6149443 5.715498 1.29726 6.139415 0.6149443 5.715498 0.6176314 6.503566 1.29726 6.139415 0.1301895 5.442228 0.5343508 4.805746 1.29726 6.139415 0.5343508 4.805746 0.6050891 5.655105 1.29726 6.139415 0.6149443 5.715498 0.5789298 6.113397 0.6176314 6.503566 0.5789298 6.113397 -1.294758 5.616856 0.6176314 6.503566 -0.6233183 -0.1877807 -0.2310466 -0.6181819 -0.5371163 -1.294758 -0.2310466 -0.6181819 -0.06210757 -1.468159 -0.5371163 -1.294758 -0.06210757 -1.468159 -0.2305629 -0.6243266 -0.5371163 -1.294758 0.5789298 6.113397 0.6149443 5.715498 -1.294758 5.616856 0.6149443 5.715498 0.6050891 5.655105 -1.294758 5.616856 0.6050891 5.655105 -0.1877807 4.863322 -1.294758 5.616856 -1.468159 5.815926 0.1301895 5.442228 -0.6243266 6.331827 -1.468159 5.815926 -0.05250537 5.098421 0.1301895 5.442228 -0.05250537 5.098421 0.5343508 4.805746 0.1301895 5.442228 0.5343508 4.805746 -0.1877807 4.863322 0.6050891 5.655105 -0.01408615 -0.05250537 -0.2310466 -0.6181819 -0.2176559 0.5343508 -0.2310466 -0.6181819 -0.6233183 -0.1877807 -0.2176559 0.5343508 -0.05250537 5.098421 -1.468159 5.815926 -0.6181819 5.154336</float_array>
          <technique_common>
            <accessor source="#uv-array" count="78" stride="2">
              <param name="S" type="float" />
              <param name="T" type="float" />
            </accessor>
          </technique_common>
        </source>
        <vertices id="vertices">
          <input semantic="POSITION" source="#positions" />
        </vertices>
        <triangles count="26" material="m0">
          <input semantic="VERTEX" source="#vertices" offset="0" />
          <input semantic="NORMAL" source="#normals" offset="1" />
          <input semantic="TEXCOORD" source="#uv" offset="2" set="0" />
          <p>9 0 0 1 0 1 0 0 2 1 1 3 2 1 4 0 1 5 2 2 6 13 2 7 0 2 8 13 3 9 12 3 10 0 3 11 12 4 12 9 4 13 0 4 14 7 5 15 1 5 16 9 5 17 12 6 18 7 6 19 9 6 20 3 7 21 4 7 22 1 7 23 4 8 24 2 8 25 1 8 26 7 9 27 11 9 28 1 9 29 11 10 30 3 10 31 1 10 32 4 11 33 5 11 34 2 11 35 5 12 36 13 12 37 2 12 38 8 13 39 14 13 40 13 13 41 14 14 42 6 14 43 13 14 44 6 15 45 12 15 46 13 15 47 5 16 48 4 16 49 13 16 50 4 17 51 3 17 52 13 17 53 3 18 54 8 18 55 13 18 56 6 19 57 7 19 58 12 19 59 6 20 60 10 20 61 7 20 62 10 21 63 11 21 64 7 21 65 11 22 66 8 22 67 3 22 68 10 23 69 14 23 70 11 23 71 14 24 72 8 24 73 11 24 74 10 25 75 6 25 76 14 25 77</p>
        </triangles>
      </mesh>
    </geometry>
  </library_geometries>
  <library_visual_scenes>
    <visual_scene id="Scene">
      <node id="Node" type="NODE">
        <instance_geometry url="#geometry">
          <bind_material>
            <technique_common>
              <instance_material symbol="m0" target="#m0">
                <bind_vertex_input semantic="UVSET0" input_semantic="TEXCOORD" input_set="0" />
              </instance_material>
            </technique_common>
          </bind_material>
        </instance_geometry>
      </node>
    </visual_scene>
  </library_visual_scenes>
  <scene>
    <instance_visual_scene url="#Scene" />
  </scene>
</COLLADA>