<?xml version='1.0' encoding='utf-8'?>
<COLLADA xmlns="http://www.collada.org/2005/11/COLLADASchema" version="1.4.1">
  <asset>
    <created>2026-09-08T00:00:00Z</created>
    <modified>2026-09-08T00:00:00Z</modified>
    <unit name="meter" meter="1" />
    <up_axis>Z_UP</up_axis>
  </asset>
  <library_images />
  <library_effects>
    <effect id="e0">
      <profile_COMMON>
        <technique sid="common">
          <phong>
            <ambient>
              <color>0.1755 0.18 0.1485 1</color>
            </ambient>
            <diffuse>
              <color>0.39 0.4 0.33 1</color>
            </diffuse>
            <specular>
              <color>0.02 0.02 0.02 1</color>
            </specular>
            <shininess>
              <float>8</float>
            </shininess>
          </phong>
        </technique>
      </profile_COMMON>
    </effect>
    <effect id="e1">
      <profile_COMMON>
        <technique sid="common">
          <phong>
            <ambient>
              <color>0.045 0.09 0.06075 1</color>
            </ambient>
            <diffuse>
              <color>0.1 0.2 0.135 1</color>
            </diffuse>
            <specular>
              <color>0.02 0.02 0.02 1</color>
            </specular>
            <shininess>
              <float>8</float>
            </shininess>
          </phong>
        </technique>
      </profile_COMMON>
    </effect>
    <effect id="e2">
      <profile_COMMON>
        <technique sid="common">
          <phong>
            <ambient>
              <color>0.0765 0.1215 0.0765 1</color>
            </ambient>
            <diffuse>
              <color>0.17 0.27 0.17 1</color>
            </diffuse>
            <specular>
              <color>0.02 0.02 0.02 1</color>
            </specular>
            <shininess>
              <float>8</float>
            </shininess>
          </phong>
        </technique>
      </profile_COMMON>
    </effect>
    <effect id="e3">
      <profile_COMMON>
        <technique sid="common">
          <phong>
            <ambient>
              <color>0.099 0.1395 0.09225 1</color>
            </ambient>
            <diffuse>
              <color>0.22 0.31 0.205 1</color>
            </diffuse>
            <specular>
              <color>0.02 0.02 0.02 1</color>
            </specular>
            <shininess>
              <float>8</float>
            </shininess>
          </phong>
        </technique>
      </profile_COMMON>
    </effect>
    <effect id="e4">
      <profile_COMMON>
        <technique sid="common">
          <phong>
            <ambient>
              <color>0.054 0.1035 0.09 1</color>
            </ambient>
            <diffuse>
              <color>0.12 0.23 0.2 1</color>
            </diffuse>
            <specular>
              <color>0.02 0.02 0.02 1</color>
            </specular>
            <shininess>
              <float>8</float>
            </shininess>
          </phong>
        </technique>
      </profile_COMMON>
    </effect>
    <effect id="e5">
      <profile_COMMON>
        <technique sid="common">
          <phong>
            <ambient>
              <color>0.126 0.1485 0.0855 1</color>
            </ambient>
            <diffuse>
              <color>0.28 0.33 0.19 1</color>
            </diffuse>
            <specular>
              <color>0.02 0.02 0.02 1</color>
            </specular>
            <shininess>
              <float>8</float>
            </shininess>
          </phong>
        </technique>
      </profile_COMMON>
    </effect>
  </library_effects>
  <library_materials>
    <material id="m0" name="m0">
      <instance_effect url="#e0" />
    </material>
    <material id="m1" name="m1">
      <instance_effect url="#e1" />
    </material>
    <material id="m2" name="m2">
      <instance_effect url="#e2" />
    </material>
    <material id="m3" name="m3">
      <instance_effect url="#e3" />
    </material>
    <material id="m4" name="m4">
      <instance_effect url="#e4" />
    </material>
    <material id="m5" name="m5">
      <instance_effect url="#e5" />
    </material>
  </library_materials>
  <library_geometries>
    <geometry id="geometry" name="forest_23_27">
      <mesh>
        <source id="positions">
          <float_array id="positions-array" count="1215">33.42707 71.19006 -2.239538 33.32534 71.17181 -2.243022 33.4145 71.0995 -2.242029 33.35398 71.11623 -0.257703 33.32201 71.12879 -0.258247 33.33107 71.09365 -0.2588114 33.37557 71.14675 -0.766717 33.34107 71.143 -0.7426406 33.36884 71.11113 -0.7616973 33.75088 71.13835 -0.1235745 33.74259 71.1439 -0.1178009 33.74365 71.13324 -0.1184497 33.75646 71.09137 0.3276364 33.74454 71.15298 0.284805 33.74571 71.1386 0.2200295 33.30118 70.98388 0.005481741 33.74949 71.1372 -0.5381241 33.75447 71.12974 -0.2837445 33.65166 71.2692 -0.2211145 33.37241 71.15318 -1.262473 33.34069 71.13742 -1.272407 33.35942 71.1132 -1.242452 32.9118 71.62156 -0.4837184 32.90249 71.61551 -0.4855934 32.90778 71.61212 -0.479563 32.91269 71.65579 -0.4286257 32.90773 71.61708 -0.2122603 32.9078 71.61705 -0.151808 32.3611 71.56477 -0.3476432 32.98875 72.1413 -0.4161054 32.91994 71.5896 -0.7405327 32.91505 71.60456 -0.8132454 32.90758 71.6175 -0.7865656 33.37687 71.1479 -1.086734 33.33458 71.13074 -1.092995 33.36424 71.1118 -1.103861 33.41214 70.68247 -0.04040801 33.4011 70.68466 -0.03875993 33.40399 70.67596 -0.04322245 33.40824 70.67659 0.3487622 33.40581 70.68111 0.2450052 33.40772 70.68243 0.3353744 33.09356 70.37272 -0.06550406 33.79385 70.5036 0.03227795 33.403 70.67632 -0.4010123 33.40592 70.68114 -0.3411119 33.22683 71.12853 -0.1505181 33.4058 70.68114 -0.3186997 33.37317 71.15069 -1.369107 33.33675 71.12957 -1.351958 33.36437 71.11027 -1.353227 33.67626 71.50786 -0.06297679 33.66612 71.50534 -0.05934778 33.67591 71.49984 -0.06023949 33.67199 71.5043 0.2545856 33.67268 71.50355 0.3145773 33.67235 71.50421 0.2688757 33.30923 71.15494 -0.03369631 34.08506 71.55113 -0.1437619 33.58624 72.01373 -0.1995361 33.67203 71.50432 -0.4282669 33.67299 71.50498 -0.4403484 33.67191 71.50431 -0.363419 33.3827 71.13336 -1.38103 33.35563 71.1567 -1.389686 33.34157 71.11815 -1.396147 32.94037 71.09468 -0.01032768 32.93226 71.08822 -0.01341553 32.94262 71.08487 -0.009893124 32.93566 71.08838 0.4480491 32.93817 71.089 0.4713175 33.00811 71.15919 0.5207166 32.93168 71.08947 -0.3488478 33.20195 70.85272 -0.0940525 32.76593 71.40942 -0.2056201 32.93333 71.09114 -0.4800894 32.93986 71.08952 -0.4521051 33.37008 71.15642 -1.278863 33.33837 71.12855 -1.270087 33.36798 71.11341 -1.294481 33.96628 70.75657 -0.166314 33.95719 70.75462 -0.1613867 33.95986 70.74702 -0.1660509 33.9618 70.7528 0.110648 33.66546 70.39649 -0.1740297 33.96182 70.7527 0.1909129 33.96646 70.75051 0.2306535 34.54557 70.61446 -0.1325467 33.92568 70.76276 -0.189877 33.96478 70.74755 -0.6236844 33.96863 70.75072 -0.5843548 33.38373 71.13598 -1.176648 33.34181 71.14868 -1.189685 33.35205 71.1131 -1.166172 33.22891 71.83666 0.114095 33.21915 71.83815 0.111977 33.22117 71.82913 0.1178798 33.22312 71.83456 0.4796146 33.01193 71.45523 0.1801454 33.22316 71.83356 0.5549317 33.22255 71.83534 0.5467685 33.21441 72.26871 0.03945246 33.63778 71.80054 0.0173627 33.22278 71.83073 -0.3002246 33.22315 71.83457 -0.2393981 33.22257 71.83525 -0.3106449 33.38221 71.14008 -1.322579 33.33667 71.14095 -1.330079 33.36425 71.1103 -1.33498 33.1235 70.70311 0.2686949 33.12215 70.69219 0.2650381 33.1304 70.69545 0.2674735 33.11369 70.67693 0.6440616 33.12518 70.69783 0.5963167 33.12043 70.69409 0.3493756 32.97076 70.2882 0.2700904 33.39103 70.82405 0.1973986 33.12664 70.6999 -0.08419768 33.12472 70.69738 -0.03383657 33.12335 70.69072 -0.07138374 33.38169 71.13963 -1.146897 33.34461 71.15151 -1.135918 33.35076 71.10907 -1.132802 33.67625 71.2525 -0.05466663 33.66894 71.24925 -0.05181093 33.67638 71.24132 -0.05337205 33.67434 71.24705 0.2802651 33.67298 71.24706 0.3954228 33.41883 70.82777 -0.2290203 33.67454 71.24677 0.3301194 33.4454 71.51465 0.1276904 34.17292 71.33753 0.008721399 33.65356 71.27537 -0.4300497 33.67439 71.24684 -0.4771066 33.67433 71.24701 -0.4359876 31.78505 71.28303 -2.185903 31.81972 71.19494 -2.189071 31.86864 71.288 -2.188168 31.86448 71.23064 -0.3835241 31.85894 71.19968 -0.3840189 31.88888 71.21413 -0.3845322 31.83319 71.24455 -0.8464466 31.84276 71.21424 -0.8245504 31.8664 71.24491 -0.8418815 31.77333 71.58311 -0.261541 31.76984 71.57467 -0.2562902 31.77922 71.57754 -0.2568803 31.81452 71.59656 0.1488124 31.76133 71.57479 0.1098594 31.77403 71.57843 0.05094943 31.99282 71.207 -0.1441709 31.77462 71.58207 -0.6385529 31.78042 71.58788 -0.4072075 31.67364 71.4705 -0.3502487 31.82799 71.24056 -1.297312 31.84784 71.21491 -1.306346 31.86623 71.23608 -1.279104 31.49009 70.74278 -0.5890737 31.49719 70.7355 -0.5907789 31.49929 70.74087 -0.5852945 31.45918 70.73743 -0.5389697 31.49484 70.73993 -0.3421963 31.49485 70.74 -0.287218 31.64 70.25842 -0.4653202 31.00951 70.71854 -0.5275831 31.51732 70.75583 -0.8226333 31.50477 70.74875 -0.8887619 31.49449 70.73972 -0.864498 31.83193 71.24552 -1.137486 31.85493 71.21061 -1.14318 31.86662 71.24065 -1.153062 32.24358 71.36078 -0.1859053 32.24359 71.35048 -0.1844065 32.25088 71.35464 -0.1884649 32.24955 71.35834 0.1680253 32.24593 71.35534 0.07366355 32.2444 71.35682 0.1558498 32.57897 71.13031 -0.2087289 32.33565 71.73571 -0.1198011 32.25075 71.35368 -0.5138567 32.24589 71.35544 -0.4593803 31.87627 71.11425 -0.2860448 32.24591 71.35533 -0.4389976 31.83009 71.24169 -1.39429 31.8556 71.21278 -1.378694 31.86797 71.24105 -1.379847 31.45489 71.44973 -0.2064305 31.45898 71.44108 -0.2031301 31.46216 71.45086 -0.203941 31.45885 71.44654 0.08237646 31.4594 71.44729 0.1369358 31.45887 71.44687 0.09537255 31.83776 71.1835 -0.1798014 31.34261 71.80908 -0.2799005 31.01676 71.27803 -0.3306242 31.45883 71.44657 -0.5386434 31.45806 71.44731 -0.5496309 31.45886 71.44646 -0.4796674 31.84394 71.25336 -1.405134 31.82785 71.22486 -1.413005 31.86499 71.21916 -1.418881 31.95813 70.86307 -0.1585488 31.96538 70.85695 -0.161357 31.96653 70.86685 -0.1581536 31.96462 70.85997 0.2583217 31.96362 70.86212 0.2794831 31.88802 70.91232 0.3244091 31.96436 70.8562 -0.4664157 32.12843 71.14145 -0.2346923 31.7068 70.64988 -0.3361574 31.96257 70.85738 -0.5857733 31.96285 70.86354 -0.560323 31.8255 71.23788 -1.312217 31.85622 71.21441 -1.304236 31.8645 71.24373 -1.326422 32.07751 71.84513 -0.3004104 32.08088 71.83732 -0.2959293 32.08724 71.84108 -0.3001712 32.08169 71.84178 -0.04852747 32.45491 71.63964 -0.3074274 32.08178 71.84181 0.02446932 32.08292 71.84638 0.06061138 32.10108 72.39088 -0.2697008 32.07923 71.80755 -0.3218398 32.08588 71.8454 -0.7163657 32.08234 71.84829 -0.6805974 31.8414 71.25382 -1.219258 31.83753 71.21388 -1.231114 31.86764 71.22947 -1.209731 31.23995 70.98893 -0.04539261 31.24038 70.9799 -0.04731883 31.24811 70.98333 -0.04195056 31.24288 70.98411 0.2870289 31.62147 70.86258 0.0146769 31.24378 70.98433 0.3555261 31.24228 70.98345 0.348102 30.85456 70.89831 -0.1132763 31.19896 71.3626 -0.1333658 31.24639 70.98449 -0.4221954 31.24287 70.98413 -0.3668768 31.24236 70.98349 -0.4316721 31.83799 71.25171 -1.351975 31.84539 71.21066 -1.358796 31.86797 71.24093 -1.363253 32.27689 71.09786 0.09520812 32.28694 71.09861 0.09188247 32.28252 71.10544 0.09409734 32.30215 71.09375 0.4365852 32.28132 71.10032 0.3931636 32.28554 71.09672 0.1685831 32.67693 71.03521 0.0964773 32.12023 71.3164 0.03036774 32.27921 71.10126 -0.2257298 32.28181 71.09999 -0.1799289 32.28804 71.09995 -0.2140762 31.83849 71.25133 -1.192201 31.83448 71.2159 -1.182216 31.8715 71.22904 -1.179382 31.68422 71.49559 -0.1988728 31.68845 71.48961 -0.1962757 31.69424 71.49772 -0.1976955 31.68946 71.49485 0.1057306 31.68969 71.49363 0.2104608 32.11189 71.34069 -0.3574387 31.68968 71.49508 0.1510706 31.49026 71.24119 -0.03302831 31.51865 71.92636 -0.1412246 31.66776 71.4711 -0.5402648 31.68964 71.49494 -0.5830606 31.6895 71.49485 -0.545665 39.85 70.0681 -2.12355 39.91085 70.01896 -2.126182 39.90802 70.10579 -2.125432 39.92844 70.06288 -0.6262202 39.9371 70.03837 -0.6266312 39.95271 70.06097 -0.6270576 39.89837 70.06041 -1.482813 39.92336 70.04267 -1.490039 39.92088 70.07318 -1.472167 39.80657 69.58768 -0.581894 39.81333 69.58849 -0.5804951 39.8075 69.59445 -0.5777583 40.07732 69.75429 -0.5458792 39.80864 69.59119 -0.3118386 39.83727 69.56571 -0.5444861 39.80895 69.59032 -0.3100114 39.80149 69.60032 -0.7315266 39.80838 69.58795 -0.8757197 39.80902 69.59074 -0.8498664 39.89936 70.05076 -1.138464 39.9322 70.04809 -1.148933 39.91759 70.07469 -1.151703 40.12348 70.23856 -0.4336027 40.12965 70.23378 -0.4342964 40.13153 70.24004 -0.4367699 40.12719 70.23447 -0.1383352 40.12577 70.25085 -0.1366895 40.12763 70.23814 -0.1695752 39.71093 70.4274 -0.3931777 40.52548 70.3154 -0.4459885 40.06072 69.81761 -0.4835295 40.13147 70.23851 -0.7239532 40.12703 70.23581 -0.6987472 40.1278 70.23791 -0.6679923 39.90624 70.07069 -1.447974 39.91366 70.03812 -1.439205 39.92959 70.06452 -1.42804 39.30923 70.11309 -0.6074258 39.31553 70.11188 -0.6020703 39.31269 70.11951 -0.6050432 39.31255 70.11484 -0.3862659 39.31255 70.11483 -0.3920516 39.45348 70.06482 -0.3592357 39.31238 70.11487 -0.3636878 39.55381 70.38031 -0.7322719 39.13389 69.84615 -0.4392981 39.09546 70.37408 -0.4968329 39.35547 70.12377 -0.8271874 39.29968 70.11681 -0.8831975 39.3241 70.114 -0.8866747 39.91133 70.07119 -1.206231 39.90972 70.04212 -1.225114 39.93136 70.05516 -1.228828 40.22305 69.69572 -0.6063823 40.22727 69.69143 -0.611764 40.23094 69.69708 -0.6100539 40.22974 69.69312 -0.2984419 40.22682 69.69511 -0.3579434 40.45389 69.98394 -0.6418988 40.22429 69.69453 -0.2935477 39.91391 69.6803 -0.5540022 40.2282 69.69071 -0.8027908 40.22251 69.69488 -0.9266146 40.22689 69.69505 -0.8822179 39.90256 70.06821 -1.309499 39.9106 70.04091 -1.297808 39.93473 70.0639 -1.306928 39.89269 70.42571 -0.3084195 39.89623 70.41844 -0.3052791 39.90066 70.42424 -0.3076233 39.89806 70.42096 -0.05571054 39.89915 70.42651 -0.08946315 39.89674 70.41967 0.009852976 39.68804 70.67405 -0.3613198 39.89246 70.42535 -0.3831692 39.89723 70.42063 -0.6546393 39.89615 70.42314 -0.6368723 39.90049 70.05362 -1.292125 39.93019 70.04505 -1.281642 39.91816 70.07403 -1.272869 39.47778 69.61657 -0.28358 39.48246 69.61002 -0.2845798 39.48516 69.61635 -0.2799963 39.48179 69.61431 -0.02308691 39.4818 69.61429 -0.01107194 39.4796 69.62212 0.02672075 39.45036 69.91698 -0.2705584 39.72219 69.47628 -0.2246468 39.2423 69.52892 -0.2209244 39.50055 69.63594 -0.6081446 39.48177 69.61423 -0.5376905 39.4818 69.61432 -0.5548264 39.89947 70.06024 -0.9865003 39.91621 70.03887 -0.9924707 39.92656 70.07168 -0.9981213 40.19004 70.08223 -0.2126077 40.19685 70.08689 -0.2155646 40.19101 70.08997 -0.2133059 40.19266 70.08587 0.05358698 40.1906 70.0874 0.008159778 40.17562 70.02772 -0.1081427 40.47836 70.08879 -0.2074592 40.19269 70.08513 -0.4826937 40.19275 70.08597 -0.4347896 40.19066 70.08647 -0.4544725 39.90572 70.06874 -1.189191 39.91239 70.04019 -1.169952 39.93161 70.0638 -1.168746 39.52644 70.34671 -0.5359763 39.52871 70.33997 -0.5309669 39.53192 70.34748 -0.5325647 39.52895 70.34419 -0.2382729 39.80692 70.37079 -0.3060083 39.52783 70.34425 -0.252683 39.52893 70.34395 -0.2539143 39.34576 70.04798 -0.4172212 39.74812 70.12356 -0.7523602 39.57333 70.65183 -0.74812 39.18263 70.40453 -0.6025089 39.52885 70.34424 -0.8097688 39.52879 70.34416 -0.8230247 39.90091 70.0664 -1.205111 39.92178 70.04274 -1.220971 39.92844 70.06965 -1.205225 39.97132 69.59603 -0.3352414 39.97895 69.5999 -0.3334816 39.97297 69.60276 -0.3313023 39.97451 69.59897 -0.06141281 39.97417 69.59923 -0.04925085 40.04338 70.00513 -0.3304439 39.967 69.59605 -0.1624279 40.04249 69.24169 -0.2897519 39.97702 69.59303 -0.654387 39.96882 69.59313 -0.6388835 39.97434 69.59902 -0.5676703</float_array>
          <technique_common>
            <accessor source="#positions-array" count="405" stride="3">
              <param name="X" type="float" />
              <param name="Y" type="float" />
              <param name="Z" type="float" />
            </accessor>
          </technique_common>
        </source>
        <source id="normals">
          <float_array id="normals-array" count="1404">0.3644233 0.9299913 0.04808196 -0.6294336 -0.7765216 -0.02876758 0.9898895 -0.1383318 0.03135547 0.4225202 0.8753248 -0.2351238 -0.5829857 -0.7260531 0.3646568 0.4469194 -0.8643152 -0.2306996 0.8396552 -0.2279458 -0.4929704 0.465962 -0.7921424 -0.394195 -0.8982362 0.4384581 0.03043454 -0.4435761 0.8242902 0.3518323 0.8287432 0.5591591 0.02292855 -0.2032583 0.781298 -0.5901351 -0.632535 -0.7643159 0.1253821 0.8555311 -0.01891322 0.5174059 -0.07801351 0.9957945 -0.04803237 0.3376437 -0.4647875 -0.8185166 -0.9996753 -0.01595171 -0.01987181 -0.9770796 -0.2117142 0.02219542 0.9690061 0.02373846 -0.2458938 -0.3954391 0.8366658 0.37897 -0.5881985 -0.7555385 -0.2884164 0.6564169 -0.6888166 -0.3076499 0.4059146 0.9136474 -0.02194873 -0.8037975 -0.5561085 -0.2113126 -0.07855836 0.8313658 -0.550145 -0.6215694 -0.6784997 -0.3915223 0.845914 -0.2045616 -0.4925283 0.9290952 0.3698074 0.004959199 -0.5237122 -0.7729529 0.3581472 0.9744061 -0.1100296 -0.1960262 -0.1040064 0.9945353 0.009061891 -0.4658284 0.8193928 -0.3340649 -0.5147871 -0.62575 -0.58603 -0.1416882 0.9889778 0.0429798 0.9868322 0.1610175 0.01535044 0.6943268 -0.7196588 0.001186886 0.5974114 0.7726891 0.2145953 -0.583757 0.7998056 -0.1397811 0.3231542 -0.9437283 0.07034434 -0.4053267 0.7606905 -0.5070111 0.8137887 -0.4094687 -0.4124117 0.6601288 0.751149 -0.002270123 0.8872139 0.4613426 -0.003799969 -0.7913434 -0.608977 0.05406153 -0.7907368 -0.5802401 0.1950813 0.8908611 0.4539609 0.01691012 0.630832 0.774287 0.05030569 -0.01383502 0.9385939 0.3447464 -0.4773648 -0.8780197 -0.034704 0.8921909 0.1151423 -0.4367352 -0.7845013 0.6186837 0.04228693 0.2434844 0.9695816 0.02503626 -0.2330527 -0.9724546 0.004310849 -0.2304301 0.8354726 0.4988863 -0.3066485 -0.9458675 0.1063075 0.3782641 0.831823 -0.4061857 -0.9780898 -0.2074293 0.01770472 0.6176837 -0.6583929 0.4300997 -0.6398284 -0.5534454 -0.5332146 -0.518589 0.7302068 -0.4448185 0.9287966 -0.2742896 -0.2492028 -0.3184528 0.8096078 0.4930751 0.9469353 -0.190991 0.2585264 -0.5686201 0.7504049 0.3369921 -0.984359 0.1516119 -0.08972861 -0.7364098 -0.6189365 -0.2731635 0.4062311 -0.8972449 -0.172997 -0.6958281 0.599416 0.3956308 0.4302072 -0.9027107 -0.005934952 0.9454074 -0.3257617 0.009173379 -0.3945724 0.918188 0.03526078 -0.9486892 -0.1157696 0.2942553 -0.2734473 -0.6422261 -0.7160812 -0.7573299 -0.6529721 -0.008875769 -0.8397943 0.5424413 -0.02242607 0.8413901 0.2230793 -0.492238 -0.1710781 -0.9269746 0.3338417 0.8635319 -0.2583294 0.4331035 -0.8546747 0.5191522 -0.003478919 -0.5834461 0.6165493 0.5286376 -0.5142623 -0.5195641 0.6823397 0.8383078 -0.2145054 0.5012259 -0.1772258 0.9839455 0.02102794 -0.968313 -0.2496405 -0.007034395 0.7011455 -0.7124919 0.02739177 -0.07546898 0.9960367 0.0470683 -0.83553 -0.1158968 0.5370825 -0.2268275 0.9498983 -0.2150408 -0.9805708 -0.1959542 -0.009108661 0.490902 -0.8251082 -0.2796637 -0.8026437 -0.5963686 0.01037037 -0.336848 0.7096571 -0.6188054 -0.7671372 -0.6403473 -0.03815573 0.823955 -0.1054489 0.5567573 -0.9879551 0.154658 0.005063385 -0.9881976 0.1531802 0.001166651 -0.9879351 0.154849 -0.00246627 0.518554 -0.480562 0.7072212 -0.786601 -0.6126708 0.07676875 0.2353112 0.8909481 0.3883813 -0.9561061 -0.2866131 -0.0609434 0.9532394 -0.262894 -0.1490681 -0.429025 -0.9028191 -0.02924344 -0.2267211 0.8170087 0.5301833 -0.487485 -0.8680876 0.09371438 -0.7090113 -0.4969663 0.5003274 0.7608073 -0.06148482 0.6460587 -0.9199267 -0.3883404 0.05409805 -0.2996857 0.935667 -0.1863216 -0.535985 0.8374358 -0.1068708 -0.4336116 -0.828599 0.3541252 0.9523448 -0.2659723 -0.1493253 0.09970032 -0.9949249 -0.01357294 0.6997326 -0.7142413 -0.01528321 0.7753042 -0.3514215 -0.5247917 -0.3709611 0.8377483 0.4007066 -0.4917433 -0.439627 0.7516094 0.7202275 -0.09973891 0.6865307 -0.8933912 0.3688842 -0.2564697 -0.2748543 -0.9560544 -0.1020542 0.9252724 0.2255511 0.3049552 0.5614039 0.8234497 -0.0821968 -0.8118421 -0.562373 0.1570002 -0.483925 0.7111684 0.509957 -0.8268333 -0.4749204 0.3013261 0.6999047 -0.4847811 -0.5245195 0.7692106 -0.6389946 -0.0009473155 -0.1611381 0.768486 -0.6192445 0.8095352 -0.5792704 -0.09538621 -0.2321635 -0.9726593 -0.005832738 0.813542 -0.5739463 0.09346218 0.2273392 0.8692485 -0.4390034 -0.9670724 -0.2511033 0.04144892 0.7330268 -0.5570609 0.3903265 0.9188387 -0.3654265 -0.1489927 -0.09641239 -0.9952534 -0.01323879 -0.9995638 -0.02837199 -0.008204429 -0.1205438 -0.9906837 0.06336432 -0.4904789 -0.4779294 0.728707 -0.9996517 -0.02518276 0.007890775 -0.02463496 0.9650257 0.2609954 0.857814 -0.5139002 -0.007857661 0.7334711 0.6155597 0.2882817 -0.2464599 -0.8646302 -0.4378037 0.4353273 -0.9002568 0.00528004 0.9381612 -0.3461962 0.001306103 -0.771267 0.5652002 -0.2927388 0.9376137 -0.3475546 0.009293804 0.3113365 -0.9375697 0.1550243 -0.4487715 0.8932218 0.02754846 0.2555202 0.9522165 -0.1673115 -0.6699669 -0.6850725 0.286042 0.6717515 -0.7321157 -0.1129447 0.9658182 -0.01824409 -0.2585777 0.1752349 -0.9845065 -0.006303414 -0.415596 0.8088227 -0.4160358 -0.9833842 0.1749602 0.04841918 0.8848776 -0.4649219 -0.02896965 -0.05848455 0.9977888 0.03157568 -0.940822 0.242558 -0.2366845 0.8255112 -0.4288741 0.3668763 0.7595993 0.6075164 -0.2322342 0.0587512 0.866569 -0.495587 0.6846286 0.6115932 -0.3965318 -0.2537861 -0.9667747 0.03064829 -0.7206633 -0.5960963 0.3539966 -0.7108259 0.7029889 0.02308965 -0.7244867 -0.3516713 -0.592829 0.8734255 -0.4703073 0.1262495 -0.148954 0.84104 0.520062 -0.9611423 -0.2717827 -0.04836924 0.3877173 0.4202564 -0.8204022 0.211691 -0.9771318 -0.02001145 0.3992198 -0.9165828 0.02235137 -0.2132215 0.9451307 -0.2475168 -0.7421164 -0.5512832 0.381248 0.8557184 -0.428354 -0.2902737 0.5463439 0.7782367 -0.309606 -0.9755075 0.2188531 -0.02210295 0.7027236 -0.6789146 -0.2127311 -0.7981131 -0.2395638 -0.5528333 0.7863721 -0.4759221 -0.393849 0.03463505 0.8681203 -0.4951441 -0.544834 0.8385291 0.004994061 0.8598723 -0.3616289 0.3603391 -0.0831785 0.9767978 -0.1973507 -0.9548251 -0.2970282 0.00912559 -0.7115661 -0.6169909 -0.3361488 0.7128304 -0.3811504 -0.5887251 -0.9419739 -0.3328842 0.04328138 -0.3514211 0.9360899 0.01545832 0.5695172 0.8219785 0.00119523 -0.8745607 0.4341348 0.2160337 -0.6696996 -0.7291732 -0.1407443 0.8619973 0.5019391 0.07083638 -0.6652236 -0.5456487 -0.509652 0.2416328 0.8772362 -0.4148135 -0.8660226 0.4999996 -0.002286082 -0.6263783 0.7795099 -0.003826682 0.7523289 -0.6565345 0.05444046 0.7238523 -0.6614113 0.1964 -0.619854 0.7845323 0.01702896 -0.8829501 0.4667257 0.05065843 -0.9168859 -0.1974716 0.3468792 0.9545791 -0.2959011 -0.03494767 -0.2874903 0.8511402 -0.4392149 -0.4528128 -0.8905881 0.04258366 -0.9984997 0.04860822 0.02521216 0.9992753 -0.0378158 0.004341154 -0.7727028 -0.3891201 0.5015137 0.9875591 -0.1151874 0.1070463 -0.8888187 0.2075457 -0.4085659 0.3952168 -0.9184148 0.01782914 0.5237886 0.7338515 0.4325591 0.6668409 -0.5178281 -0.5358893 -0.6134691 -0.6508141 -0.4473216 0.08677585 0.9641301 -0.2508448 -0.7301821 -0.4702379 0.4956919 0.001574856 0.9655477 0.2602212 -0.6238195 -0.7041786 0.3390896 0.04437556 -0.9949206 -0.09035426 0.7509421 -0.6004119 -0.2749391 0.7999853 0.574183 -0.1741764 -0.4508174 -0.7989876 0.3979728 0.8008116 0.5988865 -0.005976673 0.1340288 0.9909344 0.009237862 -0.8229699 -0.5669742 0.03550835 0.2993892 -0.907009 0.296143 0.6809228 -0.1416766 -0.7185206 0.7888143 -0.6145667 -0.00893816 -0.3672116 -0.9298632 -0.02258364 -0.3831009 0.7799705 -0.4948533 0.9417845 0.01402507 0.3359246 0.08385197 0.8962398 0.4355721 -0.3414578 -0.9398906 -0.003503375 -0.4891917 -0.6916675 0.5313074 0.6083336 -0.4010673 0.6848906 0.04585548 0.8625689 0.5038573 -0.9300793 -0.3667479 0.0211757 0.4346917 -0.9005515 -0.007083844 0.5611493 0.8272549 0.02758418 -0.9618794 -0.2693353 0.04739844 0.2769417 -0.79496 0.5397609 -0.8866793 -0.4085772 -0.2164819 0.3844517 -0.9230995 -0.009172689 0.7124202 0.6428293 -0.2814745 0.7421964 -0.6701011 0.01044326 -0.6281216 -0.4682169 -0.621479 0.7783504 -0.6266533 -0.03842357 -0.05806052 0.8268286 0.5594492 0.04209643 -0.9991005 0.00509898 0.04359308 -0.9990487 0.001174853 0.04190518 -0.9991185 -0.002483608 0.3682378 0.6006134 0.7096932 0.755005 -0.6511462 0.07730521 -0.9188175 0.05595547 0.3906961 0.4685402 -0.881308 -0.06137022 0.07083492 0.9861312 -0.1500925 0.9694192 -0.2436376 -0.02944884 -0.7551843 -0.3817884 0.5328548 0.946774 -0.307756 0.09436733 0.6252591 -0.5967286 0.5029572 -0.0886529 0.7558689 0.6486932 0.5611976 -0.8258871 0.05447723 -0.8585149 -0.477246 -0.1875855 -0.7160024 -0.6897535 -0.1076134 0.8967527 -0.26246 0.3562996 0.07402835 0.9858571 -0.1503514 0.9560509 0.2928819 -0.01366834 0.5631438 0.8262156 -0.01539062 0.1921768 0.8275609 -0.5274571 -0.7478832 -0.5274539 0.4030672 0.5254375 -0.3944088 0.7538946 -0.04330035 0.7234004 0.6890696 -0.1864285 -0.9479459 -0.2581529 0.9913188 -0.08201592 -0.1027641 -0.4023655 0.8625055 0.3068977 -0.9175143 0.3889942 -0.0827707 0.7105419 -0.6856691 0.1580764 -0.601352 -0.612874 0.5126024 0.6274492 -0.7171798 0.3032502 0.3374523 0.7798733 -0.5271846 0.4757337 0.8795888 -0.000953975 -0.7200165 -0.3078876 -0.6219176 0.4092348 0.9073594 -0.09605061 0.9993016 -0.03690375 -0.00587374 0.4032297 0.9102464 0.09411341 -0.895736 0.05238219 -0.4414897 0.4358777 -0.8990375 0.04173979 0.4020553 0.8271509 0.3926486 0.178106 0.9725087 -0.1500167 0.9948334 0.1006421 -0.01333184 0.2238487 -0.9745889 -0.008262101 0.9950579 0.07608107 0.06380796 0.5627339 -0.3857836 0.7310961 0.2207386 -0.9753006 0.007946243 -0.9410027 -0.2133085 0.262704 0.335692 0.9419386 -0.007912897 -0.7470119 0.598158 0.2901382 0.8949649 -0.07201112 -0.4402865 0.7974013 0.603426 0.005317157 0.1554876 0.987837 0.001315284 -0.4027256 -0.8666095 -0.2946187 0.1569269 0.9875659 0.009359133 0.8581606 0.4890777 0.1560877 -0.7878623 -0.6152263 0.02774197 -0.9836423 0.06380339 -0.1684544 0.8026954 -0.5223038 0.2878867 0.5861068 0.8022124 -0.1137285 -0.1714391 0.950193 -0.2602727 0.9310224 0.3649067 -0.006347724 -0.7107452 -0.5654565 -0.4184498 -0.9415 -0.3335542 0.04815975 0.9990475 0.03276988 -0.0288142 -0.5436532 0.8387221 0.03140627 -0.9884581 0.1498778 -0.02207309 0.9922569 0.007850199 0.1239544 -0.5783765 0.7474667 0.326763 -0.6108227 0.7763991 -0.1552416 0.6838009 0.7296564 0.00422303 0.4341938 -0.8955195 0.09757386 -0.6138892 0.782233 0.1060735 0.9401543 0.3355196 -0.05946833 -0.5412617 -0.7536442 0.3729024 -0.7720752 0.6307981 0.07741916 0.608544 0.4462932 -0.6561224 -0.1501703 -0.910962 -0.3841836 -0.5405747 0.4511468 0.7101024 0.5177232 0.8362551 0.1806657 0.6470663 0.2652629 0.7148013 -0.1901959 0.9817442 -0.001975619 -0.7793993 -0.3222015 -0.5373295 -0.1642573 -0.9859461 -0.03049394 0.1917935 0.9782987 0.07840241 -0.3345279 -0.9423858 0.0003388581 0.3343112 0.9424625 0.0007083576 -0.1734496 -0.560942 -0.8094809 0.2069357 0.05519759 -0.9767962 0.4671376 -0.06211552 -0.8820001 -0.3297289 -0.6752543 -0.6597807 -0.8090526 0.5377441 0.2372027 0.9071692 0.1102896 0.4060546 0.3375209 -0.6913978 0.6387869 -0.8005373 0.492701 0.3411537 -0.7249839 -0.6885219 -0.01832961 0.3385189 -0.7305948 -0.5929893 0.7557386 -0.6522062 -0.05904508 -0.792328 0.6100952 -0.000492196 0.4993344 -0.7770839 0.3831525 -0.006195987 0.9994037 0.03396806 -0.8144278 0.5749847 0.07810177 -0.9649867 -0.2498884 0.07972761 0.7157414 -0.6492353 0.2573087 0.2026981 0.9233656 -0.3260512 -0.7229514 -0.6878419 -0.06492174 -0.163265 0.9864521 0.01602422 -0.9504119 0.3103242 0.02039814 -0.7658636 -0.6429359 0.009290702 0.7727603 0.6346723 0.00571343 0.3162097 0.9486261 -0.01095025 -0.1037973 -0.8936783 -0.4365378 0.8559892 0.2125468 0.4712816 -0.7447522 0.6669404 -0.02312223 -0.211234 0.9641761 -0.1604516 -0.74837 -0.5062613 -0.4285345 0.7224782 -0.4540388 -0.5214153 -0.8300935 -0.4829947 0.2786772 0.8144356 -0.3806343 0.4379637 0.3303386 -0.943852 -0.004456278 0.01074941 0.9253225 0.3790285 0.5191246 -0.8439115 -0.1353626 0.4123826 0.8968754 -0.15986 -0.3517941 0.9310547 0.09684028 0.9696116 -0.2446487 0.0006098521 -0.03304766 0.999029 0.02913485 0.9893753 0.1300275 0.06503363 -0.830345 -0.4840037 -0.2761657 0.7829293 -0.2100873 0.5855639 0.3342217 0.9208894 -0.2006453 0.09256931 -0.9956444 -0.01110126 -0.4939719 0.6340016 -0.5950073 0.05098548 -0.9745612 -0.2182452 0.7074359 -0.04295388 -0.7054711 -0.2042938 0.5668013 -0.798123 -0.4669524 0.7981828 -0.3806045 -0.9086159 -0.3029308 0.2874891 0.4621748 0.5661392 0.6825546 0.1677164 0.9858131 -0.006621058 0.4861562 -0.76902 -0.4150426 0.9770404 -0.1587144 -0.1421333 0.5086683 0.7698876 0.3853953 -0.9637596 -0.01307412 -0.2664518 0.9688695 0.2346979 -0.07879647 0.9833604 -0.1815999 0.004870784 0.9782333 0.2074934 0.002468126 -0.9822817 0.01112142 0.18708 -0.9888395 -0.1212254 0.08660773 -0.6275962 -0.778254 0.02106202 0.8227477 -0.568363 -0.007045803 0.07936196 0.9964682 0.02743615 -0.6030686 -0.6794266 -0.4179566 0.1934256 -0.8869161 -0.4194836 0.7417784 0.5476181 0.3871425 0.1490545 -0.8833082 -0.4444652 0.5012005 -0.8648979 -0.02737929 0.7219835 0.6918369 -0.01008009 0.001403306 -0.9679522 0.2511305 0.9246191 -0.3425968 -0.1664542 0.8364769 0.4231723 -0.3481832 -0.2359072 0.9599071 -0.1514142 -0.6144022 0.02600354 -0.7885644 0.518241 0.8072168 -0.2825374 -0.3595876 -0.926147 -0.113791 -0.5697481 0.5761346 -0.5860512 -0.1000288 -0.9134503 0.3944651 0.1567363 -0.9856124 0.06326158 0.6298453 -0.5925087 0.5022234 0.721974 0.4676826 0.5099279 -0.6685656 0.5481805 -0.5025119 -0.8320571 0.5546456 -0.007021845 -0.5878365 0.778163 0.2211575 0.05783973 -0.5376032 0.8412119 -0.4442952 0.8290344 0.339564 -0.9145648 -0.1834609 0.360435 0.7630681 -0.3259955 -0.5580806 0.6819975 0.725815 0.08984403 0.08276391 0.8635115 0.4974918 -0.7980733 0.6020046 -0.02587343 0.391322 -0.8179702 -0.4216538 0.09919739 0.9801348 -0.171743 -0.03677417 0.9993127 -0.004664642 -0.8035969 0.5934157 0.04571482 -0.9125626 -0.3864346 0.1337826 0.8162213 -0.534048 0.2203986 0.1513958 0.9313674 -0.3311103 0.7725598 0.6349415 0.0007739533 0.7412171 0.6694193 -0.04974985 -0.7371412 -0.450108 -0.5040095 0.855718 -0.4882994 0.1712027 -0.1481833 0.9211176 0.3599779 0.3370725 -0.9414772 -0.001681196 0.09300305 0.8807134 -0.464429 0.3750843 0.9118196 -0.1670234 0.0752898 0.947101 0.3119795 0.1058423 0.9425078 0.3169802 -0.7137877 -0.6392299 0.2861682 0.8929601 -0.3338579 -0.301929 -0.9272643 0.1479055 0.3439549 -0.01973718 -0.9992678 -0.03277601 -0.2817867 0.9119623 -0.2981962 0.006323883 -0.999978 0.001999625 -0.150383 0.9782168 0.1430972 -0.004027337 -0.9998396 0.01745395 -0.8530489 -0.4136073 -0.3181771 0.6017162 -0.5207479 0.6056065 0.08570616 0.9337286 -0.3475707 -0.09895083 0.9949739 -0.01534999 0.2489737 -0.7524078 -0.6098316 -0.3718923 -0.1304205 0.9190683 0.4826896 -0.2725095 0.8323156 0.4760864 0.6320872 0.6113979 -0.80155 -0.5507003 -0.2329091 -0.1014057 0.8753129 0.4728046 -0.9764086 0.1467612 0.1583903 -0.9886266 0.147189 -0.03086758 0.9770552 -0.2054651 -0.05610113 0.7858859 -0.4553969 0.4183265 0.9797247 0.1996694 0.0164833</float_array>
          <technique_common>
            <accessor source="#normals-array" count="468" stride="3">
              <param name="X" type="float" />
              <param name="Y" type="float" />
              <param name="Z" type="float" />
            </accessor>
          </technique_common>
        </source>
        <source id="uv">
          <float_array id="uv-array" count="2808">13.37083 -0.8958154 13.3288 -0.1032988 13.34159 -0.1030812 13.3658 -0.8968115 13.33243 -0.1035246 13.33013 -0.8972087 28.47602 -0.8958154 28.44649 -0.1030812 28.4398 -0.8968115 13.35023 -0.3066868 13.49704 -0.04712036 13.50035 -0.04942979 13.34754 -0.3046789 13.49746 -0.04737987 13.33643 -0.2970562 13.34754 -0.3046789 13.50035 -0.04942979 13.49746 -0.04737987 28.4587 -0.3066868 28.45534 -0.04942979 28.44445 -0.3046789 13.49829 0.0880118 13.50258 0.1310545 13.32047 0.002192696 28.43655 0.1310545 28.45189 -0.1134978 28.45488 -0.2152496 13.50258 0.1310545 13.46066 -0.0884458 13.32047 0.002192696 28.43655 0.1310545 28.45488 -0.2152496 28.50768 -0.0884458 13.33628 -0.508963 13.16472 -0.1934874 13.34897 -0.5049893 13.34377 -0.4969808 13.16311 -0.1918252 13.16099 -0.1942373 28.46127 -0.5049893 28.64862 -0.1934874 28.44528 -0.4969808 13.16312 -0.06072319 13.16798 -0.2962131 12.94444 -0.1390573 13.16312 28.64682 12.94444 28.62591 13.1955 28.85652 28.66232 -0.1714503 28.63584 -0.2962131 28.64682 -0.06072319 28.66232 -0.1714503 28.64183 -0.3252982 28.63584 -0.2962131 28.85652 -0.1664422 28.63584 -0.2962131 28.647 -0.3146263 13.33383 -0.4371982 13.36044 -0.01550397 13.35075 -0.4346935 13.3457 -0.4415444 13.3616 -0.01728898 13.33383 -0.4371982 13.3457 -0.4415444 13.36485 -0.0161632 13.3616 -0.01728898 13.36309 0.1341498 13.51754 0.01291118 13.36232 0.09800207 28.27297 0.1341498 28.27064 0.1395049 28.45141 -0.06020723 13.51754 0.01291118 13.23742 -0.02620162 13.3633 0.1395049 13.29073 -0.06020723 13.51754 0.01291118 13.36309 0.1341498 28.27064 0.1395049 28.14909 -0.02620162 28.45141 -0.06020723 28.45141 -0.06020723 28.27246 -0.1274799 28.27246 -0.1364448 13.34575 -0.5412906 13.46645 -0.02373911 13.3347 -0.5407833 28.46028 -0.5476429 28.60314 -0.02519072 28.59993 -0.0240958 13.4688 0.1018342 13.46894 0.1075503 13.63402 -0.05750476 13.46907 0.1258309 13.63402 -0.05750476 13.32369 -0.01347852 13.46894 0.1075503 13.43449 -0.07981443 13.63402 -0.05750476 13.63402 -0.05750476 13.4692 -0.1761394 13.46881 -0.1713068 28.80549 -0.07981443 28.60172 -0.1453676 28.60199 -0.1761394 13.32369 -0.01347852 13.46881 -0.1713068 13.46876 -0.1453676 13.34225 -0.5558743 13.17615 -0.004131073 13.35308 -0.5524121 13.34225 -0.5558743 13.17291 -0.005366211 13.17615 -0.004131073 13.35308 -0.5524121 13.17705 -0.00395725 13.33663 -0.5584587 13.20325 0.2082866 13.28078 -0.037621 13.17527 0.188527 28.43535 0.1792196 28.56377 -0.08224805 28.46367 0.2082866 13.28078 -0.037621 13.17267 -0.1395391 13.17426 0.1792196 28.43535 0.1792196 28.43579 -0.1395391 28.56377 -0.08224805 28.46367 0.2082866 28.56377 -0.08224805 28.34109 -0.037621 28.56377 -0.08224805 28.43581 -0.180842 28.34109 -0.037621 28.43579 -0.1395391 28.43646 -0.1920358 28.56377 -0.08224805 13.17594 -0.180842 13.17267 -0.1395391 13.28078 -0.037621 13.34803 -0.511545 13.58288 -0.06455468 13.58651 -0.06652559 13.34719 -0.5177925 13.58395 -0.06642035 13.33535 -0.5080349 28.46257 -0.511545 28.30263 -0.06652559 28.44537 -0.5177925 28.30112 0.04425922 28.15859 -0.06961186 28.3002 0.09226138 13.58658 0.09226138 13.81823 -0.05301866 13.58473 0.07636514 13.81823 -0.05301866 13.57027 -0.07595081 13.58745 -0.2337419 13.81823 -0.05301866 13.58591 -0.2494738 13.46618 -0.06961186 13.81823 -0.05301866 13.58745 -0.2337419 13.58591 -0.2494738 13.33672 -0.4758739 13.29156 0.04563801 13.35349 -0.4706591 28.45947 -0.4758739 28.73165 0.04715192 28.73526 0.04479081 13.35349 -0.4706591 13.28847 0.04715192 13.34082 -0.4664687 28.73383 0.1918458 28.90748 0.01578098 28.72022 0.006945079 13.28927 0.2219727 13.45511 0.006945079 13.20477 0.07205818 28.58209 0.07205818 28.90748 0.01578098 28.73414 0.2187074 13.45511 0.006945079 13.28911 -0.1200899 13.20477 0.07205818 28.58209 0.07205818 28.7341 -0.124258 28.90748 0.01578098 13.28911 -0.1200899 13.28903 -0.124258 13.20477 0.07205818 28.45638 -0.5320315 28.27688 0.1060152 28.28124 0.1074779 28.44412 -0.5339921 28.27688 0.1060152 28.45638 -0.5320315 13.3457 -0.5339921 13.25216 0.1069894 13.24886 0.1060152 28.32962 0.07895943 28.27629 -0.0285535 28.11528 0.1080362 13.24817 0.1397502 13.25066 -0.03367907 13.35641 0.07895943 28.27763 0.1397502 28.27629 -0.0285535 28.27996 -0.03367907 13.33784 -0.4543672 13.46758 -0.02072437 13.4705 -0.02186665 28.44363 -0.4531207 28.4997 -0.02072437 28.4606 -0.4543672 13.46974 28.49882 13.37816 28.60586 13.66917 28.53501 28.49882 0.112106 28.49882 0.1581691 28.60586 0.05107616 28.49871 0.1320478 28.33111 -0.09160813 28.49882 0.1581691 28.33111 -0.09160813 28.60586 0.05107616 28.49882 0.1581691 13.37816 0.05107616 13.46142 -0.1720199 13.66917 0.00348856 28.60586 0.05107616 28.33111 -0.09160813 28.51015 -0.1720199 28.33111 -0.09160813 28.4988 -0.1743951 28.49874 -0.1908426 13.66917 0.00348856 13.46973 -0.1743951 13.36753 -0.09160813 13.66917 28.53501 13.46142 28.51015 13.46973 28.4988 28.33111 -0.09160813 28.49874 -0.1908426 28.51015 -0.1720199 13.37083 -0.8958154 13.33013 -0.8972087 13.3288 -0.1032988 28.46872 -0.8972087 28.43746 -0.1035246 28.45152 -0.1032988 13.3658 -0.8968115 13.34159 -0.1030812 13.33243 -0.1035246 13.35023 -0.3066868 13.33643 -0.2970562 13.49704 -0.04712036 28.4572 -0.2970562 28.4533 -0.04737987 28.45756 -0.04712036 13.49829 0.0880118 13.32047 0.002192696 13.49782 0.113922 28.46119 0.113922 28.45189 -0.1134978 28.43655 0.1310545 13.49782 0.113922 13.32047 0.002192696 13.46066 -0.0884458 28.45189 -0.1134978 28.46119 0.113922 28.50768 -0.0884458 13.33628 -0.508963 13.16099 -0.1942373 13.16472 -0.1934874 28.45497 -0.508963 28.44528 -0.4969808 28.6462 -0.1942373 28.44528 -0.4969808 28.64862 -0.1934874 28.64485 -0.1918252 28.64683 -0.08490414 28.85652 -0.1664422 28.66232 -0.1714503 28.64683 -0.08490414 28.64682 -0.06072319 28.85652 -0.1664422 28.66232 -0.1714503 28.85652 -0.1664422 28.647 -0.3146263 13.1955 28.85652 12.94444 28.62591 13.16798 28.63584 28.66232 -0.1714503 28.647 -0.3146263 28.64183 -0.3252982 13.35075 -0.4346935 13.36044 -0.01550397 13.36485 -0.0161632 28.4523 -0.4371982 28.27039 -0.01728898 28.27387 -0.01550397 28.44472 -0.4415444 28.45916 -0.4346935 28.27299 -0.0161632 13.36232 0.09800207 13.51754 0.01291118 13.3633 0.1395049 13.23742 -0.02620162 13.51754 0.01291118 13.3612 -0.1604049 13.51754 0.01291118 13.36237 -0.1364448 13.3612 -0.1604049 28.20144 0.01291118 28.45141 -0.06020723 28.27246 -0.1364448 28.45141 -0.06020723 28.14909 -0.02620162 28.27053 -0.1604049 28.45141 -0.06020723 28.27053 -0.1604049 28.27246 -0.1274799 13.34927 -0.5476429 13.46645 -0.02373911 13.47051 -0.02519072 13.34927 -0.5476429 13.3347 -0.5407833 13.46645 -0.02373911 13.34575 -0.5412906 13.47036 -0.0240958 13.46645 -0.02373911 28.44411 -0.5412906 28.46028 -0.5476429 28.59993 -0.0240958 13.4688 0.1018342 13.63402 -0.05750476 13.46907 0.1258309 13.46894 0.1075503 13.46907 0.1258309 13.32369 -0.01347852 28.60168 0.1075503 28.46198 -0.01347852 28.80549 -0.07981443 13.32369 -0.01347852 13.63402 -0.05750476 13.46881 -0.1713068 13.63402 28.62045 13.43449 28.80549 13.4692 28.60199 28.80549 -0.07981443 28.46198 -0.01347852 28.60172 -0.1453676 28.46268 -0.5558743 28.44726 -0.5584587 28.43529 -0.005366211 13.33663 -0.5584587 13.17705 -0.00395725 13.17291 -0.005366211 28.45334 -0.5524121 28.43787 -0.004131073 28.43395 -0.00395725 13.17527 0.188527 13.28078 -0.037621 13.17426 0.1792196 28.56377 -0.08224805 28.43646 -0.1920358 28.43581 -0.180842 13.34803 -0.511545 13.33535 -0.5080349 13.58288 -0.06455468 28.45142 -0.5080349 28.29881 -0.06642035 28.30185 -0.06455468 28.44537 -0.5177925 28.30263 -0.06652559 28.29881 -0.06642035 28.30112 0.04425922 28.30108 0.07636514 28.15859 -0.06961186 13.46618 -0.06961186 13.58473 0.07636514 13.81823 -0.05301866 28.3002 0.09226138 28.15859 -0.06961186 28.3051 -0.07595081 13.58658 0.09226138 13.57027 -0.07595081 13.81823 -0.05301866 28.15859 -0.06961186 28.29902 -0.2494738 28.3051 -0.07595081 13.33672 -0.4758739 13.28766 0.04479081 13.29156 0.04563801 28.45947 -0.4758739 28.44524 -0.4664687 28.73165 0.04715192 28.45439 -0.4706591 28.73467 0.04563801 28.73165 0.04715192 28.73414 0.2187074 28.73342 0.2219727 28.58209 0.07205818 13.28925 0.1918458 13.45511 0.006945079 13.28927 0.2219727 28.73383 0.1918458 28.73414 0.2187074 28.90748 0.01578098 13.28911 -0.1200899 13.45511 0.006945079 13.28926 -0.09575925 13.45511 28.72022 13.28576 28.90748 13.28926 28.73383 28.90748 0.01578098 28.7341 -0.124258 28.73383 -0.09575925 13.35288 -0.5290316 13.33467 -0.5320315 13.2494 0.1074779 28.44412 -0.5339921 28.45603 -0.5290316 28.27818 0.1069894 28.45603 -0.5290316 28.28124 0.1074779 28.27818 0.1069894 13.25007 0.2385267 13.35641 0.07895943 13.24548 0.2576247 13.25007 0.2385267 13.24817 0.1397502 13.35641 0.07895943 28.27763 0.1397502 28.27077 0.2576247 28.11528 0.1080362 28.27077 0.2576247 28.32962 0.07895943 28.11528 0.1080362 28.27763 0.1397502 28.11528 0.1080362 28.27629 -0.0285535 13.24934 -0.0285535 13.35641 0.07895943 13.24989 -0.01353463 13.35641 0.07895943 13.25066 -0.03367907 13.24989 -0.01353463 13.35268 -0.4587588 13.33784 -0.4543672 13.4705 -0.02186665 13.3403 -0.4531207 13.47055 -0.02134882 13.46758 -0.02072437 13.3403 -0.4531207 13.35268 -0.4587588 13.47055 -0.02134882 28.45585 -0.4587588 28.501 -0.02186665 28.49653 -0.02134882 13.46981 0.1320478 13.46974 0.112106 13.66917 0.00348856 13.36753 -0.09160813 13.46981 0.1320478 13.66917 0.00348856 28.51321 -0.8743613 28.47987 -0.1536075 28.49226 -0.1534097 28.5152 -0.8752672 28.48565 -0.1538129 28.47798 -0.8756285 12.71402 -0.8743613 12.74579 -0.1534097 12.74746 -0.8752672 28.49782 -0.3385786 28.62987 -0.1025161 28.63325 -0.1046164 28.49796 -0.3367526 28.63102 -0.1027521 28.4857 -0.3298201 28.49796 -0.3367526 28.63325 -0.1046164 28.63102 -0.1027521 12.73328 -0.3385786 12.70933 -0.1046164 12.74656 -0.3367526 28.63137 0.02037977 28.63862 0.05952497 28.4828 -0.05766836 12.72581 0.05952497 12.71217 -0.162883 12.70985 -0.2554212 28.63862 0.05952497 28.5882 -0.1400995 28.4828 -0.05766836 28.63862 0.05952497 28.63283 -0.2554212 28.5882 -0.1400995 28.48596 -0.5225386 28.29711 -0.2356295 28.49623 -0.5189248 28.49443 -0.5116414 28.29635 -0.2341178 28.2942 -0.2363116 12.7312 -0.5189248 12.59603 -0.2356295 12.74649 -0.5116414 28.296 -0.1148872 28.30233 -0.3290533 28.10337 -0.1861281 12.59794 28.296 12.656 28.10337 12.4038 28.28742 12.58367 -0.2155879 12.60693 -0.3290533 12.59794 -0.1148872 12.58367 -0.2155879 12.60191 -0.3555047 12.60693 -0.3290533 12.4038 -0.2110332 12.60693 -0.3290533 12.5978 -0.3457992 28.48425 -0.4572722 28.54019 -0.07376259 28.49821 -0.4549942 28.49626 -0.4612248 28.54185 -0.07538596 28.48425 -0.4572722 12.74665 -0.4612248 12.89743 -0.07436213 12.90035 -0.07538596 28.54273 0.06233991 28.69428 -0.04792044 28.54214 0.02946542 28.54273 0.06233991 28.54334 0.06721012 28.4457 -0.1144179 28.69428 -0.04792044 28.45212 -0.08349156 28.54334 0.06721012 28.4457 -0.1144179 28.69428 -0.04792044 28.54273 0.06233991 12.89982 0.06721012 13.03159 -0.08349156 12.75051 -0.1144179 12.75051 -0.1144179 12.89836 -0.175599 12.89836 -0.1837521 28.49642 -0.551939 28.57643 -0.08125203 28.48511 -0.5514776 12.73203 -0.5577161 12.58196 -0.08257219 12.58486 -0.08157642 28.57861 0.03295058 28.57875 0.03814902 28.72363 -0.1119602 28.57891 0.05477433 28.72363 -0.1119602 28.4734 -0.07192054 28.57875 0.03814902 28.51121 -0.1322497 28.72363 -0.1119602 28.72363 -0.1119602 28.57893 -0.2198524 28.57863 -0.2154573 12.4067 -0.1322497 12.58355 -0.191867 12.58322 -0.2198524 12.7351 -0.07192054 12.58353 -0.2154573 12.58355 -0.191867 28.48994 -0.565202 28.34523 -0.06341951 28.50134 -0.5620534 12.73114 -0.565202 12.78615 -0.06454281 12.78325 -0.06341951 28.50134 -0.5620534 28.34674 -0.06326143 28.48766 -0.5675524 28.36493 0.1297637 28.45658 -0.09387691 28.34485 0.1117932 12.78585 0.1033287 12.68272 -0.134463 12.75521 0.1297637 28.45658 -0.09387691 28.34248 -0.1865663 28.34399 0.1033287 12.78585 0.1033287 12.78574 -0.1865663 12.68272 -0.134463 28.36493 0.1297637 28.25995 -0.134463 28.45658 -0.09387691 28.25995 -0.134463 28.34541 -0.2241292 28.45658 -0.09387691 12.78574 -0.1865663 12.78503 -0.2343093 12.68272 -0.134463 28.34541 -0.2241292 28.34248 -0.1865663 28.45658 -0.09387691 28.49515 -0.5248869 28.73493 -0.1183717 28.73805 -0.1201642 28.49749 -0.5305686 28.73643 -0.1200685 28.48577 -0.5216945 12.7302 -0.5248869 12.831 -0.1201642 12.7458 -0.5305686 12.83268 -0.01941099 12.98196 -0.122971 12.83317 0.02424455 28.73855 0.02424455 28.95635 -0.1078803 28.73672 0.009787728 28.95635 -0.1078803 28.72302 -0.1287359 28.73931 -0.272239 28.95635 -0.1078803 28.73816 -0.2865463 28.65586 -0.122971 28.95635 -0.1078803 28.73931 -0.272239 28.73816 -0.2865463 28.48555 -0.4924457 28.39557 -0.01815704 28.50153 -0.4877032 12.73501 -0.4924457 12.49924 -0.01678022 12.49615 -0.01892753 12.73656 -0.4877032 12.49924 -0.01678022 12.74705 -0.4838922 28.39364 0.1148116 28.35932 -0.0453105 28.54504 -0.05334631 12.49751 0.1422104 12.47958 -0.05334631 12.64859 0.005870759 12.64859 0.005870759 12.34182 -0.0453105 12.49691 0.1392408 28.54504 -0.05334631 28.39379 -0.1688782 28.34503 0.005870759 12.64859 0.005870759 12.49695 -0.1726689 12.34182 -0.0453105 12.49855 -0.1688782 12.49695 -0.1726689 12.64859 0.005870759 12.73816 -0.5435182 12.91477 0.03675299 12.91075 0.03808325 28.49637 -0.5453013 28.43944 0.03675299 28.48427 -0.5435182 28.49637 -0.5453013 28.44217 0.03763894 28.43944 0.03675299 12.84809 0.0121471 12.91522 -0.08563047 13.07077 0.03859092 28.43869 0.06743326 28.4405 -0.09029192 28.52656 0.0121471 12.91422 0.06743326 12.91522 -0.08563047 12.91168 -0.09029192 28.48636 -0.4728865 28.59584 -0.07851028 28.59823 -0.07954913 12.7486 -0.4717528 12.67538 -0.07851028 12.73379 -0.4728865 12.67578 28.59794 12.5961 28.49648 12.60746 28.77054 28.59794 0.04229226 28.59745 0.0841843 28.49648 -0.01321133 12.67587 0.06042825 12.84475 -0.1429755 12.67588 0.0841843 12.84475 -0.1429755 12.5961 -0.01321133 12.67588 0.0841843 28.49648 -0.01321133 28.58844 -0.2161059 28.77054 -0.05648984 12.5961 -0.01321133 12.84475 -0.1429755 12.6671 -0.2161059 12.84475 -0.1429755 12.6758 -0.218266 12.67586 -0.2332242 12.60746 -0.05648984 12.6758 -0.218266 12.84475 -0.1429755 12.60746 28.77054 12.6671 28.58844 12.6758 28.59794 12.84475 -0.1429755 12.67586 -0.2332242 12.6671 -0.2161059 28.51321 -0.8743613 28.47798 -0.8756285 28.47987 -0.1536075 12.72789 -0.8756285 12.75555 -0.1538129 12.74358 -0.1536075 12.74746 -0.8752672 12.74579 -0.1534097 12.75555 -0.1538129 28.49782 -0.3385786 28.4857 -0.3298201 28.62987 -0.1025161 12.7371 -0.3298201 12.71169 -0.1027521 12.70793 -0.1025161 28.63137 0.02037977 28.4828 -0.05766836 28.62992 0.04394378 12.70453 0.04394378 12.71217 -0.162883 12.72581 0.05952497 28.62992 0.04394378 28.4828 -0.05766836 28.5882 -0.1400995 28.63515 -0.162883 28.62992 0.04394378 28.5882 -0.1400995 28.48596 -0.5225386 28.2942 -0.2363116 28.29711 -0.2356295 28.48596 -0.5225386 28.49443 -0.5116414 28.2942 -0.2363116 12.74649 -0.5116414 12.59603 -0.2356295 12.59971 -0.2341178 12.59794 -0.1368785 12.4038 -0.2110332 12.58367 -0.2155879 12.59794 -0.1368785 12.59794 -0.1148872 12.4038 -0.2110332 12.58367 -0.2155879 12.4038 -0.2110332 12.5978 -0.3457992 12.4038 28.28742 12.656 28.10337 12.60693 28.30233 28.29497 -0.2155879 28.29589 -0.3457992 28.2995 -0.3555047 28.49821 -0.4549942 28.54019 -0.07376259 28.54431 -0.07436213 12.74197 -0.4572722 12.90035 -0.07538596 12.89744 -0.07376259 12.74665 -0.4612248 12.73277 -0.4549942 12.89743 -0.07436213 28.54214 0.02946542 28.69428 -0.04792044 28.54334 0.06721012 28.45212 -0.08349156 28.69428 -0.04792044 28.54147 -0.2055427 28.69428 -0.04792044 28.54217 -0.1837521 28.54147 -0.2055427 28.69428 -0.04792044 28.4457 -0.1144179 28.54217 -0.1837521 12.75051 -0.1144179 13.03159 -0.08349156 12.9003 -0.2055427 12.75051 -0.1144179 12.9003 -0.2055427 12.89836 -0.175599 28.49668 -0.5577161 28.57643 -0.08125203 28.57989 -0.08257219 28.49668 -0.5577161 28.48511 -0.5514776 28.57643 -0.08125203 28.49642 -0.551939 28.58034 -0.08157642 28.57643 -0.08125203 12.74719 -0.551939 12.73203 -0.5577161 12.58486 -0.08157642 28.57861 0.03295058 28.72363 -0.1119602 28.57891 0.05477433 12.58355 0.03814902 12.58376 0.05477433 12.7351 -0.07192054 12.58355 0.03814902 12.7351 -0.07192054 12.4067 -0.1322497 28.4734 -0.07192054 28.72363 -0.1119602 28.57863 -0.2154573 12.53704 28.72363 12.4067 28.51121 12.58322 28.57893 12.4067 -0.1322497 12.7351 -0.07192054 12.58355 -0.191867 12.73114 -0.565202 12.74599 -0.5675524 12.78615 -0.06454281 28.48766 -0.5675524 28.34674 -0.06326143 28.34278 -0.06454281 12.73758 -0.5620534 12.78325 -0.06341951 12.78661 -0.06326143 28.34485 0.1117932 28.45658 -0.09387691 28.34399 0.1033287 28.25995 -0.134463 28.34295 -0.2343093 28.34541 -0.2241292 12.7302 -0.5248869 12.74249 -0.5216945 12.83235 -0.1183717 12.74249 -0.5216945 12.83489 -0.1200685 12.83235 -0.1183717 12.7458 -0.5305686 12.831 -0.1201642 12.83489 -0.1200685 12.83268 -0.01941099 12.83271 0.009787728 12.98196 -0.122971 28.65586 -0.122971 28.73672 0.009787728 28.95635 -0.1078803 12.83317 0.02424455 12.98196 -0.122971 12.83169 -0.1287359 28.73855 0.02424455 28.72302 -0.1287359 28.95635 -0.1078803 12.98196 -0.122971 12.83435 -0.2865463 12.83169 -0.1287359 28.48555 -0.4924457 28.39196 -0.01892753 28.39557 -0.01815704 12.73501 -0.4924457 12.74705 -0.4838922 12.49924 -0.01678022 12.73656 -0.4877032 12.49598 -0.01815704 12.49924 -0.01678022 12.49691 0.1392408 12.49751 0.1422104 12.64859 0.005870759 28.39364 0.1148116 28.54504 -0.05334631 28.39373 0.1422104 12.49715 0.1148116 12.49691 0.1392408 12.34182 -0.0453105 28.39379 -0.1688782 28.54504 -0.05334631 28.39365 -0.1467507 12.47958 28.54504 12.34182 28.35932 12.49715 28.39365 12.34182 -0.0453105 12.49695 -0.1726689 12.49715 -0.1467507 28.50068 -0.54079 28.48427 -0.5435182 28.43914 0.03808325 12.74719 -0.5453013 12.7352 -0.54079 12.91301 0.03763894 28.50068 -0.54079 28.43914 0.03808325 28.44217 0.03763894 28.44013 0.1572654 28.52656 0.0121471 28.4375 0.1746341 28.44013 0.1572654 28.43869 0.06743326 28.52656 0.0121471 12.91422 0.06743326 12.92086 0.1746341 13.07077 0.03859092 12.92086 0.1746341 12.84809 0.0121471 13.07077 0.03859092 12.91422 0.06743326 13.07077 0.03859092 12.91522 -0.08563047 28.43998 -0.08563047 28.52656 0.0121471 28.44 -0.07197157 28.52656 0.0121471 28.4405 -0.09029192 28.44 -0.07197157 28.50053 -0.4768804 28.48636 -0.4728865 28.59823 -0.07954913 28.49162 -0.4717528 28.59909 -0.07907818 28.59584 -0.07851028 12.7486 -0.4717528 12.7354 -0.4768804 12.6777 -0.07907818 12.7354 -0.4768804 12.67369 -0.07954913 12.6777 -0.07907818 28.59803 0.06042825 28.59794 0.04229226 28.77054 -0.05648984 28.53628 -0.1429755 28.59803 0.06042825 28.77054 -0.05648984 28.02724 -0.8494202 28.01535 -0.2506525 28.02515 -0.2504881 28.04231 -0.8501727 28.02439 -0.250823 28.00758 -0.8504729 15.94 -0.8494202 15.97138 -0.2504881 15.96321 -0.8501727 28.02416 -0.5931251 27.83507 -0.2327576 27.83778 -0.2311033 28.02927 -0.5888668 27.8354 -0.232198 28.01707 -0.5960156 15.95935 -0.5931251 15.923 -0.2311033 15.96835 -0.5888668 15.92358 -0.1240046 16.03093 -0.2183517 15.93491 -0.2177944 15.93491 -0.2177944 15.92059 -0.2926107 15.92346 -0.1247354 16.03093 -0.2183517 15.92059 -0.2926107 15.92335 -0.3502879 16.03093 -0.2183517 15.92335 -0.3502879 15.93491 -0.2177944 27.83518 -0.3502879 27.8363 -0.3399466 27.82628 -0.2177944 15.95974 -0.4553855 16.05186 -0.1737186 16.04939 -0.1734411 28.0203 -0.4553855 28.09542 -0.1734411 28.02988 -0.460681 16.05088 28.09379 16.02429 27.92704 15.88437 28.17096 15.88437 -0.1572711 16.21019 -0.1783954 16.05031 -0.05467581 16.02429 27.92704 16.21019 28.12616 16.05081 28.09432 15.88437 -0.1572711 16.05081 -0.2794989 16.05259 -0.2895813 16.02429 27.92704 16.05081 28.09432 15.88437 28.17096 16.21019 -0.1783954 16.05259 -0.2895813 16.05112 -0.2671969 28.01525 -0.575682 28.04524 -0.2429703 28.02828 -0.5791897 15.96546 -0.575682 15.72621 -0.2408281 15.72369 -0.2429703 15.9625 -0.5791897 15.72508 -0.2420173 15.97184 -0.5712161 15.72502 -0.1568207 15.78139 -0.1436943 15.72502 -0.1545063 15.72495 -0.1454751 15.78139 -0.1436943 15.72502 -0.1568207 15.72495 28.04595 15.63818 28.14963 15.78139 28.02593 15.72502 28.04593 15.78139 28.02593 15.65356 27.93846 15.72495 28.04595 15.65356 27.93846 15.63818 28.14963 15.63818 -0.1987331 15.82152 -0.2929088 15.78139 -0.1436943 28.15213 -0.2929088 28.04951 -0.3308749 28.02593 -0.1436943 28.14963 -0.1987331 27.93846 -0.1757192 28.04673 -0.353279 15.63818 -0.1987331 15.71987 -0.353279 15.82152 -0.2929088 28.15213 -0.2929088 28.0456 -0.3546699 28.04951 -0.3308749 28.01685 -0.4900456 27.87657 -0.2447056 27.87829 -0.2425529 15.97255 -0.4915313 16.09091 -0.2447056 15.96389 -0.4900456 27.87805 -0.1431774 27.99358 -0.2567595 27.87725 -0.1193767 27.87725 -0.1193767 27.99358 -0.2567595 27.87628 -0.3211163 15.96556 -0.2216009 16.089 -0.3706458 16.18156 -0.2567595 16.09128 -0.3211163 16.089 -0.3706458 15.96556 -0.2216009 27.99358 -0.2567595 27.87795 -0.3706458 27.87802 -0.3528872 28.01637 -0.5191232 28.17028 -0.1233678 28.02729 -0.5237996 28.02556 -0.5227714 28.16738 -0.1221116 28.01637 -0.5191232 15.97389 -0.5227714 15.95708 -0.1233678 15.96026 -0.1230493 28.17061 -0.03578526 28.16787 0.003941191 28.26962 -0.1445279 15.95922 -0.02228422 15.95699 -0.1532677 15.95869 0.003941191 28.17061 -0.03578526 28.17014 -0.1532677 28.16838 -0.02228422 28.17061 -0.03578526 28.26962 -0.1445279 28.16825 -0.2618557 28.26962 -0.1445279 28.17014 -0.1532677 28.16926 -0.2547489 15.95966 -0.03578526 15.95889 -0.2618557 15.95699 -0.1532677 15.97208 -0.5126567 15.79299 -0.1138319 15.96019 -0.51685 28.02961 -0.5091477 27.84654 -0.1119985 28.01802 -0.5126567 28.02145 -0.51685 27.84663 -0.113432 28.02961 -0.5091477 15.79272 -0.009234764 15.69692 -0.08836978 15.79184 0.0106883 27.84885 0.0106883 27.96679 -0.1082234 27.79051 -0.08985871 27.81157 -0.08836978 27.96679 -0.1082234 27.84885 0.0106883 27.79051 -0.08985871 27.96679 -0.1082234 27.85438 -0.2432578 27.96679 -0.1082234 27.81157 -0.08836978 27.85438 -0.2432578 15.69692 -0.08836978 15.79272 -0.2219306 15.79271 -0.2150762 15.80022 -0.2432578 15.79272 -0.2219306 15.88888 -0.08985871 15.96648 -0.3969883 16.07874 -0.08622584 16.07601 -0.08504307 15.97063 -0.3992485 16.07641 -0.08532235 16.07874 -0.08622584 15.95979 -0.3946001 16.07641 -0.08532235 15.97063 -0.3992485 28.03496 0.003263911 28.01109 -0.04325709 28.03459 -0.181789 16.07626 -0.181789 16.0771 -0.1739158 16.19134 -0.08298369 28.03405 -0.1930775 28.03459 -0.181789 28.01109 -0.04325709 28.0275 -0.4756765 28.13599 -0.2123867 28.13868 -0.2143905 28.02552 -0.4674983 28.13899 -0.2130259 28.13599 -0.2123867 15.96229 -0.4756765 15.81277 -0.2130259 15.97264 -0.4674983 15.81113 -0.1010732 15.92277 -0.1224033 15.81158 -0.09530916 15.81157 -0.1015657 15.7383 -0.1668885 15.81113 -0.1010732 15.81113 -0.1010732 15.67305 -0.2410036 15.92277 -0.1224033 28.1377 -0.1010732 28.01919 -0.1668885 28.16181 -0.2410036 15.81157 28.13758 15.92277 28.14832 15.7383 28.01919 15.92277 -0.1224033 15.89925 -0.3009441 15.7383 -0.1668885 28.14832 -0.1224033 28.26073 -0.299248 28.04942 -0.3009441 15.7383 28.01919 15.89925 28.04942 15.67305 28.16181 15.67305 -0.2410036 15.81154 -0.3239075 15.81152 -0.3292099 15.96871 -0.4883886 15.99158 -0.1333926 15.98853 -0.1340966 28.02786 -0.4820901 27.83996 -0.1333926 28.0171 -0.4883886 15.97138 -0.4820901 15.98919 -0.1325209 15.99158 -0.1333926 28.00205 -0.1321776 27.69668 -0.1159007 27.83959 -0.02456512 27.83959 -0.02456512 27.69668 -0.1159007 27.83842 -0.06497116 27.83842 -0.06497116 27.83725 -0.2555534 28.00205 -0.1321776 27.83842 -0.06497116 27.69668 -0.1159007 27.83725 -0.2555534 28.00205 -0.1321776 27.83721 -0.2617548 27.69668 -0.1159007 27.69668 -0.1159007 27.83961 -0.2270681 27.83725 -0.2555534 15.94 -0.8494202 15.96434 -0.8504729 15.97484 -0.2506525 28.00758 -0.8504729 28.02439 -0.250823 28.01535 -0.2506525 15.96321 -0.8501727 15.97138 -0.2504881 15.98108 -0.250823 15.95935 -0.5931251 15.96934 -0.5960156 15.92263 -0.2327576 15.96934 -0.5960156 15.92533 -0.232198 15.92263 -0.2327576 28.02927 -0.5888668 27.83778 -0.2311033 27.8354 -0.232198 15.92358 -0.1240046 15.92346 -0.1247354 16.03093 -0.2183517 15.92346 -0.1247354 15.92059 -0.2926107 16.03093 -0.2183517 27.82628 -0.2177944 27.8363 -0.3399466 27.84013 -0.2926107 15.95974 -0.4553855 15.97288 -0.4595734 16.05186 -0.1737186 28.01924 -0.4595734 28.09602 -0.1747079 28.09351 -0.1737186 28.01924 -0.4595734 28.02988 -0.460681 28.09602 -0.1747079 15.96703 -0.460681 16.04939 -0.1734411 16.05261 -0.1747079 16.05088 28.09379 16.05031 28.10034 16.21019 28.12616 16.05031 -0.05467581 16.05105 -0.06783009 15.88437 -0.1572711 16.05105 -0.06783009 16.05088 -0.05533409 15.88437 -0.1572711 16.05088 28.09379 16.21019 28.12616 16.02429 27.92704 16.21019 -0.1783954 15.88437 -0.1572711 16.05259 -0.2895813 16.05081 -0.2794989 16.21019 -0.1783954 16.05112 -0.2671969 28.01525 -0.575682 28.02581 -0.5712161 28.04475 -0.2408281 28.02581 -0.5712161 28.0478 -0.2420173 28.04475 -0.2408281 28.02828 -0.5791897 28.04524 -0.2429703 28.0478 -0.2420173 28.04595 -0.1454751 28.04593 -0.1545063 27.93846 -0.1757192 15.65356 -0.1757192 15.78139 -0.1436943 15.74219 -0.3308749 15.82152 28.15213 15.71987 28.04673 15.72964 28.0456 15.71987 -0.353279 15.65356 -0.1757192 15.74219 -0.3308749 28.02847 -0.4824926 28.01685 -0.4900456 27.87829 -0.2425529 28.02206 -0.4915313 27.87883 -0.2440216 27.87657 -0.2447056 15.97255 -0.4915313 15.96453 -0.4824926 16.09237 -0.2440216 15.96453 -0.4824926 16.08922 -0.2425529 16.09237 -0.2440216 27.87805 -0.1431774 27.87781 -0.1174191 27.99358 -0.2567595 16.08971 -0.1174191 15.96556 -0.2216009 16.18156 -0.2567595 16.0919 -0.1193767 15.96556 -0.2216009 16.08971 -0.1174191 16.0919 -0.1193767 16.09128 -0.3211163 15.96556 -0.2216009 27.87628 -0.3211163 27.99358 -0.2567595 27.87802 -0.3528872 28.01637 -0.5191232 28.16738 -0.1221116 28.17028 -0.1233678 28.02556 -0.5227714 28.1697 -0.1230493 28.16738 -0.1221116 15.97389 -0.5227714 15.96102 -0.5237996 15.95708 -0.1233678 28.26962 -0.1445279 28.16787 0.003941191 28.17014 -0.1532677 28.16825 -0.2618557 28.26962 -0.1445279 28.16926 -0.2547489 28.02145 -0.51685 27.84401 -0.1138319 27.84663 -0.113432 28.01802 -0.5126567 27.84654 -0.1119985 27.84401 -0.1138319 15.96727 -0.5091477 15.79111 -0.113432 15.79407 -0.1119985 15.79272 -0.009234764 15.79272 -0.004428775 15.69692 -0.08836978 15.79272 -0.004428775 15.88888 -0.08985871 15.69692 -0.08836978 15.79272 -0.004428775 15.79184 0.0106883 15.88888 -0.08985871 15.80022 -0.2432578 15.69692 -0.08836978 15.79271 -0.2150762 15.69692 -0.08836978 15.88888 -0.08985871 15.79272 -0.2219306 28.02409 -0.3946001 28.01555 -0.3969883 28.03289 -0.08504307 28.01555 -0.3969883 28.02867 -0.3992485 28.03476 -0.08622584 28.02409 -0.3946001 28.03289 -0.08504307 28.03599 -0.08532235 16.07706 0.02143479 16.07624 0.003263911 16.19134 -0.08298369 16.07025 -0.04325709 16.07706 0.02143479 16.19134 -0.08298369 16.19134 -0.08298369 16.07624 0.003263911 16.07626 -0.181789 16.07025 -0.04325709 16.19134 -0.08298369 16.07708 -0.1930775 16.07708 -0.1930775 16.19134 -0.08298369 16.0771 -0.1739158 28.0275 -0.4756765 28.01608 -0.4679806 28.13599 -0.2123867 15.96496 28.01608 15.97264 28.02552 15.81148 28.13599 15.96229 -0.4756765 15.81058 -0.2143905 15.81277 -0.2130259 15.81157 -0.1015657 15.81158 -0.09530916 15.92277 -0.1224033 15.92277 -0.1224033 15.67305 -0.2410036 15.82933 -0.299248 15.89925 28.04942 15.82933 28.26073 15.81154 28.1377 15.82933 28.26073 15.67305 28.16181 15.81152 28.13766 15.67305 -0.2410036 15.89925 -0.3009441 15.81154 -0.3239075 28.02656 -0.4820443 28.0171 -0.4883886 27.83841 -0.1340966 15.97138 -0.4820901 15.96037 -0.4820443 15.98919 -0.1325209 28.02656 -0.4820443 27.83841 -0.1340966 27.8411 -0.1325209 27.83959 -0.02456512 27.83969 -0.01970034 28.00205 -0.1321776 27.83969 -0.01970034 27.83842 -0.06497116 28.00205 -0.1321776 28.00205 -0.1321776 27.83725 -0.2555534 27.83721 -0.2617548 27.69668 -0.1159007 27.83721 -0.2617548 27.83961 -0.2270681</float_array>
          <technique_common>
            <accessor source="#uv-array" count="1404" stride="2">
              <param name="S" type="float" />
              <param name="T" type="float" />
            </accessor>
          </technique_common>
        </source>
        <vertices id="vertices">
          <input semantic="POSITION" source="#positions" />
        </vertices>
        <triangles count="180" material="m0">
          <input semantic="VERTEX" source="#vertices" offset="0" />
          <input semantic="NORMAL" source="#normals" offset="1" />
          <input semantic="TEXCOORD" source="#uv" offset="2" set="0" />
          <p>0 0 0 4 0 1 3 0 2 2 1 3 5 1 4 1 1 5 0 2 6 3 2 7 2 2 8 6 3 9 10 3 10 9 3 11 8 4 12 11 4 13 7 4 14 8 5 15 9 5 16 11 5 17 6 6 18 9 6 19 8 6 20 20 11 33 22 11 34 19 11 35 21 12 36 24 12 37 23 12 38 19 13 39 22 13 40 21 13 41 34 19 57 37 19 58 33 19 59 35 20 60 38 20 61 34 20 62 35 21 63 36 21 64 38 21 65 50 28 84 52 28 85 49 28 86 48 29 87 51 29 88 53 29 89 64 36 108 66 36 109 63 36 110 64 37 111 67 37 112 66 37 113 63 38 114 68 38 115 65 38 116 77 47 141 81 47 142 80 47 143 79 48 144 82 48 145 78 48 146 77 49 147 80 49 148 79 49 149 92 55 165 94 55 166 91 55 167 92 56 168 96 56 169 95 56 170 91 57 171 96 57 172 93 57 173 107 64 192 110 64 193 109 64 194 108 65 195 110 65 196 107 65 197 108 66 198 111 66 199 110 66 200 121 70 210 124 70 211 123 70 212 122 71 213 124 71 214 121 71 215 0 82 246 1 82 247 4 82 248 1 83 249 5 83 250 4 83 251 2 84 252 3 84 253 5 84 254 6 85 255 7 85 256 10 85 257 7 86 258 11 86 259 10 86 260 20 91 273 23 91 274 22 91 275 20 92 276 21 92 277 23 92 278 21 93 279 22 93 280 24 93 281 33 99 297 37 99 298 36 99 299 34 100 300 38 100 301 37 100 302 35 101 303 33 101 304 36 101 305 48 108 324 52 108 325 51 108 326 48 109 327 49 109 328 52 109 329 50 110 330 53 110 331 52 110 332 50 111 333 48 111 334 53 111 335 64 118 354 65 118 355 67 118 356 65 119 357 68 119 358 67 119 359 63 120 360 66 120 361 68 120 362 77 123 369 78 123 370 81 123 371 78 124 372 82 124 373 81 124 374 79 125 375 80 125 376 82 125 377 92 131 393 95 131 394 94 131 395 92 132 396 93 132 397 96 132 398 91 133 399 94 133 400 96 133 401 106 140 420 107 140 421 109 140 422 108 141 423 106 141 424 111 141 425 106 142 426 109 142 427 111 142 428 120 150 450 121 150 451 123 150 452 122 151 453 125 151 454 124 151 455 122 152 456 120 152 457 125 152 458 120 153 459 123 153 460 125 153 461 135 156 468 139 156 469 138 156 470 137 157 471 140 157 472 136 157 473 135 158 474 138 158 475 137 158 476 141 159 477 145 159 478 144 159 479 143 160 480 146 160 481 142 160 482 143 161 483 144 161 484 146 161 485 141 162 486 144 162 487 143 162 488 155 167 501 157 167 502 154 167 503 156 168 504 159 168 505 158 168 506 154 169 507 157 169 508 156 169 509 169 175 525 172 175 526 168 175 527 170 176 528 173 176 529 169 176 530 170 177 531 171 177 532 173 177 533 185 184 552 187 184 553 184 184 554 183 185 555 186 185 556 188 185 557 199 192 576 201 192 577 198 192 578 199 193 579 202 193 580 201 193 581 198 194 582 203 194 583 200 194 584 212 203 609 216 203 610 215 203 611 214 204 612 217 204 613 213 204 614 212 205 615 215 205 616 214 205 617 227 211 633 229 211 634 226 211 635 227 212 636 231 212 637 230 212 638 226 213 639 231 213 640 228 213 641 242 220 660 245 220 661 244 220 662 243 221 663 245 221 664 242 221 665 243 222 666 246 222 667 245 222 668 256 226 678 259 226 679 258 226 680 257 227 681 259 227 682 256 227 683 135 238 714 136 238 715 139 238 716 136 239 717 140 239 718 139 239 719 137 240 720 138 240 721 140 240 722 141 241 723 142 241 724 145 241 725 142 242 726 146 242 727 145 242 728 155 247 741 158 247 742 157 247 743 155 248 744 156 248 745 158 248 746 156 249 747 157 249 748 159 249 749 168 255 765 172 255 766 171 255 767 169 256 768 173 256 769 172 256 770 170 257 771 168 257 772 171 257 773 183 264 792 187 264 793 186 264 794 183 265 795 184 265 796 187 265 797 185 266 798 188 266 799 187 266 800 185 267 801 183 267 802 188 267 803 199 274 822 200 274 823 202 274 824 200 275 825 203 275 826 202 275 827 198 276 828 201 276 829 203 276 830 212 279 837 213 279 838 216 279 839 213 280 840 217 280 841 216 280 842 214 281 843 215 281 844 217 281 845 227 287 861 230 287 862 229 287 863 227 288 864 228 288 865 231 288 866 226 289 867 229 289 868 231 289 869 241 296 888 242 296 889 244 296 890 243 297 891 241 297 892 246 297 893 241 298 894 244 298 895 246 298 896 255 306 918 256 306 919 258 306 920 257 307 921 260 307 922 259 307 923 257 308 924 255 308 925 260 308 926 255 309 927 258 309 928 260 309 929 270 312 936 274 312 937 273 312 938 272 313 939 275 313 940 271 313 941 270 314 942 273 314 943 272 314 944 276 315 945 279 315 946 281 315 947 278 316 948 280 316 949 277 316 950 276 317 951 281 317 952 278 317 953 289 323 969 293 323 970 292 323 971 289 324 972 292 324 973 291 324 974 305 331 993 307 331 994 304 331 995 305 332 996 308 332 997 307 332 998 304 333 999 309 333 1000 306 333 1001 321 344 1032 324 344 1033 323 344 1034 322 345 1035 324 345 1036 321 345 1037 335 351 1053 337 351 1054 334 351 1055 336 352 1056 338 352 1057 335 352 1058 336 353 1059 337 353 1060 339 353 1061 348 360 1080 351 360 1081 347 360 1082 349 361 1083 352 361 1084 348 361 1085 347 362 1086 350 362 1087 349 362 1088 363 370 1110 366 370 1111 365 370 1112 364 371 1113 367 371 1114 366 371 1115 362 372 1116 367 372 1117 364 372 1118 375 376 1128 379 376 1129 378 376 1130 377 377 1131 380 377 1132 379 377 1133 375 378 1134 380 378 1135 377 378 1136 392 388 1164 395 388 1165 394 388 1166 393 389 1167 395 389 1168 392 389 1169 393 390 1170 396 390 1171 395 390 1172 270 397 1191 271 397 1192 274 397 1193 271 398 1194 275 398 1195 274 398 1196 272 399 1197 273 399 1198 275 399 1199 276 400 1200 277 400 1201 279 400 1202 277 401 1203 280 401 1204 279 401 1205 278 402 1206 281 402 1207 280 402 1208 289 406 1218 290 406 1219 293 406 1220 290 407 1221 294 407 1222 293 407 1223 290 408 1224 291 408 1225 294 408 1226 291 409 1227 292 409 1228 294 409 1229 305 416 1248 306 416 1249 308 416 1250 306 417 1251 309 417 1252 308 417 1253 304 418 1254 307 418 1255 309 418 1256 320 423 1269 321 423 1270 323 423 1271 322 424 1272 325 424 1273 324 424 1274 322 425 1275 320 425 1276 325 425 1277 320 426 1278 323 426 1279 325 426 1280 335 432 1296 338 432 1297 337 432 1298 336 433 1299 339 433 1300 338 433 1301 336 434 1302 334 434 1303 337 434 1304 347 437 1311 351 437 1312 350 437 1313 348 438 1314 352 438 1315 351 438 1316 349 439 1317 350 439 1318 352 439 1319 362 445 1335 363 445 1336 365 445 1337 363 446 1338 364 446 1339 366 446 1340 362 447 1341 365 447 1342 367 447 1343 375 453 1359 376 453 1360 379 453 1361 376 454 1362 377 454 1363 379 454 1364 375 455 1365 378 455 1366 380 455 1367 391 461 1383 392 461 1384 394 461 1385 393 462 1386 391 462 1387 396 462 1388 391 463 1389 394 463 1390 396 463 1391</p>
        </triangles>
        <triangles count="104" material="m3">
          <input semantic="VERTEX" source="#vertices" offset="0" />
          <input semantic="NORMAL" source="#normals" offset="1" />
          <input semantic="TEXCOORD" source="#uv" offset="2" set="0" />
          <p>14 7 21 12 7 22 15 7 23 12 8 24 17 8 25 16 8 26 12 9 27 18 9 28 15 9 29 12 10 30 16 10 31 18 10 32 54 30 90 56 30 91 58 30 92 55 31 93 58 31 94 57 31 95 56 32 96 59 32 97 58 32 98 58 33 99 61 33 100 60 33 101 59 34 102 62 34 103 61 34 104 57 35 105 60 35 106 62 35 107 83 50 150 84 50 151 86 50 152 86 51 153 87 51 154 85 51 155 87 52 156 88 52 157 90 52 158 87 53 159 89 53 160 84 53 161 87 54 162 90 54 163 89 54 164 116 67 201 119 67 202 115 67 203 114 68 204 117 68 205 116 68 206 114 69 207 119 69 208 117 69 209 14 87 261 15 87 262 13 87 263 13 88 264 17 88 265 12 88 266 13 89 267 15 89 268 18 89 269 17 90 270 13 90 271 18 90 272 54 112 336 58 112 337 55 112 338 56 113 339 55 113 340 57 113 341 56 114 342 57 114 343 59 114 344 57 115 345 58 115 346 60 115 347 58 116 348 59 116 349 61 116 350 59 117 351 57 117 352 62 117 353 83 126 378 85 126 379 84 126 380 84 127 381 85 127 382 87 127 383 86 128 384 84 128 385 88 128 386 86 129 387 88 129 388 87 129 389 84 130 390 89 130 391 88 130 392 113 143 429 116 143 430 112 143 431 113 144 432 114 144 433 116 144 434 114 145 435 112 145 436 115 145 437 112 146 438 116 146 439 115 146 440 114 147 441 115 147 442 119 147 443 119 148 444 116 148 445 118 148 446 116 149 447 117 149 448 118 149 449 149 163 489 147 163 490 150 163 491 147 164 492 152 164 493 151 164 494 147 165 495 153 165 496 150 165 497 147 166 498 151 166 499 153 166 500 189 186 558 191 186 559 193 186 560 190 187 561 193 187 562 192 187 563 191 188 564 194 188 565 193 188 566 193 189 567 196 189 568 195 189 569 194 190 570 197 190 571 196 190 572 192 191 573 195 191 574 197 191 575 218 206 618 219 206 619 221 206 620 221 207 621 222 207 622 220 207 623 222 208 624 223 208 625 225 208 626 222 209 627 224 209 628 219 209 629 222 210 630 225 210 631 224 210 632 251 223 669 254 223 670 250 223 671 249 224 672 252 224 673 251 224 674 249 225 675 254 225 676 252 225 677 149 243 729 150 243 730 148 243 731 148 244 732 152 244 733 147 244 734 148 245 735 150 245 736 153 245 737 152 246 738 148 246 739 153 246 740 189 268 804 193 268 805 190 268 806 191 269 807 190 269 808 192 269 809 191 270 810 192 270 811 194 270 812 192 271 813 193 271 814 195 271 815 193 272 816 194 272 817 196 272 818 194 273 819 192 273 820 197 273 821 218 282 846 220 282 847 219 282 848 219 283 849 220 283 850 222 283 851 221 284 852 219 284 853 223 284 854 221 285 855 223 285 856 222 285 857 219 286 858 224 286 859 223 286 860 248 299 897 251 299 898 247 299 899 248 300 900 249 300 901 251 300 902 249 301 903 247 301 904 250 301 905 247 302 906 251 302 907 250 302 908 249 303 909 250 303 910 254 303 911 254 304 912 251 304 913 253 304 914 251 305 915 252 305 916 253 305 917 311 334 1002 312 334 1003 310 334 1004 313 335 1005 312 335 1006 311 335 1007 313 336 1008 316 336 1009 312 336 1010 310 337 1011 312 337 1012 315 337 1013 313 338 1014 315 338 1015 316 338 1016 316 339 1017 314 339 1018 312 339 1019 314 340 1020 317 340 1021 312 340 1022 316 341 1023 315 341 1024 318 341 1025 316 342 1026 318 342 1027 314 342 1028 314 343 1029 319 343 1030 317 343 1031 327 346 1038 328 346 1039 326 346 1040 326 347 1041 328 347 1042 331 347 1043 330 348 1044 332 348 1045 328 348 1046 331 349 1047 332 349 1048 330 349 1049 328 350 1050 332 350 1051 333 350 1052 313 419 1257 310 419 1258 315 419 1259 315 420 1260 312 420 1261 317 420 1262 314 421 1263 318 421 1264 319 421 1265 318 422 1266 315 422 1267 317 422 1268 327 427 1281 329 427 1282 328 427 1283 329 428 1284 330 428 1285 328 428 1286 326 429 1287 330 429 1288 329 429 1289 326 430 1290 331 430 1291 330 430 1292 331 431 1293 328 431 1294 333 431 1295</p>
        </triangles>
        <triangles count="76" material="m1">
          <input semantic="VERTEX" source="#vertices" offset="0" />
          <input semantic="NORMAL" source="#normals" offset="1" />
          <input semantic="TEXCOORD" source="#uv" offset="2" set="0" />
          <p>27 14 42 30 14 43 28 14 44 27 15 45 28 15 46 29 15 47 25 16 48 30 16 49 27 16 50 25 17 51 31 17 52 30 17 53 29 18 54 30 18 55 32 18 56 97 58 174 101 58 175 102 58 176 99 59 177 102 59 178 98 59 179 98 60 180 101 60 181 100 60 182 102 61 183 103 61 184 98 61 185 98 62 186 105 62 187 101 62 188 103 63 189 105 63 190 98 63 191 26 94 282 29 94 283 25 94 284 26 95 285 27 95 286 29 95 287 25 96 288 29 96 289 32 96 290 29 97 291 28 97 292 30 97 293 25 98 294 32 98 295 31 98 296 100 134 402 99 134 403 98 134 404 97 135 405 102 135 406 99 135 407 97 136 408 100 136 409 101 136 410 103 137 411 102 137 412 104 137 413 102 138 414 101 138 415 104 138 416 101 139 417 105 139 418 104 139 419 162 170 510 165 170 511 163 170 512 162 171 513 163 171 514 164 171 515 160 172 516 165 172 517 162 172 518 160 173 519 166 173 520 165 173 521 164 174 522 165 174 523 167 174 524 232 214 642 236 214 643 237 214 644 234 215 645 237 215 646 233 215 647 233 216 648 236 216 649 235 216 650 237 217 651 238 217 652 233 217 653 233 218 654 240 218 655 236 218 656 238 219 657 240 219 658 233 219 659 161 250 750 164 250 751 160 250 752 161 251 753 162 251 754 164 251 755 160 252 756 164 252 757 167 252 758 164 253 759 163 253 760 165 253 761 160 254 762 167 254 763 166 254 764 235 290 870 234 290 871 233 290 872 232 291 873 237 291 874 234 291 875 232 292 876 235 292 877 236 292 878 238 293 879 237 293 880 239 293 881 237 294 882 236 294 883 239 294 884 236 295 885 240 295 886 239 295 887 341 354 1062 342 354 1063 343 354 1064 340 355 1065 344 355 1066 342 355 1067 341 356 1068 344 356 1069 340 356 1070 341 357 1071 343 357 1072 345 357 1073 343 358 1074 344 358 1075 346 358 1076 341 359 1077 345 359 1078 344 359 1079 383 379 1137 382 379 1138 381 379 1139 384 380 1140 385 380 1141 383 380 1142 383 381 1143 388 381 1144 382 381 1145 383 382 1146 385 382 1147 388 382 1148 384 383 1149 382 383 1150 385 383 1151 382 384 1152 386 384 1153 385 384 1154 382 385 1155 387 385 1156 386 385 1157 385 386 1158 386 386 1159 388 386 1160 388 387 1161 389 387 1162 390 387 1163 399 391 1173 401 391 1174 397 391 1175 397 392 1176 401 392 1177 400 392 1178 400 393 1179 403 393 1180 399 393 1181 400 394 1182 401 394 1183 403 394 1184 399 395 1185 402 395 1186 401 395 1187 401 396 1188 404 396 1189 403 396 1190 343 435 1305 342 435 1306 344 435 1307 345 436 1308 343 436 1309 346 436 1310 384 456 1368 381 456 1369 382 456 1370 382 457 1371 388 457 1372 387 457 1373 386 458 1374 387 458 1375 389 458 1376 387 459 1377 388 459 1378 390 459 1379 388 460 1380 386 460 1381 389 460 1382 397 464 1392 398 464 1393 399 464 1394 398 465 1395 400 465 1396 399 465 1397 399 466 1398 403 466 1399 402 466 1400 401 467 1401 402 467 1402 404 467 1403</p>
        </triangles>
        <triangles count="36" material="m2">
          <input semantic="VERTEX" source="#vertices" offset="0" />
          <input semantic="NORMAL" source="#normals" offset="1" />
          <input semantic="TEXCOORD" source="#uv" offset="2" set="0" />
          <p>41 22 66 43 22 67 40 22 68 41 23 69 39 23 70 46 23 71 43 24 72 42 24 73 39 24 74 46 25 75 43 25 76 41 25 77 39 26 78 42 26 79 46 26 80 46 27 81 47 27 82 45 27 83 40 102 306 43 102 307 39 102 308 42 103 309 43 103 310 44 103 311 43 104 312 45 104 313 44 104 314 43 105 315 46 105 316 45 105 317 46 106 318 42 106 319 44 106 320 46 107 321 44 107 322 47 107 323 176 178 534 178 178 535 175 178 536 176 179 537 174 179 538 181 179 539 178 180 540 177 180 541 174 180 542 181 181 543 178 181 544 176 181 545 174 182 546 177 182 547 181 182 548 181 183 549 182 183 550 180 183 551 175 258 774 178 258 775 174 258 776 177 259 777 178 259 778 179 259 779 178 260 780 180 260 781 179 260 782 178 261 783 181 261 784 180 261 785 181 262 786 177 262 787 179 262 788 181 263 789 179 263 790 182 263 791 353 363 1089 358 363 1090 355 363 1091 355 364 1092 356 364 1093 357 364 1094 358 365 1095 356 365 1096 355 365 1097 357 366 1098 356 366 1099 359 366 1100 356 367 1101 358 367 1102 359 367 1103 358 368 1104 361 368 1105 360 368 1106 359 369 1107 361 369 1108 357 369 1109 353 440 1320 354 440 1321 358 440 1322 354 441 1323 357 441 1324 358 441 1325 354 442 1326 355 442 1327 357 442 1328 359 443 1329 358 443 1330 360 443 1331 358 444 1332 357 444 1333 361 444 1334</p>
        </triangles>
        <triangles count="72" material="m5">
          <input semantic="VERTEX" source="#vertices" offset="0" />
          <input semantic="NORMAL" source="#normals" offset="1" />
          <input semantic="TEXCOORD" source="#uv" offset="2" set="0" />
          <p>71 39 117 73 39 118 70 39 119 69 40 120 74 40 121 71 40 122 73 41 123 72 41 124 69 41 125 69 42 126 72 42 127 74 42 128 71 43 129 74 43 130 73 43 131 74 44 132 76 44 133 73 44 134 72 45 135 75 45 136 74 45 137 76 46 138 72 46 139 73 46 140 126 72 216 130 72 217 131 72 218 126 73 219 127 73 220 130 73 221 129 74 222 128 74 223 127 74 224 128 75 225 130 75 226 127 75 227 130 76 228 132 76 229 131 76 230 130 77 231 128 77 232 132 77 233 128 78 234 134 78 235 133 78 236 131 79 237 134 79 238 128 79 239 131 80 240 132 80 241 134 80 242 128 81 243 133 81 244 132 81 245 70 121 363 73 121 364 69 121 365 74 122 366 75 122 367 76 122 368 129 154 462 126 154 463 131 154 464 128 155 465 129 155 466 131 155 467 206 195 585 208 195 586 205 195 587 204 196 588 209 196 589 206 196 590 208 197 591 207 197 592 204 197 593 204 198 594 207 198 595 209 198 596 206 199 597 209 199 598 208 199 599 209 200 600 211 200 601 208 200 602 207 201 603 210 201 604 209 201 605 211 202 606 207 202 607 208 202 608 261 228 684 265 228 685 266 228 686 261 229 687 262 229 688 265 229 689 264 230 690 263 230 691 262 230 692 263 231 693 265 231 694 262 231 695 265 232 696 267 232 697 266 232 698 265 233 699 263 233 700 267 233 701 263 234 702 269 234 703 268 234 704 266 235 705 269 235 706 263 235 707 266 236 708 267 236 709 269 236 710 263 237 711 268 237 712 267 237 713 205 277 831 208 277 832 204 277 833 209 278 834 210 278 835 211 278 836 264 310 930 261 310 931 266 310 932 263 311 933 264 311 934 266 311 935 285 318 954 282 318 955 284 318 956 284 319 957 286 319 958 283 319 959 282 320 960 286 320 961 287 320 962 282 321 963 287 321 964 284 321 965 287 322 966 288 322 967 284 322 968 295 325 975 300 325 976 298 325 977 298 326 978 299 326 979 296 326 980 300 327 981 299 327 982 302 327 983 298 328 984 302 328 985 301 328 986 300 329 987 302 329 988 298 329 989 299 330 990 301 330 991 303 330 992 369 373 1119 370 373 1120 374 373 1121 374 374 1122 373 374 1123 371 374 1124 372 375 1125 374 375 1126 370 375 1127 285 403 1209 283 403 1210 282 403 1211 283 404 1212 286 404 1213 282 404 1214 284 405 1215 288 405 1216 286 405 1217 295 410 1230 296 410 1231 299 410 1232 296 411 1233 297 411 1234 298 411 1235 297 412 1236 295 412 1237 298 412 1238 295 413 1239 299 413 1240 300 413 1241 299 414 1242 298 414 1243 301 414 1244 302 415 1245 299 415 1246 303 415 1247 368 448 1344 369 448 1345 371 448 1346 370 449 1347 368 449 1348 371 449 1349 371 450 1350 369 450 1351 374 450 1352 370 451 1353 371 451 1354 372 451 1355 372 452 1356 371 452 1357 373 452 1358</p>
        </triangles>
      </mesh>
    </geometry>
  </library_geometries>
  <library_visual_scenes>
    <visual_scene id="Scene">
      <node id="Node" type="NODE">
        <instance_geometry url="#geometry">
          <bind_material>
            <technique_common>
              <instance_material symbol="m0" target="#m0">
                <bind_vertex_input semantic="UVSET0" input_semantic="TEXCOORD" input_set="0" />
              </instance_material>
              <instance_material symbol="m1" target="#m1">
                <bind_vertex_input semantic="UVSET0" input_semantic="TEXCOORD" input_set="0" />
              </instance_material>
              <instance_material symbol="m2" target="#m2">
                <bind_vertex_input semantic="UVSET0" input_semantic="TEXCOORD" input_set="0" />
              </instance_material>
              <instance_material symbol="m3" target="#m3">
                <bind_vertex_input semantic="UVSET0" input_semantic="TEXCOORD" input_set="0" />
              </instance_material>
              <instance_material symbol="m4" target="#m4">
                <bind_vertex_input semantic="UVSET0" input_semantic="TEXCOORD" input_set="0" />
              </instance_material>
              <instance_material symbol="m5" target="#m5">
                <bind_vertex_input semantic="UVSET0" input_semantic="TEXCOORD" input_set="0" />
              </instance_material>
            </technique_common>
          </bind_material>
        </instance_geometry>
      </node>
    </visual_scene>
  </library_visual_scenes>
  <scene>
    <instance_visual_scene url="#Scene" />
  </scene>
</COLLADA>