<?xml version='1.0' encoding='utf-8'?>
<COLLADA xmlns="http://www.collada.org/2005/11/COLLADASchema" version="1.4.1">
  <asset>
    <created>2026-09-08T00:00:00Z</created>
    <modified>2026-09-08T00:00:00Z</modified>
    <unit name="meter" meter="1" />
    <up_axis>Z_UP</up_axis>
  </asset>
  <library_images />
  <library_effects>
    <effect id="e0">
      <profile_COMMON>
        <technique sid="common">
          <phong>
            <ambient>
              <color>0.1755 0.18 0.1485 1</color>
            </ambient>
            <diffuse>
              <color>0.39 0.4 0.33 1</color>
            </diffuse>
            <specular>
              <color>0.02 0.02 0.02 1</color>
            </specular>
            <shininess>
              <float>8</float>
            </shininess>
          </phong>
        </technique>
      </profile_COMMON>
    </effect>
    <effect id="e1">
      <profile_COMMON>
        <technique sid="common">
          <phong>
            <ambient>
              <color>0.045 0.09 0.06075 1</color>
            </ambient>
            <diffuse>
              <color>0.1 0.2 0.135 1</color>
            </diffuse>
            <specular>
              <color>0.02 0.02 0.02 1</color>
            </specular>
            <shininess>
              <float>8</float>
            </shininess>
          </phong>
        </technique>
      </profile_COMMON>
    </effect>
    <effect id="e2">
      <profile_COMMON>
        <technique sid="common">
          <phong>
            <ambient>
              <color>0.0765 0.1215 0.0765 1</color>
            </ambient>
            <diffuse>
              <color>0.17 0.27 0.17 1</color>
            </diffuse>
            <specular>
              <color>0.02 0.02 0.02 1</color>
            </specular>
            <shininess>
              <float>8</float>
            </shininess>
          </phong>
        </technique>
      </profile_COMMON>
    </effect>
    <effect id="e3">
      <profile_COMMON>
        <technique sid="common">
          <phong>
            <ambient>
              <color>0.099 0.1395 0.09225 1</color>
            </ambient>
            <diffuse>
              <color>0.22 0.31 0.205 1</color>
            </diffuse>
            <specular>
              <color>0.02 0.02 0.02 1</color>
            </specular>
            <shininess>
              <float>8</float>
            </shininess>
          </phong>
        </technique>
      </profile_COMMON>
    </effect>
    <effect id="e4">
      <profile_COMMON>
        <technique sid="common">
          <phong>
            <ambient>
              <color>0.054 0.1035 0.09 1</color>
            </ambient>
            <diffuse>
              <color>0.12 0.23 0.2 1</color>
            </diffuse>
            <specular>
              <color>0.02 0.02 0.02 1</color>
            </specular>
            <shininess>
              <float>8</float>
            </shininess>
          </phong>
        </technique>
      </profile_COMMON>
    </effect>
    <effect id="e5">
      <profile_COMMON>
        <technique sid="common">
          <phong>
            <ambient>
              <color>0.126 0.1485 0.0855 1</color>
            </ambient>
            <diffuse>
              <color>0.28 0.33 0.19 1</color>
            </diffuse>
            <specular>
              <color>0.02 0.02 0.02 1</color>
            </specular>
            <shininess>
              <float>8</float>
            </shininess>
          </phong>
        </technique>
      </profile_COMMON>
    </effect>
  </library_effects>
  <library_materials>
    <material id="m0" name="m0">
      <instance_effect url="#e0" />
    </material>
    <material id="m1" name="m1">
      <instance_effect url="#e1" />
    </material>
    <material id="m2" name="m2">
      <instance_effect url="#e2" />
    </material>
    <material id="m3" name="m3">
      <instance_effect url="#e3" />
    </material>
    <material id="m4" name="m4">
      <instance_effect url="#e4" />
    </material>
    <material id="m5" name="m5">
      <instance_effect url="#e5" />
    </material>
  </library_materials>
  <library_geometries>
    <geometry id="geometry" name="forest_25_27">
      <mesh>
        <source id="positions">
          <float_array id="positions-array" count="1215">59.55886 70.60567 -1.438152 59.46691 70.62278 -1.440829 59.51924 70.53305 -1.440065 59.47337 70.56658 0.08467507 59.45033 70.58744 0.08425707 59.44676 70.55479 0.0838234 59.48722 70.60002 -0.6713078 59.46268 70.57191 -0.6750037 59.49319 70.55956 -0.6786632 59.56092 70.31341 0.576097 59.5537 70.32051 0.5776958 59.55212 70.31107 0.5761102 59.5555 70.31559 0.8236544 59.55572 70.31523 0.7806708 59.55596 70.31532 0.8200501 59.61638 70.71466 0.5788874 59.14346 70.17914 0.5294904 59.86907 70.03232 0.5981112 59.55558 70.3151 0.3137902 59.55735 70.31472 0.3388451 59.55559 70.31513 0.3686985 59.49333 70.59332 -0.5030388 59.46094 70.58296 -0.4857972 59.49601 70.56153 -0.4869854 59.84421 71.10692 0.3281948 59.83453 71.1103 0.329861 59.83895 71.10253 0.3324469 59.79451 71.07232 0.3370362 59.83865 71.10714 0.5345439 59.8397 71.10718 0.5690235 59.88608 70.81148 0.3769636 59.79512 71.1279 0.09728678 59.82509 71.08488 0.1729838 59.83859 71.10727 0.09999365 59.49792 70.56451 -0.6286154 59.47863 70.60098 -0.6333474 59.46528 70.57282 -0.6435641 59.10965 70.4793 0.005264875 59.10106 70.48349 0.001539943 59.10396 70.47459 0.00184941 59.10473 70.47983 0.236903 59.10473 70.47982 0.2170786 59.46285 70.58559 0.1275212 59.09813 70.48088 -0.1758256 59.10237 70.47733 0.2253477 59.19697 70.76967 -0.006988385 59.10362 70.47284 -0.146916 59.10473 70.47984 -0.2483441 59.4963 70.5763 -0.444424 59.47769 70.59344 -0.4142667 59.4738 70.55952 -0.4283674 60.16827 70.24317 0.07466934 60.16623 70.25048 0.080981 60.16217 70.24165 0.08067785 60.16587 70.24471 0.3847089 59.78981 69.92101 0.03436008 60.16559 70.24515 0.3392284 60.31578 70.63371 0.06493155 60.16499 70.24496 0.3838142 60.59813 69.94129 0.05423733 60.16574 70.24514 -0.1832581 60.16396 70.24665 -0.2169356 60.16572 70.2452 -0.2250017 59.49742 70.59399 -0.687544 59.46724 70.59088 -0.6903319 59.48261 70.55968 -0.6729182 59.37112 70.97873 -0.007049164 59.36137 70.97913 -0.008684461 59.36762 70.97254 -0.004530862 59.36602 70.97694 0.1644345 59.36527 70.97708 0.2279671 59.58007 70.98538 -0.01330014 59.24021 71.36989 0.02848388 59.36297 70.97881 0.2569116 59.3613 70.97739 -0.2558737 59.31596 70.62123 -0.09512057 59.36602 70.97694 -0.1940865 59.36601 70.97696 -0.193678 59.50209 70.58574 -0.2975032 59.47063 70.59581 -0.2978923 59.48226 70.56122 -0.3156638 59.39494 70.30086 0.09569537 59.38977 70.30674 0.09808711 59.38488 70.30057 0.09353485 59.38604 70.30414 0.3163892 59.38874 70.29659 0.2690417 59.392 70.30505 0.3220477 59.63093 69.98882 -0.02546147 59.39156 70.30856 -0.1154958 59.38955 70.30222 -0.1266241 59.41437 70.32612 -0.1094251 59.49517 70.59466 -0.2328004 59.46183 70.58402 -0.2173533 59.49332 70.55918 -0.2254797 59.82933 70.74059 0.4802356 59.82116 70.73745 0.4841038 59.82734 70.73092 0.4828218 59.82749 70.73762 0.8291183 59.82359 70.73398 0.8255195 60.26565 70.82304 0.4652594 59.82982 70.73548 0.8310629 59.82698 70.73541 0.1538356 59.43383 70.8677 0.4321435 59.82488 70.73112 0.3539668 59.82598 70.73627 0.1954756 59.50043 70.57153 -0.589478 59.47917 70.60113 -0.6068643 59.46935 70.56352 -0.6052198 58.86439 70.79111 0.3374039 58.85876 70.79663 0.3332346 58.85589 70.78734 0.3334047 58.85966 70.79158 0.571461 58.86119 70.79189 0.606112 58.86052 70.79059 0.6193288 59.21971 71.02385 0.2687382 58.94335 70.30632 0.2922475 58.46173 70.85546 0.3214947 58.85975 70.79074 0.05819613 58.85993 70.79191 0.07852395 58.85967 70.79159 0.1324509 59.48505 70.59926 -0.5720212 59.46831 70.56383 -0.5816966 59.49767 70.56651 -0.5887549 59.67614 70.30433 -0.02110996 59.66828 70.30896 -0.017048 59.66975 70.30017 -0.02100095 59.67117 70.30509 0.230605 59.67115 70.30509 0.2365383 59.64434 70.3153 0.2364906 59.54529 69.99697 0.01621533 60.03654 70.41459 0.0408805 59.44751 70.65887 -0.1269937 59.67069 70.30266 -0.3131268 59.67586 70.30454 -0.3267724 59.6712 70.30512 -0.2505832 51.58195 70.17186 -1.070488 51.66023 70.21984 -1.07328 51.56308 70.25086 -1.072484 51.61857 70.25657 0.5178507 51.64908 70.25652 0.5174148 51.63022 70.28266 0.5169624 51.61115 70.2254 0.0349692 51.63416 70.2365 0.009341485 51.6085 70.25768 0.03226135 52.17759 70.3264 0.5355933 52.18155 70.33323 0.5304014 52.17457 70.33462 0.5373247 52.178 70.33149 0.7696833 52.17846 70.33242 0.7785657 52.21805 70.23611 0.5544965 51.86933 70.21685 0.5769371 52.17812 70.3318 0.3091292 52.1777 70.33131 0.3204283 52.17837 70.3402 0.4710414 51.61887 70.21866 -0.03212019 51.63639 70.25254 -0.03201477 51.60453 70.25271 -0.04770924 51.31441 70.39128 0.5365524 51.32237 70.39124 0.5404807 51.31878 70.39976 0.5365916 51.31858 70.39417 0.7855743 51.32134 70.39583 0.8310947 51.31821 70.39428 0.8379019 51.17359 70.87822 0.6077129 51.42248 69.92482 0.6431178 50.82162 70.31374 0.5014989 51.31798 70.3953 0.2359395 51.31827 70.39406 0.26961 51.67391 70.46188 0.1432527 51.59987 70.23168 -0.3581234 51.63112 70.22489 -0.3639599 51.62935 70.25882 -0.3501727 51.72376 69.80079 0.6598531 51.73259 69.80216 0.659521 51.72767 69.80952 0.662987 51.72864 69.80552 0.9823518 51.72175 69.80638 0.9872669 51.72793 69.80421 0.91976 51.82786 69.35766 0.6681188 51.29289 69.8899 0.6146174 51.97639 69.84134 0.5392256 51.72795 69.80421 0.4263468 51.72805 69.80406 0.4115936 51.60984 70.22299 0.03907567 51.64055 70.24517 0.03006578 51.60115 70.25103 0.03332853 51.74088 70.48174 0.9975472 51.74437 70.48962 0.9952435 51.73489 70.48976 0.9963287 51.73996 70.48702 1.235893 51.73852 70.4946 1.301096 51.728 70.20756 1.201461 51.74039 70.48693 1.281396 51.98249 70.71282 0.9165576 51.31605 70.57615 0.9024251 51.73995 70.48704 0.6942248 51.73544 70.48089 0.7361557 51.74027 70.4867 0.7161908 51.62182 70.22164 0.02077917 51.62348 70.2549 0.04608864 51.60722 70.25035 0.01645004 50.96005 69.96292 0.4039114 50.96328 69.96667 0.4117764 50.95774 69.97183 0.4061991 50.9565 69.96944 0.6869122 50.96035 69.96709 0.6941964 50.96035 69.96714 0.7678333 51.23832 70.05934 0.7008294 50.82471 69.50264 0.3925659 50.66365 70.23096 0.1245483 51.37511 70.02736 0.2068999 50.96036 69.96733 0.09634306 50.96031 69.96714 0.1088861 50.96029 69.96707 0.1339929 51.61848 70.21859 -0.3206192 51.63601 70.25249 -0.3221397 51.60522 70.2529 -0.3044898 52.15797 69.9992 0.5713305 52.16286 70.00468 0.5699241 52.15538 70.00808 0.5750158 52.15837 70.00445 0.8811594 52.13769 69.99829 0.7801403 52.15825 70.00277 0.8802709 52.56557 70.00673 0.5256983 52.07407 70.41431 0.5915424 52.15845 70.00468 0.2842989 52.15816 70.00436 0.2773888 52.15306 70.00699 0.3193215 51.62032 70.21966 -0.1396435 51.63723 70.2526 -0.1487075 51.60224 70.25166 -0.1558233 51.41736 70.60545 0.7545273 51.41711 70.61399 0.7512121 51.40961 70.61088 0.7507947 51.41463 70.60948 1.00268 51.41463 70.60944 1.003529 51.33999 71.04821 0.8204129 51.42198 70.60636 1.0787 51.42604 70.60525 0.5748008 51.03561 70.53672 0.7501781 51.45601 70.36405 0.6468142 51.41405 70.60974 0.4564974 51.62168 70.22286 -0.273355 51.63884 70.2484 -0.2556704 51.59895 70.25086 -0.2611657 51.45641 69.6931 0.6203948 51.45983 69.70098 0.6255223 51.45113 69.70032 0.6236271 51.45531 69.70058 0.9194383 51.45585 69.69805 0.842777 51.14285 69.63459 0.628591 51.72083 69.82666 0.5970369 51.45869 69.69283 0.749834 51.45577 69.69909 0.3711338 51.45786 69.69293 0.3395488 51.4559 69.69801 0.4179142 51.60632 70.23828 -0.04251689 51.6343 70.22683 -0.06833519 51.61847 70.25871 -0.071424 52.10295 70.51761 0.3211242 52.108 70.52055 0.3130279 52.10245 70.52536 0.3163876 52.10649 70.52393 0.6010177 52.10556 70.52002 0.6269465 51.86794 70.78708 0.2854939 52.03008 70.47769 0.6972155 52.42442 70.51705 0.2164888 52.10464 70.52091 0.02974329 52.10118 70.51374 0.01143872 52.10457 70.52055 0.009917843 58.70669 71.38376 -1.48214 58.62122 71.41585 -1.485158 58.65625 71.3207 -1.484298 58.61787 71.36073 0.2346124 58.59927 71.3847 0.2341411 58.59028 71.35393 0.2336522 58.63972 71.38299 -0.3749593 58.6121 71.37221 -0.4028743 58.64347 71.35554 -0.3864425 58.03016 70.97687 0.4479847 58.02304 70.97547 0.4415288 58.02858 70.96855 0.4423123 58.03721 70.9594 0.3492264 58.02734 70.97362 0.6840664 58.39613 71.01013 0.3472176 58.03654 70.97806 0.74574 57.72299 71.1252 0.4040603 58.02632 70.97359 0.1921603 58.02733 70.97358 0.2120066 58.02734 70.97362 0.1854635 58.64644 71.36341 -0.5117963 58.62972 71.39286 -0.5004596 58.61299 71.35694 -0.4942558 58.94076 71.32997 0.1310323 58.9326 71.32531 0.135035 58.94006 71.32193 0.1307874 58.93703 71.3259 0.4765632 58.94125 71.32544 0.5191917 58.93727 71.32606 0.4536617 58.53917 71.41537 0.1251858 58.94418 71.32301 -0.1026511 59.08707 71.66877 0.08173825 58.7945 70.95096 -0.01499983 58.93726 71.32607 -0.2141637 58.93726 71.32607 -0.2141148 58.63963 71.3886 -0.4995583 58.6105 71.3752 -0.5037766 58.63911 71.35691 -0.4803849 58.38775 71.72967 0.1482756 58.38053 71.73065 0.1446042 58.38043 71.72273 0.1494095 58.38276 71.72698 0.441337 58.38296 71.72709 0.3969028 58.18459 71.31791 0.1578087 58.38383 71.72746 0.447344 58.08738 71.9078 0.1112511 58.73541 71.43875 0.1235188 58.61344 72.0503 0.03261464 58.38297 71.72709 -0.1136319 58.38442 71.72765 -0.09104961 58.38304 71.72748 -0.1336842 58.64752 71.38144 -0.2943694 58.60768 71.37764 -0.2977471 58.63355 71.35333 -0.3119996 58.60695 70.77481 0.7861197 58.59841 70.77278 0.7846469 58.6045 70.76642 0.7809117 58.60338 70.77128 1.013322 58.60339 70.77128 1.022609 58.60229 70.77226 1.067381 58.22339 71.02759 0.7487427 58.95193 71.04474 0.8785695 58.67237 70.30472 0.8751963 58.28293 70.50195 0.6400869 58.6067 70.76854 0.5185399 58.60344 70.77228 0.4923015 58.60337 70.7713 0.5448413 58.64834 71.3612 -0.630561 58.6231 71.39241 -0.6316297 58.61624 71.35872 -0.6146106 59.12801 71.80821 0.5502476 59.1191 71.81072 0.553341 59.12477 71.80257 0.5540651 59.12333 71.80744 0.8526673 58.94669 71.40945 0.5446236 59.12339 71.80745 0.8416163 59.1229 71.80904 0.9312095 59.52017 71.73472 0.612277 59.05898 72.25008 0.4542145 59.12333 71.80749 0.2286848 59.12374 71.80714 0.230866 59.12333 71.80745 0.2714156 58.64527 71.37369 -0.4441509 58.61977 71.38799 -0.4673131 58.61763 71.35578 -0.4691965 58.07191 71.36914 0.2253838 58.06955 71.3788 0.2232164 58.06553 71.37269 0.2195855 58.06366 71.36821 0.6134429 58.0695 71.37334 0.5030183 58.07562 71.37989 0.5682664 57.68937 71.31628 0.2453949 58.39546 71.29937 0.2471887 58.06782 71.37217 -0.1245359 57.8418 71.62917 -0.02654564 58.08498 71.37057 -0.1087012 58.64635 71.36117 -0.3635128 58.62816 71.39282 -0.3460303 58.61293 71.3584 -0.3510953 58.90154 71.15354 0.3884672 58.89641 71.15971 0.3924981 58.8922 71.15127 0.3914631 58.89979 71.15374 0.5592118 58.88933 71.17178 0.3693531 58.8907 71.15897 0.2985128 58.90816 71.15434 0.2964029 58.65024 71.37451 -0.6721705 58.61581 71.38454 -0.679966 58.63038 71.35262 -0.6583033 58.60823 71.93571 0.2786513 58.6023 71.94192 0.274364 58.59963 71.93369 0.2797284 58.60331 71.93716 0.4767828 58.60331 71.93716 0.5517569 58.45443 71.58656 0.3048489 58.93505 72.05356 0.3132792 58.60331 71.94047 0.5455502 58.20253 72.19898 0.2418487 58.6033 71.93708 0.04675867 58.6067 71.93822 -0.002864481 58.60331 71.9372 0.04569778 58.63693 71.38109 -0.3674791 58.61014 71.37906 -0.3920152 58.64128 71.35393 -0.395035 58.23184 70.8202 0.1547048 58.2251 70.81845 0.1471024 58.2325 70.81355 0.1476047 58.22771 70.81443 0.4881503 58.23246 70.82232 0.3697017 58.22684 70.81993 0.4043733 57.8758 70.45508 0.1406013 58.61058 70.66817 0.1115167 58.2335 70.82187 -0.09297253 58.22731 70.81714 -0.1377988 58.22185 70.8121 -0.1653335</float_array>
          <technique_common>
            <accessor source="#positions-array" count="405" stride="3">
              <param name="X" type="float" />
              <param name="Y" type="float" />
              <param name="Z" type="float" />
            </accessor>
          </technique_common>
        </source>
        <source id="normals">
          <float_array id="normals-array" count="1404">0.669455 0.7406937 0.05659399 -0.8632297 -0.5036739 -0.03387007 0.87684 -0.479363 0.03691586 0.7095674 0.6947376 0.1177018 -0.7525764 0.6329411 0.1816983 0.2508063 -0.9472845 -0.1993695 -0.2439924 0.9640301 -0.105421 0.568758 -0.4380528 -0.6961495 -0.7453851 -0.2587309 0.6143773 0.09121572 0.7545483 0.6498743 -0.6879055 -0.7248261 0.03759311 -0.4439158 0.8314129 -0.3342025 -0.7957621 -0.2726599 0.5407581 0.9843083 0.173884 -0.03002405 -0.9817776 -0.1842373 0.04657553 -0.8680229 -0.4064209 -0.2852338 0.7317899 0.4530577 0.5091388 -0.7800199 0.5042272 -0.3705724 -0.8175738 -0.2839895 -0.5009221 -0.01907132 -0.6076877 -0.7939471 -0.5520248 -0.2071451 0.8076878 -0.9552282 0.2957021 0.009969963 0.9251399 -0.3689327 0.08947004 0.6560913 0.5898354 -0.470785 -0.6449425 -0.229087 0.7290873 -0.1439298 -0.9150606 -0.3767602 0.0007489043 0.6846565 -0.7288655 -0.698188 -0.2744821 -0.6612058 0.7706496 -0.555333 -0.3125772 -0.5970725 -0.255209 0.7605082 -0.5725805 -0.8198232 -0.006447637 0.812907 -0.5158015 0.2704274 -0.04291911 0.8652533 -0.4994944 0.867304 -0.3427853 0.3609459 -0.9856636 0.1648716 -0.03584059 -0.5495836 0.5415347 -0.6361589 -0.5681017 -0.425584 -0.7043712 -0.95125 -0.3082375 -0.0106346 -0.9429966 -0.3282049 -0.05512683 0.9523646 0.1410001 -0.2704082 -0.5929706 -0.584315 0.5540414 0.9370155 0.03746753 0.3472723 -0.6242248 0.2897125 0.7255413 -0.04814687 0.9987849 0.01051556 0.7356677 0.4372823 0.5172786 0.134521 -0.8499552 -0.5093921 0.823716 -0.5415689 -0.1679141 0.1866617 -0.9816788 -0.03826447 0.9676928 0.2516899 0.01492725 -0.8314093 -0.5512317 -0.07001532 0.796936 0.6035616 0.02462715 -0.3216531 0.9458877 -0.04284659 -0.6020287 -0.6579957 0.4523307 0.8930832 -0.2779212 -0.3537828 -0.2025752 0.9792452 -0.006487455 -0.04065316 -0.9607314 -0.2744857 0.3288663 0.9443642 -0.004819062 -0.06416875 -0.9334095 0.3530286 0.311158 0.9502806 -0.01214378 0.678195 0.6675796 0.3072279 -0.7886475 0.2331265 -0.5689352 0.09787158 -0.9517321 0.2909075 0.5256999 -0.8502392 -0.02707465 -0.5323467 0.8463714 0.01620131 -0.08559798 -0.9911724 -0.1012436 0.5619474 0.5268291 -0.6377039 -0.7567827 0.2720059 -0.5943844 0.1668157 -0.8862725 -0.4320804 -0.6069219 0.2583859 0.7515867 0.2163665 -0.7975058 0.5631785 0.5246377 -0.8501715 0.04431332 0.1614977 0.9868511 0.006583803 -0.1532298 -0.9881265 0.01125154 0.577374 0.7861165 0.2205902 -0.9418395 -0.2556287 0.2181566 -0.01834936 -0.9073125 -0.4200563 0.03245812 0.5618859 -0.8265777 -0.2282418 -0.6035229 -0.7639803 -0.6078937 0.6920827 0.3892131 0.9352503 -0.002266319 0.3539799 0.8157381 0.2348769 0.528587 -0.4278533 -0.5270646 0.7342645 0.1821694 0.9829554 0.02475949 -0.994016 0.1089202 -0.008283327 0.4038179 -0.9142707 0.03225071 -0.9838013 0.1479808 0.1011762 -0.3869305 -0.9078368 -0.1616081 0.9883699 0.1501798 -0.02389275 0.2098369 0.7364951 -0.6430735 0.3081812 -0.9512793 0.009595735 -0.7111043 -0.281496 -0.6442753 0.988207 -0.1530131 -0.005817687 0.9816288 -0.1810389 0.06024856 0.4509682 -0.4683313 0.7597983 0.3135263 -0.9495794 0.0004968 0.1812502 0.8005748 -0.5711641 -0.3956697 -0.681558 0.6155682 0.7056064 -0.6902149 0.1603839 0.9364762 -0.09203424 -0.3384407 0.5111921 -0.8589594 0.02951975 0.9235546 0.284921 -0.2566454 -0.6351282 -0.752089 -0.1759952 0.9091223 0.3529884 0.2211241 0.4089064 0.8887652 0.207104 0.2901412 0.8952269 0.3382112 -0.1418577 -0.9637232 -0.2260842 0.5391181 -0.8127269 0.2209674 -0.3190656 0.9376195 -0.1380829 0.2833875 -0.9590053 0.0005941795 -0.9633817 0.1219663 -0.2387885 -0.2907258 0.9567246 -0.01251032 0.9483187 -0.3170602 -0.01282771 0.8320031 0.5547573 -0.003891235 0.5257905 0.8370426 -0.1513406 -0.5033577 0.2024708 0.8400218 0.1141774 -0.762327 -0.6370408 0.4254358 -0.6668684 -0.6117932 -0.6506055 0.7593962 -0.00547595 0.5767766 0.8168901 0.004395162 0.7389047 -0.5613034 0.3727712 -0.03490822 0.6353928 0.7713996 -0.9331044 0.3596039 0.001084191 0.1159149 0.8736996 -0.4724539 -0.9120389 -0.4008439 0.08665587 -0.7745048 -0.5890374 0.2306021 0.9126598 -0.2592553 0.3159728 -0.9841884 0.1597809 0.07644114 -0.003307806 -0.9987164 0.05054374 0.236197 0.7612301 0.6039368 -0.8350363 0.5114426 0.2028322 -0.9357425 -0.1508644 -0.3187882 0.6992172 0.6980252 -0.1544544 0.6101037 -0.7923215 -0.0003239683 0.782011 0.4702797 -0.4090181 -0.4966183 -0.1043583 0.8616725 -0.3651226 0.9308121 -0.0165625 -0.4937464 -0.7626828 0.4177672 0.907783 -0.1297108 -0.3988798 -0.2150493 0.9763437 -0.02251107 0.7010883 -0.04924613 -0.7113719 -0.2879399 -0.7953236 -0.5334332 -0.2086533 0.9778095 0.01877 0.3354089 0.9414974 0.03291569 0.5899238 0.7745298 0.22824 -0.8019623 0.1845726 -0.5681456 0.2268551 -0.9012443 0.3691822 0.5442399 0.439267 0.7147359 -0.8553264 0.2859936 0.4320005 0.4698641 -0.7358545 -0.487592 0.9100785 0.4020896 -0.1004048 0.9248677 -0.380273 0.003488274 -0.5049995 0.6289468 -0.5911018 0.8920461 0.03428286 -0.4506422 -0.1296954 -0.7546935 -0.6431305 0.2695406 -0.9626967 0.02372447 -0.8404084 -0.5412244 0.0281049 -0.00108368 -0.9985789 0.05328206 0.3037402 0.9522212 -0.03188422 -0.9722666 -0.2312792 0.03475186 0.5641679 -0.6814715 -0.4661666 0.2865446 0.841876 -0.457315 -0.6663318 0.007918318 0.7456134 -0.9295694 0.3685227 0.009574301 -0.9311813 -0.3643651 -0.01180554 0.3636056 -0.9312522 -0.02366822 -0.02656304 0.9243825 0.380541 0.8646444 0.4994645 0.05408622 0.3857222 -0.9211091 0.05269195 -0.1183843 -0.9659997 0.229847 0.8090478 0.4896135 0.3251465 0.1016025 0.9753702 -0.1957803 -0.8246977 -0.4824952 -0.2950799 -0.1444829 0.9891305 -0.02730386 0.5621453 -0.1994944 -0.8026174 -0.7795823 -0.4435384 -0.4421824 0.4786201 -0.4412666 0.7590827 0.2393108 0.6366631 0.7330692 -0.2606518 -0.9000475 -0.3492493 0.852034 0.5041667 0.1409045 -0.6837669 0.6401541 0.3502365 0.973793 0.2268799 -0.01589412 -0.154924 -0.9869938 -0.04291597 0.6058285 0.5512672 -0.5736517 -0.8689955 0.1404042 -0.4744823 -0.08422717 -0.988321 -0.126994 -0.03012112 -0.9421642 0.3337953 -0.9753074 -0.2208001 -0.00477074 -0.01394977 0.9696521 -0.2440904 -0.9475466 -0.2536462 0.1944712 -0.7415944 0.6642978 -0.09352071 0.691965 0.2139657 -0.6894948 -0.8665903 0.1724356 -0.468281 0.369711 0.7985538 0.4750006 -0.7619976 0.563619 0.3188939 -0.6988553 0.714209 0.03881789 0.2815091 0.9445842 0.1688589 0.463081 -0.8585549 0.2200896 0.03667603 0.7515935 0.6586061 -0.5369493 0.07644008 -0.8401443 0.2825645 -0.8050824 -0.5215358 -0.7110441 0.6610253 -0.239712 -0.273657 -0.9617324 -0.01351539 0.8924707 0.03177426 -0.449985 0.6648832 0.7468151 0.01405174 0.6646119 0.7471838 0.002701418 -0.2207069 0.5228475 0.8233584 -0.14497 0.9894141 0.006587638 0.5747825 -0.6432182 -0.5058611 0.1237556 0.9732628 0.1935045 -0.7975875 -0.4800118 0.3652982 -0.6018628 0.4074347 -0.6868465 -0.04120529 0.9984949 -0.0361935 -0.008662947 0.99979 0.0185741 0.9749078 0.1049393 0.1963224 0.04849918 0.9309249 -0.3619759 -0.8723949 -0.4887314 0.008287487 0.2279623 -0.971686 -0.06212402 -0.982393 -0.1866755 -0.007501545 -0.9920514 -0.1255963 -0.007713883 0.4147228 0.6004413 0.6837217 0.8623962 -0.4891357 -0.1304575 -0.01975882 0.8510672 0.5246849 -0.8162305 -0.419401 -0.3973293 -0.1631408 0.9854192 -0.0483127 -0.4830472 0.8732659 -0.06381272 0.3191536 -0.9351671 0.1536339 -0.1815423 0.9833829 0.0006019316 -0.4487197 0.8934023 0.02197723 0.51926 -0.8545152 0.01314268 0.1782516 0.6927616 -0.6987902 -0.6187084 0.7402353 0.2631571 -0.1867203 -0.8192918 -0.5421221 -0.4435925 -0.8242051 -0.3520108 -0.0408285 0.9980021 0.04821715 -0.3172462 -0.7884515 0.5269717 -0.7400716 -0.6723648 0.01481914 0.6624167 -0.1669706 0.730291 0.5230465 -0.8519854 0.0233071 0.8111158 0.5848336 -0.007797186 -0.9122425 0.4085241 0.03035962 0.2954419 -0.9444863 -0.1437347 0.02253497 0.9842744 -0.175203 -0.5788685 -0.3657954 0.7287695 -0.07638577 0.9110701 -0.405113 -0.9393011 -0.3425527 0.0192625 0.7615824 -0.3953376 0.5135177 -0.7777428 0.4035666 -0.4819234 0.1580275 -0.9874298 0.003127711 -0.9060952 -0.02603 -0.4222724 0.4592188 0.4255283 -0.7797716 -0.8895352 -0.008700936 -0.4567837 0.1478856 0.6358296 0.7575292 0.3050815 -0.5219819 0.7965301 -0.1424306 0.9890925 0.03754433 0.1268696 -0.9122948 -0.3893871 0.9947031 0.07871373 -0.0661056 -0.914513 0.3204487 0.2469384 -0.9814601 -0.1721188 -0.08432795 0.4433321 0.5190605 0.7307755 -0.4302383 0.3534663 0.8306362 0.6050617 -0.7856005 0.1293528 0.9148909 -0.4036829 0.003833818 0.1217803 0.9593147 -0.2547252 -0.7923826 -0.5529602 0.2576138 -0.9889398 0.07967362 -0.1251004 0.6757624 -0.7370767 -0.007939189 0.1929944 -0.9008821 -0.3887988 0.1444313 -0.7687107 0.6230758 -0.6916206 0.7219457 0.02134061 0.576325 -0.5129227 0.6362074 -0.3643592 0.9295086 0.05706279 -0.3766503 -0.3225546 -0.8683853 0.8887216 0.03721467 -0.4569343 -0.1704039 0.5712124 -0.802919 -0.3149568 0.9491058 -0.0005937056 0.3055004 -0.9512814 -0.04163089 0.3181516 0.3885813 0.8647451 -0.199682 -0.3236867 0.9248535 0.7340729 -0.404049 -0.5457851 0.4168432 0.9089565 0.006315408 -0.822916 -0.4054662 0.3980031 0.9773819 0.05714971 -0.2036135 -0.5449604 -0.5557284 -0.6278408 0.9852996 0.1669951 0.03601885 -0.4056124 -0.6004493 0.6891583 -0.9697782 -0.2384694 0.05159975 0.9868238 0.1159364 0.1128605 0.0311643 0.9976489 -0.06103589 0.8692663 -0.3505593 0.348546 -0.3301541 0.8514329 -0.4075049 -0.6223228 -0.760165 0.1867179 -0.9857103 -0.1684395 -0.001798066 0.5709294 -0.2315912 -0.787658 0.9873403 0.1305346 -0.09011049 0.2378279 0.8549673 -0.4609433 -0.9673622 -0.2372574 0.08898997 0.6004188 -0.4482308 0.6622586 0.9267019 -0.3732575 -0.04361659 -0.1735666 0.8489148 0.4992176 -0.7860961 -0.4569608 -0.4162208 -0.4607204 0.8869472 -0.03257802 0.3075094 -0.9444378 -0.1160828 -0.454196 0.8909011 0.001130449 0.3541899 -0.9131561 0.2017314 0.3975009 -0.9149828 0.06927817 0.1135983 -0.8567932 0.5029918 0.5416844 0.1896608 -0.8189058 -0.6738211 0.352869 0.6491907 -0.7358144 0.3589912 -0.5741972 -0.206464 -0.9663526 -0.1534123 0.8093564 0.5761103 0.1141889 -0.2402865 -0.8875241 0.3931455 0.7886238 0.6129184 0.04902586 -0.9379394 -0.3455565 -0.02933318 0.7800004 -0.6249617 0.03197185 -0.4508928 0.8865531 0.1035336 -0.5633692 -0.5236662 -0.639053 -0.1730001 -0.8369754 -0.5191754 0.8100939 -0.427198 0.4015591 -0.1400592 0.9890681 -0.04612708 -0.1434217 0.9884038 -0.04988054 0.4606727 0.8866244 -0.04096058 -0.1833079 -0.9527874 -0.2420628 -0.1101555 -0.8762008 0.4691885 0.8136569 0.5813436 0.001438234 -0.3611514 -0.9306353 -0.05905507 0.7650931 0.5580446 -0.3212768 -0.7908256 0.4415328 0.4238438 -0.3472717 -0.9287514 0.1297041 0.3050841 -0.758418 -0.5759564 0.6281175 0.5200476 -0.5788081 -0.9230696 0.3845884 -0.005850792 0.4915518 0.007390004 0.870817 0.9162779 -0.4005433 0 0.2289829 0.9733504 0.01248437 0.9455859 0.1570679 0.2849509 0.2981637 0.887507 -0.3513256 0.6102798 -0.5500047 0.5701346 -0.1844271 0.6256098 -0.7580231 0.5322441 0.8464529 -0.01528611 -0.7571878 -0.2412488 -0.6070138 0.1376538 -0.8170946 -0.5598284 0.2729941 -0.5873469 0.7619041 0.5316382 0.8467725 0.01836174 -0.6562097 -0.7521294 0.06074658 -0.1235497 0.8672618 0.4822783 -0.770695 -0.5534082 -0.3158616 0.9205278 -0.3538601 -0.1655646 -0.6252115 0.7797814 -0.0324288 0.7298181 0.3506386 -0.5868715 -0.09393302 -0.7716703 0.6290481 -0.1827553 0.582915 0.7917137 0.662644 -0.7314948 0.1606807 0.5650864 0.8248717 0.01624837 0.6883075 0.5402436 -0.4841174 0.2060378 -0.9411853 0.2678032 0.8221507 -0.5556879 -0.1236093 -0.9126573 0.4086984 -0.004712856 -0.2866155 0.6514424 -0.7024773 0.9496821 -0.1560645 -0.2715653 -0.6701619 -0.4099537 0.6187253 0.9085021 -0.07718782 0.4106895 -0.8047368 0.5446122 0.2362123 -0.9896061 -0.1438049 -0.0001399601 0.7198423 0.3149503 0.6185736 0.2941092 0.9233985 0.2466476 -0.5900962 0.6625122 -0.4613719 0.172577 -0.984315 -0.03662314 -0.5371383 -0.7711978 -0.341667 -0.08691838 0.992007 -0.09147313 0.5283672 -0.6887976 -0.4963729 0.02402943 0.9862358 -0.1635898 -0.4253308 -0.8820977 -0.2024779 0.02313999 0.9847449 0.1724588 -0.3718429 0.7927468 0.4829962 -0.6058435 -0.6935441 0.3898079 0.8270272 0.5470169 -0.1296091 -0.8323669 0.364596 0.4174149 -0.01743227 -0.9647593 -0.2625559 0.257366 0.9662577 0.01042697 -0.7292533 -0.6837938 -0.02481244 0.7842346 0.5488834 -0.2893148 -0.9347175 -0.3150268 0.1645033 0.7936247 -0.5079555 0.3348747 -0.9168828 0.3986985 -0.0191159 0.9204577 -0.3908421 0 -0.02875655 -0.8819486 -0.4704676 -0.1091722 -0.8234229 -0.5568268 0.9331382 -0.3551475 0.05588689 -0.6349842 0.6458518 0.4238756 -0.2117478 -0.772634 0.5984977 0.57342 0.3137197 0.7568154 -0.4702543 0.7589451 0.4504035 -0.4376758 -0.4486927 -0.7791757 0.8813581 -0.3012332 0.3639594 0.7381073 -0.6726898 -0.05182798 -0.2509287 0.7886259 -0.5613412 -0.3774768 -0.9260191 6.255776e-05 0.7181048 -0.6959008 0.006897311 0.7082568 -0.7055681 -0.02336496 -0.4575317 -0.8684465 0.1909594 0.350733 0.93623 0.02144153 -0.9598248 0.2805084 -0.00717281 0.2383141 -0.9707864 0.02793036 -0.3505038 0.9177644 0.1866965 0.8249835 -0.1184829 0.5525976 0.4736339 0.8788961 0.05668013 -0.1387305 0.985402 0.09867444 0.4350248 0.9001666 -0.0212936 -0.3731051 0.8869918 0.2720994 0.1268148 -0.9844576 -0.121496 0.9059504 -0.06589436 -0.4182247 0.8899012 -0.4523964 -0.05842369 -0.2118262 -0.9772661 -0.00898171 0.9661494 -0.2385701 -0.09818141 -0.9281907 0.3720593 -0.005826059 -0.9342851 0.3500632 0.06757994 0.3701121 -0.6944744 0.617027 -0.2873178 0.7932852 -0.5367933 -0.9548771 -0.145912 -0.258688 -0.6298982 -0.755505 0.1801126 0.9252157 -0.3545715 -0.1351109 -0.5183744 -0.8551416 -0.004562194 0.763187 0.07511325 -0.6417972 0.6595008 0.1665368 0.733024 -0.07581211 0.5764749 0.8135903 -0.5047535 0.02758292 0.8628227 -0.8195982 0.5724194 0.02439077 -0.2793556 0.8392094 0.4665704 -0.7367458 -0.5873527 -0.3349961 0.9697083 -0.226729 -0.090883 -0.9898231 -0.1412409 -0.01735443 -0.4766779 0.1839935 -0.8596072 -0.6169281 0.7870183 0.001354605 0.143878 -0.6816941 -0.7173508 0.5850621 0.2272042 -0.7785117 -0.7927422 0.297049 0.5322797 -0.7241658 0.6644385 0.1846762 0.3909683 -0.1436365 0.9091272 0.1271499 0.9174121 -0.3770782 -0.9088932 0.3199257 0.2675084 -0.7330294 -0.4656565 0.4958145 -0.9100858 0.4142063 -0.01330359 0.1710526 0.9851241 -0.01647611 -0.5457744 -0.6504276 -0.5282748 -0.4489155 0.6680511 0.5934498 0.9900713 0.1402895 0.008816058 -0.7761815 0.08814993 -0.6243171 -0.3092563 -0.923928 -0.2252057 0.3319336 -0.9013684 0.2781279 0.6443306 0.2981664 0.7042264 0.7473627 0.6614533 -0.06267843 -0.8548127 0.3179071 0.410159 0.1313593 -0.9432416 -0.3050247 0.343239 0.8131563 -0.4700678 -0.9648163 0.2208626 -0.1426509 0.2564588 -0.8178917 0.5150553 -0.590449 0.6170602 -0.5201987 0.6711085 0.2026898 -0.7131131 0.3287124 -0.9444248 0.003146893 0.5776721 0.8102457 0.09897954 -0.5826506 0.7345794 0.347723 -0.309455 -0.5469937 -0.7778402 0.8785274 -0.2636367 0.3983533 -0.4210588 -0.9037541 -0.07705884 0.4015542 -0.9158335 0.001800737 0.7124975 -0.7015579 -0.0127953 -0.1883485 0.7379106 0.6480839</float_array>
          <technique_common>
            <accessor source="#normals-array" count="468" stride="3">
              <param name="X" type="float" />
              <param name="Y" type="float" />
              <param name="Z" type="float" />
            </accessor>
          </technique_common>
        </source>
        <source id="uv">
          <float_array id="uv-array" count="2808">23.82354 -0.5752608 23.78013 0.03370283 23.78935 0.03387003 28.21322 -0.5760262 28.22192 0.03352936 28.24911 -0.5763314 28.24227 -0.5752608 28.22663 0.03387003 28.21322 -0.5760262 28.24001 -0.2685231 28.12821 0.2310783 28.12536 0.2304388 28.22876 -0.2700015 28.12821 0.2310783 28.24001 -0.2685231 23.79728 -0.2714653 23.82437 0.2304388 23.82085 0.2304441 23.82238 0.32802 23.65738 0.2117962 23.8222 0.3294618 23.65738 28.07166 23.84655 28.28586 23.82229 28.12609 28.28586 0.231555 28.12589 0.135538 28.01293 0.2392445 23.94763 0.2392445 23.82223 0.1255161 23.65738 0.2117962 23.94763 0.2392445 23.82294 0.135538 23.82223 0.1255161 23.78438 -0.1943189 23.93381 0.1319444 23.79733 -0.2012155 28.23318 -0.1943189 28.44101 0.1329788 28.44412 0.1319444 28.44286 0.2138175 28.44287 0.2276094 28.32459 0.1507854 28.44287 0.2276094 28.43395 0.06919353 28.32459 0.1507854 28.32459 0.1507854 28.43395 0.06919353 28.44291 0.03999746 28.24039 -0.253339 28.19172 0.00210595 28.2258 -0.2514462 28.22913 -0.2574256 28.1934 0.0006159772 28.24039 -0.253339 28.22913 -0.2574256 28.18984 0.0007397641 28.1934 0.0006159772 23.64189 28.19193 23.67879 28.30787 23.78514 28.23424 23.78514 28.23424 23.67879 28.30787 23.64145 28.18914 28.30787 -0.002795354 28.19193 -0.09933765 28.18914 -0.05876639 28.30787 -0.002795354 28.19235 -0.07033026 28.19193 -0.09933765 28.23052 -0.1777696 28.10019 0.0323924 28.09727 0.02986774 23.78952 28.22381 24.06487 28.09666 23.79108 28.23738 23.78952 -0.171347 24.06731 0.02986774 24.06487 0.03227114 24.06623 28.09806 24.23925 27.97651 23.91592 27.9684 28.25348 0.02597262 27.97651 0.02169493 28.09788 0.1538835 28.09798 0.1535257 27.9684 0.01374403 28.25348 0.02597262 24.23925 27.97651 24.12631 28.25348 24.0663 28.09806 24.23925 0.02169493 24.0663 -0.07330325 24.06558 -0.08677424 28.25348 0.02597262 28.09866 -0.08677424 28.09808 -0.09000067 23.7869 -0.2761328 23.74455 -0.003473784 23.79897 -0.2750176 28.22387 -0.2691673 28.39149 -0.002819666 28.38901 -0.001812345 28.39078 0.06577379 28.24849 -0.03804823 28.39153 0.1027647 23.74641 28.39078 23.83203 28.39415 23.72638 28.24849 23.74641 28.39078 23.69609 28.54796 23.83203 28.39415 28.39078 0.06577379 28.39083 0.09118683 28.54796 0.01139355 28.39083 0.09118683 28.39153 0.1027647 28.54796 0.01139355 28.39153 0.1027647 28.24849 -0.03804823 28.54796 0.01139355 28.54796 0.01139355 28.39096 -0.1023495 28.39415 -0.005320055 28.24849 -0.03804823 28.39096 -0.1023495 28.54796 0.01139355 23.83203 28.39415 23.74641 28.39078 23.72638 28.24849 23.83203 -0.005320055 23.74452 -0.1023495 23.7464 -0.0774712 28.2343 -0.1190013 28.1227 0.03923484 28.12035 0.03827815 23.79291 -0.1262655 23.75798 0.03827815 23.75395 0.03741394 28.2343 -0.1190013 28.12035 0.03827815 28.22449 -0.1262655 23.75442 0.1265557 23.76575 -0.04377006 23.7568 0.1288191 28.12166 0.1265557 28.11864 0.1076167 28.12342 -0.04619831 28.12202 0.1288191 28.13045 -0.04377006 27.99553 -0.01018459 28.11864 0.1076167 27.99553 -0.01018459 28.12342 -0.04619831 23.78473 -0.08694133 23.93173 0.1920942 23.79807 -0.09312018 23.78473 -0.08694133 23.93094 0.1931287 23.92847 0.1936415 28.22367 -0.09019188 28.29624 0.1920942 28.29237 0.1931287 24.10626 0.1861038 23.92995 0.1415867 23.92943 0.3302078 23.931 0.3316473 23.77353 0.1728574 24.10626 0.1861038 23.92995 0.1415867 23.77353 0.1728574 23.92943 0.3302078 24.10626 0.1861038 23.77353 0.1728574 23.93079 0.06153423 23.77353 0.1728574 23.93039 0.07819023 23.93079 0.06153423 28.24045 -0.2427457 28.31645 0.1349616 28.22861 -0.2357912 28.24045 -0.2427457 28.31493 0.1333619 28.31865 0.1332939 23.80017 -0.2357912 23.54236 0.1333619 23.78774 -0.2420879 23.54386 0.2285844 23.68789 0.1074953 23.54421 0.2477315 23.54386 0.2285844 23.54448 0.2424448 23.68789 0.1074953 23.54448 0.2424448 23.54421 0.2477315 23.38469 0.1285979 23.54421 28.31624 23.57734 28.12253 23.38469 28.34218 28.40954 0.1074953 28.12253 0.116899 28.31624 0.2477315 23.38469 0.1285979 23.68789 0.1074953 23.54448 0.2424448 23.57734 28.12253 23.68789 28.40954 23.5439 28.31629 23.38469 0.1285979 23.54397 0.03140958 23.68789 0.1074953 23.68789 0.1074953 23.54397 0.03140958 23.5439 0.02327845 23.38469 0.1285979 23.54387 0.05298036 23.54397 0.03140958 23.38469 0.1285979 23.5439 0.02327845 23.54387 0.05298036 23.79402 -0.2288085 23.86731 -0.006819202 23.87045 -0.008443985 28.22553 -0.2326786 28.12007 -0.008400382 28.12358 -0.006819202 23.79907 -0.235502 23.8679 -0.008400382 23.78733 -0.2326786 23.86847 28.12203 23.81812 27.99879 23.85774 28.12612 23.86846 28.12204 23.85774 28.12612 24.01461 28.16584 24.01461 0.0163522 23.87034 -0.130709 23.81812 0.006486133 28.12182 -0.130709 28.12106 -0.1252507 27.99879 0.006486133 27.99879 0.006486133 28.12106 -0.1252507 28.26355 -0.05079748 23.779 28.26355 23.86848 28.12205 24.01461 28.16584 23.82354 -0.5752608 23.78677 -0.5763314 23.78013 0.03370283 28.24911 -0.5763314 28.22192 0.03352936 28.23497 0.03370283 23.8077 -0.5760262 23.78935 0.03387003 23.7787 0.03352936 28.22876 -0.2700015 28.12443 0.2304441 28.12821 0.2310783 23.78507 -0.2700015 23.79728 -0.2714653 23.82085 0.2304441 28.22382 -0.2714653 28.24001 -0.2685231 28.12536 0.2304388 23.82238 0.32802 23.94763 0.2392445 23.65738 0.2117962 23.82229 0.3122683 23.8222 0.3294618 23.65738 0.2117962 28.12613 0.32802 28.28586 0.231555 28.01293 0.2392445 28.12613 0.32802 28.12609 0.3122683 28.28586 0.231555 28.12589 0.135538 28.28586 0.231555 28.12605 0.1474794 23.84655 28.28586 23.65738 28.07166 23.82224 28.12605 23.65738 0.2117962 23.82223 0.1255161 23.82224 0.1474794 23.79733 -0.2012155 23.93381 0.1319444 23.93768 0.1312779 23.78438 -0.1943189 23.7984 -0.1947942 23.93558 0.1329788 28.22461 -0.1947942 28.44277 0.1312779 28.44101 0.1329788 28.22461 -0.1947942 28.23733 -0.2012155 28.44277 0.1312779 23.93588 0.2276094 23.9178 0.1348145 23.93004 0.06919353 28.42893 0.1348145 28.44286 0.2138175 28.32459 0.1507854 23.93004 0.06919353 23.9178 0.1348145 23.91805 0.03891471 28.42893 0.1348145 28.32459 0.1507854 28.44291 0.03999746 23.91805 0.03891471 23.9178 0.1348145 23.93544 0.03999746 23.79145 -0.253339 23.64042 0.0006159772 23.64386 0.00210595 23.78611 -0.2574256 23.79917 -0.2514462 23.64158 0.0007397641 23.79917 -0.2514462 23.64386 0.00210595 23.64158 0.0007397641 23.64189 0.09476121 23.78514 0.05100849 23.64095 0.09013908 23.64189 0.09476121 23.64189 0.08683145 23.78514 0.05100849 28.19193 0.08683145 28.19093 0.09013908 28.30787 -0.002795354 23.78514 0.05100849 23.64145 -0.05876639 23.64095 0.09013908 28.19093 0.09013908 28.19235 -0.07033026 28.30787 -0.002795354 28.19093 0.09013908 28.18914 -0.05876639 28.19235 -0.07033026 23.79852 -0.1777696 23.79108 -0.1657067 24.06649 0.0323924 23.79108 28.23738 24.06487 28.09666 24.06649 28.10019 23.78952 -0.171347 23.79852 -0.1777696 24.06731 0.02986774 24.066 0.1535257 24.12631 0.02597262 24.06635 0.1538835 24.066 0.1535257 24.06623 0.1356914 23.91592 0.01374403 24.06623 0.1356914 24.06635 0.1538835 24.23925 0.02169493 27.9684 0.01374403 28.09866 -0.08677424 28.25348 0.02597262 23.91592 27.9684 24.23925 27.97651 24.06558 28.09866 28.25348 0.02597262 28.09808 -0.09000067 28.09806 -0.07330325 23.79897 -0.2750176 23.74455 -0.003473784 23.74845 -0.002819666 28.23635 -0.2761328 28.22387 -0.2691673 28.39165 -0.003473784 28.22387 -0.2691673 28.38901 -0.001812345 28.39165 -0.003473784 28.22387 -0.2691673 28.2376 -0.2750176 28.39149 -0.002819666 28.39096 -0.1023495 28.24849 -0.03804823 28.39078 -0.07763459 23.83203 -0.005320055 23.7464 -0.0774712 23.74641 -0.07763459 23.80084 -0.1190013 23.78825 -0.1191569 23.75591 0.03923484 28.23832 -0.1191569 28.12023 0.03741394 28.1227 0.03923484 28.23832 -0.1191569 28.22449 -0.1262655 28.12023 0.03741394 28.12202 0.1288191 27.99553 -0.01018459 28.11864 0.1076167 23.75442 0.1265557 23.75662 -0.04619831 23.76575 -0.04377006 28.12342 -0.04619831 27.99553 -0.01018459 28.12089 -0.05064965 23.85237 27.99553 23.76575 28.13045 23.75582 28.12089 23.78473 -0.08694133 23.92847 0.1936415 23.93173 0.1920942 23.78473 -0.08694133 23.79733 -0.09019188 23.93094 0.1931287 28.22367 -0.09019188 28.23786 -0.09312018 28.29624 0.1920942 23.93193 0.3324252 24.10626 0.1861038 23.92943 0.3302078 23.931 28.29505 23.92943 28.29359 23.77353 28.34708 23.931 0.3316473 24.10626 0.1861038 23.93193 0.3324252 24.10626 0.1861038 23.93079 0.06153423 23.92995 0.1415867 23.77353 0.1728574 23.92995 0.1415867 23.93039 0.07819023 23.79167 -0.2427457 23.54351 0.1332939 23.54576 0.1349616 28.24045 -0.2427457 28.22541 -0.2420879 28.31493 0.1333619 23.80017 -0.2357912 23.54576 0.1349616 23.54236 0.1333619 23.57734 28.12253 23.5439 28.31629 23.38469 28.34218 28.23971 -0.2288085 28.22553 -0.2326786 28.12358 -0.006819202 23.79907 -0.235502 23.87045 -0.008443985 23.8679 -0.008400382 28.2266 -0.235502 28.23971 -0.2288085 28.12173 -0.008443985 28.12203 0.09224198 28.12204 0.09461534 27.99879 0.006486133 23.86846 0.09461534 24.01461 0.0163522 23.81812 0.006486133 28.26355 -0.05079748 28.12612 0.09459624 27.99879 0.006486133 24.01461 0.0163522 23.85774 0.09459624 23.779 -0.05079748 23.87034 -0.130709 24.01461 0.0163522 23.86848 -0.1002333 28.26355 -0.05079748 28.12106 -0.1252507 28.12205 -0.1002333 20.63278 -0.4281951 20.65963 0.2069659 20.64743 0.2071403 20.62523 -0.4289934 20.65209 0.206785 20.66409 -0.4293118 28.06874 -0.4281951 28.10263 0.2071403 28.10034 -0.4289934 20.65366 0.003736594 20.87262 0.2121606 20.87104 0.2142373 20.6434 0.01290454 20.87262 0.2121606 20.65366 0.003736594 20.64446 28.09016 20.86983 28.13385 20.6434 28.10307 28.1326 0.3078733 28.13297 0.3114263 28.13608 0.1884166 28.1326 0.3078733 28.13608 0.1884166 28.09444 0.2217986 20.87138 0.3114263 20.74773 0.2307748 20.87135 0.1884166 20.88722 0.2217986 20.87108 0.1281713 20.74773 0.2307748 28.09444 0.2217986 28.13272 0.1236517 28.13252 0.1281713 20.87108 0.1281713 20.87135 0.1884166 20.74773 0.2307748 20.64755 -0.01284808 20.52895 0.2161923 20.52576 0.214621 28.10102 -0.01280591 28.1599 0.2146366 28.1565 0.2161923 20.64181 -0.01908369 20.52751 0.2146366 20.65455 -0.01280591 28.08747 -0.01284808 28.15651 0.214621 28.10108 -0.01908369 20.52743 0.3142297 20.32865 0.2005996 20.52854 0.3324379 20.52854 28.15833 20.32865 28.1255 20.46944 28.35129 28.15833 0.3324379 28.35129 0.2430852 28.18475 0.05730109 20.32865 28.1255 20.52719 28.15812 20.46944 28.35129 20.56899 27.96993 20.52731 28.15762 20.32865 28.1255 20.65245 -0.145584 20.6895 0.2639413 20.63995 -0.1432494 28.10353 -0.1400691 27.92381 0.2651948 27.92086 0.2638084 28.09267 -0.1432494 27.92381 0.2651948 28.10353 -0.1400691 27.92169 0.367904 27.92221 0.3929407 27.74306 0.2672475 20.6887 0.3949067 20.51716 0.245847 20.69146 0.3929407 27.74306 0.2672475 27.95596 0.245847 27.92255 0.3949067 27.92221 0.3929407 27.93654 0.2156902 27.74306 0.2672475 20.69146 0.3929407 20.51716 0.245847 20.79055 0.2156902 20.51716 0.245847 20.69122 0.1646374 20.79055 0.2156902 27.74306 0.2672475 27.92168 0.1705387 27.92163 0.1646374 20.65622 0.01202631 20.69396 0.3985315 20.69775 0.3980974 28.0892 0.01563027 28.1959 0.3985315 28.10041 0.01333141 28.19481 0.494357 28.19784 0.5204383 28.28513 0.366623 28.19784 0.5204383 28.08302 0.4805845 28.23046 0.3609701 28.19477 0.5125586 28.28513 0.366623 28.08302 0.4805845 20.6912 0.4805845 20.69418 0.2944623 20.52642 0.3609701 28.08302 0.4805845 28.28513 0.366623 28.19235 0.2944623 20.793 0.366623 20.69611 0.2864763 20.69418 0.2944623 20.69418 0.2944623 20.69598 0.2776899 20.52642 0.3609701 20.64873 0.008311669 20.38531 0.1647106 20.38402 0.1615646 20.64939 0.01843546 20.3831 0.1624797 20.38531 0.1647106 20.64289 28.10014 20.38402 27.98517 20.3831 27.98873 20.3826 0.2747649 20.26546 0.04981932 20.49533 0.2803318 28.02374 0.2803318 28.01094 0.08275997 27.80106 0.1570264 20.26546 0.04981932 20.55004 0.08275997 20.49533 0.2803318 27.80106 0.1570264 28.09238 0.04981932 27.98778 0.2747649 20.26546 0.04981932 20.38412 0.04355444 20.38415 0.03853722 20.26546 0.04981932 20.38412 0.05359716 20.38412 0.04355444 20.55004 28.01094 20.38412 27.98683 20.32988 27.80106 20.55004 0.08275997 20.38415 0.03853722 20.38412 0.05359716 20.64739 -0.1282477 20.86515 0.2279696 20.86319 0.2285322 20.64209 -0.1217959 20.86215 0.2300063 20.6544 -0.1288559 28.08744 -0.1282477 28.00323 0.2300063 28.10116 -0.1217959 20.8633 28.00111 20.86335 28.00178 21.02623 28.00269 21.02623 0.2102793 20.85507 0.3120561 20.8633 0.3521084 21.02623 0.2102793 20.86122 0.1277286 20.85507 0.3120561 28.10104 -0.059483 28.2456 0.3004848 28.24218 0.3018109 20.6409 -0.06232934 20.56684 0.3004848 20.65489 -0.059483 28.08787 -0.05585739 28.24435 0.3003179 28.10066 -0.06232934 20.56585 0.4014116 20.56879 0.4314799 20.41424 0.3000712 28.41929 0.3281652 28.2421 0.2299203 28.24254 0.4314799 28.24254 0.4314799 28.2421 0.2299203 28.14562 0.2587257 20.41424 28.21469 20.58241 28.14562 20.56562 28.2439 28.09936 -0.1022681 27.87724 0.2481579 28.08914 -0.109342 20.63958 -0.1044663 20.58393 0.2502089 20.65554 -0.1022681 28.10034 -0.1044663 27.87724 0.2481579 27.88013 0.2494509 20.58348 0.2999336 20.45714 0.2514364 20.58212 0.3677753 20.58234 0.3371108 20.68833 0.2388147 20.58348 0.2999336 20.45714 0.2514364 20.58231 0.1484535 20.68833 0.2388147 20.58348 0.2999336 20.58315 0.1358195 20.45714 0.2514364 20.68833 0.2388147 20.58231 0.1484535 20.58236 0.1671657 20.65372 -0.02733408 20.8432 0.1252112 20.84118 0.1284497 20.64739 28.10348 20.84098 28.21015 20.8432 28.20822 20.64253 -0.01700676 20.84098 0.1265551 20.64739 -0.0285696 20.81203 0.2788862 20.74718 0.1141976 20.8426 0.2404071 20.74718 0.1141976 20.96977 0.08659553 20.8426 0.2404071 20.96977 0.08659553 20.84047 0.004575488 20.81203 0.2788862 20.74718 0.1141976 20.84186 0.01189732 20.96977 0.08659553 28.31483 0.1141976 28.20822 0.003967137 28.20836 0.01189732 20.74718 28.31483 20.84047 28.20549 20.84183 28.20822 20.63278 -0.4281951 20.66409 -0.4293118 20.65963 0.2069659 28.08794 -0.4293118 28.11307 0.206785 28.10261 0.2069659 28.10034 -0.4289934 28.10263 0.2071403 28.11307 0.206785 20.64446 0.01398768 20.65366 0.003736594 20.87104 0.2142373 20.6434 0.01290454 20.86983 0.2149299 20.87262 0.2121606 20.64446 28.09016 20.87104 28.13056 20.86983 28.13385 20.87138 0.3114263 20.88722 0.2217986 20.74773 0.2307748 28.09444 0.2217986 28.13608 0.1884166 28.13272 0.1236517 28.08747 -0.01284808 28.10102 -0.01280591 28.1565 0.2161923 28.10108 -0.01908369 28.15651 0.214621 28.1599 0.2146366 20.52743 0.3142297 20.52729 0.3351608 20.32865 0.2005996 28.15771 0.3351608 28.15833 0.3324379 27.96993 0.2572471 20.52729 28.15771 20.56899 27.96993 20.32865 28.1255 28.15833 0.3324379 28.18475 0.05730109 27.96993 0.2572471 20.56899 27.96993 20.66956 28.18475 20.52731 28.15762 20.46944 28.35129 20.52719 28.15812 20.66956 28.18475 20.52719 0.09437581 20.32865 0.2005996 20.52731 0.107844 20.65245 -0.145584 20.69304 0.2638084 20.6895 0.2639413 28.08996 -0.145584 28.10353 -0.1400691 27.92086 0.2638084 28.09267 -0.1432494 27.92032 0.2639413 27.92381 0.2651948 27.92255 0.3949067 27.92169 0.367904 27.74306 0.2672475 20.51716 27.95596 20.73114 27.74306 20.69122 27.92163 20.73114 27.74306 20.79055 27.93654 20.69118 27.92168 20.64393 0.01563027 20.65622 0.01202631 20.69635 0.3990189 28.09807 0.01202631 28.19585 0.3980974 28.1927 0.3990189 20.65622 0.01202631 20.64046 0.01333141 20.69396 0.3985315 28.0892 0.01563027 28.1927 0.3990189 28.1959 0.3985315 28.19784 0.5204383 28.19477 0.5125586 28.08302 0.4805845 20.69616 0.5125586 20.69598 0.494357 20.793 0.366623 20.69541 0.5204383 20.52642 0.3609701 20.793 0.366623 20.793 0.366623 20.52642 0.3609701 20.69598 0.2776899 20.793 0.366623 20.69598 0.2776899 20.69611 0.2864763 20.64873 28.08866 20.64939 28.10196 20.38531 27.98667 20.64939 0.01843546 20.64289 0.006580014 20.3831 0.1624797 20.64289 28.10014 20.64873 28.08866 20.38402 27.98517 27.98778 0.2747649 27.98684 0.2776786 27.80106 0.1570264 20.38414 27.98684 20.49533 28.02374 20.32988 27.80106 20.38414 0.2776786 20.38414 0.3071333 20.49533 0.2803318 20.38414 0.3071333 20.3826 0.2747649 20.49533 0.2803318 20.26546 28.09238 20.32988 27.80106 20.38412 27.98683 20.55004 28.01094 20.26546 28.09238 20.38415 27.98693 28.08744 -0.1282477 28.101 -0.1288559 28.00187 0.2279696 20.6544 -0.1288559 20.86215 0.2300063 20.86515 0.2279696 28.08744 -0.1282477 27.99968 0.2285322 28.00323 0.2300063 28.00178 0.3524638 27.99932 0.3120561 28.16573 0.236617 20.86335 28.00178 20.82963 28.16573 21.02623 28.00269 27.99932 0.3120561 28.00279 0.1277286 28.16573 0.236617 21.02623 28.00269 20.82963 28.16573 20.86338 28.00187 28.16573 0.236617 28.00175 0.1109555 28.00187 0.1137196 28.16573 0.236617 28.00279 0.1277286 28.00175 0.1109555 21.02623 0.2102793 20.86338 0.1137196 20.86122 0.1277286 28.08787 -0.05585739 28.10104 -0.059483 28.24218 0.3018109 20.6409 -0.06232934 20.56384 0.3003179 20.56684 0.3004848 20.64813 -0.05585739 20.56695 0.3018109 20.56384 0.3003179 28.24379 0.4010718 28.24378 0.4014116 28.41929 0.3281652 20.56585 28.24378 20.41424 28.21469 20.536 28.41929 28.24379 0.4010718 28.41929 0.3281652 28.24254 0.4314799 20.56879 0.4314799 20.58241 0.2587257 20.41424 0.3000712 28.41929 0.3281652 28.2439 0.1825989 28.2421 0.2299203 20.536 28.41929 20.41424 28.21469 20.56562 28.2439 28.09936 -0.1022681 27.88039 0.2502089 27.87724 0.2481579 20.63958 -0.1044663 20.58045 0.2494509 20.58393 0.2502089 28.10034 -0.1044663 28.08914 -0.109342 27.87724 0.2481579 20.58234 0.3371108 20.58212 0.3677753 20.68833 0.2388147 20.68833 0.2388147 20.58212 0.3677753 20.45714 0.2514364 20.58348 0.2999336 20.68833 0.2388147 20.58315 0.1358195 20.45714 0.2514364 20.58315 0.1358195 20.58231 0.1484535 20.58315 0.1358195 20.68833 0.2388147 20.58236 0.1671657 20.64253 -0.01700676 20.65372 -0.02733408 20.84118 0.1284497 20.65372 28.09073 20.64739 28.10348 20.8432 28.20822 28.09531 -0.01700676 28.20704 0.1284497 28.21015 0.1265551 28.19108 0.2788862 28.20801 0.2507786 28.20682 0.08659553 20.84222 0.2507786 20.8426 0.2404071 20.96977 0.08659553 28.31483 0.1141976 28.19108 0.2788862 28.20549 0.004575488 20.84047 0.004575488 20.96977 0.08659553 20.84186 0.01189732 28.55351 -0.5928562 28.55388 0.09365646 28.54429 0.09384495 28.52828 -0.593719 28.54157 0.0934609 28.56634 -0.5940631 28.55351 -0.5928562 28.54429 0.09384495 28.52828 -0.593719 23.44484 -0.1611497 23.21206 0.1791939 23.45589 -0.1499837 23.44484 28.54888 23.21143 28.38742 23.20922 28.39019 23.45739 -0.154577 23.21143 0.1769249 23.44484 -0.1611497 28.54221 -0.154577 28.39075 0.1791939 28.38742 0.1769249 23.21093 0.2736266 23.35845 0.138887 23.21489 0.1396905 23.21093 0.2736266 23.21462 0.298296 23.35845 0.138887 23.21489 0.1396905 23.0892 0.1616241 23.21462 0.298296 23.21462 0.298296 23.0892 0.1616241 23.35845 0.138887 23.0892 0.1616241 23.21053 0.07686412 23.35845 0.138887 28.38376 0.1396905 28.38945 0.07418542 28.38943 0.08480263 23.21489 0.1396905 23.21053 0.07686412 23.21094 0.07418542 28.55714 -0.2001839 28.53199 0.05241292 28.54536 -0.2047185 28.54277 -0.1977023 28.53012 0.05401399 28.55714 -0.2001839 23.4452 -0.1977023 23.57602 0.05231495 23.57304 0.05401399 23.57491 0.1814647 23.41567 0.05007431 23.63483 0.0326953 28.53036 0.1906253 28.38038 -0.005999933 28.56615 0.05007431 28.53018 0.2076767 28.66751 0.0326953 28.52921 -0.04106042 23.5178 28.38038 23.57767 28.52921 23.41567 28.56615 28.66751 0.0326953 28.53043 -0.08564594 28.53043 -0.08566547 23.41567 0.05007431 23.57767 -0.04106042 23.5749 -0.08564594 28.55544 -0.1998233 28.69187 0.05931023 28.54277 -0.192154 23.45585 -0.1998233 23.35221 0.0578417 23.3551 0.05931023 28.54277 -0.192154 28.69187 0.05931023 28.68909 0.05976378 23.35353 28.69099 23.49417 28.5755 23.27384 28.52717 23.35319 0.1587611 23.23495 0.04450046 23.35353 0.1789376 28.69099 0.1789376 28.82012 0.01304586 28.5755 0.0494075 23.35353 0.1789376 23.23495 0.04450046 23.44538 0.01304586 23.44538 28.82012 23.23495 28.76312 23.35321 28.69099 23.23495 0.04450046 23.35319 -0.04545276 23.35321 -0.05347366 23.49417 0.0494075 23.35377 -0.03641984 23.35319 -0.04545276 23.44307 -0.1190988 23.44278 0.3144479 23.45901 -0.1177478 28.55106 -0.1190988 28.30657 0.3123647 28.30911 0.3138588 28.55258 -0.1177478 28.30657 0.3123647 28.54133 -0.1247998 23.44135 0.4090437 23.44092 0.4269524 23.58077 0.3514278 28.12189 0.3500785 28.41104 0.2994971 28.3089 0.4269524 23.28935 0.2994971 23.44138 0.1969206 23.58077 0.3514278 23.46895 28.12189 23.44268 28.30742 23.31317 28.20078 23.44268 0.207416 23.44135 0.2179365 23.31317 0.2560348 23.28935 0.2994971 23.44135 0.2179365 23.44138 0.1969206 28.55696 -0.2526519 28.72329 0.220099 28.54448 -0.2522244 23.45934 -0.2522244 23.64991 0.221626 23.4465 -0.2458443 28.54448 -0.2522244 28.72329 0.220099 28.72103 0.221626 28.72298 0.3366465 28.56378 0.2178495 28.72298 0.3410669 23.64936 28.72298 23.80807 28.69389 23.57868 28.56378 28.72361 0.3724838 28.56378 0.2178495 28.90003 0.1816858 28.69389 0.2449108 28.90003 0.1816858 28.72286 0.09234641 28.56378 0.2178495 28.723 0.09147391 28.90003 0.1816858 28.56378 0.2178495 28.72286 0.09234641 28.723 0.09147391 28.90003 0.1816858 28.723 0.09147391 28.72298 0.1085662 28.54947 -0.1776604 28.55152 0.08928655 28.54766 0.09015352 23.44791 -0.1869252 23.22782 0.08928655 23.45811 -0.1776604 23.44791 -0.1869252 23.22621 0.08783419 23.22782 0.08928655 23.2278 0.2012073 23.22546 0.2453772 23.07575 0.09815795 23.23025 0.2273066 23.35819 0.0988755 23.22546 0.2453772 23.2278 0.2012073 23.07575 0.09815795 23.23025 0.2273066 23.23025 0.2273066 23.07575 0.09815795 23.13672 -0.01061825 23.35819 0.0988755 23.07575 0.09815795 23.22546 0.2453772 23.23025 0.2273066 23.13672 -0.01061825 23.35819 0.0988755 23.35819 0.0988755 23.22713 -0.04981436 23.07575 0.09815795 23.23399 -0.04348049 23.22713 -0.04981436 23.35819 0.0988755 23.13672 -0.01061825 23.23399 -0.04348049 23.35819 0.0988755 28.55713 -0.1384121 28.46141 0.1553869 28.54447 -0.1454051 28.55713 -0.1384121 28.46051 0.1565852 28.46388 0.1569993 23.45854 -0.1454051 23.55688 0.1565852 23.44517 -0.1404381 23.55992 0.2236847 23.56327 0.1185612 23.55628 0.1194051 28.46149 0.2236847 28.46871 0.1477412 28.46174 0.1185612 28.5498 -0.2688682 28.77677 0.1097456 28.77428 0.1114605 28.54105 -0.2633213 28.77348 0.1118914 28.55382 -0.2719864 28.5498 -0.2688682 28.77428 0.1114605 28.54105 -0.2633213 28.77486 0.1907131 28.63462 0.1219396 28.77619 0.2182201 28.77486 0.2207028 28.63462 0.1219396 28.77486 0.1907131 23.44132 0.2182201 23.57402 0.1253117 23.44132 0.2207028 23.44132 0.2182201 23.28101 0.09673947 23.57402 0.1253117 28.63462 0.1219396 28.77529 -0.001145792 28.77483 0.01870347 23.57402 0.1253117 23.44268 -0.001145792 23.38177 0.1219396 23.28101 0.09673947 23.44132 0.01827911 23.57402 0.1253117 23.38177 28.63462 23.44132 28.77483 23.28101 28.87959 23.44406 -0.1568061 23.29273 0.06188194 23.45477 -0.1469917 23.45651 28.54157 23.29004 28.32738 23.44406 28.55162 28.54157 -0.158014 28.32808 0.06188194 28.32542 0.0590419 28.32577 0.1952601 28.18203 0.0562405 28.32797 0.1617493 23.29109 0.1952601 23.44423 0.04460669 23.15032 0.0562405 23.29298 0.1478807 23.2934 -0.03718901 23.44423 0.04460669 28.32797 0.1617493 28.18203 0.0562405 28.32875 -0.03718901 28.18203 0.0562405 28.32686 -0.0551195 28.32875 -0.03718901 23.44423 0.04460669 23.2934 -0.03718901 23.28874 -0.0661334 23.48268 -0.5928562 23.44849 -0.5940631 23.43971 0.09365646 28.56634 -0.5940631 28.54157 0.0934609 28.55388 0.09365646 23.4625 -0.593719 23.44715 0.09384495 23.43611 0.0934609 23.44484 -0.1611497 23.20922 0.1766115 23.21206 0.1791939 28.54221 -0.154577 28.5532 -0.1499837 28.39075 0.1791939 23.0892 0.1616241 23.21489 0.1396905 23.21093 0.08480263 23.21489 0.1396905 23.35845 0.138887 23.21053 0.07686412 23.21053 0.07686412 23.0892 0.1616241 23.21093 0.08480263 23.45189 -0.2001839 23.57304 0.05401399 23.5763 0.05241292 23.4452 -0.1977023 23.45857 -0.2047185 23.57602 0.05231495 28.54536 -0.2047185 28.53199 0.05241292 28.52877 0.05231495 28.53043 0.1814647 28.66751 0.0326953 28.53018 0.2076767 23.57491 0.1814647 23.57481 0.1906253 23.41567 0.05007431 28.53036 0.1906253 28.53018 0.2076767 28.38038 -0.005999933 28.53018 0.2076767 28.52921 -0.04106042 28.38038 -0.005999933 28.66751 0.0326953 28.53043 -0.08566547 28.52921 -0.04106042 23.63483 0.0326953 23.41567 0.05007431 23.5749 -0.08564594 23.45585 -0.1998233 23.4442 -0.2015106 23.35221 0.0578417 28.55008 -0.2015106 28.68909 0.05976378 28.69226 0.0578417 23.4442 -0.2015106 23.45565 -0.192154 23.35217 0.05976378 28.69079 0.1765348 28.69099 0.1789376 28.52717 0.06312347 23.35319 0.1587611 23.3531 0.1765348 23.23495 0.04450046 28.76312 0.04450046 28.69079 0.1765348 28.52717 0.06312347 23.23495 28.76312 23.27384 28.52717 23.35319 28.69084 23.27384 28.52717 23.49417 28.5755 23.35319 28.69084 23.49417 28.5755 23.44538 28.82012 23.35377 28.69106 28.82012 0.01304586 28.69099 -0.05347366 28.69106 -0.03641984 23.44307 -0.1190988 23.43936 0.3138588 23.44278 0.3144479 28.55106 -0.1190988 28.54133 -0.1247998 28.30657 0.3123647 28.55258 -0.1177478 28.30992 0.3144479 28.30657 0.3123647 28.30851 0.4053287 28.12189 0.3500785 28.3089 0.4269524 23.44135 28.30851 23.58077 28.4179 23.46895 28.12189 23.44135 0.4053287 23.44135 0.4090437 23.58077 0.3514278 23.44092 28.3089 23.28935 28.41104 23.58077 28.4179 23.28935 28.41104 23.46895 28.12189 23.31317 28.20078 28.12189 0.3500785 28.4179 0.3514278 28.30742 0.207416 28.30742 0.207416 28.4179 0.3514278 28.30891 0.1969206 23.28935 28.41104 23.31317 28.20078 23.44135 28.30852 23.44924 -0.2526519 23.64764 0.2213364 23.6512 0.220099 28.55696 -0.2526519 28.54349 -0.2458443 28.72429 0.2213364 28.54349 -0.2458443 28.72103 0.221626 28.72429 0.2213364 28.72298 0.3410669 28.56378 0.2178495 28.72361 0.3724838 23.64936 0.3366465 23.64916 0.3724838 23.80807 0.2449108 23.64916 0.3724838 23.62359 0.1816858 23.80807 0.2449108 23.80807 0.2449108 23.64949 0.09234641 23.57868 0.2178495 28.72286 0.09234641 28.90003 0.1816858 28.72298 0.1085662 28.5552 -0.1869252 28.54231 -0.1876786 28.54908 0.08783419 23.44705 -0.1876786 23.22877 0.09015352 23.22621 0.08783419 23.44705 -0.1876786 23.45811 -0.1776604 23.22877 0.09015352 23.13672 28.65167 23.07575 28.52651 23.22713 28.54887 28.55713 -0.1384121 28.46388 0.1569993 28.46141 0.1553869 28.55713 -0.1384121 28.54336 -0.1404381 28.46051 0.1565852 23.45854 -0.1454051 23.56061 0.1553869 23.55688 0.1565852 23.46009 -0.2688682 23.44632 -0.2719864 23.44092 0.1097456 28.55382 -0.2719864 28.77348 0.1118914 28.77677 0.1097456 23.45215 -0.2633213 23.44329 0.1114605 23.43985 0.1118914 23.44132 0.2207028 23.57402 0.1253117 23.38177 0.1219396 23.44132 28.77619 23.38177 28.63462 23.28101 28.87959 23.44268 -0.001145792 23.57402 0.1253117 23.44132 0.01827911 23.28101 0.09673947 23.44132 0.01870347 23.44132 0.01827911 23.44406 -0.1568061 23.29004 0.05884098 23.29273 0.06188194 23.45651 28.54157 23.293 28.32542 23.29004 28.32738 28.54157 -0.158014 28.55244 -0.1469917 28.32808 0.06188194 23.29298 0.1478807 23.44423 0.04460669 23.29109 0.1952601 23.29073 0.1617493 23.2934 -0.03718901 23.29298 0.1478807 28.18203 0.0562405 28.32484 -0.0661334 28.32686 -0.0551195 23.15032 0.0562405 23.44423 0.04460669 23.28874 -0.0661334</float_array>
          <technique_common>
            <accessor source="#uv-array" count="1404" stride="2">
              <param name="S" type="float" />
              <param name="T" type="float" />
            </accessor>
          </technique_common>
        </source>
        <vertices id="vertices">
          <input semantic="POSITION" source="#positions" />
        </vertices>
        <triangles count="180" material="m0">
          <input semantic="VERTEX" source="#vertices" offset="0" />
          <input semantic="NORMAL" source="#normals" offset="1" />
          <input semantic="TEXCOORD" source="#uv" offset="2" set="0" />
          <p>0 0 0 4 0 1 3 0 2 2 1 3 5 1 4 1 1 5 0 2 6 3 2 7 2 2 8 6 3 9 10 3 10 9 3 11 7 4 12 10 4 13 6 4 14 8 5 15 9 5 16 11 5 17 22 11 33 25 11 34 21 11 35 22 12 36 26 12 37 25 12 38 35 16 48 37 16 49 34 16 50 36 17 51 38 17 52 35 17 53 36 18 54 39 18 55 38 18 56 48 23 69 52 23 70 51 23 71 50 24 72 53 24 73 49 24 74 50 25 75 51 25 76 53 25 77 64 32 96 67 32 97 63 32 98 65 33 99 66 33 100 68 33 101 78 44 132 82 44 133 81 44 134 80 45 135 81 45 136 83 45 137 78 46 138 81 46 139 80 46 140 92 51 153 94 51 154 91 51 155 92 52 156 96 52 157 95 52 158 93 53 159 94 53 160 96 53 161 106 59 177 108 59 178 105 59 179 106 60 180 110 60 181 109 60 182 105 61 183 110 61 184 107 61 185 120 73 219 124 73 220 123 73 221 121 74 222 125 74 223 124 74 224 122 75 225 125 75 226 121 75 227 0 82 246 1 82 247 4 82 248 1 83 249 5 83 250 4 83 251 2 84 252 3 84 253 5 84 254 7 85 255 11 85 256 10 85 257 7 86 258 8 86 259 11 86 260 8 87 261 6 87 262 9 87 263 21 95 285 25 95 286 24 95 287 22 96 288 23 96 289 26 96 290 23 97 291 24 97 292 26 97 293 23 98 294 21 98 295 24 98 296 35 104 312 38 104 313 37 104 314 36 105 315 34 105 316 39 105 317 34 106 318 37 106 319 39 106 320 48 113 339 49 113 340 52 113 341 49 114 342 53 114 343 52 114 344 50 115 345 48 115 346 51 115 347 63 122 366 67 122 367 66 122 368 64 123 369 65 123 370 67 123 371 65 124 372 68 124 373 67 124 374 65 125 375 63 125 376 66 125 377 78 128 384 79 128 385 82 128 386 79 129 387 83 129 388 82 129 389 79 130 390 80 130 391 83 130 392 92 135 405 95 135 406 94 135 407 92 136 408 93 136 409 96 136 410 93 137 411 91 137 412 94 137 413 106 143 429 109 143 430 108 143 431 106 144 432 107 144 433 110 144 434 105 145 435 108 145 436 110 145 437 120 147 441 121 147 442 124 147 443 122 148 444 123 148 445 125 148 446 122 149 447 120 149 448 123 149 449 135 156 468 139 156 469 138 156 470 137 157 471 140 157 472 136 157 473 135 158 474 138 158 475 137 158 476 142 159 477 145 159 478 144 159 479 143 160 480 145 160 481 142 160 482 141 161 483 146 161 484 143 161 485 154 168 504 158 168 505 157 168 506 155 169 507 159 169 508 158 169 509 156 170 510 159 170 511 155 170 512 154 171 513 157 171 514 156 171 515 170 177 531 172 177 532 169 177 533 171 178 534 174 178 535 173 178 536 169 179 537 174 179 538 171 179 539 184 187 561 188 187 562 187 187 563 183 188 564 188 188 565 185 188 566 198 196 588 202 196 589 201 196 590 199 197 591 203 197 592 202 197 593 200 198 594 201 198 595 203 198 596 214 207 621 218 207 622 217 207 623 216 208 624 219 208 625 215 208 626 214 209 627 219 209 628 216 209 629 229 213 639 232 213 640 231 213 641 230 214 642 232 214 643 229 214 644 228 215 645 233 215 646 230 215 647 243 220 660 245 220 661 242 220 662 244 221 663 246 221 664 243 221 665 244 222 666 245 222 667 247 222 668 257 228 684 260 228 685 259 228 686 258 229 687 261 229 688 260 229 689 256 230 690 261 230 691 258 230 692 135 237 711 136 237 712 139 237 713 136 238 714 140 238 715 139 238 716 137 239 717 138 239 718 140 239 719 141 240 720 142 240 721 144 240 722 143 241 723 146 241 724 145 241 725 141 242 726 144 242 727 146 242 728 154 245 735 155 245 736 158 245 737 156 246 738 157 246 739 159 246 740 170 254 762 173 254 763 172 254 764 170 255 765 171 255 766 173 255 767 169 256 768 172 256 769 174 256 770 183 260 780 184 260 781 186 260 782 184 261 783 187 261 784 186 261 785 184 262 786 185 262 787 188 262 788 183 263 789 186 263 790 188 263 791 198 269 807 199 269 808 202 269 809 199 270 810 200 270 811 203 270 812 200 271 813 198 271 814 201 271 815 214 278 834 215 278 835 218 278 836 215 279 837 219 279 838 218 279 839 214 280 840 217 280 841 219 280 842 228 288 864 229 288 865 231 288 866 230 289 867 233 289 868 232 289 869 228 290 870 231 290 871 233 290 872 243 297 891 246 297 892 245 297 893 244 298 894 247 298 895 246 298 896 244 299 897 242 299 898 245 299 899 256 305 915 257 305 916 259 305 917 257 306 918 258 306 919 260 306 920 256 307 921 259 307 922 261 307 923 270 312 936 274 312 937 273 312 938 272 313 939 275 313 940 271 313 941 270 314 942 273 314 943 272 314 944 277 315 945 279 315 946 276 315 947 277 316 948 281 316 949 280 316 950 278 317 951 281 317 952 277 317 953 278 318 954 279 318 955 281 318 956 291 326 978 293 326 979 290 326 980 292 327 981 294 327 982 291 327 983 292 328 984 295 328 985 294 328 986 305 335 1005 308 335 1006 307 335 1007 305 336 1008 309 336 1009 308 336 1010 307 337 1011 308 337 1012 310 337 1013 322 345 1035 324 345 1036 321 345 1037 322 346 1038 326 346 1039 325 346 1040 321 347 1041 326 347 1042 323 347 1043 338 354 1062 340 354 1063 337 354 1064 337 355 1065 342 355 1066 339 355 1067 337 356 1068 340 356 1069 342 356 1070 352 364 1092 356 364 1093 355 364 1094 353 365 1095 356 365 1096 352 365 1097 353 366 1098 357 366 1099 356 366 1100 367 376 1128 369 376 1129 366 376 1130 367 377 1131 371 377 1132 370 377 1133 366 378 1134 371 378 1135 368 378 1136 376 381 1143 380 381 1144 379 381 1145 378 382 1146 381 382 1147 377 382 1148 376 383 1149 379 383 1150 378 383 1151 392 392 1176 394 392 1177 391 392 1178 393 393 1179 395 393 1180 392 393 1181 393 394 1182 394 394 1183 396 394 1184 270 401 1203 271 401 1204 274 401 1205 271 402 1206 275 402 1207 274 402 1208 272 403 1209 273 403 1210 275 403 1211 277 404 1212 280 404 1213 279 404 1214 278 405 1215 276 405 1216 279 405 1217 291 409 1227 294 409 1228 293 409 1229 292 410 1230 290 410 1231 295 410 1232 290 411 1233 293 411 1234 295 411 1235 305 418 1254 306 418 1255 309 418 1256 306 419 1257 310 419 1258 309 419 1259 306 420 1260 307 420 1261 310 420 1262 322 428 1284 325 428 1285 324 428 1286 322 429 1287 323 429 1288 326 429 1289 321 430 1290 324 430 1291 326 430 1292 338 439 1317 341 439 1318 340 439 1319 338 440 1320 339 440 1321 341 440 1322 339 441 1323 342 441 1324 341 441 1325 353 447 1341 354 447 1342 357 447 1343 354 448 1344 355 448 1345 357 448 1346 354 449 1347 352 449 1348 355 449 1349 367 451 1353 370 451 1354 369 451 1355 367 452 1356 368 452 1357 371 452 1358 366 453 1359 369 453 1360 371 453 1361 376 454 1362 377 454 1363 380 454 1364 377 455 1365 381 455 1366 380 455 1367 378 456 1368 379 456 1369 381 456 1370 392 461 1383 395 461 1384 394 461 1385 393 462 1386 396 462 1387 395 462 1388 393 463 1389 391 463 1390 394 463 1391</p>
        </triangles>
        <triangles count="54" material="m5">
          <input semantic="VERTEX" source="#vertices" offset="0" />
          <input semantic="NORMAL" source="#normals" offset="1" />
          <input semantic="TEXCOORD" source="#uv" offset="2" set="0" />
          <p>14 6 18 16 6 19 12 6 20 16 7 21 15 7 22 13 7 23 15 8 24 19 8 25 17 8 26 17 9 27 18 9 28 16 9 29 17 10 30 19 10 31 18 10 32 69 34 102 75 34 103 73 34 104 69 35 105 71 35 106 75 35 107 69 36 108 72 36 109 71 36 110 69 37 111 70 37 112 72 37 113 70 38 114 73 38 115 72 38 116 73 39 117 75 39 118 72 39 119 72 40 120 74 40 121 71 40 122 75 41 123 74 41 124 72 41 125 71 42 126 76 42 127 75 42 128 71 43 129 74 43 130 77 43 131 99 54 162 103 54 163 98 54 164 97 55 165 102 55 166 99 55 167 103 56 168 102 56 169 98 56 170 99 57 171 102 57 172 101 57 173 102 58 174 104 58 175 101 58 176 14 88 264 17 88 265 16 88 266 13 89 267 12 89 268 16 89 269 14 90 270 15 90 271 17 90 272 14 91 273 13 91 274 15 91 275 19 92 276 15 92 277 20 92 278 15 93 279 16 93 280 20 93 281 16 94 282 18 94 283 20 94 284 74 126 378 75 126 379 76 126 380 71 127 381 77 127 382 76 127 383 100 138 414 99 138 415 98 138 416 97 139 417 98 139 418 102 139 419 97 140 420 99 140 421 100 140 422 99 141 423 101 141 424 103 141 425 102 142 426 103 142 427 104 142 428 177 180 540 175 180 541 178 180 542 176 181 543 179 181 544 175 181 545 178 182 546 179 182 547 176 182 548 175 183 549 180 183 550 178 183 551 175 184 552 179 184 553 180 184 554 179 185 555 182 185 556 180 185 557 178 186 558 181 186 559 182 186 560 235 216 648 237 216 649 239 216 650 236 217 651 238 217 652 237 217 653 237 218 654 238 218 655 240 218 656 239 219 657 240 219 658 241 219 659 176 257 771 177 257 772 178 257 773 179 258 774 178 258 775 182 258 776 178 259 777 180 259 778 181 259 779 234 291 873 235 291 874 236 291 875 235 292 876 239 292 877 236 292 878 234 293 879 236 293 880 237 293 881 237 294 882 240 294 883 239 294 884 236 295 885 241 295 886 238 295 887 236 296 888 239 296 889 241 296 890</p>
        </triangles>
        <triangles count="30" material="m3">
          <input semantic="VERTEX" source="#vertices" offset="0" />
          <input semantic="NORMAL" source="#normals" offset="1" />
          <input semantic="TEXCOORD" source="#uv" offset="2" set="0" />
          <p>28 13 39 29 13 40 30 13 41 29 14 42 32 14 43 30 14 44 30 15 45 32 15 46 33 15 47 84 47 141 90 47 142 86 47 143 84 48 144 85 48 145 88 48 146 86 49 147 90 49 148 87 49 149 85 50 150 87 50 151 88 50 152 29 99 297 27 99 298 32 99 299 27 100 300 28 100 301 30 100 302 32 101 303 27 101 304 31 101 305 27 102 306 30 102 307 33 102 308 31 103 309 27 103 310 33 103 311 86 131 393 87 131 394 85 131 395 84 132 396 88 132 397 90 132 398 88 133 399 87 133 400 89 133 401 87 134 402 90 134 403 89 134 404 204 199 597 209 199 598 207 199 599 207 200 600 210 200 601 208 200 602 209 201 603 210 201 604 207 201 605 208 202 606 209 202 607 204 202 608 209 203 609 212 203 610 211 203 611 209 204 612 213 204 613 212 204 614 210 205 615 213 205 616 208 205 617 210 206 618 211 206 619 213 206 620 204 272 816 205 272 817 208 272 818 205 273 819 207 273 820 208 273 821 205 274 822 206 274 823 207 274 824 206 275 825 204 275 826 207 275 827 209 276 828 208 276 829 213 276 830 210 277 831 209 277 832 211 277 833</p>
        </triangles>
        <triangles count="86" material="m4">
          <input semantic="VERTEX" source="#vertices" offset="0" />
          <input semantic="NORMAL" source="#normals" offset="1" />
          <input semantic="TEXCOORD" source="#uv" offset="2" set="0" />
          <p>41 19 57 45 19 58 42 19 59 42 20 60 45 20 61 46 20 62 45 21 63 47 21 64 46 21 65 45 22 66 43 22 67 47 22 68 40 107 321 42 107 322 44 107 323 40 108 324 41 108 325 42 108 326 41 109 327 44 109 328 45 109 329 42 110 330 46 110 331 44 110 332 44 111 333 43 111 334 45 111 335 44 112 336 46 112 337 43 112 338 147 162 486 148 162 487 153 162 488 147 163 489 153 163 490 149 163 491 148 164 492 150 164 493 153 164 494 149 165 495 152 165 496 150 165 497 149 166 498 151 166 499 152 166 500 152 167 501 153 167 502 150 167 503 222 210 630 220 210 631 223 210 632 223 211 633 221 211 634 222 211 635 223 212 636 227 212 637 221 212 638 148 243 729 149 243 730 150 243 731 149 244 732 153 244 733 151 244 734 220 281 843 221 281 844 224 281 845 220 282 846 224 282 847 223 282 848 221 283 849 227 283 850 224 283 851 223 284 852 224 284 853 225 284 854 224 285 855 226 285 856 225 285 857 224 286 858 227 286 859 226 286 860 223 287 861 225 287 862 227 287 863 283 319 957 284 319 958 282 319 959 283 320 960 285 320 961 284 320 962 282 321 963 286 321 964 285 321 965 285 322 966 286 322 967 284 322 968 286 323 969 287 323 970 284 323 971 282 324 972 289 324 973 288 324 974 282 325 975 287 325 976 289 325 977 314 338 1014 316 338 1015 313 338 1016 312 339 1017 315 339 1018 314 339 1019 314 340 1020 317 340 1021 316 340 1022 314 341 1023 315 341 1024 317 341 1025 317 342 1026 315 342 1027 320 342 1028 315 343 1029 318 343 1030 320 343 1031 316 344 1032 319 344 1033 318 344 1034 328 348 1044 329 348 1045 331 348 1046 332 349 1047 330 349 1048 329 349 1049 330 350 1050 335 350 1051 331 350 1052 332 351 1053 334 351 1054 333 351 1055 334 352 1056 336 352 1057 333 352 1058 330 353 1059 336 353 1060 335 353 1061 359 367 1101 358 367 1102 361 367 1103 360 368 1104 362 368 1105 358 368 1106 359 369 1107 361 369 1108 360 369 1109 360 370 1110 361 370 1111 364 370 1112 362 371 1113 361 371 1114 358 371 1115 360 372 1116 364 372 1117 362 372 1118 362 373 1119 363 373 1120 361 373 1121 365 374 1122 363 374 1123 362 374 1124 364 375 1125 365 375 1126 362 375 1127 397 395 1185 400 395 1186 399 395 1187 397 396 1188 401 396 1189 400 396 1190 398 397 1191 402 397 1192 401 397 1193 399 398 1194 400 398 1195 402 398 1196 400 399 1197 403 399 1198 402 399 1199 401 400 1200 402 400 1201 404 400 1202 286 406 1218 282 406 1219 288 406 1220 282 407 1221 284 407 1222 287 407 1223 287 408 1224 286 408 1225 288 408 1226 311 421 1263 314 421 1264 313 421 1265 312 422 1266 311 422 1267 315 422 1268 315 423 1269 311 423 1270 313 423 1271 315 424 1272 313 424 1273 318 424 1274 313 425 1275 316 425 1276 318 425 1277 316 426 1278 317 426 1279 319 426 1280 317 427 1281 320 427 1282 319 427 1283 327 431 1293 332 431 1294 329 431 1295 327 432 1296 331 432 1297 332 432 1298 327 433 1299 328 433 1300 331 433 1301 329 434 1302 330 434 1303 331 434 1304 330 435 1305 332 435 1306 333 435 1307 332 436 1308 331 436 1309 334 436 1310 334 437 1311 331 437 1312 335 437 1313 330 438 1314 333 438 1315 336 438 1316 364 450 1350 361 450 1351 363 450 1352 398 464 1392 401 464 1393 397 464 1394 399 465 1395 402 465 1396 398 465 1397 400 466 1398 404 466 1399 403 466 1400 400 467 1401 401 467 1402 404 467 1403</p>
        </triangles>
        <triangles count="70" material="m2">
          <input semantic="VERTEX" source="#vertices" offset="0" />
          <input semantic="NORMAL" source="#normals" offset="1" />
          <input semantic="TEXCOORD" source="#uv" offset="2" set="0" />
          <p>56 26 78 59 26 79 55 26 80 57 27 81 59 27 82 54 27 83 58 28 84 55 28 85 57 28 86 59 29 87 57 29 88 60 29 89 59 30 90 60 30 91 61 30 92 57 31 93 61 31 94 62 31 95 58 116 348 57 116 349 54 116 350 58 117 351 56 117 352 55 117 353 56 118 354 54 118 355 59 118 356 55 119 357 61 119 358 57 119 359 55 120 360 59 120 361 61 120 362 57 121 363 62 121 364 60 121 365 160 172 516 165 172 517 161 172 518 161 173 519 165 173 520 163 173 521 161 174 522 163 174 523 168 174 524 165 175 525 166 175 526 163 175 527 164 176 528 167 176 529 165 176 530 252 223 669 250 223 670 248 223 671 249 224 672 251 224 673 252 224 674 250 225 675 253 225 676 251 225 677 252 226 678 254 226 679 250 226 680 251 227 681 253 227 682 255 227 683 265 231 693 264 231 694 262 231 695 264 232 696 266 232 697 262 232 698 266 233 699 268 233 700 265 233 701 264 234 702 267 234 703 266 234 704 264 235 705 269 235 706 267 235 707 264 236 708 268 236 709 269 236 710 160 247 741 162 247 742 165 247 743 162 248 744 161 248 745 164 248 746 162 249 747 164 249 748 165 249 749 161 250 750 168 250 751 164 250 752 164 251 753 168 251 754 167 251 755 163 252 756 166 252 757 168 252 758 166 253 759 165 253 760 167 253 761 249 300 900 248 300 901 251 300 902 251 301 903 248 301 904 250 301 905 252 302 906 251 302 907 254 302 908 250 303 909 254 303 910 253 303 911 254 304 912 251 304 913 255 304 914 265 308 924 263 308 925 266 308 926 263 309 927 262 309 928 266 309 929 264 310 930 265 310 931 268 310 932 268 311 933 266 311 934 267 311 935 298 329 987 299 329 988 301 329 989 296 330 990 302 330 991 299 330 992 297 331 993 301 331 994 300 331 995 302 332 996 300 332 997 299 332 998 301 333 999 304 333 1000 303 333 1001 299 334 1002 300 334 1003 304 334 1004 372 379 1137 375 379 1138 374 379 1139 372 380 1140 373 380 1141 375 380 1142 382 384 1152 384 384 1153 386 384 1154 383 385 1155 384 385 1156 382 385 1157 386 386 1158 385 386 1159 383 386 1160 386 387 1161 387 387 1162 385 387 1163 384 388 1164 389 388 1165 388 388 1166 385 389 1167 389 389 1168 384 389 1169 387 390 1170 390 390 1171 385 390 1172 384 391 1173 388 391 1174 387 391 1175 298 412 1236 301 412 1237 297 412 1238 298 413 1239 296 413 1240 299 413 1241 296 414 1242 297 414 1243 302 414 1244 297 415 1245 300 415 1246 302 415 1247 301 416 1248 303 416 1249 300 416 1250 301 417 1251 299 417 1252 304 417 1253 383 457 1371 385 457 1372 384 457 1373 386 458 1374 384 458 1375 387 458 1376 389 459 1377 385 459 1378 390 459 1379 387 460 1380 388 460 1381 390 460 1382</p>
        </triangles>
        <triangles count="48" material="m1">
          <input semantic="VERTEX" source="#vertices" offset="0" />
          <input semantic="NORMAL" source="#normals" offset="1" />
          <input semantic="TEXCOORD" source="#uv" offset="2" set="0" />
          <p>111 62 186 114 62 187 113 62 188 111 63 189 112 63 190 114 63 191 112 64 192 113 64 193 116 64 194 113 65 195 115 65 196 116 65 197 114 66 198 115 66 199 113 66 200 116 67 201 114 67 202 112 67 203 115 68 204 114 68 205 117 68 206 116 69 207 118 69 208 114 69 209 114 70 210 118 70 211 117 70 212 116 71 213 119 71 214 118 71 215 116 72 216 117 72 217 119 72 218 126 76 228 129 76 229 128 76 230 127 77 231 128 77 232 130 77 233 130 78 234 133 78 235 129 78 236 133 79 237 132 79 238 129 79 239 129 80 240 132 80 241 131 80 242 131 81 243 134 81 244 130 81 245 115 146 438 117 146 439 116 146 440 126 150 450 127 150 451 129 150 452 127 151 453 130 151 454 129 151 455 131 152 456 128 152 457 129 152 458 130 153 459 128 153 460 131 153 461 133 154 462 130 154 463 134 154 464 131 155 465 132 155 466 134 155 467 189 189 567 190 189 568 193 189 569 190 190 570 191 190 571 194 190 572 192 191 573 193 191 574 191 191 575 191 192 576 196 192 577 194 192 578 191 193 579 193 193 580 196 193 581 193 194 582 197 194 583 196 194 584 196 195 585 195 195 586 194 195 587 190 264 792 192 264 793 191 264 794 192 265 795 189 265 796 193 265 797 190 266 798 194 266 799 193 266 800 193 267 801 194 267 802 195 267 803 193 268 804 195 268 805 197 268 806 345 357 1071 344 357 1072 343 357 1073 345 358 1074 347 358 1075 344 358 1076 346 359 1077 344 359 1078 348 359 1079 347 360 1080 348 360 1081 350 360 1082 344 361 1083 349 361 1084 348 361 1085 344 362 1086 350 362 1087 349 362 1088 348 363 1089 349 363 1090 351 363 1091 343 442 1326 344 442 1327 346 442 1328 345 443 1329 346 443 1330 347 443 1331 346 444 1332 348 444 1333 347 444 1334 347 445 1335 350 445 1336 344 445 1337 350 446 1338 348 446 1339 351 446 1340</p>
        </triangles>
      </mesh>
    </geometry>
  </library_geometries>
  <library_visual_scenes>
    <visual_scene id="Scene">
      <node id="Node" type="NODE">
        <instance_geometry url="#geometry">
          <bind_material>
            <technique_common>
              <instance_material symbol="m0" target="#m0">
                <bind_vertex_input semantic="UVSET0" input_semantic="TEXCOORD" input_set="0" />
              </instance_material>
              <instance_material symbol="m1" target="#m1">
                <bind_vertex_input semantic="UVSET0" input_semantic="TEXCOORD" input_set="0" />
              </instance_material>
              <instance_material symbol="m2" target="#m2">
                <bind_vertex_input semantic="UVSET0" input_semantic="TEXCOORD" input_set="0" />
              </instance_material>
              <instance_material symbol="m3" target="#m3">
                <bind_vertex_input semantic="UVSET0" input_semantic="TEXCOORD" input_set="0" />
              </instance_material>
              <instance_material symbol="m4" target="#m4">
                <bind_vertex_input semantic="UVSET0" input_semantic="TEXCOORD" input_set="0" />
              </instance_material>
              <instance_material symbol="m5" target="#m5">
                <bind_vertex_input semantic="UVSET0" input_semantic="TEXCOORD" input_set="0" />
              </instance_material>
            </technique_common>
          </bind_material>
        </instance_geometry>
      </node>
    </visual_scene>
  </library_visual_scenes>
  <scene>
    <instance_visual_scene url="#Scene" />
  </scene>
</COLLADA>