<?xml version='1.0' encoding='utf-8'?>
<COLLADA xmlns="http://www.collada.org/2005/11/COLLADASchema" version="1.4.1">
  <asset>
    <created>2026-09-15T00:00:00Z</created>
    <modified>2026-09-15T00:00:00Z</modified>
    <unit name="meter" meter="1" />
    <up_axis>Z_UP</up_axis>
  </asset>
  <library_images />
  <library_effects>
    <effect id="e0">
      <profile_COMMON>
        <technique sid="common">
          <phong>
            <ambient>
              <color>0.1755 0.18 0.1485 1</color>
            </ambient>
            <diffuse>
              <color>0.39 0.4 0.33 1</color>
            </diffuse>
            <specular>
              <color>0.02 0.02 0.02 1</color>
            </specular>
            <shininess>
              <float>8</float>
            </shininess>
          </phong>
        </technique>
      </profile_COMMON>
    </effect>
    <effect id="e1">
      <profile_COMMON>
        <technique sid="common">
          <phong>
            <ambient>
              <color>0.045 0.09 0.06075 1</color>
            </ambient>
            <diffuse>
              <color>0.1 0.2 0.135 1</color>
            </diffuse>
            <specular>
              <color>0.02 0.02 0.02 1</color>
            </specular>
            <shininess>
              <float>8</float>
            </shininess>
          </phong>
        </technique>
      </profile_COMMON>
    </effect>
    <effect id="e2">
      <profile_COMMON>
        <technique sid="common">
          <phong>
            <ambient>
              <color>0.0765 0.1215 0.0765 1</color>
            </ambient>
            <diffuse>
              <color>0.17 0.27 0.17 1</color>
            </diffuse>
            <specular>
              <color>0.02 0.02 0.02 1</color>
            </specular>
            <shininess>
              <float>8</float>
            </shininess>
          </phong>
        </technique>
      </profile_COMMON>
    </effect>
    <effect id="e3">
      <profile_COMMON>
        <technique sid="common">
          <phong>
            <ambient>
              <color>0.099 0.1395 0.09225 1</color>
            </ambient>
            <diffuse>
              <color>0.22 0.31 0.205 1</color>
            </diffuse>
            <specular>
              <color>0.02 0.02 0.02 1</color>
            </specular>
            <shininess>
              <float>8</float>
            </shininess>
          </phong>
        </technique>
      </profile_COMMON>
    </effect>
    <effect id="e4">
      <profile_COMMON>
        <technique sid="common">
          <phong>
            <ambient>
              <color>0.054 0.1035 0.09 1</color>
            </ambient>
            <diffuse>
              <color>0.12 0.23 0.2 1</color>
            </diffuse>
            <specular>
              <color>0.02 0.02 0.02 1</color>
            </specular>
            <shininess>
              <float>8</float>
            </shininess>
          </phong>
        </technique>
      </profile_COMMON>
    </effect>
    <effect id="e5">
      <profile_COMMON>
        <technique sid="common">
          <phong>
            <ambient>
              <color>0.126 0.1485 0.0855 1</color>
            </ambient>
            <diffuse>
              <color>0.28 0.33 0.19 1</color>
            </diffuse>
            <specular>
              <color>0.02 0.02 0.02 1</color>
            </specular>
            <shininess>
              <float>8</float>
            </shininess>
          </phong>
        </technique>
      </profile_COMMON>
    </effect>
  </library_effects>
  <library_materials>
    <material id="m0" name="m0">
      <instance_effect url="#e0" />
    </material>
    <material id="m1" name="m1">
      <instance_effect url="#e1" />
    </material>
    <material id="m2" name="m2">
      <instance_effect url="#e2" />
    </material>
    <material id="m3" name="m3">
      <instance_effect url="#e3" />
    </material>
    <material id="m4" name="m4">
      <instance_effect url="#e4" />
    </material>
    <material id="m5" name="m5">
      <instance_effect url="#e5" />
    </material>
  </library_materials>
  <library_geometries>
    <geometry id="geometry" name="forest_21_23">
      <mesh>
        <source id="positions">
          <float_array id="positions-array" count="1620">15.30415 30.83076 11.62613 15.33018 30.81829 11.62548 15.32178 30.84922 11.62566 15.33276 30.83556 11.99696 15.33796 30.8275 11.99685 15.34164 30.83694 11.99675 15.32596 30.8267 11.81287 15.33552 30.83312 11.81197 15.32742 30.83924 11.81107 15.32695 30.91802 12.11662 15.32854 30.91532 12.11701 15.32976 30.91801 12.11663 15.32839 30.91693 12.17691 15.32836 30.91706 12.16644 15.32828 30.91705 12.17603 15.27828 30.80289 12.1173 15.46211 30.92458 12.10527 15.25765 31.02647 12.12198 15.32841 30.91709 12.05275 15.32791 30.91734 12.05885 15.3284 30.91708 12.06612 15.32467 30.82919 11.85384 15.33515 30.82968 11.85804 15.32642 30.83888 11.85775 15.17896 30.70425 12.05626 15.18158 30.70247 12.05666 15.18088 30.70514 12.05729 15.19655 30.71058 12.05841 15.1806 30.70374 12.10651 15.18029 30.70381 12.1149 15.19016 30.79564 12.06813 15.19191 30.69406 12.00003 15.18643 30.70929 12.01846 15.18061 30.7037 12.00069 15.32561 30.83814 11.82326 15.32844 30.82573 11.82211 15.33467 30.83305 11.81962 15.44814 30.83243 11.97762 15.45036 30.83049 11.97671 15.45021 30.83338 11.97679 15.44956 30.83188 12.03403 15.44956 30.83188 12.0292 15.33437 30.82905 12.00739 15.45145 30.83104 11.93352 15.45047 30.83243 12.03121 15.39886 30.75289 11.97464 15.45046 30.83387 11.94056 15.44957 30.83187 11.91586 15.32515 30.8345 11.86811 15.32932 30.8279 11.87546 15.3332 30.8377 11.87202 15.15159 30.98761 11.99452 15.15162 30.98526 11.99606 15.15353 30.98757 11.99598 15.15219 30.98696 12.07002 15.29018 31.05329 11.9847 15.15224 30.9868 12.05894 15.07635 30.88304 11.99215 15.15243 30.98681 12.0698 15.04769 31.112 11.98954 15.15219 30.98682 11.93171 15.1526 30.98622 11.92351 15.15219 30.98679 11.92155 15.3234 30.82932 11.80891 15.33264 30.82783 11.80823 15.33056 30.83836 11.81247 15.33021 30.70455 11.97462 15.33309 30.70365 11.97422 15.33175 30.70611 11.97523 15.33187 30.70467 12.01638 15.33209 30.70457 12.03185 15.26741 30.71931 11.9731 15.33788 30.5775 11.98327 15.33263 30.70387 12.0389 15.33325 30.70416 11.91403 15.37529 30.80666 11.95317 15.33187 30.70467 11.92907 15.33188 30.70467 11.92917 15.32267 30.83215 11.90389 15.33124 30.82663 11.9038 15.33054 30.83787 11.89947 15.37742 30.90846 11.99964 15.37849 30.90629 12.00022 15.38044 30.90774 11.99911 15.37981 30.90677 12.05338 15.37961 30.90923 12.04185 15.37796 30.90697 12.05476 15.3321 31.02035 11.97014 15.37781 30.90589 11.94821 15.37892 30.90762 11.9455 15.36961 30.90249 11.94969 15.32402 30.82894 11.91965 15.3348 30.82944 11.92341 15.32741 30.83936 11.92143 15.21275 30.81222 12.09328 15.21543 30.8125 12.09422 15.21411 30.81495 12.09391 15.21353 30.81296 12.17824 15.21499 30.81373 12.17736 15.07612 30.82261 12.08963 15.21301 30.81378 12.17871 15.21386 30.81358 12.0138 15.32042 30.74266 12.08157 15.21483 30.81469 12.06253 15.21409 30.81324 12.02394 15.3243 30.83625 11.83279 15.32827 30.82573 11.82856 15.33421 30.83615 11.82896 15.49624 30.71986 12.0585 15.49748 30.71777 12.05748 15.49908 30.72031 12.05753 15.49762 30.71934 12.11549 15.49714 30.71937 12.12393 15.49744 30.71971 12.12715 15.37172 30.67897 12.04178 15.51155 30.87065 12.0475 15.61108 30.66843 12.05463 15.49766 30.7196 11.99051 15.49751 30.71927 11.99546 15.49761 30.71934 12.00859 15.32666 30.82676 11.83704 15.33449 30.83597 11.83469 15.32552 30.83753 11.83297 15.29335 30.92995 11.9712 15.29532 30.92794 11.97219 15.29558 30.93068 11.97122 15.29477 30.92933 12.03249 15.29477 30.92933 12.03394 15.30195 30.92414 12.03393 15.35696 31.01106 11.98029 15.17712 30.92597 11.98629 15.33307 30.80598 11.94541 15.29511 30.93001 11.90009 15.29341 30.92987 11.89676 15.29476 30.92932 11.91532 18.16998 30.18595 17.68659 18.15137 30.17039 17.68604 18.17796 30.16603 17.6862 18.16368 30.16239 17.99838 18.1557 30.16123 17.9983 18.16164 30.15512 17.99821 18.16442 30.17083 17.90359 18.15883 30.16704 17.89856 18.16635 30.16249 17.90306 18.02024 30.12255 18.00186 18.01947 30.12062 18.00084 18.02134 30.12052 18.0022 18.02033 30.12121 18.04782 18.02024 30.12095 18.04956 18.00617 30.1446 18.00557 18.09659 30.1631 18.00998 18.02031 30.12112 17.95741 18.0204 30.12127 17.95963 18.02056 30.11891 17.98919 18.16214 30.17229 17.89042 18.15887 30.16276 17.89044 18.1672 30.16395 17.88736 18.2484 30.13892 18.00205 18.24631 30.13863 18.00282 18.24758 30.13654 18.00206 18.24742 30.13801 18.05093 18.24676 30.13747 18.05987 18.24752 30.13799 18.06121 18.30401 30.01707 18.01602 18.20213 30.25669 18.02297 18.37423 30.17822 17.99517 18.24762 30.13774 17.94304 18.24749 30.13805 17.94965 18.15714 30.10658 17.92485 18.16761 30.16962 17.82643 18.15917 30.17019 17.82528 18.16095 30.16139 17.82799 18.11858 30.27748 18.02626 18.11632 30.27678 18.02619 18.1179 30.27505 18.02687 18.11749 30.27606 18.08956 18.11932 30.2761 18.09053 18.11762 30.27643 18.07728 18.07425 30.38931 18.02788 18.23466 30.27083 18.01738 18.0541 30.25713 18.00258 18.11762 30.27643 17.98042 18.11758 30.27646 17.97752 18.16467 30.17151 17.9044 18.15749 30.16453 17.90263 18.16802 30.16452 17.90327 18.1404 30.09881 18.09254 18.13979 30.09661 18.09209 18.14228 30.09694 18.09231 18.14085 30.09746 18.13933 18.14151 30.09554 18.15213 18.13318 30.17098 18.13257 18.14073 30.09747 18.14826 18.08616 30.02907 18.07665 18.2551 30.09053 18.07387 18.14085 30.09746 18.033 18.14179 30.09924 18.04123 18.14075 30.09754 18.03731 18.16148 30.1714 17.90081 18.16233 30.16264 17.90577 18.16641 30.16446 17.89996 18.32449 30.26459 17.97601 18.32379 30.26348 17.97756 18.32544 30.26235 17.97646 18.32567 30.26302 18.03157 18.32457 30.26349 18.033 18.32458 30.26348 18.04745 18.25547 30.22864 18.0343 18.3421 30.39014 17.97379 18.41233 30.20597 17.92118 18.21847 30.23172 17.93734 18.32458 30.26343 17.91564 18.32459 30.26348 17.9181 18.32459 30.2635 17.92303 18.16224 30.17233 17.83379 18.15896 30.16279 17.83349 18.16703 30.16387 17.83696 18.01273 30.20885 18.00888 18.01166 30.20723 18.0086 18.01375 30.20663 18.0096 18.01283 30.20746 18.0697 18.018 30.20987 18.04987 18.0128 30.2079 18.06952 17.90647 30.19114 17.99992 18.05069 30.10357 18.01285 18.01282 30.2074 17.95254 18.01288 30.20749 17.95118 18.01432 30.207 17.95941 18.1618 30.17198 17.86932 18.15865 30.16271 17.86754 18.16776 30.16431 17.86614 18.22975 30.07896 18.04484 18.23015 30.07674 18.04419 18.23199 30.07784 18.04411 18.23062 30.07801 18.09355 18.23062 30.07802 18.09372 18.26708 29.9662 18.05777 18.22858 30.07854 18.10847 18.22748 30.07868 18.00956 18.3269 30.11167 18.04399 18.21033 30.14058 18.0237 18.23078 30.07797 17.98634 18.16156 30.17109 17.84307 18.15806 30.16375 17.84654 18.16859 30.16465 17.84546 18.18431 30.31596 18.01851 18.18372 30.31377 18.01952 18.18597 30.31428 18.01914 18.18489 30.31405 18.07721 18.18465 30.31469 18.06216 18.26402 30.34336 18.02012 18.12035 30.27083 18.01393 18.18371 30.31594 18.04392 18.18471 30.31442 17.96958 18.18393 30.31595 17.96338 18.18464 30.3147 17.97876 18.16617 30.16765 17.88838 18.15842 30.16956 17.88331 18.16379 30.16184 17.88271 18.04713 30.07545 17.95976 18.04593 30.07449 17.95817 18.04756 30.07344 17.95883 18.04645 30.07366 18.01471 18.04654 30.07472 18.0198 18.11897 30.01408 17.95277 18.06464 30.0887 18.03359 17.96307 30.06318 17.93922 18.04682 30.07452 17.90257 18.04745 30.07653 17.89897 18.04682 30.07462 17.89867 19.4748 31.42909 11.62602 19.49494 31.42426 11.62555 19.4844 31.4447 11.62569 19.49416 31.43676 11.89218 19.49902 31.43189 11.89211 19.50018 31.43906 11.89203 19.48691 31.43446 11.75894 19.49338 31.43003 11.75757 19.49527 31.43759 11.76022 19.48308 31.32565 11.92298 19.48467 31.32416 11.9225 19.48504 31.32607 11.92317 19.48426 31.32527 11.97601 19.48426 31.32528 11.97114 19.48427 31.32528 11.97692 19.37597 31.33773 11.92996 19.47624 31.25 11.94106 19.57071 31.3993 11.93246 19.48427 31.32527 11.87762 19.48423 31.32551 11.86914 19.48418 31.32528 11.86227 19.48729 31.4352 11.75851 19.49482 31.43025 11.75817 19.4927 31.43863 11.75696 19.55173 31.5023 11.94585 19.55379 31.50161 11.94564 19.55365 31.50324 11.94535 19.55475 31.50329 12.00202 19.55364 31.5016 11.97244 19.55085 31.50187 11.98225 19.51678 31.60258 11.93441 19.60778 31.51823 11.90071 19.5529 31.50241 11.907 19.55284 31.50239 11.89678 19.55267 31.50179 11.89765 19.48931 31.43091 11.78095 19.49554 31.43425 11.78498 19.48928 31.43765 11.78126 19.3432 31.42185 11.90529 19.34476 31.42237 11.90629 19.34377 31.42396 11.90575 19.34389 31.4227 11.94991 19.34391 31.42274 11.94718 19.44483 31.45354 11.91645 19.35422 31.52082 11.90408 19.25149 31.46786 11.91205 19.34393 31.42272 11.94527 19.30656 31.33072 11.91564 19.371 31.3536 11.86372 19.3439 31.42273 11.87018 19.34389 31.42273 11.86528 19.34386 31.42273 11.86714 19.48869 31.43032 11.80899 19.49624 31.43541 11.80821 19.48896 31.43723 11.81071 19.53325 31.39427 11.88972 19.53457 31.39308 11.88904 19.53532 31.39504 11.88935 19.53833 31.39661 11.9304 19.63391 31.40542 11.89062 19.52948 31.391 11.91399 19.48756 31.37266 11.88425 19.53035 31.39966 11.85527 19.53438 31.39415 11.85841 19.53439 31.39411 11.84832 19.48797 31.43119 11.78974 19.49528 31.43122 11.79026 19.49303 31.43833 11.78762 19.46778 31.54265 11.95104 19.46933 31.54155 11.95153 19.46991 31.54344 11.95092 19.46906 31.54257 11.98574 19.46898 31.54268 11.99105 19.469 31.54257 11.98611 19.38122 31.49497 11.96165 19.52733 31.47259 11.95954 19.51441 31.60023 11.93474 19.46923 31.54232 11.90512 19.46884 31.54258 11.91236 19.46901 31.54257 11.91944 19.49024 31.42991 11.74875 19.49622 31.43539 11.7512 19.4902 31.43843 11.75087 19.43726 31.35851 11.90541 19.43903 31.3592 11.9059 19.43744 31.36064 11.90597 19.43789 31.35947 11.94811 19.43789 31.35946 11.95437 19.5393 31.36789 11.90549 19.43787 31.35944 11.95345 19.36024 31.41341 11.90584 19.40917 31.24329 11.89356 19.43785 31.35945 11.85554 19.43789 31.35946 11.85033 19.43789 31.35946 11.86107 19.48818 31.43685 11.81587 19.49314 31.42954 11.81468 19.4959 31.4353 11.81311 19.56014 31.45017 11.90931 19.56163 31.45015 11.90875 19.56087 31.4522 11.90884 19.56084 31.451 11.94793 19.56536 31.45205 11.94852 19.56404 31.44822 11.8895 19.62157 31.44246 11.90121 19.55879 31.45214 11.91738 19.56081 31.45128 11.86625 19.56084 31.45098 11.86612 19.48781 31.43591 11.77559 19.49209 31.4293 11.77805 19.49567 31.4371 11.77792 19.36429 31.49837 11.98045 19.36627 31.49757 11.98122 19.36576 31.49937 11.98076 19.362 31.50328 12.02058 19.3654 31.49837 12.02954 19.36537 31.49811 12.02383 19.41213 31.423 11.9692 19.36495 31.50038 11.93779 19.27744 31.51474 11.98061 19.36538 31.4981 11.93636 19.36542 31.49808 11.93966 19.48726 31.43277 11.82868 19.49627 31.43301 11.82727 19.49327 31.43784 11.83061 19.53005 31.30193 11.94697 19.53152 31.3009 11.94612 19.53226 31.30244 11.94688 19.5314 31.30503 11.96475 19.57009 31.29223 11.98051 19.53137 31.30184 12.00513 19.53121 31.30174 12.01452 19.49587 31.26694 11.94276 19.53122 31.30193 11.88275 19.53124 31.30148 11.88536 19.47297 31.42496 11.6261 19.49941 31.42474 11.6255 19.48042 31.44712 11.62567 19.49483 31.44006 11.96575 19.50228 31.43539 11.96566 19.50166 31.44465 11.96556 19.48623 31.43624 11.81787 19.49575 31.43084 11.81705 19.49646 31.44096 11.81579 19.56614 31.49268 12.07538 19.56845 31.49121 12.07521 19.5682 31.49408 12.07492 19.56764 31.49266 12.12845 19.56769 31.49294 12.14344 19.55423 31.45794 12.11141 19.43901 31.53117 12.09301 19.65043 31.59614 12.04996 19.56752 31.49287 12.00689 19.50501 31.43415 12.02163 19.56771 31.49264 12.01595 19.48791 31.43338 11.83535 19.49708 31.4327 11.83914 19.49109 31.44208 11.83637 19.32366 31.4497 12.0469 19.32561 31.44791 12.04777 19.32576 31.45066 12.04774 19.32577 31.44943 12.10751 19.30658 31.55944 12.04434 19.32389 31.44961 12.08453 19.42748 31.41956 12.0377 19.32607 31.44863 11.99089 19.32457 31.44952 11.99756 19.32583 31.4439 12.04147 19.48685 31.43599 11.84495 19.49561 31.43069 11.84207 19.49542 31.44169 11.84475 19.55047 31.35819 12.01204 19.55274 31.35698 12.01133 19.55309 31.35942 12.01186 19.55206 31.35822 12.0696 19.55207 31.35821 12.06786 19.61857 31.39626 12.06084 19.55204 31.35813 12.07727 19.58852 31.23175 12.00864 19.47563 31.44936 11.9674 19.44334 31.36508 12.02798 19.5528 31.36032 11.94628 19.55208 31.35822 11.96053 19.55206 31.35819 11.94694 19.49328 31.43126 11.8294 19.49774 31.43892 11.8252 19.48844 31.43975 11.82466 19.48836 31.64261 12.01972 19.49082 31.64165 12.02027 19.49034 31.64392 12.01901 19.48987 31.64272 12.06513 19.48991 31.64273 12.07042 19.52585 31.76381 12.03842 19.48987 31.64273 12.06802 19.49655 31.61484 12.0783 19.44713 31.75531 12.00798 19.60071 31.56987 12.00444 19.48486 31.64 11.98011 19.48985 31.64273 11.96099 19.48987 31.64272 11.95833 19.4903 31.43128 11.81544 19.49897 31.43584 11.81902 19.48873 31.44097 11.81766 19.41607 31.36017 11.96206 19.41768 31.35847 11.96203 19.41875 31.36058 11.96289 19.41468 31.35958 11.9753 19.41956 31.35753 12.02521 19.41769 31.35983 12.01539 19.56319 31.42174 11.9574 19.3637 31.44034 11.95671 19.41722 31.3605 11.90351 19.41756 31.35994 11.91373 19.41903 31.35656 11.95092 19.48871 31.43709 11.89066 19.49381 31.42996 11.88682 19.49543 31.44118 11.88518 19.59231 31.43877 11.95315 19.59398 31.43979 11.95178 19.59271 31.44157 11.95274 19.593 31.44003 11.99863 19.59343 31.44039 12.01209 19.65966 31.5387 11.94922 19.59317 31.43989 12.00998 19.58887 31.44232 11.94829 19.58563 31.44776 11.9357 19.61944 31.43582 11.94247 19.48952 31.43096 11.77736 19.4991 31.43604 11.77865 19.48933 31.44105 11.77589 19.41558 31.48748 11.96485 19.41694 31.48596 11.96535 19.41822 31.48846 11.96526 19.41744 31.48729 12.03912 19.41655 31.48659 12.02516 19.45046 31.58506 11.94868 19.41613 31.48798 12.03358 19.48839 31.42441 11.92945 19.41549 31.48739 11.90804 19.41698 31.48744 11.89826 19.41704 31.48746 11.89715 19.49281 31.43042 11.81641 19.49898 31.43702 11.81818 19.48741 31.43879 11.81901 19.50228 31.33124 11.99883 19.50321 31.33383 11.99958 19.50093 31.33332 11.99949 19.50252 31.33176 12.06558 19.50226 31.33264 12.04741 19.50224 31.33272 12.05806 19.38982 31.36886 12.0026 19.57239 31.41971 11.99567 19.51203 31.21916 11.98667 19.50199 31.33254 11.93562 19.50226 31.33267 11.94494 19.5022 31.33273 11.94726 19.48956 31.43054 11.87802 19.49873 31.43603 11.87616 19.49021 31.4418 11.87604 19.5271 31.49658 12.06197 19.52923 31.49514 12.062 19.5294 31.49796 12.06151 19.5286 31.49657 12.11813 19.52961 31.4974 12.13322 19.51517 31.52797 12.11691 19.5933 31.41788 12.09521 19.43788 31.45245 12.02824 19.5288 31.499 11.9815 19.53575 31.48935 11.9912 19.52854 31.49658 11.98652</float_array>
          <technique_common>
            <accessor source="#positions-array" count="540" stride="3">
              <param name="X" type="float" />
              <param name="Y" type="float" />
              <param name="Z" type="float" />
            </accessor>
          </technique_common>
        </source>
        <source id="normals">
          <float_array id="normals-array" count="1872">-0.8379891 -0.5409631 0.07164588 0.9640605 0.2621955 -0.04290491 -0.7220201 0.6902901 0.04676011 -0.8619978 -0.4846639 0.1485286 0.5569016 -0.7986781 0.2279779 0.003688613 0.9683288 -0.2496513 -0.01461141 -0.9909894 -0.133141 -0.3829292 0.5017754 -0.7756202 0.7100012 0.05082637 0.7023638 -0.2534149 -0.6290969 0.7348591 0.8521352 0.5211509 0.04761723 0.2059839 -0.8885864 -0.4098596 0.7735437 0.05226966 0.6315837 -0.9954288 0.0876057 -0.0380358 0.9952909 -0.07692378 0.0589813 0.9213441 0.163152 -0.3528549 -0.7663453 -0.2301218 0.599799 0.5979871 -0.6624466 -0.4511939 0.8043034 0.05775455 -0.5914056 0.1498811 0.4950133 -0.8558607 0.4968564 0.04802204 0.8665031 0.8456758 -0.5335474 0.01263346 -0.7957053 0.5950303 0.1131017 -0.7387011 -0.3748971 -0.5601543 0.593418 0.0467811 0.8035338 0.3613514 0.8121187 -0.4581358 -0.1552379 -0.5749189 -0.8033489 0.6628808 0.07451467 -0.7450078 -0.5830393 0.7155006 -0.3848689 0.5532094 0.07869092 0.8293172 0.7657834 0.6430467 -0.008170279 -0.6371568 0.6939605 0.3353356 -0.1707449 -0.7891864 -0.5899415 -0.7206701 0.5354759 0.440341 0.9087065 -0.4149596 -0.04539918 0.3496321 -0.5965336 -0.72243 0.5779593 0.2310537 -0.7826731 0.9986231 0.05069789 -0.0134756 0.9949556 0.07205878 -0.06979195 -0.9358137 0.108711 -0.3353128 0.6651348 0.3767895 0.6446902 -0.8829297 0.1999162 0.4248161 0.4594139 -0.3847372 0.8005724 -0.2128065 -0.9770035 0.01332476 -0.7643492 -0.2145541 0.6080599 0.08437228 0.7954955 -0.6000569 -0.6493437 0.7306423 -0.210985 0.07457433 0.996037 -0.04846687 -0.9997877 0.00817741 0.01891439 0.9446119 0.3160062 -0.08859127 -0.9261382 -0.3758916 0.03120155 0.0650112 -0.996408 -0.05426461 0.7095305 0.4519415 0.5406619 -0.7619461 0.4823077 -0.4322239 -0.05860699 -0.9982473 -0.008220733 0.2823184 0.8969918 -0.3401499 -0.5627659 -0.8265937 -0.006106625 0.2934298 0.8531244 0.4313671 -0.5471804 -0.8368732 -0.01538779 -0.8055499 -0.4557629 0.3786416 0.6410424 -0.3930721 -0.6592109 0.1488112 0.9211895 0.3595346 -0.2868663 0.9573563 -0.03430112 0.2943297 -0.9554834 0.02052851 0.3389452 0.9320719 -0.1278984 -0.608614 -0.3250346 -0.7238381 0.5992002 -0.416726 -0.6835924 0.06540367 0.8522879 -0.518968 0.4480051 -0.351392 0.8220797 -0.001735384 0.7568206 0.6536204 -0.2857519 0.956659 0.05612003 -0.4121657 -0.9110707 0.00834282 0.4045023 0.9144258 0.0142573 -0.7506875 -0.6004737 0.2754988 0.9621403 0.002304999 0.272545 0.2407417 0.8282932 -0.5059385 -0.1490452 -0.4492527 -0.8808845 0.3241322 0.4500235 -0.8321161 0.3898708 -0.790692 0.4720243 -0.8701709 0.2362025 0.4324476 -0.7849159 -0.01390601 0.6194462 0.47754 0.3454738 0.8078387 -0.4310425 -0.9017862 0.03136916 0.9316329 -0.3632492 -0.01049633 -0.1525552 0.9874501 0.04085491 0.9088333 -0.3970966 0.1278138 0.6045957 0.7701811 -0.2031872 -0.993297 0.1115562 -0.03027142 -0.3522016 -0.5873048 -0.728716 -0.05063625 0.9986431 0.01215928 0.6791952 0.07796938 -0.7298045 -0.9145855 0.4043253 -0.00737204 -0.8999771 0.4292147 0.07626258 -0.2702032 0.4900755 0.8287438 -0.05624078 0.998417 0.0006295399 -0.3498711 -0.6634625 -0.661368 0.5041738 0.500936 0.7034713 -0.4983461 0.8431961 0.2016717 -0.8514263 0.3210592 -0.4147219 -0.2705843 0.9619696 0.03739727 -0.9471472 -0.03468783 -0.3189183 0.8011295 0.5562104 -0.2209561 -0.9555445 -0.1033342 0.2761464 -0.6176577 -0.7425419 0.2590957 -0.495728 -0.7632021 0.414459 0.3813411 0.8803218 -0.2821567 -0.3051473 0.9114457 0.2759564 0.06432477 -0.9826469 -0.1739754 -0.02468821 0.9996949 0.0007529383 0.8835515 -0.3617081 -0.2974962 0.03236552 -0.9993504 -0.0158522 -0.8334421 0.5523677 -0.01625434 -0.9474978 -0.3197241 -0.004930912 -0.7200998 -0.6672189 -0.1904606 0.3628599 -0.2730355 0.8909457 0.07853376 0.6861232 -0.723234 -0.2146225 0.6811739 -0.6999566 0.4311337 -0.9022614 -0.006939006 -0.7690793 -0.6391292 0.005569473 -0.5453497 0.7048284 0.4536637 -0.1125289 -0.5338415 0.8380636 0.8077454 -0.5895299 0.001373876 -0.3179591 -0.7636531 -0.5619039 0.9826014 0.14997 0.1095606 0.8867068 0.3619742 0.2876208 -0.7905014 0.4732148 0.3888126 0.9073525 -0.4090984 0.09669447 0.2622833 0.9628664 0.06399903 -0.38529 -0.6097969 0.6926034 0.665379 -0.7020074 0.2538828 0.9150773 -0.09438897 -0.3920769 -0.8503432 -0.4890344 -0.1943239 -0.3834764 0.9235506 -0.0004105294 -0.8359548 -0.2392913 -0.4938818 0.4208104 -0.02338309 0.9068472 0.1109311 -0.9936065 -0.02098609 0.6417546 0.5785271 0.5034456 -0.8050738 0.3447162 -0.4827286 -0.04580109 -0.9985433 -0.02852143 -0.5811342 0.2008474 -0.7886339 0.4475152 0.6403027 -0.6242937 -0.05235975 -0.9983451 0.02378262 -0.5681574 -0.8218628 0.04169675 -0.7589012 -0.5856431 0.2847652 0.6644769 -0.3534396 -0.6584458 0.01432964 0.8930997 0.4496305 -0.5589567 -0.2472274 0.7914834 0.7125467 -0.4722701 0.5188817 -0.2456141 0.7784397 -0.5776724 -0.9802753 -0.1515605 -0.1268452 -0.7944222 0.6073498 0.00442029 0.2947005 -0.6708957 -0.6804782 -0.821305 0.1873033 -0.5388651 0.287213 0.6216159 -0.7287677 -0.01035598 0.9994945 0.03005829 0.9518781 0.3044017 0.03560573 -0.1446829 0.9868808 0.07164588 -0.1612657 -0.985978 -0.04290491 0.9275783 0.3706913 0.04676011 -0.6063535 0.5455241 -0.5785662 -0.1483404 -0.8087146 -0.5691888 0.5480831 0.07431649 0.8331159 0.9734067 -0.228721 0.01288847 0.867892 0.4964986 -0.01589174 -0.495673 0.8679248 -0.03185497 0.1526302 -0.8613292 0.4845782 -0.7814486 -0.6197171 0.07272466 -0.5156016 0.8538938 0.07085418 -0.02354742 0.9527034 0.3029881 -0.6994048 -0.5782661 0.4200491 0.04137912 -0.9648426 -0.2595505 0.7203016 0.5777467 -0.3838937 0.2873859 -0.9571098 -0.0367454 -0.4742035 0.09334538 -0.8754528 0.6562104 0.513428 -0.5529735 -0.4440031 0.3025606 0.8433969 -0.1199014 -0.5546735 0.8233838 0.1205021 0.8856382 -0.4484688 -0.7630859 -0.6182963 0.1881747 0.7342611 -0.5086267 0.4496216 -0.9300906 -0.3667065 -0.02139452 0.009025492 0.9982914 -0.05773043 -0.4608239 -0.5630764 -0.685993 0.8092928 -0.01095193 -0.5873033 -0.06070331 0.9835984 -0.1698508 -0.1033065 0.8967522 0.430306 0.932564 0.3609476 -0.006422322 0.1518633 -0.9348513 -0.3209215 0.8867924 0.3835413 0.2578668 0.8277721 -0.5468592 -0.125453 -0.5548654 -0.265669 -0.7883809 0.8130425 -0.0404919 -0.5807945 -0.2289526 -0.7758984 0.5878455 0.8036464 -0.4288579 0.4125934 0.7952338 -0.6040495 0.0522248 -0.1388571 -0.9644764 0.2247308 -0.5724177 0.7667308 0.290623 0.0632451 -0.6439825 0.7624215 0.4323888 0.002267743 -0.9016844 -0.3594499 0.6834183 -0.6354016 0.7819659 -0.5376217 -0.3154238 0.1301725 0.9913244 -0.01819311 -0.8138649 -0.1499845 -0.5613632 -0.5485705 -0.8358903 0.01891498 -0.5482906 -0.83628 0.003636645 0.2366923 -0.3894666 0.8901082 0.2879912 -0.957592 0.008868139 -0.6029036 0.5025558 -0.6196329 0.0195007 -0.9663149 0.2566229 0.6828279 0.561749 0.4671019 0.5568787 -0.267931 -0.7861928 0.1865731 -0.9812334 -0.04869788 0.1546469 -0.9876534 0.025001 -0.9345913 -0.2425086 0.2602474 0.08371467 -0.8822575 -0.463264 0.7915902 0.6109505 0.01115633 -0.3669324 0.9264924 -0.08350073 0.9445471 0.3282205 -0.01009837 0.9630257 0.2692094 -0.0103842 -0.2745834 -0.5572898 0.783602 -0.9182904 0.3554155 -0.1744207 0.1300999 -0.7585132 0.6385388 0.7024986 0.5029023 -0.5035722 0.3050991 -0.9501013 -0.06497712 0.6044728 -0.7919958 -0.08576312 -0.4481078 0.8701888 0.2048678 0.3232946 -0.946298 0.0008103218 0.5743425 -0.8180805 0.02958 -0.6385109 0.7694094 0.01769147 -0.06355214 -0.601944 -0.7960053 0.7007966 -0.6245524 0.3447006 0.05839595 0.7527392 -0.6557237 0.3034837 0.838971 -0.4516916 0.186052 -0.9803975 0.06484885 0.1794179 0.746439 0.6408105 0.6338186 0.7732245 0.01994779 -0.5677634 0.05711814 0.8212078 -0.6417903 0.7662384 0.03136916 -0.7169299 -0.6970663 -0.01049633 0.9617874 -0.2707321 0.04085491 -0.4267221 0.8837904 -0.1918926 0.1200508 -0.9650449 -0.2329723 0.4339661 0.3731652 0.8200129 0.1960418 -0.8361399 -0.5122868 0.8790288 0.4760632 0.02592732 -0.7361596 0.2539279 0.6273672 0.7597946 -0.2619429 -0.5950614 -0.3006224 0.953734 0.004210516 0.8341956 0.1478149 -0.5312894 -0.3208082 -0.3993181 -0.8588522 0.8125531 0.1281594 -0.5686234 -0.04408935 -0.5373282 0.84222 -0.3071366 0.3832652 0.8710768 0.2852738 -0.957114 0.05051337 -0.2442186 0.8340913 -0.4946201 -0.9708016 -0.2228289 -0.08883401 0.9287991 -0.1789924 0.3244902 0.9430533 0.3127892 -0.1131961 -0.3029248 -0.4829389 0.8215879 0.3820711 -0.2295938 0.8951583 -0.7085672 0.684117 0.1729637 -0.9640542 0.2656556 0.005161065 0.01921118 -0.9423001 -0.3342176 0.6848565 0.6456413 0.3378149 0.9837339 0.0652811 -0.1673502 -0.7761971 0.6303998 -0.01068748 -0.3044198 0.8144553 -0.4939546 -0.2225269 0.6446637 0.7313621 0.7895477 -0.6130166 0.02872347 -0.5596239 0.3671296 0.7429919 0.4956214 -0.8651439 0.07671669 0.2563077 0.2946266 -0.9205985 -0.8079173 -0.1541258 -0.5687836 0.2041911 -0.4376189 -0.8756687 0.450268 -0.8928931 -0.0007992479 -0.4409208 0.895797 -0.0560042 -0.2034602 -0.3398728 0.9181996 0.1154052 0.2683841 0.9563742 -0.7046071 0.2624138 -0.6592934 -0.2795389 -0.9600967 0.008501681 0.7105052 0.4907492 0.5043289 -0.942796 -0.1960861 -0.2696032 0.3985256 0.5477829 -0.7356027 -0.9498197 -0.3090209 0.04846315 0.2663251 0.5549453 0.7881032 0.9235227 0.3772149 0.06938873 -0.9543647 -0.2575667 0.1511532 0.1147824 -0.989997 -0.08204264 -0.8692819 0.2096695 0.4476468 0.4233788 -0.7453684 -0.5149528 0.4975642 0.8312568 0.2478749 0.950514 0.3106722 -0.002420558 -0.4881507 0.1187881 -0.8646376 -0.9545241 -0.2725155 -0.1209089 -0.1018963 -0.8131665 -0.5730423 0.9193557 0.3748668 0.1194151 -0.5662756 0.3054152 0.7655413 -0.9705485 0.233652 -0.05867145 0.269713 -0.7427259 0.6128728 0.6655934 0.5308093 -0.5246207 0.5851317 -0.8097526 -0.04383772 -0.4398181 0.884536 -0.1554227 0.5795069 -0.8149659 0.001521813 -0.476023 0.8378609 0.2671912 -0.5259156 0.8454281 0.09308119 -0.2163857 0.7568587 0.6167188 -0.4088582 -0.2146503 -0.886995 0.6198514 -0.2163117 0.7543166 0.6930701 -0.2199117 -0.6865076 0.06244126 0.9768567 -0.2045778 -0.7127175 -0.684581 0.1529138 0.1018118 0.8606794 0.498864 -0.7060978 -0.7044805 0.07164588 0.8877605 0.4583017 -0.04290492 -0.8505861 0.5237526 0.04676011 -0.6848747 -0.599768 -0.4137935 0.9731424 -0.213636 -0.08575301 -0.2277204 0.8101819 0.5401377 0.6499082 -0.7600107 -0.001772939 0.4003543 0.3504873 -0.8466848 0.2386017 -0.7781393 0.5810065 0.4678389 0.6150487 0.6346982 -0.7471941 0.49814 0.4399517 -0.99376 0.111361 0.006315852 -0.4804621 -0.7601034 0.4374917 -0.2511376 -0.8757262 0.4123513 0.9162347 0.1797227 -0.3580695 -0.4649195 0.8727377 -0.1489252 -0.6917538 -0.568098 -0.4458042 0.102904 0.9946905 0.001237575 -0.3425551 0.9386057 -0.0409314 0.944141 0.3289349 0.01998967 -0.2861285 0.9581713 0.006188822 0.2824641 -0.9575973 0.05675756 -0.2770127 0.9608657 -0.001026613 0.03135874 -0.341493 0.939361 0.9220574 0.2097048 0.3253215 0.301166 -0.9091294 0.2877198 0.5010205 0.5407719 0.6756805 0.2501684 0.886245 0.3898533 -0.6321372 0.3256643 -0.703097 0.2886942 -0.9573523 -0.01149623 0.1419148 -0.4107072 -0.9006552 0.4400028 0.8979862 -0.004288543 0.3923409 0.1336959 -0.9100517 -0.2916042 0.9565371 0.001965609 -0.1601497 -0.3829794 -0.9097686 -0.3649931 0.4163964 -0.8327029 -0.5943975 0.6720515 -0.4416315 0.2640475 -0.3787127 0.8870488 -0.930969 -0.364694 -0.01717584 -0.930529 -0.3659984 0.01269174 0.825358 -0.2339131 -0.5138762 0.3247697 0.8998363 0.2912374 -0.1830844 0.9562125 -0.228337 0.07175727 -0.9962655 -0.04801931 0.4888325 -0.8680148 -0.08713822 -0.1471943 -0.8127966 0.5636448 0.4190404 -0.9079585 0.004051907 -0.03716665 -0.8275341 0.5601838 0.9379581 -0.196755 0.2855208 -0.7977427 0.4447597 -0.4071799 -0.7962028 0.6045302 -0.02458297 0.04613571 0.387982 -0.9205115 -0.7862826 -0.601047 -0.1431858 0.5353382 -0.7675578 -0.3525167 0.6081494 -0.6549174 0.4485951 0.1054809 0.6148852 0.7815305 0.7616821 0.6477374 0.01662989 0.6939153 -0.7137582 -0.09503015 0.586715 0.6192088 0.5218677 -0.9544345 0.06801428 -0.2905665 0.0808078 -0.9967191 -0.00459979 -0.1953174 -0.7635132 -0.6155476 0.5814478 0.8131596 -0.02626429 -0.4045528 0.4961183 -0.7682471 -0.08365528 0.9964935 0.001610665 0.0827854 -0.9965674 0 -0.568263 -0.8228255 0.005948114 0.04973988 -0.9825922 0.1789931 0.7543677 -0.484227 -0.4432307 0.1624248 -0.9115285 0.3778016 0.3382414 0.9385588 -0.06855767 0.1128878 0.9913517 -0.06691834 0.6406919 0.7676979 0.01240226 -0.5021002 -0.3805065 0.7766017 -0.7567718 -0.5927579 -0.2755622 0.7472894 -0.3334095 0.5748014 -0.04806481 0.94582 -0.3211143 0.1279934 -0.8482096 -0.5139633 0.4201559 0.6900693 -0.589299 -0.8429742 -0.5376598 0.01778632 -0.1478706 -0.9885701 0.02938479 0.4356719 0.5510699 0.7116965 0.3297964 -0.4557954 0.8267315 0.5764381 0.5836238 0.5719286 -0.09607439 -0.6797689 -0.7271066 0.8662171 -0.1860492 -0.4637388 0.8876124 0.4193093 0.1905882 -0.1150299 0.627914 0.7697351 -0.1148795 0.9148728 -0.3870536 -0.3270044 -0.9443249 0.03631314 0.7239154 -0.6894543 0.02448054 -0.2326033 -0.9720657 0.03136916 0.9870511 -0.1600623 -0.01049633 -0.3559922 0.9335954 0.04085491 -0.5645033 -0.6807768 -0.4667751 0.9842068 -0.1687044 -0.05362641 -0.3689696 0.7784866 0.5077598 0.2221182 -0.6739279 -0.7046167 -0.994391 0.1057657 0.0002904861 0.9944558 -0.1051389 -0.001876471 -0.6590343 0.3795809 -0.6493013 -0.09330187 -0.9950629 0.03383226 0.9935841 -0.1128086 -0.008055579 0.9506118 0.0267688 -0.3092259 -0.5533141 0.8262475 -0.105634 0.9526495 0.225342 -0.2041566 0.2111525 -0.9628721 0.1682023 -0.6489059 0.03256943 -0.7601713 0.5545787 0.2435236 0.7957002 -0.3124422 -0.2523825 0.9157963 -0.9945752 0.1040054 0.001742957 0.5135501 0.1825449 0.8384173 -0.4377457 -0.2522177 0.8629976 -0.6615809 -0.7492474 0.03064361 0.4187543 -0.7076106 -0.5691504 -0.2031672 0.8079274 0.5531513 -0.8871863 -0.07833122 0.4547139 -0.1284451 0.9910148 0.03730268 0.1733015 0.5798252 0.7960963 -0.4083919 0.9127188 0.01266856 -0.6132699 -0.6836375 0.395651 0.9573962 0.2847956 -0.04779194 -0.3185559 0.7758838 -0.5445424 -0.4717449 0.8814572 -0.022134 -0.6000358 -0.2106578 -0.7717385 -0.6225568 0.08803294 0.7776074 0.7824314 -0.622312 0.02299516 -0.7879287 0.6154701 0.01910523 0.4092019 -0.8745688 -0.2601599 0.3641032 0.7769939 0.5135263 -0.9553703 0.1481291 -0.2555883 -0.5702801 -0.8214499 -0.0008157672 0.6208578 0.2325948 -0.7486222 0.5947706 0.1136028 0.7958281 -0.4343685 0.375261 0.8188426 -0.1966651 -0.7780751 0.5965919 -0.6369432 -0.5242159 0.5652442 0.7602681 0.3104 -0.5706525 0.1071252 0.9641269 -0.2428651 -0.7546086 0.3935961 0.5250218 -0.159079 -0.9869146 -0.02633358 -0.1498018 -0.9886579 0.01072742 0.07753718 0.9912585 0.1067455 -0.394601 -0.9166452 0.06365255 0.8350667 0.344285 0.4291053 -0.4159125 0.7691148 -0.4852621 0.206964 0.9773129 -0.04500463 -0.8516169 -0.5240287 -0.01194453 0.1875305 0.9822536 0.003200556 -0.6718038 -0.6054762 -0.4267062 -0.5842228 0.4308017 0.687818 0.7423926 -0.6686884 -0.04134081 -0.2496595 -0.9682202 -0.01482765 -0.2851371 -0.9555028 -0.0755722 -0.4267209 0.8666711 0.2584387 -0.5587353 0.8162587 0.1467536 -0.5292945 -0.8454077 0.07164588 0.7617341 0.6464676 -0.04290492 -0.946692 0.3187283 0.04676011 -0.4884906 -0.8082688 0.3287528 0.9636666 -0.09806403 -0.2484554 -0.4298424 0.9005189 -0.06558306 0.3370642 0.3066225 -0.8901519 0.07048753 -0.7001509 -0.710507 0.470822 -0.2921426 0.8324538 -0.7934365 0.5993757 0.105864 -0.7858736 0.6175498 0.03216968 -0.5400723 -0.76045 -0.3606075 0.6593212 0.5679711 0.4926504 -0.3050978 0.9115562 -0.2756459 -0.7310632 0.3365238 -0.5935473 -0.5881778 -0.4774386 -0.6527628 0.9862352 0.163791 0.02264073 0.9863415 0.1645523 -0.007280224 -0.5509083 -0.816934 -0.1706425 0.9374503 -0.0606106 -0.3428022 -0.339399 0.7922337 0.5071234 -0.4058735 0.3429337 -0.84715 0.4954853 -0.8685638 -0.009552559 0.2499324 -0.6264181 -0.738332 -0.5764876 -0.6245563 0.5268695 0.5408002 0.4896474 0.6839449 -0.3907183 -0.6210021 0.6794819 0.8786844 -0.315095 0.3586486 0.957417 -0.2882942 -0.0154624 0.7604335 -0.05634605 -0.6469667 -0.9724814 -0.2329804 -0.0001209023 -0.6024841 -0.09367257 -0.7926149 0.4858764 0.8588315 0.1622732 -0.3193746 -0.2818022 0.9047582 -0.9357975 -0.3524835 -0.006191687 0.9371363 0.2470298 0.2464788 0.4646397 0.8516171 0.2426073 -0.5993548 -0.5579415 -0.5739992 0.51173 -0.8431045 -0.1652489 -0.2531816 0.8929291 0.372259 0.8506202 0.5214699 -0.06719008 -0.05430554 -0.6116833 -0.7892366 0.6907403 0.7223214 0.0336102 -0.8313372 -0.5557642 -0.002136962 -0.4136655 0.9050751 0.09858939 -0.3902277 -0.6378072 0.6640213 0.5469696 -0.1973356 -0.8135619 0.4326835 0.6480451 -0.6267555 -0.5088546 0.1955008 0.8383594 -0.8258909 0.5637134 0.01146125 0.9917032 -0.06971298 -0.1080045 0.8240315 -0.5662257 -0.01898695 0.7780178 -0.612762 -0.1386042 0.9015463 0.4302419 -0.04589369 0.2121528 0.9769499 0.02366565 -0.8617585 0.3603367 -0.3571131 -0.1924186 0.01080354 0.9812535 -0.7275628 -0.6811758 -0.08155986 0.3894248 -0.8325485 0.3939687 0.5908847 0.8029615 -0.07815461 0.817573 -0.5148005 -0.2579822 0.941878 -0.3359398 -0.003203176 0.944854 0.3274308 -0.006326182 -0.8668734 -0.1476798 -0.4761524 0.6538932 0.7565865 -0.0007302135 0.6334786 0.7672539 0.100132 0.9155301 -0.3812345 0.1283157 -0.8495678 -0.4806735 -0.2172268 0.9412854 -0.2835614 -0.183234 -0.2061778 0.8380267 0.5051752 0.1543709 -0.6549919 -0.7396995 -0.8297096 0.2716105 -0.4876573 -0.2968812 -0.9546933 0.02054825 -0.9967466 -0.07489717 0.02977658 -0.5228278 -0.7627711 0.3805672 0.9873603 -0.08075011 -0.1363782 0.5299817 0.7740644 -0.3463288 -0.9817688 0.08620644 0.1694062 0.6139253 0.2910279 0.7337565 -0.901213 -0.4331361 -0.01443255 0.4356136 0.4614702 -0.7728428 -0.7800932 -0.625661 0.001727325 -0.007699654 -0.9994782 0.03136916 0.997741 0.06635265 -0.01049633 -0.5571095 0.8294335 0.04085491 -0.4462839 -0.8353199 0.3210473 0.9592966 0.05525496 -0.276942 -0.5622486 0.8269403 -0.006802229 0.2915046 0.9563832 -0.01887298 -0.8434727 0.5011972 -0.1932749 0.5248438 0.7064071 -0.4748978 0.3293934 -0.5764167 0.747826 -0.6637434 0.7281535 0.1709888 -0.07700955 -0.9969862 0.009378728 0.7708727 -0.03399286 0.6360816 0.9887268 0.1266981 -0.07979321 0.229233 0.9699895 -0.08107169 -0.4773711 -0.4484873 0.7556295 0.2350716 0.9676412 0.09171637 0.9751612 0.07020303 0.2100766 -0.5077788 -0.8393323 -0.1941186 0.9540928 0.08600158 -0.2868982 -0.4667976 0.7202762 0.5131299 0.2495805 -0.6097473 -0.7522751 0.06516063 0.9978578 -0.005822955 -0.05971319 -0.9981743 -0.009081204 0.3794101 0.5237464 -0.7627173 -0.8673301 0.0005056533 0.4977331 0.7643781 0.6311346 0.131891 -0.7661248 -0.6426887 0.001998821 0.579555 0.3174389 0.7505655 -0.2466179 0.3666372 0.8970824 0.9824421 0.1456749 -0.1165605 0.1028466 0.685296 -0.720966 -0.5846014 0.5622127 -0.5849428 -0.8868135 -0.3204889 0.3329394 -0.9581555 0.286172 0.006604608 0.4037946 -0.3098547 -0.8607787 0.3714385 -0.3231521 -0.8704058 0.9476852 0.3176583 -0.03140072 -0.5781682 -0.4912807 0.6514329 0.8387558 -0.5050479 0.2035074 0.3065046 0.7625097 0.5697665 -0.8843325 -0.03659404 -0.4654211 -0.8043687 -0.5939769 0.01350441 -0.4093273 0.9107413 -0.05478541 0.5133789 0.858033 -0.01487991 0.8412347 0.5394297 0.03660126 -0.04925764 -0.4963259 0.8667377 0.292763 -0.902841 -0.3149094 -0.253295 0.8980894 0.3595511 0.7981958 -0.3932069 0.4563681 0.4657876 0.8836823 -0.04634155 -0.281446 0.9006129 -0.3311865 -0.9349352 -0.06772607 -0.348295 0.6491852 0.7591295 0.04776078 -0.561424 -0.2277549 0.7955695 0.728031 -0.5857042 -0.3562604 0.1662616 0.8587663 0.4846417 -0.8480774 -0.4826968 -0.2185602 0.7323194 -0.6715391 -0.1128871 0.3091574 0.9509851 -0.007001317 -0.2910261 -0.9557765 -0.04236829 0.5412719 0.5127622 -0.666408 0.5618188 0.3804817 0.7345702 0.1945927 -0.5922134 0.7819316 0.7678623 -0.6396129 0.03581609 -0.7165346 0.1854663 0.6724436 0.5317061 -0.8283912 0.176229 -0.5294961 0.8364491 -0.1413747 0.7571475 0.6475587 -0.08599659 -0.8279764 -0.5595797 0.03640969 0.5339798 -0.8141806 0.2279814 -0.07739955 0.8012034 0.5933653 0.07848363 0.5950252 0.7998658 -0.2393603 0.8798655 0.4105404</float_array>
          <technique_common>
            <accessor source="#normals-array" count="624" stride="3">
              <param name="X" type="float" />
              <param name="Y" type="float" />
              <param name="Z" type="float" />
            </accessor>
          </technique_common>
        </source>
        <source id="uv">
          <float_array id="uv-array" count="3744">12.3323 4.650452 12.331 4.798742 12.33422 4.798783 12.33969 4.650266 12.33478 4.7987 12.32732 4.650191 12.3323 4.650452 12.33422 4.798783 12.33969 4.650266 12.33068 4.725146 12.36613 4.846805 12.36721 4.84665 6.134208 4.724786 6.131415 4.846805 6.130382 4.725146 6.130967 4.72443 6.130781 4.84665 6.131906 4.846651 6.131312 4.870412 6.184845 4.84211 6.131358 4.870763 6.184845 12.36983 6.111313 12.32116 6.131344 12.36682 12.32116 4.846921 12.36694 4.82354 12.41059 4.848794 6.103059 12.41059 6.131365 12.36683 6.184845 12.36983 12.41059 4.848794 12.36694 4.82354 12.36683 4.8211 6.134061 4.743216 6.072631 4.822665 6.129869 4.741537 12.33187 4.743216 12.28205 4.822917 12.28099 4.822665 12.2815 4.842602 12.28152 4.845961 12.31826 4.827253 12.28152 4.845961 12.28371 4.807384 12.31826 4.827253 12.31826 4.827253 12.28371 4.807384 12.28148 4.800275 12.33029 4.728844 12.33297 4.791048 12.33526 4.729305 6.133869 4.727849 6.180146 4.790685 6.131375 4.728844 12.33322 4.727849 12.33335 4.790715 12.3322 4.790685 6.179826 12.33275 6.159543 12.30116 6.133749 12.33162 6.133749 12.33162 6.159543 12.30116 6.180182 12.33355 12.30116 4.789854 12.33275 4.766345 12.33355 4.776225 12.30116 4.789854 12.33241 4.773409 12.33275 4.766345 12.3338 4.747246 12.3941 4.798423 12.39504 4.797808 6.133279 12.33508 6.061414 12.39503 6.131729 12.33116 6.133279 4.74881 6.060638 4.797808 6.061414 4.798393 6.060894 12.39472 6.019074 12.4448 6.116073 12.42131 6.03054 12.35322 6.019074 12.4448 6.060874 12.39478 6.060971 4.82792 6.116073 4.793882 6.03054 4.79686 6.019074 12.4448 6.03054 12.35322 6.060876 12.39473 12.4448 4.795818 12.39473 4.772685 12.39449 4.769404 6.03054 4.79686 6.06104 4.769404 6.060876 4.768619 6.133056 4.723293 6.133234 4.789689 6.129359 4.723565 12.33534 4.724989 12.28182 4.789848 12.28245 4.790094 12.28187 4.806552 12.32267 4.78127 12.28155 4.815559 6.13275 12.28187 6.106966 12.28772 6.150116 12.32267 6.13275 12.28187 6.135154 12.231 6.106966 12.28772 12.28187 4.806552 12.28183 4.81274 12.231 4.793309 12.28183 4.81274 12.28155 4.815559 12.231 4.793309 12.28155 4.815559 12.32267 4.78127 12.231 4.793309 12.231 4.793309 12.28166 4.765612 12.28772 4.789239 12.32267 4.78127 12.28166 4.765612 12.231 4.793309 6.106966 12.28772 6.13275 12.28187 6.150116 12.32267 6.106966 4.789239 6.133299 4.765612 6.132751 4.77167 12.33286 4.761557 12.36252 4.800089 12.36338 4.799856 6.132216 4.759788 6.150968 4.799856 6.152177 4.799646 6.129067 4.761557 6.150968 4.799856 6.132216 4.759788 6.151924 4.821353 6.147843 4.779876 6.151185 4.821904 12.36271 4.821353 12.36369 4.816741 12.36236 4.779285 12.36279 4.821904 12.36099 4.779876 12.40814 4.788055 12.36369 4.816741 12.40814 4.788055 12.36236 4.779285 6.133922 4.769364 6.085099 4.837312 6.129606 4.767859 12.33178 4.769364 12.32598 4.837564 12.325 4.837689 12.33574 4.768572 12.32489 4.837312 12.32598 4.837564 6.030449 4.835853 6.085933 4.825013 6.085995 4.870944 6.085413 4.871295 6.128168 4.832628 6.030449 4.835853 6.085933 4.825013 6.128168 4.832628 6.085995 4.870944 6.030449 4.835853 6.128168 4.832628 6.085545 4.805519 6.128168 4.832628 6.085637 4.809575 6.085545 4.805519 12.33029 4.731423 12.28794 4.8234 12.3345 4.733117 6.131307 12.33029 6.199632 12.28812 6.198992 12.28711 6.129721 4.733117 6.199632 4.82301 6.133682 4.731584 6.199048 4.846198 6.148687 4.816711 6.198976 4.85086 6.199048 4.846198 6.198855 4.849573 6.148687 4.816711 6.198855 4.849573 6.198976 4.85086 6.244433 4.82185 6.198976 12.28788 6.204622 12.34826 6.244433 12.26737 6.148687 12.27159 6.204622 12.34826 6.198976 12.28788 6.244433 4.82185 6.148687 4.816711 6.198855 4.849573 6.204622 12.34826 6.148687 12.27159 6.199064 12.28784 6.244433 4.82185 6.199004 4.798184 6.148687 4.816711 6.148687 4.816711 6.199004 4.798184 6.199064 4.796203 6.244433 4.82185 6.199045 4.803436 6.199004 4.798184 6.244433 4.82185 6.199064 4.796203 6.199045 4.803436 12.3307 4.734817 12.37118 4.788874 12.37198 4.788479 12.33439 4.733875 12.37227 4.788489 12.37118 4.788874 6.13021 4.733187 6.118234 4.788489 6.133795 4.733875 6.117907 12.37173 6.142785 12.40442 6.120778 12.36965 6.117909 12.37173 6.120778 12.36965 6.070847 12.37039 6.070847 4.794517 6.117366 4.758706 6.142785 4.792114 12.37195 4.758706 12.37201 4.760035 12.40442 4.792114 12.40442 4.792114 12.37201 4.760035 12.32239 4.778165 6.133229 12.32239 6.117903 12.37173 6.070847 12.37039 6.121662 4.650452 6.132073 4.650191 6.135182 4.798742 12.32732 4.650191 12.33478 4.7987 12.331 4.798742 6.128712 4.650266 6.133104 4.798783 6.136654 4.7987 12.33325 4.724786 12.3672 4.846651 12.36613 4.846805 6.134208 4.724786 6.130967 4.72443 6.131906 4.846651 12.3357 4.72443 12.33068 4.725146 12.36721 4.84665 6.131312 12.36682 6.103059 12.41059 6.184845 12.36983 6.131344 4.866576 6.131358 4.870763 6.184845 4.84211 6.131312 12.36682 6.111313 12.32116 6.103059 12.41059 12.36682 4.870412 12.36682 4.866576 12.32116 4.846921 12.36694 4.82354 12.32116 4.846921 12.36683 4.826448 6.111313 12.32116 6.184845 12.36983 6.131362 12.36683 6.184845 4.84211 6.131365 4.8211 6.131362 4.826448 6.129869 4.741537 6.072631 4.822665 6.071586 4.822503 6.134061 12.33187 6.130568 12.33555 6.072353 12.28205 6.130568 4.7431 6.071586 4.822503 6.072353 4.822917 12.33555 4.7431 12.33168 4.741537 12.2817 4.822503 6.072115 4.845961 6.078619 4.823364 6.074571 4.807384 12.28423 4.823364 12.2815 4.842602 12.31826 4.827253 12.28371 4.807384 12.28423 4.823364 12.27763 4.800011 12.28423 4.823364 12.31826 4.827253 12.28148 4.800275 6.076764 4.800011 6.078619 4.823364 6.072244 4.800275 6.131375 4.728844 6.180146 4.790685 6.179256 4.791048 6.133869 4.727849 6.130245 4.729305 6.180085 4.790715 6.130245 4.729305 6.179256 4.791048 6.180085 4.790715 6.179826 4.81361 6.133749 4.802956 6.180187 4.812485 6.179826 4.81361 6.179826 4.811679 6.133749 4.802956 12.33275 4.811679 12.33297 4.812485 12.30116 4.789854 6.133749 4.802956 6.180182 4.776225 6.180187 4.812485 12.33297 4.812485 12.33241 4.773409 12.30116 4.789854 12.33297 4.812485 12.33355 4.776225 12.33241 4.773409 12.3338 4.747246 12.33116 4.750183 12.3941 4.798423 6.131729 12.33116 6.061414 12.39503 6.060647 12.3941 6.133279 12.33508 6.13006 12.3338 6.060638 12.39504 6.060971 12.39472 6.03054 12.35322 6.060874 12.39478 6.060971 4.82792 6.060894 4.823577 6.116073 4.793882 12.39472 4.823577 12.39478 4.828007 12.4448 4.795818 6.116073 4.793882 6.06104 4.769404 6.03054 4.79686 6.116073 12.42131 6.019074 12.4448 6.06104 12.39449 12.35322 4.79686 12.39472 4.768619 12.39473 4.772685 6.129359 4.723565 6.133234 4.789689 6.132086 4.789848 12.33113 4.723293 12.33534 4.724989 12.28146 4.789689 12.33534 4.724989 12.28245 4.790094 12.28146 4.789689 12.33534 4.724989 12.33173 4.723565 12.28182 4.789848 12.28166 4.765612 12.32267 4.78127 12.28187 4.77163 6.106966 4.789239 6.132751 4.77167 6.13275 4.77163 6.129067 12.33286 6.132494 12.33065 6.151396 12.36252 6.132494 4.761519 6.152177 4.799646 6.151396 4.800089 12.33065 4.761519 12.33515 4.759788 12.3631 4.799646 12.36279 4.821904 12.40814 4.788055 12.36369 4.816741 6.151924 4.821353 6.151125 4.779285 6.147843 4.779876 12.36236 4.779285 12.40814 4.788055 12.36305 4.778201 6.132839 12.40814 6.147843 12.36099 6.151568 12.36305 6.133922 4.769364 6.086173 4.837689 6.085099 4.837312 12.33178 4.769364 12.33574 4.768572 12.32598 4.837564 12.33574 4.768572 12.33158 4.767859 12.32489 4.837312 6.085204 4.871484 6.030449 4.835853 6.085995 4.870944 6.085413 12.32518 6.085995 12.32549 6.128168 12.29706 6.085413 4.871295 6.030449 4.835853 6.085204 4.871484 6.030449 4.835853 6.085545 4.805519 6.085933 4.825013 6.128168 4.832628 6.085933 4.825013 6.085637 4.809575 12.33029 4.731423 12.28711 4.822994 12.28794 4.8234 12.33029 4.731423 12.33446 4.731584 12.28812 4.82301 6.129721 4.733117 6.198498 4.8234 6.199632 4.82301 6.204622 12.34826 6.199064 12.28784 6.244433 12.26737 12.3307 4.734817 12.33439 4.733875 12.37118 4.788874 6.13021 4.733187 6.117339 4.788479 6.118234 4.788489 12.33501 4.733187 12.3307 4.734817 12.37198 4.788479 12.37173 4.812997 12.37173 4.813575 12.40442 4.792114 6.117909 12.37173 6.070847 12.37039 6.142785 12.40442 12.32239 4.778165 12.36965 4.81357 12.40442 4.792114 6.070847 12.37039 6.120778 12.36965 6.133229 12.32239 6.117366 4.758706 6.070847 4.794517 6.117903 4.766127 12.32239 4.778165 12.37201 4.760035 12.37173 4.766127 7.267993 7.074637 7.26228 7.199318 7.265472 7.199352 7.271186 7.07448 7.264656 7.199283 7.260548 7.074418 12.07438 7.074637 12.06496 7.199352 12.06641 7.07448 12.06682 7.159425 12.04825 7.200338 12.04902 7.200746 7.266542 7.161224 7.207786 7.200338 7.263532 7.159425 7.265766 12.06833 7.208537 12.04821 7.266542 12.065 12.04848 7.219126 12.04838 7.219824 12.04757 7.195677 12.04848 7.219126 12.04757 7.195677 12.05784 7.20223 7.208097 7.219824 7.238637 7.203992 7.208226 7.195677 7.202469 7.20223 7.208159 7.183851 7.238637 7.203992 12.05784 7.20223 12.04845 7.182964 12.04851 7.183851 7.208159 7.183851 7.208226 7.195677 7.238637 7.203992 7.264855 7.156169 7.298525 7.201129 7.299359 7.200821 12.0651 7.156177 12.05462 7.200824 12.05545 7.201129 7.26688 7.154945 7.299032 7.200824 7.263547 7.156177 12.06892 7.156169 12.05557 7.200821 12.06558 7.154945 7.298967 7.220374 7.349691 7.198068 7.298704 7.223948 7.298704 12.05499 7.349691 12.07129 7.321604 12.00683 12.05499 7.223948 12.00683 7.206408 12.04263 7.169939 7.349691 12.07129 7.299046 12.05509 7.321604 12.00683 7.280853 12.10268 7.298997 12.05522 7.349691 12.07129 7.26367 7.130113 7.247432 7.210502 7.267043 7.130572 12.06456 7.131196 12.11002 7.210748 12.11071 7.210476 12.06785 7.130572 12.11002 7.210748 12.06456 7.131196 12.11057 7.23091 12.11042 7.235825 12.15572 7.211151 7.247729 7.236211 7.293864 7.20695 7.246994 7.235825 7.229702 12.15572 7.293864 12.10833 7.247729 12.11044 12.11042 7.235825 12.10285 7.201031 12.15572 7.211151 7.246994 7.235825 7.293864 7.20695 7.221642 7.201031 7.293864 7.20695 7.247034 7.191009 7.221642 7.201031 12.15572 7.211151 12.11057 7.192168 12.11058 7.191009 7.262997 7.161052 7.256911 7.236922 7.255917 7.236837 12.0686 7.161759 12.03878 7.236922 12.06581 7.161308 12.03899 7.255733 12.03822 7.260852 12.01163 7.230659 7.256606 12.03822 7.253272 12.06839 7.302042 12.03621 12.03899 7.259306 12.01163 7.230659 12.06839 7.253029 7.253272 7.253029 7.256716 7.216494 7.302042 7.229549 12.06839 7.253029 12.01163 7.230659 12.0397 7.216494 12.01163 7.230659 12.03901 7.214926 12.0397 7.216494 7.256716 7.216494 7.25634 7.213201 7.302042 7.229549 7.264593 7.160323 7.329517 7.191024 7.329796 7.190406 7.264933 12.06506 7.330175 12.10494 7.329517 12.10539 7.266563 12.06578 7.329796 12.10584 7.330175 12.10494 7.330268 7.212627 7.364931 7.168471 7.302187 7.21372 12.09146 7.21372 12.09269 7.174937 12.15606 7.189515 7.364931 7.168471 7.28739 7.174937 7.302187 7.21372 12.15606 7.189515 12.08239 7.168471 12.10521 7.212627 7.364931 7.168471 7.329835 7.167241 7.329832 7.166256 7.364931 7.168471 7.329835 7.169212 7.329835 7.167241 7.28739 12.09269 7.329835 12.1054 7.336839 12.15606 7.28739 7.174937 7.329832 7.166256 7.329835 7.169212 7.264894 12.06893 7.204665 12.08289 7.205092 12.08354 7.266811 7.134783 7.2055 7.203841 7.263585 7.133397 12.06893 7.133516 12.08265 7.203841 12.06555 7.134783 7.205118 12.08316 7.205131 12.08298 7.162587 12.07646 7.162587 7.199969 7.207199 7.219947 7.205118 7.227809 7.162587 7.199969 7.205726 7.183764 7.207199 7.219947 12.06508 7.147015 12.0307 7.217676 12.03158 7.217936 7.267104 7.146456 7.292059 7.217676 7.263459 7.147015 12.06879 7.147726 12.03114 7.217643 12.06572 7.146456 7.292248 7.237488 7.291432 7.24339 7.330758 7.217595 11.98648 7.223109 12.03147 7.203824 12.03142 7.24339 12.03142 7.24339 12.03147 7.203824 12.05623 7.209479 7.330758 12.04467 7.28413 12.05623 7.292313 12.03119 12.0655 7.138616 12.12638 7.207404 12.06844 7.137227 7.267435 7.138185 7.273489 7.207807 7.263226 7.138616 12.06586 7.138185 12.12638 7.207404 12.12571 7.207658 7.273482 7.217568 7.30561 7.208048 7.273955 7.230885 7.27386 7.224865 7.248138 7.20557 7.273482 7.217568 7.30561 7.208048 7.273885 7.187832 7.248138 7.20557 7.273482 7.217568 7.27357 7.185352 7.30561 7.208048 7.248138 7.20557 7.273885 7.187832 7.273854 7.191505 7.263368 7.153325 7.218371 7.18327 7.218853 7.183906 7.265515 12.06474 7.219025 12.02938 7.218371 12.02979 12.06706 7.155353 12.02938 7.183534 12.06474 7.153083 7.225857 7.213436 7.24759 7.181108 7.21858 7.205883 7.24759 7.181108 7.185229 7.17569 7.21858 7.205883 7.185229 7.17569 7.218979 7.159589 7.225857 7.213436 7.24759 7.181108 7.218727 7.161027 7.185229 7.17569 7.24759 7.181108 7.218729 7.15947 7.218727 7.161027 7.24759 12.00563 7.218979 12.03061 7.218729 12.02985 7.267993 7.074637 7.260548 7.074418 7.26228 7.199318 12.06815 7.074418 12.06205 7.199283 12.06449 7.199318 12.06641 7.07448 12.06496 7.199352 12.06205 7.199283 7.265766 7.161437 7.263532 7.159425 7.208095 7.200746 7.266542 7.161224 7.208537 7.200881 7.207786 7.200338 7.265766 12.06833 7.208095 12.04902 7.208537 12.04821 7.208097 7.219824 7.202469 7.20223 7.238637 7.203992 12.05784 7.20223 12.04757 7.195677 12.04845 7.182964 12.06892 7.156169 12.0651 7.156177 12.05545 7.201129 12.06558 7.154945 12.05557 7.200821 12.05462 7.200824 7.298967 7.220374 7.299007 7.224483 7.349691 7.198068 12.0552 7.224483 12.05499 7.223948 12.10268 7.209188 7.299007 12.0552 7.280853 12.10268 7.349691 12.07129 12.05499 7.223948 12.04263 7.169939 12.10268 7.209188 7.280853 12.10268 7.262857 12.04263 7.298997 12.05522 7.321604 12.00683 7.299046 12.05509 7.262857 12.04263 7.299046 7.177217 7.349691 7.198068 7.298997 7.179861 7.26367 7.130113 7.24653 7.210476 7.247432 7.210502 12.06808 7.130113 12.06456 7.131196 12.11071 7.210476 12.06785 7.130572 12.11099 7.210502 12.11002 7.210748 12.11044 7.236211 12.11057 7.23091 12.15572 7.211151 7.293864 12.10833 7.229702 12.15572 7.247034 12.11058 7.229702 12.15572 7.221642 12.10285 7.247047 12.11057 12.0686 7.161759 12.06581 7.161052 12.03952 7.237018 12.06581 7.161052 12.03864 7.236837 12.03952 7.237018 7.262997 7.161052 7.267208 7.161308 7.256911 7.236922 12.0686 7.161759 12.03952 7.237018 12.03878 7.236922 12.03822 7.260852 12.03899 7.259306 12.06839 7.253029 12.03899 7.259306 12.03899 7.255733 12.01163 7.230659 7.256606 7.260852 7.302042 7.229549 7.234465 7.230659 7.234465 12.01163 7.302042 12.03621 7.25634 12.03898 12.01163 7.230659 12.03898 7.213201 12.03901 7.214926 7.264593 12.06856 7.264933 12.06506 7.329517 12.10539 7.264933 7.16231 7.266563 7.159983 7.330175 7.190586 7.266563 12.06578 7.264593 12.06856 7.329796 12.10584 12.10521 7.212627 12.1054 7.213199 12.15606 7.189515 7.32983 12.1054 7.302187 12.09146 7.336839 12.15606 7.32983 7.213199 7.32983 7.218981 7.302187 7.21372 7.32983 7.218981 7.330268 7.212627 7.302187 7.21372 7.364931 12.08239 7.336839 12.15606 7.329835 12.1054 7.28739 12.09269 7.364931 12.08239 7.329832 12.10537 12.06893 7.133516 12.06512 7.133397 12.08289 7.203441 7.263585 7.133397 7.2055 7.203841 7.204665 7.203441 12.06893 7.133516 12.08354 7.203552 12.08265 7.203841 12.08298 7.227879 12.08395 7.219947 12.04143 7.205139 7.205131 12.08298 7.220277 12.04143 7.162587 12.07646 12.08395 7.219947 12.0828 7.183764 12.04143 7.205139 7.162587 12.07646 7.220277 12.04143 7.205126 12.08296 12.04143 7.205139 12.083 7.180472 12.08296 7.181014 12.04143 7.205139 12.0828 7.183764 12.083 7.180472 7.162587 7.199969 7.205126 7.181014 7.205726 7.183764 12.06879 7.147726 12.06508 7.147015 12.03158 7.217936 7.267104 7.146456 7.292795 7.217643 7.292059 7.217676 7.264719 7.147726 7.2919 7.217936 7.292795 7.217643 12.0312 7.237421 12.03121 7.237488 11.98648 7.223109 7.292248 12.03121 7.330758 12.04467 7.306831 11.98648 12.0312 7.237421 11.98648 7.223109 12.03142 7.24339 7.291432 7.24339 7.28413 7.209479 7.330758 7.217595 11.98648 7.223109 12.03119 7.194535 12.03147 7.203824 7.306831 11.98648 7.330758 12.04467 7.292313 12.03119 12.0655 7.138616 12.12551 7.207807 12.12638 7.207404 7.267435 7.138185 7.274389 7.207658 7.273489 7.207807 12.06586 7.138185 12.06844 7.137227 12.12638 7.207404 7.27386 7.224865 7.273955 7.230885 7.248138 7.20557 7.248138 7.20557 7.273955 7.230885 7.30561 7.208048 7.273482 7.217568 7.248138 7.20557 7.27357 7.185352 7.30561 7.208048 7.27357 7.185352 7.273885 7.187832 7.27357 7.185352 7.248138 7.20557 7.273854 7.191505 7.26647 7.155353 7.263368 7.153325 7.218853 7.183906 7.263368 12.06782 7.265515 12.06474 7.218371 12.02979 7.26647 12.06706 7.218853 12.03018 7.219025 12.02938 12.03548 7.213436 12.02989 7.207919 12.02527 7.17569 7.218617 7.207919 7.21858 7.205883 7.185229 7.17569 12.00563 7.181108 12.03548 7.213436 12.03061 7.159589 7.218979 7.159589 7.185229 7.17569 7.218727 7.161027 12.57164 4.650408 12.57275 4.756844 12.5747 4.756873 12.57788 4.650274 12.57563 4.756813 12.5697 4.650221 12.57164 4.650408 12.5747 4.756873 12.57788 4.650274 12.57378 4.703574 12.52966 4.769001 12.53026 4.769191 12.57504 4.704086 12.52966 4.769001 12.57201 4.703026 7.79811 4.704086 7.793233 4.769191 7.794015 4.769268 7.793703 4.790405 7.828284 4.772984 7.793707 4.79077 7.793703 12.53011 7.790496 12.5 7.750387 12.53509 7.828284 4.772984 7.750387 4.771986 7.793692 4.747656 7.790496 12.5 7.79367 12.53011 7.750387 12.53509 12.55972 4.772984 12.5302 4.747656 12.5 4.776426 12.5 4.776426 12.53011 4.751048 12.53011 4.744907 7.797929 4.703269 7.82069 4.778342 7.794918 4.703406 7.797929 4.703269 7.821518 4.778256 7.82069 4.778342 12.57545 4.702784 12.6013 4.778141 12.5721 4.703269 7.797082 4.702784 7.82069 4.778342 7.821462 4.778141 12.60132 4.800808 12.64103 4.773766 12.60729 4.760284 7.821457 4.788977 7.821069 4.759061 7.820341 4.792901 7.821901 4.800808 7.843111 4.760284 7.821457 4.788977 12.60075 4.792901 12.60072 4.759061 12.64103 4.773766 7.821457 4.788977 7.843111 4.760284 7.821069 4.759061 7.843111 4.760284 7.821161 4.762802 7.821069 4.759061 7.843111 4.760284 7.821138 4.758714 7.821161 4.762802 7.806712 12.64103 7.821138 12.60095 7.843111 12.60729 12.64103 4.773766 12.60072 4.759061 12.60095 4.758714 7.798217 4.713993 7.737279 4.762116 7.795725 4.71238 7.798217 12.5737 7.737509 12.56958 7.737904 12.56895 7.795714 4.712505 7.737509 4.7623 7.798217 4.713993 7.795714 12.57506 7.737279 12.56874 7.737509 12.56958 7.737566 4.778873 7.777931 4.766581 7.737558 4.779963 7.737566 12.5691 7.700598 12.58714 7.741687 12.60833 7.737573 4.778107 7.700598 4.764818 7.737566 4.778873 7.737573 12.56909 7.722624 12.53229 7.700598 12.58714 7.737558 4.779963 7.777931 4.766581 7.737573 4.778107 7.737566 12.5691 7.741687 12.60833 7.777931 12.58142 7.737573 12.56909 7.777931 12.58142 7.722624 12.53229 7.777931 4.766581 7.748401 4.745489 7.722624 4.766256 7.700598 12.58714 7.737557 12.56909 7.741687 12.60833 12.54144 4.745489 12.56909 4.746856 12.56909 4.74611 12.54144 4.745489 12.56909 4.748071 12.56909 4.746856 12.57416 4.723283 12.55802 4.755739 12.55723 4.755618 7.795583 4.724282 7.814127 4.755739 7.798495 4.723283 7.811792 4.765595 7.815331 4.77216 7.853565 4.756248 7.815331 4.77216 7.812138 4.742109 7.853565 4.756248 7.815331 4.77216 7.795026 4.753701 7.812138 4.742109 7.853565 4.756248 7.812138 4.742109 7.813756 4.73933 7.795026 4.753701 7.813756 4.73933 7.813752 4.743363 7.798111 4.716106 7.787732 4.780612 7.795189 4.715894 12.57249 4.716106 12.61738 4.780367 12.61662 4.780612 12.57248 4.715894 12.61706 4.780414 12.57533 4.715049 12.61703 4.794295 12.61707 4.796419 12.64009 4.773897 7.787601 12.61703 7.810933 12.58904 7.752487 12.59799 12.61703 4.794295 12.58904 4.783814 12.61703 4.794443 7.787593 4.796419 7.752487 4.784658 7.805765 4.773897 7.752487 4.784658 7.787537 4.764945 7.805765 4.773897 7.810933 12.58904 7.787537 12.61703 7.752487 12.59799 12.61693 4.762048 12.61703 4.764945 12.58904 4.783814 7.798488 4.700479 7.775614 4.762358 7.796097 4.699498 7.798488 4.700479 7.774977 4.762388 7.775614 4.762358 12.57196 4.699498 12.54426 4.762388 12.57537 4.700347 7.775155 4.779245 7.815721 4.762196 7.775149 4.78138 7.775155 4.779245 7.744098 4.762335 7.815721 4.762196 7.775155 4.78175 7.775149 4.78138 7.744098 4.762335 7.815721 12.54715 7.763668 12.49732 7.775149 12.54378 7.815721 4.762196 7.775157 4.740134 7.775141 4.742216 7.815721 4.762196 7.775157 4.744429 7.775157 4.740134 7.744098 4.762335 7.775141 4.742216 7.775157 4.744429 7.797254 4.725872 7.824653 4.7635 7.824054 4.763725 12.57412 4.725242 12.58006 4.7635 12.57182 4.725872 7.824335 4.779172 7.848628 4.760484 7.826145 4.779408 7.826145 4.779408 7.825615 4.755801 7.823517 4.766952 7.826145 4.779408 7.848628 4.760484 7.825615 4.755801 7.823517 4.766952 7.825615 4.755801 7.824325 4.746502 7.848628 12.57698 7.824325 12.58051 7.824335 12.58039 12.57172 4.711218 12.59935 4.79218 12.57436 4.710235 12.57484 4.711169 12.59903 4.792487 12.57172 4.711218 7.795122 4.710235 7.746306 4.792305 7.798267 4.711169 7.74616 4.811815 7.710977 4.792245 7.744801 4.808233 7.746147 4.809531 7.76485 4.787681 7.710977 4.792245 12.60131 4.808233 12.5692 4.787681 12.59924 4.809531 7.710977 4.792245 7.74598 4.775114 7.744801 4.808233 7.76485 12.5692 7.74617 12.59923 7.710977 12.6059 7.710977 12.6059 7.74615 12.59924 7.74598 12.60015 7.74598 4.775114 7.74617 4.775862 7.76485 4.787681 7.798507 12.5732 7.812607 12.52036 7.794904 12.57311 12.5732 4.730908 12.52098 4.778754 12.52036 4.778446 12.57514 4.732243 12.52098 4.778754 12.5732 4.730908 7.797307 12.57514 7.812018 12.52077 7.812904 12.52098 7.812482 4.805807 7.828037 4.792203 7.798348 4.777104 7.812558 4.785899 7.812489 4.753099 7.828037 4.792203 12.50678 4.777104 12.52077 4.753099 12.52201 4.785899 7.789921 4.650408 7.797978 4.650221 7.799606 4.756844 12.5697 4.650221 12.57563 4.756813 12.57275 4.756844 7.793758 4.650274 7.797663 4.756873 7.800072 4.756813 7.794763 4.703574 7.797353 4.703026 7.79387 4.769001 12.57504 4.704086 12.53043 4.769268 12.52966 4.769001 7.79811 4.704086 7.794763 4.703574 7.793233 4.769191 7.793703 12.53011 7.750387 12.53509 7.828284 12.55972 12.53011 4.790405 12.53011 4.788455 12.5 4.776426 12.53011 4.788455 12.53011 4.79077 12.5 4.776426 12.53011 4.79077 12.55972 4.772984 12.5 4.776426 7.793692 4.747656 7.750387 4.771986 7.79367 4.744907 12.5 4.776426 12.5302 4.747656 12.53011 4.751048 12.5721 4.703269 12.6013 4.778141 12.60064 4.778256 7.797082 4.702784 7.794918 4.703406 7.82069 4.778342 12.60075 4.792901 12.64103 4.773766 12.60132 4.800808 7.798217 4.713993 7.737904 4.762516 7.737279 4.762116 7.795714 12.57506 7.795725 12.57236 7.737279 12.56874 7.722624 12.53229 7.748401 12.54144 7.700598 12.58714 7.777931 12.58142 7.741687 12.60833 7.748401 12.54144 12.60833 4.761632 12.56909 4.74611 12.56909 4.748071 7.700598 12.58714 7.748401 12.54144 7.737557 12.56909 7.748401 12.54144 7.741687 12.60833 7.73756 12.56909 7.795474 4.723594 7.813828 4.755618 7.813298 4.755887 7.795474 4.723594 7.798495 4.723283 7.813828 4.755618 7.795583 4.724282 7.813298 4.755887 7.814127 4.755739 12.57489 4.724282 12.57213 4.723594 12.55771 4.755887 7.811792 4.765595 7.853565 4.756248 7.813756 4.73933 7.812138 12.55986 7.795026 12.54906 7.813752 12.55766 7.795026 4.753701 7.811792 4.765595 7.813756 4.73933 7.795189 4.715894 7.787732 4.780612 7.787114 4.780414 12.57249 4.716106 12.57533 4.715049 12.61738 4.780367 7.797212 4.715049 7.787114 4.780414 7.787965 4.780367 7.787593 4.796419 7.787601 4.794443 7.752487 4.784658 7.787626 12.61703 7.805765 12.64009 7.810933 12.58904 7.810933 12.58904 7.805765 12.64009 7.78769 12.61693 12.61693 4.762048 12.64009 4.773897 12.61703 4.767777 12.64009 4.773897 12.61703 4.764945 12.61703 4.767777 7.796097 4.699498 7.775614 4.762358 7.774905 4.762163 7.798488 4.700479 7.796082 4.700347 7.774977 4.762388 12.57196 4.699498 12.54341 4.762163 12.54426 4.762388 7.775155 4.779245 7.775155 4.78175 7.744098 4.762335 7.744098 12.56536 7.775149 12.54378 7.763668 12.49732 7.744098 12.56536 7.763668 12.49732 7.775141 12.54378 7.763668 12.49732 7.815721 12.54715 7.775141 12.54378 7.815721 4.762196 7.744098 4.762335 7.775157 4.744429 12.57474 4.726348 12.57182 4.725872 12.58007 4.763725 12.57412 4.725242 12.58088 4.763537 12.58006 4.7635 7.798362 4.725242 7.79527 4.726348 7.824346 4.763537 12.57474 4.726348 12.58007 4.763725 12.58088 4.763537 7.824335 4.779172 7.823517 4.766952 7.848628 4.760484 7.848628 4.760484 7.823517 4.766952 7.824325 4.746502 7.825615 4.755801 7.848628 4.760484 7.824335 4.74645 7.796836 4.711218 7.746509 4.792487 7.745714 4.79218 12.57484 4.711169 12.59975 4.792305 12.59903 4.792487 7.795122 4.710235 7.745714 4.79218 7.746306 4.792305 7.74616 4.811815 7.746147 4.809531 7.710977 4.792245 12.60131 4.808233 12.60015 4.775114 12.5692 4.787681 7.710977 4.792245 7.74617 4.775862 7.74615 4.774543 12.57311 4.731472 12.52036 4.778446 12.52077 4.778788 7.797307 12.57514 7.794904 12.57311 7.812018 12.52077 12.52201 4.785899 12.5207 4.805807 12.50678 4.777104 7.812482 4.805807 7.812548 4.802053 7.828037 4.792203 7.812548 4.802053 7.812558 4.785899 7.828037 4.792203 7.798348 4.777104 7.828037 4.792203 7.812497 4.754145 7.798348 4.777104 7.812497 4.754145 7.812489 4.753099 7.789189 4.650439 7.80091 4.786263 7.797933 4.786301 12.57885 4.650268 12.57786 4.786225 12.56989 4.6502 12.56998 4.650439 12.57602 4.786301 12.57885 4.650268 7.794494 4.727147 7.827381 4.830082 7.826457 4.830154 12.57639 4.726316 12.59649 4.830082 12.57233 4.726818 7.794494 4.727147 7.827281 4.829967 7.798582 4.726316 7.821692 12.58317 7.775604 12.61247 7.827056 12.59707 7.827076 12.59718 7.775604 12.61247 7.860172 12.63846 7.775604 12.61247 7.802004 12.57366 7.827008 12.59715 12.58317 4.844565 12.63846 4.819985 12.59706 4.806379 12.63846 4.819985 12.59715 4.802754 12.59706 4.806379 7.795164 4.734138 7.730244 4.819107 7.729466 4.818761 12.57683 4.734547 12.58026 4.819095 12.57308 4.735658 7.796434 4.734547 7.729466 4.818761 7.730303 4.819095 12.57335 4.734138 12.57988 4.818761 12.57683 4.734547 7.722631 12.62377 7.770994 12.56782 7.730308 12.57977 12.57985 4.833812 12.57756 4.816588 12.62377 4.817736 12.57756 4.816588 12.57981 4.799022 12.62377 4.817736 7.798243 4.736829 7.820188 4.804817 7.79474 4.737979 12.57228 4.736829 12.54377 4.804744 12.54279 4.804534 7.798168 4.7379 7.820188 4.804817 7.821234 4.804744 7.820815 12.54325 7.847426 12.5585 7.835406 12.4927 7.820822 4.827841 7.847426 4.824335 7.820815 4.83091 7.777337 12.54603 7.790253 12.57975 7.847426 12.5585 7.790253 4.786959 7.821121 4.77851 7.847426 4.824335 7.835406 12.4927 7.820825 12.54328 7.777337 12.54603 7.797313 12.5725 7.796329 12.65666 7.795343 12.65704 12.57557 4.730081 12.65666 4.808108 12.5725 4.73176 12.65709 4.828169 12.65709 4.827206 12.70552 4.815367 12.65709 4.827206 12.64594 4.831318 12.70212 4.803193 12.65709 4.82605 12.64594 4.831318 12.65709 4.827206 7.798618 12.64594 7.810339 12.70552 7.840283 12.62795 7.798618 4.831318 7.840283 4.801774 7.793943 4.792043 7.810339 12.70552 7.778853 12.70212 7.840283 12.62795 12.70212 4.803193 12.65709 4.783334 12.65709 4.784397 12.70212 4.803193 12.656 4.792043 12.65709 4.783334 7.840283 4.801774 7.795939 4.784397 7.793943 4.792043 12.57251 4.726177 12.54339 4.784812 12.54407 4.784824 7.799586 4.727608 7.767073 4.784812 7.796118 4.726177 7.79549 4.727065 7.76643 4.784824 7.767499 4.785154 12.54383 4.790119 12.57613 4.782686 12.54393 4.806157 7.767076 12.54393 7.745481 12.57613 7.825277 12.5687 7.765871 4.790119 7.767611 4.780367 7.766886 4.761402 12.57613 4.782686 12.5442 4.761402 12.54397 4.765494 7.825277 4.782961 7.767025 4.765494 7.767611 4.780367 7.797525 12.57199 7.836924 12.57551 7.795483 12.57484 7.798171 12.57647 7.837594 12.57592 7.797525 12.57199 7.798171 4.754073 7.837084 4.781098 7.837594 4.780713 7.795483 12.57484 7.836924 12.57551 7.837084 12.57663 12.57601 4.799453 12.57616 4.804835 12.61548 4.779688 12.57596 4.803993 12.5791 4.774282 12.57616 4.804835 12.57601 4.799453 12.61548 4.779688 12.57596 4.803993 12.57616 4.804835 12.5791 4.774282 12.61548 4.779688 12.57596 4.803993 12.57693 4.779317 12.5791 4.774282 7.837266 4.803993 7.847777 4.776986 7.835547 4.779317 12.61548 4.779688 12.57433 4.776986 12.57596 4.803993 7.863865 12.61548 7.834252 12.5791 7.847777 12.57433 12.57238 4.710945 12.59439 4.786139 12.59499 4.785939 7.799638 4.711459 7.766776 4.786139 7.795806 4.710945 7.766621 4.810063 7.766976 4.815647 7.795356 4.771781 12.59519 4.813432 12.63402 4.779471 12.59492 4.815647 12.59519 4.813432 12.59496 4.763214 12.63402 4.779471 12.59519 4.813432 12.59463 4.810063 12.59496 4.763214 12.63402 4.779471 12.56976 4.771781 12.59492 4.815647 7.766621 4.810063 7.795356 4.771781 7.766196 4.763214 7.795356 4.771781 7.766793 4.759304 7.766196 4.763214 12.63402 4.779471 12.59496 4.763214 12.59498 4.758861 12.57217 4.726562 12.53249 4.799533 12.57552 4.727604 12.57481 4.727273 12.53353 4.799832 12.53249 4.799533 7.794963 4.727604 7.800371 4.799797 7.801284 4.799832 7.75593 12.54754 7.828957 12.56788 7.800898 12.53309 12.5327 4.826231 12.56788 4.798269 12.48766 4.794668 7.75593 4.801039 7.800796 4.774249 7.800879 4.778905 12.48766 4.794668 12.53307 4.777978 12.53302 4.774249 7.795826 4.751208 7.811694 4.8248 7.810842 4.824788 12.57441 4.750466 12.59918 4.824603 12.59806 4.8248 7.796085 4.750417 7.811759 4.824603 7.799493 4.750466 12.57221 4.751208 12.59863 4.824788 12.57672 4.750417 7.811442 12.59863 7.837321 12.56715 7.806069 12.61119 12.61119 4.846764 12.59574 4.796478 12.59896 4.853286 7.837321 12.56715 7.77515 12.58098 7.806069 12.61119 12.59896 4.853286 12.59574 4.796478 12.56715 4.838083 7.789189 4.650439 7.799762 4.6502 7.80091 4.786263 12.56989 4.6502 12.57786 4.786225 12.57416 4.786263 7.792166 4.650268 7.797933 4.786301 7.800663 4.786225 7.794494 4.727147 7.798299 4.726818 7.827381 4.830082 12.57639 4.726316 12.59763 4.829967 12.59649 4.830082 7.794494 4.727147 7.826457 4.830154 7.827281 4.829967 7.827056 4.85138 7.775604 4.837204 7.827076 4.857378 12.59718 4.857378 12.63846 4.819985 12.58317 4.844565 7.821692 4.844565 7.802004 4.808654 7.775604 4.837204 7.860172 12.63846 7.775604 12.61247 7.827008 12.59715 7.802004 4.808654 7.821692 4.844565 7.827083 4.806379 7.795164 4.734138 7.798834 4.735658 7.730244 4.819107 12.57308 4.735658 12.58026 4.819095 12.57916 4.819107 12.57977 4.843002 12.57985 4.833812 12.62377 4.817736 7.730308 4.843002 7.770994 4.815082 7.730332 4.816588 7.770994 12.56782 7.722631 12.62377 7.730427 12.57945 7.730332 4.816588 7.770994 4.815082 7.730427 4.796356 12.57945 4.796356 12.62377 4.817736 12.57981 4.799022 7.798243 4.736829 7.821094 4.804534 7.820188 4.804817 12.57228 4.736829 12.57668 4.7379 12.54377 4.804744 7.798168 4.7379 7.79474 4.737979 7.820188 4.804817 7.820822 12.54329 7.777337 12.54603 7.847426 12.5585 7.820822 4.827841 7.820828 4.827145 7.777337 4.811191 7.820828 4.827145 7.820815 4.83091 7.777337 4.811191 7.820815 12.54325 7.835406 12.4927 7.777337 12.54603 12.4927 4.803456 12.5585 4.824335 12.54413 4.77851 12.54413 4.77851 12.57975 4.786959 12.54329 4.784211 12.57975 4.786959 12.54328 4.778776 12.54329 4.784211 7.790253 12.57975 7.777337 12.54603 7.820825 12.54328 7.835406 12.4927 7.821121 12.54413 7.820825 12.54328 12.57557 4.730081 12.65757 4.807603 12.65666 4.808108 7.799096 12.57557 7.795376 12.5759 7.796135 12.65757 7.795376 12.5759 7.795343 12.65704 7.796135 12.65757 12.5759 4.729866 12.5725 4.73176 12.65704 4.807889 12.65709 4.82605 12.65709 4.828169 12.70552 4.815367 7.795947 12.65709 7.810339 12.70552 7.798618 12.64594 7.810339 12.70552 7.795947 12.65709 7.778853 12.70212 12.64594 4.831318 12.656 4.792043 12.70212 4.803193 7.840283 12.62795 7.778853 12.70212 7.795939 12.65709 12.57433 4.727608 12.54423 4.785154 12.54339 4.784812 7.799586 4.727608 7.79549 4.727065 7.767499 4.785154 12.57639 4.727065 12.57251 4.726177 12.54407 4.784824 12.54301 4.810085 12.54393 4.806157 12.54262 4.780367 7.767076 4.806157 7.825277 4.782961 7.767611 4.780367 7.765871 4.790119 7.767823 4.810085 7.767611 4.780367 12.57613 4.782686 12.54383 4.790119 12.5442 4.761402 7.825277 12.5687 7.745481 12.57613 7.767025 12.54397 7.797525 4.754727 7.837594 4.780713 7.836924 4.781262 7.798171 4.754073 7.795483 4.756265 7.837084 4.781098 12.57442 4.711459 12.59538 4.786103 12.59439 4.786139 7.799638 4.711459 7.795733 4.710358 7.767288 4.786103 7.795733 4.710358 7.766231 4.785939 7.767288 4.786103 12.57642 4.710358 12.57238 4.710945 12.59499 4.785939 7.795356 4.771781 7.766817 4.758861 7.766793 4.759304 7.795356 12.56976 7.780185 12.63402 7.766817 12.59498 12.57217 4.726562 12.57481 4.727273 12.53249 4.799533 7.799593 4.727273 7.794963 4.727604 7.801284 4.799832 12.57552 4.727604 12.53249 4.799533 12.53333 4.799797 12.5327 4.826231 12.53309 4.823223 12.56788 4.798269 7.800898 4.823223 7.800905 4.818962 7.75593 4.801039 7.800905 4.818962 7.801006 4.826231 7.75593 4.801039 7.801006 12.5327 7.804814 12.48766 7.75593 12.54754 7.804814 12.48766 7.800796 12.53302 7.75593 12.54754 7.75593 12.54754 7.800879 12.53309 7.828957 12.56788 12.56788 4.798269 12.53309 4.778905 12.53307 4.777978 12.48766 4.794668 12.56788 4.798269 12.53307 4.777978 7.795826 4.751208 7.799493 4.750466 7.811694 4.8248 7.796085 4.750417 7.810842 4.824788 7.811759 4.824603 12.59863 4.847251 12.59896 4.853286 12.56715 4.838083 12.61119 4.846764 12.5996 4.792601 12.59574 4.796478 7.806069 4.846764 7.77515 4.811298 7.811521 4.792601 7.837321 4.838083 7.814301 4.796478 7.77515 4.811298 7.77515 12.58098 7.814301 12.59574 7.811414 12.59863 7.811521 4.792601 7.77515 4.811298 7.811414 4.794607</float_array>
          <technique_common>
            <accessor source="#uv-array" count="1872" stride="2">
              <param name="S" type="float" />
              <param name="T" type="float" />
            </accessor>
          </technique_common>
        </source>
        <vertices id="vertices">
          <input semantic="POSITION" source="#positions" />
        </vertices>
        <triangles count="240" material="m0">
          <input semantic="VERTEX" source="#vertices" offset="0" />
          <input semantic="NORMAL" source="#normals" offset="1" />
          <input semantic="TEXCOORD" source="#uv" offset="2" set="0" />
          <p>0 0 0 4 0 1 3 0 2 2 1 3 5 1 4 1 1 5 0 2 6 3 2 7 2 2 8 6 3 9 10 3 10 9 3 11 7 4 12 10 4 13 6 4 14 8 5 15 9 5 16 11 5 17 22 11 33 25 11 34 21 11 35 22 12 36 26 12 37 25 12 38 35 16 48 37 16 49 34 16 50 36 17 51 38 17 52 35 17 53 36 18 54 39 18 55 38 18 56 48 23 69 52 23 70 51 23 71 50 24 72 53 24 73 49 24 74 50 25 75 51 25 76 53 25 77 64 32 96 67 32 97 63 32 98 65 33 99 66 33 100 68 33 101 78 44 132 82 44 133 81 44 134 80 45 135 81 45 136 83 45 137 78 46 138 81 46 139 80 46 140 92 51 153 94 51 154 91 51 155 92 52 156 96 52 157 95 52 158 93 53 159 94 53 160 96 53 161 106 59 177 108 59 178 105 59 179 106 60 180 110 60 181 109 60 182 105 61 183 110 61 184 107 61 185 120 73 219 124 73 220 123 73 221 121 74 222 125 74 223 124 74 224 122 75 225 125 75 226 121 75 227 0 82 246 1 82 247 4 82 248 1 83 249 5 83 250 4 83 251 2 84 252 3 84 253 5 84 254 7 85 255 11 85 256 10 85 257 7 86 258 8 86 259 11 86 260 8 87 261 6 87 262 9 87 263 21 95 285 25 95 286 24 95 287 22 96 288 23 96 289 26 96 290 23 97 291 24 97 292 26 97 293 23 98 294 21 98 295 24 98 296 35 104 312 38 104 313 37 104 314 36 105 315 34 105 316 39 105 317 34 106 318 37 106 319 39 106 320 48 113 339 49 113 340 52 113 341 49 114 342 53 114 343 52 114 344 50 115 345 48 115 346 51 115 347 63 122 366 67 122 367 66 122 368 64 123 369 65 123 370 67 123 371 65 124 372 68 124 373 67 124 374 65 125 375 63 125 376 66 125 377 78 128 384 79 128 385 82 128 386 79 129 387 83 129 388 82 129 389 79 130 390 80 130 391 83 130 392 92 135 405 95 135 406 94 135 407 92 136 408 93 136 409 96 136 410 93 137 411 91 137 412 94 137 413 106 143 429 109 143 430 108 143 431 106 144 432 107 144 433 110 144 434 105 145 435 108 145 436 110 145 437 120 147 441 121 147 442 124 147 443 122 148 444 123 148 445 125 148 446 122 149 447 120 149 448 123 149 449 135 156 468 139 156 469 138 156 470 137 157 471 140 157 472 136 157 473 135 158 474 138 158 475 137 158 476 142 159 477 145 159 478 144 159 479 143 160 480 145 160 481 142 160 482 141 161 483 146 161 484 143 161 485 154 168 504 158 168 505 157 168 506 155 169 507 159 169 508 158 169 509 156 170 510 159 170 511 155 170 512 154 171 513 157 171 514 156 171 515 170 177 531 172 177 532 169 177 533 171 178 534 174 178 535 173 178 536 169 179 537 174 179 538 171 179 539 184 187 561 188 187 562 187 187 563 183 188 564 188 188 565 185 188 566 198 196 588 202 196 589 201 196 590 199 197 591 203 197 592 202 197 593 200 198 594 201 198 595 203 198 596 214 207 621 218 207 622 217 207 623 216 208 624 219 208 625 215 208 626 214 209 627 219 209 628 216 209 629 229 213 639 232 213 640 231 213 641 230 214 642 232 214 643 229 214 644 228 215 645 233 215 646 230 215 647 243 220 660 245 220 661 242 220 662 244 221 663 246 221 664 243 221 665 244 222 666 245 222 667 247 222 668 257 228 684 260 228 685 259 228 686 258 229 687 261 229 688 260 229 689 256 230 690 261 230 691 258 230 692 135 237 711 136 237 712 139 237 713 136 238 714 140 238 715 139 238 716 137 239 717 138 239 718 140 239 719 141 240 720 142 240 721 144 240 722 143 241 723 146 241 724 145 241 725 141 242 726 144 242 727 146 242 728 154 245 735 155 245 736 158 245 737 156 246 738 157 246 739 159 246 740 170 254 762 173 254 763 172 254 764 170 255 765 171 255 766 173 255 767 169 256 768 172 256 769 174 256 770 183 260 780 184 260 781 186 260 782 184 261 783 187 261 784 186 261 785 184 262 786 185 262 787 188 262 788 183 263 789 186 263 790 188 263 791 198 269 807 199 269 808 202 269 809 199 270 810 200 270 811 203 270 812 200 271 813 198 271 814 201 271 815 214 278 834 215 278 835 218 278 836 215 279 837 219 279 838 218 279 839 214 280 840 217 280 841 219 280 842 228 288 864 229 288 865 231 288 866 230 289 867 233 289 868 232 289 869 228 290 870 231 290 871 233 290 872 243 297 891 246 297 892 245 297 893 244 298 894 247 298 895 246 298 896 244 299 897 242 299 898 245 299 899 256 305 915 257 305 916 259 305 917 257 306 918 258 306 919 260 306 920 256 307 921 259 307 922 261 307 923 270 312 936 274 312 937 273 312 938 272 313 939 275 313 940 271 313 941 270 314 942 273 314 943 272 314 944 276 315 945 280 315 946 279 315 947 278 316 948 280 316 949 277 316 950 278 317 951 279 317 952 281 317 953 292 324 972 294 324 973 291 324 974 292 325 975 295 325 976 294 325 977 293 326 978 296 326 979 292 326 980 293 327 981 294 327 982 296 327 983 306 337 1011 308 337 1012 305 337 1013 306 338 1014 310 338 1015 309 338 1016 307 339 1017 310 339 1018 306 339 1019 307 340 1020 308 340 1021 310 340 1022 323 352 1056 327 352 1057 326 352 1058 324 353 1059 327 353 1060 323 353 1061 336 359 1077 339 359 1078 335 359 1079 336 360 1080 340 360 1081 339 360 1082 335 361 1083 338 361 1084 337 361 1085 351 369 1107 354 369 1108 350 369 1109 351 370 1110 355 370 1111 354 370 1112 350 371 1113 355 371 1114 352 371 1115 366 379 1137 369 379 1138 368 379 1139 367 380 1140 369 380 1141 366 380 1142 379 386 1158 381 386 1159 378 386 1160 380 387 1161 382 387 1162 379 387 1163 378 388 1164 383 388 1165 380 388 1166 393 396 1188 396 396 1189 392 396 1190 393 397 1191 397 397 1192 396 397 1193 394 398 1194 397 398 1195 393 398 1196 394 399 1197 395 399 1198 397 399 1199 270 403 1209 271 403 1210 274 403 1211 271 404 1212 275 404 1213 274 404 1214 272 405 1215 273 405 1216 275 405 1217 276 406 1218 277 406 1219 280 406 1220 278 407 1221 281 407 1222 280 407 1223 278 408 1224 276 408 1225 279 408 1226 292 415 1245 296 415 1246 295 415 1247 293 416 1248 291 416 1249 294 416 1250 306 418 1254 309 418 1255 308 418 1256 307 419 1257 305 419 1258 308 419 1259 322 425 1275 326 425 1276 325 425 1277 322 426 1278 323 426 1279 326 426 1280 324 427 1281 325 427 1282 327 427 1283 324 428 1284 322 428 1285 325 428 1286 335 432 1296 339 432 1297 338 432 1298 336 433 1299 337 433 1300 340 433 1301 337 434 1302 338 434 1303 340 434 1304 350 440 1320 354 440 1321 353 440 1322 351 441 1323 352 441 1324 355 441 1325 350 442 1326 353 442 1327 355 442 1328 365 448 1344 366 448 1345 368 448 1346 367 449 1347 370 449 1348 369 449 1349 367 450 1350 365 450 1351 370 450 1352 365 451 1353 368 451 1354 370 451 1355 379 455 1365 382 455 1366 381 455 1367 380 456 1368 383 456 1369 382 456 1370 378 457 1371 381 457 1372 383 457 1373 392 461 1383 396 461 1384 395 461 1385 394 462 1386 392 462 1387 395 462 1388 405 468 1404 409 468 1405 408 468 1406 407 469 1407 410 469 1408 406 469 1409 405 470 1410 408 470 1411 407 470 1412 411 471 1413 415 471 1414 414 471 1415 413 472 1416 415 472 1417 412 472 1418 411 473 1419 416 473 1420 413 473 1421 425 479 1437 429 479 1438 428 479 1439 427 480 1440 430 480 1441 426 480 1442 427 481 1443 428 481 1444 430 481 1445 425 482 1446 428 482 1447 427 482 1448 439 486 1458 441 486 1459 438 486 1460 439 487 1461 443 487 1462 442 487 1463 440 488 1464 441 488 1465 443 488 1466 454 494 1482 458 494 1483 457 494 1484 455 495 1485 458 495 1486 454 495 1487 470 505 1515 474 505 1516 473 505 1517 471 506 1518 474 506 1519 470 506 1520 472 507 1521 473 507 1522 475 507 1523 485 513 1539 487 513 1540 484 513 1541 486 514 1542 488 514 1543 485 514 1544 486 515 1545 489 515 1546 488 515 1547 484 516 1548 487 516 1549 489 516 1550 497 525 1575 501 525 1576 500 525 1577 498 526 1578 501 526 1579 497 526 1580 511 535 1605 514 535 1606 513 535 1607 512 536 1608 515 536 1609 514 536 1610 513 537 1611 516 537 1612 515 537 1613 526 542 1626 530 542 1627 529 542 1628 527 543 1629 531 543 1630 530 543 1631 528 544 1632 531 544 1633 527 544 1634 526 545 1635 529 545 1636 528 545 1637 405 550 1650 406 550 1651 409 550 1652 406 551 1653 410 551 1654 409 551 1655 407 552 1656 408 552 1657 410 552 1658 411 553 1659 412 553 1660 415 553 1661 413 554 1662 416 554 1663 415 554 1664 411 555 1665 414 555 1666 416 555 1667 425 561 1683 426 561 1684 429 561 1685 426 562 1686 430 562 1687 429 562 1688 439 568 1704 442 568 1705 441 568 1706 439 569 1707 440 569 1708 443 569 1709 440 570 1710 438 570 1711 441 570 1712 455 580 1740 459 580 1741 458 580 1742 455 581 1743 456 581 1744 459 581 1745 456 582 1746 457 582 1747 459 582 1748 456 583 1749 454 583 1750 457 583 1751 471 589 1767 475 589 1768 474 589 1769 471 590 1770 472 590 1771 475 590 1772 472 591 1773 470 591 1774 473 591 1775 485 597 1791 488 597 1792 487 597 1793 486 598 1794 484 598 1795 489 598 1796 498 599 1797 502 599 1798 501 599 1799 498 600 1800 499 600 1801 502 600 1802 499 601 1803 500 601 1804 502 601 1805 499 602 1806 497 602 1807 500 602 1808 511 605 1815 512 605 1816 514 605 1817 512 606 1818 513 606 1819 515 606 1820 513 607 1821 514 607 1822 516 607 1823 526 616 1848 527 616 1849 530 616 1850 528 617 1851 529 617 1852 531 617 1853</p>
        </triangles>
        <triangles count="110" material="m5">
          <input semantic="VERTEX" source="#vertices" offset="0" />
          <input semantic="NORMAL" source="#normals" offset="1" />
          <input semantic="TEXCOORD" source="#uv" offset="2" set="0" />
          <p>14 6 18 16 6 19 12 6 20 16 7 21 15 7 22 13 7 23 15 8 24 19 8 25 17 8 26 17 9 27 18 9 28 16 9 29 17 10 30 19 10 31 18 10 32 69 34 102 75 34 103 73 34 104 69 35 105 71 35 106 75 35 107 69 36 108 72 36 109 71 36 110 69 37 111 70 37 112 72 37 113 70 38 114 73 38 115 72 38 116 73 39 117 75 39 118 72 39 119 72 40 120 74 40 121 71 40 122 75 41 123 74 41 124 72 41 125 71 42 126 76 42 127 75 42 128 71 43 129 74 43 130 77 43 131 99 54 162 103 54 163 98 54 164 97 55 165 102 55 166 99 55 167 103 56 168 102 56 169 98 56 170 99 57 171 102 57 172 101 57 173 102 58 174 104 58 175 101 58 176 14 88 264 17 88 265 16 88 266 13 89 267 12 89 268 16 89 269 14 90 270 15 90 271 17 90 272 14 91 273 13 91 274 15 91 275 19 92 276 15 92 277 20 92 278 15 93 279 16 93 280 20 93 281 16 94 282 18 94 283 20 94 284 74 126 378 75 126 379 76 126 380 71 127 381 77 127 382 76 127 383 100 138 414 99 138 415 98 138 416 97 139 417 98 139 418 102 139 419 97 140 420 99 140 421 100 140 422 99 141 423 101 141 424 103 141 425 102 142 426 103 142 427 104 142 428 177 180 540 175 180 541 178 180 542 176 181 543 179 181 544 175 181 545 178 182 546 179 182 547 176 182 548 175 183 549 180 183 550 178 183 551 175 184 552 179 184 553 180 184 554 179 185 555 182 185 556 180 185 557 178 186 558 181 186 559 182 186 560 235 216 648 237 216 649 239 216 650 236 217 651 238 217 652 237 217 653 237 218 654 238 218 655 240 218 656 239 219 657 240 219 658 241 219 659 176 257 771 177 257 772 178 257 773 179 258 774 178 258 775 182 258 776 178 259 777 180 259 778 181 259 779 234 291 873 235 291 874 236 291 875 235 292 876 239 292 877 236 292 878 234 293 879 236 293 880 237 293 881 237 294 882 240 294 883 239 294 884 236 295 885 241 295 886 238 295 887 236 296 888 239 296 889 241 296 890 312 341 1023 313 341 1024 311 341 1025 312 342 1026 315 342 1027 314 342 1028 316 343 1029 315 343 1030 312 343 1031 316 344 1032 317 344 1033 315 344 1034 311 345 1035 313 345 1036 316 345 1037 312 346 1038 314 346 1039 313 346 1040 316 347 1041 313 347 1042 317 347 1043 313 348 1044 318 348 1045 317 348 1046 315 349 1047 320 349 1048 314 349 1049 318 350 1050 321 350 1051 320 350 1052 318 351 1053 319 351 1054 321 351 1055 341 362 1086 342 362 1087 346 362 1088 343 363 1089 345 363 1090 344 363 1091 341 364 1092 345 364 1093 343 364 1094 342 365 1095 344 365 1096 346 365 1097 344 366 1098 348 366 1099 346 366 1100 345 367 1101 348 367 1102 344 367 1103 347 368 1104 348 368 1105 345 368 1106 401 400 1200 399 400 1201 402 400 1202 398 401 1203 403 401 1204 399 401 1205 402 402 1206 403 402 1207 398 402 1208 317 420 1260 318 420 1261 315 420 1262 313 421 1263 314 421 1264 318 421 1265 314 422 1266 320 422 1267 319 422 1268 315 423 1269 318 423 1270 320 423 1271 318 424 1272 314 424 1273 319 424 1274 342 435 1305 343 435 1306 344 435 1307 341 436 1308 346 436 1309 345 436 1310 345 437 1311 346 437 1312 347 437 1313 347 438 1314 346 438 1315 349 438 1316 346 439 1317 348 439 1318 349 439 1319 398 463 1389 401 463 1390 402 463 1391 401 464 1392 400 464 1393 399 464 1394 400 465 1395 398 465 1396 399 465 1397 402 466 1398 399 466 1399 404 466 1400 402 467 1401 404 467 1402 403 467 1403 490 517 1551 491 517 1552 492 517 1553 493 518 1554 495 518 1555 491 518 1556 490 519 1557 492 519 1558 493 519 1559 491 520 1560 495 520 1561 492 520 1562 493 521 1563 494 521 1564 495 521 1565 493 522 1566 496 522 1567 494 522 1568 492 523 1569 496 523 1570 493 523 1571 492 524 1572 495 524 1573 496 524 1574 520 538 1614 521 538 1615 519 538 1616 517 539 1617 521 539 1618 522 539 1619 520 540 1620 523 540 1621 525 540 1622 522 541 1623 524 541 1624 523 541 1625 517 608 1824 519 608 1825 521 608 1826 519 609 1827 518 609 1828 520 609 1829 518 610 1830 517 610 1831 520 610 1832 517 611 1833 522 611 1834 520 611 1835 522 612 1836 523 612 1837 520 612 1838 520 613 1839 525 613 1840 521 613 1841 521 614 1842 525 614 1843 524 614 1844 522 615 1845 521 615 1846 524 615 1847</p>
        </triangles>
        <triangles count="66" material="m3">
          <input semantic="VERTEX" source="#vertices" offset="0" />
          <input semantic="NORMAL" source="#normals" offset="1" />
          <input semantic="TEXCOORD" source="#uv" offset="2" set="0" />
          <p>28 13 39 29 13 40 30 13 41 29 14 42 32 14 43 30 14 44 30 15 45 32 15 46 33 15 47 84 47 141 90 47 142 86 47 143 84 48 144 85 48 145 88 48 146 86 49 147 90 49 148 87 49 149 85 50 150 87 50 151 88 50 152 29 99 297 27 99 298 32 99 299 27 100 300 28 100 301 30 100 302 32 101 303 27 101 304 31 101 305 27 102 306 30 102 307 33 102 308 31 103 309 27 103 310 33 103 311 86 131 393 87 131 394 85 131 395 84 132 396 88 132 397 90 132 398 88 133 399 87 133 400 89 133 401 87 134 402 90 134 403 89 134 404 204 199 597 209 199 598 207 199 599 207 200 600 210 200 601 208 200 602 209 201 603 210 201 604 207 201 605 208 202 606 209 202 607 204 202 608 209 203 609 212 203 610 211 203 611 209 204 612 213 204 613 212 204 614 210 205 615 213 205 616 208 205 617 210 206 618 211 206 619 213 206 620 204 272 816 205 272 817 208 272 818 205 273 819 207 273 820 208 273 821 205 274 822 206 274 823 207 274 824 206 275 825 204 275 826 207 275 827 209 276 828 208 276 829 213 276 830 210 277 831 209 277 832 211 277 833 356 372 1116 358 372 1117 359 372 1118 356 373 1119 360 373 1120 358 373 1121 357 374 1122 359 374 1123 360 374 1124 358 375 1125 361 375 1126 359 375 1127 358 376 1128 363 376 1129 362 376 1130 358 377 1131 364 377 1132 363 377 1133 360 378 1134 362 378 1135 364 378 1136 356 443 1329 357 443 1330 360 443 1331 360 444 1332 359 444 1333 361 444 1334 360 445 1335 361 445 1336 362 445 1337 361 446 1338 358 446 1339 362 446 1340 358 447 1341 360 447 1342 364 447 1343 447 489 1467 446 489 1468 448 489 1469 444 490 1470 446 490 1471 447 490 1472 450 491 1473 449 491 1474 446 491 1475 449 492 1476 451 492 1477 446 492 1478 448 493 1479 453 493 1480 450 493 1481 532 546 1638 535 546 1639 534 546 1640 534 547 1641 538 547 1642 533 547 1643 535 548 1644 536 548 1645 534 548 1646 533 549 1647 538 549 1648 535 549 1649 444 571 1713 450 571 1714 446 571 1715 444 572 1716 445 572 1717 450 572 1718 445 573 1719 447 573 1720 450 573 1721 447 574 1722 448 574 1723 450 574 1724 448 575 1725 446 575 1726 451 575 1727 451 576 1728 449 576 1729 452 576 1730 449 577 1731 453 577 1732 452 577 1733 449 578 1734 450 578 1735 453 578 1736 448 579 1737 451 579 1738 453 579 1739 532 618 1854 533 618 1855 535 618 1856 534 619 1857 537 619 1858 538 619 1859 534 620 1860 536 620 1861 537 620 1862 535 621 1863 538 621 1864 536 621 1865 536 622 1866 538 622 1867 539 622 1868 537 623 1869 536 623 1870 539 623 1871</p>
        </triangles>
        <triangles count="68" material="m4">
          <input semantic="VERTEX" source="#vertices" offset="0" />
          <input semantic="NORMAL" source="#normals" offset="1" />
          <input semantic="TEXCOORD" source="#uv" offset="2" set="0" />
          <p>41 19 57 45 19 58 42 19 59 42 20 60 45 20 61 46 20 62 45 21 63 47 21 64 46 21 65 45 22 66 43 22 67 47 22 68 40 107 321 42 107 322 44 107 323 40 108 324 41 108 325 42 108 326 41 109 327 44 109 328 45 109 329 42 110 330 46 110 331 44 110 332 44 111 333 43 111 334 45 111 335 44 112 336 46 112 337 43 112 338 147 162 486 148 162 487 153 162 488 147 163 489 153 163 490 149 163 491 148 164 492 150 164 493 153 164 494 149 165 495 152 165 496 150 165 497 149 166 498 151 166 499 152 166 500 152 167 501 153 167 502 150 167 503 222 210 630 220 210 631 223 210 632 223 211 633 221 211 634 222 211 635 223 212 636 227 212 637 221 212 638 148 243 729 149 243 730 150 243 731 149 244 732 153 244 733 151 244 734 220 281 843 221 281 844 224 281 845 220 282 846 224 282 847 223 282 848 221 283 849 227 283 850 224 283 851 223 284 852 224 284 853 225 284 854 224 285 855 226 285 856 225 285 857 224 286 858 227 286 859 226 286 860 223 287 861 225 287 862 227 287 863 282 318 954 287 318 955 284 318 956 282 319 957 286 319 958 285 319 959 287 320 960 285 320 961 289 320 962 286 321 963 290 321 964 285 321 965 287 322 966 289 322 967 286 322 968 286 323 969 288 323 970 290 323 971 330 354 1062 328 354 1063 329 354 1064 328 355 1065 332 355 1066 329 355 1067 328 356 1068 331 356 1069 332 356 1070 329 357 1071 332 357 1072 334 357 1073 331 358 1074 334 358 1075 333 358 1076 282 409 1227 285 409 1228 287 409 1229 282 410 1230 283 410 1231 286 410 1232 283 411 1233 284 411 1234 286 411 1235 284 412 1236 287 412 1237 286 412 1238 289 413 1239 285 413 1240 290 413 1241 286 414 1242 289 414 1243 288 414 1244 330 429 1287 329 429 1288 334 429 1289 332 430 1290 331 430 1291 333 430 1292 331 431 1293 330 431 1294 334 431 1295 419 474 1422 420 474 1423 417 474 1424 418 475 1425 420 475 1426 421 475 1427 420 476 1428 423 476 1429 422 476 1430 419 477 1431 421 477 1432 424 477 1433 421 478 1434 422 478 1435 424 478 1436 504 527 1581 503 527 1582 507 527 1583 506 528 1584 505 528 1585 503 528 1586 506 529 1587 508 529 1588 505 529 1589 506 530 1590 504 530 1591 508 530 1592 505 531 1593 507 531 1594 503 531 1595 504 532 1596 507 532 1597 508 532 1598 507 533 1599 509 533 1600 508 533 1601 505 534 1602 508 534 1603 510 534 1604 417 556 1668 420 556 1669 418 556 1670 418 557 1671 421 557 1672 419 557 1673 419 558 1674 423 558 1675 420 558 1676 421 559 1677 420 559 1678 422 559 1679 423 560 1680 419 560 1681 424 560 1682 507 603 1809 510 603 1810 509 603 1811 507 604 1812 505 604 1813 510 604 1814</p>
        </triangles>
        <triangles count="76" material="m2">
          <input semantic="VERTEX" source="#vertices" offset="0" />
          <input semantic="NORMAL" source="#normals" offset="1" />
          <input semantic="TEXCOORD" source="#uv" offset="2" set="0" />
          <p>56 26 78 59 26 79 55 26 80 57 27 81 59 27 82 54 27 83 58 28 84 55 28 85 57 28 86 59 29 87 57 29 88 60 29 89 59 30 90 60 30 91 61 30 92 57 31 93 61 31 94 62 31 95 58 116 348 57 116 349 54 116 350 58 117 351 56 117 352 55 117 353 56 118 354 54 118 355 59 118 356 55 119 357 61 119 358 57 119 359 55 120 360 59 120 361 61 120 362 57 121 363 62 121 364 60 121 365 160 172 516 165 172 517 161 172 518 161 173 519 165 173 520 163 173 521 161 174 522 163 174 523 168 174 524 165 175 525 166 175 526 163 175 527 164 176 528 167 176 529 165 176 530 252 223 669 250 223 670 248 223 671 249 224 672 251 224 673 252 224 674 250 225 675 253 225 676 251 225 677 252 226 678 254 226 679 250 226 680 251 227 681 253 227 682 255 227 683 265 231 693 264 231 694 262 231 695 264 232 696 266 232 697 262 232 698 266 233 699 268 233 700 265 233 701 264 234 702 267 234 703 266 234 704 264 235 705 269 235 706 267 235 707 264 236 708 268 236 709 269 236 710 160 247 741 162 247 742 165 247 743 162 248 744 161 248 745 164 248 746 162 249 747 164 249 748 165 249 749 161 250 750 168 250 751 164 250 752 164 251 753 168 251 754 167 251 755 163 252 756 166 252 757 168 252 758 166 253 759 165 253 760 167 253 761 249 300 900 248 300 901 251 300 902 251 301 903 248 301 904 250 301 905 252 302 906 251 302 907 254 302 908 250 303 909 254 303 910 253 303 911 254 304 912 251 304 913 255 304 914 265 308 924 263 308 925 266 308 926 263 309 927 262 309 928 266 309 929 264 310 930 265 310 931 268 310 932 268 311 933 266 311 934 267 311 935 297 328 984 300 328 985 301 328 986 298 329 987 304 329 988 299 329 989 297 330 990 301 330 991 298 330 992 299 331 993 304 331 994 300 331 995 298 332 996 301 332 997 304 332 998 301 333 999 302 333 1000 304 333 1001 301 334 1002 303 334 1003 302 334 1004 300 335 1005 303 335 1006 301 335 1007 300 336 1008 304 336 1009 303 336 1010 371 381 1143 374 381 1144 372 381 1145 372 382 1146 373 382 1147 375 382 1148 372 383 1149 374 383 1150 373 383 1151 375 384 1152 373 384 1153 376 384 1154 374 385 1155 376 385 1156 377 385 1157 299 417 1251 300 417 1252 297 417 1253 371 452 1356 375 452 1357 374 452 1358 374 453 1359 375 453 1360 376 453 1361 373 454 1362 374 454 1363 377 454 1364 461 496 1488 463 496 1489 462 496 1490 463 497 1491 464 497 1492 465 497 1493 460 498 1494 464 498 1495 463 498 1496 464 499 1497 462 499 1498 466 499 1499 464 500 1500 466 500 1501 467 500 1502 462 501 1503 465 501 1504 466 501 1505 465 502 1506 469 502 1507 468 502 1508 465 503 1509 467 503 1510 469 503 1511 466 504 1512 468 504 1513 467 504 1514 460 584 1752 461 584 1753 462 584 1754 460 585 1755 462 585 1756 464 585 1757 462 586 1758 463 586 1759 465 586 1760 464 587 1761 467 587 1762 465 587 1763 466 588 1764 465 588 1765 468 588 1766</p>
        </triangles>
        <triangles count="64" material="m1">
          <input semantic="VERTEX" source="#vertices" offset="0" />
          <input semantic="NORMAL" source="#normals" offset="1" />
          <input semantic="TEXCOORD" source="#uv" offset="2" set="0" />
          <p>111 62 186 114 62 187 113 62 188 111 63 189 112 63 190 114 63 191 112 64 192 113 64 193 116 64 194 113 65 195 115 65 196 116 65 197 114 66 198 115 66 199 113 66 200 116 67 201 114 67 202 112 67 203 115 68 204 114 68 205 117 68 206 116 69 207 118 69 208 114 69 209 114 70 210 118 70 211 117 70 212 116 71 213 119 71 214 118 71 215 116 72 216 117 72 217 119 72 218 126 76 228 129 76 229 128 76 230 127 77 231 128 77 232 130 77 233 130 78 234 133 78 235 129 78 236 133 79 237 132 79 238 129 79 239 129 80 240 132 80 241 131 80 242 131 81 243 134 81 244 130 81 245 115 146 438 117 146 439 116 146 440 126 150 450 127 150 451 129 150 452 127 151 453 130 151 454 129 151 455 131 152 456 128 152 457 129 152 458 130 153 459 128 153 460 131 153 461 133 154 462 130 154 463 134 154 464 131 155 465 132 155 466 134 155 467 189 189 567 190 189 568 193 189 569 190 190 570 191 190 571 194 190 572 192 191 573 193 191 574 191 191 575 191 192 576 196 192 577 194 192 578 191 193 579 193 193 580 196 193 581 193 194 582 197 194 583 196 194 584 196 195 585 195 195 586 194 195 587 190 264 792 192 264 793 191 264 794 192 265 795 189 265 796 193 265 797 190 266 798 194 266 799 193 266 800 193 267 801 194 267 802 195 267 803 193 268 804 195 268 805 197 268 806 385 389 1167 389 389 1168 384 389 1169 386 390 1170 387 390 1171 389 390 1172 384 391 1173 387 391 1174 386 391 1175 389 392 1176 388 392 1177 384 392 1178 387 393 1179 391 393 1180 389 393 1181 389 394 1182 390 394 1183 388 394 1184 388 395 1185 391 395 1186 387 395 1187 385 458 1374 386 458 1375 389 458 1376 384 459 1377 388 459 1378 387 459 1379 389 460 1380 391 460 1381 390 460 1382 432 483 1449 434 483 1450 431 483 1451 433 484 1452 437 484 1453 432 484 1454 437 485 1455 436 485 1456 432 485 1457 476 508 1524 480 508 1525 478 508 1526 478 509 1527 480 509 1528 479 509 1529 476 510 1530 483 510 1531 481 510 1532 480 511 1533 481 511 1534 482 511 1535 479 512 1536 482 512 1537 483 512 1538 431 563 1689 433 563 1690 432 563 1691 431 564 1692 434 564 1693 437 564 1694 434 565 1695 432 565 1696 435 565 1697 437 566 1698 434 566 1699 435 566 1700 435 567 1701 432 567 1702 436 567 1703 477 592 1776 478 592 1777 483 592 1778 478 593 1779 479 593 1780 483 593 1781 476 594 1782 477 594 1783 483 594 1784 480 595 1785 476 595 1786 481 595 1787 479 596 1788 480 596 1789 482 596 1790</p>
        </triangles>
      </mesh>
    </geometry>
  </library_geometries>
  <library_visual_scenes>
    <visual_scene id="Scene">
      <node id="Node" type="NODE">
        <instance_geometry url="#geometry">
          <bind_material>
            <technique_common>
              <instance_material symbol="m0" target="#m0">
                <bind_vertex_input semantic="UVSET0" input_semantic="TEXCOORD" input_set="0" />
              </instance_material>
              <instance_material symbol="m1" target="#m1">
                <bind_vertex_input semantic="UVSET0" input_semantic="TEXCOORD" input_set="0" />
              </instance_material>
              <instance_material symbol="m2" target="#m2">
                <bind_vertex_input semantic="UVSET0" input_semantic="TEXCOORD" input_set="0" />
              </instance_material>
              <instance_material symbol="m3" target="#m3">
                <bind_vertex_input semantic="UVSET0" input_semantic="TEXCOORD" input_set="0" />
              </instance_material>
              <instance_material symbol="m4" target="#m4">
                <bind_vertex_input semantic="UVSET0" input_semantic="TEXCOORD" input_set="0" />
              </instance_material>
              <instance_material symbol="m5" target="#m5">
                <bind_vertex_input semantic="UVSET0" input_semantic="TEXCOORD" input_set="0" />
              </instance_material>
            </technique_common>
          </bind_material>
        </instance_geometry>
      </node>
    </visual_scene>
  </library_visual_scenes>
  <scene>
    <instance_visual_scene url="#Scene" />
  </scene>
</COLLADA>