<?xml version='1.0' encoding='utf-8'?>
<COLLADA xmlns="http://www.collada.org/2005/11/COLLADASchema" version="1.4.1">
  <asset>
    <created>2026-09-15T00:00:00Z</created>
    <modified>2026-09-15T00:00:00Z</modified>
    <unit name="meter" meter="1" />
    <up_axis>Z_UP</up_axis>
  </asset>
  <library_images />
  <library_effects>
    <effect id="e0">
      <profile_COMMON>
        <technique sid="common">
          <phong>
            <ambient>
              <color>0.1755 0.18 0.1485 1</color>
            </ambient>
            <diffuse>
              <color>0.39 0.4 0.33 1</color>
            </diffuse>
            <specular>
              <color>0.02 0.02 0.02 1</color>
            </specular>
            <shininess>
              <float>8</float>
            </shininess>
          </phong>
        </technique>
      </profile_COMMON>
    </effect>
    <effect id="e1">
      <profile_COMMON>
        <technique sid="common">
          <phong>
            <ambient>
              <color>0.045 0.09 0.06075 1</color>
            </ambient>
            <diffuse>
              <color>0.1 0.2 0.135 1</color>
            </diffuse>
            <specular>
              <color>0.02 0.02 0.02 1</color>
            </specular>
            <shininess>
              <float>8</float>
            </shininess>
          </phong>
        </technique>
      </profile_COMMON>
    </effect>
    <effect id="e2">
      <profile_COMMON>
        <technique sid="common">
          <phong>
            <ambient>
              <color>0.0765 0.1215 0.0765 1</color>
            </ambient>
            <diffuse>
              <color>0.17 0.27 0.17 1</color>
            </diffuse>
            <specular>
              <color>0.02 0.02 0.02 1</color>
            </specular>
            <shininess>
              <float>8</float>
            </shininess>
          </phong>
        </technique>
      </profile_COMMON>
    </effect>
    <effect id="e3">
      <profile_COMMON>
        <technique sid="common">
          <phong>
            <ambient>
              <color>0.099 0.1395 0.09225 1</color>
            </ambient>
            <diffuse>
              <color>0.22 0.31 0.205 1</color>
            </diffuse>
            <specular>
              <color>0.02 0.02 0.02 1</color>
            </specular>
            <shininess>
              <float>8</float>
            </shininess>
          </phong>
        </technique>
      </profile_COMMON>
    </effect>
    <effect id="e4">
      <profile_COMMON>
        <technique sid="common">
          <phong>
            <ambient>
              <color>0.054 0.1035 0.09 1</color>
            </ambient>
            <diffuse>
              <color>0.12 0.23 0.2 1</color>
            </diffuse>
            <specular>
              <color>0.02 0.02 0.02 1</color>
            </specular>
            <shininess>
              <float>8</float>
            </shininess>
          </phong>
        </technique>
      </profile_COMMON>
    </effect>
    <effect id="e5">
      <profile_COMMON>
        <technique sid="common">
          <phong>
            <ambient>
              <color>0.126 0.1485 0.0855 1</color>
            </ambient>
            <diffuse>
              <color>0.28 0.33 0.19 1</color>
            </diffuse>
            <specular>
              <color>0.02 0.02 0.02 1</color>
            </specular>
            <shininess>
              <float>8</float>
            </shininess>
          </phong>
        </technique>
      </profile_COMMON>
    </effect>
  </library_effects>
  <library_materials>
    <material id="m0" name="m0">
      <instance_effect url="#e0" />
    </material>
    <material id="m1" name="m1">
      <instance_effect url="#e1" />
    </material>
    <material id="m2" name="m2">
      <instance_effect url="#e2" />
    </material>
    <material id="m3" name="m3">
      <instance_effect url="#e3" />
    </material>
    <material id="m4" name="m4">
      <instance_effect url="#e4" />
    </material>
    <material id="m5" name="m5">
      <instance_effect url="#e5" />
    </material>
  </library_materials>
  <library_geometries>
    <geometry id="geometry" name="forest_25_19">
      <mesh>
        <source id="positions">
          <float_array id="positions-array" count="405">51.03391 -7.92831 -0.8579481 51.08743 -7.850626 -0.8646557 50.98327 -7.861984 -0.8627433 51.033 -7.833498 2.420902 51.06168 -7.820835 2.420381 51.03307 -7.804137 2.41984 51.03892 -7.8671 1.933162 51.05865 -7.842321 1.956232 51.02014 -7.839854 1.937972 50.79237 -8.105036 2.549425 50.80129 -8.103229 2.554958 50.7937 -8.097071 2.554336 50.75833 -8.078477 2.981779 50.80593 -8.110331 2.940737 50.79585 -8.101849 2.878669 50.9811 -7.714244 2.673088 50.79252 -8.103398 2.152201 50.78448 -8.101834 2.395949 50.94095 -8.124764 2.455962 51.04511 -7.869183 1.023527 51.05527 -7.838494 1.004397 51.02753 -7.835076 1.062081 51.64469 -7.871421 2.204333 51.64674 -7.861498 2.202536 51.64114 -7.862751 2.208315 51.66631 -7.893988 2.257123 51.64439 -7.86591 2.464446 51.64433 -7.865934 2.522372 51.96163 -7.47789 2.334721 51.93223 -8.255193 2.26912 51.61873 -7.856174 1.958252 51.63158 -7.862612 1.888578 51.64476 -7.866078 1.914142 51.03882 -7.868679 1.361938 51.05487 -7.830238 1.34988 51.02353 -7.837299 1.328957 50.7144 -7.592557 2.629116 50.72292 -7.586813 2.630695 50.71542 -7.583099 2.626419 50.7131 -7.58626 3.002022 50.71759 -7.587583 2.902601 50.71721 -7.589673 2.989193 50.71823 -7.187026 2.605069 50.35322 -7.725143 2.698764 50.71629 -7.582679 2.283583 50.71754 -7.587674 2.340979 51.12265 -7.758957 2.523608 50.71761 -7.587596 2.362455 51.04301 -7.868076 0.8181882 51.05271 -7.830895 0.8512113 51.02245 -7.836404 0.8487689 51.07988 -8.294031 2.607491 51.08476 -8.285834 2.610968 51.07491 -8.288644 2.610113 51.08032 -8.288973 2.911781 51.07939 -8.288936 2.969265 51.08003 -8.289146 2.925474 51.08684 -7.829348 2.635547 50.84533 -8.586871 2.530082 51.4657 -8.560626 2.476638 51.0803 -8.289011 2.257467 51.08012 -8.290061 2.24589 51.08038 -8.288923 2.319605 51.02565 -7.863122 0.7952289 51.05817 -7.86056 0.7785617 51.04221 -7.826683 0.7661202 51.28472 -7.551481 2.657939 51.28574 -7.542081 2.65498 51.27692 -7.546639 2.658356 51.28367 -7.544388 3.097159 51.28245 -7.546409 3.119455 51.28303 -7.636845 3.166789 51.28693 -7.542507 2.333567 50.95981 -7.565653 2.577714 51.60085 -7.640568 2.470809 51.28695 -7.544642 2.20781 51.28171 -7.547839 2.234625 51.04871 -7.86975 0.991967 51.05101 -7.831288 1.008865 51.02217 -7.840765 0.9618911 50.40647 -7.999444 2.508472 50.41105 -7.992302 2.513193 50.4044 -7.989146 2.508724 50.4069 -7.994122 2.773859 50.36625 -7.573088 2.501079 50.40683 -7.994062 2.850769 50.40242 -7.995665 2.888849 49.9422 -8.283736 2.540828 50.43657 -7.977097 2.485894 50.40158 -7.992676 2.070216 50.40117 -7.997208 2.107902 51.02669 -7.865472 1.188796 51.06186 -7.846447 1.163692 51.03221 -7.830236 1.208969 51.58044 -8.215205 2.777162 51.58767 -8.209829 2.775132 51.58053 -8.205344 2.780789 51.5828 -8.210104 3.127405 51.47252 -7.829495 2.840452 51.58212 -8.209484 3.199575 51.58367 -8.210231 3.191752 51.86987 -8.483345 2.705639 51.29437 -8.457094 2.684472 51.58053 -8.207415 2.380158 51.58278 -8.210126 2.438442 51.5836 -8.210185 2.370173 51.03033 -7.867117 0.9077853 51.06014 -7.838151 0.8933434 51.02255 -7.836343 0.8839046 50.9132 -7.418677 2.925301 50.90699 -7.410787 2.921797 50.9038 -7.418236 2.92413 50.90253 -7.395502 3.28498 50.9087 -7.41638 3.23923 50.90933 -7.41089 3.002609 50.74231 -7.053117 2.926638 50.81976 -7.669821 2.856984 50.9091 -7.418647 2.587157 50.9087 -7.41579 2.635413 50.90526 -7.410619 2.599435 51.03036 -7.866494 1.246085 51.06189 -7.850083 1.267227 51.03042 -7.826803 1.273228 50.91432 -8.129978 2.615453 50.91691 -8.123153 2.61819 50.90699 -8.122884 2.616694 50.91202 -8.125241 2.936387 50.9129 -8.124367 3.046732 50.80431 -7.690239 2.448386 50.91171 -8.125187 2.984158 51.23258 -8.148711 2.790189 50.6504 -8.506628 2.676192 50.94373 -8.129956 2.255759 50.91185 -8.125138 2.210668 50.912 -8.125207 2.250069</float_array>
          <technique_common>
            <accessor source="#positions-array" count="135" stride="3">
              <param name="X" type="float" />
              <param name="Y" type="float" />
              <param name="Z" type="float" />
            </accessor>
          </technique_common>
        </source>
        <source id="normals">
          <float_array id="normals-array" count="468">0.4041766 -0.9142956 0.02655028 -0.1086741 0.9939508 -0.01586702 -0.7953371 -0.6059205 0.01730047 0.3252555 -0.9185819 -0.2245353 -0.1060986 0.9309088 0.3495024 -0.930837 0.2915736 -0.2202891 -0.761528 -0.4410264 -0.474943 -0.8971571 0.2281783 -0.3782112 0.9437127 0.3294934 0.02899059 0.9029483 -0.2665917 0.3370655 -0.1860897 -0.98229 0.02184033 0.7716263 -0.5003353 -0.3927562 -0.1265705 0.9877188 0.09160444 -0.64055 -0.6962498 0.3239318 0.762371 -0.6455206 -0.04575646 -0.5863157 0.09012374 -0.8050538 0.6922824 0.7213784 -0.01892855 0.5373149 0.8431166 0.02114197 -0.6670245 -0.7070439 -0.2348769 0.9118418 -0.2892858 0.2913044 -0.07951588 0.9745037 -0.2098088 -0.9706718 0.03638608 -0.237639 0.3633398 -0.9314221 -0.02090698 0.1710491 0.9643966 -0.2016965 0.6551249 -0.5369215 -0.5315323 -0.04482544 0.9256933 -0.3756097 -0.7491663 -0.462161 -0.4745073 -0.3912258 -0.9202826 0.004723694 -0.1928871 0.9491315 0.2488856 -0.7598514 -0.6357776 -0.1356934 0.7796925 -0.6261031 0.008631625 0.9146792 -0.2470848 -0.3198611 -0.0835313 0.8192586 -0.5673075 0.8023318 -0.5954725 0.04094205 -0.5801864 -0.8143524 0.01462167 -0.9999111 0.0132894 0.001130528 0.1502568 -0.9782834 0.142774 0.9858328 -0.13737 -0.09624534 -0.8952791 0.4431805 0.04545785 0.8356699 -0.2504681 -0.488796 -0.8705337 -0.2922059 -0.3959631 0.06897437 -0.9976161 -0.002162328 -0.2967246 -0.9549562 -0.003619532 0.1243898 0.9908959 0.05150145 0.1446152 0.9718209 0.1861466 -0.3045391 -0.9523636 0.01610738 0.1060432 -0.9932061 0.04792257 0.7289809 -0.6355156 0.2543752 -0.2818013 0.9592531 -0.02052916 -0.5334399 -0.7931921 -0.2937483 0.9917311 0.1218471 0.0402823 0.5174038 -0.855409 0.02384813 -0.5267722 0.8499966 0.004106155 0.7645497 -0.4293225 0.4807763 -0.4563253 0.8840266 0.1013126 0.2803636 -0.9122658 -0.2986091 0.5393915 0.8419412 0.01385397 -0.9462229 -0.03589202 0.3215182 0.05794894 0.8553948 -0.5147249 0.8919334 -0.1469056 -0.4276372 -0.851015 -0.4680842 -0.238056 0.8084198 -0.3475465 0.4750461 -0.8046523 -0.5399234 0.2470169 0.9382282 -0.1248869 0.3226936 0.7979152 0.5991468 -0.06598749 0.09669229 0.9753811 -0.1981975 -0.9258685 0.3559244 -0.126828 0.9222673 0.07293871 0.379609 -0.9440515 0.3297496 -0.005653144 -0.8968203 -0.4423086 0.008737821 0.9311958 -0.3635591 0.02644247 0.6069644 0.7638086 0.2195237 -0.2702593 0.6621988 -0.6988939 0.06918075 0.9975683 -0.008454339 0.9764283 0.2147822 -0.02136168 -0.4386823 -0.7633296 -0.4742212 -0.5408856 0.7779909 0.3196451 -0.7982604 -0.4354088 0.4161725 0.9703355 0.2417394 -0.003313726 0.8598362 -0.0197415 0.5101882 -0.007287885 0.7473078 0.664438 -0.7512041 -0.4498017 0.4830847 0.8238932 -0.5666264 0.01159719 0.5041598 0.8636017 -0.003879673 -0.9998812 0.003004931 0.01511545 0.7607486 -0.647496 0.04483789 0.5126431 0.6843186 0.5185606 0.8362204 -0.5085269 -0.2052702 0.5509574 0.8344883 -0.008676175 -0.9350387 0.2328602 -0.2673552 0.1412838 0.9899199 0.009877988 0.8645579 -0.25719 -0.4317325 0.080216 0.9965674 -0.02046475 -0.7694569 -0.4980227 0.3998868 0.8052174 0.5929601 0.004822959 0.8043374 0.5941718 0.001111252 0.8053383 0.5928109 -0.002349161 -0.7233201 -0.03085446 0.6898232 0.1184435 0.9902632 0.07314341 0.4934909 -0.8149244 0.3039159 0.464907 0.8840826 -0.04753327 -0.8471151 -0.5212751 -0.1032874 -0.3393872 0.9402342 -0.02785593 0.7497851 -0.4194818 0.5117199 -0.2736669 0.95767 0.08930095 0.1477183 0.8635186 0.482198 -0.590698 -0.5070872 0.6276452 0.3716575 0.9269384 0.05153623 0.8753015 -0.4660581 -0.128985 0.9784783 -0.1947642 -0.06817002 -0.2855031 0.9261859 0.2463081 -0.8747021 -0.475072 -0.09593123 -0.7769421 0.6294393 -0.01292855 -0.9998781 0.005636315 -0.01455765 -0.8056736 -0.3073603 -0.506379 0.8626486 -0.3285679 0.3845523 0.03472819 0.6767014 0.7354381 -0.5908221 -0.4514008 0.6687052 0.9139808 0.3669671 -0.1731309 -0.4789044 0.8750634 -0.07010507 -0.5074376 -0.8356127 0.2103771 0.1898806 -0.9786784 -0.07831901 0.1721029 0.9736352 0.1497169 0.9069652 -0.2137088 0.3629637 0.2913332 0.9301478 0.2234953 -0.9087741 -0.1733533 -0.3795766 -0.9953151 -0.0966796 -0.0009023328 0.6713645 -0.4342043 -0.6006133 -0.9816847 -0.1674312 -0.09089517 -0.5275438 0.8495096 -0.005555781 -0.9807057 -0.1740247 0.08906026 0.4968993 -0.7975784 -0.3419939 0.5108456 0.859253 0.02685204 -0.9460219 -0.1044398 0.3068141 -0.9072296 -0.3959208 -0.1420605 -0.6391441 0.7689836 -0.01261021 0.6833704 0.73003 -0.007814871 -0.6190235 0.783049 0.06036662 0.00585352 0.7023082 0.711849 0.6856977 0.7278477 0.007516095 0.7298067 -0.6571703 0.1884394 -0.9685223 -0.2488688 -0.005369419 -0.0721708 -0.9745101 0.212418 -0.4447095 0.7906869 -0.4207703 -0.9459117 0.3243851 0.005029327 -0.9062328 -0.4227771 0.001244083 0.9481152 0.1506789 -0.2799526 -0.906816 -0.4214337 0.008852528 -0.8861358 0.4392155 0.1478279 0.9504089 -0.3098939 0.02624126 0.5199745 -0.8458942 -0.1186995 -0.005900599 0.9766621 0.2147005 -0.9953062 0.05563769 -0.07918299 -0.6988351 -0.6890861 -0.191807 -0.8226995 0.5684447 -0.006004111 0.8741131 -0.276273 -0.399499</float_array>
          <technique_common>
            <accessor source="#normals-array" count="156" stride="3">
              <param name="X" type="float" />
              <param name="Y" type="float" />
              <param name="Z" type="float" />
            </accessor>
          </technique_common>
        </source>
        <source id="uv">
          <float_array id="uv-array" count="936">20.41356 -0.3431792 20.42467 0.9681525 20.4132 0.9683609 20.39331 -0.3450973 20.41323 0.9679361 20.43497 -0.3458623 -3.171324 -0.3431792 -3.133399 0.9683609 -3.144794 -0.3450973 20.41557 0.7732647 20.32052 1.021983 20.31695 1.01977 20.40806 0.7751886 20.31748 1.021734 20.42346 0.7824927 -3.135942 0.7751886 -3.242015 1.01977 -3.238828 1.021734 -3.14684 0.7732647 -3.242015 1.01977 -3.135942 0.7751886 -3.24074 1.151468 -3.231391 1.192712 -3.085698 1.069235 -3.231391 1.192712 -3.240734 0.9583798 -3.241359 0.8608804 -3.231391 1.192712 -3.249906 0.9823847 -3.085698 1.069235 20.30333 1.192712 20.31701 0.8608804 20.37638 0.9823847 -3.135397 0.4017589 -3.148569 0.8817332 -3.147673 0.4094108 20.41101 0.4248323 20.65646 0.8833259 20.6587 0.8810145 20.41804 0.4094108 20.65787 0.8817332 20.41101 0.4248323 -3.146374 1.008949 -3.14247 0.7833006 -2.991156 0.9338885 20.65773 -3.146374 20.78465 -2.991156 20.77289 -3.302077 20.66652 0.9028492 20.64749 0.7833006 20.65773 1.008949 20.66652 0.9028492 20.65263 0.7554311 20.64749 0.7833006 20.77289 0.9076481 20.64749 0.7833006 20.6579 0.765657 -3.132095 0.539952 -3.034725 1.052278 -3.147471 0.5447753 20.40941 0.5315829 20.28617 1.050568 20.42195 0.539952 -3.13492 0.5315829 -3.037023 1.051646 -3.03324 1.050568 20.28689 1.195677 20.14129 1.079506 20.28704 1.16104 20.28689 1.195677 20.28524 1.200809 20.44906 1.009443 -3.090057 1.079506 -2.87481 1.042028 -3.034504 1.200809 20.44906 1.009443 20.14129 1.079506 20.28689 1.195677 -3.034504 1.200809 -2.87481 1.042028 -3.103583 1.009443 20.44906 1.009443 20.28705 0.944982 20.28701 0.9363917 20.40898 0.3395075 20.4339 1.044387 20.42108 0.3404845 -3.14723 0.3272753 -3.317612 1.042996 -3.315458 1.044045 -3.315589 1.164712 -3.315658 1.17019 -3.434748 1.012033 -3.315575 1.187706 -3.434748 1.012033 -3.131739 1.054219 20.43201 1.17019 20.58628 0.9906553 20.33813 1.012033 -3.434748 1.012033 -3.316025 0.8983561 -3.315604 0.9029868 20.58628 0.9906553 20.43215 0.9278419 20.43205 0.8983561 -3.131739 1.054219 -3.315604 0.9029868 -3.315569 0.9278419 20.42327 0.3114247 20.51389 1.063176 20.41026 0.3180916 -3.144224 0.3114247 -3.016832 1.061992 -3.020592 1.063176 -3.145249 0.3180916 -3.018655 1.063342 -3.130673 0.3064481 -3.054738 1.266716 -3.026261 1.031085 -3.018563 1.247782 -3.017755 1.238864 -3.056227 0.9883234 -3.054738 1.266716 20.38392 1.031085 20.51477 0.9334267 20.51347 1.238864 20.51347 1.238864 20.51477 0.9334267 20.64034 0.9883234 20.51321 1.266716 20.64034 0.9883234 20.38392 1.031085 20.64034 0.9883234 20.51268 0.89385 20.38392 1.031085 20.51477 0.9334267 20.51478 0.8831241 20.64034 0.9883234 20.51268 0.89385 20.51477 0.9334267 20.38392 1.031085 -3.1479 0.3967868 -3.196921 1.005277 -3.199777 1.003389 20.40887 0.3847564 20.16176 1.00349 20.4204 0.4035461 20.41948 0.3967868 20.16259 1.003389 20.40887 0.3847564 -3.197649 1.109544 -3.029235 1.000432 -3.198266 1.15554 20.16097 1.15554 19.97688 1.016331 20.16273 1.140308 19.97688 1.016331 20.17463 0.9943575 20.16047 0.8431609 -3.313494 1.016331 -3.19707 0.8280866 -3.029235 1.000432 19.97688 1.016331 20.16047 0.8431609 20.16063 0.8280866 20.42474 0.4654766 20.63218 1.110865 20.41068 0.4755184 20.42474 0.4654766 20.63221 1.112315 20.63507 1.110053 -3.146189 0.4755184 -3.282138 1.112315 -3.132094 0.4835875 20.63312 1.250962 20.74795 1.082256 20.51775 1.073789 -3.283794 1.27983 -3.382838 1.073789 -3.131798 1.136181 -3.131798 1.136181 -3.393338 1.082256 -3.284093 1.276701 -3.382838 1.073789 -3.282966 0.9520631 -3.131798 1.136181 -3.131798 1.136181 -3.284074 0.9480692 -3.393338 1.082256 -3.282966 0.9520631 -3.284074 0.9480692 -3.131798 1.136181 -3.13526 0.3573374 -2.964315 1.168719 -2.967471 1.17012 20.40902 0.3535618 20.3628 1.168719 20.42406 0.3573374 -3.134537 0.3535618 -2.967294 1.169652 -2.964315 1.168719 -3.067929 1.142794 -2.964248 1.039774 -2.821247 1.170655 -2.964356 1.201044 -2.967459 1.034863 -3.067929 1.142794 -2.964356 1.201044 -2.964248 1.039774 -2.967459 1.034863 -3.140033 0.5068907 -3.249261 1.047276 -3.251991 1.046181 20.41217 0.5092911 20.36676 1.047276 20.42475 0.5068907 20.36481 -3.250096 20.49303 -3.259484 20.26016 -3.402651 20.36481 1.174555 20.36516 1.218693 20.49303 1.116076 -3.250075 1.193663 -3.076096 0.9793546 -3.249747 1.218693 20.32172 0.9793546 20.49303 1.116076 20.36516 1.218693 20.49303 1.116076 20.37749 0.9023034 20.26016 1.070477 -3.259484 1.116076 -3.076096 0.9793546 -3.251983 0.9023034 -3.076096 0.9793546 -3.250083 0.9000275 -3.250055 0.8842673 -3.402651 1.070477 -3.250083 0.9000275 -3.076096 0.9793546 20.26016 1.070477 20.37749 0.9023034 20.3648 0.9000275 -3.076096 0.9793546 -3.250055 0.8842673 -3.251983 0.9023034 -3.171324 -0.3431792 -3.140251 -0.3458623 -3.128334 0.9681525 20.43497 -0.3458623 20.41323 0.9679361 20.42467 0.9681525 -3.144794 -0.3450973 -3.133399 0.9683609 -3.121655 0.9679361 -3.14684 0.7732647 -3.136928 0.7824927 -3.241292 1.021983 20.42346 0.7824927 20.31748 1.021734 20.32052 1.021983 -3.24074 1.151468 -3.085698 1.069235 -3.244133 1.176295 20.32237 1.176295 20.31379 0.9583798 20.30333 1.192712 -3.244133 1.176295 -3.085698 1.069235 -3.249906 0.9823847 20.31379 0.9583798 20.32237 1.176295 20.37638 0.9823847 -3.135397 0.4017589 -3.144599 0.8810145 -3.148569 0.8817332 20.42211 0.4017589 20.41101 0.4248323 20.6587 0.8810145 -3.134031 0.4248323 -3.148569 0.8817332 -3.145101 0.8833259 -3.146364 0.9857783 -3.302077 0.9076481 -3.157595 0.9028492 -3.146364 0.9857783 -3.146374 1.008949 -3.302077 0.9076481 -3.157595 0.9028492 -3.302077 0.9076481 -3.146431 0.765657 -3.302077 0.9076481 -2.991156 0.9338885 -3.14247 0.7833006 20.66652 0.9028492 20.6579 0.765657 20.65263 0.7554311 20.41553 0.5447753 20.28917 1.052278 20.28576 1.051646 20.42195 0.539952 20.28617 1.050568 20.28917 1.052278 -3.13492 0.5315829 -3.147471 0.5447753 -3.037023 1.051646 20.28704 1.16104 20.14129 1.079506 20.28524 1.200809 -2.87481 1.042028 -3.090057 1.079506 -3.033072 0.913433 20.14129 1.079506 20.28701 0.9363917 20.28651 0.913433 20.14129 1.079506 20.44906 1.009443 20.28701 0.9363917 20.44906 -3.103583 20.28729 -2.87481 20.28651 -3.033072 20.44906 1.009443 20.28651 0.913433 20.28705 0.944982 -3.14723 0.3272753 -3.314334 1.044387 -3.317612 1.042996 -3.14723 0.3272753 -3.132358 0.3404845 -3.314334 1.044387 20.40898 0.3395075 20.42996 1.044045 20.4339 1.044387 -3.134562 0.3395075 -3.14723 0.3272753 -3.315458 1.044045 -3.315589 1.164712 -3.434748 1.012033 -3.315575 1.187706 -3.315658 1.17019 -3.315575 1.187706 -3.131739 1.054219 -3.315658 1.17019 -3.131739 1.054219 -3.42425 0.9906553 -3.131739 1.054219 -3.434748 1.012033 -3.315604 0.9029868 20.33813 -3.434748 20.58628 -3.42425 20.43205 -3.316025 20.58628 -3.42425 20.43474 -3.131739 20.43215 -3.315569 -3.144224 0.3114247 -3.130673 0.3064481 -3.016832 1.061992 20.41689 0.3064481 20.51077 1.063342 20.5143 1.061992 20.41026 0.3180916 20.51389 1.063176 20.51077 1.063342 20.51298 1.247782 20.38392 1.031085 20.51347 1.238864 20.64034 0.9883234 20.51478 0.8831241 20.51268 0.89385 -3.1479 0.3967868 -3.132515 0.4035461 -3.196921 1.005277 20.4204 0.4035461 20.16176 1.00349 20.16442 1.005277 -3.136306 0.3847564 -3.199777 1.003389 -3.195658 1.00349 -3.197649 1.109544 -3.197625 1.140308 -3.029235 1.000432 -3.029235 1.000432 -3.197625 1.140308 -3.313494 1.016331 -3.198266 1.15554 -3.029235 1.000432 -3.190839 0.9943575 20.16097 1.15554 20.17463 0.9943575 19.97688 1.016331 -3.029235 1.000432 -3.19707 0.8280866 -3.190839 0.9943575 20.42474 0.4654766 20.63507 1.110053 20.63218 1.110865 20.42474 0.4654766 20.41288 0.4835875 20.63221 1.112315 -3.146189 0.4755184 -3.286082 1.110865 -3.282138 1.112315 -3.284093 1.276701 -3.283794 1.27983 -3.131798 1.136181 20.63312 1.250962 20.51775 1.073789 20.63285 1.27983 20.63312 1.250962 20.63347 1.276701 20.74795 1.082256 20.63221 0.9520631 20.51775 1.073789 20.63311 0.9753769 20.51775 -3.382838 20.74795 -3.393338 20.63311 -3.28405 20.74795 1.082256 20.63344 0.9480692 20.63311 0.9753769 -3.146847 0.3631141 -3.13526 0.3573374 -2.967471 1.17012 -3.134537 0.3535618 -3.146847 0.3631141 -2.967294 1.169652 20.41213 0.3631141 20.36528 1.17012 20.36152 1.169652 20.36348 1.295692 20.3279 1.142794 20.36101 1.313992 -2.966552 1.295692 -2.964356 1.201044 -3.067929 1.142794 -2.964356 1.201044 -2.958201 1.313992 -2.821247 1.170655 -2.958201 1.313992 -3.067929 1.142794 -2.821247 1.170655 -2.964356 1.201044 -2.821247 1.170655 -2.964248 1.039774 -2.964248 1.039774 -3.067929 1.142794 -2.966316 1.054165 -3.067929 1.142794 -2.967459 1.034863 -2.966316 1.054165 20.41214 0.4984342 20.42475 0.5068907 20.36573 1.046181 20.41217 0.5092911 20.3628 1.046678 20.36676 1.047276 -3.130721 0.5092911 -3.146598 0.4984342 -3.249154 1.046678 -3.146598 0.4984342 -3.251991 1.046181 -3.249154 1.046678 -3.250075 1.193663 -3.250096 1.174555 -3.402651 1.070477 -3.076096 0.9793546 -3.250075 1.193663 -3.402651 1.070477</float_array>
          <technique_common>
            <accessor source="#uv-array" count="468" stride="2">
              <param name="S" type="float" />
              <param name="T" type="float" />
            </accessor>
          </technique_common>
        </source>
        <vertices id="vertices">
          <input semantic="POSITION" source="#positions" />
        </vertices>
        <triangles count="60" material="m0">
          <input semantic="VERTEX" source="#vertices" offset="0" />
          <input semantic="NORMAL" source="#normals" offset="1" />
          <input semantic="TEXCOORD" source="#uv" offset="2" set="0" />
          <p>0 0 0 4 0 1 3 0 2 2 1 3 5 1 4 1 1 5 0 2 6 3 2 7 2 2 8 6 3 9 10 3 10 9 3 11 8 4 12 11 4 13 7 4 14 8 5 15 9 5 16 11 5 17 6 6 18 9 6 19 8 6 20 20 11 33 22 11 34 19 11 35 21 12 36 24 12 37 23 12 38 19 13 39 22 13 40 21 13 41 34 19 57 37 19 58 33 19 59 35 20 60 38 20 61 34 20 62 35 21 63 36 21 64 38 21 65 50 28 84 52 28 85 49 28 86 48 29 87 51 29 88 53 29 89 64 36 108 66 36 109 63 36 110 64 37 111 67 37 112 66 37 113 63 38 114 68 38 115 65 38 116 77 47 141 81 47 142 80 47 143 79 48 144 82 48 145 78 48 146 77 49 147 80 49 148 79 49 149 92 55 165 94 55 166 91 55 167 92 56 168 96 56 169 95 56 170 91 57 171 96 57 172 93 57 173 107 64 192 110 64 193 109 64 194 108 65 195 110 65 196 107 65 197 108 66 198 111 66 199 110 66 200 121 70 210 124 70 211 123 70 212 122 71 213 124 71 214 121 71 215 0 82 246 1 82 247 4 82 248 1 83 249 5 83 250 4 83 251 2 84 252 3 84 253 5 84 254 6 85 255 7 85 256 10 85 257 7 86 258 11 86 259 10 86 260 20 91 273 23 91 274 22 91 275 20 92 276 21 92 277 23 92 278 21 93 279 22 93 280 24 93 281 33 99 297 37 99 298 36 99 299 34 100 300 38 100 301 37 100 302 35 101 303 33 101 304 36 101 305 48 108 324 52 108 325 51 108 326 48 109 327 49 109 328 52 109 329 50 110 330 53 110 331 52 110 332 50 111 333 48 111 334 53 111 335 64 118 354 65 118 355 67 118 356 65 119 357 68 119 358 67 119 359 63 120 360 66 120 361 68 120 362 77 123 369 78 123 370 81 123 371 78 124 372 82 124 373 81 124 374 79 125 375 80 125 376 82 125 377 92 131 393 95 131 394 94 131 395 92 132 396 93 132 397 96 132 398 91 133 399 94 133 400 96 133 401 106 140 420 107 140 421 109 140 422 108 141 423 106 141 424 111 141 425 106 142 426 109 142 427 111 142 428 120 150 450 121 150 451 123 150 452 122 151 453 125 151 454 124 151 455 122 152 456 120 152 457 125 152 458 120 153 459 123 153 460 125 153 461</p>
        </triangles>
        <triangles count="40" material="m3">
          <input semantic="VERTEX" source="#vertices" offset="0" />
          <input semantic="NORMAL" source="#normals" offset="1" />
          <input semantic="TEXCOORD" source="#uv" offset="2" set="0" />
          <p>14 7 21 12 7 22 15 7 23 12 8 24 17 8 25 16 8 26 12 9 27 18 9 28 15 9 29 12 10 30 16 10 31 18 10 32 54 30 90 56 30 91 58 30 92 55 31 93 58 31 94 57 31 95 56 32 96 59 32 97 58 32 98 58 33 99 61 33 100 60 33 101 59 34 102 62 34 103 61 34 104 57 35 105 60 35 106 62 35 107 83 50 150 84 50 151 86 50 152 86 51 153 87 51 154 85 51 155 87 52 156 88 52 157 90 52 158 87 53 159 89 53 160 84 53 161 87 54 162 90 54 163 89 54 164 116 67 201 119 67 202 115 67 203 114 68 204 117 68 205 116 68 206 114 69 207 119 69 208 117 69 209 14 87 261 15 87 262 13 87 263 13 88 264 17 88 265 12 88 266 13 89 267 15 89 268 18 89 269 17 90 270 13 90 271 18 90 272 54 112 336 58 112 337 55 112 338 56 113 339 55 113 340 57 113 341 56 114 342 57 114 343 59 114 344 57 115 345 58 115 346 60 115 347 58 116 348 59 116 349 61 116 350 59 117 351 57 117 352 62 117 353 83 126 378 85 126 379 84 126 380 84 127 381 85 127 382 87 127 383 86 128 384 84 128 385 88 128 386 86 129 387 88 129 388 87 129 389 84 130 390 89 130 391 88 130 392 113 143 429 116 143 430 112 143 431 113 144 432 114 144 433 116 144 434 114 145 435 112 145 436 115 145 437 112 146 438 116 146 439 115 146 440 114 147 441 115 147 442 119 147 443 119 148 444 116 148 445 118 148 446 116 149 447 117 149 448 118 149 449</p>
        </triangles>
        <triangles count="22" material="m1">
          <input semantic="VERTEX" source="#vertices" offset="0" />
          <input semantic="NORMAL" source="#normals" offset="1" />
          <input semantic="TEXCOORD" source="#uv" offset="2" set="0" />
          <p>27 14 42 30 14 43 28 14 44 27 15 45 28 15 46 29 15 47 25 16 48 30 16 49 27 16 50 25 17 51 31 17 52 30 17 53 29 18 54 30 18 55 32 18 56 97 58 174 101 58 175 102 58 176 99 59 177 102 59 178 98 59 179 98 60 180 101 60 181 100 60 182 102 61 183 103 61 184 98 61 185 98 62 186 105 62 187 101 62 188 103 63 189 105 63 190 98 63 191 26 94 282 29 94 283 25 94 284 26 95 285 27 95 286 29 95 287 25 96 288 29 96 289 32 96 290 29 97 291 28 97 292 30 97 293 25 98 294 32 98 295 31 98 296 100 134 402 99 134 403 98 134 404 97 135 405 102 135 406 99 135 407 97 136 408 100 136 409 101 136 410 103 137 411 102 137 412 104 137 413 102 138 414 101 138 415 104 138 416 101 139 417 105 139 418 104 139 419</p>
        </triangles>
        <triangles count="12" material="m2">
          <input semantic="VERTEX" source="#vertices" offset="0" />
          <input semantic="NORMAL" source="#normals" offset="1" />
          <input semantic="TEXCOORD" source="#uv" offset="2" set="0" />
          <p>41 22 66 43 22 67 40 22 68 41 23 69 39 23 70 46 23 71 43 24 72 42 24 73 39 24 74 46 25 75 43 25 76 41 25 77 39 26 78 42 26 79 46 26 80 46 27 81 47 27 82 45 27 83 40 102 306 43 102 307 39 102 308 42 103 309 43 103 310 44 103 311 43 104 312 45 104 313 44 104 314 43 105 315 46 105 316 45 105 317 46 106 318 42 106 319 44 106 320 46 107 321 44 107 322 47 107 323</p>
        </triangles>
        <triangles count="22" material="m5">
          <input semantic="VERTEX" source="#vertices" offset="0" />
          <input semantic="NORMAL" source="#normals" offset="1" />
          <input semantic="TEXCOORD" source="#uv" offset="2" set="0" />
          <p>71 39 117 73 39 118 70 39 119 69 40 120 74 40 121 71 40 122 73 41 123 72 41 124 69 41 125 69 42 126 72 42 127 74 42 128 71 43 129 74 43 130 73 43 131 74 44 132 76 44 133 73 44 134 72 45 135 75 45 136 74 45 137 76 46 138 72 46 139 73 46 140 126 72 216 130 72 217 131 72 218 126 73 219 127 73 220 130 73 221 129 74 222 128 74 223 127 74 224 128 75 225 130 75 226 127 75 227 130 76 228 132 76 229 131 76 230 130 77 231 128 77 232 132 77 233 128 78 234 134 78 235 133 78 236 131 79 237 134 79 238 128 79 239 131 80 240 132 80 241 134 80 242 128 81 243 133 81 244 132 81 245 70 121 363 73 121 364 69 121 365 74 122 366 75 122 367 76 122 368 129 154 462 126 154 463 131 154 464 128 155 465 129 155 466 131 155 467</p>
        </triangles>
      </mesh>
    </geometry>
  </library_geometries>
  <library_visual_scenes>
    <visual_scene id="Scene">
      <node id="Node" type="NODE">
        <instance_geometry url="#geometry">
          <bind_material>
            <technique_common>
              <instance_material symbol="m0" target="#m0">
                <bind_vertex_input semantic="UVSET0" input_semantic="TEXCOORD" input_set="0" />
              </instance_material>
              <instance_material symbol="m1" target="#m1">
                <bind_vertex_input semantic="UVSET0" input_semantic="TEXCOORD" input_set="0" />
              </instance_material>
              <instance_material symbol="m2" target="#m2">
                <bind_vertex_input semantic="UVSET0" input_semantic="TEXCOORD" input_set="0" />
              </instance_material>
              <instance_material symbol="m3" target="#m3">
                <bind_vertex_input semantic="UVSET0" input_semantic="TEXCOORD" input_set="0" />
              </instance_material>
              <instance_material symbol="m4" target="#m4">
                <bind_vertex_input semantic="UVSET0" input_semantic="TEXCOORD" input_set="0" />
              </instance_material>
              <instance_material symbol="m5" target="#m5">
                <bind_vertex_input semantic="UVSET0" input_semantic="TEXCOORD" input_set="0" />
              </instance_material>
            </technique_common>
          </bind_material>
        </instance_geometry>
      </node>
    </visual_scene>
  </library_visual_scenes>
  <scene>
    <instance_visual_scene url="#Scene" />
  </scene>
</COLLADA>