<?xml version='1.0' encoding='utf-8'?>
<COLLADA xmlns="http://www.collada.org/2005/11/COLLADASchema" version="1.4.1">
  <asset>
    <created>2026-09-15T00:00:00Z</created>
    <modified>2026-09-15T00:00:00Z</modified>
    <unit name="meter" meter="1" />
    <up_axis>Z_UP</up_axis>
  </asset>
  <library_images />
  <library_effects>
    <effect id="e0">
      <profile_COMMON>
        <technique sid="common">
          <phong>
            <ambient>
              <color>0.1755 0.18 0.1485 1</color>
            </ambient>
            <diffuse>
              <color>0.39 0.4 0.33 1</color>
            </diffuse>
            <specular>
              <color>0.02 0.02 0.02 1</color>
            </specular>
            <shininess>
              <float>8</float>
            </shininess>
          </phong>
        </technique>
      </profile_COMMON>
    </effect>
    <effect id="e1">
      <profile_COMMON>
        <technique sid="common">
          <phong>
            <ambient>
              <color>0.045 0.09 0.06075 1</color>
            </ambient>
            <diffuse>
              <color>0.1 0.2 0.135 1</color>
            </diffuse>
            <specular>
              <color>0.02 0.02 0.02 1</color>
            </specular>
            <shininess>
              <float>8</float>
            </shininess>
          </phong>
        </technique>
      </profile_COMMON>
    </effect>
    <effect id="e2">
      <profile_COMMON>
        <technique sid="common">
          <phong>
            <ambient>
              <color>0.0765 0.1215 0.0765 1</color>
            </ambient>
            <diffuse>
              <color>0.17 0.27 0.17 1</color>
            </diffuse>
            <specular>
              <color>0.02 0.02 0.02 1</color>
            </specular>
            <shininess>
              <float>8</float>
            </shininess>
          </phong>
        </technique>
      </profile_COMMON>
    </effect>
    <effect id="e3">
      <profile_COMMON>
        <technique sid="common">
          <phong>
            <ambient>
              <color>0.099 0.1395 0.09225 1</color>
            </ambient>
            <diffuse>
              <color>0.22 0.31 0.205 1</color>
            </diffuse>
            <specular>
              <color>0.02 0.02 0.02 1</color>
            </specular>
            <shininess>
              <float>8</float>
            </shininess>
          </phong>
        </technique>
      </profile_COMMON>
    </effect>
    <effect id="e4">
      <profile_COMMON>
        <technique sid="common">
          <phong>
            <ambient>
              <color>0.054 0.1035 0.09 1</color>
            </ambient>
            <diffuse>
              <color>0.12 0.23 0.2 1</color>
            </diffuse>
            <specular>
              <color>0.02 0.02 0.02 1</color>
            </specular>
            <shininess>
              <float>8</float>
            </shininess>
          </phong>
        </technique>
      </profile_COMMON>
    </effect>
    <effect id="e5">
      <profile_COMMON>
        <technique sid="common">
          <phong>
            <ambient>
              <color>0.126 0.1485 0.0855 1</color>
            </ambient>
            <diffuse>
              <color>0.28 0.33 0.19 1</color>
            </diffuse>
            <specular>
              <color>0.02 0.02 0.02 1</color>
            </specular>
            <shininess>
              <float>8</float>
            </shininess>
          </phong>
        </technique>
      </profile_COMMON>
    </effect>
  </library_effects>
  <library_materials>
    <material id="m0" name="m0">
      <instance_effect url="#e0" />
    </material>
    <material id="m1" name="m1">
      <instance_effect url="#e1" />
    </material>
    <material id="m2" name="m2">
      <instance_effect url="#e2" />
    </material>
    <material id="m3" name="m3">
      <instance_effect url="#e3" />
    </material>
    <material id="m4" name="m4">
      <instance_effect url="#e4" />
    </material>
    <material id="m5" name="m5">
      <instance_effect url="#e5" />
    </material>
  </library_materials>
  <library_geometries>
    <geometry id="geometry" name="forest_25_20">
      <mesh>
        <source id="positions">
          <float_array id="positions-array" count="810">50.9596 7.053212 -0.5491095 51.06781 7.071242 -0.5553047 50.97414 7.149158 -0.5535384 51.03815 7.1306 2.421258 51.07191 7.116853 2.420795 51.06276 7.154269 2.420314 51.02847 7.08915 1.77877 51.05012 7.127439 1.81682 51.00882 7.121895 1.791674 50.76258 6.750237 2.646575 50.7729 6.751656 2.649595 50.7633 6.75919 2.649763 50.9336 7.168535 2.585761 50.76728 6.753067 2.991072 50.59068 6.819654 2.711088 50.78835 6.747103 2.751 51.14508 6.528451 2.666563 50.76627 6.749638 2.257935 50.76745 6.753155 2.310468 50.76691 6.75417 2.357579 51.02014 7.089959 1.200439 51.05554 7.103543 1.18485 51.02852 7.137979 1.193409 51.39776 7.170192 2.934182 51.40292 7.178287 2.932872 51.39101 7.17881 2.935205 51.39679 7.176523 3.152099 51.39643 7.176507 3.197598 51.39677 7.176237 3.207286 51.00378 6.794709 2.899444 51.40412 7.765064 2.893877 51.89501 7.139472 2.934859 51.39687 7.176445 2.719394 51.39678 7.176488 2.669001 51.39675 7.17634 2.692859 51.02441 7.089977 2.093785 51.04753 7.132715 2.094951 51.0249 7.12312 2.069091 50.48585 7.392802 2.360069 50.49327 7.399558 2.36577 50.48969 7.403149 2.357681 50.48957 7.398411 2.614717 50.48958 7.398768 2.654441 50.48636 7.394957 2.706349 49.97121 7.532957 2.406838 50.70519 7.777223 2.481606 50.50807 7.437292 2.006397 50.37486 7.101989 2.27355 50.49044 7.403542 1.983205 51.01313 7.097093 1.987991 51.05176 7.097839 1.984453 51.02781 7.13528 2.001873 51.14307 6.644385 2.842093 51.15168 6.650431 2.843692 51.14073 6.654382 2.846371 51.14521 6.649842 3.210903 51.13146 6.645431 3.252804 51.14875 6.651091 3.271746 50.86087 7.027232 2.746883 51.10044 6.26127 2.738528 51.48495 6.950497 2.710777 51.14514 6.649889 2.491057 51.1449 6.649668 2.47645 51.14518 6.64977 2.459036 51.00678 7.109131 1.598696 51.05321 7.097334 1.588508 51.03785 7.133114 1.556773 51.32451 7.76985 2.683519 51.33443 7.76589 2.683241 51.33186 7.776247 2.6784 51.32758 7.77811 2.961389 51.33036 7.770716 2.930577 51.02058 7.543622 2.793841 51.33041 7.770695 2.952082 51.22969 7.901591 2.65162 51.61833 7.439265 2.649433 51.33157 7.770565 2.399245 51.3082 7.799516 2.670672 51.02947 7.090339 1.525445 51.05011 7.111522 1.580886 51.01869 7.136377 1.541794 50.44739 6.864107 2.215689 50.45442 6.861658 2.221056 50.44967 6.872877 2.221024 50.45072 6.86684 2.45787 50.45036 6.866823 2.462393 50.45059 6.866514 2.446801 50.93364 6.926098 2.34817 50.25229 7.309714 2.31839 50.15443 6.3676 2.24804 50.4635 6.866823 1.993633 50.45033 6.866993 1.955869 50.45072 6.866842 2.027598 51.01969 7.088617 0.9822356 51.05107 7.115548 0.9474787 51.02741 7.13506 1.001065 51.85457 6.775926 2.224525 51.86127 6.77255 2.217966 51.86267 6.783501 2.220445 51.85959 6.77789 2.507899 51.87157 6.727663 2.248809 51.86547 6.774131 2.552662 51.9667 6.768236 2.059129 51.69987 7.152084 2.215994 51.8597 6.776198 1.911752 51.85944 6.77744 1.946863 51.0076 7.104575 1.375066 51.04762 7.095208 1.396133 51.04246 7.137621 1.367287 50.78641 7.513416 2.643138 50.79782 7.514729 2.644827 50.79433 7.522236 2.641902 50.79201 7.516621 2.908921 50.79214 7.516548 2.926851 50.79376 7.517253 2.98893 50.74058 7.257658 2.906954 50.88493 7.976989 2.49969 50.40788 7.757371 2.647896 50.79181 7.516623 2.312579 50.77734 7.512763 2.393514 50.98821 7.488349 2.498437 51.008 7.108783 1.03812 51.04744 7.092371 1.034827 51.0405 7.13691 1.065877 50.81949 6.42775 2.94852 50.83118 6.424778 2.948711 50.82801 6.434366 2.951732 50.82621 6.42887 3.262113 50.83133 6.423636 3.13857 50.82583 6.429124 3.30136 50.97055 6.875323 2.948568 50.27654 6.520415 2.984298 50.82926 6.427924 2.581146 50.82261 6.427413 2.617889 50.82616 6.428874 2.703879 51.09725 7.591617 -0.694235 51.01161 7.553764 -0.6994975 51.10558 7.509215 -0.6979971 51.04873 7.510984 1.799188 51.0179 7.515189 1.798796 51.0334 7.486199 1.798389 51.06046 7.541478 1.364907 51.0357 7.533391 1.341291 51.05875 7.508497 1.362472 50.47428 7.516399 1.815145 50.46935 7.510036 1.810475 50.47621 7.507681 1.816702 50.47317 7.511307 2.025674 50.47258 7.510433 2.033662 50.44566 7.613152 1.832145 50.8007 7.585215 1.852327 50.47301 7.511009 1.611473 50.4735 7.511456 1.621635 50.47161 7.502555 1.75709 51.05357 7.549336 1.263134 51.03127 7.517481 1.263332 51.06344 7.512982 1.233748 51.33781 7.333497 1.816007 51.32977 7.334621 1.81954 51.33224 7.325529 1.816042 51.3332 7.331146 2.039965 51.33018 7.329844 2.080904 51.33355 7.330988 2.087026 51.41393 6.822249 1.880005 51.29199 7.819602 1.911847 51.84637 7.344884 1.784482 51.33365 7.329929 1.54565 51.33353 7.331218 1.575932 50.96489 7.311012 1.462292 51.07101 7.5336 0.6486033 51.04035 7.544706 0.6376013 51.03752 7.510177 0.6635907 51.00437 7.985905 1.926898 50.99526 7.985721 1.926599 50.99924 7.977615 1.929716 50.99879 7.981793 2.216937 51.00565 7.979977 2.221358 50.99969 7.98301 2.160645 50.9594 8.447891 1.934331 51.4277 7.837279 1.886215 50.74355 7.979261 1.818411 50.99967 7.983021 1.716893 50.99959 7.983181 1.703625 51.06212 7.543732 1.3686 51.02806 7.525499 1.360497 51.06708 7.514213 1.363432 50.89451 7.300049 2.230603 50.88991 7.292556 2.228532 50.89947 7.291129 2.229508 50.89473 7.294584 2.44496 50.89515 7.286734 2.503601 50.9448 7.575394 2.413994 50.8943 7.294734 2.485884 50.61893 7.099355 2.157765 51.31102 7.146892 2.145055 50.89473 7.294568 1.95781 50.90012 7.300172 1.995521 50.89445 7.294957 1.977565 51.05019 7.546727 1.352146 51.04399 7.513339 1.374908 51.06104 7.515733 1.348252 51.75415 7.718248 1.696716 51.75038 7.714891 1.70379 51.75528 7.708926 1.698774 51.75685 7.71117 1.951233 51.75329 7.714071 1.957784 51.75328 7.714024 2.02401 51.45982 7.658626 1.96375 51.95349 8.165014 1.686513 52.01727 7.40707 1.44547 51.32593 7.709538 1.519534 51.75324 7.713835 1.420104 51.75332 7.714012 1.431385 51.75335 7.714089 1.453964 51.05398 7.549355 0.7193004 51.03165 7.517477 0.7164341 51.06271 7.512882 0.7497051 50.53858 7.844403 1.847285 50.53289 7.839532 1.84602 50.53999 7.835082 1.850599 50.53746 7.839159 2.12593 50.5592 7.842567 2.035078 50.53781 7.840837 2.125131 50.12563 7.892203 1.806245 50.56695 7.413482 1.865462 50.53735 7.838939 1.589142 50.53768 7.839216 1.582928 50.54248 7.83587 1.62064 51.05198 7.548522 1.060448 51.0304 7.517534 1.043361 51.0659 7.513731 1.029948 51.20465 7.131054 2.012043 51.20374 7.122387 2.009062 51.21175 7.12451 2.008686 51.20686 7.126606 2.235219 51.20686 7.126647 2.235983 51.22266 6.673067 2.071297 51.19986 7.130761 2.303588 51.19591 7.132435 1.850406 51.5998 7.148624 2.008132 51.1984 7.380274 1.915171 51.20741 7.126264 1.744009 51.05016 7.545478 0.8083954 51.02935 7.522 0.8417318 51.06933 7.51409 0.8313728 51.2892 8.0584 1.891411 51.28467 8.050896 1.896022 51.29356 8.050385 1.894318 51.28929 8.050686 2.160356 51.28909 8.053321 2.091411 51.61404 8.074905 1.898782 51.00382 7.959358 1.870404 51.28693 8.058984 2.007822 51.28903 8.052257 1.667238 51.28775 8.058772 1.638832 51.28905 8.053372 1.70931 51.06359 7.527805 1.243536 51.03687 7.543177 1.194867 51.04854 7.50881 1.189044 50.52372 7.313016 1.622261 50.51822 7.310729 1.61498 50.52317 7.305108 1.618001 50.51928 7.307104 1.873984 50.52075 7.310936 1.897303 50.7246 7.008736 1.590217 50.60279 7.343447 1.9605 50.19891 7.357271 1.528157 50.52156 7.309912 1.360207 50.52604 7.316687 1.343745 50.52168 7.310263 1.342377</float_array>
          <technique_common>
            <accessor source="#positions-array" count="270" stride="3">
              <param name="X" type="float" />
              <param name="Y" type="float" />
              <param name="Z" type="float" />
            </accessor>
          </technique_common>
        </source>
        <source id="normals">
          <float_array id="normals-array" count="936">-0.376448 -0.9258109 0.03407494 0.6391098 0.7688458 -0.02036601 -0.9883165 0.1507893 0.02220589 0.544012 0.6819767 0.4888341 -0.3021228 0.9059835 0.2965058 -0.9653088 0.1532175 -0.2114314 0.526729 0.849662 0.02511995 -0.7192671 -0.315762 -0.6188289 0.5192367 0.8544223 -0.01886113 -0.7249854 -0.1548097 0.671141 0.9239601 -0.3820273 0.01878601 -0.9255381 0.3784886 -0.01120716 0.7254577 -0.5799045 0.3707046 -0.7611786 -0.6187146 0.1944207 0.3457927 -0.9377679 -0.03191794 -0.960882 0.1963052 0.1953716 -0.07641552 -0.9970625 -0.005202468 -0.3947825 -0.3650116 -0.8431567 -0.9999285 0.009024898 -0.007844907 0.7135675 -0.6991781 -0.04439974 -0.269349 0.7573855 -0.5948262 -0.6957435 0.7182821 0.003446016 -0.07586577 -0.9971088 0.004296676 0.3449625 -0.2115713 0.9144608 0.187889 0.8558059 -0.4819688 -0.4835608 -0.02243465 -0.8750232 0.2556298 -0.5183298 -0.8160807 -0.2116553 -0.9736776 -0.08458098 -0.8849981 0.4582801 -0.08220486 -0.9046813 0.4193878 0.07526966 0.5708943 -0.6991469 -0.4304339 0.3967982 0.819452 0.4135814 -0.927332 0.2581216 0.270977 -0.1336697 -0.8387862 -0.5277974 -0.9935503 0.1133832 -0.001418227 -0.2940448 -0.7756242 0.5585201 0.9487804 0.09453538 -0.3014613 -0.7402994 0.6483625 -0.1777155 0.8425177 0.5361001 -0.05254255 0.6443374 -0.5761674 -0.5028523 0.3597804 0.7800407 -0.5119517 0.8256609 -0.2900507 0.4838953 0.2791212 0.7207587 0.6345063 -0.7577238 -0.6525608 0.004369792 0.1330776 0.8813248 0.4533839 -0.7573227 0.471973 -0.4513355 -0.1639459 -0.3624138 -0.9174846 0.5766977 0.00110142 -0.8169569 -0.8556945 0.5169837 -0.02268709 -0.127945 0.9913944 -0.02769971 -0.2319241 0.4756959 -0.8484837 -0.9115454 -0.4111781 0.004189273 -0.7532875 0.6016942 0.26556 0.8446909 0.01326289 -0.53509 0.4989812 0.8615649 -0.09340033 -0.8365628 -0.08074334 0.5418885 0.9403369 0.3263942 -0.09609045 0.9274066 0.3728974 -0.02940311 -0.1277756 0.9810334 0.1457627 0.05979621 -0.9425628 0.3286332 0.9709041 0.2037844 0.1257659 -0.7258592 0.6065765 -0.3243353 0.517429 -0.09630706 -0.8502895 0.1313185 -0.7345231 -0.6657562 0.6757253 0.6397422 0.366231 0.6143732 0.7752307 0.1468434 -0.3851244 -0.8566068 -0.3433716 0.9891937 0.06133634 0.1331679 -0.6468317 0.7356234 0.2011638 -0.9602566 0.2743416 -0.05141901 0.17069 0.9853155 0.004287263 -0.9549283 0.2967794 0.005826035 0.3568781 -0.6282597 0.6913232 -0.03361729 0.9994042 0.007812721 0.946812 -0.3207004 0.02642293 0.1651603 -0.9861544 0.01488597 0.9713347 0.2376638 -0.004980116 -0.6926807 0.7209834 0.01940183 0.2150213 -0.9302223 -0.2974094 0.8494417 -0.5257127 0.04555044 -0.8475454 -0.352034 -0.3971636 0.5239593 -0.6929322 -0.4952894 0.346432 0.9380142 -0.01069223 -0.5567351 -0.827904 0.06797777 0.8241365 -0.548735 -0.1403174 0.7525609 0.634378 -0.1766823 0.03770528 0.9987998 -0.03126094 0.7480979 -0.3120077 -0.5856626 -0.9999288 0.01180578 0.001739815 0.6696781 -0.27233 0.690918 -0.285207 0.6665252 0.6887678 -0.3997077 -0.255983 0.8801741 0.009331524 -0.6509054 0.7591015 0.4913235 0.8557031 0.1623988 -0.5901688 -0.476672 -0.6515248 -0.8697233 0.4935207 -0.004333038 0.870815 -0.4914655 0.01195009 0.5048186 0.6488851 -0.5693033 0.9038287 -0.4215583 -0.07336339 0.2208912 -0.8236261 0.5223477 0.6381411 0.392907 0.6621178 -0.02550481 -0.8848716 -0.4651362 0.8631015 0.4820424 0.1506352 -0.9712216 -0.2371536 0.02206282 0.8311533 0.5528299 -0.0596939 -0.5787746 -0.769173 -0.2709111 0.3831867 0.7287732 -0.5675012 0.9175876 0.2899635 -0.2719451 -0.8474217 0.4622463 -0.2611604 0.8214749 0.2513521 0.5118604 -0.02303187 -0.5728394 0.819344 -0.791159 -0.6112009 0.02238255 0.9944986 -0.1036572 0.01508935 -0.7261256 0.4267968 0.5390604 -0.09533315 -0.8384693 0.5365452 0.9405227 0.1226059 -0.3168357 -0.7180246 0.6677356 -0.196392 0.5918459 -0.8060483 -0.002137838 -0.07435641 0.6364563 -0.7677204 -0.7577842 -0.6525006 0.002464727 -0.7933491 -0.6087136 0.008059371 -0.05575615 -0.9339164 -0.3531167 0.5051256 -0.8520264 0.1374744 0.6475508 0.2760013 0.7102825 -0.7709161 0.04506539 -0.6353404 0.8457782 -0.5294964 0.06551913 -0.5203749 0.6209162 0.5862363 -0.3985566 -0.6583146 0.6385722 0.7970913 -0.1268792 0.5903788 0.9198282 0.1849648 0.3459828 -0.4117942 -0.9100283 0.04768675 0.2834679 -0.8648862 -0.4142679 -0.4351793 0.7408134 0.511678 -0.6007085 0.7883899 -0.1326296 -0.8402226 -0.5161504 -0.166177 0.9262215 0.3763608 0.02159116 -0.5914262 -0.6212143 0.5141088 -0.9181477 -0.3961741 0.007129217 -0.3371166 -0.9116316 0.2351174 0.8993822 0.4349603 0.04383089 -0.6873693 0.6476658 -0.3287134 0.5399124 0.8415202 -0.01839423 0.9808233 -0.1947462 -0.007714217 0.9808142 -0.1935452 -0.02331725 -0.881692 0.2965041 -0.3670212 -0.9160207 -0.1927204 -0.3518024 -0.1133375 0.8929899 0.4355727 0.4382021 -0.4131042 0.7983257 -0.6909291 -0.1478589 0.7076402 -0.2260955 -0.9115296 -0.3435035 0.9473699 0.2500615 0.1998986 -0.7231023 0.6701159 0.1675347 -0.953703 0.3005455 -0.01109057 0.2961787 -0.6496519 -0.7001647 0.179096 0.9834581 -0.02710743 -0.9562998 0.2903364 0.0345766 0.1346135 0.9902924 0.03464392 -0.4280383 -0.9035234 -0.02070599 0.9947834 0.09947997 0.02257661 -0.4546901 0.7283515 -0.5126022 -0.3814956 -0.7779653 -0.4992305 0.6124968 -0.08980086 0.7853556 0.87214 -0.489136 0.01085559 0.9714209 0.2369857 -0.01338533 -0.2362094 0.9713316 -0.02683384 -0.09494729 -0.9012269 0.422818 -0.9231202 -0.3795939 0.06129897 -0.2593967 0.9639226 0.05972057 0.2386569 0.93989 0.244233 -0.8645546 -0.3669677 0.3433366 -0.2883465 -0.9422729 -0.1702294 0.8547016 0.4462756 -0.2651852 0.01134485 -0.9994564 -0.03095491 -0.4875776 0.2505692 -0.8363511 0.8094542 0.326668 -0.4879261 -0.3850535 0.4643728 0.7975536 -0.2998514 -0.557805 0.7739139 0.41502 0.8642914 -0.284181 -0.9086629 -0.3998691 0.1201513 0.6318039 -0.7207538 0.2851978 -0.9953095 -0.09504869 -0.01802075 0.2850293 0.9572835 -0.04864706 -0.6443073 -0.4451449 -0.6218634 0.8166795 -0.2471631 -0.5214834 0.2147213 0.966052 -0.1436604 0.1530239 0.915293 0.3725889 0.9960326 0.08882444 -0.005409238 -0.1144562 -0.9547698 -0.2744345 0.967689 0.1244087 0.2193181 0.6456221 -0.7562779 -0.1059051 -0.6702577 -0.1124306 -0.7335625 0.8108665 -0.2778421 -0.515072 -0.4583202 -0.7193325 0.5220186 0.6704037 -0.6507783 0.3564358 0.5972889 -0.8008181 0.04400382 -0.4032681 -0.8949941 0.1906842 -0.3421469 0.9063735 0.2478359 -0.1287861 -0.6980288 0.7043934 0.4761756 -0.1344059 -0.8690177 -0.1663866 0.8048852 -0.5696273 0.6115887 -0.7438275 -0.2695921 0.3994 0.9166487 -0.0153239 -0.8641078 0.08504793 -0.4960691 -0.7584764 -0.6515058 0.01593198 -0.7582772 -0.6519251 0.003062973 0.1364214 -0.5012256 0.8544952 0.0117909 -0.9999026 0.007469282 -0.5289338 0.7300966 -0.4326522 -0.2896292 -0.9469023 0.1396098 0.8553851 0.4368904 0.278286 0.5089777 -0.4543823 -0.7310803 -0.09224099 -0.994891 -0.04102997 -0.1246766 -0.9919739 0.02105902 -0.9808717 0.0368434 0.1911366 -0.2243977 -0.915372 -0.3342749 0.9305083 0.3662046 0.006969119 -0.09635257 0.9928545 -0.07039972 0.9985015 0.05405973 -0.008505481 0.9999316 -0.007761312 -0.008746232 -0.4612337 -0.5070166 0.7281467 -0.8087346 0.5802356 -0.09630662 -0.05663502 -0.8868339 0.4586045 0.8689855 0.3432092 -0.3564711 0.03032202 -0.998039 -0.05476063 0.3621228 -0.9293213 -0.07231138 -0.1910084 0.9661131 0.1736122 0.04884083 -0.9988063 0.0006824944 0.3256056 -0.9451773 0.02491695 -0.3995634 0.9166006 0.01387068 -0.3140688 -0.6490588 -0.6928806 0.4739659 -0.863932 0.1702287 0.2826401 0.7560031 -0.5904014 0.5400253 0.7446592 -0.392244 -0.09253524 -0.9942084 0.05465241 0.4038058 0.7114537 0.57513 0.8230653 0.5676981 0.0168021 -0.590846 0.2364118 0.7713692 -0.4050056 0.9141889 0.0151344 -0.8818273 -0.4715453 -0.005063253 0.8500858 -0.5262747 0.01972569 -0.1648587 0.9731825 -0.1604288 -0.1528645 -0.9682527 -0.1977857 0.5800254 0.2659147 0.769974 -0.04470274 -0.8924465 -0.4489332 0.9765283 0.214279 0.02183943 -0.6921287 0.4879356 0.5318616 0.7132364 -0.5007513 -0.4904508 -0.02499642 0.9996813 0.003546319 0.8793661 -0.09265168 -0.4670448 -0.4724612 -0.3327805 -0.8161112 0.8575755 -0.1068122 -0.5031455 -0.214416 -0.5658346 0.7961514 -0.2141835 0.513411 0.8309841 0.009315176 -0.9990505 0.04256083 -0.008489142 0.9460295 -0.3239695 -0.9977811 0.04401117 -0.04995931 0.8616982 -0.462564 0.2085921 0.9946351 0.03971739 -0.09551747 -0.4737211 -0.4241374 0.7718133 0.3466634 -0.3726008 0.8608096 -0.4937662 0.8571969 0.1463162 -0.8529154 0.5220311 0.004346928 -0.2462946 -0.9259811 -0.2861783 0.8509924 0.4382701 0.2893636 0.9673355 -0.210315 -0.1415264 -0.5714772 0.8205686 -0.00900169 -0.06969918 0.8993601 -0.4316172 -0.03859283 0.7410985 0.6702862 0.5891776 -0.8076412 0.02419527 -0.4760488 0.5540203 0.6829635 0.2370973 -0.969331 0.06467018 0.3776044 0.2444315 -0.8931227 -0.8604686 0.07925228 -0.503302 0.08522804 -0.5411182 -0.8366165 0.1856337 -0.9826188 -0.0006731672 -0.1759282 0.9832712 -0.04719109 -0.3332452 -0.3110926 0.8900388 0.2160931 0.2637274 0.9400806 -0.7053804 0.5356933 -0.4641887 -0.5335417 -0.8457555 0.005548734 0.9023115 0.2591412 0.3444994 -0.970549 0.07320967 -0.2295105 0.5822727 0.4532932 -0.6748954 -0.9985819 -0.03416166 0.04083206 0.4523289 0.5076875 0.7332475 0.9925341 0.1070321 0.05848279 -0.9916694 0.01660813 0.1277337 -0.1637822 -0.9840687 -0.06916834 -0.8511918 0.4165536 0.319305 0.2190585 -0.8950032 -0.3885649 0.7117402 0.6781059 0.1832984 0.999366 0.03554472 -0.002038719 -0.4930633 0.2816892 -0.8231281 -0.9947765 0.002236535 -0.1020524 -0.3395205 -0.7919621 -0.5074661 0.9892372 0.1060743 0.1007865 -0.5046405 0.4942248 0.7078699 -0.8663301 0.4978709 -0.03995949 0.03378068 -0.8951395 0.4445044 0.8928022 0.2977063 -0.3380461 0.3383309 -0.9403022 -0.03693267 -0.1785319 0.9751252 -0.1313668 0.3313888 -0.9434934 0.001281749 -0.2279876 0.9467338 0.2274134 -0.2718036 0.959146 0.07849659 -0.1179137 0.9264929 0.3573615 -0.6079738 -0.07242338 -0.7906471 0.6276222 -0.4024879 0.6664036 0.6514168 -0.4339002 -0.6224041 0.3323179 0.9270976 -0.1733633 -0.8772954 -0.4622251 0.1292316 0.3488311 0.8294636 0.4362419</float_array>
          <technique_common>
            <accessor source="#normals-array" count="312" stride="3">
              <param name="X" type="float" />
              <param name="Y" type="float" />
              <param name="Z" type="float" />
            </accessor>
          </technique_common>
        </source>
        <source id="uv">
          <float_array id="uv-array" count="1872">20.38384 -0.2196438 20.42877 0.9683179 20.41526 0.9685032 20.38966 -0.2214154 20.4251 0.9681256 20.42713 -0.2221219 2.821285 -0.2196438 2.85224 0.9685032 2.859663 -0.2214154 20.42005 0.7267281 20.30532 1.059905 20.30916 1.059838 20.40353 0.7166695 20.30532 1.059905 20.42005 0.7267281 2.848758 0.7166695 2.700095 1.05863 2.703676 1.059905 20.30691 1.196429 20.45803 1.066625 20.31534 1.1004 2.867414 1.034304 2.61138 1.066625 2.701227 1.196429 20.45803 1.066625 20.30651 0.9031739 20.31534 1.1004 2.867414 1.034304 2.701262 0.9241873 2.61138 1.066625 2.867414 1.034304 2.701668 0.9430316 2.701262 0.9241873 2.867414 1.034304 2.699855 0.9031739 2.701668 0.9430316 2.727862 1.084435 2.699855 0.9031739 2.867414 1.034304 2.835984 0.4801754 2.868077 1.173673 2.871524 1.174082 20.42221 0.4739399 20.5591 1.173673 20.40806 0.4801754 2.835984 0.4801754 2.871524 1.174082 2.855191 0.4773637 20.55871 1.260839 20.758 1.173944 20.55871 1.282914 20.55871 2.870609 20.56165 3.106025 20.758 2.855789 2.870609 1.260839 2.870603 1.279039 3.106025 1.157551 2.870603 1.279039 2.870495 1.282914 2.717883 1.159778 20.55871 1.282914 20.758 1.173944 20.40151 1.159778 20.40151 1.159778 20.5587 1.077144 20.55871 1.0676 20.758 1.173944 20.55875 1.087758 20.5587 1.077144 20.41901 2.853086 20.19731 2.959823 20.40976 2.835991 20.40996 0.8276364 20.19588 0.9430724 20.41901 0.8379806 20.40996 2.849248 20.19434 2.957121 20.19588 2.96126 20.19583 2.959507 19.98848 3.013183 20.28208 3.110889 20.19455 1.08254 19.98848 0.9627354 20.19583 1.061776 3.110889 0.9926423 2.840796 0.9094202 2.957983 1.08254 3.110889 0.9926423 2.974917 0.8025589 2.840796 0.9094202 20.42071 0.7937812 20.46067 1.137477 20.45723 1.136837 20.41112 0.8007493 20.45629 1.138548 20.46067 1.137477 2.838837 0.7951964 2.661753 1.138548 2.854112 0.8007493 20.34435 1.098753 20.59398 1.084311 20.4595 1.308698 2.504508 1.095411 2.659955 0.9964226 2.659908 0.9836145 20.40271 0.6394784 20.53377 1.073296 20.5298 1.073408 2.838933 0.6354032 3.110499 1.07136 3.106356 1.073296 2.843652 0.6394784 3.110499 1.07136 2.853246 0.6227092 3.108286 1.172231 3.160636 1.060648 3.111244 1.184555 3.108286 1.172231 3.017449 1.117537 3.160636 1.060648 20.53103 1.184555 20.64733 1.059773 20.53216 1.180833 3.017449 1.117537 3.108226 0.959698 3.160636 1.060648 20.64733 1.059773 20.53263 0.959698 20.40823 1.117537 3.119806 1.068269 3.108226 0.959698 2.975706 1.059773 20.40747 0.6167175 20.17987 0.8884094 20.42004 0.6323543 2.854551 0.6167175 2.745643 0.8862756 2.749151 0.8884094 20.18029 2.746736 20.10092 2.923885 20.37346 2.770439 20.18029 2.746736 20.06177 2.54704 20.10092 2.923885 2.746729 0.9849573 2.746605 0.9787204 2.54704 0.8992162 20.18029 0.9831479 20.37346 0.939268 20.18024 0.9787204 20.18024 2.746605 20.37346 2.770439 20.06177 2.54704 2.746797 0.7823477 2.746737 0.8110392 2.923885 0.9273559 2.746729 0.797453 2.746797 0.7823477 2.54704 0.8992162 2.846219 0.3789915 2.7134 0.888178 2.70902 0.8871862 20.41096 0.400426 20.74507 0.888178 20.42043 0.3789915 2.835447 0.3928942 2.71037 0.8898098 2.854024 0.400426 2.711156 1.00316 2.860834 0.8863976 2.709652 1.021065 2.691065 0.8995238 2.860834 0.8863976 2.711156 1.00316 20.78668 0.8236516 20.74388 0.7647007 20.74863 0.8995238 20.41905 0.5584533 20.31913 1.057931 20.31456 1.057255 2.855048 0.5469149 3.005892 1.057931 2.838083 0.5584533 2.855048 0.5469149 3.005367 1.057255 3.008894 1.056761 20.31681 3.006648 20.29623 2.903063 20.16315 3.102948 20.16315 1.059158 20.35397 0.9998759 20.3175 1.195572 2.903063 1.162781 3.005105 0.9574055 3.102948 1.059158 20.31093 0.9574055 20.31672 0.9250317 20.16315 1.059158 20.41897 0.4139307 20.3278 1.179408 20.4032 0.415248 2.854764 0.4263507 2.569911 1.179484 2.836949 0.4139307 20.4162 0.4263507 20.3278 1.179408 20.3312 1.180693 2.571548 1.304845 2.750129 1.179427 2.569454 1.255428 20.11062 1.193719 20.33253 1.255428 20.32904 1.047156 2.750129 1.179427 2.57117 1.032458 2.569454 1.255428 20.11062 2.608166 20.32904 2.570965 20.38822 2.750129 20.3317 1.032458 20.32904 1.047156 20.33253 1.255428 2.750129 1.179427 2.57155 1.081551 2.57117 1.032458 20.38384 -0.2196438 20.42713 -0.2221219 20.42877 0.9683179 2.828497 -0.2221219 2.861707 0.9681256 2.846741 0.9683179 20.38966 -0.2214154 20.41526 0.9685032 20.4251 0.9681256 20.41139 0.7115081 20.30916 1.059838 20.30503 1.05863 2.83566 0.7115081 2.850976 0.7267281 2.700663 1.059838 2.848758 0.7166695 2.83566 0.7115081 2.700095 1.05863 20.23627 1.084435 20.37344 1.034304 20.30691 1.196429 20.31534 1.1004 20.30651 0.9031739 20.23627 1.084435 20.30651 0.9031739 20.45803 1.066625 20.30698 0.9241873 2.841417 0.4739399 2.871315 1.173149 2.868077 1.173673 2.841417 0.4739399 2.855191 0.4773637 2.871315 1.173149 20.41141 0.4773637 20.5564 1.174082 20.56117 1.173149 2.870603 1.279039 2.717883 1.159778 3.106025 1.157551 3.106025 1.157551 2.870595 1.0676 2.870578 1.087758 20.56165 3.106025 20.40151 2.717883 20.55871 2.870595 20.40151 2.717883 20.758 2.855789 20.5587 2.870536 20.758 2.855789 20.56165 3.106025 20.55875 2.870578 20.40976 2.835991 20.19731 2.959823 20.19434 2.957121 20.41901 0.8379806 20.19588 0.9430724 20.19731 0.9463081 20.40996 2.849248 20.40976 2.835991 20.19434 2.957121 2.959364 1.045887 2.959507 1.061776 3.110889 0.9926423 2.959364 1.045887 3.110889 0.9926423 2.957983 1.08254 20.19455 1.08254 20.14994 0.9094202 19.98848 0.9627354 3.110889 0.9926423 2.961417 0.793282 2.974917 0.8025589 20.28208 0.9926423 19.98848 0.9627354 20.19618 0.793282 19.98848 3.013183 20.14994 2.840796 20.19618 2.961417 20.40525 0.7951964 20.42071 0.7937812 20.45723 1.136837 2.839135 0.7937812 2.854112 0.8007493 2.660172 1.137477 2.838837 0.7951964 2.657754 1.136837 2.661753 1.138548 2.659937 1.284361 2.810893 1.098753 2.660436 1.308698 20.45808 1.284361 20.45258 1.301121 20.34435 1.098753 20.45258 1.301121 20.4595 1.308698 20.44018 1.095411 2.658172 1.301121 2.504508 1.095411 2.810893 1.098753 2.660436 1.308698 2.780199 1.084311 2.504508 1.095411 2.504508 1.095411 2.659867 0.9905802 2.810893 1.098753 20.59398 2.780199 20.34435 2.810893 20.45806 2.659955 2.810893 1.098753 2.659867 0.9905802 2.659955 0.9964226 2.504508 1.095411 2.659908 0.9836145 2.659867 0.9905802 2.504508 1.095411 2.780199 1.084311 2.659955 0.9964226 20.40271 0.6394784 20.42128 0.6354032 20.53377 1.073296 2.838933 0.6354032 2.853246 0.6227092 3.110499 1.07136 2.843652 0.6394784 3.10794 1.073408 3.110499 1.07136 20.53214 1.172231 20.53216 1.180833 20.40823 1.117537 20.40823 3.017449 20.53216 3.108278 20.64733 2.975706 3.111244 1.184555 3.119806 1.068269 2.975706 1.059773 3.111244 1.184555 3.160636 1.060648 3.119806 1.068269 20.41179 0.610178 20.18177 0.8884222 20.17896 0.8862756 20.41179 0.610178 20.42004 0.6323543 20.18177 0.8884222 20.42004 2.844609 20.17987 2.749151 20.18177 2.744663 2.854551 0.6167175 2.836136 0.610178 2.745643 0.8862756 2.746736 0.9831479 2.746729 0.9849573 2.54704 0.8992162 20.37346 0.939268 20.1854 0.797453 20.06177 0.8992162 20.37346 0.939268 20.10092 0.9273559 20.1854 0.797453 2.923885 0.9273559 2.54704 0.8992162 2.746797 0.7823477 2.746729 0.797453 2.923885 0.9273559 2.746737 0.8110392 20.40788 0.3928942 20.74451 0.8871862 20.74183 0.8898098 20.40788 0.3928942 20.42043 0.3789915 20.74451 0.8871862 20.41096 0.400426 20.74183 0.8898098 20.74507 0.888178 20.74619 1.021065 20.78668 0.8236516 20.74863 0.8995238 2.709652 1.021065 2.860834 0.8863976 2.707295 0.8236516 2.860834 0.8863976 2.691065 0.8995238 2.710479 0.7647007 20.78668 0.8236516 20.67995 0.8863976 20.74378 0.7787454 2.860834 0.8863976 2.710479 0.7647007 2.710976 0.7787454 20.40304 0.5500262 20.41905 0.5584533 20.31456 1.057255 2.855048 0.5469149 3.008894 1.056761 3.005892 1.057931 2.855048 0.5469149 2.84183 0.5500262 3.005367 1.057255 20.3175 1.195572 20.31681 1.163569 20.16315 1.059158 3.006648 1.163569 3.006619 1.17074 2.903063 1.162781 3.006619 1.17074 3.006901 1.195572 2.903063 1.162781 3.006901 1.195572 2.99534 0.9993746 2.903063 1.162781 2.99534 0.9993746 3.006901 1.195572 3.190796 0.9998759 20.29623 1.162781 20.39529 0.9993746 20.31093 0.9574055 20.16315 3.102948 20.31672 3.006649 20.35397 3.190796 20.35397 3.190796 20.31672 3.006649 20.39529 2.99534 20.41897 0.4139307 20.33247 1.179484 20.3278 1.179408 2.854764 0.4263507 2.573747 1.180693 2.569911 1.179484 2.854764 0.4263507 2.843513 0.415248 2.5711 1.179408 2.571548 1.304845 2.57165 1.320544 2.750129 1.179427 20.33033 2.57165 20.11062 2.608166 20.38822 2.750129 20.33033 1.320544 20.33253 1.255428 20.11062 1.193719 2.750129 1.179427 2.570965 1.047156 2.57155 1.081551 20.4389 -0.277694 20.40716 0.7195182 20.41949 0.7196751 20.44223 -0.2791988 20.41336 0.7193555 20.40465 -0.279799 3.036647 -0.277694 3.004394 0.7196751 3.003686 -0.2791988 20.41428 0.5365164 20.18774 0.72419 20.18971 0.7260578 20.4235 0.5449888 20.18774 0.72419 20.41428 0.5365164 20.42419 3.016591 20.19048 3.003072 20.4235 3.003399 3.004523 0.8102695 3.004173 0.8134648 3.001022 0.7028358 3.004523 0.8102695 3.001022 0.7028358 3.045261 0.732858 20.18903 0.8134648 20.32028 0.7409308 20.18864 0.7028358 20.17826 0.732858 20.1894 0.6486542 20.32028 0.7409308 3.045261 0.732858 3.004404 0.6445894 3.004583 0.6486542 20.1894 0.6486542 20.18864 0.7028358 20.32028 0.7409308 20.42143 0.5052535 20.53191 0.727816 20.53512 0.7264028 3.006993 0.505333 2.930212 0.7264169 2.933848 0.727816 20.42537 0.4934991 20.5329 0.7264169 20.41251 0.505333 3.019734 0.5052535 2.933399 0.7264028 3.005193 0.4934991 20.53328 0.8159861 20.73855 0.7137927 20.53207 0.8323616 20.53207 2.931938 20.73855 2.937954 20.56557 2.7289 2.931938 0.8323616 2.7289 0.7520021 2.924405 0.5849169 20.73855 2.937954 20.53346 2.931972 20.56557 2.7289 20.5168 3.127841 20.53341 2.932487 20.73855 2.937954 20.41614 0.2550405 20.40175 0.7707591 20.4284 0.2594413 3.004071 0.2654363 3.191046 0.7718865 3.194288 0.7706396 20.4284 0.2594413 20.39969 0.7718865 20.41501 0.2654363 3.193204 0.8642582 3.192717 0.886775 3.379156 0.7737326 20.40226 0.8885431 20.57108 0.754486 20.39952 0.886775 3.379156 0.7737326 3.134912 0.754486 3.191991 0.8885431 3.192717 0.886775 3.191704 0.7273645 3.379156 0.7737326 20.39952 0.886775 20.57108 0.754486 20.29742 0.7273645 20.57108 0.754486 20.39983 0.68145 20.29742 0.7273645 3.379156 0.7737326 3.193208 0.6867573 3.193272 0.68145 20.41122 0.5441989 20.35979 0.891803 20.35596 0.8914127 3.017493 0.5474402 2.916452 0.891803 3.005685 0.5453727 20.35789 0.9779839 20.35806 1.00144 20.24757 0.8631061 20.35806 2.914694 20.37792 3.030158 20.52441 2.858757 2.917894 0.9943535 2.839742 0.8631061 3.030158 0.9655975 20.37792 0.9655975 20.36005 0.7982082 20.52441 0.8580221 3.030158 0.9655975 2.839742 0.8631061 2.920069 0.7982082 20.24757 0.8631061 20.35778 0.791026 20.36005 0.7982082 20.36005 0.7982082 20.35789 0.783124 20.52441 0.8580221 20.42008 0.5408582 20.70015 0.6815158 20.70166 0.6786864 20.4176 3.005336 20.70211 3.083571 20.70015 3.085956 20.42442 3.006293 20.70166 3.087299 20.70211 3.083571 20.70274 0.7804933 20.80691 0.5781882 20.58393 0.7854999 20.58393 0.7854999 20.53037 0.6078134 20.7814 0.674605 20.80691 0.5781882 20.53037 0.6078134 20.58393 0.7854999 3.266006 0.674605 2.962828 0.5781882 3.084468 0.7804933 2.962828 0.5781882 3.085605 0.5725539 3.085534 0.5680416 2.962828 0.5781882 3.085636 0.5815858 3.085605 0.5725539 20.53037 3.083815 20.70134 3.085636 20.7814 3.266006 20.53037 0.6078134 20.7013 0.5680416 20.70134 0.5815858 20.42159 0.2877202 20.21316 0.738408 20.21543 0.7389139 20.42509 0.2998821 20.216 0.7402396 20.41266 0.2865737 3.019742 0.2877202 3.134033 0.7402396 3.005153 0.2998821 20.21512 3.136335 20.21498 3.135664 20.05025 3.156881 20.05025 0.7224982 20.22368 0.8140313 20.21512 0.8500523 20.05025 0.7224982 20.21699 0.648256 20.22368 0.8140313 3.007013 0.4173446 2.848955 0.8036246 2.852422 0.8048172 20.42636 0.4119791 20.4815 0.8036246 20.41216 0.4173446 3.019409 0.424179 2.849804 0.8034745 3.005492 0.4119791 20.48275 0.8943933 20.47994 0.9214353 20.63992 0.8032527 2.669227 0.828519 2.852974 0.7401623 2.852305 0.9214353 2.852305 0.9214353 2.852974 0.7401623 2.95211 0.7660684 20.63992 2.85945 20.47936 2.95211 20.48296 2.850506 3.0088 0.3366927 3.22336 0.7565643 3.018191 0.3233582 20.42773 0.3325491 20.51387 0.7584089 20.41174 0.3366927 3.005636 0.3325491 3.22336 0.7565643 3.220154 0.7577271 20.51477 0.8031288 20.64562 0.7595128 20.51572 0.8641424 20.51563 0.8365642 20.40153 0.7481615 20.51477 0.8031288 20.64562 0.7595128 20.51561 0.666895 20.40153 0.7481615 20.51477 0.8031288 20.5151 0.6555326 20.64562 0.7595128 20.40153 0.7481615 20.51561 0.666895 20.51562 0.6837238 20.41475 0.4779467 20.20729 0.6459919 20.20949 0.6489045 20.41941 3.003524 20.20927 2.922043 20.20729 2.924292 20.42544 0.4974142 20.20927 0.6472006 20.41941 0.4756177 20.24112 0.7841999 20.28984 0.6360869 20.20771 0.7495936 20.28984 0.6360869 20.07956 0.6112629 20.20771 0.7495936 20.07956 0.6112629 20.21041 0.5374981 20.24112 0.7841999 20.28984 0.6360869 20.20862 0.5440829 20.07956 0.6112629 2.803494 0.6360869 2.924105 0.5369509 2.923965 0.5440829 20.28984 2.803494 20.21041 2.926675 20.20867 2.924105 20.4389 -0.277694 20.40465 -0.279799 20.40716 0.7195182 3.021506 -0.279799 2.99448 0.7193555 3.006076 0.7195182 3.003686 -0.2791988 3.004394 0.7196751 2.99448 0.7193555 20.42419 0.5459629 20.41428 0.5365164 20.18971 0.7260578 20.4235 0.5449888 20.19048 0.7266806 20.18774 0.72419 20.42419 3.016591 20.18971 3.00656 20.19048 3.003072 20.18903 0.8134648 20.17826 0.732858 20.32028 0.7409308 3.045261 0.732858 3.001022 0.7028358 3.004404 0.6445894 3.019734 0.5052535 3.006993 0.505333 2.933848 0.727816 3.005193 0.4934991 2.933399 0.7264028 2.930212 0.7264169 20.53328 0.8159861 20.53342 0.8348105 20.73855 0.7137927 2.932395 0.8348105 2.931938 0.8323616 3.127841 0.7647387 20.53342 2.932395 20.5168 3.127841 20.73855 2.937954 2.931938 0.8323616 2.924405 0.5849169 3.127841 0.7647387 20.5168 3.127841 20.38596 2.924405 20.53341 2.932487 20.56557 2.7289 20.53346 2.931972 20.38596 2.924405 20.53346 0.6182601 20.73855 0.7137927 20.53341 0.6303727 20.41614 0.2550405 20.3981 0.7706396 20.40175 0.7707591 3.017882 0.2550405 3.004071 0.2654363 3.194288 0.7706396 3.01344 0.2594413 3.194362 0.7707591 3.191046 0.7718865 3.191991 0.8885431 3.193204 0.8642582 3.379156 0.7737326 20.57108 3.134912 20.38376 3.379156 20.39983 3.193272 20.38376 3.379156 20.29742 3.191704 20.39987 3.193208 20.42485 0.5474402 20.41122 0.5441989 20.3578 0.8922414 3.0102 0.5441989 2.917022 0.8914127 2.92002 0.8922414 20.41122 0.5441989 20.42683 0.5453727 20.35979 0.891803 3.017493 0.5474402 2.92002 0.8922414 2.916452 0.891803 2.914694 1.00144 2.917894 0.9943535 3.030158 0.9655975 20.35772 0.9943535 20.35789 0.9779839 20.24757 0.8631061 20.35806 1.00144 20.52441 0.8580221 20.24757 0.8631061 20.24757 0.8631061 20.52441 0.8580221 20.35789 0.783124 20.24757 0.8631061 20.35789 0.783124 20.35778 0.791026 20.42008 3.018691 20.4176 3.005336 20.70015 3.085956 20.4176 0.549963 20.42442 0.5393008 20.70211 0.6795094 20.42442 3.006293 20.42008 3.018691 20.70166 3.087299 3.084468 0.7804933 3.085628 0.7831138 3.266006 0.674605 20.70132 3.085628 20.58393 3.06345 20.7814 3.266006 20.70132 0.7831138 20.70131 0.8096039 20.58393 0.7854999 20.70131 0.8096039 20.70274 0.7804933 20.58393 0.7854999 20.80691 2.962828 20.7814 3.266006 20.70134 3.085636 20.53037 3.083815 20.80691 2.962828 20.7013 3.085534 3.019742 0.2877202 3.006991 0.2865737 3.135813 0.738408 20.41266 0.2865737 20.216 0.7402396 20.21316 0.738408 3.019742 0.2877202 3.137761 0.7389139 3.134033 0.7402396 3.135664 0.850372 3.137027 0.8140313 2.965393 0.7461849 20.21498 3.135664 20.22678 2.965393 20.05025 3.156881 3.137027 0.8140313 3.134348 0.648256 2.965393 0.7461849 20.05025 3.156881 20.22678 2.965393 20.21494 3.135576 2.965393 0.7461849 3.135687 0.6331711 3.135576 0.635657 2.965393 0.7461849 3.134348 0.648256 3.135687 0.6331711 20.05025 0.7224982 20.21494 0.635657 20.21699 0.648256 3.019409 0.424179 3.007013 0.4173446 2.852422 0.8048172 20.42636 0.4119791 20.4847 0.8034745 20.4815 0.8036246 3.019409 0.424179 2.852422 0.8048172 2.849804 0.8034745 2.850643 0.8940877 2.850659 0.8943933 2.669227 0.828519 20.48275 2.850659 20.63992 2.85945 20.48906 2.669227 2.850643 0.8940877 2.669227 0.828519 2.852305 0.9214353 20.47994 0.9214353 20.47936 0.7660684 20.63992 0.8032527 2.669227 0.828519 2.850506 0.6976037 2.852974 0.7401623 20.48906 2.669227 20.63992 2.85945 20.48296 2.850506 3.0088 0.3366927 3.220358 0.7584089 3.22336 0.7565643 20.42773 0.3325491 20.51742 0.7577271 20.51387 0.7584089 3.005636 0.3325491 3.018191 0.3233582 3.22336 0.7565643 20.51563 0.8365642 20.51572 0.8641424 20.40153 0.7481615 20.40153 0.7481615 20.51572 0.8641424 20.64562 0.7595128 20.51477 0.8031288 20.40153 0.7481615 20.5151 0.6555326 20.64562 0.7595128 20.5151 0.6555326 20.51561 0.666895 20.5151 0.6555326 20.40153 0.7481615 20.51562 0.6837238 20.42544 0.4974142 20.41475 0.4779467 20.20949 0.6489045 20.41475 3.017271 20.41941 3.003524 20.20729 2.924292 20.42544 3.011122 20.20949 2.925206 20.20927 2.922043 2.937379 0.7841999 2.924374 0.7589212 2.942908 0.6112629 20.2083 0.7589212 20.20771 0.7495936 20.07956 0.6112629 2.803494 0.6360869 2.937379 0.7841999 2.926675 0.5374981 20.21041 0.5374981 20.07956 0.6112629 20.20862 0.5440829</float_array>
          <technique_common>
            <accessor source="#uv-array" count="936" stride="2">
              <param name="S" type="float" />
              <param name="T" type="float" />
            </accessor>
          </technique_common>
        </source>
        <vertices id="vertices">
          <input semantic="POSITION" source="#positions" />
        </vertices>
        <triangles count="120" material="m0">
          <input semantic="VERTEX" source="#vertices" offset="0" />
          <input semantic="NORMAL" source="#normals" offset="1" />
          <input semantic="TEXCOORD" source="#uv" offset="2" set="0" />
          <p>0 0 0 4 0 1 3 0 2 2 1 3 5 1 4 1 1 5 0 2 6 3 2 7 2 2 8 7 3 9 11 3 10 10 3 11 8 4 12 11 4 13 7 4 14 8 5 15 9 5 16 11 5 17 20 13 39 23 13 40 25 13 41 21 14 42 23 14 43 20 14 44 20 15 45 25 15 46 22 15 47 36 23 69 39 23 70 35 23 71 37 24 72 40 24 73 36 24 74 37 25 75 38 25 76 40 25 77 50 30 90 53 30 91 52 30 92 51 31 93 54 31 94 53 31 95 49 32 96 54 32 97 51 32 98 64 35 105 68 35 106 67 35 107 65 36 108 69 36 109 68 36 110 64 37 111 69 37 112 66 37 113 80 44 132 83 44 133 79 44 134 80 45 135 81 45 136 83 45 137 94 53 159 98 53 160 97 53 161 95 54 162 98 54 163 94 54 164 93 55 165 96 55 166 95 55 167 107 59 177 110 59 178 109 59 179 108 60 180 110 60 181 107 60 182 108 61 183 109 61 184 111 61 185 122 66 198 124 66 199 121 66 200 123 67 201 125 67 202 122 67 203 123 68 204 124 68 205 126 68 206 0 75 225 1 75 226 4 75 227 1 76 228 5 76 229 4 76 230 2 77 231 3 77 232 5 77 233 6 78 234 10 78 235 9 78 236 6 79 237 7 79 238 10 79 239 8 80 240 6 80 241 9 80 242 21 84 252 24 84 253 23 84 254 21 85 255 22 85 256 24 85 257 22 86 258 25 86 259 24 86 260 35 92 276 39 92 277 38 92 278 36 93 279 40 93 280 39 93 281 37 94 282 35 94 283 38 94 284 49 101 303 50 101 304 52 101 305 50 102 306 51 102 307 53 102 308 49 103 309 52 103 310 54 103 311 64 114 342 65 114 343 68 114 344 65 115 345 66 115 346 69 115 347 64 116 348 67 116 349 69 116 350 78 121 363 82 121 364 81 121 365 78 122 366 79 122 367 82 122 368 79 123 369 83 123 370 82 123 371 80 124 372 78 124 373 81 124 374 93 130 390 97 130 391 96 130 392 93 131 393 94 131 394 97 131 395 95 132 396 96 132 397 98 132 398 106 138 414 107 138 415 109 138 416 108 139 417 111 139 418 110 139 419 108 140 420 106 140 421 109 140 422 122 149 447 125 149 448 124 149 449 123 150 450 126 150 451 125 150 452 123 151 453 121 151 454 124 151 455 135 156 468 139 156 469 138 156 470 137 157 471 140 157 472 136 157 473 135 158 474 138 158 475 137 158 476 142 159 477 145 159 478 144 159 479 143 160 480 145 160 481 142 160 482 141 161 483 146 161 484 143 161 485 154 168 504 158 168 505 157 168 506 155 169 507 159 169 508 158 169 509 156 170 510 159 170 511 155 170 512 154 171 513 157 171 514 156 171 515 170 177 531 172 177 532 169 177 533 171 178 534 174 178 535 173 178 536 169 179 537 174 179 538 171 179 539 184 187 561 188 187 562 187 187 563 183 188 564 188 188 565 185 188 566 198 196 588 202 196 589 201 196 590 199 197 591 203 197 592 202 197 593 200 198 594 201 198 595 203 198 596 214 207 621 218 207 622 217 207 623 216 208 624 219 208 625 215 208 626 214 209 627 219 209 628 216 209 629 229 213 639 232 213 640 231 213 641 230 214 642 232 214 643 229 214 644 228 215 645 233 215 646 230 215 647 243 220 660 245 220 661 242 220 662 244 221 663 246 221 664 243 221 665 244 222 666 245 222 667 247 222 668 257 228 684 260 228 685 259 228 686 258 229 687 261 229 688 260 229 689 256 230 690 261 230 691 258 230 692 135 237 711 136 237 712 139 237 713 136 238 714 140 238 715 139 238 716 137 239 717 138 239 718 140 239 719 141 240 720 142 240 721 144 240 722 143 241 723 146 241 724 145 241 725 141 242 726 144 242 727 146 242 728 154 245 735 155 245 736 158 245 737 156 246 738 157 246 739 159 246 740 170 254 762 173 254 763 172 254 764 170 255 765 171 255 766 173 255 767 169 256 768 172 256 769 174 256 770 183 260 780 184 260 781 186 260 782 184 261 783 187 261 784 186 261 785 184 262 786 185 262 787 188 262 788 183 263 789 186 263 790 188 263 791 198 269 807 199 269 808 202 269 809 199 270 810 200 270 811 203 270 812 200 271 813 198 271 814 201 271 815 214 278 834 215 278 835 218 278 836 215 279 837 219 279 838 218 279 839 214 280 840 217 280 841 219 280 842 228 288 864 229 288 865 231 288 866 230 289 867 233 289 868 232 289 869 228 290 870 231 290 871 233 290 872 243 297 891 246 297 892 245 297 893 244 298 894 247 298 895 246 298 896 244 299 897 242 299 898 245 299 899 256 305 915 257 305 916 259 305 917 257 306 918 258 306 919 260 306 920 256 307 921 259 307 922 261 307 923</p>
        </triangles>
        <triangles count="66" material="m5">
          <input semantic="VERTEX" source="#vertices" offset="0" />
          <input semantic="NORMAL" source="#normals" offset="1" />
          <input semantic="TEXCOORD" source="#uv" offset="2" set="0" />
          <p>13 6 18 16 6 19 15 6 20 12 7 21 16 7 22 13 7 23 16 8 24 17 8 25 15 8 26 12 9 27 18 9 28 16 9 29 12 10 30 19 10 31 18 10 32 12 11 33 17 11 34 19 11 35 14 12 36 17 12 37 12 12 38 26 16 48 31 16 49 28 16 50 26 17 51 30 17 52 31 17 53 26 18 54 27 18 55 30 18 56 27 19 57 28 19 58 29 19 59 28 20 60 31 20 61 29 20 62 29 21 63 34 21 64 33 21 65 31 22 66 32 22 67 34 22 68 58 33 99 60 33 100 57 33 101 59 34 102 61 34 103 63 34 104 112 62 186 115 62 187 117 62 188 117 63 189 116 63 190 114 63 191 115 64 192 119 64 193 117 64 194 119 65 195 118 65 196 117 65 197 14 81 243 12 81 244 13 81 245 15 82 246 17 82 247 14 82 248 17 83 249 16 83 250 18 83 251 27 87 261 29 87 262 30 87 263 30 88 264 33 88 265 32 88 266 30 89 267 29 89 268 33 89 269 29 90 270 31 90 271 34 90 272 31 91 273 30 91 274 32 91 275 55 104 312 58 104 313 57 104 314 55 105 315 56 105 316 58 105 317 56 106 318 57 106 319 59 106 320 56 107 321 59 107 322 58 107 323 57 108 324 60 108 325 59 108 326 59 109 327 62 109 328 58 109 329 60 110 330 58 110 331 61 110 332 58 111 333 62 111 334 61 111 335 59 112 336 63 112 337 62 112 338 59 113 339 60 113 340 61 113 341 114 141 423 112 141 424 117 141 425 112 142 426 113 142 427 115 142 428 113 143 429 114 143 430 115 143 431 114 144 432 120 144 433 115 144 434 120 145 435 114 145 436 116 145 437 115 146 438 120 146 439 119 146 440 117 147 441 118 147 442 116 147 443 116 148 444 118 148 445 120 148 446 177 180 540 175 180 541 178 180 542 176 181 543 179 181 544 175 181 545 178 182 546 179 182 547 176 182 548 175 183 549 180 183 550 178 183 551 175 184 552 179 184 553 180 184 554 179 185 555 182 185 556 180 185 557 178 186 558 181 186 559 182 186 560 235 216 648 237 216 649 239 216 650 236 217 651 238 217 652 237 217 653 237 218 654 238 218 655 240 218 656 239 219 657 240 219 658 241 219 659 176 257 771 177 257 772 178 257 773 179 258 774 178 258 775 182 258 776 178 259 777 180 259 778 181 259 779 234 291 873 235 291 874 236 291 875 235 292 876 239 292 877 236 292 878 234 293 879 236 293 880 237 293 881 237 294 882 240 294 883 239 294 884 236 295 885 241 295 886 238 295 887 236 296 888 239 296 889 241 296 890</p>
        </triangles>
        <triangles count="54" material="m2">
          <input semantic="VERTEX" source="#vertices" offset="0" />
          <input semantic="NORMAL" source="#normals" offset="1" />
          <input semantic="TEXCOORD" source="#uv" offset="2" set="0" />
          <p>42 26 78 44 26 79 45 26 80 43 27 81 44 27 82 42 27 83 45 28 84 47 28 85 43 28 86 45 29 87 46 29 88 47 29 89 84 46 138 88 46 139 87 46 140 84 47 141 89 47 142 88 47 143 85 48 144 86 48 145 89 48 146 84 49 147 87 49 148 86 49 149 86 50 150 87 50 151 89 50 152 91 51 153 92 51 154 88 51 155 90 52 156 91 52 157 89 52 158 41 95 285 42 95 286 45 95 287 41 96 288 45 96 289 43 96 290 43 97 291 47 97 292 44 97 293 45 98 294 48 98 295 46 98 296 45 99 297 44 99 298 48 99 299 44 100 300 47 100 301 48 100 302 84 125 375 85 125 376 89 125 377 87 126 378 90 126 379 89 126 380 87 127 381 88 127 382 90 127 383 88 128 384 89 128 385 91 128 386 90 129 387 88 129 388 92 129 389 160 172 516 165 172 517 161 172 518 161 173 519 165 173 520 163 173 521 161 174 522 163 174 523 168 174 524 165 175 525 166 175 526 163 175 527 164 176 528 167 176 529 165 176 530 252 223 669 250 223 670 248 223 671 249 224 672 251 224 673 252 224 674 250 225 675 253 225 676 251 225 677 252 226 678 254 226 679 250 226 680 251 227 681 253 227 682 255 227 683 265 231 693 264 231 694 262 231 695 264 232 696 266 232 697 262 232 698 266 233 699 268 233 700 265 233 701 264 234 702 267 234 703 266 234 704 264 235 705 269 235 706 267 235 707 264 236 708 268 236 709 269 236 710 160 247 741 162 247 742 165 247 743 162 248 744 161 248 745 164 248 746 162 249 747 164 249 748 165 249 749 161 250 750 168 250 751 164 250 752 164 251 753 168 251 754 167 251 755 163 252 756 166 252 757 168 252 758 166 253 759 165 253 760 167 253 761 249 300 900 248 300 901 251 300 902 251 301 903 248 301 904 250 301 905 252 302 906 251 302 907 254 302 908 250 303 909 254 303 910 253 303 911 254 304 912 251 304 913 255 304 914 265 308 924 263 308 925 266 308 926 263 309 927 262 309 928 266 309 929 264 310 930 265 310 931 268 310 932 268 311 933 266 311 934 267 311 935</p>
        </triangles>
        <triangles count="40" material="m1">
          <input semantic="VERTEX" source="#vertices" offset="0" />
          <input semantic="NORMAL" source="#normals" offset="1" />
          <input semantic="TEXCOORD" source="#uv" offset="2" set="0" />
          <p>71 38 114 74 38 115 70 38 116 71 39 117 72 39 118 74 39 119 70 40 120 75 40 121 73 40 122 72 41 123 76 41 124 74 41 125 75 42 126 76 42 127 72 42 128 77 43 129 76 43 130 75 43 131 99 56 168 103 56 169 101 56 170 100 57 171 103 57 172 99 57 173 102 58 174 104 58 175 100 58 176 127 69 207 130 69 208 128 69 209 131 70 210 128 70 211 133 70 212 130 71 213 132 71 214 128 71 215 131 72 216 133 72 217 130 72 218 132 73 219 133 73 220 128 73 221 130 74 222 134 74 223 132 74 224 71 117 351 73 117 352 72 117 353 72 118 354 73 118 355 75 118 356 70 119 357 77 119 358 75 119 359 70 120 360 74 120 361 77 120 362 101 133 399 102 133 400 100 133 401 101 134 402 103 134 403 102 134 404 103 135 405 100 135 406 104 135 407 102 136 408 103 136 409 105 136 410 103 137 411 104 137 412 105 137 413 127 152 456 129 152 457 130 152 458 129 153 459 131 153 460 130 153 461 129 154 462 128 154 463 131 154 464 130 155 465 133 155 466 134 155 467 189 189 567 190 189 568 193 189 569 190 190 570 191 190 571 194 190 572 192 191 573 193 191 574 191 191 575 191 192 576 196 192 577 194 192 578 191 193 579 193 193 580 196 193 581 193 194 582 197 194 583 196 194 584 196 195 585 195 195 586 194 195 587 190 264 792 192 264 793 191 264 794 192 265 795 189 265 796 193 265 797 190 266 798 194 266 799 193 266 800 193 267 801 194 267 802 195 267 803 193 268 804 195 268 805 197 268 806</p>
        </triangles>
        <triangles count="18" material="m4">
          <input semantic="VERTEX" source="#vertices" offset="0" />
          <input semantic="NORMAL" source="#normals" offset="1" />
          <input semantic="TEXCOORD" source="#uv" offset="2" set="0" />
          <p>147 162 486 148 162 487 153 162 488 147 163 489 153 163 490 149 163 491 148 164 492 150 164 493 153 164 494 149 165 495 152 165 496 150 165 497 149 166 498 151 166 499 152 166 500 152 167 501 153 167 502 150 167 503 222 210 630 220 210 631 223 210 632 223 211 633 221 211 634 222 211 635 223 212 636 227 212 637 221 212 638 148 243 729 149 243 730 150 243 731 149 244 732 153 244 733 151 244 734 220 281 843 221 281 844 224 281 845 220 282 846 224 282 847 223 282 848 221 283 849 227 283 850 224 283 851 223 284 852 224 284 853 225 284 854 224 285 855 226 285 856 225 285 857 224 286 858 227 286 859 226 286 860 223 287 861 225 287 862 227 287 863</p>
        </triangles>
        <triangles count="14" material="m3">
          <input semantic="VERTEX" source="#vertices" offset="0" />
          <input semantic="NORMAL" source="#normals" offset="1" />
          <input semantic="TEXCOORD" source="#uv" offset="2" set="0" />
          <p>204 199 597 209 199 598 207 199 599 207 200 600 210 200 601 208 200 602 209 201 603 210 201 604 207 201 605 208 202 606 209 202 607 204 202 608 209 203 609 212 203 610 211 203 611 209 204 612 213 204 613 212 204 614 210 205 615 213 205 616 208 205 617 210 206 618 211 206 619 213 206 620 204 272 816 205 272 817 208 272 818 205 273 819 207 273 820 208 273 821 205 274 822 206 274 823 207 274 824 206 275 825 204 275 826 207 275 827 209 276 828 208 276 829 213 276 830 210 277 831 209 277 832 211 277 833</p>
        </triangles>
      </mesh>
    </geometry>
  </library_geometries>
  <library_visual_scenes>
    <visual_scene id="Scene">
      <node id="Node" type="NODE">
        <instance_geometry url="#geometry">
          <bind_material>
            <technique_common>
              <instance_material symbol="m0" target="#m0">
                <bind_vertex_input semantic="UVSET0" input_semantic="TEXCOORD" input_set="0" />
              </instance_material>
              <instance_material symbol="m1" target="#m1">
                <bind_vertex_input semantic="UVSET0" input_semantic="TEXCOORD" input_set="0" />
              </instance_material>
              <instance_material symbol="m2" target="#m2">
                <bind_vertex_input semantic="UVSET0" input_semantic="TEXCOORD" input_set="0" />
              </instance_material>
              <instance_material symbol="m3" target="#m3">
                <bind_vertex_input semantic="UVSET0" input_semantic="TEXCOORD" input_set="0" />
              </instance_material>
              <instance_material symbol="m4" target="#m4">
                <bind_vertex_input semantic="UVSET0" input_semantic="TEXCOORD" input_set="0" />
              </instance_material>
              <instance_material symbol="m5" target="#m5">
                <bind_vertex_input semantic="UVSET0" input_semantic="TEXCOORD" input_set="0" />
              </instance_material>
            </technique_common>
          </bind_material>
        </instance_geometry>
      </node>
    </visual_scene>
  </library_visual_scenes>
  <scene>
    <instance_visual_scene url="#Scene" />
  </scene>
</COLLADA>