<?xml version='1.0' encoding='utf-8'?>
<COLLADA xmlns="http://www.collada.org/2005/11/COLLADASchema" version="1.4.1">
  <asset>
    <created>2026-09-15T00:00:00Z</created>
    <modified>2026-09-15T00:00:00Z</modified>
    <unit name="meter" meter="1" />
    <up_axis>Z_UP</up_axis>
  </asset>
  <library_images />
  <library_effects>
    <effect id="e0">
      <profile_COMMON>
        <technique sid="common">
          <phong>
            <ambient>
              <color>0.1755 0.18 0.1485 1</color>
            </ambient>
            <diffuse>
              <color>0.39 0.4 0.33 1</color>
            </diffuse>
            <specular>
              <color>0.02 0.02 0.02 1</color>
            </specular>
            <shininess>
              <float>8</float>
            </shininess>
          </phong>
        </technique>
      </profile_COMMON>
    </effect>
    <effect id="e1">
      <profile_COMMON>
        <technique sid="common">
          <phong>
            <ambient>
              <color>0.045 0.09 0.06075 1</color>
            </ambient>
            <diffuse>
              <color>0.1 0.2 0.135 1</color>
            </diffuse>
            <specular>
              <color>0.02 0.02 0.02 1</color>
            </specular>
            <shininess>
              <float>8</float>
            </shininess>
          </phong>
        </technique>
      </profile_COMMON>
    </effect>
    <effect id="e2">
      <profile_COMMON>
        <technique sid="common">
          <phong>
            <ambient>
              <color>0.0765 0.1215 0.0765 1</color>
            </ambient>
            <diffuse>
              <color>0.17 0.27 0.17 1</color>
            </diffuse>
            <specular>
              <color>0.02 0.02 0.02 1</color>
            </specular>
            <shininess>
              <float>8</float>
            </shininess>
          </phong>
        </technique>
      </profile_COMMON>
    </effect>
    <effect id="e3">
      <profile_COMMON>
        <technique sid="common">
          <phong>
            <ambient>
              <color>0.099 0.1395 0.09225 1</color>
            </ambient>
            <diffuse>
              <color>0.22 0.31 0.205 1</color>
            </diffuse>
            <specular>
              <color>0.02 0.02 0.02 1</color>
            </specular>
            <shininess>
              <float>8</float>
            </shininess>
          </phong>
        </technique>
      </profile_COMMON>
    </effect>
    <effect id="e4">
      <profile_COMMON>
        <technique sid="common">
          <phong>
            <ambient>
              <color>0.054 0.1035 0.09 1</color>
            </ambient>
            <diffuse>
              <color>0.12 0.23 0.2 1</color>
            </diffuse>
            <specular>
              <color>0.02 0.02 0.02 1</color>
            </specular>
            <shininess>
              <float>8</float>
            </shininess>
          </phong>
        </technique>
      </profile_COMMON>
    </effect>
    <effect id="e5">
      <profile_COMMON>
        <technique sid="common">
          <phong>
            <ambient>
              <color>0.126 0.1485 0.0855 1</color>
            </ambient>
            <diffuse>
              <color>0.28 0.33 0.19 1</color>
            </diffuse>
            <specular>
              <color>0.02 0.02 0.02 1</color>
            </specular>
            <shininess>
              <float>8</float>
            </shininess>
          </phong>
        </technique>
      </profile_COMMON>
    </effect>
  </library_effects>
  <library_materials>
    <material id="m0" name="m0">
      <instance_effect url="#e0" />
    </material>
    <material id="m1" name="m1">
      <instance_effect url="#e1" />
    </material>
    <material id="m2" name="m2">
      <instance_effect url="#e2" />
    </material>
    <material id="m3" name="m3">
      <instance_effect url="#e3" />
    </material>
    <material id="m4" name="m4">
      <instance_effect url="#e4" />
    </material>
    <material id="m5" name="m5">
      <instance_effect url="#e5" />
    </material>
  </library_materials>
  <library_geometries>
    <geometry id="geometry" name="forest_25_23">
      <mesh>
        <source id="positions">
          <float_array id="positions-array" count="810">50.68436 34.98582 -1.687339 50.6838 34.92182 -1.689722 50.73802 34.96779 -1.689042 50.7209 34.93288 -0.3313652 50.70959 34.91487 -0.3317374 50.73202 34.91635 -0.3321235 50.70893 34.95311 -1.010197 50.7001 34.93054 -1.017175 50.72417 34.9301 -1.003675 50.37871 34.88901 -0.174476 50.37533 34.88318 -0.1768906 50.38134 34.88342 -0.1734994 50.37838 34.88521 0.0957142 50.37839 34.88522 0.07087654 50.3784 34.88519 0.1003574 50.34062 35.21987 -0.1388799 50.1462 34.85704 -0.082335 50.66133 34.67639 -0.1261717 50.37838 34.88516 -0.405555 50.37907 34.88546 -0.4487535 50.37834 34.88546 -0.4837658 50.71143 34.95246 -1.01234 50.70175 34.92635 -1.014079 50.72551 34.93855 -1.020255 50.95821 34.80512 -0.05793198 50.95756 34.79841 -0.05902598 50.96239 34.79997 -0.06048538 50.9633 34.79669 0.2282017 50.95742 34.79886 0.07751787 50.95632 34.80745 0.1275029 51.23582 34.98001 -0.1162104 51.0451 34.64744 -0.2879212 50.95936 34.80165 -0.2558505 50.95924 34.80181 -0.3079177 50.95733 34.80191 -0.3035003 50.6999 34.9434 -0.8980425 50.71429 34.92697 -0.8775022 50.72018 34.94817 -0.8964472 50.57111 35.37699 -0.2645809 50.57376 35.37264 -0.2594936 50.57786 35.37672 -0.2622428 50.57415 35.37548 -0.03727738 50.57428 35.37544 -0.05116561 50.73713 35.09305 -0.2077195 50.87671 35.41258 -0.2707486 50.64588 35.68502 -0.230167 50.57424 35.37538 -0.06092322 50.27129 35.42395 -0.2118642 50.38495 35.24584 -0.4763555 50.57423 35.37548 -0.4434624 50.57424 35.3755 -0.4684394 50.5742 35.3756 -0.458938 50.69769 34.94487 -0.7552096 50.71828 34.92568 -0.7591737 50.71869 34.94886 -0.74645 50.62015 34.78568 -0.3439244 50.61746 34.78087 -0.3473512 50.62391 34.77998 -0.3458004 50.63073 34.77201 -0.1366615 50.72365 34.49037 -0.3393253 50.60768 34.79474 -0.2202712 50.52334 34.90818 -0.3717634 50.63435 34.79816 -0.5193988 50.62057 34.78218 -0.503427 50.62045 34.78212 -0.5547995 50.69983 34.94763 -0.8532807 50.70499 34.92566 -0.8505911 50.72483 34.93736 -0.8640528 51.02135 35.08586 -0.03153307 51.01911 35.08044 -0.02901564 51.02521 35.08 -0.03213579 51.022 35.08195 0.1452515 51.02227 35.08228 0.1723056 51.02194 35.08213 0.147136 50.81765 35.31333 0.02252196 50.85181 34.8579 0.01176884 51.22708 34.9855 -0.114546 51.02134 35.08129 -0.2654542 51.02187 35.08263 -0.2285551 51.02196 35.08212 -0.1924816 50.69754 34.9399 -1.062104 50.7182 34.92572 -1.049611 50.72317 34.94594 -1.051302 50.4458 35.04979 -0.2639906 50.44909 35.04493 -0.2615032 50.45234 35.05073 -0.2611249 50.4491 35.04857 -0.04642605 50.44908 35.04856 -0.01452318 50.54492 34.74911 -0.263568 50.44902 35.0486 -0.01923937 50.55755 35.3198 -0.261796 50.07941 35.05429 -0.3243588 50.44903 35.04866 -0.5180405 50.44909 35.04855 -0.5445624 50.44909 35.04855 -0.4898485 50.71702 34.95095 -0.720139 50.69846 34.93094 -0.7262006 50.7177 34.92661 -0.7342262 50.80712 34.74357 -0.244098 50.80808 34.73905 -0.2469644 50.81372 34.74278 -0.2464839 50.81009 34.74203 -0.04735803 50.8164 34.72914 -0.04434494 50.80394 34.73047 -0.3450208 50.82658 34.55327 -0.2853733 50.81212 34.74899 -0.2029937 50.81093 34.7423 -0.4634579 50.81005 34.74202 -0.4641199 50.71393 34.95141 -0.9253639 50.697 34.93392 -0.9128388 50.72298 34.92858 -0.9134639 50.81612 35.36667 0.1183163 50.81509 35.36013 0.1222314 50.82015 35.36291 0.1199157 50.82932 35.37696 0.3227762 50.81689 35.36331 0.3683977 50.81609 35.36323 0.3393013 50.62245 35.17027 0.06101977 50.82263 35.36607 -0.09903865 50.80506 35.63949 0.1191402 50.81606 35.3632 -0.1063126 50.81603 35.36304 -0.08950996 50.70409 34.95087 -0.6548763 50.71105 34.92392 -0.6620607 50.72352 34.93631 -0.6450613 50.33993 34.73114 -0.05224465 50.33786 34.726 -0.05660066 50.34301 34.72483 -0.05268585 50.35019 34.72923 0.03832691 50.33856 34.60385 0.1186064 50.34058 34.72709 0.244065 50.34016 34.72752 0.2918737 50.21086 34.80972 -0.07368837 50.34076 34.7276 -0.3794296 50.3394 34.72723 -0.3661082 51.0249 33.94716 -1.680817 51.05717 33.87797 -1.682911 51.09193 33.9553 -1.682314 51.09143 33.90893 -0.4895691 51.08851 33.88373 -0.4898961 51.11189 33.89685 -0.4902353 51.06556 33.91857 -0.7955288 51.07476 33.89465 -0.7810569 51.09226 33.92051 -0.7925115 51.00059 34.18813 -0.4089467 50.99819 34.18116 -0.4054763 51.0056 34.18393 -0.4058662 51.03307 34.20099 -0.1377315 50.99133 34.18083 -0.1634767 51.00138 34.18439 -0.2024121 51.19591 33.89627 -0.3313732 51.00167 34.18735 -0.6581254 51.00606 34.19232 -0.5052222 50.92593 34.09254 -0.4675763 51.06157 33.91511 -1.09352 51.07881 33.89544 -1.099491 51.09257 33.91339 -1.081485 50.81426 33.49767 -0.6254231 50.82034 33.49217 -0.6265501 50.82176 33.49659 -0.6229254 50.78965 33.49183 -0.5923078 50.81823 33.49562 -0.4622543 50.81824 33.49567 -0.4259174 50.95894 33.11523 -0.5436306 50.42863 33.45433 -0.5847821 50.83554 33.50953 -0.7797898 50.82578 33.50321 -0.8234962 50.81796 33.49543 -0.8074595 51.0645 33.91929 -0.9878854 51.08474 33.89234 -0.9916493 51.09266 33.9171 -0.9981803 51.39013 34.03248 -0.3589567 51.39065 34.02419 -0.3579661 51.39631 34.0279 -0.3606484 51.39506 34.03081 -0.1250331 51.39229 34.02822 -0.1873997 51.39099 34.02934 -0.1330803 51.67152 33.8636 -0.3740415 51.44565 34.33884 -0.3152664 51.39625 34.02712 -0.5757099 51.39225 34.02829 -0.5397048 51.10669 33.81583 -0.425142 51.39227 34.02821 -0.5262332 51.0632 33.91612 -1.157615 51.08516 33.89411 -1.147307 51.09372 33.91748 -1.14807 50.75088 34.06498 -0.3725224 50.7546 34.05821 -0.3703411 50.75667 34.06624 -0.3708771 50.75423 34.0626 -0.181641 50.75463 34.06323 -0.1455811 50.75422 34.06287 -0.1730515 51.07226 33.86966 -0.3549224 50.64268 34.34866 -0.421081 50.40673 33.90504 -0.4546059 50.7542 34.06262 -0.5920922 50.75355 34.06319 -0.5993542 50.75424 34.06254 -0.5531132 51.07377 33.9262 -1.164782 51.06223 33.90246 -1.169985 51.09241 33.89971 -1.173868 51.18503 33.6177 -0.3408759 51.19118 33.61314 -0.342732 51.19161 33.62116 -0.3406147 51.19042 33.61553 -0.06535343 51.18951 33.61721 -0.05136719 51.12617 33.65387 -0.0216742 51.19039 33.61249 -0.5443546 51.30832 33.85022 -0.3912015 50.99331 33.43364 -0.4582629 51.18889 33.61335 -0.6232418 51.18881 33.61831 -0.6064209 51.05969 33.91283 -1.103371 51.08559 33.89546 -1.098096 51.0908 33.91946 -1.112759 51.23243 34.41411 -0.4346367 51.23554 34.40799 -0.431675 51.24047 34.41134 -0.4344785 51.23597 34.41163 -0.2681595 51.5464 34.26742 -0.4392744 51.23604 34.41165 -0.2199137 51.23673 34.41538 -0.1960263 51.22435 34.85457 -0.4143397 51.23569 34.38395 -0.4488 51.23916 34.41475 -0.7095543 51.23616 34.41689 -0.6859139 51.0717 33.92644 -1.041931 51.07057 33.89411 -1.049768 51.09403 33.90815 -1.035634 50.60072 33.6834 -0.2660875 50.6015 33.67615 -0.2673607 50.60756 33.6793 -0.2638126 50.60331 33.67967 -0.04637992 50.91408 33.60061 -0.2263858 50.60402 33.67989 -0.001108057 50.60286 33.67911 -0.006014855 50.29499 33.59135 -0.3109539 50.54919 33.98215 -0.3242317 50.60611 33.68015 -0.5151281 50.6033 33.67968 -0.4785663 50.60293 33.67914 -0.5213916 51.06907 33.92458 -1.129648 51.07706 33.8919 -1.134156 51.09373 33.91739 -1.137102 51.42997 33.8225 -0.1731602 51.43802 33.8236 -0.1753582 51.43413 33.82888 -0.1738944 51.45051 33.82045 0.05246642 51.43342 33.8247 0.02376776 51.43699 33.82201 -0.1246644 51.75508 33.79191 -0.1723214 51.29304 33.99064 -0.2160152 51.43167 33.82535 -0.385278 51.43383 33.82446 -0.3550067 51.43885 33.82474 -0.3775757 51.06949 33.9243 -1.024049 51.06802 33.89557 -1.017449 51.09716 33.90799 -1.015576 50.9332 34.11326 -0.3675273 50.9369 34.10865 -0.3658108 50.94116 34.11547 -0.3667492 50.93745 34.11292 -0.1662055 50.9377 34.11195 -0.09698619 51.28512 34.00978 -0.4723284 50.93761 34.11312 -0.1362389 50.78969 33.89887 -0.2579156 50.77856 34.45178 -0.3294259 50.92116 34.09273 -0.5931638 50.93759 34.113 -0.6214489 50.93748 34.11292 -0.596733</float_array>
          <technique_common>
            <accessor source="#positions-array" count="270" stride="3">
              <param name="X" type="float" />
              <param name="Y" type="float" />
              <param name="Z" type="float" />
            </accessor>
          </technique_common>
        </source>
        <source id="normals">
          <float_array id="normals-array" count="936">-0.8466188 0.5304174 0.04352123 0.6466083 -0.7623778 -0.02603539 0.3192419 0.9472483 0.02837789 -0.7819769 0.5638186 -0.2657456 0.01073964 -0.9985827 -0.05212732 0.8174292 0.4474789 0.3627287 -0.5943624 -0.8041966 -0.001075222 0.5836128 -0.4209409 -0.6944098 -0.7943821 -0.4594726 0.3972934 0.8160527 -0.3677853 0.4458609 0.3387197 0.8967458 0.2848084 -0.1150078 0.9933572 0.003830377 -0.905225 0.3169873 0.282996 -0.963004 0.05052979 0.2647076 0.3976518 -0.8891326 -0.2265308 0.751092 0.6539018 -0.09095751 -0.758371 0.5841857 -0.2891375 0.9923498 0.123456 0.0007505433 0.8379538 0.5451757 -0.02483653 0.532928 -0.8460737 0.01212452 0.869276 0.4943127 0.003753336 -0.8704172 -0.4911075 0.03445645 0.8739415 0.4860308 -0.0006226028 -0.4898041 -0.1614628 0.8567507 0.4262245 -0.8812582 0.2042466 -0.8403845 -0.5114931 0.1792448 0.7583388 -0.4346003 0.4858445 0.9674578 -0.04672816 0.2486805 0.2112325 0.8312081 -0.5142702 -0.8679267 -0.4966433 -0.006972324 -0.5276186 -0.3304613 -0.7825688 0.9739478 -0.2267574 -0.002600857 0.3165837 -0.5102926 -0.79961 0.8664426 0.4992752 0.00119207 -0.5926272 0.1012473 -0.7990882 0.4318445 0.5995229 -0.6738565 0.5565847 0.7799934 -0.2860485 -0.436758 -0.4830841 0.7588624 -0.5647937 0.8251664 -0.01041748 -0.5659418 0.8244093 0.007697458 -0.04632556 -0.938758 -0.341449 0.9763654 -0.1172463 0.1815596 0.9055831 0.4001118 -0.1408181 -0.9552961 -0.2942108 -0.02914317 -0.7375998 -0.673157 -0.05297338 -0.9229541 -0.04406196 0.3823798 -0.7904492 -0.6125226 0.002457343 -0.9099357 -0.1674388 0.3794485 0.01976561 -0.9838681 0.1778001 0.2683929 0.9272789 -0.2609963 0.4100392 0.911946 -0.01491151 0.5700276 0.06209308 -0.8192759 -0.7674857 0.6350795 -0.08740513 -0.6536872 -0.7232501 -0.2227157 -0.5366516 -0.7919606 0.2912104 0.7949749 0.04533583 0.6049459 0.8025268 -0.5965308 0.01008629 -0.5409429 -0.8390711 -0.05779747 0.808164 -0.4752569 0.3478533 -0.1525238 0.9715621 -0.1811177 -0.9530122 -0.3029189 -0.00278962 -0.9034882 0.02131249 -0.4280828 0.9233039 -0.3837397 -0.01593179 0.4956294 0.6388022 -0.5884584 0.9521463 0.3056409 0.0009768092 -0.9524133 -0.3048097 0 -0.9295656 0.3686391 0.00360735 -0.9559596 -0.2722388 0.109669 -0.3228636 -0.9018079 -0.2872309 -0.8928785 -0.3808725 0.240217 0.9920623 -0.118653 -0.04163958 0.9927478 0.1131372 -0.04064105 0.892174 -0.4516293 0.007521874 -0.6149237 0.5131728 0.5987675 -0.7664036 0.6191031 -0.17128 -0.1762755 -0.9029528 0.3919225 0.9419968 0.2684627 -0.2014197 -0.8739998 -0.3456727 -0.3415184 0.8680785 -0.2877208 -0.4045447 -0.7135548 0.7005163 0.01078782 -0.9967715 -0.07828631 0.01782565 0.7701022 -0.3645456 0.5234971 -0.4909031 -0.5624574 0.6653239 0.7840838 -0.48326 0.3894514 -0.8382445 -0.07265105 -0.5404331 0.01457194 -0.9530193 -0.302559 0.6153114 -0.7795628 0.1169351 0.740927 0.3203077 0.5902797 0.9097461 0.3339128 -0.246707 -0.9940927 0.1062749 0.02203175 -0.5090642 -0.8606005 0.01484935 -0.9997868 0.008011375 0.01903015 0.06604626 -0.9977963 -0.006365856 0.8300439 0.5571469 0.02479006 -0.8510872 0.4274504 -0.3048552 0.05703537 -0.9978413 -0.03255202 0.7384054 0.584351 0.3365877 -0.7324453 -0.4442768 -0.5158896 -0.1206003 0.9927011 0.000176169 0.1212256 -0.9926243 -0.001138011 0.2587806 0.8494855 -0.4597902 -0.990911 -0.1329439 0.02052543 0.1135586 -0.9935193 -0.004885509 0.2474894 -0.9493773 -0.1934731 0.6830407 0.7275453 -0.06429025 0.4396672 -0.8893527 -0.1254776 -0.8987835 -0.4261373 0.1029331 -0.1433669 0.8028531 -0.5786819 0.4674699 -0.6270445 0.6231269 -0.4613169 0.3613497 0.8103166 -0.1223569 0.9924856 0.001057039 0.393588 -0.6162386 0.6821572 -0.4731878 0.5083657 0.7194842 -0.8791121 0.4762523 0.01858973 -0.6675617 -0.6360326 -0.3870709 0.8256777 0.4227637 0.3735334 -0.2958835 0.9082786 0.2957752 0.9371456 0.3482039 0.02263264 0.7801289 -0.04966427 0.6236444 0.7975189 0.603245 0.007683401 -0.8470629 0.4675317 0.2527817 0.4931899 -0.869438 -0.02900498 0.7592075 0.5379407 -0.3663656 0.7528853 0.6580148 -0.01342553 -0.4308734 0.6804447 -0.592742 -0.06902006 0.7970004 0.6000222 -0.4304564 -0.9025036 0.01394804 0.4225302 0.9062748 0.01158795 -0.7769277 -0.608586 -0.1612652 0.9190835 -0.197202 0.34117 -0.07204932 0.9847575 -0.1583082 -0.9286687 0.3709099 -0.0004947325 0.4558241 -0.6877432 -0.5650077 0.3157103 -0.7154241 0.623294 0.3530212 0.6688153 0.6542646 -0.9114427 0.01888305 0.4109934 -0.7321544 0.562756 0.383739 0.5312809 -0.7529407 -0.3883568 0.9820013 0.1146261 -0.1501141 0.2352666 0.906571 0.3503977 -0.997626 -0.06698607 -0.01597384 -0.9970556 -0.07640576 0.006506016 0.9868607 0.1479347 0.06497163 -0.9831714 0.1785497 0.03865244 0.5566887 -0.7832322 0.2768485 0.7109105 0.6267767 -0.3189942 0.9994619 0.01816528 -0.02731112 -0.7021771 0.7119654 -0.007244238 0.9992682 0.03820057 0.001941024 -0.7877902 0.5510964 -0.2750987 0.3444346 0.7956835 0.4982495 -0.48484 -0.874243 -0.02508522 -0.9996345 0.02549473 -0.008993043 -0.9969545 0.06303582 -0.04591469 0.7648093 0.6240339 0.1601511 0.6742811 0.7330174 0.08961274 -0.9917127 0.1141032 0.05904631 0.9116011 -0.4095541 -0.03534095 -0.119691 0.9920637 0.03851864 -0.9411556 0.1817831 -0.2849228 0.8236523 -0.3654763 0.4336172 0.7114928 0.6446266 -0.2797045 0.005065972 0.820672 -0.5713772 0.6222593 0.6288096 -0.466253 -0.193822 -0.980324 0.03738786 -0.6626556 -0.6205521 0.4192882 -0.7526044 0.6578701 0.02816987 -0.6480334 -0.3654041 -0.6682309 0.8972001 -0.4141073 0.1534505 -0.1883184 0.7803079 0.5963688 -0.9420756 -0.330173 -0.05898549 0.3132684 0.3845309 -0.8683311 0.2713402 -0.9621738 -0.02441519 0.4547626 -0.8901951 0.02726938 -0.2669589 0.916609 -0.2975918 -0.6829711 -0.5757633 0.4494964 0.8628451 -0.3674412 -0.3471098 0.4862018 0.7920112 -0.3692237 -0.9869997 0.1584438 -0.02696637 0.7350493 -0.6275221 -0.2567459 -0.7292913 -0.2687995 -0.6291908 0.7849293 -0.4113625 -0.4633215 -0.01776973 0.8208126 -0.5709211 -0.5953543 0.8034402 0.006093618 0.8537995 -0.2987427 0.4263558 -0.141734 0.9607333 -0.2385434 -0.9347378 -0.3551638 0.01113464 -0.6544538 -0.6420774 -0.3992828 0.6795952 -0.3112653 -0.6642772 -0.9193046 -0.3899905 0.05278693 -0.4082853 0.9126595 0.01886084 0.5179026 0.8554384 0.001458396 -0.8895081 0.3752868 0.2606436 -0.6206039 -0.765272 -0.170908 0.8284908 0.5533088 0.08632736 -0.5938425 -0.551546 -0.5857885 0.1798307 0.8551917 -0.4861152 -0.8951242 0.4458081 -0.002789429 -0.6731169 0.7395214 -0.004669226 0.7906982 -0.6085969 0.06637912 0.7560531 -0.6099324 0.2374155 -0.6668689 0.7448853 0.02077694 -0.9094048 0.4112991 0.06177369 -0.8775699 -0.2463292 0.4113308 0.9706761 -0.236581 -0.04262974 -0.3243285 0.7952043 -0.5123096 -0.3970249 -0.9163372 0.05193674 -0.999444 -0.01287171 0.0307586 0.9997052 0.0236933 0.005296967 -0.7052197 -0.4113371 0.577466 0.9900039 -0.05410086 0.1302515 -0.865286 0.1466409 -0.4793501 0.4509003 -0.8923092 0.02175308 0.4572261 0.7319262 0.5052013 0.6530805 -0.445599 -0.6123132 -0.5462046 -0.6559669 -0.5209299 0.02692388 0.953094 -0.3014745 -0.6612999 -0.485888 0.5714852 -0.05685874 0.9482513 0.3123886 -0.5637187 -0.7212086 0.4025908 0.1052517 -0.9883398 -0.1100292 0.7722965 -0.543162 -0.3294437 0.757573 0.6177181 -0.2109681 -0.3861704 -0.7949915 0.4678259 0.7624691 0.6469836 -0.007292556 0.07284889 0.9972793 0.01127162 -0.7863118 -0.6163097 0.04331325 0.3472228 -0.8684651 0.3538426 0.6150907 -0.08895038 -0.7834228 0.8250908 -0.5648949 -0.01090595 -0.3093083 -0.9505626 -0.02755268 -0.4066772 0.7134455 -0.5706217 0.9142621 0.06999682 0.3990304 0.02735034 0.8606732 0.5084226 -0.2830244 -0.9591032 -0.004274737 -0.4178425 -0.6753443 0.6077151 0.5698736 -0.3273149 0.7537301 -0.006851226 0.8146822 0.5798672 -0.905672 -0.4231911 0.02583534 0.4892312 -0.8721113 -0.008643462 0.5091315 0.8600306 0.03365142 -0.9429827 -0.3277843 0.05780292 0.3043427 -0.726422 0.6161871 -0.8501981 -0.4571129 -0.2611723 0.4404696 -0.8976978 -0.0111921 0.6589113 0.6725149 -0.3369859 0.7819707 -0.6231849 0.01274233 -0.5485947 -0.4640356 -0.6954961 0.8151118 -0.5774047 -0.04686678 -0.1013114 0.7652372 0.6357264 0.103443 -0.9946159 0.006221636 0.1049343 -0.9944781 0.001433532 0.1032538 -0.9946504 -0.003030445 0.2961594 0.5572837 0.775709 0.7924539 -0.6026154 0.09418883 -0.8879855 -0.0006186627 0.459871 0.5213589 -0.8500516 -0.0748139 0.01001638 0.9832216 -0.1821398 0.9823564 -0.1835357 -0.03592528 -0.6843329 -0.4005984 0.6092696 0.9618132 -0.2484239 0.1148954 0.6233461 -0.5256061 0.5789455 -0.1229071 0.6821101 0.7208465 0.6104706 -0.7892487 0.06642388 -0.8205216 -0.5246336 -0.2269446 -0.6703455 -0.7304055 -0.1309376 0.8841708 -0.2006955 0.4218571 0.01320286 0.9831264 -0.1824506 0.9361925 0.3510919 -0.01667708 0.5112513 0.8592261 -0.01877825 0.132228 0.7860617 -0.6038401 -0.6872696 -0.5509767 0.4733764 0.4853909 -0.3196684 0.8137615 -0.07900392 0.6480782 0.7574648 -0.1257619 -0.9423872 -0.3099843 0.9919288 -0.02085851 -0.1250684 -0.444515 0.817527 0.3661366 -0.9381252 0.3312931 -0.1008265 0.7468068 -0.6368086 0.1917144 -0.5295507 -0.6106528 0.5887946 0.6557781 -0.6625183 0.3619733 0.2710399 0.7498308 -0.6035654 0.4207545 0.9071738 -0.001164021 -0.6416862 -0.3224122 -0.6959089 0.3518816 0.9287117 -0.1169357 0.9996716 0.02460513 -0.007166962 0.3457552 0.9313018 0.1145875 -0.8573465 -0.002664689 -0.5147327 0.4901192 -0.8701675 0.0509084 0.3379364 0.8199677 0.4620086 0.1173334 0.9762639 -0.1820487 0.9867208 0.1616093 -0.01626654 0.2833404 -0.9589664 -0.01008109 0.9875156 0.1369793 0.07777986 0.5212393 -0.3120515 0.7943132 0.2802804 -0.9598692 0.0096957 -0.9108705 -0.266305 0.3152723 0.2771402 0.960781 -0.009655014 -0.7667575 0.5400978 0.3469543 0.8579675 -0.01610467 -0.5134515 0.7587875 0.6513059 0.006487847 0.09445897 0.9955275 0.001604884 -0.3415125 -0.8714344 -0.3520956 0.09591022 0.9953245 0.01141959 0.8215895 0.5377215 0.189331 -0.7484056 -0.6623773 0.03384385 -0.9789378 0.003184163 -0.2041338 0.8169053 -0.4626845 0.3443671 0.5339907 0.8340971 -0.1383326 -0.2258261 0.9227018 -0.3124484 0.9068169 0.4214536 -0.007745293 -0.6474925 -0.5836199 -0.490042</float_array>
          <technique_common>
            <accessor source="#normals-array" count="312" stride="3">
              <param name="X" type="float" />
              <param name="Y" type="float" />
              <param name="Z" type="float" />
            </accessor>
          </technique_common>
        </source>
        <source id="uv">
          <float_array id="uv-array" count="1872">13.99433 -0.6749354 13.96595 -0.1326949 13.97315 -0.1325461 20.29521 -0.675617 20.29281 -0.1328494 20.27352 -0.6758888 20.27374 -0.6749354 20.28836 -0.1325461 20.29521 -0.675617 13.98124 -0.4040789 13.95327 -0.07075625 13.9556 -0.06979042 20.28967 -0.4014701 20.15013 -0.07075625 20.28004 -0.40687 13.97204 -0.4014701 13.9556 -0.06979042 13.95337 -0.06939975 20.15135 0.03828568 20.26453 -0.05046869 20.15136 0.04014298 20.15135 13.95408 20.05848 13.94282 20.13625 14.08795 13.87056 -0.05046869 14.08795 -0.05555196 13.95418 -0.1795014 13.94282 -0.032934 13.95418 -0.1935063 14.08795 -0.05555196 20.26453 -0.05046869 20.15163 -0.1795014 20.05848 -0.032934 20.05848 -0.032934 20.15135 -0.162222 20.15134 -0.1935063 13.97054 -0.4056317 13.92205 -0.02317279 13.98098 -0.4049361 13.97054 -0.4056317 13.91936 -0.02361039 13.92205 -0.02317279 20.2902 -0.4081018 20.38495 -0.02419415 20.2807 -0.4056317 13.97542 -0.4081018 13.92205 -0.02317279 13.91999 -0.02419415 13.91868 0.09128069 13.992 -0.04648416 13.85898 -0.1151685 13.91954 0.03100715 13.92076 -0.1214001 13.92298 0.05100118 13.91868 0.09128069 13.85898 -0.1151685 13.91954 0.03100715 20.38253 0.05100118 20.38293 -0.1214001 20.49433 -0.04648416 13.91954 0.03100715 13.85898 -0.1151685 13.92076 -0.1214001 13.85898 -0.1151685 13.92066 -0.1023402 13.92076 -0.1214001 13.85898 -0.1151685 13.92072 -0.1231671 13.92066 -0.1023402 20.49433 13.992 20.3837 13.92072 20.41804 13.85898 20.49433 -0.04648416 20.38293 -0.1214001 20.3837 -0.1231671 13.97079 -0.3510009 14.1508 -0.1058323 13.97736 -0.359217 13.97079 -0.3510009 14.15069 -0.1048971 14.14906 -0.1037974 13.97927 -0.3585789 14.15069 -0.1048971 13.97079 -0.3510009 20.28807 -0.3585789 20.22845 -0.1058323 20.23114 -0.1048971 14.15018 -0.02046624 14.03722 -0.0830878 14.15019 -0.01491095 20.22971 14.15018 20.25835 14.27401 20.35068 14.16503 14.15015 -0.02436929 14.27401 -0.09206678 14.15018 -0.02046624 20.2297 14.15015 20.10851 14.16958 20.25835 14.27401 14.15019 -0.01491095 14.03722 -0.0830878 14.15015 -0.02436929 20.22971 14.15018 20.35068 14.16503 20.29485 14.03722 20.2297 14.15015 20.29485 14.03722 20.10851 14.16958 20.29485 -0.0830878 20.15398 -0.1905422 20.10851 -0.08474569 20.25835 14.27401 20.22969 14.1502 20.35068 14.16503 20.15398 -0.1905422 20.22968 -0.1835752 20.22969 -0.1873757 20.15398 -0.1905422 20.22969 -0.1773849 20.22968 -0.1835752 20.28731 -0.3036695 20.24956 -0.1383202 20.24699 -0.1389405 13.97955 -0.29858 13.91199 -0.1383202 13.97027 -0.3036695 13.9179 -0.08810847 13.9088 -0.05466459 13.79615 -0.1357301 13.9088 -0.05466459 13.91926 -0.2077595 13.79615 -0.1357301 13.9088 -0.05466459 13.96327 -0.1487054 13.91926 -0.2077595 13.79615 -0.1357301 13.91926 -0.2077595 13.91285 -0.2219198 13.96327 -0.1487054 13.91285 -0.2219198 13.91287 -0.2013708 13.97026 -0.3402364 14.03218 -0.01160626 13.97905 -0.3413123 20.282 -0.3402364 20.41008 -0.01285431 20.40764 -0.01160626 20.27993 -0.3413123 20.40854 -0.01261323 20.28993 -0.3456211 20.4088 0.05810061 20.40891 0.06892224 20.49083 -0.04581838 20.40878 14.03285 20.34072 13.94316 20.32706 14.12533 14.03278 0.05810061 13.94316 0.004707534 14.03285 0.0588544 20.40891 0.06892224 20.32706 0.009008782 20.49083 -0.04581838 20.32706 0.009008782 20.40875 -0.09142204 20.49083 -0.04581838 13.94316 0.004707534 14.03305 -0.09142204 14.12533 0.009008782 14.03252 -0.1061817 14.03305 -0.09142204 13.94316 0.004707534 20.28728 -0.4198444 20.17964 -0.1046013 20.27901 -0.4248417 13.97029 -0.4198444 14.02029 -0.10445 14.01797 -0.1046013 20.27901 -0.4248417 20.18093 -0.10445 20.28927 -0.4205209 14.01943 -0.01857042 13.89964 -0.1054272 14.01944 -0.007695749 14.01943 -0.01857042 14.12792 -0.1047184 13.89964 -0.1054272 14.01942 -0.005809272 14.01944 -0.007695749 14.12792 -0.1047184 20.21797 -0.1054272 20.03176 -0.1297435 20.17961 -0.007695749 13.89964 -0.1054272 14.01942 -0.217825 14.01947 -0.2072162 13.89964 -0.1054272 14.01942 -0.1959394 14.01942 -0.217825 14.12792 -0.1047184 14.01947 -0.2072162 14.01942 -0.1959394 13.97238 -0.2904802 13.89562 -0.09878576 13.89743 -0.09763921 20.28708 -0.2936905 20.32323 -0.09878576 20.27938 -0.2904802 13.89681 -0.01894321 13.82131 -0.1141493 13.89166 -0.01773798 13.89166 -0.01773798 13.89219 -0.1380083 13.8996 -0.08119749 13.89166 -0.01773798 13.82131 -0.1141493 13.89219 -0.1380083 13.8996 -0.08119749 13.89219 -0.1380083 13.89692 -0.1853831 13.82131 -0.1141493 13.89692 -0.1853831 13.89681 -0.185648 13.97357 -0.3651355 14.14667 0.04732652 13.98057 -0.3701456 20.28919 -0.3653855 20.32604 0.04889257 20.2788 -0.3651355 13.98057 -0.3701456 14.14517 0.04796628 13.97143 -0.3653855 14.14532 0.1473591 14.25579 0.04765608 14.15078 0.1291105 14.14529 0.1357205 14.06811 0.02440791 14.25579 0.04765608 14.15078 0.1291105 14.06811 0.02440791 14.14529 0.1357205 14.25579 0.04765608 14.14643 -0.03961546 14.15078 0.1291105 14.06811 0.02440791 14.14522 -0.03580399 14.25579 0.04765608 20.32202 14.25579 20.32642 14.14528 20.32905 14.14643 14.14643 -0.03961546 14.14522 -0.03580399 14.06811 0.02440791 13.96957 -0.2648243 13.8904 -0.02264026 13.98035 -0.2619505 20.28442 -0.2648243 20.13721 -0.02107434 20.13514 -0.02264026 20.28941 -0.2580245 20.13721 -0.02107434 20.28442 -0.2648243 13.97453 -0.2580245 13.89246 -0.02089786 13.88993 -0.02107434 13.89101 0.1167495 13.84154 0.04744256 13.92389 -0.02947535 13.89169 0.01533077 13.89104 -0.1517719 13.84154 0.04744256 20.08434 -0.02947535 20.1363 -0.1517719 20.14008 0.01533077 13.99433 -0.6749354 13.96873 -0.6758888 13.96595 -0.1326949 20.27352 -0.6758888 20.29281 -0.1328494 20.28384 -0.1326949 13.98711 -0.675617 13.97315 -0.1325461 13.96654 -0.1328494 13.98124 -0.4040789 13.97222 -0.40687 13.95327 -0.07075625 20.28967 -0.4014701 20.15253 -0.06939975 20.15013 -0.07075625 13.97204 -0.4014701 13.98124 -0.4040789 13.9556 -0.06979042 13.95408 0.03828568 14.08795 -0.05555196 13.87056 -0.05046869 20.15135 0.03828568 20.15136 0.02835062 20.05848 -0.032934 20.15136 0.02835062 20.15136 0.04014298 20.05848 -0.032934 20.15136 0.04014298 20.26453 -0.05046869 20.05848 -0.032934 13.95418 -0.1795014 14.08795 -0.05555196 13.95418 -0.1935063 20.05848 -0.032934 20.15163 -0.1795014 20.15135 -0.162222 20.2807 -0.4056317 20.38495 -0.02419415 20.38302 -0.02361039 20.2902 -0.4081018 20.28457 -0.4049361 20.38328 -0.02317279 20.38253 0.05100118 20.49433 -0.04648416 20.38532 0.09128069 13.97079 -0.3510009 14.14906 -0.1037974 14.1508 -0.1058323 20.28807 -0.3585789 20.27996 -0.359217 20.22845 -0.1058323 20.10851 -0.08474569 20.15398 -0.1905422 20.25835 -0.09206678 20.29485 14.03722 20.35068 14.16503 20.15398 14.09834 20.35068 -0.1082994 20.22969 -0.1873757 20.22969 -0.1773849 20.25835 14.27401 20.15398 14.09834 20.22969 14.1502 20.15398 14.09834 20.35068 14.16503 20.22969 14.15019 13.97795 -0.3020838 13.91235 -0.1389405 13.91427 -0.1375698 13.97795 -0.3020838 13.97027 -0.3036695 13.91235 -0.1389405 13.97955 -0.29858 13.91427 -0.1375698 13.91199 -0.1383202 20.28748 -0.29858 20.27908 -0.3020838 20.24806 -0.1375698 13.9179 -0.08810847 13.79615 -0.1357301 13.91285 -0.2219198 13.91926 -0.2077595 13.96327 -0.1487054 13.91287 -0.2013708 13.96327 -0.1487054 13.9179 -0.08810847 13.91285 -0.2219198 13.97905 -0.3413123 14.03218 -0.01160626 14.03434 -0.01261323 20.282 -0.3402364 20.28993 -0.3456211 20.41008 -0.01285431 13.97494 -0.3456211 14.03434 -0.01261323 14.032 -0.01285431 14.03291 0.06892224 14.03285 0.0588544 14.12533 0.009008782 20.4088 0.05810061 20.49083 -0.04581838 20.34072 0.004707534 20.34072 0.004707534 20.49083 -0.04581838 20.40854 -0.1061817 20.40854 -0.1061817 20.49083 -0.04581838 20.40879 -0.07699265 20.49083 -0.04581838 20.40875 -0.09142204 20.40879 -0.07699265 13.97596 -0.4248417 14.01797 -0.1046013 14.01992 -0.1055962 13.97029 -0.4198444 13.97838 -0.4205209 14.02029 -0.10445 20.27901 -0.4248417 20.17832 -0.1055962 20.18093 -0.10445 14.01943 -0.01857042 14.01942 -0.005809272 14.12792 -0.1047184 20.22302 -0.1047184 20.17961 -0.007695749 20.03176 -0.1297435 20.22302 -0.1047184 20.03176 -0.1297435 20.17961 -0.2072162 20.03176 -0.1297435 20.21797 -0.1054272 20.17961 -0.2072162 13.89964 -0.1054272 14.12792 -0.1047184 14.01942 -0.1959394 13.98038 -0.2880556 13.97238 -0.2904802 13.89743 -0.09763921 20.28708 -0.2936905 20.32549 -0.09859355 20.32323 -0.09878576 13.97064 -0.2936905 13.98038 -0.2880556 13.89711 -0.09859355 20.28681 -0.2880556 20.32285 -0.09763921 20.32549 -0.09859355 13.89681 -0.01894321 13.8996 -0.08119749 13.82131 -0.1141493 13.82131 -0.1141493 13.8996 -0.08119749 13.89692 -0.1853831 13.89219 -0.1380083 13.82131 -0.1141493 13.89681 -0.185648 13.97357 -0.3651355 14.14405 0.04889257 14.14667 0.04732652 20.28919 -0.3653855 20.32806 0.04796628 20.32604 0.04889257 13.98057 -0.3701456 14.14667 0.04732652 14.14517 0.04796628 14.14532 0.1473591 14.14529 0.1357205 14.25579 0.04765608 20.33173 0.1291105 20.32905 -0.03961546 20.24898 0.02440791 14.25579 0.04765608 14.14522 -0.03580399 14.14528 -0.04252505 13.98035 -0.2619505 13.8904 -0.02264026 13.89246 -0.02089786 20.28941 -0.2580245 20.28163 -0.2619505 20.13597 -0.02089786 20.14008 0.01533077 20.13606 0.1167495 20.08434 -0.02947535 13.89101 0.1167495 13.89084 0.097626 13.84154 0.04744256 13.89084 0.097626 13.89169 0.01533077 13.84154 0.04744256 13.92389 -0.02947535 13.84154 0.04744256 13.89089 -0.1464433 20.08434 -0.02947535 20.13576 -0.1464433 20.1363 -0.1517719 13.57886 -0.6723268 13.55349 -0.1959584 13.56357 -0.1958276 13.58212 -0.6729255 13.55874 -0.1960941 13.55119 -0.6731643 20.40996 -0.6723268 20.43657 -0.1958276 20.43677 -0.6729255 13.56743 -0.3182115 13.67246 -0.1621905 13.67525 -0.1635787 13.5682 -0.3170046 13.67357 -0.1623465 13.55786 -0.3124228 13.5682 -0.3170046 13.67525 -0.1635787 13.67357 -0.1623465 20.42622 -0.3182115 20.40024 -0.1635787 20.43691 -0.3170046 20.40055 -0.08096485 20.41323 -0.05509259 20.47836 -0.1325493 20.41323 -0.05509259 20.40242 -0.2020889 20.40067 -0.2632502 13.6804 -0.05509259 13.63702 -0.1870305 13.55851 -0.1325493 13.6804 -0.05509259 13.67494 -0.2632502 13.63702 -0.1870305 20.43153 13.55818 20.3257 13.39907 20.42463 13.56604 13.56536 -0.432594 13.39864 -0.2491701 13.39687 -0.25062 20.42463 -0.4374078 20.3257 -0.2501692 20.43703 -0.432594 13.39827 -0.1703669 13.40381 -0.3119159 13.24609 -0.2174522 20.32729 13.39827 20.38358 13.24609 20.17145 13.38173 20.31586 -0.2369231 20.33421 -0.3119159 20.32729 -0.1703669 20.31586 -0.2369231 20.33031 -0.3293985 20.33421 -0.3119159 20.17145 -0.2339128 20.33421 -0.3119159 20.32718 -0.3229838 13.55693 -0.3966597 13.60967 -0.1431864 13.56772 -0.3951542 13.56684 -0.3992721 13.61116 -0.1442594 13.55693 -0.3966597 20.43706 -0.3992721 20.55605 -0.1435827 20.55852 -0.1442594 13.61173 -0.05323211 13.73553 -0.1261066 13.61129 -0.07495987 13.61173 -0.05323211 13.61232 -0.05001324 13.52633 -0.1700568 13.73553 -0.1261066 13.54544 -0.1496166 13.61232 -0.05001324 13.52633 -0.1700568 13.73553 -0.1261066 13.61173 -0.05323211 20.55802 -0.05001324 20.66861 -0.1496166 20.44268 -0.1700568 20.44268 -0.1700568 20.55691 -0.2104933 20.5569 -0.2158819 13.56699 -0.4592279 13.62329 -0.1481364 13.55764 -0.458923 20.42528 -0.4630462 20.30035 -0.149009 20.30267 -0.1483508 13.62504 -0.07265642 13.62515 -0.06922061 13.73946 -0.1684324 13.62529 -0.05823243 13.73946 -0.1684324 13.54787 -0.141969 13.62515 -0.06922061 13.56202 -0.1818424 13.73946 -0.1684324 13.73946 -0.1684324 13.62527 -0.2397417 13.62505 -0.2368369 20.16269 -0.1818424 20.30169 -0.2212453 20.30142 -0.2397417 20.4289 -0.141969 20.30168 -0.2368369 20.30169 -0.2212453 13.56098 -0.4679939 13.44708 -0.1363504 13.57048 -0.4659129 20.42489 -0.4679939 20.47647 -0.1370928 20.47401 -0.1363504 13.57048 -0.4659129 13.44847 -0.1362459 13.55988 -0.4695473 13.46155 -0.00866968 13.54009 -0.1564806 13.44688 -0.02054687 20.47617 -0.02614137 20.39732 -0.1833052 20.45047 -0.00866968 13.54009 -0.1564806 13.44499 -0.2177419 13.44621 -0.02614137 20.47617 -0.02614137 20.47616 -0.2177419 20.39732 -0.1833052 13.46155 -0.00866968 13.37346 -0.1833052 13.54009 -0.1564806 13.37346 -0.1833052 13.44733 -0.2425684 13.54009 -0.1564806 20.47616 -0.2177419 20.47556 -0.2492967 20.39732 -0.1833052 13.44733 -0.2425684 13.44499 -0.2177419 13.54009 -0.1564806 13.56513 -0.4413484 13.7632 -0.17267 13.76564 -0.1738547 13.56779 -0.4451036 13.76453 -0.1737914 13.55818 -0.4392384 20.42388 -0.4413484 20.49297 -0.1738547 20.43632 -0.4451036 20.49439 -0.1072638 20.61856 -0.1757098 20.49469 -0.0784105 13.76615 -0.0784105 13.94183 -0.1657359 13.76466 -0.08796546 13.94183 -0.1657359 13.75358 -0.17952 13.76676 -0.2743656 13.94183 -0.1657359 13.7659 -0.2838217 13.70697 -0.1757098 13.94183 -0.1657359 13.76676 -0.2743656 13.7659 -0.2838217 13.55764 -0.419907 13.47336 -0.106435 13.57058 -0.4167725 20.42823 -0.419907 20.24302 -0.105525 20.2406 -0.1069443 20.42868 -0.4167725 20.24302 -0.105525 20.43761 -0.4142537 13.47187 -0.01855197 13.43654 -0.1243816 13.59286 -0.1296927 20.24161 -0.0004432227 20.21967 -0.1296927 20.36563 -0.09055431 20.36563 -0.09055431 20.118 -0.1243816 20.24115 -0.002405942 13.59286 -0.1296927 13.47206 -0.2060512 13.44025 -0.09055431 20.36563 -0.09055431 20.24117 -0.2085566 20.118 -0.1243816 20.24245 -0.2060512 20.24117 -0.2085566 20.36563 -0.09055431 20.43082 -0.4536624 20.57521 -0.07014329 20.57199 -0.06926408 13.56696 -0.4548409 13.52944 -0.07014329 13.55676 -0.4536624 13.56696 -0.4548409 13.53155 -0.06955774 13.52944 -0.07014329 20.51721 -0.08640608 20.57554 -0.1510303 20.70203 -0.06892854 13.52881 -0.04986576 13.53014 -0.1541112 13.59626 -0.08640608 20.5748 -0.04986576 20.57554 -0.1510303 20.57267 -0.1541112 13.55823 -0.4069797 13.64346 -0.1463243 13.6453 -0.1470109 20.43886 -0.4062304 20.37476 -0.1463243 20.42721 -0.4069797 20.37498 13.64517 20.31587 13.55955 20.31143 13.78071 13.64517 -0.06648222 13.64478 -0.03879448 13.55955 -0.1031662 20.37505 -0.05449558 20.51405 -0.1889314 20.37508 -0.03879448 20.51405 -0.1889314 20.31587 -0.1031662 20.37508 -0.03879448 13.55955 -0.1031662 13.63709 -0.2372655 13.78071 -0.1317703 20.31587 -0.1031662 20.51405 -0.1889314 20.36847 -0.2372655 20.51405 -0.1889314 20.37499 -0.2386932 20.37504 -0.2485795 20.31143 -0.1317703 20.37499 -0.2386932 20.51405 -0.1889314 20.31143 13.78071 20.36847 13.63709 20.37499 13.64517 20.51405 -0.1889314 20.37504 -0.2485795 20.36847 -0.2372655 13.57886 -0.6723268 13.55119 -0.6731643 13.55349 -0.1959584 20.42287 -0.6731643 20.44475 -0.1960941 20.4354 -0.1959584 20.43677 -0.6729255 20.43657 -0.1958276 20.44475 -0.1960941 13.56743 -0.3182115 13.55786 -0.3124228 13.67246 -0.1621905 20.4299 -0.3124228 20.40224 -0.1623465 20.39928 -0.1621905 13.67376 -0.08096485 13.55851 -0.1325493 13.67233 -0.06539068 20.39653 -0.06539068 20.40242 -0.2020889 20.41323 -0.05509259 20.39653 -0.06539068 20.47836 -0.1325493 20.37037 -0.1870305 13.67693 -0.2020889 13.67233 -0.06539068 13.63702 -0.1870305 20.43153 13.55818 20.32814 13.39687 20.3257 13.39907 13.55818 -0.4397963 13.56536 -0.432594 13.39687 -0.25062 20.43703 -0.432594 20.3257 -0.2501692 20.3287 -0.2491701 20.32729 -0.1849017 20.17145 -0.2339128 20.31586 -0.2369231 20.32729 -0.1849017 20.32729 -0.1703669 20.17145 -0.2339128 20.31586 -0.2369231 20.17145 -0.2339128 20.32718 -0.3229838 20.17145 13.38173 20.38358 13.24609 20.33421 13.40381 13.39673 -0.2369231 13.39817 -0.3229838 13.40128 -0.3293985 13.56772 -0.3951542 13.60967 -0.1431864 13.61299 -0.1435827 20.4339 -0.3966597 20.55852 -0.1442594 20.55626 -0.1431864 20.43706 -0.3992721 20.4258 -0.3951542 20.55605 -0.1435827 13.61129 -0.07495987 13.73553 -0.1261066 13.61232 -0.05001324 13.54544 -0.1496166 13.73553 -0.1261066 13.61085 -0.230284 13.73553 -0.1261066 13.61132 -0.2158819 13.61085 -0.230284 13.73553 -0.1261066 13.52633 -0.1700568 13.61132 -0.2158819 20.44268 13.52633 20.66861 13.54544 20.5585 13.61085 20.44268 -0.1700568 20.5585 -0.230284 20.55691 -0.2104933 13.56645 -0.4630462 13.62329 -0.1481364 13.62599 -0.149009 20.42528 -0.4630462 20.43407 -0.458923 20.30184 -0.1481364 13.56699 -0.4592279 13.6265 -0.1483508 13.62329 -0.1481364 20.43749 -0.4592279 20.42528 -0.4630462 20.30267 -0.1483508 13.62504 -0.07265642 13.73946 -0.1684324 13.62529 -0.05823243 20.30169 -0.06922061 20.30185 -0.05823243 20.4289 -0.141969 20.30169 -0.06922061 20.4289 -0.141969 20.16269 -0.1818424 13.54787 -0.141969 13.73946 -0.1684324 13.62505 -0.2368369 20.25707 13.73946 20.16269 13.56202 20.30142 13.62527 20.16269 13.56202 20.4289 13.54787 20.30169 13.62502 20.42489 -0.4679939 20.43696 -0.4695473 20.47647 -0.1370928 13.55988 -0.4695473 13.44847 -0.1362459 13.44526 -0.1370928 20.42951 -0.4659129 20.47401 -0.1363504 20.47664 -0.1362459 13.44688 -0.02054687 13.54009 -0.1564806 13.44621 -0.02614137 13.37346 -0.1833052 13.44534 -0.2492967 13.44733 -0.2425684 20.42388 -0.4413484 20.43424 -0.4392384 20.49422 -0.17267 20.43424 -0.4392384 20.49619 -0.1737914 20.49422 -0.17267 20.43632 -0.4451036 20.49297 -0.1738547 20.49619 -0.1737914 20.49439 -0.1072638 20.49442 -0.08796546 20.61856 -0.1757098 20.61856 13.70697 20.49442 13.76466 20.48974 13.94183 20.49469 -0.0784105 20.61856 -0.1757098 20.49428 -0.17952 13.76615 -0.0784105 13.75358 -0.17952 13.94183 -0.1657359 20.61856 -0.1757098 20.49566 -0.2838217 20.49428 -0.17952 13.55764 -0.419907 13.47046 -0.1069443 13.47336 -0.106435 20.42823 -0.419907 20.43761 -0.4142537 20.24302 -0.105525 20.42868 -0.4167725 20.24029 -0.106435 20.24302 -0.105525 20.24115 -0.002405942 20.24161 -0.0004432227 20.36563 -0.09055431 13.47187 -0.01855197 13.59286 -0.1296927 13.47196 -0.0004432227 20.24132 -0.01855197 20.24115 -0.002405942 20.118 -0.1243816 13.47206 -0.2060512 13.59286 -0.1296927 13.47187 -0.1914265 20.21967 13.59286 20.118 13.43654 20.24132 13.47187 20.118 -0.1243816 20.24117 -0.2085566 20.24132 -0.1914265 13.56983 -0.4518592 13.55676 -0.4536624 13.529 -0.06926408 20.43749 -0.4548409 20.42763 -0.4518592 20.57365 -0.06955774 13.56983 -0.4518592 13.529 -0.06926408 13.53155 -0.06955774 13.52988 0.009507104 13.59626 -0.08640608 13.52818 0.02098657 13.52988 0.009507104 13.52881 -0.04986576 13.59626 -0.08640608 20.5748 -0.04986576 20.58021 0.02098657 20.70203 -0.06892854 20.58021 0.02098657 20.51721 -0.08640608 20.70203 -0.06892854 20.5748 -0.04986576 20.70203 -0.06892854 20.57554 -0.1510303 13.52989 -0.1510303 13.59626 -0.08640608 13.52978 -0.1420027 13.59626 -0.08640608 13.53014 -0.1541112 13.52978 -0.1420027 13.56972 -0.4096194 13.55823 -0.4069797 13.6453 -0.1470109 13.5632 -0.4062304 13.64619 -0.1466997 13.64346 -0.1463243 20.43886 -0.4062304 20.42779 -0.4096194 20.37646 -0.1466997 20.42779 -0.4096194 20.37328 -0.1470109 20.37646 -0.1466997 13.64525 -0.05449558 13.64517 -0.06648222 13.78071 -0.1317703 13.60391 -0.1889314 13.64525 -0.05449558 13.78071 -0.1317703</float_array>
          <technique_common>
            <accessor source="#uv-array" count="936" stride="2">
              <param name="S" type="float" />
              <param name="T" type="float" />
            </accessor>
          </technique_common>
        </source>
        <vertices id="vertices">
          <input semantic="POSITION" source="#positions" />
        </vertices>
        <triangles count="120" material="m0">
          <input semantic="VERTEX" source="#vertices" offset="0" />
          <input semantic="NORMAL" source="#normals" offset="1" />
          <input semantic="TEXCOORD" source="#uv" offset="2" set="0" />
          <p>0 0 0 4 0 1 3 0 2 2 1 3 5 1 4 1 1 5 0 2 6 3 2 7 2 2 8 6 3 9 10 3 10 9 3 11 8 4 12 10 4 13 7 4 14 8 5 15 9 5 16 11 5 17 22 12 36 24 12 37 21 12 38 22 13 39 25 13 40 24 13 41 23 14 42 26 14 43 22 14 44 23 15 45 24 15 46 26 15 47 36 25 75 38 25 76 35 25 77 36 26 78 40 26 79 39 26 80 37 27 81 40 27 82 36 27 83 37 28 84 38 28 85 40 28 86 53 40 120 57 40 121 56 40 122 54 41 123 57 41 124 53 41 125 66 47 141 69 47 142 65 47 143 66 48 144 70 48 145 69 48 146 65 49 147 68 49 148 67 49 149 81 57 171 84 57 172 80 57 173 81 58 174 85 58 175 84 58 176 80 59 177 85 59 178 82 59 179 96 67 201 99 67 202 98 67 203 97 68 204 99 68 205 96 68 206 109 74 222 111 74 223 108 74 224 110 75 225 112 75 226 109 75 227 108 76 228 113 76 229 110 76 230 123 84 252 126 84 253 122 84 254 123 85 255 127 85 256 126 85 257 124 86 258 127 86 259 123 86 260 124 87 261 125 87 262 127 87 263 0 91 273 1 91 274 4 91 275 1 92 276 5 92 277 4 92 278 2 93 279 3 93 280 5 93 281 6 94 282 7 94 283 10 94 284 8 95 285 11 95 286 10 95 287 8 96 288 6 96 289 9 96 290 22 103 309 26 103 310 25 103 311 23 104 312 21 104 313 24 104 314 36 106 318 39 106 319 38 106 320 37 107 321 35 107 322 38 107 323 52 113 339 56 113 340 55 113 341 52 114 342 53 114 343 56 114 344 54 115 345 55 115 346 57 115 347 54 116 348 52 116 349 55 116 350 65 120 360 69 120 361 68 120 362 66 121 363 67 121 364 70 121 365 67 122 366 68 122 367 70 122 368 80 128 384 84 128 385 83 128 386 81 129 387 82 129 388 85 129 389 80 130 390 83 130 391 85 130 392 95 136 408 96 136 409 98 136 410 97 137 411 100 137 412 99 137 413 97 138 414 95 138 415 100 138 416 95 139 417 98 139 418 100 139 419 109 143 429 112 143 430 111 143 431 110 144 432 113 144 433 112 144 434 108 145 435 111 145 436 113 145 437 122 149 447 126 149 448 125 149 449 124 150 450 122 150 451 125 150 452 135 156 468 139 156 469 138 156 470 137 157 471 140 157 472 136 157 473 135 158 474 138 158 475 137 158 476 141 159 477 145 159 478 144 159 479 143 160 480 146 160 481 142 160 482 143 161 483 144 161 484 146 161 485 141 162 486 144 162 487 143 162 488 155 167 501 157 167 502 154 167 503 156 168 504 159 168 505 158 168 506 154 169 507 157 169 508 156 169 509 169 175 525 172 175 526 168 175 527 170 176 528 173 176 529 169 176 530 170 177 531 171 177 532 173 177 533 185 184 552 187 184 553 184 184 554 183 185 555 186 185 556 188 185 557 199 192 576 201 192 577 198 192 578 199 193 579 202 193 580 201 193 581 198 194 582 203 194 583 200 194 584 212 203 609 216 203 610 215 203 611 214 204 612 217 204 613 213 204 614 212 205 615 215 205 616 214 205 617 227 211 633 229 211 634 226 211 635 227 212 636 231 212 637 230 212 638 226 213 639 231 213 640 228 213 641 242 220 660 245 220 661 244 220 662 243 221 663 245 221 664 242 221 665 243 222 666 246 222 667 245 222 668 256 226 678 259 226 679 258 226 680 257 227 681 259 227 682 256 227 683 135 238 714 136 238 715 139 238 716 136 239 717 140 239 718 139 239 719 137 240 720 138 240 721 140 240 722 141 241 723 142 241 724 145 241 725 142 242 726 146 242 727 145 242 728 155 247 741 158 247 742 157 247 743 155 248 744 156 248 745 158 248 746 156 249 747 157 249 748 159 249 749 168 255 765 172 255 766 171 255 767 169 256 768 173 256 769 172 256 770 170 257 771 168 257 772 171 257 773 183 264 792 187 264 793 186 264 794 183 265 795 184 265 796 187 265 797 185 266 798 188 266 799 187 266 800 185 267 801 183 267 802 188 267 803 199 274 822 200 274 823 202 274 824 200 275 825 203 275 826 202 275 827 198 276 828 201 276 829 203 276 830 212 279 837 213 279 838 216 279 839 213 280 840 217 280 841 216 280 842 214 281 843 215 281 844 217 281 845 227 287 861 230 287 862 229 287 863 227 288 864 228 288 865 231 288 866 226 289 867 229 289 868 231 289 869 241 296 888 242 296 889 244 296 890 243 297 891 241 297 892 246 297 893 241 298 894 244 298 895 246 298 896 255 306 918 256 306 919 258 306 920 257 307 921 260 307 922 259 307 923 257 308 924 255 308 925 260 308 926 255 309 927 258 309 928 260 309 929</p>
        </triangles>
        <triangles count="20" material="m4">
          <input semantic="VERTEX" source="#vertices" offset="0" />
          <input semantic="NORMAL" source="#normals" offset="1" />
          <input semantic="TEXCOORD" source="#uv" offset="2" set="0" />
          <p>12 6 18 17 6 19 14 6 20 12 7 21 16 7 22 15 7 23 17 8 24 15 8 25 19 8 26 16 9 27 20 9 28 15 9 29 17 10 30 19 10 31 16 10 32 16 11 33 18 11 34 20 11 35 60 42 126 58 42 127 59 42 128 58 43 129 62 43 130 59 43 131 58 44 132 61 44 133 62 44 134 59 45 135 62 45 136 64 45 137 61 46 138 64 46 139 63 46 140 12 97 291 15 97 292 17 97 293 12 98 294 13 98 295 16 98 296 13 99 297 14 99 298 16 99 299 14 100 300 17 100 301 16 100 302 19 101 303 15 101 304 20 101 305 16 102 306 19 102 307 18 102 308 60 117 351 59 117 352 64 117 353 62 118 354 61 118 355 63 118 356 61 119 357 60 119 358 64 119 359</p>
        </triangles>
        <triangles count="30" material="m2">
          <input semantic="VERTEX" source="#vertices" offset="0" />
          <input semantic="NORMAL" source="#normals" offset="1" />
          <input semantic="TEXCOORD" source="#uv" offset="2" set="0" />
          <p>27 16 48 30 16 49 31 16 50 28 17 51 34 17 52 29 17 53 27 18 54 31 18 55 28 18 56 29 19 57 34 19 58 30 19 59 28 20 60 31 20 61 34 20 62 31 21 63 32 21 64 34 21 65 31 22 66 33 22 67 32 22 68 30 23 69 33 23 70 31 23 71 30 24 72 34 24 73 33 24 74 101 69 207 104 69 208 102 69 209 102 70 210 103 70 211 105 70 212 102 71 213 104 71 214 103 71 215 105 72 216 103 72 217 106 72 218 104 73 219 106 73 220 107 73 221 29 105 315 30 105 316 27 105 317 101 140 420 105 140 421 104 140 422 104 141 423 105 141 424 106 141 425 103 142 426 104 142 427 107 142 428 176 178 534 178 178 535 175 178 536 176 179 537 174 179 538 181 179 539 178 180 540 177 180 541 174 180 542 181 181 543 178 181 544 176 181 545 174 182 546 177 182 547 181 182 548 181 183 549 182 183 550 180 183 551 175 258 774 178 258 775 174 258 776 177 259 777 178 259 778 179 259 779 178 260 780 180 260 781 179 260 782 178 261 783 181 261 784 180 261 785 181 262 786 177 262 787 179 262 788 181 263 789 179 263 790 182 263 791</p>
        </triangles>
        <triangles count="58" material="m5">
          <input semantic="VERTEX" source="#vertices" offset="0" />
          <input semantic="NORMAL" source="#normals" offset="1" />
          <input semantic="TEXCOORD" source="#uv" offset="2" set="0" />
          <p>42 29 87 43 29 88 41 29 89 42 30 90 45 30 91 44 30 92 46 31 93 45 31 94 42 31 95 46 32 96 47 32 97 45 32 98 41 33 99 43 33 100 46 33 101 42 34 102 44 34 103 43 34 104 46 35 105 43 35 106 47 35 107 43 36 108 48 36 109 47 36 110 45 37 111 50 37 112 44 37 113 48 38 114 51 38 115 50 38 116 48 39 117 49 39 118 51 39 119 71 50 150 72 50 151 76 50 152 73 51 153 75 51 154 74 51 155 71 52 156 75 52 157 73 52 158 72 53 159 74 53 160 76 53 161 74 54 162 78 54 163 76 54 164 75 55 165 78 55 166 74 55 167 77 56 168 78 56 169 75 56 170 131 88 264 129 88 265 132 88 266 128 89 267 133 89 268 129 89 269 132 90 270 133 90 271 128 90 272 47 108 324 48 108 325 45 108 326 43 109 327 44 109 328 48 109 329 44 110 330 50 110 331 49 110 332 45 111 333 48 111 334 50 111 335 48 112 336 44 112 337 49 112 338 72 123 369 73 123 370 74 123 371 71 124 372 76 124 373 75 124 374 75 125 375 76 125 376 77 125 377 77 126 378 76 126 379 79 126 380 76 127 381 78 127 382 79 127 383 128 151 453 131 151 454 132 151 455 131 152 456 130 152 457 129 152 458 130 153 459 128 153 460 129 153 461 132 154 462 129 154 463 134 154 464 132 155 465 134 155 466 133 155 467 206 195 585 208 195 586 205 195 587 204 196 588 209 196 589 206 196 590 208 197 591 207 197 592 204 197 593 204 198 594 207 198 595 209 198 596 206 199 597 209 199 598 208 199 599 209 200 600 211 200 601 208 200 602 207 201 603 210 201 604 209 201 605 211 202 606 207 202 607 208 202 608 261 228 684 265 228 685 266 228 686 261 229 687 262 229 688 265 229 689 264 230 690 263 230 691 262 230 692 263 231 693 265 231 694 262 231 695 265 232 696 267 232 697 266 232 698 265 233 699 263 233 700 267 233 701 263 234 702 269 234 703 268 234 704 266 235 705 269 235 706 263 235 707 266 236 708 267 236 709 269 236 710 263 237 711 268 237 712 267 237 713 205 277 831 208 277 832 204 277 833 209 278 834 210 278 835 211 278 836 264 310 930 261 310 931 266 310 932 263 311 933 264 311 934 266 311 935</p>
        </triangles>
        <triangles count="52" material="m3">
          <input semantic="VERTEX" source="#vertices" offset="0" />
          <input semantic="NORMAL" source="#normals" offset="1" />
          <input semantic="TEXCOORD" source="#uv" offset="2" set="0" />
          <p>86 60 180 88 60 181 89 60 182 86 61 183 90 61 184 88 61 185 87 62 186 89 62 187 90 62 188 88 63 189 91 63 190 89 63 191 88 64 192 93 64 193 92 64 194 88 65 195 94 65 196 93 65 197 90 66 198 92 66 199 94 66 200 86 131 393 87 131 394 90 131 395 90 132 396 89 132 397 91 132 398 90 133 399 91 133 400 92 133 401 91 134 402 88 134 403 92 134 404 88 135 405 90 135 406 94 135 407 149 163 489 147 163 490 150 163 491 147 164 492 152 164 493 151 164 494 147 165 495 153 165 496 150 165 497 147 166 498 151 166 499 153 166 500 189 186 558 191 186 559 193 186 560 190 187 561 193 187 562 192 187 563 191 188 564 194 188 565 193 188 566 193 189 567 196 189 568 195 189 569 194 190 570 197 190 571 196 190 572 192 191 573 195 191 574 197 191 575 218 206 618 219 206 619 221 206 620 221 207 621 222 207 622 220 207 623 222 208 624 223 208 625 225 208 626 222 209 627 224 209 628 219 209 629 222 210 630 225 210 631 224 210 632 251 223 669 254 223 670 250 223 671 249 224 672 252 224 673 251 224 674 249 225 675 254 225 676 252 225 677 149 243 729 150 243 730 148 243 731 148 244 732 152 244 733 147 244 734 148 245 735 150 245 736 153 245 737 152 246 738 148 246 739 153 246 740 189 268 804 193 268 805 190 268 806 191 269 807 190 269 808 192 269 809 191 270 810 192 270 811 194 270 812 192 271 813 193 271 814 195 271 815 193 272 816 194 272 817 196 272 818 194 273 819 192 273 820 197 273 821 218 282 846 220 282 847 219 282 848 219 283 849 220 283 850 222 283 851 221 284 852 219 284 853 223 284 854 221 285 855 223 285 856 222 285 857 219 286 858 224 286 859 223 286 860 248 299 897 251 299 898 247 299 899 248 300 900 249 300 901 251 300 902 249 301 903 247 301 904 250 301 905 247 302 906 251 302 907 250 302 908 249 303 909 250 303 910 254 303 911 254 304 912 251 304 913 253 304 914 251 305 915 252 305 916 253 305 917</p>
        </triangles>
        <triangles count="32" material="m1">
          <input semantic="VERTEX" source="#vertices" offset="0" />
          <input semantic="NORMAL" source="#normals" offset="1" />
          <input semantic="TEXCOORD" source="#uv" offset="2" set="0" />
          <p>115 77 231 119 77 232 114 77 233 116 78 234 117 78 235 119 78 236 114 79 237 117 79 238 116 79 239 119 80 240 118 80 241 114 80 242 117 81 243 121 81 244 119 81 245 119 82 246 120 82 247 118 82 248 118 83 249 121 83 250 117 83 251 115 146 438 116 146 439 119 146 440 114 147 441 118 147 442 117 147 443 119 148 444 121 148 445 120 148 446 162 170 510 165 170 511 163 170 512 162 171 513 163 171 514 164 171 515 160 172 516 165 172 517 162 172 518 160 173 519 166 173 520 165 173 521 164 174 522 165 174 523 167 174 524 232 214 642 236 214 643 237 214 644 234 215 645 237 215 646 233 215 647 233 216 648 236 216 649 235 216 650 237 217 651 238 217 652 233 217 653 233 218 654 240 218 655 236 218 656 238 219 657 240 219 658 233 219 659 161 250 750 164 250 751 160 250 752 161 251 753 162 251 754 164 251 755 160 252 756 164 252 757 167 252 758 164 253 759 163 253 760 165 253 761 160 254 762 167 254 763 166 254 764 235 290 870 234 290 871 233 290 872 232 291 873 237 291 874 234 291 875 232 292 876 235 292 877 236 292 878 238 293 879 237 293 880 239 293 881 237 294 882 236 294 883 239 294 884 236 295 885 240 295 886 239 295 887</p>
        </triangles>
      </mesh>
    </geometry>
  </library_geometries>
  <library_visual_scenes>
    <visual_scene id="Scene">
      <node id="Node" type="NODE">
        <instance_geometry url="#geometry">
          <bind_material>
            <technique_common>
              <instance_material symbol="m0" target="#m0">
                <bind_vertex_input semantic="UVSET0" input_semantic="TEXCOORD" input_set="0" />
              </instance_material>
              <instance_material symbol="m1" target="#m1">
                <bind_vertex_input semantic="UVSET0" input_semantic="TEXCOORD" input_set="0" />
              </instance_material>
              <instance_material symbol="m2" target="#m2">
                <bind_vertex_input semantic="UVSET0" input_semantic="TEXCOORD" input_set="0" />
              </instance_material>
              <instance_material symbol="m3" target="#m3">
                <bind_vertex_input semantic="UVSET0" input_semantic="TEXCOORD" input_set="0" />
              </instance_material>
              <instance_material symbol="m4" target="#m4">
                <bind_vertex_input semantic="UVSET0" input_semantic="TEXCOORD" input_set="0" />
              </instance_material>
              <instance_material symbol="m5" target="#m5">
                <bind_vertex_input semantic="UVSET0" input_semantic="TEXCOORD" input_set="0" />
              </instance_material>
            </technique_common>
          </bind_material>
        </instance_geometry>
      </node>
    </visual_scene>
  </library_visual_scenes>
  <scene>
    <instance_visual_scene url="#Scene" />
  </scene>
</COLLADA>