<?xml version='1.0' encoding='utf-8'?>
<COLLADA xmlns="http://www.collada.org/2005/11/COLLADASchema" version="1.4.1">
  <asset>
    <created>2026-09-08T00:00:00Z</created>
    <modified>2026-09-08T00:00:00Z</modified>
    <unit name="meter" meter="1" />
    <up_axis>Z_UP</up_axis>
  </asset>
  <library_images />
  <library_effects>
    <effect id="e0">
      <profile_COMMON>
        <technique sid="common">
          <phong>
            <ambient>
              <color>0.1755 0.18 0.1485 1</color>
            </ambient>
            <diffuse>
              <color>0.39 0.4 0.33 1</color>
            </diffuse>
            <specular>
              <color>0.02 0.02 0.02 1</color>
            </specular>
            <shininess>
              <float>8</float>
            </shininess>
          </phong>
        </technique>
      </profile_COMMON>
    </effect>
    <effect id="e1">
      <profile_COMMON>
        <technique sid="common">
          <phong>
            <ambient>
              <color>0.045 0.09 0.06075 1</color>
            </ambient>
            <diffuse>
              <color>0.1 0.2 0.135 1</color>
            </diffuse>
            <specular>
              <color>0.02 0.02 0.02 1</color>
            </specular>
            <shininess>
              <float>8</float>
            </shininess>
          </phong>
        </technique>
      </profile_COMMON>
    </effect>
    <effect id="e2">
      <profile_COMMON>
        <technique sid="common">
          <phong>
            <ambient>
              <color>0.0765 0.1215 0.0765 1</color>
            </ambient>
            <diffuse>
              <color>0.17 0.27 0.17 1</color>
            </diffuse>
            <specular>
              <color>0.02 0.02 0.02 1</color>
            </specular>
            <shininess>
              <float>8</float>
            </shininess>
          </phong>
        </technique>
      </profile_COMMON>
    </effect>
    <effect id="e3">
      <profile_COMMON>
        <technique sid="common">
          <phong>
            <ambient>
              <color>0.099 0.1395 0.09225 1</color>
            </ambient>
            <diffuse>
              <color>0.22 0.31 0.205 1</color>
            </diffuse>
            <specular>
              <color>0.02 0.02 0.02 1</color>
            </specular>
            <shininess>
              <float>8</float>
            </shininess>
          </phong>
        </technique>
      </profile_COMMON>
    </effect>
    <effect id="e4">
      <profile_COMMON>
        <technique sid="common">
          <phong>
            <ambient>
              <color>0.054 0.1035 0.09 1</color>
            </ambient>
            <diffuse>
              <color>0.12 0.23 0.2 1</color>
            </diffuse>
            <specular>
              <color>0.02 0.02 0.02 1</color>
            </specular>
            <shininess>
              <float>8</float>
            </shininess>
          </phong>
        </technique>
      </profile_COMMON>
    </effect>
    <effect id="e5">
      <profile_COMMON>
        <technique sid="common">
          <phong>
            <ambient>
              <color>0.126 0.1485 0.0855 1</color>
            </ambient>
            <diffuse>
              <color>0.28 0.33 0.19 1</color>
            </diffuse>
            <specular>
              <color>0.02 0.02 0.02 1</color>
            </specular>
            <shininess>
              <float>8</float>
            </shininess>
          </phong>
        </technique>
      </profile_COMMON>
    </effect>
  </library_effects>
  <library_materials>
    <material id="m0" name="m0">
      <instance_effect url="#e0" />
    </material>
    <material id="m1" name="m1">
      <instance_effect url="#e1" />
    </material>
    <material id="m2" name="m2">
      <instance_effect url="#e2" />
    </material>
    <material id="m3" name="m3">
      <instance_effect url="#e3" />
    </material>
    <material id="m4" name="m4">
      <instance_effect url="#e4" />
    </material>
    <material id="m5" name="m5">
      <instance_effect url="#e5" />
    </material>
  </library_materials>
  <library_geometries>
    <geometry id="geometry" name="forest_18_27">
      <mesh>
        <source id="positions">
          <float_array id="positions-array" count="405">-16.26581 70.28728 -0.4270575 -16.18966 70.25973 -0.4296884 -16.22174 70.34375 -0.4289383 -16.18727 70.30865 1.069809 -16.17052 70.28759 1.069398 -16.16287 70.31498 1.068972 -16.21644 70.30287 0.3204425 -16.19322 70.28284 0.3127399 -16.18257 70.31139 0.3276421 -16.27864 69.88178 1.243 -16.27311 69.8753 1.240334 -16.27086 69.88257 1.244078 -16.27425 69.87979 1.541264 -16.27425 69.87981 1.513846 -16.27421 69.87981 1.54639 -16.68956 69.9753 1.282294 -16.33814 69.59083 1.344715 -15.90614 70.12981 1.296323 -16.27419 69.87978 0.9879104 -16.27425 69.88072 0.9402234 -16.27456 69.87985 0.901573 -16.21462 70.30558 0.3180767 -16.18752 70.28306 0.3161571 -16.1921 70.31653 0.3093402 -15.93509 70.53825 1.371653 -15.92735 70.53465 1.370446 -15.92718 70.54107 1.368835 -15.92289 70.54078 1.687518 -15.92794 70.53468 1.521177 -15.93866 70.53697 1.576356 -16.02723 70.94308 1.307319 -15.71038 70.57573 1.117767 -15.93046 70.53817 1.15317 -15.93071 70.53809 1.095693 -15.93163 70.53585 1.100569 -16.20864 70.28801 0.4442507 -16.18299 70.29828 0.4669253 -16.20582 70.31422 0.4460119 -16.78028 70.31641 1.143532 -16.77398 70.31774 1.149148 -16.77713 70.32435 1.146114 -16.7772 70.31941 1.394454 -16.77711 70.31955 1.379123 -16.37163 70.39531 1.206302 -16.6944 70.69613 1.136724 -17.11655 70.53505 1.181522 -16.77705 70.31947 1.368351 -16.96228 69.97826 1.201727 -16.70195 70.03911 0.9097533 -16.77717 70.3195 0.9460642 -16.7772 70.31952 0.918492 -16.77733 70.31952 0.9289806 -16.21133 70.28599 0.6019248 -16.17978 70.3025 0.5975488 -16.20727 70.31274 0.6115946 -16.05389 70.12656 1.055945 -16.04927 70.12134 1.052162 -16.04551 70.12866 1.053874 -16.03312 70.13345 1.284743 -15.65792 70.12606 1.061022 -16.06994 70.11549 1.192446 -16.24078 70.06246 1.025213 -16.06282 70.14876 0.8622376 -16.04954 70.12559 0.8798689 -16.04952 70.12543 0.8231586 -16.21373 70.2897 0.4936636 -16.18533 70.28663 0.4966326 -16.19097 70.31522 0.4817721 -16.24366 70.73154 1.400795 -16.23814 70.72659 1.403574 -16.23505 70.73368 1.40013 -16.23872 70.73068 1.595949 -16.239 70.73113 1.625814 -16.23897 70.73068 1.598029 -16.60074 70.58395 1.460467 -16.04279 70.43342 1.448596 -16.03745 70.93494 1.309157 -16.23821 70.72961 1.142568 -16.23959 70.7308 1.183302 -16.23894 70.7307 1.223123 -16.20547 70.28372 0.263142 -16.17985 70.30243 0.2769334 -16.20191 70.31685 0.2750666 -16.44237 70.02939 1.144184 -16.43519 70.03128 1.14693 -16.44075 70.03759 1.147348 -16.43953 70.03283 1.384355 -16.43953 70.0328 1.419573 -16.04184 70.02141 1.144651 -16.4396 70.03273 1.414366 -16.71772 70.2762 1.146607 -16.60165 69.59395 1.077543 -16.43967 70.03278 0.863737 -16.43951 70.03281 0.8344593 -16.43951 70.03281 0.8948583 -16.21047 70.31161 0.6406394 -16.19438 70.28105 0.6339479 -16.18112 70.30221 0.6250884 -15.92509 70.33205 1.166144 -15.91929 70.3313 1.162979 -15.92138 70.3396 1.16351 -15.922 70.33495 1.383326 -15.90396 70.33707 1.386652 -15.91079 70.32275 1.054734 -15.68976 70.27534 1.12058 -15.92946 70.34029 1.211519 -15.92198 70.33607 0.9239911 -15.92201 70.3349 0.9232603 -16.21232 70.30812 0.4140905 -16.19855 70.28056 0.427917 -16.18126 70.30933 0.427227 -16.66505 70.60453 1.566215 -16.65768 70.60055 1.570537 -16.65887 70.60776 1.56798 -16.67179 70.6246 1.791919 -16.66072 70.60403 1.842281 -16.66096 70.60305 1.810161 -16.51198 70.29086 1.502965 -16.6616 70.61204 1.326275 -16.99534 70.70592 1.567124 -16.66094 70.60299 1.318246 -16.66076 70.60289 1.336794 -16.21581 70.29614 0.7126833 -16.18071 70.29314 0.7047523 -16.19027 70.31323 0.7235181 -16.1065 69.76919 1.377932 -16.10123 69.76454 1.373123 -16.09767 69.77021 1.377445 -16.09991 69.78062 1.477914 -15.95513 69.71408 1.566535 -16.10139 69.76825 1.705029 -16.10208 69.76793 1.757806 -16.25451 69.64812 1.35426 -16.10193 69.76868 1.01675 -16.10205 69.7669 1.031456</float_array>
          <technique_common>
            <accessor source="#positions-array" count="135" stride="3">
              <param name="X" type="float" />
              <param name="Y" type="float" />
              <param name="Z" type="float" />
            </accessor>
          </technique_common>
        </source>
        <source id="normals">
          <float_array id="normals-array" count="468">-0.7811502 -0.6223481 0.04987235 0.9336945 0.356825 -0.02984047 -0.7874584 0.615509 0.03252467 -0.7828011 -0.5444665 -0.3012951 0.9451188 -0.3212213 -0.05972663 -0.1477305 0.9011967 0.4074558 0.5612893 -0.8276188 -0.001232497 0.5505989 0.3828269 -0.7418116 0.1656601 -0.8803145 0.4445258 0.5994049 0.6283762 0.4958397 -0.7242893 0.6094838 0.3223889 -0.9752032 0.2212676 0.004390645 -0.5921128 -0.7394283 0.3203878 -0.3633678 -0.8819737 0.3001436 0.9629914 0.07931016 -0.2575993 -0.367013 0.9243695 -0.1041269 -0.792475 -0.5147297 -0.3271647 0.2129645 0.9770595 0.0008603268 -0.2360713 0.9713187 -0.02846667 0.974984 0.2218404 0.01389768 -0.1777173 0.9840722 0.004302335 0.174283 -0.9839035 0.03948911 -0.1683566 0.9857259 -0.0007136723 -0.009274915 -0.4648434 0.8853444 0.9664664 0.1088027 0.232604 0.202496 -0.9577065 0.2044349 0.6384599 0.5510152 0.5373558 0.3617404 0.8885014 0.282328 -0.68604 0.4566039 -0.5664468 0.1803626 -0.9835677 -0.00799212 0.1250785 -0.5562735 -0.8215322 0.5372094 0.8434436 -0.002981287 0.5351902 0.1179392 -0.8364579 -0.1833393 0.9830487 0.001366436 -0.2667205 -0.4795402 -0.8360032 -0.3949574 0.5672855 -0.7226312 -0.5440559 0.77407 -0.3237575 0.2859308 -0.5267197 0.800506 -0.9658464 -0.2588401 -0.01194107 -0.9655208 -0.2601764 0.0088233 0.8546462 -0.3489986 -0.3844215 0.4324793 0.8775493 0.2070481 -0.0765681 0.9839936 -0.1609158 -0.03958709 -0.9986577 -0.03340156 0.3899597 -0.9188294 -0.06069519 -0.2589435 -0.8655998 0.4285852 0.3153914 -0.9489575 0.002816782 -0.140967 -0.8939391 0.4254423 0.9300342 -0.3064426 0.2028035 -0.777333 0.5550883 -0.2960243 -0.7240912 0.6894924 -0.01709205 0.118741 0.5074087 -0.8534852 -0.8528185 -0.5125295 -0.1000701 0.461659 -0.8501152 -0.2533281 0.5614797 -0.7590806 0.3294497 0.2094308 0.7244594 0.6567323 0.8290968 0.5589855 0.01156145 0.6115987 -0.7883922 -0.06621693 0.7033498 0.5934041 0.3913703 -0.9621584 0.1777316 -0.2065494 -0.03061984 -0.999526 -0.00319766 -0.3111987 -0.8218689 -0.4771655 0.668452 0.7435311 -0.01826144 -0.4160193 0.6454037 -0.6406107 0.02776478 0.9996139 0.001119689 -0.02863748 -0.9995899 0 -0.6563116 -0.7544786 0.004134996 -0.06042467 -0.9902551 0.1254739 0.7340467 -0.5962466 -0.3250621 0.06231327 -0.9600241 0.2728933 0.441129 0.8961742 -0.04771731 0.2227726 0.9737573 -0.04657363 0.7221782 0.6916533 0.008622039 -0.6524624 -0.3884244 0.6507068 -0.8345765 -0.5150602 -0.1954356 0.7747726 -0.4551776 0.4387946 0.05909046 0.9715309 -0.2294254 0.03529794 -0.9224512 -0.3844969 0.5457284 0.705446 -0.4522461 -0.8976475 -0.4405407 0.01236555 -0.2570279 -0.966188 0.02043203 0.5752797 0.580943 0.5758112 0.3444474 -0.6088494 0.7146037 0.6996759 0.5658827 0.4361541 -0.200731 -0.7798587 -0.5928976 0.8911005 -0.2983612 -0.3419364 0.9376047 0.320948 0.1337527 -0.05334462 0.7645123 0.6423981 -0.01285681 0.959876 -0.2801297 -0.4302141 -0.9023736 0.02525246 0.6427881 -0.7658549 0.01702081 -0.3394264 -0.9403797 0.02181249 0.9631334 -0.2689251 -0.007296958 -0.2499881 0.9678319 0.02841342 -0.6759476 -0.6514932 -0.3444582 0.9600312 -0.2773956 -0.03730727 -0.3007916 0.875088 0.3791377 0.1690219 -0.8054203 -0.5680931 -0.9764431 0.215775 0.0002019376 0.976578 -0.2151596 -0.00130447 -0.692789 0.5094659 -0.5103801 -0.2035236 -0.9787873 0.02352618 0.9748736 -0.2226882 -0.005600102 0.9720035 -0.08122375 -0.2204811 -0.4592492 0.8852494 -0.07364636 0.9824473 0.119212 -0.1434773 0.103441 -0.9876359 0.1177936 -0.7656761 0.1248774 -0.6309879 0.7049378 0.2197966 0.6743532 -0.4498071 -0.2870075 0.8457542 -0.9768227 0.2140464 0.001211655 0.6650281 0.1557163 0.730404 -0.590445 -0.2574648 0.7649095 -0.7410351 -0.6711281 0.02130773 0.3697659 -0.8217403 -0.4336082 -0.1220543 0.8997032 0.4190906 -0.9421447 0.02210513 0.3344769 -0.01736281 0.9995127 0.02594108 0.2887012 0.6791362 0.6748523 -0.3042905 0.9525386 0.008807188 -0.7150735 -0.6374654 0.2868933 0.9837245 0.1765814 -0.03324322 -0.250193 0.8764545 -0.4113769 -0.3707634 0.9285999 -0.01538887 -0.7448853 -0.1713569 -0.6448121 -0.7343286 0.1890668 0.651932 0.7084102 -0.7056198 0.01598776 -0.7146053 0.6994017 0.01328266 0.3148841 -0.9311035 -0.1841038 0.4823834 0.7872479 0.3841185 -0.9491066 0.2579232 -0.1807546 -0.6581573 -0.7528803 -0.0005670981 0.7627499 0.1922685 -0.6174508 0.7360624 0.05694307 0.6745143 -0.4823137 0.5211107 0.7041429 -0.3122032 -0.8317218 0.4590948 -0.7565987 -0.4925676 0.4300413 0.8663351 0.2454641 -0.4349838 0.217092 0.9609737 -0.1714661 -0.7625072 0.5130755 0.3941271 -0.2679731 -0.9632524 -0.01830963 -0.2589072 -0.9658734 0.007457616 0.1879274 0.979359 0.07442587 -0.4946818 -0.8679446 0.04429583 0.9127006 0.2619864 0.3135934 -0.3496992 0.8649546 -0.3599499 0.3146088 0.9487052 -0.03130232 -0.9046794 -0.4260121 -0.0083038 0.295682 0.9552838 0.002224941 -0.7722403 -0.5536376 -0.3116574 -0.6127934 0.567344 0.5500955 0.6636551 -0.7474859 -0.02875165 -0.3558826 -0.9344738 -0.01030834 -0.3902806 -0.9191914 -0.05261333 -0.3334219 0.9248776 0.1828421 -0.4670284 0.8782707 0.1025914</float_array>
          <technique_common>
            <accessor source="#normals-array" count="156" stride="3">
              <param name="X" type="float" />
              <param name="Y" type="float" />
              <param name="Z" type="float" />
            </accessor>
          </technique_common>
        </source>
        <source id="uv">
          <float_array id="uv-array" count="936">28.11491 -0.170823 28.11504 0.4277592 28.12346 0.4279236 28.1375 -0.1715753 28.12599 0.4275887 28.10389 -0.1718754 28.11491 -0.170823 28.12346 0.4279236 28.1375 -0.1715753 28.12115 0.128177 27.95012 0.4961337 27.95271 0.4971999 28.12455 0.1310569 27.95012 0.4961337 28.11314 0.1250959 -6.473029 0.1310569 -6.511457 0.4971999 -6.508346 0.4976311 -6.5097 0.6165057 -6.362456 0.5185292 -6.509683 0.618556 -6.5097 27.95192 -6.535258 27.83633 -6.675824 27.99012 -6.362456 0.5185292 -6.675824 0.5129178 -6.5097 0.3760893 -6.535258 0.5378859 -6.509825 0.3606292 -6.675824 0.5129178 28.05192 0.5185292 27.95229 0.3760893 27.83633 0.5378859 27.83633 0.5378859 27.95191 0.3951641 27.95194 0.3606292 -6.475009 0.1264628 -6.374034 0.5486613 -6.485846 0.1272307 -6.475009 0.1264628 -6.370941 0.5481783 -6.374034 0.5486613 28.12661 0.1237361 28.21643 0.5475338 28.11322 0.1264628 -6.476842 0.1237361 -6.374034 0.5486613 -6.370873 0.5475338 28.21631 0.6750071 28.37723 0.5229278 28.23029 0.4471068 -6.371177 0.6084709 -6.372651 0.4402277 -6.375465 0.6305424 -6.369157 0.6750071 -6.284151 0.4471068 -6.371177 0.6084709 28.21479 0.6305424 28.21434 0.4402277 28.37723 0.5229278 -6.371177 0.6084709 -6.284151 0.4471068 -6.372651 0.4402277 -6.284151 0.4471068 -6.372186 0.461268 -6.372651 0.4402277 -6.284151 0.4471068 -6.372282 0.4382771 -6.372186 0.461268 -6.410893 28.37723 -6.372282 28.21523 -6.284151 28.23029 28.37723 0.5229278 28.21434 0.4402277 28.21523 0.4382771 -6.473196 0.1867701 -6.712113 0.457413 -6.483457 0.1777003 28.11931 0.1867701 28.12974 0.4584454 28.1271 0.4596594 -6.482328 0.1784047 -6.710852 0.4584454 -6.473196 0.1867701 28.12569 0.1784047 28.12657 0.457413 28.12974 0.4584454 -6.710844 0.5516491 -6.548653 0.4825208 -6.710882 0.5577816 -6.710844 28.12782 -6.846622 28.21402 -6.677762 28.27845 -6.71082 0.5473405 -6.846622 0.4726089 -6.710844 0.5516491 -6.71082 28.12779 -6.784911 27.9913 -6.846622 28.21402 -6.710882 0.5577816 -6.548653 0.4825208 -6.71082 0.5473405 -6.710844 28.12782 -6.677762 28.27845 -6.548653 28.15812 -6.71082 28.12779 -6.548653 28.15812 -6.784911 27.9913 -6.548653 0.4825208 -6.680778 0.3639013 -6.784911 0.4806907 -6.846622 28.21402 -6.71088 28.12781 -6.677762 28.27845 28.01565 0.3639013 28.12781 0.3715922 28.12781 0.3673968 28.01565 0.3639013 28.1278 0.3784257 28.12781 0.3715922 28.121 0.2390195 28.05146 0.4215495 28.04854 0.4208647 -6.48291 0.2446378 -6.418204 0.4215495 -6.471911 0.2390195 -6.427976 0.4769785 -6.41325 0.5138974 -6.26317 0.4244087 -6.41325 0.5138974 -6.425126 0.344895 -6.26317 0.4244087 -6.41325 0.5138974 -6.496312 0.4100852 -6.425126 0.344895 -6.26317 0.4244087 -6.425126 0.344895 -6.419807 0.3292634 -6.496312 0.4100852 -6.419807 0.3292634 -6.419814 0.3519476 -6.474134 0.198653 -6.495255 0.5614297 -6.48549 0.1974654 28.11465 0.198653 28.29347 0.5600519 28.29064 0.5614297 28.11588 0.1974654 28.29261 0.5603181 28.12609 0.1927088 28.29227 0.6383795 28.29245 0.6503255 28.37398 0.5236627 -6.495588 28.29227 -6.417114 28.17337 -6.640297 28.23358 28.29227 0.6383795 28.17337 0.5794386 28.29227 0.6392116 -6.495601 0.6503255 -6.640297 0.5841867 -6.414981 0.5236627 -6.640297 0.5841867 -6.495835 0.4733206 -6.414981 0.5236627 -6.417114 0.5794386 -6.495835 0.4733206 -6.640297 0.5841867 28.29184 0.4570274 28.29232 0.4733206 28.17337 0.5794386 -6.471941 0.1107734 -6.574076 0.458772 -6.482187 0.1052568 28.12097 0.1107734 28.01504 0.458939 28.01251 0.458772 28.11349 0.1052568 28.01504 0.458939 28.12674 0.1100266 -6.575812 0.5537419 -6.416735 0.4578602 -6.575839 0.5657465 -6.575812 0.5537419 -6.687088 0.4586427 -6.416735 0.4578602 -6.57581 0.567829 -6.575839 0.5657465 -6.687088 0.4586427 -6.416735 0.4578602 -6.640661 0.4310173 -6.575839 0.5657465 -6.416735 0.4578602 -6.575804 0.3337837 -6.575869 0.3454948 -6.416735 0.4578602 -6.575804 0.3579433 -6.575804 0.3337837 -6.687088 0.4586427 -6.575869 0.3454948 -6.575804 0.3579433 -6.477752 0.2535792 -6.367717 0.4651918 -6.370037 0.4664574 28.12088 0.2500354 28.13252 0.4651918 28.11242 0.2535792 -6.368801 0.5533304 -6.275906 0.4482318 -6.361586 0.5546608 -6.361586 0.5546608 -6.364315 0.4218938 -6.371782 0.4846076 -6.361586 0.5546608 -6.275906 0.4482318 -6.364315 0.4218938 28.13612 0.4846076 28.1291 0.4218938 28.13443 0.3695964 28.11013 0.4482318 28.13443 0.3695964 28.13396 0.3693041 28.11222 0.1711668 28.24181 0.6264859 28.12325 0.1656362 28.12373 0.1708908 28.24022 0.6282147 28.11222 0.1711668 -6.484928 0.1656362 -6.66355 0.6271921 -6.472504 0.1708908 -6.664288 0.7369124 -6.798135 0.6268497 -6.668715 0.7167676 -6.664384 0.7240645 -6.604791 0.6011859 -6.798135 0.6268497 28.24984 0.7167676 28.11634 0.6011859 28.24122 0.7240645 -6.798135 0.6268497 -6.66464 0.5305102 -6.668715 0.7167676 -6.604791 0.6011859 -6.664303 0.5347177 -6.798135 0.6268497 -6.798135 28.28237 -6.664375 28.2412 -6.66464 28.24482 28.24482 0.5305102 28.24116 0.5347177 28.11634 0.6011859 -6.472285 0.2819009 -6.440491 0.5492492 -6.486323 0.2850733 28.11726 0.2819009 27.90808 0.5509778 27.90582 0.5492492 28.12529 0.2894072 27.90808 0.5509778 28.11726 0.2819009 -6.476106 0.2894072 -6.442599 0.5511726 -6.439069 0.5509778 -6.440831 0.7031223 -6.382053 0.626614 -6.501802 0.5417039 -6.439963 0.5911656 -6.440771 0.4067001 -6.382053 0.626614 -6.501802 0.5417039 -6.440771 0.4067001 -6.439963 0.5911656 -6.506323 -0.170823 -6.475862 -0.1718754 -6.468207 0.4277592 28.10389 -0.1718754 28.12599 0.4275887 28.11504 0.4277592 -6.488697 -0.1715753 -6.474909 0.4279236 -6.46515 0.4275887 28.12115 0.128177 28.11314 0.1250959 27.95012 0.4961337 28.12455 0.1310569 27.95303 0.4976311 27.95012 0.4961337 -6.473029 0.1310569 -6.486575 0.128177 -6.511457 0.4971999 -6.5097 0.6165057 -6.675824 0.5129178 -6.362456 0.5185292 27.95192 0.6165057 27.95192 0.6055383 27.83633 0.5378859 27.95192 0.6055383 27.95192 0.618556 27.83633 0.5378859 27.95192 0.618556 28.05192 0.5185292 27.83633 0.5378859 -6.5097 0.3760893 -6.675824 0.5129178 -6.509825 0.3606292 27.83633 0.5378859 27.95229 0.3760893 27.95191 0.3951641 28.11322 0.1264628 28.21643 0.5475338 28.21386 0.5481783 -6.476842 0.1237361 -6.485846 0.1272307 -6.374034 0.5486613 28.21479 0.6305424 28.37723 0.5229278 28.21631 0.6750071 -6.473196 0.1867701 -6.709592 0.4596594 -6.712113 0.457413 28.12569 0.1784047 28.1152 0.1777003 28.12657 0.457413 27.9913 0.4806907 28.01565 0.3639013 28.21402 0.4726089 -6.548653 28.15812 -6.677762 28.27845 -6.680778 28.01565 28.27845 0.4546896 28.12781 0.3673968 28.1278 0.3784257 -6.846622 28.21402 -6.680778 28.01565 -6.71088 28.12781 -6.680778 28.01565 -6.677762 28.27845 -6.710868 28.1278 28.1144 0.2407699 28.04854 0.4208647 28.05062 0.4223779 -6.484534 0.2407699 -6.471911 0.2390195 -6.419708 0.4208647 -6.48291 0.2446378 -6.421556 0.4223779 -6.418204 0.4215495 28.12509 0.2446378 28.1144 0.2407699 28.05062 0.4223779 -6.427976 0.4769785 -6.26317 0.4244087 -6.419807 0.3292634 -6.425126 0.344895 -6.496312 0.4100852 -6.419814 0.3519476 -6.496312 0.4100852 -6.427976 0.4769785 -6.419807 0.3292634 28.11588 0.1974654 28.29064 0.5614297 28.29261 0.5603181 28.11465 0.198653 28.12609 0.1927088 28.29347 0.5600519 -6.476387 0.1927088 -6.497466 0.5603181 -6.49402 0.5600519 -6.495601 0.6503255 -6.495588 0.6392116 -6.640297 0.5841867 28.29227 0.6383795 28.37398 0.5236627 28.17337 0.5794386 28.17337 0.5794386 28.37398 0.5236627 28.29184 0.4570274 28.29184 0.4570274 28.37398 0.5236627 28.29228 0.4892493 28.37398 0.5236627 28.29232 0.4733206 28.29228 0.4892493 -6.482187 0.1052568 -6.574076 0.458772 -6.576949 0.4576736 -6.471941 0.1107734 -6.480763 0.1100266 -6.576299 0.458939 28.11349 0.1052568 28.01176 0.4576736 28.01504 0.458939 -6.575812 0.5537419 -6.57581 0.567829 -6.687088 0.4586427 28.11048 0.4586427 28.01309 0.5657465 27.83758 0.4310173 28.11048 0.4586427 27.83758 0.4310173 28.01311 0.3454948 -6.640661 27.83758 -6.416735 28.00857 -6.575869 28.01311 -6.416735 0.4578602 -6.687088 0.4586427 -6.575804 0.3579433 28.12464 0.2562558 28.11242 0.2535792 28.13282 0.4664574 28.12088 0.2500354 28.13584 0.4654039 28.13252 0.4651918 -6.472449 0.2500354 -6.484189 0.2562558 -6.368551 0.4654039 28.12464 0.2562558 28.13282 0.4664574 28.13584 0.4654039 -6.368801 0.5533304 -6.371782 0.4846076 -6.275906 0.4482318 -6.275906 0.4482318 -6.371782 0.4846076 -6.368791 0.3695964 -6.364315 0.4218938 -6.275906 0.4482318 -6.368804 0.3693041 -6.479421 0.1711668 -6.663073 0.6282147 -6.666021 0.6264859 28.12373 0.1708908 28.24311 0.6271921 28.24022 0.6282147 -6.484928 0.1656362 -6.666021 0.6264859 -6.66355 0.6271921 -6.664288 0.7369124 -6.664384 0.7240645 -6.798135 0.6268497 28.24984 0.7167676 28.24482 0.5305102 28.11634 0.6011859 -6.798135 0.6268497 -6.664303 0.5347177 -6.664375 0.5272983 28.11846 0.2850733 27.90582 0.5492492 27.90767 0.5511726 28.12529 0.2894072 28.11846 0.2850733 27.90767 0.5511726 -6.439963 0.5911656 -6.440831 0.7031223 -6.501802 0.5417039 -6.440831 0.7031223 -6.440557 0.6820118 -6.382053 0.626614 -6.440557 0.6820118 -6.439963 0.5911656 -6.382053 0.626614 -6.501802 0.5417039 -6.382053 0.626614 -6.440819 0.4125824 -6.501802 0.5417039 -6.440819 0.4125824 -6.440771 0.4067001</float_array>
          <technique_common>
            <accessor source="#uv-array" count="468" stride="2">
              <param name="S" type="float" />
              <param name="T" type="float" />
            </accessor>
          </technique_common>
        </source>
        <vertices id="vertices">
          <input semantic="POSITION" source="#positions" />
        </vertices>
        <triangles count="60" material="m0">
          <input semantic="VERTEX" source="#vertices" offset="0" />
          <input semantic="NORMAL" source="#normals" offset="1" />
          <input semantic="TEXCOORD" source="#uv" offset="2" set="0" />
          <p>0 0 0 4 0 1 3 0 2 2 1 3 5 1 4 1 1 5 0 2 6 3 2 7 2 2 8 6 3 9 10 3 10 9 3 11 8 4 12 10 4 13 7 4 14 8 5 15 9 5 16 11 5 17 22 12 36 24 12 37 21 12 38 22 13 39 25 13 40 24 13 41 23 14 42 26 14 43 22 14 44 23 15 45 24 15 46 26 15 47 36 25 75 38 25 76 35 25 77 36 26 78 40 26 79 39 26 80 37 27 81 40 27 82 36 27 83 37 28 84 38 28 85 40 28 86 53 40 120 57 40 121 56 40 122 54 41 123 57 41 124 53 41 125 66 47 141 69 47 142 65 47 143 66 48 144 70 48 145 69 48 146 65 49 147 68 49 148 67 49 149 81 57 171 84 57 172 80 57 173 81 58 174 85 58 175 84 58 176 80 59 177 85 59 178 82 59 179 96 67 201 99 67 202 98 67 203 97 68 204 99 68 205 96 68 206 109 74 222 111 74 223 108 74 224 110 75 225 112 75 226 109 75 227 108 76 228 113 76 229 110 76 230 123 84 252 126 84 253 122 84 254 123 85 255 127 85 256 126 85 257 124 86 258 127 86 259 123 86 260 124 87 261 125 87 262 127 87 263 0 91 273 1 91 274 4 91 275 1 92 276 5 92 277 4 92 278 2 93 279 3 93 280 5 93 281 6 94 282 7 94 283 10 94 284 8 95 285 11 95 286 10 95 287 8 96 288 6 96 289 9 96 290 22 103 309 26 103 310 25 103 311 23 104 312 21 104 313 24 104 314 36 106 318 39 106 319 38 106 320 37 107 321 35 107 322 38 107 323 52 113 339 56 113 340 55 113 341 52 114 342 53 114 343 56 114 344 54 115 345 55 115 346 57 115 347 54 116 348 52 116 349 55 116 350 65 120 360 69 120 361 68 120 362 66 121 363 67 121 364 70 121 365 67 122 366 68 122 367 70 122 368 80 128 384 84 128 385 83 128 386 81 129 387 82 129 388 85 129 389 80 130 390 83 130 391 85 130 392 95 136 408 96 136 409 98 136 410 97 137 411 100 137 412 99 137 413 97 138 414 95 138 415 100 138 416 95 139 417 98 139 418 100 139 419 109 143 429 112 143 430 111 143 431 110 144 432 113 144 433 112 144 434 108 145 435 111 145 436 113 145 437 122 149 447 126 149 448 125 149 449 124 150 450 122 150 451 125 150 452</p>
        </triangles>
        <triangles count="20" material="m4">
          <input semantic="VERTEX" source="#vertices" offset="0" />
          <input semantic="NORMAL" source="#normals" offset="1" />
          <input semantic="TEXCOORD" source="#uv" offset="2" set="0" />
          <p>12 6 18 17 6 19 14 6 20 12 7 21 16 7 22 15 7 23 17 8 24 15 8 25 19 8 26 16 9 27 20 9 28 15 9 29 17 10 30 19 10 31 16 10 32 16 11 33 18 11 34 20 11 35 60 42 126 58 42 127 59 42 128 58 43 129 62 43 130 59 43 131 58 44 132 61 44 133 62 44 134 59 45 135 62 45 136 64 45 137 61 46 138 64 46 139 63 46 140 12 97 291 15 97 292 17 97 293 12 98 294 13 98 295 16 98 296 13 99 297 14 99 298 16 99 299 14 100 300 17 100 301 16 100 302 19 101 303 15 101 304 20 101 305 16 102 306 19 102 307 18 102 308 60 117 351 59 117 352 64 117 353 62 118 354 61 118 355 63 118 356 61 119 357 60 119 358 64 119 359</p>
        </triangles>
        <triangles count="18" material="m2">
          <input semantic="VERTEX" source="#vertices" offset="0" />
          <input semantic="NORMAL" source="#normals" offset="1" />
          <input semantic="TEXCOORD" source="#uv" offset="2" set="0" />
          <p>27 16 48 30 16 49 31 16 50 28 17 51 34 17 52 29 17 53 27 18 54 31 18 55 28 18 56 29 19 57 34 19 58 30 19 59 28 20 60 31 20 61 34 20 62 31 21 63 32 21 64 34 21 65 31 22 66 33 22 67 32 22 68 30 23 69 33 23 70 31 23 71 30 24 72 34 24 73 33 24 74 101 69 207 104 69 208 102 69 209 102 70 210 103 70 211 105 70 212 102 71 213 104 71 214 103 71 215 105 72 216 103 72 217 106 72 218 104 73 219 106 73 220 107 73 221 29 105 315 30 105 316 27 105 317 101 140 420 105 140 421 104 140 422 104 141 423 105 141 424 106 141 425 103 142 426 104 142 427 107 142 428</p>
        </triangles>
        <triangles count="36" material="m5">
          <input semantic="VERTEX" source="#vertices" offset="0" />
          <input semantic="NORMAL" source="#normals" offset="1" />
          <input semantic="TEXCOORD" source="#uv" offset="2" set="0" />
          <p>42 29 87 43 29 88 41 29 89 42 30 90 45 30 91 44 30 92 46 31 93 45 31 94 42 31 95 46 32 96 47 32 97 45 32 98 41 33 99 43 33 100 46 33 101 42 34 102 44 34 103 43 34 104 46 35 105 43 35 106 47 35 107 43 36 108 48 36 109 47 36 110 45 37 111 50 37 112 44 37 113 48 38 114 51 38 115 50 38 116 48 39 117 49 39 118 51 39 119 71 50 150 72 50 151 76 50 152 73 51 153 75 51 154 74 51 155 71 52 156 75 52 157 73 52 158 72 53 159 74 53 160 76 53 161 74 54 162 78 54 163 76 54 164 75 55 165 78 55 166 74 55 167 77 56 168 78 56 169 75 56 170 131 88 264 129 88 265 132 88 266 128 89 267 133 89 268 129 89 269 132 90 270 133 90 271 128 90 272 47 108 324 48 108 325 45 108 326 43 109 327 44 109 328 48 109 329 44 110 330 50 110 331 49 110 332 45 111 333 48 111 334 50 111 335 48 112 336 44 112 337 49 112 338 72 123 369 73 123 370 74 123 371 71 124 372 76 124 373 75 124 374 75 125 375 76 125 376 77 125 377 77 126 378 76 126 379 79 126 380 76 127 381 78 127 382 79 127 383 128 151 453 131 151 454 132 151 455 131 152 456 130 152 457 129 152 458 130 153 459 128 153 460 129 153 461 132 154 462 129 154 463 134 154 464 132 155 465 134 155 466 133 155 467</p>
        </triangles>
        <triangles count="12" material="m3">
          <input semantic="VERTEX" source="#vertices" offset="0" />
          <input semantic="NORMAL" source="#normals" offset="1" />
          <input semantic="TEXCOORD" source="#uv" offset="2" set="0" />
          <p>86 60 180 88 60 181 89 60 182 86 61 183 90 61 184 88 61 185 87 62 186 89 62 187 90 62 188 88 63 189 91 63 190 89 63 191 88 64 192 93 64 193 92 64 194 88 65 195 94 65 196 93 65 197 90 66 198 92 66 199 94 66 200 86 131 393 87 131 394 90 131 395 90 132 396 89 132 397 91 132 398 90 133 399 91 133 400 92 133 401 91 134 402 88 134 403 92 134 404 88 135 405 90 135 406 94 135 407</p>
        </triangles>
        <triangles count="10" material="m1">
          <input semantic="VERTEX" source="#vertices" offset="0" />
          <input semantic="NORMAL" source="#normals" offset="1" />
          <input semantic="TEXCOORD" source="#uv" offset="2" set="0" />
          <p>115 77 231 119 77 232 114 77 233 116 78 234 117 78 235 119 78 236 114 79 237 117 79 238 116 79 239 119 80 240 118 80 241 114 80 242 117 81 243 121 81 244 119 81 245 119 82 246 120 82 247 118 82 248 118 83 249 121 83 250 117 83 251 115 146 438 116 146 439 119 146 440 114 147 441 118 147 442 117 147 443 119 148 444 121 148 445 120 148 446</p>
        </triangles>
      </mesh>
    </geometry>
  </library_geometries>
  <library_visual_scenes>
    <visual_scene id="Scene">
      <node id="Node" type="NODE">
        <instance_geometry url="#geometry">
          <bind_material>
            <technique_common>
              <instance_material symbol="m0" target="#m0">
                <bind_vertex_input semantic="UVSET0" input_semantic="TEXCOORD" input_set="0" />
              </instance_material>
              <instance_material symbol="m1" target="#m1">
                <bind_vertex_input semantic="UVSET0" input_semantic="TEXCOORD" input_set="0" />
              </instance_material>
              <instance_material symbol="m2" target="#m2">
                <bind_vertex_input semantic="UVSET0" input_semantic="TEXCOORD" input_set="0" />
              </instance_material>
              <instance_material symbol="m3" target="#m3">
                <bind_vertex_input semantic="UVSET0" input_semantic="TEXCOORD" input_set="0" />
              </instance_material>
              <instance_material symbol="m4" target="#m4">
                <bind_vertex_input semantic="UVSET0" input_semantic="TEXCOORD" input_set="0" />
              </instance_material>
              <instance_material symbol="m5" target="#m5">
                <bind_vertex_input semantic="UVSET0" input_semantic="TEXCOORD" input_set="0" />
              </instance_material>
            </technique_common>
          </bind_material>
        </instance_geometry>
      </node>
    </visual_scene>
  </library_visual_scenes>
  <scene>
    <instance_visual_scene url="#Scene" />
  </scene>
</COLLADA>